<svg width="28" height="22" viewBox="0 0 28 22" fill="none" xmlns="http://www.w3.org/2000/svg">
<path d="M24.5861 5.89269C24.5994 6.11939 24.5994 6.35939 24.5994 6.59939C24.5994 13.7194 19.106 21.9194 9.05267 21.9194C5.95934 21.9194 3.07935 21.0394 0.666016 19.506C1.10602 19.5594 1.53269 19.5727 1.98603 19.5727C4.54603 19.5727 6.89269 18.7194 8.77267 17.2794C6.37269 17.226 4.35935 15.6794 3.66602 13.546C3.99935 13.5994 4.34602 13.626 4.69269 13.626C5.18602 13.626 5.67936 13.5594 6.13269 13.4394C3.62603 12.9327 1.74601 10.7727 1.74601 8.15939V8.09269C2.47935 8.49269 3.31936 8.74599 4.21269 8.77269C2.74602 7.79939 1.77269 6.15938 1.77269 4.29268C1.77269 3.29268 2.03935 2.37269 2.51935 1.57269C5.21268 4.83936 9.25267 6.97269 13.786 7.21269C13.706 6.81269 13.6527 6.39939 13.6527 5.98599C13.6527 3.01269 16.0927 0.599365 19.1194 0.599365C20.6927 0.599365 22.1194 1.25268 23.1061 2.29268C24.3461 2.06602 25.5194 1.6127 26.5727 0.999365C26.1727 2.2527 25.3061 3.30602 24.1727 3.95935C25.2661 3.83935 26.3327 3.54602 27.3194 3.13269C26.5727 4.19936 25.6394 5.14602 24.5727 5.91939L24.5861 5.89269Z" fill="white"/>
</svg>
