<svg width="28" height="21" viewBox="0 0 28 21" fill="none" xmlns="http://www.w3.org/2000/svg">
<path d="M23.2666 2.58602C21.5332 1.79935 19.6799 1.22601 17.7599 0.906006C17.5199 1.31934 17.2532 1.87934 17.0665 2.31934C15.0132 2.026 12.9866 2.026 10.9599 2.31934C10.7732 1.87934 10.4932 1.31934 10.2666 0.906006C8.33316 1.22601 6.47986 1.79935 4.75986 2.58602C1.26652 7.67939 0.319851 12.6527 0.799851 17.5593C3.11986 19.226 5.35986 20.2393 7.55986 20.906C8.09316 20.186 8.58656 19.4127 8.99986 18.5993C8.19986 18.306 7.43986 17.946 6.71986 17.5193C6.90652 17.386 7.0932 17.2394 7.26653 17.0927C11.6532 19.0794 16.4266 19.0794 20.7599 17.0927C20.9466 17.2394 21.1199 17.386 21.3066 17.5193C20.5866 17.946 19.8265 18.306 19.0265 18.5993C19.4399 19.4127 19.9332 20.186 20.4666 20.906C22.6666 20.2393 24.9199 19.226 27.2266 17.5593C27.8132 11.8793 26.3066 6.94599 23.2932 2.58602H23.2666ZM9.57316 14.466C8.25316 14.466 7.17319 13.266 7.17319 11.7994C7.17319 10.3327 8.22646 9.13269 9.57316 9.13269C10.9199 9.13269 11.9999 10.3327 11.9732 11.7994C11.9732 13.266 10.9065 14.466 9.57316 14.466ZM18.4266 14.466C17.1066 14.466 16.0265 13.266 16.0265 11.7994C16.0265 10.3327 17.0799 9.13269 18.4266 9.13269C19.7732 9.13269 20.8532 10.3327 20.8265 11.7994C20.8265 13.266 19.7732 14.466 18.4266 14.466Z" fill="white"/>
</svg>
