<svg width="24" height="25" viewBox="0 0 24 25" fill="none" xmlns="http://www.w3.org/2000/svg">
<path d="M23.9207 7.29369C23.8273 5.37364 23.3873 3.66699 21.9873 2.26699C20.5873 0.866987 18.8807 0.426997 16.9607 0.333657C14.974 0.226997 9.04064 0.226997 7.06734 0.333657C5.14735 0.426997 3.45403 0.866987 2.0407 2.26699C0.627366 3.66699 0.200676 5.37364 0.107346 7.29369C0.000676252 9.28029 0.000676252 15.2137 0.107346 17.2003C0.200676 19.1203 0.640696 20.827 2.0407 22.227C3.45403 23.627 5.14735 24.067 7.06734 24.1603C9.05404 24.267 14.9873 24.267 16.9607 24.1603C18.8807 24.067 20.5873 23.627 21.9873 22.227C23.3873 20.827 23.8273 19.1203 23.9207 17.2003C24.0273 15.2137 24.0273 9.28029 23.9207 7.30699V7.29369ZM12.0007 18.5737C8.50734 18.5737 5.66737 15.7337 5.66737 12.2403C5.66737 8.74699 8.50734 5.90699 12.0007 5.90699C15.494 5.90699 18.334 8.74699 18.334 12.2403C18.334 15.7337 15.494 18.5737 12.0007 18.5737ZM19.3606 6.24029C18.6273 6.24029 18.0273 5.64032 18.0273 4.90699C18.0273 4.17365 18.614 3.57365 19.3606 3.57365C20.094 3.57365 20.694 4.17365 20.694 4.90699C20.694 5.64032 20.094 6.24029 19.3606 6.24029ZM16.334 12.2403C16.334 14.627 14.3873 16.5737 12.0007 16.5737C9.61404 16.5737 7.66734 14.627 7.66734 12.2403C7.66734 9.85369 9.61404 7.90699 12.0007 7.90699C14.3873 7.90699 16.334 9.85369 16.334 12.2403Z" fill="white"/>
</svg>
