<svg width="144" height="148" viewBox="0 0 144 148" fill="none" xmlns="http://www.w3.org/2000/svg">
<path d="M124.711 36.7828V55.2941C124.711 60.5303 119.401 63.9228 114.46 62.0791C108.265 59.7928 101.406 58.9078 94.1788 59.6453C76.6263 61.5628 58.6313 78.4516 55.6813 95.9303C53.2475 110.459 57.8938 124.029 66.8175 133.617C70.8738 138.042 68.145 145.195 62.1713 145.859C57.0825 146.449 52.0675 146.302 49.265 144.237L8.7025 113.925C3.90875 110.312 0 102.494 0 96.4466V36.7828C0 28.4491 6.3425 19.3041 14.0862 16.3541L54.6488 1.16156C58.8525 -0.387187 65.785 -0.387187 69.9888 1.16156L110.551 16.3541C118.369 19.3041 124.711 28.4491 124.711 36.7828Z" fill="#0B0B0B"/>
<path d="M99.2675 70.4866C80.9775 70.4866 66.08 85.3841 66.08 103.674C66.08 121.964 80.9775 136.862 99.2675 136.862C117.557 136.862 132.455 121.964 132.455 103.674C132.455 85.3103 117.557 70.4866 99.2675 70.4866Z" fill="#0B0B0B"/>
<path d="M136.142 147.85C134.151 147.85 132.307 147.039 130.906 145.712C130.611 145.343 130.242 144.974 130.021 144.532C129.726 144.163 129.505 143.72 129.357 143.278C129.136 142.835 128.989 142.393 128.915 141.95C128.841 141.434 128.767 140.992 128.767 140.475C128.767 139.517 128.989 138.558 129.357 137.673C129.726 136.714 130.242 135.977 130.906 135.239C132.602 133.543 135.184 132.732 137.544 133.248C138.06 133.322 138.502 133.469 138.945 133.69C139.387 133.838 139.83 134.059 140.199 134.354C140.641 134.575 141.01 134.944 141.379 135.239C142.042 135.977 142.559 136.714 142.927 137.673C143.296 138.558 143.517 139.517 143.517 140.475C143.517 142.393 142.706 144.31 141.379 145.712C141.01 146.007 140.641 146.302 140.199 146.597C139.83 146.892 139.387 147.113 138.945 147.26C138.502 147.482 138.06 147.629 137.544 147.703C137.101 147.777 136.585 147.85 136.142 147.85Z" fill="#0B0B0B"/>
</svg>
