<svg width="148" height="151" viewBox="0 0 148 151" fill="none" xmlns="http://www.w3.org/2000/svg">
<path d="M114.571 42.5537C114.054 42.48 113.538 42.48 113.022 42.5537C101.591 42.185 92.5194 32.8187 92.5194 21.3137C92.5194 9.5875 102.033 0 113.833 0C125.559 0 135.147 9.51375 135.147 21.3137C135.073 32.8187 126.002 42.185 114.571 42.5537Z" fill="#0B0B0B"/>
<path d="M138.613 93.6625C130.353 99.1938 118.774 101.259 108.081 99.8575C110.883 93.81 112.358 87.0988 112.432 80.0188C112.432 72.6438 110.809 65.6375 107.712 59.5163C118.627 58.0413 130.206 60.1063 138.539 65.6375C150.192 73.3075 150.192 85.9188 138.613 93.6625Z" fill="#0B0B0B"/>
<path d="M32.7819 42.5537C33.2982 42.48 33.8144 42.48 34.3307 42.5537C45.7619 42.185 54.8332 32.8187 54.8332 21.3137C54.8332 9.51375 45.3194 0 33.5194 0C21.7932 0 12.2794 9.51375 12.2794 21.3137C12.2794 32.8187 21.3507 42.185 32.7819 42.5537Z" fill="#0B0B0B"/>
<path d="M33.5931 80.0187C33.5931 87.1725 35.1419 93.9575 37.9444 100.079C27.5456 101.185 16.7044 98.9725 8.73937 93.7362C-2.91312 85.9925 -2.91312 73.3812 8.73937 65.6375C16.6306 60.3275 27.7669 58.1887 38.2394 59.3687C35.2156 65.5637 33.5931 72.57 33.5931 80.0187Z" fill="#0B0B0B"/>
<path d="M74.6719 102.291C74.0819 102.218 73.4181 102.218 72.7544 102.291C59.1844 101.849 48.3431 90.7125 48.3431 76.995C48.4169 62.9825 59.7006 51.625 73.7869 51.625C87.7994 51.625 99.1569 62.9825 99.1569 76.995C99.0831 90.7125 88.3156 101.849 74.6719 102.291Z" fill="#0B0B0B"/>
<path d="M50.7031 117.557C39.5669 125.006 39.5669 137.249 50.7031 144.624C63.3881 153.105 84.1856 153.105 96.8706 144.624C108.007 137.175 108.007 124.932 96.8706 117.557C84.2594 109.076 63.4619 109.076 50.7031 117.557Z" fill="#0B0B0B"/>
</svg>
