<svg width="177" height="121" viewBox="0 0 177 121" fill="none" xmlns="http://www.w3.org/2000/svg">
<path fill-rule="evenodd" clip-rule="evenodd" d="M176.806 65.0732C176.561 65.6846 176.084 66.2072 175.441 66.4892L163.562 71.5654C162.906 71.8454 162.19 71.8277 161.566 71.5753C160.95 71.3248 160.426 70.8397 160.148 70.179L134.149 8.70244C133.87 8.04375 133.888 7.32393 134.139 6.6968C134.384 6.08545 134.859 5.56481 135.503 5.28083L147.384 0.204618C148.039 -0.0754212 148.755 -0.0576743 149.379 0.194756C149.995 0.445214 150.519 0.930353 150.798 1.59101L176.796 63.0676C177.075 63.7263 177.057 64.4461 176.806 65.0732ZM116.282 22.1325C110.42 23.0515 104.066 22.9904 94.8408 21.6789L94.7466 21.6671C92.1197 21.2924 88.2214 22.2962 84.2839 23.7358C80.1463 25.2465 75.9498 27.2738 73.007 28.7489C70.9392 29.7863 69.3736 31.8432 67.4255 34.4069L67.0743 34.8704C65.7971 36.5466 64.3257 38.4359 62.8837 40.2207C61.6909 41.6958 60.5628 43.0447 59.6466 44.0564C59.4877 44.232 59.0149 44.7289 58.5538 45.2141L58.4087 45.3778C57.4454 46.3894 56.8627 47.0008 56.694 47.7601C56.537 48.468 56.5272 49.4423 56.743 50.4323C56.9019 51.1659 57.1825 51.8581 57.6102 52.3531C58.0516 52.8659 58.7324 53.2622 59.5152 53.5521C60.6001 53.9564 61.8086 54.1339 62.9014 54.1319C63.8647 54.13 64.7514 53.9742 65.7226 53.631C66.8291 53.2406 68.0435 52.6154 69.5482 51.724C69.8994 51.5169 70.6155 51.0752 71.3649 50.6157C74.606 48.6278 78.6003 46.1745 82.9714 44.9656C98.537 40.6585 117.901 56.4216 132.099 67.9801C135.252 70.5458 138.14 72.8966 140.533 74.6675C140.612 74.7149 140.688 74.7661 140.763 74.8213C142.785 74.2692 144.763 73.6381 146.507 72.5929C147.592 71.944 148.651 71.1019 149.701 70.1672C150.676 69.2975 151.698 68.2877 152.724 67.2642L131.771 17.7189C126.021 19.8015 121.424 21.3279 116.282 22.1325ZM40.5752 14.0764C40.6046 13.9956 40.6399 13.9187 40.6752 13.8418L42.849 8.70244C43.1276 8.04375 43.1099 7.32393 42.8588 6.6968C42.6136 6.08348 42.1368 5.56481 41.4933 5.28083L41.4698 5.27097L29.6141 0.204618C28.9589 -0.0754212 28.2428 -0.0576743 27.6189 0.194756C27.0029 0.445214 26.479 0.930353 26.2004 1.59101L0.203556 63.0676C-0.0750312 63.7263 -0.057374 64.4461 0.193747 65.0732C0.438982 65.6846 0.913757 66.2052 1.55922 66.4892L13.4404 71.5654C14.0956 71.8454 14.8117 71.8277 15.4356 71.5753C16.0516 71.3248 16.5755 70.8397 16.854 70.179L40.5634 14.11L40.5752 14.0764ZM81.4941 96.4712C81.2489 95.5541 80.6603 94.7298 79.7873 94.223L79.7892 94.217L79.0908 93.8128C78.2197 93.3059 77.2113 93.2073 76.2912 93.4558C75.3789 93.7023 74.5589 94.294 74.0547 95.1715L67.2803 106.963C66.778 107.836 66.6799 108.846 66.9252 109.765C67.1704 110.688 67.757 111.512 68.6203 112.013L69.3265 112.424H69.3383C70.2055 112.926 71.2099 113.027 72.1261 112.78C73.0404 112.534 73.8604 111.942 74.3646 111.065L74.3686 111.069L81.1351 99.2854C81.6413 98.4097 81.7413 97.3961 81.4941 96.4712ZM67.4588 94.9743C67.9611 94.1007 68.0592 93.0929 67.8139 92.172C67.5687 91.253 66.9801 90.4306 66.1071 89.9218L66.109 89.9159L65.4106 89.5116H65.3988C64.5297 89.0067 63.5272 88.9081 62.611 89.1546C61.6929 89.4012 60.8728 89.9908 60.3745 90.8585V90.8704L53.602 102.662C53.0998 103.535 53.0017 104.543 53.2469 105.464C53.4922 106.383 54.0807 107.207 54.9538 107.712L54.9518 107.722L55.6503 108.126C56.3663 108.542 57.4532 108.46 58.544 108.075C59.782 107.637 60.912 106.841 61.5496 105.908C61.7478 105.288 62.0146 104.679 62.352 104.093L67.1547 95.7316C67.2195 95.4713 67.3195 95.2169 67.4588 94.9743ZM43.2139 80.9033C43.4454 80.499 43.7044 80.1184 43.9849 79.7635C44.034 79.4006 44.1517 79.0417 44.3439 78.7064C44.8462 77.8328 44.9443 76.825 44.699 75.904C44.4518 74.9811 43.8672 74.1567 43.002 73.6558H42.9902L42.1152 73.149C41.2873 72.7289 40.3535 72.6599 39.4961 72.8906C38.5819 73.1352 37.7638 73.7288 37.2596 74.6064L30.4872 86.3976C29.9849 87.2713 29.8868 88.279 30.1321 89.2C30.3773 90.1229 30.9639 90.9473 31.8271 91.4482L32.5334 91.8584H32.5452C33.4143 92.3633 34.4168 92.4619 35.333 92.2154C36.2472 91.9688 37.0673 91.3772 37.5715 90.4996C37.7147 90.2511 37.8893 90.0342 38.0855 89.8468L43.2139 80.9191V80.9033ZM137.39 79.444L137.241 79.3256C134.598 77.3752 131.687 75.0067 128.509 72.4193C115.274 61.6457 97.2225 46.9515 84.4664 50.4816C80.9134 51.4657 77.278 53.6961 74.3313 55.5045C73.7722 55.8477 73.2424 56.1731 72.4243 56.6562C70.5802 57.7468 69.0617 58.5219 67.6177 59.0346C66.0404 59.5927 64.5572 59.8471 62.9014 59.8491C61.1749 59.853 59.2699 59.571 57.5533 58.9321C55.9308 58.3306 54.4339 57.4037 53.3058 56.0962C52.1915 54.8044 51.5126 53.2228 51.1693 51.6412C50.7789 49.8466 50.8221 47.9691 51.1438 46.5255C51.6637 44.1846 52.6584 43.1394 54.3083 41.4079L54.4476 41.2718C54.632 41.0766 54.891 40.8005 55.4325 40.199C56.3408 39.1952 57.3904 37.9429 58.4695 36.6098C59.8016 34.9611 61.2475 33.0994 62.5482 31.3935L62.8994 30.9301C64.1668 29.2636 65.3027 27.7688 66.5681 26.4909C62.1303 25.6843 57.6278 23.8798 51.0928 21.2589C49.3016 20.541 47.3378 19.7522 44.7854 18.7602L23.7658 68.4712C24.7133 69.0904 25.3333 69.4927 25.8218 69.8082C27.1245 70.6503 27.7248 71.0388 28.2683 71.4668C28.7882 71.875 29.0452 72.1452 29.5141 72.6422C29.8201 72.9656 30.2458 73.4152 30.9619 74.1193L32.5295 71.3899L32.5569 71.3623C33.8577 69.3192 35.8372 67.9387 38.0267 67.351C40.3378 66.7298 42.8921 66.9921 45.1287 68.2897L45.1385 68.2956L45.1424 68.2917L45.8487 68.7019L45.8467 68.7078C48.0872 70.0094 49.592 72.1038 50.21 74.4269C50.3669 75.0186 50.4689 75.626 50.5101 76.2393C52.3661 76.0717 54.2926 76.4562 56.0269 77.464L56.025 77.4699L56.7234 77.8742C58.9678 79.1758 60.4745 81.2721 61.0945 83.5972L61.1043 83.6347L61.1455 83.6229C63.4605 82.9997 66.0188 83.262 68.2593 84.5616L68.2553 84.5675L68.9538 84.9718H68.9655C70.5841 85.9105 71.8181 87.2693 72.6127 88.8312C73.3111 88.4348 74.0547 88.1272 74.8237 87.9221C77.1348 87.3009 79.6892 87.5631 81.9257 88.8608L82.5594 89.2276L82.6477 89.271C84.8823 90.5686 86.387 92.665 87.007 94.994C87.625 97.3172 87.3641 99.8849 86.0732 102.133L80.0619 112.597L85.4846 116.579C89.0356 119.186 91.6351 120.259 93.5204 120.353C94.2581 120.391 94.8447 120.267 95.3038 120.03C95.7688 119.791 96.1611 119.419 96.4888 118.969L96.4947 118.961L96.4888 118.957C97.2873 117.859 97.7228 116.364 97.9327 114.97L89.995 109.142C88.7256 108.213 88.447 106.426 89.3711 105.15C90.2951 103.874 92.0726 103.594 93.3419 104.523L102.461 111.219C102.553 111.278 102.639 111.341 102.722 111.41C104.381 112.597 105.998 113.132 107.434 113.124C108.274 113.12 109.068 112.919 109.775 112.55C110.481 112.181 111.103 111.641 111.599 110.956C112.341 109.935 112.831 108.59 112.969 106.99C112.678 106.819 112.398 106.631 112.127 106.434L98.586 96.4929C97.3167 95.564 97.0381 93.7773 97.9622 92.5013C98.8862 91.2253 100.664 90.9453 101.933 91.8742L115.474 101.816C116.859 102.833 118.886 103.172 120.869 102.825C121.789 102.666 122.674 102.358 123.451 101.908C124.202 101.472 124.869 100.901 125.383 100.193C126.305 98.9245 126.774 97.1377 126.453 94.7949L126.323 94.7002L110.491 83.0746C109.221 82.1458 108.943 80.359 109.867 79.0831C110.791 77.8071 112.568 77.5271 113.838 78.4559L129.67 90.0815C131.124 91.1484 132.884 91.5192 134.549 91.2589C136.14 91.0104 137.639 90.1841 138.691 88.8352C138.771 88.703 138.861 88.5788 138.962 88.4624C139.921 87.0386 140.249 85.3485 140.001 83.7471C139.736 82.0827 138.848 80.5129 137.39 79.444ZM55.2284 87.8747C55.7307 87.0011 55.8288 85.9933 55.5835 85.0724C55.3383 84.1494 54.7517 83.3251 53.8885 82.8242L53.1822 82.414H53.1704C52.3013 81.9091 51.2988 81.8105 50.3826 82.057C49.4703 82.3035 48.6503 82.8952 48.1461 83.7728L48.1402 83.7708L41.3599 95.5758C40.8694 96.4455 40.7733 97.4493 41.0185 98.3664C41.2638 99.2834 41.8523 100.108 42.7254 100.615L43.0687 100.814L43.0844 100.83L43.4199 101.025C44.291 101.53 45.2994 101.63 46.2195 101.382C47.1318 101.135 47.9518 100.544 48.456 99.666L48.4619 99.668C48.6679 99.309 48.9406 99.0132 49.2565 98.7825L54.8596 89.0264C54.8949 88.634 55.0166 88.2415 55.2284 87.8747Z" fill="#0B0B0B"/>
</svg>
