<svg width="132" height="148" viewBox="0 0 132 148" fill="none" xmlns="http://www.w3.org/2000/svg">
<path d="M131.422 67.2047V34.8284C131.422 28.7809 126.85 21.9222 121.171 19.6359L80.0925 2.82094C70.8737 -0.940313 60.475 -0.940313 51.2562 2.82094L10.1775 19.6359C4.5725 21.9222 0 28.7809 0 34.8284V67.2047C0 103.268 26.1812 137.046 61.95 146.928C64.3837 147.592 67.0387 147.592 69.4725 146.928C105.241 137.046 131.422 103.268 131.422 67.2047ZM71.2425 80.1109V99.5072C71.2425 102.531 68.735 105.038 65.7112 105.038C62.6875 105.038 60.18 102.531 60.18 99.5072V80.1109C52.7312 77.7509 47.2737 70.8184 47.2737 62.6322C47.2737 52.4547 55.5337 44.1947 65.7112 44.1947C75.8887 44.1947 84.1487 52.4547 84.1487 62.6322C84.1487 70.8922 78.6912 77.7509 71.2425 80.1109Z" fill="#0B0B0B"/>
</svg>
