<svg width="156" height="163" viewBox="0 0 156 163" fill="none" xmlns="http://www.w3.org/2000/svg">
<path fill-rule="evenodd" clip-rule="evenodd" d="M72.2291 84.5037H82.9623L84.0045 81.9311C84.4616 80.8126 83.6571 79.5822 82.4686 79.5822H72.7228C71.5342 79.5822 70.7297 80.8126 71.1868 81.9311L72.2291 84.5037ZM20.5194 131.351C19.4589 137.67 21.7262 143.636 26.6631 147.606C52.1888 168.131 103.039 168.131 128.547 147.606C133.483 143.636 135.732 137.67 134.69 131.351C131.436 111.851 118.782 95.8566 101.668 87.9711C100.808 87.5796 99.821 87.9711 99.4553 88.8472L79.1407 137.447C78.5739 138.826 76.654 138.826 76.0689 137.447L55.7544 88.8659C55.3887 87.9897 54.383 87.5982 53.5419 87.9897C36.4272 95.8752 23.7741 111.851 20.5194 131.351ZM77.6048 0C94.7012 0 108.561 14.1305 108.561 31.5607C108.561 48.9909 94.7012 63.1214 77.6048 63.1214C60.5084 63.1214 46.6485 48.9909 46.6485 31.5607C46.6485 14.1119 60.5084 0 77.6048 0ZM82.5234 89.2574L85.577 109.931L77.6048 128.983L69.6509 109.95L72.7045 89.276H82.5234V89.2574ZM121.836 96.4158V68.9191H112.968C111.487 68.9191 110.737 67.0922 111.798 66.0296L132.094 45.3371C132.734 44.6846 133.794 44.6846 134.453 45.3371L154.749 66.0296C155.791 67.0922 155.06 68.9191 153.579 68.9191H144.71V111.945C144.71 112.877 143.961 113.641 143.046 113.641H134.014C130.905 107.247 126.791 101.412 121.836 96.4158ZM33.3737 96.4158C28.4185 101.412 24.3044 107.228 21.2325 113.66H12.1998C11.2855 113.66 10.5358 112.895 10.5358 111.963V68.9191H1.66767C0.186595 68.9191 -0.563086 67.0922 0.497438 66.0296L20.7937 45.3371C21.4336 44.6846 22.4942 44.6846 23.1524 45.3371L43.4486 66.0296C44.4909 67.0922 43.7595 68.9191 42.2784 68.9191H33.4102V96.4158H33.3737Z" fill="#0B0B0B"/>
</svg>
