<svg width="148" height="148" viewBox="0 0 148 148" fill="none" xmlns="http://www.w3.org/2000/svg">
<path d="M145.047 36.5019C140.327 20.4982 126.979 7.14944 110.975 2.42944C98.8061 -1.11056 90.3986 -0.81556 84.5724 3.53569C77.5661 8.77194 76.7549 18.2119 76.7549 24.9232V43.2869C76.7549 61.4294 85.0149 70.6482 101.24 70.6482H122.406C129.044 70.6482 138.557 69.8369 143.794 62.8307C148.292 57.0782 148.661 48.6707 145.047 36.5019Z" fill="#0B0B0B"/>
<path d="M124.692 83.7757C122.775 81.5632 119.972 80.3095 117.096 80.3095H90.6937C77.7137 80.3095 67.1675 69.7632 67.1675 56.7832V30.3807C67.1675 27.5045 65.9137 24.702 63.7012 22.7845C61.5625 20.867 58.6125 19.982 55.81 20.3507C38.4787 22.5632 22.5487 32.077 12.15 46.3845C1.6775 60.7657 -2.1575 78.3182 1.16125 95.8707C5.95499 121.241 26.2362 141.522 51.68 146.316C55.7362 147.127 59.7925 147.496 63.8487 147.496C77.1975 147.496 90.1037 143.366 101.092 135.327C115.4 124.928 124.914 108.998 127.126 91.667C127.495 88.7907 126.61 85.9145 124.692 83.7757Z" fill="#0B0B0B"/>
</svg>
