<svg width="80" height="80" viewBox="0 0 80 80" fill="none" xmlns="http://www.w3.org/2000/svg">
<g filter="url(#filter0_b_34_359)">
<rect width="80" height="80" rx="24" fill="white" fill-opacity="0.4"/>
</g>
<path d="M63.6784 50.3272C63.4875 50.3272 63.3049 50.3521 63.1305 50.4019L59.5857 47.1726C59.4363 47.0398 59.2371 46.9568 59.0295 46.9568H52.4297V45.1471C52.4629 45.1554 52.5044 45.1554 52.5459 45.1554H56.6718C57.1284 45.1554 57.5019 44.7818 57.5019 44.3252C57.5019 43.8686 57.1284 43.495 56.6718 43.495H52.5459C52.5044 43.495 52.4629 43.495 52.4297 43.5033V40.8219C52.4629 40.8302 52.5044 40.8302 52.5459 40.8302H56.6718C57.1284 40.8302 57.5019 40.4566 57.5019 40C57.5019 39.5435 57.1284 39.1699 56.6718 39.1699H52.5459C52.5044 39.1699 52.4629 39.1699 52.4297 39.1782V36.9367C52.4629 36.945 52.5044 36.945 52.5459 36.945H56.6718C57.1284 36.945 57.5019 36.5715 57.5019 36.1149C57.5019 35.6583 57.1284 35.2847 56.6718 35.2847H52.5459C52.5044 35.2847 52.4629 35.2847 52.4297 35.293V33.3587H59.0295C59.2371 33.3587 59.4363 33.284 59.5857 33.1429L63.1222 29.9219C63.2965 29.9717 63.4875 29.9966 63.6784 29.9966C64.8656 29.9966 65.8286 29.0336 65.8286 27.8465C65.8286 26.6593 64.8656 25.688 63.6784 25.688C62.4913 25.688 61.5283 26.6593 61.5283 27.8465C61.5283 28.2283 61.6279 28.577 61.7939 28.8841V28.8924L58.7057 31.6984H52.43V30.3286C52.43 29.872 52.0564 29.4984 51.5998 29.4984H50.2881V23.1228L53.1024 20.0346C53.4179 20.2006 53.7665 20.3003 54.1484 20.3003C55.3273 20.3003 56.2986 19.3373 56.2986 18.1501C56.2986 16.963 55.3273 16 54.1484 16C52.9613 16 51.99 16.963 51.99 18.1501C51.99 18.3411 52.0149 18.532 52.0647 18.7064L48.8437 22.2428C48.7026 22.3922 48.6279 22.5915 48.6279 22.799V29.4982H46.7932C46.8181 29.4318 46.8264 29.3654 46.8264 29.2907V25.1648C46.8264 24.6999 46.4529 24.3346 45.9963 24.3346C45.5314 24.3346 45.1661 24.6999 45.1661 25.1648V29.2907C45.1661 29.3654 45.1744 29.4318 45.1993 29.4982H42.6258C42.6507 29.4318 42.659 29.3654 42.659 29.2907V25.1648C42.659 24.6999 42.2854 24.3346 41.8288 24.3346C41.3722 24.3346 40.9987 24.6999 40.9987 25.1648V29.2907C40.9987 29.3654 41.007 29.4318 41.0319 29.4982H38.5829C38.6078 29.4318 38.6161 29.3654 38.6161 29.2907V25.1648C38.6161 24.6999 38.2425 24.3346 37.7859 24.3346C37.3293 24.3346 36.9558 24.6999 36.9558 25.1648V29.2907C36.9558 29.3654 36.9641 29.4318 36.989 29.4982H35.0298V22.799C35.0298 22.5915 34.9551 22.3923 34.814 22.2428L31.5929 18.7064C31.6427 18.532 31.6676 18.3411 31.6676 18.1501C31.6676 16.963 30.6964 16 29.5092 16C28.3221 16 27.3591 16.963 27.3591 18.1501C27.3591 19.3373 28.3221 20.3003 29.5092 20.3003C29.8911 20.3003 30.2398 20.2006 30.5552 20.0346L33.3695 23.1228V29.4984H32.0578C31.6012 29.4984 31.2277 29.872 31.2277 30.3286V31.6984H24.9519L21.8637 28.8924V28.8841C22.0297 28.577 22.1294 28.2283 22.1294 27.8465C22.1294 26.6593 21.1664 25.688 19.9792 25.688C18.7921 25.688 17.8291 26.6593 17.8291 27.8465C17.8291 29.0336 18.7921 29.9966 19.9792 29.9966C20.1702 29.9966 20.3611 29.9717 20.5355 29.9219L24.0719 33.1429C24.2213 33.284 24.4206 33.3587 24.6281 33.3587H31.228V35.293C31.1948 35.2847 31.1533 35.2847 31.1201 35.2847H26.9859C26.5293 35.2847 26.1557 35.6583 26.1557 36.1149C26.1557 36.5715 26.5293 36.945 26.9859 36.945H31.1201C31.1533 36.945 31.1948 36.945 31.228 36.9367V39.1782C31.1948 39.1699 31.1533 39.1699 31.1201 39.1699H26.9859C26.5293 39.1699 26.1557 39.5435 26.1557 40C26.1557 40.4566 26.5293 40.8302 26.9859 40.8302H31.1201C31.1533 40.8302 31.1948 40.8302 31.228 40.8219V43.5033C31.1948 43.495 31.1533 43.495 31.1201 43.495H26.9859C26.5293 43.495 26.1557 43.8686 26.1557 44.3252C26.1557 44.7818 26.5293 45.1554 26.9859 45.1554H31.1201C31.1533 45.1554 31.1948 45.1554 31.228 45.1471V46.9568H24.6281C24.4206 46.9568 24.2214 47.0398 24.0636 47.1726L20.5272 50.4019C20.3528 50.3521 20.1702 50.3272 19.9793 50.3272C18.7921 50.3272 17.8292 51.2902 17.8292 52.4774C17.8292 53.6645 18.7921 54.6275 19.9793 54.6275C21.1664 54.6275 22.1294 53.6645 22.1294 52.4774C22.1294 52.0955 22.0298 51.7385 21.8638 51.4313L24.952 48.6171H31.2277V49.8706C31.2277 50.3355 31.6013 50.7008 32.0579 50.7008H33.3696V56.8772L30.5553 59.9654C30.2398 59.7994 29.8912 59.6997 29.5093 59.6997C28.3221 59.6997 27.3591 60.6627 27.3591 61.8499C27.3591 63.037 28.3221 64 29.5093 64C30.6964 64 31.6677 63.037 31.6677 61.8499C31.6677 61.6589 31.6428 61.468 31.593 61.2936L34.814 57.7572C34.9551 57.6078 35.0298 57.4085 35.0298 57.201V50.701H36.8313V50.7176V54.8352C36.8313 55.3001 37.2049 55.6654 37.6614 55.6654C38.1263 55.6654 38.4916 55.3001 38.4916 54.8352V50.7176V50.701H40.9987V50.7176V54.8352C40.9987 55.3001 41.3723 55.6654 41.8289 55.6654C42.2855 55.6654 42.659 55.3001 42.659 54.8352V50.7176V50.701H45.0416V50.7176V54.8352C45.0416 55.3001 45.4152 55.6654 45.8718 55.6654C46.3367 55.6654 46.7019 55.3001 46.7019 54.8352V50.7176V50.701H48.6279V57.201C48.6279 57.4085 48.7026 57.6077 48.8438 57.7572L52.0648 61.2936C52.015 61.468 51.9901 61.6589 51.9901 61.8499C51.9901 63.037 52.9613 64 54.1485 64C55.3273 64 56.2986 63.037 56.2986 61.8499C56.2986 60.6627 55.3273 59.6997 54.1485 59.6997C53.7666 59.6997 53.4179 59.7994 53.1025 59.9654L50.2882 56.8772V50.7008H51.5999C52.0565 50.7008 52.43 50.3355 52.43 49.8706V48.6171H58.7058L61.794 51.4313C61.628 51.7385 61.5283 52.0955 61.5283 52.4774C61.5283 53.6645 62.4913 54.6275 63.6785 54.6275C64.8656 54.6275 65.8286 53.6645 65.8286 52.4774C65.8286 51.2902 64.8656 50.3272 63.6784 50.3272ZM48.7191 46.0602C48.7191 46.5251 48.3538 46.8904 47.8889 46.8904H35.7688C35.3039 46.8904 34.9386 46.5251 34.9386 46.0602V33.9401C34.9386 33.4752 35.3039 33.11 35.7688 33.11H47.8889C48.3538 33.11 48.7191 33.4752 48.7191 33.9401V46.0602Z" fill="#521212"/>
<path d="M36.5986 34.7695H47.0589V45.2298H36.5986V34.7695Z" fill="#521212"/>
<defs>
<filter id="filter0_b_34_359" x="-30" y="-30" width="140" height="140" filterUnits="userSpaceOnUse" color-interpolation-filters="sRGB">
<feFlood flood-opacity="0" result="BackgroundImageFix"/>
<feGaussianBlur in="BackgroundImageFix" stdDeviation="15"/>
<feComposite in2="SourceAlpha" operator="in" result="effect1_backgroundBlur_34_359"/>
<feBlend mode="normal" in="SourceGraphic" in2="effect1_backgroundBlur_34_359" result="shape"/>
</filter>
</defs>
</svg>
