<svg width="80" height="80" viewBox="0 0 80 80" fill="none" xmlns="http://www.w3.org/2000/svg">
<g filter="url(#filter0_b_34_357)">
<rect width="80" height="80" rx="24" fill="white" fill-opacity="0.4"/>
</g>
<path d="M55 28V28.48H44.74C38.8 28.48 36.04 31.24 36.04 37.18V47.4H34.5V54.5H36.04V57.5H24.9C24.08 57.5 23.4 56.82 23.4 56C23.4 55.18 24.08 54.5 24.9 54.5H31.5V47.4H27C20.74 47.4 19.06 45.86 19 39.8V28C19 21.6 20.6 20 27 20H47C53.4 20 55 21.6 55 28Z" fill="#521212"/>
<path d="M55 31.58C54.5 31.52 53.92 31.48 53.3 31.48H44.74C40.46 31.48 39.04 32.9 39.04 37.18V54.5C39.06 55.74 39.2 56.72 39.5 57.5C40.2 59.32 41.78 60 44.74 60H53.3C57.58 60 59 58.58 59 54.3V37.18C59 33.52 57.96 31.96 55 31.58ZM49.02 36.18C50.76 36.18 52.16 37.58 52.16 39.32C52.16 41.06 50.76 42.46 49.02 42.46C47.28 42.46 45.88 41.06 45.88 39.32C45.88 37.58 47.28 36.18 49.02 36.18ZM49.02 54.3C46.66 54.3 44.74 52.38 44.74 50.02C44.74 49.04 45.08 48.12 45.64 47.4C46.42 46.4 47.64 45.74 49.02 45.74C50.1 45.74 51.08 46.14 51.82 46.78C52.72 47.58 53.3 48.74 53.3 50.02C53.3 52.38 51.38 54.3 49.02 54.3Z" fill="#521212"/>
<path d="M55 31.58C54.5 31.52 53.92 31.48 53.3 31.48H44.74C40.46 31.48 39.04 32.9 39.04 37.18V54.5C39.06 55.74 39.2 56.72 39.5 57.5C40.2 59.32 41.78 60 44.74 60H53.3C57.58 60 59 58.58 59 54.3V37.18C59 33.52 57.96 31.96 55 31.58ZM49.02 36.18C50.76 36.18 52.16 37.58 52.16 39.32C52.16 41.06 50.76 42.46 49.02 42.46C47.28 42.46 45.88 41.06 45.88 39.32C45.88 37.58 47.28 36.18 49.02 36.18ZM49.02 54.3C46.66 54.3 44.74 52.38 44.74 50.02C44.74 49.04 45.08 48.12 45.64 47.4C46.42 46.4 47.64 45.74 49.02 45.74C50.1 45.74 51.08 46.14 51.82 46.78C52.72 47.58 53.3 48.74 53.3 50.02C53.3 52.38 51.38 54.3 49.02 54.3Z" fill="#521212"/>
<defs>
<filter id="filter0_b_34_357" x="-30" y="-30" width="140" height="140" filterUnits="userSpaceOnUse" color-interpolation-filters="sRGB">
<feFlood flood-opacity="0" result="BackgroundImageFix"/>
<feGaussianBlur in="BackgroundImageFix" stdDeviation="15"/>
<feComposite in2="SourceAlpha" operator="in" result="effect1_backgroundBlur_34_357"/>
<feBlend mode="normal" in="SourceGraphic" in2="effect1_backgroundBlur_34_357" result="shape"/>
</filter>
</defs>
</svg>
