<svg width="80" height="80" viewBox="0 0 80 80" fill="none" xmlns="http://www.w3.org/2000/svg">
<g filter="url(#filter0_b_34_358)">
<rect width="80" height="80" rx="24" fill="white" fill-opacity="0.4"/>
</g>
<path d="M25.0777 34.8957C25.0214 34.5081 24.9672 34.0643 24.9109 33.6204L21.8622 34.1747C21.8622 34.6186 21.8622 35.0062 21.9726 35.4501C22.0289 35.894 22.1393 36.2815 22.3061 36.6691L25.3548 36.1148C25.2444 35.7272 25.1881 35.3396 25.0777 34.8957Z" fill="#521212"/>
<path d="M26.52 33.3995C26.5763 33.7871 26.6305 34.231 26.6867 34.6749C26.743 35.1188 26.8535 35.5064 26.9639 35.894L30.1794 35.3397C30.1231 34.9521 30.069 34.5082 30.0127 34.0643C29.9564 33.6204 29.846 33.2328 29.7355 32.8452L26.52 33.3995Z" fill="#521212"/>
<path d="M33.5029 30.5176C32.561 29.1882 31.1188 28.3004 29.5122 28.0232C30.0665 28.7984 30.5104 29.8529 30.8417 31.0156L33.5029 30.5176Z" fill="#521212"/>
<path d="M27.1847 27.9669C26.8512 28.0232 26.2969 29.4091 26.3532 31.7368L29.2352 31.2387C28.5142 29.0215 27.5723 27.9128 27.1847 27.9669Z" fill="#521212"/>
<path d="M29.4586 40.7161C29.7921 40.6598 30.3464 39.274 30.2901 36.9463L27.4081 37.4443C28.127 39.6638 29.0689 40.7724 29.4586 40.7161Z" fill="#521212"/>
<path d="M31.5628 33.7873C31.6191 34.1749 31.6732 34.6188 31.7295 35.0627L34.7783 34.5084C34.7783 34.0645 34.7783 33.6769 34.6679 33.233C34.6116 32.7891 34.5011 32.4015 34.3344 32.0139L31.2856 32.5682C31.3982 32.9558 31.4524 33.3434 31.5628 33.7873Z" fill="#521212"/>
<path d="M41.0427 38.9429L38.1044 22.3133C37.8272 20.8171 36.4414 19.8189 34.9452 20.096L17.2635 23.1448C15.7673 23.422 14.7691 24.8078 15.0462 26.304L19.3704 50.7506C19.6475 52.2468 21.0333 53.2451 22.5295 52.9679L38.7152 50.14L41.0427 38.9429ZM20.366 35.7274C19.5909 31.3492 22.527 27.1355 26.9076 26.3605C31.2858 25.5854 35.4995 28.5215 36.2745 32.902C37.0518 37.3366 34.1135 41.494 29.7352 42.269C25.3548 43.0441 21.1432 40.108 20.366 35.7274ZM36.6082 45.5949L24.3566 47.7558C23.9127 47.8121 23.5251 47.535 23.4147 47.0911C23.3584 46.6472 23.6356 46.2596 24.0794 46.1492L36.331 44.0423C36.7749 43.986 37.1625 44.2632 37.2729 44.7071C37.3834 45.0968 37.0521 45.5386 36.6082 45.5949Z" fill="#521212"/>
<path d="M25.024 28.7983C23.6382 29.6298 22.5859 30.9593 22.142 32.5118L24.8031 32.068C24.7469 30.8489 24.801 29.7402 25.024 28.7983Z" fill="#521212"/>
<path d="M31.6194 39.8846C33.0052 39.0532 34.0575 37.7237 34.5014 36.1711L31.8402 36.615C31.8965 37.8341 31.8403 38.9427 31.6194 39.8846Z" fill="#521212"/>
<path d="M23.1376 38.1679C24.0795 39.4974 25.5216 40.3852 27.1282 40.6624C26.5739 39.8872 26.13 38.8327 25.7988 37.6699L23.1376 38.1679Z" fill="#521212"/>
<path d="M47.6947 40.4955C47.5842 40.9394 47.5842 41.327 47.5842 41.7709L50.633 42.3815C50.6893 41.9376 50.7434 41.55 50.8539 41.1625C50.9643 40.7749 51.0206 40.331 51.131 39.9434L48.0823 39.3328C47.9155 39.6641 47.8051 40.1079 47.6947 40.4955Z" fill="#521212"/>
<path d="M52.4063 41.494C52.2959 41.9379 52.2396 42.3254 52.1854 42.713L55.4009 43.3778C55.5114 42.9902 55.6218 42.6026 55.6781 42.1587C55.7885 41.7148 55.8448 41.3272 55.8989 40.9396L52.6834 40.2749C52.573 40.6625 52.5167 41.0501 52.4063 41.494Z" fill="#521212"/>
<path d="M57.5054 36.3921C57.7262 37.334 57.7262 38.4426 57.6721 39.6617L60.3333 40.216C59.8894 38.6094 58.8912 37.2798 57.5054 36.3921Z" fill="#521212"/>
<path d="M55.3447 35.5065C55.0112 35.4502 54.0152 36.5048 53.1837 38.722L56.0657 39.3327C56.1762 36.9465 55.7323 35.5606 55.3447 35.5065Z" fill="#521212"/>
<path d="M52.74 48.1457C53.0734 48.202 54.0695 47.1475 54.901 44.9302L52.0189 44.3196C51.9085 46.7036 52.3502 48.0895 52.74 48.1457Z" fill="#521212"/>
<path d="M57.2282 42.4895C57.1178 42.8771 57.0615 43.321 56.951 43.7086L59.9998 44.3192C60.1665 43.9316 60.277 43.544 60.3874 43.1001C60.4978 42.6562 60.4978 42.2687 60.4978 41.8248L57.4491 41.2141C57.3949 41.658 57.3386 42.1019 57.2282 42.4895Z" fill="#521212"/>
<path d="M65.4894 31.0156L47.918 27.3562C46.4218 27.0228 44.9797 28.021 44.6484 29.4631L39.5491 53.7429C39.2156 55.2391 40.2138 56.6812 41.656 57.0125L59.2274 60.6719C60.7236 61.0053 62.1657 60.0071 62.497 58.565L67.5963 34.2852C67.9276 32.789 66.9294 31.3491 65.4894 31.0156ZM58.5039 54.7411C58.3934 55.185 58.0058 55.4622 57.562 55.3517L45.3669 52.801C44.923 52.6905 44.6459 52.303 44.7563 51.8591C44.8667 51.4152 45.2543 51.138 45.6982 51.2484L57.8932 53.7992C58.3371 53.9096 58.6143 54.3535 58.5039 54.7411ZM61.9402 43.4878C60.9983 47.812 56.7305 50.6397 52.4065 49.6957C48.0823 48.8079 45.2568 44.486 46.1421 40.1619C47.0299 35.8378 51.3518 33.0123 55.6758 33.8975C60.0562 34.8416 62.8277 39.1094 61.9402 43.4878Z" fill="#521212"/>
<path d="M48.97 37.8342L51.6312 38.3885C52.0187 37.2799 52.519 36.2276 53.0733 35.4502C51.4645 35.7274 49.9681 36.5588 48.97 37.8342Z" fill="#521212"/>
<path d="M55.011 48.1996C56.6177 47.9224 58.1161 47.0909 59.1121 45.8156L56.4509 45.2612C56.0655 46.3699 55.5654 47.4244 55.011 48.1996Z" fill="#521212"/>
<path d="M50.4097 43.9884L47.7485 43.4341C48.1361 44.9866 49.1343 46.3724 50.5201 47.258C50.4097 46.3161 50.3556 45.2075 50.4097 43.9884Z" fill="#521212"/>
<path d="M43.5936 60.2843L40.1573 61.8368C38.9923 62.3912 37.7191 62.4475 36.4979 62.0036C35.2788 61.5597 34.3369 60.6741 33.8367 59.5091L32.4509 56.5145L34.889 57.4023C35.3329 57.569 35.8309 57.346 35.9976 56.9043C36.1644 56.4604 35.9413 55.9624 35.4996 55.7957L31.0651 54.1327C30.6212 53.966 30.1232 54.189 29.9564 54.6307L28.2935 59.0653C28.1267 59.5092 28.3498 60.0072 28.7915 60.1739C28.9019 60.2302 29.0123 60.2302 29.0686 60.2302C29.4021 60.2302 29.7334 60.0094 29.9001 59.6759L30.7879 57.2378L32.1737 60.2302C32.8948 61.8369 34.2243 63.0018 35.8331 63.6125C36.5542 63.8896 37.3293 64 38.1067 64C39.0486 64 39.9905 63.7792 40.822 63.3894L44.2583 61.8369C44.7022 61.616 44.869 61.1158 44.7022 60.6719C44.5355 60.2843 44.0353 60.0634 43.5936 60.2843Z" fill="#521212"/>
<path d="M40.9325 19.7085L44.3688 18.2123C46.807 17.16 49.6349 18.2686 50.687 20.6504L52.0165 23.6992L49.5783 22.7573C49.1345 22.5906 48.6364 22.8136 48.4697 23.2553C48.303 23.6992 48.526 24.1972 48.9677 24.364L53.4023 26.0833C53.5127 26.1395 53.6232 26.1395 53.7358 26.1395C53.8462 26.1395 53.9566 26.1395 54.0692 26.0833C54.2901 25.9728 54.4568 25.8061 54.5131 25.5852L56.2324 21.1507C56.3991 20.7068 56.1761 20.2088 55.7344 20.042C55.2905 19.8753 54.7925 20.0983 54.6257 20.54L53.6838 22.9782L52.3543 19.9294C50.9122 16.6035 47.032 15.1073 43.7624 16.5472L40.2113 18.0997C39.7674 18.3206 39.5465 18.8208 39.7674 19.2647C39.9341 19.7086 40.4886 19.9294 40.9325 19.7085Z" fill="#521212"/>
<defs>
<filter id="filter0_b_34_358" x="-30" y="-30" width="140" height="140" filterUnits="userSpaceOnUse" color-interpolation-filters="sRGB">
<feFlood flood-opacity="0" result="BackgroundImageFix"/>
<feGaussianBlur in="BackgroundImageFix" stdDeviation="15"/>
<feComposite in2="SourceAlpha" operator="in" result="effect1_backgroundBlur_34_358"/>
<feBlend mode="normal" in="SourceGraphic" in2="effect1_backgroundBlur_34_358" result="shape"/>
</filter>
</defs>
</svg>
