<svg width="1512" height="1597" viewBox="0 0 1512 1597" fill="none" xmlns="http://www.w3.org/2000/svg">
<g opacity="0.2">
<mask id="mask0_1_23555" style="mask-type:luminance" maskUnits="userSpaceOnUse" x="-414" y="0" width="2019" height="1597">
<path d="M1359.33 -4.73447e-05L-414 1248.83L-168.925 1596.84L1604.41 348.004L1359.33 -4.73447e-05Z" fill="white"/>
</mask>
<g mask="url(#mask0_1_23555)">
<path d="M828.856 799.573C807.041 814.935 780.62 826.865 748.625 835.845C714.473 845.432 678.065 850.498 643.703 854.867C623.821 857.394 603.478 859.559 583.803 861.651C524.565 867.953 463.309 874.47 405.308 891.817C336.89 912.279 280.167 950.092 236.7 1004.2C210.551 1036.76 188.999 1073.24 168.156 1108.53C153.647 1133.09 138.643 1158.49 122.209 1182.37C98.2958 1217.1 71.4291 1246.3 42.3564 1269.14C27.0651 1281.18 10.6841 1291.78 -6.57398 1300.78C-24.3305 1309.99 -42.9557 1317.42 -62.1768 1322.96C-149.828 1348.24 -243.464 1342.64 -334.018 1337.22C-340.203 1336.85 -346.372 1336.49 -352.524 1336.13L-352.508 1335.86C-346.357 1336.22 -340.188 1336.59 -334.001 1336.96C-243.476 1342.38 -149.857 1347.97 -62.2535 1322.71C10.2104 1301.81 72.1979 1254.54 121.988 1182.22C138.416 1158.35 153.418 1132.96 167.928 1108.39C188.776 1073.1 210.332 1036.61 236.493 1004.04C279.994 949.882 336.759 912.044 405.228 891.563C463.254 874.208 524.521 867.691 583.772 861.388C603.444 859.295 623.786 857.132 643.667 854.605C704.071 846.927 786.793 836.413 842.843 788.369C923.898 718.888 907.039 605.616 892.165 505.678C887.359 473.388 882.821 442.889 881.478 414.706C880.176 387.234 882.567 365.569 888.792 348.485C892.292 338.463 897.827 329.275 905.049 321.495C913.065 313.207 922.962 306.977 933.901 303.333C980.327 287.222 1036.1 297.234 1085.31 306.068C1094.2 307.664 1102.6 309.171 1110.86 310.516L1110.81 310.778C1102.55 309.43 1094.16 307.919 1085.27 306.331C1036.09 297.503 980.352 287.497 933.989 303.587C883.272 321.186 879.886 375.43 881.751 414.7C883.089 442.864 887.628 473.357 892.431 505.639C900.041 556.778 907.911 609.657 903.822 659.013C901.608 685.735 896.14 708.712 887.112 729.25C882.261 740.323 876.212 750.831 869.075 760.588C861.486 770.877 852.747 780.264 843.026 788.567C838.537 792.415 833.816 796.084 828.864 799.573" fill="url(#paint0_linear_1_23555)" fill-opacity="0.7"/>
<path d="M840.562 782.308C797.659 812.522 744.099 824.283 701.346 831.158C683.999 833.951 666.634 836.159 650.334 838.18C633.453 840.274 616.201 842.156 599.516 843.975C550.007 849.367 498.818 854.953 449.93 866.904C437.242 870.007 424.937 873.476 413.355 877.211C346.423 898.83 291.035 937.64 248.725 992.565C223.275 1025.59 202.417 1062.49 182.245 1098.18C168.409 1122.66 154.102 1147.97 138.45 1171.79C124.646 1193.01 108.995 1212.97 91.6789 1231.44C73.7765 1250.62 53.6156 1267.55 31.6375 1281.88C9.02464 1296.46 -15.7325 1307.4 -41.7336 1314.32C-71.6321 1322.2 -101.664 1324.86 -137.559 1326.43C-157.745 1327.27 -178.556 1327.37 -198.68 1327.48C-212.116 1327.55 -226.009 1327.62 -239.609 1327.91C-271.49 1328.54 -302.503 1329.71 -332.493 1330.84L-345.273 1331.33L-345.285 1331.01L-332.506 1330.52C-302.513 1329.39 -271.5 1328.22 -239.616 1327.59C-226.015 1327.3 -212.12 1327.23 -198.682 1327.16C-178.557 1327.06 -157.757 1326.95 -137.572 1326.11C-101.699 1324.54 -71.686 1321.88 -41.8154 1314C7.43805 1301.01 51.0264 1273.94 91.4416 1231.22C108.748 1212.77 124.391 1192.82 138.188 1171.61C153.833 1147.81 168.138 1122.5 181.972 1098.03C202.151 1062.33 223.014 1025.41 248.477 992.371C290.822 937.397 346.262 898.55 413.258 876.911C424.847 873.173 437.161 869.703 449.856 866.597C498.766 854.642 549.969 849.059 599.485 843.66C616.169 841.84 633.42 839.96 650.298 837.865C666.596 835.843 683.958 833.635 701.303 830.848C747.15 823.471 805.45 810.477 849.637 775.108C879.835 750.799 899.362 719.554 909.338 679.601C922.981 625.607 917.035 564.73 911.286 505.858C908.247 474.746 905.383 445.363 905.488 418.07C905.601 390.96 908.788 370.623 915.535 354.055C919.387 344.275 925.129 335.351 932.433 327.792C940.549 319.695 950.409 313.563 961.26 309.864C1007.03 293.66 1061.69 301.638 1109.92 308.675C1119.28 310.04 1128.12 311.329 1136.81 312.444L1136.77 312.761C1128.07 311.648 1119.23 310.357 1109.87 308.992C1061.68 301.959 1007.06 293.988 961.366 310.166C912.432 327.441 905.969 376.907 905.804 418.074C905.693 445.344 908.563 474.725 911.604 505.832C917.356 564.731 923.304 625.636 909.644 679.679C899.653 719.708 880.088 751.005 849.832 775.358C846.807 777.779 843.718 780.098 840.564 782.317" fill="url(#paint1_linear_1_23555)" fill-opacity="0.7"/>
<path d="M852.033 765.483C833.628 778.444 812.125 788.833 786.483 797.148C764.348 804.329 739.365 809.925 707.875 814.748C691.248 817.299 674.985 819.312 656.97 821.492C643.06 823.176 628.855 824.748 615.12 826.271C562.844 832.062 508.786 838.051 457.532 851.619C445.018 854.937 432.863 858.633 421.408 862.607C356.977 884.604 300.885 925.914 260.762 980.918C236.01 1014.43 215.844 1051.78 196.338 1087.9C183.186 1112.26 169.572 1137.47 154.709 1161.2C141.497 1182.55 126.472 1202.73 109.801 1221.51C90.7326 1242.8 71.6956 1259.73 51.596 1273.24C29.4356 1288.3 4.76046 1299.28 -21.2645 1305.66C-53.3599 1313.39 -86.5989 1313.5 -118.744 1313.61L-122.199 1313.62C-132.263 1313.62 -142.613 1313.5 -152.626 1313.37C-178.008 1313.06 -204.254 1312.74 -229.816 1314.42C-262.748 1316.5 -293.766 1320.63 -323.757 1324.62C-328.519 1325.25 -333.263 1325.88 -337.988 1326.5L-338.037 1326.13C-333.31 1325.51 -328.566 1324.88 -323.806 1324.25C-293.809 1320.25 -262.785 1316.12 -229.834 1314.04C-204.258 1312.36 -178.004 1312.68 -152.612 1312.99C-142.604 1313.11 -132.254 1313.24 -122.194 1313.23L-118.74 1313.22C-86.6162 1313.11 -53.3996 1313 -21.3471 1305.28C26.3668 1293.79 69.1765 1266.3 109.526 1221.25C126.177 1202.49 141.185 1182.34 154.382 1161C169.24 1137.28 182.85 1112.08 196.007 1087.72C215.515 1051.59 235.687 1014.23 260.455 980.697C300.623 925.631 356.777 884.275 421.281 862.253C432.744 858.28 444.909 854.579 457.432 851.258C508.717 837.679 562.783 831.693 615.08 825.896C628.816 824.375 643.018 822.8 656.926 821.116C674.937 818.936 691.198 816.926 707.816 814.371C753.741 807.336 812.146 795.002 856.418 761.822C886.639 739.179 907.116 709.647 919.021 671.542C935.03 620.293 932.634 562.077 930.312 505.779C929.082 475.932 927.92 447.743 929.481 421.397C930.464 404.818 932.858 380.375 942.265 359.603C946.467 350.07 952.415 341.408 959.802 334.062C968.018 326.152 977.847 320.113 988.615 316.359C1008.78 309.079 1032.31 305.606 1060.57 305.739C1085.42 305.855 1110.4 308.65 1134.55 311.352C1144.36 312.45 1153.63 313.488 1162.76 314.334L1162.72 314.709C1153.6 313.861 1144.32 312.824 1134.51 311.725C1087.29 306.441 1033.78 300.455 988.749 316.708C941.043 333.842 932.221 381.664 929.864 421.412C928.303 447.739 929.462 475.923 930.695 505.756C933.017 562.087 935.418 620.335 919.388 671.647C907.459 709.831 886.937 739.425 856.649 762.118C855.134 763.253 853.596 764.37 852.036 765.469" fill="url(#paint2_linear_1_23555)" fill-opacity="0.7"/>
<path d="M864.23 748.373L863.461 748.915C843.848 762.584 820.769 773.347 792.914 781.809C770.911 788.494 745.964 793.747 714.4 798.341C697.492 800.809 680.547 802.806 664.159 804.739L663.604 804.804C652.629 806.101 641.437 807.348 630.604 808.56C575.574 814.702 518.67 821.054 465.133 836.336C452.789 839.869 440.781 843.788 429.46 848.003C365.476 871.864 312.765 912.666 272.791 969.277C248.733 1003.31 229.259 1041.12 210.429 1077.68C197.946 1101.92 185.037 1126.99 170.95 1150.62C158.327 1172.11 143.929 1192.51 127.907 1211.6C109.179 1233.73 90.7329 1251.06 71.5279 1264.6L71.4466 1264.65C49.7979 1280.22 25.2134 1291.23 -0.817013 1297.02C-31.7163 1303.8 -63.5645 1302.54 -94.3623 1301.31C-98.4639 1301.16 -102.704 1300.98 -106.866 1300.84C-112.583 1300.64 -118.447 1300.4 -124.117 1300.18C-155.694 1298.91 -188.347 1297.61 -220.039 1300.96C-254.734 1304.52 -286.381 1311.69 -316.988 1318.62C-321.498 1319.64 -326.157 1320.7 -330.72 1321.71L-330.814 1321.29C-326.256 1320.27 -321.592 1319.22 -317.083 1318.2C-286.464 1311.26 -254.802 1304.09 -220.083 1300.53C-188.36 1297.18 -155.692 1298.48 -124.099 1299.75C-118.426 1299.97 -112.566 1300.21 -106.85 1300.41C-102.691 1300.55 -98.4517 1300.72 -94.3457 1300.88C-63.5743 1302.11 -31.7549 1303.37 -0.910177 1296.6C46.2586 1286.24 87.086 1259.14 127.577 1211.32C143.585 1192.25 157.97 1171.87 170.582 1150.4C184.661 1126.77 197.567 1101.71 210.048 1077.48C228.886 1040.9 248.365 1003.08 272.441 969.023C312.465 912.341 365.244 871.486 429.312 847.594C440.65 843.38 452.669 839.447 465.015 835.919C518.59 820.628 575.511 814.273 630.558 808.128C641.385 806.919 652.58 805.669 663.555 804.373L664.11 804.307C680.495 802.376 697.435 800.377 714.338 797.911C763.127 790.812 818.968 779.398 863.212 748.559C893.541 727.425 914.97 699.596 928.714 663.503C947.225 614.909 948.322 559.229 949.383 505.383C949.945 476.925 950.475 450.042 953.481 424.741C958.331 383.89 969.543 339.841 1015.97 322.878C1035.85 315.561 1058.96 311.68 1086.62 311.012C1110.97 310.423 1135.49 312.323 1159.2 314.16C1169.46 314.958 1179.16 315.707 1188.71 316.252L1188.68 316.684C1179.13 316.138 1169.43 315.387 1159.17 314.591C1112.92 311.007 1060.51 306.945 1016.12 323.284C969.916 340.168 958.745 384.073 953.91 424.791C950.907 450.075 950.377 476.944 949.82 505.388C948.756 559.267 947.654 614.981 929.119 663.651C915.459 699.521 894.229 727.243 864.231 748.369" fill="url(#paint3_linear_1_23555)" fill-opacity="0.7"/>
<path d="M876.845 731.264C874.696 732.777 872.505 734.257 870.273 735.702C825.772 764.44 769.805 775.199 720.925 781.931C705.233 784.101 689.457 785.911 674.192 787.665L670.234 788.119C662.163 789.049 653.936 789.965 645.979 790.853C588.217 797.304 528.48 803.963 472.725 821.057C460.549 824.8 448.698 828.953 437.498 833.406C374.979 858.352 323.607 900.151 284.807 957.64C261.441 992.211 242.663 1030.51 224.502 1067.55C212.696 1091.63 200.488 1116.54 187.18 1140.04C175.143 1161.67 161.371 1182.28 146.001 1201.69C127.68 1224.61 109.833 1242.35 91.4411 1255.92C68.8111 1272.62 45.3225 1283.24 19.617 1288.37C-10.9833 1294.48 -42.394 1291.94 -72.7716 1289.49C-78.9356 1288.99 -85.3087 1288.47 -91.5382 1288.05C-94.174 1287.86 -96.8183 1287.68 -99.4711 1287.49C-135.975 1284.93 -173.721 1282.28 -210.268 1287.48C-246.784 1292.55 -279.1 1302.82 -310.352 1312.75C-314.657 1314.12 -319.108 1315.54 -323.458 1316.9L-323.599 1316.43C-319.25 1315.07 -314.796 1313.65 -310.495 1312.28C-279.223 1302.34 -246.887 1292.06 -210.327 1287C-173.73 1281.79 -135.956 1284.44 -99.4289 1287C-96.7766 1287.19 -94.1323 1287.37 -91.4959 1287.56C-85.2633 1287.99 -78.888 1288.5 -72.7241 1289C-42.3806 1291.46 -11.0049 1293.99 19.5293 1287.89C80.2665 1275.76 120.585 1232.71 145.624 1201.38C160.978 1182 174.735 1161.4 186.759 1139.8C200.062 1116.3 212.262 1091.4 224.061 1067.32C242.228 1030.27 261.013 991.95 284.4 957.351C303.016 929.529 325.604 904.582 351.445 883.302C377.336 862.229 406.301 845.246 437.333 832.941C448.54 828.488 460.403 824.328 472.593 820.582C528.386 803.479 588.141 796.812 645.926 790.358C653.882 789.471 662.108 788.553 670.179 787.623L674.137 787.17C689.392 785.419 705.167 783.61 720.853 781.44C769.678 774.711 825.582 763.97 869.999 735.281C900.44 715.625 922.812 689.511 938.403 655.447C959.483 609.386 964.085 556.126 968.536 504.621C970.862 477.682 973.064 452.233 977.481 428.075C980.774 410.07 985.515 389.182 995.726 370.744C1006.82 350.703 1022.4 337.176 1043.33 329.392C1062.92 322.04 1085.61 317.763 1112.68 316.322C1136.54 315.05 1160.59 316.074 1183.86 317.065C1194.57 317.521 1204.68 317.952 1214.65 318.162L1214.64 318.65C1204.67 318.446 1194.55 318.009 1183.84 317.554C1138.56 315.625 1087.23 313.44 1043.5 329.852C998.651 346.529 985.497 386.959 977.962 428.164C973.548 452.299 971.35 477.735 969.023 504.664C964.569 556.211 959.958 609.518 938.848 655.652C924.363 687.302 904.033 712.115 876.841 731.265" fill="url(#paint4_linear_1_23555)" fill-opacity="0.7"/>
<path d="M890.072 714.056C885.892 717 881.561 719.806 877.079 722.474C857.049 734.405 833.722 743.774 805.766 751.119C783.825 756.884 759.676 761.329 727.451 765.514C713.045 767.396 698.516 769.012 684.467 770.574L676.875 771.419C671.677 772.002 666.473 772.58 661.262 773.154C600.774 779.845 538.226 786.764 480.342 805.756C468.33 809.709 456.63 814.088 445.572 818.78C384.513 844.786 334.483 887.576 296.858 945.974C274.179 981.113 256.097 1019.94 238.612 1057.48C227.486 1081.37 215.974 1106.09 203.451 1129.44C191.996 1151.21 178.85 1172.04 164.136 1191.75C146.046 1215.77 129.284 1233.39 111.388 1247.22C89.1048 1264.43 65.7785 1275.06 40.0873 1279.71C9.19674 1285.3 -22.397 1281.52 -52.9502 1277.87C-60.5853 1276.95 -68.4826 1276.01 -76.177 1275.24L-77.1729 1275.14C-117.817 1271.07 -159.846 1266.86 -200.462 1273.99C-238.817 1280.59 -271.79 1294.02 -303.676 1307.01C-307.776 1308.68 -312.015 1310.41 -316.16 1312.07L-316.363 1311.57C-312.216 1309.9 -307.982 1308.17 -303.881 1306.5C-271.966 1293.5 -238.968 1280.06 -200.555 1273.45C-159.866 1266.3 -117.804 1270.51 -77.1177 1274.6L-76.1218 1274.69C-68.4209 1275.47 -60.5224 1276.41 -52.883 1277.32C-22.3692 1280.98 9.18306 1284.75 39.992 1279.17C99.1064 1268.47 137.158 1226.66 163.701 1191.42C178.398 1171.73 191.527 1150.92 202.968 1129.18C215.483 1105.84 226.989 1081.14 238.116 1057.25C255.609 1019.69 273.699 980.848 296.397 945.678C314.298 917.611 336.149 892.271 361.278 870.437C386.453 848.825 414.816 831.234 445.364 818.285C456.439 813.591 468.151 809.203 480.178 805.246C538.116 786.235 600.697 779.32 661.209 772.619C666.418 772.043 671.622 771.465 676.821 770.885L684.414 770.039C698.461 768.477 712.983 766.866 727.387 764.98C776.276 758.621 832.265 748.548 876.807 722.013C907.352 703.823 930.669 679.42 948.113 647.4C971.884 603.755 980.017 552.766 987.882 503.456C991.915 478.178 995.724 454.298 1001.5 431.412C1005.9 413.95 1011.84 393.75 1022.46 376.323C1034.28 356.942 1050.06 343.724 1070.7 335.914C1090.01 328.529 1112.27 323.874 1138.75 321.682C1162.12 319.748 1185.72 319.918 1208.53 320.079C1219.68 320.159 1230.21 320.235 1240.61 320.075L1240.61 320.621C1230.21 320.781 1219.68 320.705 1208.53 320.624C1162.04 320.289 1113.97 319.944 1070.88 336.421C1027.29 352.92 1012.02 391.891 1002.02 431.544C996.251 454.408 992.443 478.274 988.414 503.542C980.541 552.897 972.402 603.931 948.585 647.659C934.546 674.066 914.505 696.808 890.072 714.056Z" fill="url(#paint5_linear_1_23555)" fill-opacity="0.7"/>
<path d="M904.35 696.568C897.776 701.185 890.945 705.424 883.889 709.265C839.311 733.623 785.493 742.811 733.971 749.115C720.918 750.72 707.717 752.136 694.951 753.507C691.123 753.921 687.308 754.332 683.506 754.741L676.442 755.51C613.242 762.383 547.89 769.49 487.941 790.479C476.089 794.643 464.542 799.253 453.626 804.187C394.017 831.227 345.32 875.017 308.889 934.341C286.9 970.069 269.514 1009.44 252.704 1047.52C242.255 1071.2 231.449 1095.69 219.706 1118.86C208.853 1140.78 196.333 1161.84 182.256 1181.84C164.706 1206.6 148.525 1224.61 131.318 1238.51C109.409 1256.22 86.2585 1266.87 60.5446 1271.07C29.0488 1276.22 -3.05414 1271.22 -34.0983 1266.38C-42.8937 1265.01 -51.99 1263.59 -60.8257 1262.45C-99.0001 1257.53 -146.51 1251.4 -190.664 1260.52C-230.866 1268.66 -264.479 1285.31 -296.979 1301.4C-300.884 1303.33 -304.923 1305.33 -308.869 1307.26L-309.133 1306.72C-305.19 1304.79 -301.152 1302.79 -297.246 1300.86C-264.708 1284.75 -231.061 1268.09 -190.788 1259.92C-146.536 1250.79 -98.9704 1256.92 -60.7527 1261.84C-51.9041 1262.99 -42.8056 1264.4 -34.0037 1265.77C-3.00595 1270.6 29.0489 1275.6 60.4495 1270.47C118.839 1260.93 155.962 1217.9 181.768 1181.48C195.827 1161.5 208.331 1140.47 219.171 1118.58C230.905 1095.42 241.72 1070.95 252.163 1047.27C268.98 1009.18 286.371 969.782 308.385 934.009C325.575 905.689 346.693 879.95 371.11 857.56C395.565 835.409 423.324 817.207 453.388 803.611C464.324 798.676 475.887 794.059 487.756 789.889C547.771 768.878 613.156 761.767 676.389 754.889L683.453 754.12C687.251 753.707 691.066 753.296 694.898 752.886C707.663 751.517 720.86 750.101 733.909 748.495C785.366 742.202 839.116 733.026 883.607 708.719C913.88 692.325 939.433 668.429 957.815 639.321C984.445 597.962 996.18 549.071 1007.53 501.789C1012.91 479.365 1018.48 456.179 1025.51 434.717C1031.33 416.939 1038.22 398.234 1049.19 381.874C1060.86 363.853 1077.98 350.026 1098.06 342.407C1117.08 334.993 1138.92 329.973 1164.82 327.054C1187.7 324.48 1210.83 323.816 1233.2 323.174C1244.79 322.841 1255.74 322.528 1266.56 321.964L1266.59 322.564C1255.77 323.126 1244.82 323.447 1233.22 323.774C1187.74 325.077 1140.71 326.428 1098.28 342.962C1053.84 360.078 1037.71 399.392 1026.09 434.899C1019.06 456.338 1013.75 478.482 1008.12 501.931C996.767 549.257 985.017 598.202 958.333 639.646C949.582 653.405 939.243 666.086 927.53 677.429C920.31 684.386 912.567 690.778 904.369 696.548" fill="url(#paint6_linear_1_23555)" fill-opacity="0.7"/>
<path d="M139.652 1238.74C122.272 1251.21 102.156 1259.33 80.9909 1262.41C48.7051 1267.15 15.9019 1260.94 -15.8213 1254.93C-25.5933 1253.08 -35.6992 1251.17 -45.4935 1249.65C-91.9436 1242.43 -137.257 1236.8 -180.884 1247.04C-222.931 1256.74 -257.161 1276.63 -290.263 1295.88C-293.986 1298.04 -297.835 1300.28 -301.594 1302.44L-301.921 1301.87C-298.163 1299.71 -294.318 1297.47 -290.592 1295.31C-257.448 1276.04 -223.176 1256.12 -181.033 1246.4C-160.894 1241.67 -138.637 1239.97 -112.994 1241.22C-89.5508 1242.35 -65.8097 1245.83 -45.3987 1249C-35.5922 1250.53 -25.4833 1252.44 -15.7047 1254.29C15.9655 1260.29 48.7137 1266.49 80.8908 1261.77C138.733 1253.29 174.83 1209.1 199.818 1171.54C213.213 1151.26 225.091 1130.02 235.355 1107.99C246.313 1085.05 256.418 1060.83 266.196 1037.41C282.335 998.743 299.024 958.759 320.359 922.345C336.838 893.778 357.221 867.648 380.918 844.71C404.655 822.027 431.816 803.22 461.401 788.983C472.203 783.8 483.611 778.957 495.324 774.58C557.346 751.467 624.826 744.311 690.084 737.399C695.247 736.854 700.538 736.313 705.655 735.78C717.043 734.606 728.817 733.391 740.432 732.053C792.044 726.144 845.936 717.622 890.404 695.464C920.804 680.439 947.225 658.444 967.514 631.273C997.241 592.063 1012.7 545.065 1027.66 499.611C1034.4 479.108 1041.38 457.906 1049.51 438.054C1056.07 422.039 1064.06 403.603 1075.91 387.497C1088.32 370.121 1105.52 356.726 1125.4 348.938C1167.37 332.383 1213.47 329.35 1258.05 326.42C1270.01 325.634 1281.31 324.888 1292.49 323.894L1292.55 324.548C1281.36 325.546 1270.06 326.288 1258.1 327.074C1213.57 329.999 1167.52 333.026 1125.65 349.546C1082.53 366.558 1064.69 402.72 1050.11 438.296C1041.99 458.126 1035.02 479.317 1028.28 499.809C1013.31 545.312 997.832 592.367 968.037 631.662C958.413 644.484 947.427 656.226 935.273 666.682C921.69 678.281 906.714 688.143 890.691 696.038C870.256 706.216 846.676 714.193 818.602 720.421C791.161 726.51 762.447 730.175 740.497 732.688C728.878 734.026 717.101 735.242 705.713 736.417C700.597 736.945 695.305 737.49 690.144 738.035C624.927 744.949 557.49 752.099 495.552 775.174C483.858 779.546 472.463 784.383 461.686 789.554C403.518 817.605 356.157 862.391 320.925 922.668C299.616 959.04 282.936 999.005 266.805 1037.65C257.027 1061.08 246.916 1085.3 235.948 1108.25C225.67 1130.31 213.776 1151.58 200.363 1171.89C183.415 1197.36 167.803 1215.75 151.23 1229.76C147.416 1232.98 143.555 1235.97 139.647 1238.73" fill="url(#paint7_linear_1_23555)" fill-opacity="0.7"/>
<path d="M157.842 1231.59C141.166 1243.54 121.787 1251.16 101.442 1253.77C68.2442 1258.11 34.618 1250.7 2.09656 1243.53C-8.53182 1241.19 -19.5245 1238.77 -30.1536 1236.86C-76.1256 1228.58 -124.875 1221.51 -171.093 1233.56C-214.988 1244.85 -249.817 1268.03 -283.501 1290.45C-287.052 1292.81 -290.724 1295.26 -294.308 1297.62L-294.7 1297.03C-291.116 1294.66 -287.44 1292.22 -283.896 1289.86C-250.163 1267.4 -215.28 1244.18 -171.272 1232.87C-124.914 1220.78 -76.0749 1227.86 -30.0249 1236.15C-19.3819 1238.07 -8.38092 1240.5 2.25342 1242.84C34.7136 1249.99 68.2747 1257.38 101.352 1253.06C158.464 1245.6 192.307 1202.64 217.886 1161.6C230.613 1141.02 241.865 1119.56 251.557 1097.39C261.741 1074.71 271.152 1050.79 280.252 1027.66C295.708 988.382 311.691 947.765 332.341 910.678C348.116 881.854 367.769 855.329 390.75 831.844C413.763 808.624 440.318 789.207 469.422 774.318C480.076 768.896 491.343 763.825 502.9 759.233C530.432 748.343 561.522 739.908 597.943 733.444C630.523 727.661 663.252 724.09 696.707 720.647C703.341 719.969 710.144 719.296 716.727 718.648C726.629 717.672 736.869 716.662 746.948 715.58C795.231 710.429 850.639 703.18 897.203 682.185C927.791 668.483 955.08 648.371 977.224 623.212C1010.38 586.004 1029.78 540.648 1048.54 496.785C1056.4 478.402 1064.53 459.393 1073.52 441.376C1081.96 424.47 1090.54 408.057 1102.61 393.073C1115.74 376.354 1133.03 363.382 1152.76 355.459C1194.04 338.872 1239.08 334.244 1282.64 329.77C1295.05 328.498 1306.79 327.288 1318.42 325.815L1318.51 326.515C1306.87 327.989 1295.13 329.196 1282.71 330.472C1239.2 334.942 1194.21 339.564 1153.02 356.113C1107.81 374.274 1088.35 413.241 1074.15 441.696C1065.17 459.693 1057.04 478.693 1049.19 497.067C1030.41 540.982 1010.99 586.391 977.751 623.687C967.266 635.55 955.637 646.351 943.033 655.932C928.92 666.594 913.641 675.617 897.49 682.827C850.831 703.864 795.353 711.126 747.018 716.282C736.94 717.363 726.695 718.375 716.79 719.351C710.208 719.993 703.405 720.671 696.774 721.35C625.641 728.673 561.973 736.628 503.152 759.892C491.612 764.472 480.37 769.537 469.736 774.95C412.993 803.985 366.971 849.769 332.948 911.021C312.32 948.067 296.35 988.658 280.899 1027.92C271.799 1051.06 262.381 1074.98 252.191 1097.67C242.485 1119.88 231.217 1141.36 218.471 1161.97C208.214 1178.43 192.147 1202.46 171.142 1221.03C166.901 1224.79 162.456 1228.31 157.827 1231.58" fill="url(#paint8_linear_1_23555)" fill-opacity="0.7"/>
<path d="M176.315 1224.27C160.252 1235.75 141.516 1242.93 121.893 1245.12C87.7019 1249.07 53.1679 1240.47 19.7707 1232.15C8.36525 1229.31 -3.42956 1226.37 -14.8098 1224.06C-60.1537 1214.86 -112.608 1206.2 -161.301 1220.08C-207.042 1232.96 -242.457 1259.47 -276.707 1285.1C-280.095 1287.64 -283.601 1290.26 -287.022 1292.8L-287.479 1292.18C-284.058 1289.64 -280.555 1287.02 -277.167 1284.49C-242.863 1258.81 -207.387 1232.26 -161.51 1219.34C-112.653 1205.41 -60.0853 1214.09 -14.6566 1223.3C-3.25988 1225.62 8.54321 1228.56 19.951 1231.4C53.2826 1239.71 87.7489 1248.29 121.803 1244.36C178.638 1237.8 211.392 1193.82 235.939 1151.67C247.997 1130.79 258.624 1109.11 267.748 1086.79C277.161 1064.41 285.879 1040.84 294.309 1018.05C309.077 978.116 324.348 936.823 344.318 899.018C359.389 869.936 378.311 843.017 400.571 818.988C422.861 795.232 448.817 775.203 477.449 759.666C487.958 753.998 499.072 748.694 510.48 743.898C537.879 732.419 568.753 723.586 604.863 716.887C638.819 710.589 673.498 706.884 703.344 703.902C711.548 703.085 719.969 702.299 728.11 701.538C736.425 700.761 745.022 699.957 753.474 699.114C804.263 694.096 857.722 687.632 904.012 668.909C934.895 656.563 963.067 638.3 986.944 615.145C1023.99 579.793 1047.64 535.779 1070.5 493.22C1079.12 477.186 1088.03 460.605 1097.54 444.697C1106.26 430.108 1116.14 413.574 1129.31 398.646C1143.13 382.597 1160.54 370.033 1180.12 361.974C1220.69 345.379 1264.64 339.209 1307.15 333.242C1320.06 331.43 1332.25 329.72 1344.36 327.727L1344.49 328.484C1332.36 330.479 1320.17 332.191 1307.25 334.002C1264.8 339.96 1220.89 346.121 1180.41 362.682C1136.79 380.528 1115.39 416.323 1098.2 445.086C1088.7 460.98 1079.8 477.549 1071.19 493.582C1059.74 514.891 1047.9 536.927 1034.53 557.603C1019.53 580.798 1004.14 599.803 987.475 615.703C976.148 626.593 963.878 636.459 950.811 645.185C936.185 654.898 920.602 663.086 904.306 669.62C857.922 688.381 804.4 694.855 753.556 699.878C745.103 700.719 736.503 701.524 728.188 702.303C720.046 703.064 711.626 703.852 703.423 704.668C636.091 711.392 570.692 719.511 510.783 744.606C499.397 749.393 488.306 754.687 477.82 760.341C421.712 790.763 378.268 836.241 345.008 899.372C325.062 937.133 309.801 978.401 295.04 1018.31C286.606 1041.11 277.884 1064.69 268.468 1087.08C259.331 1109.43 248.689 1131.14 236.614 1152.05C225.958 1170.35 211.154 1193.73 191.087 1212.28C186.438 1216.59 181.507 1220.6 176.328 1224.26" fill="url(#paint9_linear_1_23555)" fill-opacity="0.7"/>
<path d="M195.111 1216.72C179.555 1227.82 161.356 1234.63 142.337 1236.48C107.094 1240.03 71.5851 1230.25 37.2545 1220.77C25.1297 1217.43 12.5927 1213.97 0.521044 1211.28C-46.2581 1200.78 -100.443 1190.9 -151.518 1206.62C-199.104 1221.1 -235.09 1250.96 -269.892 1279.83C-273.133 1282.52 -276.476 1285.3 -279.743 1287.99L-280.265 1287.35C-276.995 1284.67 -273.655 1281.89 -270.414 1279.2C-253.271 1264.97 -235.542 1250.27 -216.142 1237.3C-194.182 1222.62 -173.121 1212.33 -151.756 1205.83C-129.039 1198.84 -104.013 1196.36 -75.2493 1198.26C-48.3384 1200.04 -21.7518 1205.43 0.704425 1210.47C12.7927 1213.18 25.3437 1216.64 37.4772 1219.99C71.7382 1229.43 107.166 1239.2 142.26 1235.66C198.925 1229.95 230.544 1184.97 254.001 1141.74C265.385 1120.56 275.387 1098.67 283.945 1076.2C292.593 1054.17 300.618 1031 308.382 1008.59C322.457 967.953 337.011 925.935 356.305 887.358C370.675 858.016 388.865 830.704 410.402 806.134C431.964 781.847 457.314 761.21 485.469 745.022C495.829 739.111 506.793 733.576 518.056 728.571C545.305 716.502 575.958 707.27 611.779 700.338C645.12 693.887 678.68 690.194 709.98 687.163C719.887 686.208 730.058 685.313 739.892 684.448C746.487 683.868 753.307 683.268 760.005 682.652C813.325 677.809 864.979 672.095 910.826 655.636C942.032 644.534 971.078 628.106 996.671 607.081C1038.24 573.433 1065.36 532.315 1094.06 488.776C1102.91 475.356 1112.06 461.48 1121.57 448.01L1122.63 446.502C1142.64 418.169 1165.31 386.057 1207.48 368.493C1247.3 351.909 1290.12 344.266 1331.53 336.875C1344.97 334.475 1357.67 332.21 1370.31 329.645L1370.47 330.452C1357.83 333.015 1345.12 335.285 1331.68 337.685C1290.31 345.07 1247.53 352.705 1207.8 369.254C1165.85 386.73 1143.25 418.738 1123.31 446.981L1122.25 448.489C1112.74 461.948 1103.59 475.819 1094.75 489.233C1080.98 510.125 1066.73 531.728 1051.07 551.805C1033.52 574.295 1015.9 592.586 997.193 607.725C985.04 617.625 972.13 626.558 958.581 634.44C943.46 643.193 927.572 650.548 911.114 656.412C865.175 672.903 813.464 678.622 760.09 683.475C753.391 684.089 746.571 684.69 739.974 685.27C730.142 686.134 719.975 687.028 710.07 687.985C646.408 694.147 579.167 702.415 518.402 729.326C507.163 734.32 496.225 739.841 485.891 745.739C431.179 777.109 389.035 823.556 357.039 887.731C337.773 926.256 323.23 968.248 309.164 1008.86C301.399 1031.27 293.369 1054.46 284.714 1076.5C276.144 1099 266.128 1120.92 254.727 1142.13C239.686 1169.85 221.292 1198.29 195.116 1216.73" fill="url(#paint10_linear_1_23555)" fill-opacity="0.7"/>
<path d="M213.972 1209.15C198.906 1219.87 181.222 1226.33 162.791 1227.83C126.45 1230.98 89.9373 1220.01 54.6233 1209.4C41.8236 1205.55 28.5861 1201.57 15.8683 1198.47C-35.9254 1185.82 -90.8647 1176.41 -141.723 1193.13C-191.156 1209.22 -227.701 1242.46 -263.038 1274.61C-266.132 1277.42 -269.332 1280.34 -272.457 1283.16L-273.046 1282.5C-269.924 1279.68 -266.725 1276.77 -263.63 1273.96C-246.236 1258.14 -228.249 1241.77 -208.396 1227.33C-185.917 1210.98 -164.195 1199.52 -141.992 1192.29C-90.928 1175.51 -35.8438 1184.93 16.0784 1197.61C28.8223 1200.72 42.0695 1204.71 54.8809 1208.56C90.1144 1219.14 126.547 1230.09 162.72 1226.95C219.306 1222.03 249.743 1176.09 272.063 1131.79C282.77 1110.33 292.146 1088.22 300.139 1065.6C308.03 1043.97 315.37 1021.25 322.469 999.277C335.84 957.887 349.67 915.09 368.278 875.694C381.948 846.087 399.408 818.382 420.218 793.274C441.053 768.458 465.801 747.21 493.483 730.369C503.893 724.104 514.621 718.385 525.625 713.235C552.699 700.582 583.138 690.948 618.689 683.779C652.883 676.885 687.375 673.155 716.608 670.416C728.352 669.32 740.398 668.334 752.049 667.381C756.878 666.985 761.704 666.587 766.528 666.186C822.497 661.543 872.499 656.547 917.634 642.359C949.244 632.484 979.172 617.869 1006.39 599.011C1053.35 566.94 1085.64 526.314 1119.84 483.297C1128.18 472.805 1136.8 461.955 1145.59 451.32C1146.61 450.097 1147.63 448.863 1148.65 447.618C1170.09 421.625 1194.37 392.169 1234.84 375.008C1273.82 358.476 1315.44 349.428 1355.7 340.686C1369.75 337.642 1383.01 334.756 1396.24 331.557L1396.45 332.412C1383.2 335.61 1369.94 338.492 1355.9 341.543C1315.68 350.281 1274.09 359.312 1235.18 375.815C1194.92 392.893 1170.7 422.263 1149.33 448.176C1148.31 449.42 1147.29 450.654 1146.28 451.878C1137.49 462.507 1128.87 473.353 1120.53 483.842C1104.08 504.544 1087.06 525.954 1068.75 545.601C1048.27 567.586 1028.03 585.291 1006.89 599.73C979.599 618.639 949.593 633.295 917.899 643.197C872.677 657.413 822.625 662.415 766.601 667.062C761.78 667.466 756.954 667.865 752.122 668.257C740.474 669.211 728.431 670.196 716.692 671.293C656.639 676.919 587.428 685.326 526 714.032C515.024 719.169 504.324 724.873 493.941 731.121C440.645 763.426 399.802 810.841 369.076 876.069C350.49 915.412 336.671 958.184 323.308 999.548C316.207 1021.53 308.864 1044.26 300.968 1065.9C292.962 1088.55 283.571 1110.69 272.847 1132.19C258.316 1161.04 240.335 1190.59 213.972 1209.15Z" fill="url(#paint11_linear_1_23555)" fill-opacity="0.7"/>
<path d="M233.019 1201.49C229.311 1204.1 225.43 1206.47 221.402 1208.56C209.536 1214.66 196.551 1218.27 183.241 1219.17C145.927 1221.91 108.518 1209.82 72.3414 1198.12C58.1233 1193.53 44.6932 1189.19 31.2065 1185.67C-19.4687 1172.24 -78.4765 1161.03 -131.93 1179.64C-183.206 1197.36 -220.289 1234 -256.159 1269.44C-259.119 1272.37 -262.179 1275.39 -265.168 1278.32L-265.827 1277.66C-262.839 1274.73 -259.779 1271.7 -256.82 1268.78C-239.179 1251.35 -220.939 1233.32 -200.64 1217.4C-177.643 1199.36 -155.271 1186.72 -132.242 1178.76C-107.809 1170.25 -80.9357 1167.25 -50.0765 1169.58C-20.1362 1171.83 9.21581 1178.88 31.4419 1184.77C44.9533 1188.29 58.3948 1192.64 72.6277 1197.24C108.716 1208.91 146.038 1220.97 183.172 1218.25C239.763 1214.09 268.989 1167.19 290.118 1121.86C300.147 1100.11 308.9 1077.79 316.333 1055.01C323.48 1033.84 330.136 1011.63 336.579 990.158C349.238 947.954 362.33 904.311 380.257 864.036C409.767 797.556 449.427 749.041 501.496 715.717C511.733 709.211 522.314 703.263 533.193 697.899C592.296 668.803 659.46 659.445 723.236 653.669C736.968 652.429 751.033 651.372 764.634 650.351L773.047 649.718C824.124 645.884 876.945 641.93 924.44 629.079C956.519 620.378 987.336 607.56 1016.12 590.944C1069.65 560.332 1108.08 519.653 1148.76 476.586C1155.55 469.398 1162.57 461.967 1169.62 454.632C1171.46 452.718 1173.31 450.783 1175.17 448.829C1197.82 425.115 1223.49 398.237 1262.19 381.526C1300.23 365.098 1340.56 354.75 1379.57 344.741C1393.66 341.125 1408.24 337.386 1422.17 333.477L1422.42 334.377C1408.48 338.288 1393.9 342.028 1379.8 345.645C1340.83 355.646 1300.53 365.984 1262.56 382.383C1224.04 399.019 1198.44 425.828 1175.85 449.473C1173.98 451.423 1172.13 453.36 1170.3 455.285C1163.25 462.616 1156.23 470.045 1149.45 477.232C1116.39 512.233 1084.81 545.662 1045.4 573.416C1036.25 579.854 1026.69 585.985 1016.59 591.762C987.738 608.42 956.849 621.27 924.694 629.994C877.112 642.867 824.249 646.83 773.126 650.662L764.712 651.296C751.112 652.317 737.054 653.375 723.328 654.613C659.642 660.382 592.579 669.721 533.614 698.751C522.767 704.1 512.217 710.03 502.01 716.517C450.101 749.731 410.551 798.114 381.119 864.422C363.216 904.644 350.133 948.258 337.482 990.433C331.038 1011.92 324.374 1034.13 317.227 1055.32C309.785 1078.12 301.02 1100.48 290.976 1122.26C281.864 1141.8 269.076 1166.71 250.855 1185.96C245.446 1191.72 239.477 1196.92 233.035 1201.49" fill="url(#paint12_linear_1_23555)" fill-opacity="0.7"/>
<path d="M252.223 1193.72C237.965 1203.82 221.129 1209.65 203.683 1210.53C165.197 1212.85 126.694 1199.58 89.4611 1186.75C74.6171 1181.63 60.5952 1176.79 46.5384 1172.87C-5.70264 1158.13 -66.5988 1145.8 -122.145 1166.17C-175.265 1185.51 -212.884 1225.58 -249.266 1264.33C-252.099 1267.35 -255.024 1270.47 -257.89 1273.5L-258.611 1272.82C-255.751 1269.79 -252.822 1266.67 -249.988 1263.65C-232.105 1244.61 -213.613 1224.92 -192.876 1207.49C-169.372 1187.75 -146.348 1173.93 -122.484 1165.24C-97.2192 1155.97 -69.4205 1152.71 -37.4985 1155.25C-6.29752 1157.74 23.9457 1165.47 46.8068 1171.92C60.8914 1175.85 74.9268 1180.68 89.7856 1185.81C126.927 1198.61 165.333 1211.85 203.625 1209.54C260.282 1206.12 288.268 1158.28 308.171 1111.93C317.52 1089.89 325.649 1067.35 332.523 1044.42C338.927 1023.78 344.915 1002.16 350.709 981.246C362.644 938.157 374.987 893.602 392.226 852.369C420.425 784.783 458.786 735.285 509.508 701.065C519.571 694.319 530.005 688.142 540.76 682.565C567.452 668.741 597.458 658.31 632.505 650.661C660.17 644.626 690.196 640.389 729.864 636.92C745.76 635.535 762.01 634.438 777.72 633.373L786.51 632.784C835.237 629.538 885.627 626.18 931.251 615.798C963.902 608.343 995.628 597.3 1025.85 582.868C1087.56 553.653 1133.48 512.206 1182.1 468.338C1185.93 464.881 1189.78 461.411 1193.64 457.928C1196.52 455.33 1199.49 452.638 1202.36 450.029C1225.96 428.557 1252.71 404.219 1289.53 388.029C1326.46 371.794 1365.33 360.27 1402.92 349.124C1417.85 344.695 1433.29 340.119 1448.08 335.379L1448.39 336.322C1433.58 341.061 1418.14 345.647 1403.2 350.07C1365.64 361.206 1326.8 372.721 1289.93 388.932C1253.26 405.06 1226.57 429.336 1203.03 450.758C1200.16 453.366 1197.2 456.065 1194.31 458.66C1190.44 462.139 1186.59 465.609 1182.77 469.069C1152.26 496.596 1122.82 523.171 1089.86 546.379C1069.78 560.646 1048.51 573.153 1026.28 583.758C995.989 598.224 964.195 609.294 931.473 616.767C885.771 627.166 835.345 630.527 786.578 633.777L777.788 634.365C762.082 635.428 745.839 636.518 729.952 637.912C669.976 643.157 600.649 652.669 541.217 683.448C530.495 689.009 520.094 695.166 510.062 701.892C459.504 735.999 421.258 785.346 393.141 852.755C375.925 893.921 363.586 938.45 351.658 981.509C345.864 1002.43 339.872 1024.06 333.466 1044.71C326.582 1067.68 318.441 1090.25 309.078 1112.32C295.772 1143.31 278.857 1174.96 252.221 1193.72" fill="url(#paint13_linear_1_23555)" fill-opacity="0.7"/>
<path d="M271.581 1185.89C257.654 1195.71 241.167 1201.27 224.134 1201.88C184.451 1203.78 144.839 1189.33 106.53 1175.35C91.0807 1169.72 76.4878 1164.39 61.8786 1160.08C8.05315 1144.01 -54.7365 1130.57 -112.35 1152.69C-167.314 1173.68 -205.457 1217.19 -242.345 1259.27C-245.058 1262.36 -247.864 1265.56 -250.605 1268.67L-251.389 1267.98C-248.65 1264.87 -245.845 1261.67 -243.132 1258.58C-225.013 1237.91 -206.277 1216.53 -185.1 1197.61C-161.09 1176.15 -137.415 1161.13 -112.722 1151.71C-54.8179 1129.48 8.18531 1142.95 62.1785 1159.07C76.825 1163.4 91.4186 1168.73 106.886 1174.36C145.098 1188.3 184.614 1202.72 224.081 1200.83C280.868 1198.11 307.585 1149.34 326.227 1101.99C334.893 1079.67 342.399 1056.92 348.714 1033.82C354.392 1013.79 359.72 992.829 364.872 972.562C376.066 928.516 387.648 882.965 404.207 840.708C431.067 771.989 468.134 721.519 517.526 686.416C527.416 679.43 537.702 673.024 548.335 667.232C574.821 652.824 604.615 641.988 639.422 634.106C666.995 627.862 697.843 623.436 736.502 620.176C753.083 618.783 770.096 617.735 786.101 616.782C791.482 616.465 796.864 616.154 802.247 615.849C847.738 613.242 894.778 610.547 938.079 602.527C971.378 596.346 1004.03 587.065 1035.6 574.806C1107.63 547.034 1163.58 503.424 1217.7 461.246C1222.02 457.875 1226.27 454.495 1230.77 450.919C1256.08 430.796 1282.25 409.987 1316.9 394.559C1352.35 378.605 1389.44 366.134 1425.31 354.074C1441.4 348.664 1458.03 343.069 1474.02 337.315L1474.38 338.299C1458.38 344.054 1441.74 349.654 1425.64 355.066C1389.8 367.118 1352.73 379.581 1317.32 395.514C1282.8 410.891 1256.68 431.657 1231.42 451.74C1226.92 455.32 1222.66 458.703 1218.34 462.077C1164.16 504.299 1108.15 547.961 1035.97 575.787C1004.34 588.069 971.629 597.367 938.266 603.561C894.903 611.598 847.831 614.295 802.306 616.902C796.926 617.211 791.544 617.522 786.162 617.836C770.164 618.788 753.155 619.839 736.589 621.229C677.202 626.236 608.455 635.728 548.835 668.161C538.239 673.933 527.987 680.317 518.133 687.28C468.912 722.26 431.972 772.572 405.182 841.099C388.648 883.295 377.077 928.812 365.887 972.83C360.733 993.104 355.401 1014.06 349.719 1034.12C343.394 1057.25 335.877 1080.03 327.198 1102.39C314.593 1134.4 298.303 1167.07 271.576 1185.89" fill="url(#paint14_linear_1_23555)" fill-opacity="0.7"/>
<path d="M1500.36 340.256C1482.68 347.332 1464.34 354.25 1446.6 360.94C1412.97 373.627 1378.19 386.748 1344.71 402.082C1312.62 416.644 1286.39 434.917 1261.03 452.589C1254.6 457.067 1248.53 461.299 1242.35 465.476C1213.51 484.999 1182.19 505.578 1148.68 523.821C1115.92 541.931 1081.4 556.666 1045.66 567.801C1012.76 577.928 979.127 585.468 945.055 590.351C904.652 596.162 861.469 598.182 819.716 600.132C810.858 600.546 801.697 600.974 792.681 601.435C777.035 602.239 760.215 603.174 743.221 604.548C687.807 609.046 616.499 618.603 556.448 652.876C545.975 658.859 535.873 665.47 526.198 672.672C478.286 708.504 442.641 759.79 417.218 829.449C401.374 872.761 390.584 919.36 380.148 964.425C375.624 983.965 370.945 1004.17 365.973 1023.52C359.214 1050.11 352.463 1072.65 345.316 1092.45C337.903 1113.1 327.26 1139.39 310.614 1159.55C302.893 1169.14 293.397 1177.16 282.644 1183.17C270.913 1189.44 257.878 1192.89 244.579 1193.24C203.693 1194.7 162.947 1179.07 123.543 1163.96C107.506 1157.81 92.3567 1152 77.2151 1147.29C21.7966 1129.9 -42.8982 1115.35 -102.559 1139.21C-159.366 1161.85 -198.022 1208.82 -235.403 1254.25C-238.055 1257.48 -240.693 1260.68 -243.317 1263.85L-244.166 1263.15C-241.541 1259.98 -238.903 1256.78 -236.253 1253.55C-217.901 1231.25 -198.925 1208.19 -177.319 1187.76C-152.811 1164.57 -128.488 1148.36 -102.963 1138.19C-76.0347 1127.42 -46.3846 1123.64 -12.3297 1126.62C21.7252 1129.61 55.2744 1139.25 77.5437 1146.24C92.7135 1150.95 107.882 1156.78 123.937 1162.93C163.238 1178.01 203.878 1193.59 244.538 1192.14C301.515 1190.1 326.933 1140.42 344.283 1092.08C351.412 1072.31 358.157 1049.79 364.909 1023.25C369.877 1003.91 374.553 983.709 379.076 964.175C389.518 919.076 400.316 872.443 416.184 829.069C428.428 795.525 442.594 767.001 459.496 741.87C468.399 728.588 478.346 716.036 489.243 704.334C500.362 692.44 512.508 681.548 525.54 671.787C535.253 664.56 545.393 657.927 555.906 651.923C582.175 636.931 611.755 625.694 646.336 617.572C674.133 611.043 704.892 606.556 743.138 603.452C760.144 602.077 776.976 601.142 792.63 600.336C801.645 599.882 810.803 599.451 819.666 599.035C861.394 597.085 904.544 595.07 944.9 589.265C978.916 584.391 1012.5 576.865 1045.34 566.754C1121.96 543.263 1184.37 503.393 1241.74 464.573C1247.91 460.397 1253.98 456.169 1260.4 451.695C1285.81 433.994 1312.08 415.687 1344.26 401.089C1377.78 385.745 1412.57 372.619 1446.22 359.924C1463.95 353.237 1482.28 346.322 1499.96 339.248L1500.36 340.256Z" fill="url(#paint15_linear_1_23555)" fill-opacity="0.7"/>
<path d="M1526.34 342.214C1505.7 351.315 1484.36 360.242 1463.73 368.875C1433.56 381.495 1402.36 394.544 1372.09 408.642C1343.22 421.993 1317.86 437.532 1293.34 452.56C1284.06 458.248 1275.29 463.621 1266.36 468.867C1227.15 491.917 1195.97 508.332 1165.27 522.105C1129.92 538.173 1093.11 550.798 1055.35 559.807C1021.25 567.813 986.676 573.599 951.835 577.128C915.248 580.903 876.745 582.23 839.51 583.513C826.301 583.968 812.641 584.439 799.203 585.013C785.687 585.594 767.867 586.446 749.858 587.847C694.898 592.134 624.112 601.66 564.066 637.572C553.716 643.766 543.764 650.603 534.269 658.043C487.65 694.72 453.299 746.969 429.258 817.777C414.108 862.308 404.121 910.095 394.469 956.305C390.559 975.011 386.516 994.354 382.231 1012.91C376.058 1039.91 369.914 1062.68 363.444 1082.51C356.619 1103.5 346.709 1130.23 330.55 1150.74C323.084 1160.48 313.739 1168.62 303.068 1174.69C291.378 1181.02 278.324 1184.42 265.029 1184.59C222.925 1185.6 181.032 1168.8 140.519 1152.55C123.909 1145.89 108.219 1139.6 92.5571 1134.49C35.5374 1115.78 -31.0696 1100.11 -92.7628 1125.73C-151.413 1150.02 -192.337 1202.74 -228.447 1249.26C-230.988 1252.54 -233.516 1255.79 -236.028 1259.02L-236.943 1258.31C-234.426 1255.08 -231.899 1251.83 -229.36 1248.55C-210.779 1224.61 -191.567 1199.86 -169.532 1177.91C-144.528 1152.99 -119.561 1135.58 -93.2051 1124.66C-65.4456 1113.13 -34.8761 1109.09 0.252994 1112.3C35.536 1115.52 70.0368 1125.88 92.918 1133.38C108.615 1138.51 124.321 1144.81 140.949 1151.47C181.354 1167.67 223.133 1184.43 264.996 1183.43C322.215 1182.06 346.311 1131.46 362.338 1082.15C368.796 1062.36 374.932 1039.63 381.093 1012.66C385.371 994.119 389.407 974.785 393.32 956.081C402.986 909.833 412.981 862.012 428.153 817.414C439.701 783.404 453.161 754.49 469.306 729.021C477.856 715.481 487.473 702.646 498.067 690.637C508.873 678.435 520.747 667.222 533.549 657.133C543.082 649.664 553.074 642.799 563.467 636.58C589.51 621.004 618.875 609.368 653.241 601.004C681.212 594.196 711.884 589.649 749.764 586.694C767.792 585.291 785.629 584.445 799.152 583.859C812.598 583.285 826.258 582.813 839.471 582.358C876.686 581.075 915.169 579.749 951.715 575.979C986.507 572.454 1021.03 566.676 1055.08 558.682C1137.43 539.295 1205.01 503.58 1265.77 467.871C1274.69 462.63 1283.46 457.259 1292.73 451.575C1317.28 436.529 1342.67 420.968 1371.6 407.592C1401.89 393.487 1433.1 380.432 1463.28 367.808C1483.91 359.175 1505.24 350.253 1525.88 341.156L1526.34 342.214Z" fill="url(#paint16_linear_1_23555)" fill-opacity="0.7"/>
<path d="M1552.33 344.171C1524.48 357.595 1495.78 370.739 1468.03 383.452C1445.52 393.763 1422.24 404.424 1399.48 415.207C1375.68 426.426 1353.34 438.55 1331.73 450.275C1317.51 457.991 1304.08 465.283 1290.38 472.264C1251.01 492.33 1215.51 508.066 1181.86 520.386C1143.96 534.42 1104.86 544.941 1065.03 551.817C1029.8 557.743 994.281 561.781 958.62 563.914C927.123 565.9 894.426 566.556 862.81 567.19C844.105 567.564 824.764 567.949 805.72 568.604C786.494 569.274 770.85 570.086 756.486 571.159C701.937 575.243 631.636 584.733 571.678 622.278C561.449 628.684 551.647 635.747 542.333 643.423C496.975 680.929 463.925 734.145 441.292 806.113C426.845 851.983 417.688 901.078 408.829 948.551C405.516 966.307 402.093 984.67 398.48 1002.3C392.821 1030.14 387.445 1052.47 381.559 1072.56C375.331 1093.89 366.166 1121.05 350.471 1141.9C343.262 1151.79 334.068 1160.07 323.477 1166.19C311.828 1172.59 298.751 1175.94 285.461 1175.93C242.128 1176.48 199.076 1158.51 157.441 1141.13C140.269 1133.96 124.045 1127.19 107.88 1121.68C52.6794 1102.82 -18.8995 1084.7 -82.9841 1112.25C-143.476 1138.19 -184.926 1194.57 -221.488 1244.31C-223.926 1247.62 -226.352 1250.91 -228.765 1254.18L-229.741 1253.46C-227.328 1250.19 -224.903 1246.9 -222.468 1243.58C-203.663 1218 -184.221 1191.55 -161.757 1168.07C-136.261 1141.41 -110.652 1122.79 -83.4652 1111.13C-68.2728 1104.66 -52.2418 1100.36 -35.8481 1098.38C-19.6894 1096.48 -3.37202 1096.34 12.8164 1097.97C40.6033 1100.61 70.934 1107.77 108.269 1120.53C124.473 1126.04 140.715 1132.83 157.907 1140.01C199.428 1157.34 242.361 1175.26 285.444 1174.72C342.935 1174 365.704 1122.5 380.387 1072.22C386.263 1052.16 391.631 1029.87 397.283 1002.06C400.894 984.434 404.317 966.079 407.629 948.33C416.496 900.822 425.658 851.689 440.132 805.746C450.977 771.261 463.733 741.957 479.127 716.159C487.324 702.362 496.612 689.244 506.902 676.929C517.392 664.425 528.992 652.897 541.56 642.484C550.914 634.774 560.759 627.68 571.033 621.245C596.843 605.086 625.994 593.048 660.155 584.44C687.877 577.457 719.359 572.713 756.401 569.941C770.781 568.868 786.445 568.052 805.682 567.385C824.734 566.727 844.08 566.34 862.785 565.962C894.385 565.331 927.061 564.679 958.54 562.691C994.158 560.56 1029.64 556.527 1064.82 550.608C1136.72 538.333 1206.12 513.834 1289.82 471.17C1303.51 464.19 1316.94 456.907 1331.15 449.195C1352.77 437.462 1375.12 425.328 1398.96 414.097C1421.73 403.311 1445.01 392.648 1467.52 382.336C1495.27 369.626 1523.96 356.483 1551.8 343.064L1552.33 344.171Z" fill="url(#paint17_linear_1_23555)" fill-opacity="0.7"/>
<path d="M1578.32 346.125C1534.49 369.072 1486.37 393.109 1426.87 421.771C1414.34 427.787 1401.87 433.922 1389.8 439.855C1363.92 452.58 1339.48 464.6 1314.39 475.659C1228.25 513.63 1152.09 535.291 1074.72 543.825C1042.94 547.427 1008.2 549.61 965.405 550.701C941.382 551.234 916.766 551.297 892.952 551.355C866.514 551.42 839.175 551.487 812.249 552.198C793.469 552.697 777.861 553.42 763.129 554.474C713.184 558.051 639.79 567.387 579.304 606.986C569.196 613.604 559.544 620.894 550.413 628.806C505.678 667.661 474.833 720.297 453.337 794.454C439.603 841.799 431.305 892.337 423.28 941.21C420.543 957.88 417.712 975.116 414.74 991.706C409.688 1020.04 404.905 1042.57 399.686 1062.62C394.057 1084.27 385.649 1111.85 370.411 1133.08C363.46 1143.11 354.417 1151.51 343.905 1157.71C332.297 1164.17 319.199 1167.47 305.916 1167.29C261.347 1167.35 217.125 1148.21 174.359 1129.71C156.633 1122.03 139.895 1114.79 123.226 1108.89C66.5056 1088.78 -7.07498 1069.46 -73.1826 1098.77C-135.515 1126.38 -177.473 1186.42 -214.491 1239.39C-216.827 1242.74 -219.153 1246.06 -221.47 1249.36L-222.509 1248.63C-220.194 1245.33 -217.868 1242.01 -215.533 1238.66C-196.506 1211.44 -176.83 1183.28 -153.948 1158.27C-127.964 1129.86 -101.713 1110.02 -73.6959 1097.61C-58.1043 1090.75 -41.599 1086.19 -24.6973 1084.08C-8.06283 1082.07 8.74519 1081.92 25.4113 1083.66C54.1233 1086.47 85.339 1094.11 123.651 1107.69C140.365 1113.6 157.121 1120.86 174.865 1128.54C217.51 1147 261.611 1166.08 305.916 1166.02C332.385 1165.98 353.14 1154.96 369.38 1132.34C384.495 1111.28 392.859 1083.84 398.458 1062.3C403.665 1042.28 408.445 1019.78 413.491 991.479C416.458 974.9 419.29 957.667 422.026 941.002C430.058 892.092 438.362 841.515 452.118 794.096C462.253 759.132 474.301 729.436 488.953 703.314C505.743 673.38 525.574 648.693 549.579 627.843C558.753 619.893 568.451 612.568 578.608 605.919C604.179 589.177 633.115 576.739 667.068 567.89C694.891 560.638 726.285 555.834 763.037 553.202C777.789 552.146 793.415 551.421 812.215 550.924C839.151 550.208 866.506 550.15 892.948 550.08C916.752 550.021 941.366 549.961 965.373 549.428C1008.13 548.339 1042.83 546.158 1074.58 542.56C1151.82 534.041 1227.85 512.412 1313.88 474.493C1338.94 463.445 1363.37 451.428 1389.24 438.713C1401.31 432.779 1413.79 426.643 1426.32 420.621C1485.81 391.965 1533.92 367.936 1577.73 344.995L1578.32 346.125Z" fill="url(#paint18_linear_1_23555)" fill-opacity="0.7"/>
<path d="M1604.3 348.078C1570.51 367.192 1525.93 392.085 1480.72 415.105C1435.37 438.199 1394.19 457.024 1354.81 472.671C1312.15 489.833 1268.32 503.938 1223.66 514.88C1177.97 526.06 1131.36 533.072 1084.39 535.829C1032.43 538.836 979.607 537.727 928.521 536.656C892.546 535.902 855.347 535.122 818.761 535.785C742.507 537.167 655.331 544.891 586.917 591.687C475.625 667.813 456.401 803.306 437.806 934.343C431.881 976.093 426.286 1015.53 417.802 1052.67C412.784 1074.64 405.13 1102.63 390.342 1124.25C383.651 1134.41 374.76 1142.95 364.325 1149.21C352.758 1155.73 339.636 1158.99 326.361 1158.64C280.55 1158.21 235.148 1137.91 191.24 1118.27C172.973 1110.1 155.716 1102.39 138.562 1096.09C80.3214 1074.74 4.7321 1054.21 -63.3886 1085.29C-127.564 1114.57 -170.027 1178.28 -207.492 1234.5C-209.734 1237.86 -211.965 1241.21 -214.183 1244.54L-215.288 1243.79C-213.064 1240.47 -210.835 1237.13 -208.6 1233.76C-189.354 1204.88 -169.451 1175.02 -146.15 1148.46C-119.681 1118.3 -92.7916 1097.24 -63.9446 1084.08C-47.9547 1076.83 -30.9752 1072.01 -13.5649 1069.77C3.5448 1067.64 20.8434 1067.49 37.987 1069.33C67.6193 1072.33 99.7204 1080.43 139.014 1094.84C156.215 1101.15 173.489 1108.87 191.776 1117.05C235.558 1136.63 280.833 1156.88 326.368 1157.31C352.941 1157.56 373.509 1146.5 389.243 1123.49C403.904 1102.06 411.514 1074.23 416.509 1052.38C424.98 1015.29 430.573 975.88 436.493 934.158C445.661 869.553 455.144 802.75 476.281 742.609C487.706 710.098 501.415 682.547 518.188 658.385C527.175 645.407 537.281 633.24 548.389 622.024C559.97 610.386 572.621 599.865 586.174 590.6C617.231 569.357 653.808 554.668 697.988 545.704C741.363 536.901 785.307 535.076 818.745 534.469C855.357 533.805 892.568 534.582 928.558 535.339C979.618 536.409 1032.42 537.517 1084.33 534.513C1277.44 523.339 1440.17 439.407 1603.66 346.933L1604.3 348.078Z" fill="url(#paint19_linear_1_23555)" fill-opacity="0.7"/>
</g>
</g>
<defs>
<linearGradient id="paint0_linear_1_23555" x1="316.538" y1="734.389" x2="517.072" y2="1019.15" gradientUnits="userSpaceOnUse">
<stop stop-color="#FEDC00"/>
<stop offset="1" stop-color="#373737"/>
</linearGradient>
<linearGradient id="paint1_linear_1_23555" x1="340.457" y1="743.343" x2="524.601" y2="1004.83" gradientUnits="userSpaceOnUse">
<stop stop-color="#FEDC00"/>
<stop offset="1" stop-color="#373737"/>
</linearGradient>
<linearGradient id="paint2_linear_1_23555" x1="364.378" y1="752.249" x2="532.277" y2="990.664" gradientUnits="userSpaceOnUse">
<stop stop-color="#FEDC00"/>
<stop offset="1" stop-color="#373737"/>
</linearGradient>
<linearGradient id="paint3_linear_1_23555" x1="388.266" y1="761.149" x2="540.044" y2="976.674" gradientUnits="userSpaceOnUse">
<stop stop-color="#FEDC00"/>
<stop offset="1" stop-color="#373737"/>
</linearGradient>
<linearGradient id="paint4_linear_1_23555" x1="412.169" y1="770.065" x2="547.954" y2="962.878" gradientUnits="userSpaceOnUse">
<stop stop-color="#FEDC00"/>
<stop offset="1" stop-color="#373737"/>
</linearGradient>
<linearGradient id="paint5_linear_1_23555" x1="436.101" y1="778.981" x2="556.039" y2="949.292" gradientUnits="userSpaceOnUse">
<stop stop-color="#FEDC00"/>
<stop offset="1" stop-color="#373737"/>
</linearGradient>
<linearGradient id="paint6_linear_1_23555" x1="449.278" y1="772.627" x2="564.339" y2="936.013" gradientUnits="userSpaceOnUse">
<stop stop-color="#FEDC00"/>
<stop offset="1" stop-color="#373737"/>
</linearGradient>
<linearGradient id="paint7_linear_1_23555" x1="461.164" y1="764.483" x2="577.84" y2="930.162" gradientUnits="userSpaceOnUse">
<stop stop-color="#FEDC00"/>
<stop offset="1" stop-color="#373737"/>
</linearGradient>
<linearGradient id="paint8_linear_1_23555" x1="473.062" y1="756.345" x2="592.289" y2="925.647" gradientUnits="userSpaceOnUse">
<stop stop-color="#FEDC00"/>
<stop offset="1" stop-color="#373737"/>
</linearGradient>
<linearGradient id="paint9_linear_1_23555" x1="484.365" y1="747.364" x2="606.749" y2="921.149" gradientUnits="userSpaceOnUse">
<stop stop-color="#FEDC00"/>
<stop offset="1" stop-color="#373737"/>
</linearGradient>
<linearGradient id="paint10_linear_1_23555" x1="494.48" y1="736.728" x2="621.199" y2="916.669" gradientUnits="userSpaceOnUse">
<stop stop-color="#FEDC00"/>
<stop offset="1" stop-color="#373737"/>
</linearGradient>
<linearGradient id="paint11_linear_1_23555" x1="502.543" y1="723.172" x2="635.656" y2="912.191" gradientUnits="userSpaceOnUse">
<stop stop-color="#FEDC00"/>
<stop offset="1" stop-color="#373737"/>
</linearGradient>
<linearGradient id="paint12_linear_1_23555" x1="510.288" y1="709.175" x2="650.137" y2="907.759" gradientUnits="userSpaceOnUse">
<stop stop-color="#FEDC00"/>
<stop offset="1" stop-color="#373737"/>
</linearGradient>
<linearGradient id="paint13_linear_1_23555" x1="517.944" y1="695.053" x2="664.606" y2="903.312" gradientUnits="userSpaceOnUse">
<stop stop-color="#FEDC00"/>
<stop offset="1" stop-color="#373737"/>
</linearGradient>
<linearGradient id="paint14_linear_1_23555" x1="525.506" y1="680.796" x2="679.102" y2="898.901" gradientUnits="userSpaceOnUse">
<stop stop-color="#FEDC00"/>
<stop offset="1" stop-color="#373737"/>
</linearGradient>
<linearGradient id="paint15_linear_1_23555" x1="532.982" y1="666.421" x2="700.145" y2="903.791" gradientUnits="userSpaceOnUse">
<stop stop-color="#FEDC00"/>
<stop offset="1" stop-color="#373737"/>
</linearGradient>
<linearGradient id="paint16_linear_1_23555" x1="540.348" y1="651.883" x2="721.448" y2="909.045" gradientUnits="userSpaceOnUse">
<stop stop-color="#FEDC00"/>
<stop offset="1" stop-color="#373737"/>
</linearGradient>
<linearGradient id="paint17_linear_1_23555" x1="547.626" y1="637.23" x2="742.749" y2="914.303" gradientUnits="userSpaceOnUse">
<stop stop-color="#FEDC00"/>
<stop offset="1" stop-color="#373737"/>
</linearGradient>
<linearGradient id="paint18_linear_1_23555" x1="554.835" y1="622.47" x2="764.052" y2="919.556" gradientUnits="userSpaceOnUse">
<stop stop-color="#FEDC00"/>
<stop offset="1" stop-color="#373737"/>
</linearGradient>
<linearGradient id="paint19_linear_1_23555" x1="561.967" y1="607.616" x2="785.345" y2="924.812" gradientUnits="userSpaceOnUse">
<stop stop-color="#FEDC00"/>
<stop offset="1" stop-color="#373737"/>
</linearGradient>
</defs>
</svg>
