<svg width="80" height="80" viewBox="0 0 80 80" fill="none" xmlns="http://www.w3.org/2000/svg">
<g filter="url(#filter0_b_34_355)">
<rect width="80" height="80" rx="24" fill="white" fill-opacity="0.4"/>
</g>
<path fill-rule="evenodd" clip-rule="evenodd" d="M50.8672 39.5672C52.8193 38.3471 53.6554 35.857 52.7353 33.6671C51.8132 31.477 49.4491 30.3329 47.211 30.8769C47.877 32.307 48.5111 33.7471 49.1171 35.1872C49.7232 36.6273 50.3091 38.0891 50.8672 39.5672ZM59.2297 45.5533C59.0137 45.4613 58.9137 45.2113 59.0037 44.9953C59.0957 44.7793 59.3457 44.6793 59.5617 44.7693L63.2719 46.3554C63.4879 46.4474 63.5879 46.6974 63.4979 46.9134C63.4059 47.1294 63.1559 47.2294 62.9399 47.1394L59.2297 45.5533ZM49.5851 20.17C49.4731 20.376 49.2151 20.452 49.009 20.34C48.803 20.228 48.727 19.9699 48.839 19.7639L50.7711 16.2217C50.8831 16.0157 51.1412 15.9397 51.3472 16.0517C51.5532 16.1637 51.6292 16.4217 51.5172 16.6277L49.5851 20.17ZM60.4498 29.3066C60.2398 29.4086 59.9838 29.3226 59.8818 29.1106C59.7798 28.9006 59.8658 28.6446 60.0778 28.5426L63.392 26.9224C63.602 26.8204 63.8581 26.9064 63.9601 27.1185C64.0621 27.3285 63.9761 27.5845 63.7641 27.6865L60.4498 29.3066ZM25.9636 52.0699C28.2578 51.0779 30.4898 50.1798 32.7019 49.4818L27.4219 36.9309C25.3757 38.023 23.1736 38.991 20.8597 39.9371C11.6314 43.7133 16.791 56.0361 25.9636 52.0699ZM40.6363 26.2565C40.7343 26.0424 40.9884 25.9504 41.2004 26.0484C41.4144 26.1464 41.5064 26.4005 41.4084 26.6125C41.3084 26.8285 41.2044 27.0445 41.0984 27.2625C40.9924 27.4765 40.8844 27.6865 40.7764 27.8926C40.6664 28.1006 40.4103 28.1806 40.2023 28.0706C39.9943 27.9606 39.9143 27.7046 40.0243 27.4965C40.1303 27.2945 40.2343 27.0925 40.3363 26.8865C40.4343 26.6845 40.5343 26.4745 40.6363 26.2565ZM39.2402 28.8706C39.3642 28.6706 39.6263 28.6086 39.8262 28.7326C40.0263 28.8566 40.0883 29.1186 39.9643 29.3186C39.0582 30.7887 38.0181 32.1128 36.8401 33.3049C35.662 34.4989 34.3439 35.561 32.8778 36.5111C32.6818 36.6391 32.4178 36.5831 32.2898 36.3871C32.1618 36.191 32.2178 35.927 32.4138 35.799C33.8259 34.883 35.098 33.8589 36.232 32.7088C37.3681 31.5568 38.3682 30.2827 39.2402 28.8706ZM33.5178 49.23L28.1696 36.5214C33.5198 33.5232 37.7262 29.545 39.9663 22.6044C40.5963 21.8783 41.6204 22.1504 42.1104 22.9764C46.4426 30.2831 50.753 40.5252 52.9491 48.7361C53.1971 49.6642 52.675 50.5863 51.717 50.5302C45.1866 47.276 39.402 47.5019 33.5178 49.23ZM29.3855 51.5721C30.3276 54.8063 32.0857 57.6704 33.8838 60.3826C35.8019 63.2767 30.4157 65.6729 29.0335 62.4847L25.0533 53.3061C25.4773 53.1801 25.8953 53.0281 26.3014 52.852C27.3215 52.412 28.3495 51.9801 29.3855 51.5721Z" fill="#521212"/>
<defs>
<filter id="filter0_b_34_355" x="-30" y="-30" width="140" height="140" filterUnits="userSpaceOnUse" color-interpolation-filters="sRGB">
<feFlood flood-opacity="0" result="BackgroundImageFix"/>
<feGaussianBlur in="BackgroundImageFix" stdDeviation="15"/>
<feComposite in2="SourceAlpha" operator="in" result="effect1_backgroundBlur_34_355"/>
<feBlend mode="normal" in="SourceGraphic" in2="effect1_backgroundBlur_34_355" result="shape"/>
</filter>
</defs>
</svg>
