<svg width="80" height="80" viewBox="0 0 80 80" fill="none" xmlns="http://www.w3.org/2000/svg">
<g filter="url(#filter0_b_34_360)">
<rect width="80" height="80" rx="24" fill="white" fill-opacity="0.4"/>
</g>
<path fill-rule="evenodd" clip-rule="evenodd" d="M19.2861 29.5691H24.6595C23.9615 29.9588 23.5968 30.7859 23.8093 31.5881L23.976 32.2257H20.4215V40.9306H17.7649L17.7628 31.0794C17.7628 30.2543 18.4485 29.5691 19.2861 29.5691ZM63.001 43.2479C63.001 43.1062 62.9906 42.9749 62.9427 42.8458L56.8231 47.2983L62.9427 51.7509C62.9906 51.6217 63.001 51.4905 63.001 51.3488V43.2479ZM62.1509 41.9478C61.9738 41.8769 61.7967 41.8415 61.5967 41.8415H46.689C46.4994 41.8415 46.3098 41.8769 46.1452 41.9478L52.819 46.8024L52.8419 46.8275L53.5857 47.3588C53.7503 47.4879 53.9524 47.5484 54.1399 47.5484C54.342 47.5484 54.5296 47.49 54.7067 47.3588L55.438 46.8275L55.463 46.8024L62.1509 41.9478ZM45.3428 42.8458C45.3074 42.975 45.2844 43.1062 45.2844 43.2479V51.3506C45.2844 51.4923 45.3073 51.6236 45.3428 51.7527L51.4602 47.3002L45.3428 42.8458ZM46.147 52.6489C46.3116 52.7198 46.5012 52.7552 46.6908 52.7552H61.5963C61.7964 52.7552 61.9756 52.7198 62.1506 52.6489L55.8081 48.0422L55.4059 48.3256C55.0267 48.6089 54.5913 48.7381 54.1412 48.7381C53.7037 48.7381 53.2661 48.6089 52.8786 48.3256L52.489 48.0422L46.147 52.6489ZM16.2981 42.123H29.0434C29.7518 42.123 30.3435 42.7148 30.3435 43.4232V51.1717C30.3435 51.8801 29.7539 52.4718 29.0434 52.4718H16.2981C15.5897 52.4718 15 51.8801 15 51.1717V43.4232C15 42.7148 15.5897 42.123 16.2981 42.123ZM25.0616 47.2986L22.6759 48.6821L20.2778 50.0613V44.536L22.6759 45.9195L25.0616 47.2986ZM31.5354 50.7468H44.0908V51.3489C44.0908 52.7908 45.2597 53.9596 46.689 53.9596H60.236V54.5972C60.236 55.4368 59.5505 56.1098 58.7234 56.1098H19.2857C18.4481 56.1098 17.7626 55.4368 17.7626 54.5972V53.6637H29.0427C30.4137 53.6637 31.5346 52.5428 31.5346 51.1718L31.5354 50.7468ZM57.5925 40.6375V32.226H52.5482L52.0648 30.3945L52.1002 30.382C52.644 30.2403 53.1045 29.9445 53.4691 29.5674H58.7259C59.5531 29.5674 60.2386 30.2529 60.2386 31.08V40.6351L57.5925 40.6375ZM33.1899 24.1003L30.4855 24.8316C28.1353 25.4588 26.7288 27.8903 27.356 30.2429L28.0165 32.7098C28.6437 35.06 31.0876 36.4664 33.4256 35.8289L36.7218 34.9538L46.654 34.7538L42.4723 19.15L34.311 23.6505L35.8695 29.4863C35.9653 29.8051 35.7757 30.1364 35.4569 30.2176C35.1381 30.2989 34.8068 30.1114 34.7131 29.7905L33.1899 24.1003ZM36.1424 40.9666L33.84 36.962L36.8882 36.1474L39.3927 36.0995L39.0864 38.0017L39.6406 38.9581L36.1424 40.9666ZM43.1932 40.7895C43.7954 41.8167 43.4412 43.1522 42.4015 43.7544L38.9178 45.7629L36.7447 42.0063L40.2283 39.9977C41.2701 39.3956 42.6036 39.7498 43.1932 40.7895ZM25.3828 30.5612L26.1517 30.3487C26.1621 30.4195 26.1871 30.4904 26.1996 30.5508L26.8601 33.0198C26.883 33.0907 26.8955 33.149 26.9184 33.2198L26.1517 33.4219C25.8454 33.5053 25.5141 33.3157 25.4307 33.0073L24.9703 31.2821C24.8849 30.9633 25.0745 30.6446 25.3828 30.5612ZM49.6435 21.3832L49.6914 21.3707C50.5894 21.1228 51.5332 21.6666 51.7833 22.575L53.0001 27.1338C53.248 28.0443 52.7042 28.9882 51.7937 29.2257L51.7583 29.2382L49.6435 21.3832ZM44.9409 16.0681C45.9806 15.7847 47.0786 16.4119 47.3516 17.462L51.7332 33.7741C52.0041 34.8263 51.379 35.9118 50.3269 36.1952C49.2747 36.4786 48.1891 35.8535 47.9058 34.8013L43.5366 18.4892C43.2532 17.437 43.8908 16.3411 44.9409 16.0681ZM29.9164 64H48.0831V61.9789C48.0831 60.8705 47.1726 59.9725 46.0746 59.9725H43.1222V62.6895H34.8776V59.9725H31.9356C30.8251 59.9725 29.9166 60.8705 29.9166 61.9789L29.9164 64ZM36.0835 61.483H41.9177V57.3139H36.0835V61.483Z" fill="#521212"/>
<defs>
<filter id="filter0_b_34_360" x="-30" y="-30" width="140" height="140" filterUnits="userSpaceOnUse" color-interpolation-filters="sRGB">
<feFlood flood-opacity="0" result="BackgroundImageFix"/>
<feGaussianBlur in="BackgroundImageFix" stdDeviation="15"/>
<feComposite in2="SourceAlpha" operator="in" result="effect1_backgroundBlur_34_360"/>
<feBlend mode="normal" in="SourceGraphic" in2="effect1_backgroundBlur_34_360" result="shape"/>
</filter>
</defs>
</svg>
