<svg width="80" height="80" viewBox="0 0 80 80" fill="none" xmlns="http://www.w3.org/2000/svg">
<g filter="url(#filter0_b_34_354)">
<rect width="80" height="80" rx="24" fill="white" fill-opacity="0.4"/>
</g>
<path d="M57.96 37.4C57.52 29.6 51.74 23.1 44.02 21.78C43.9 20.24 42.62 19 41.04 19H39.04C37.46 19 36.2 20.22 36.06 21.76C28.3 23.04 22.48 29.56 22.04 37.4C20.62 37.64 19.54 38.86 19.54 40.34V42.34C19.54 44 20.88 45.34 22.54 45.34H24.54C26.2 45.34 27.54 44 27.54 42.34V40.34C27.54 38.86 26.46 37.64 25.04 37.4C25.46 31.16 30.04 25.98 36.16 24.78C36.5 26.06 37.66 27 39.04 27H41.04C42.42 27 43.56 26.06 43.92 24.8C50 26.02 54.54 31.2 54.96 37.4C53.54 37.64 52.46 38.86 52.46 40.34V42.34C52.46 44 53.8 45.34 55.46 45.34H57.46C59.12 45.34 60.46 44 60.46 42.34V40.34C60.46 38.86 59.38 37.62 57.96 37.4Z" fill="#521212"/>
<path d="M47.54 49.1L44.26 52H35.76L32.48 49.1C30.58 47.54 30.58 46.34 32.02 44.5L37.8 37.18C38.2 36.68 38.66 36.34 39.18 36.16C39.72 35.98 40.3 35.98 40.86 36.16C41.36 36.34 41.82 36.68 42.24 37.18L48 44.48C49.46 46.32 49.38 47.46 47.54 49.1Z" fill="#521212"/>
<path d="M42.6401 60.0001H37.4601C35.6201 60.0001 34.2401 58.5001 34.6001 56.9001L35.2201 54.1201C35.3401 53.5601 35.8401 53.1801 36.4001 53.1801H43.7001C44.2601 53.1801 44.7401 53.5601 44.8801 54.1201L45.5001 56.9001C45.8801 58.6001 44.6001 60.0001 42.6401 60.0001Z" fill="#521212"/>
<defs>
<filter id="filter0_b_34_354" x="-30" y="-30" width="140" height="140" filterUnits="userSpaceOnUse" color-interpolation-filters="sRGB">
<feFlood flood-opacity="0" result="BackgroundImageFix"/>
<feGaussianBlur in="BackgroundImageFix" stdDeviation="15"/>
<feComposite in2="SourceAlpha" operator="in" result="effect1_backgroundBlur_34_354"/>
<feBlend mode="normal" in="SourceGraphic" in2="effect1_backgroundBlur_34_354" result="shape"/>
</filter>
</defs>
</svg>
