<svg width="25" height="25" viewBox="0 0 25 25" fill="none" xmlns="http://www.w3.org/2000/svg">
<path d="M5.38756 24.2409H0.334243V9.08089H5.38756V24.2409ZM5.89424 3.18758C5.89424 1.58758 4.62758 0.294243 3.02758 0.240903C1.40091 0.200903 0.0409125 1.48089 0.000912512 3.10756C-0.0390875 4.73423 1.2409 6.09423 2.86756 6.13423C4.5209 6.14757 5.86757 4.84091 5.89424 3.18758ZM23.9343 15.0809C23.9343 10.3609 20.8809 8.92089 18.2809 8.92089C16.4543 8.86759 14.7343 9.76089 13.7343 11.2809V9.09419H8.85427V24.2543H13.9076V16.3876C13.9076 16.3076 13.9076 16.2276 13.9076 16.1476C13.9076 16.1476 13.9076 16.1476 13.9076 16.1342C13.8009 14.5209 15.0276 13.1209 16.6409 13.0142C17.9609 13.0142 18.9609 13.8676 18.9609 16.2676V24.2543H24.0143L23.9476 15.0942L23.9343 15.0809Z" fill="#DCA629"/>
</svg>
