<svg width="20" height="20" viewBox="0 0 20 20" fill="none" xmlns="http://www.w3.org/2000/svg">
<path d="M4.57617 20H0.580078V7.15234H4.57617V20ZM2.55664 5.43359C1.31055 5.43359 0.279297 4.35938 0.279297 3.07031C0.279297 1.82422 1.31055 0.792969 2.55664 0.792969C3.8457 0.792969 4.87695 1.82422 4.87695 3.07031C4.87695 4.35938 3.8457 5.43359 2.55664 5.43359ZM19.4863 20H15.5332V13.7695C15.5332 12.2656 15.4902 10.375 13.4277 10.375C11.3652 10.375 11.0645 11.9648 11.0645 13.6406V20H7.06836V7.15234H10.8926V8.91406H10.9355C11.4941 7.92578 12.7832 6.85156 14.7168 6.85156C18.7559 6.85156 19.5293 9.51562 19.5293 12.9531V20H19.4863Z" fill="#DCA629"/>
</svg>
