<svg width="21" height="20" viewBox="0 0 21 20" fill="none" xmlns="http://www.w3.org/2000/svg">
<path d="M10.4141 4.80859C13.1211 4.80859 15.3555 7.04297 15.3555 9.75C15.3555 12.5 13.1211 14.6914 10.4141 14.6914C7.66406 14.6914 5.47266 12.5 5.47266 9.75C5.47266 7.04297 7.66406 4.80859 10.4141 4.80859ZM10.4141 12.9727C12.1758 12.9727 13.5938 11.5547 13.5938 9.75C13.5938 7.98828 12.1758 6.57031 10.4141 6.57031C8.60938 6.57031 7.19141 7.98828 7.19141 9.75C7.19141 11.5547 8.65234 12.9727 10.4141 12.9727ZM16.6875 4.63672C16.6875 5.28125 16.1719 5.79688 15.5273 5.79688C14.8828 5.79688 14.3672 5.28125 14.3672 4.63672C14.3672 3.99219 14.8828 3.47656 15.5273 3.47656C16.1719 3.47656 16.6875 3.99219 16.6875 4.63672ZM19.9531 5.79688C20.0391 7.38672 20.0391 12.1562 19.9531 13.7461C19.8672 15.293 19.5234 16.625 18.4062 17.7852C17.2891 18.9023 15.9141 19.2461 14.3672 19.332C12.7773 19.418 8.00781 19.418 6.41797 19.332C4.87109 19.2461 3.53906 18.9023 2.37891 17.7852C1.26172 16.625 0.917969 15.293 0.832031 13.7461C0.746094 12.1562 0.746094 7.38672 0.832031 5.79688C0.917969 4.25 1.26172 2.875 2.37891 1.75781C3.53906 0.640625 4.87109 0.296875 6.41797 0.210938C8.00781 0.125 12.7773 0.125 14.3672 0.210938C15.9141 0.296875 17.2891 0.640625 18.4062 1.75781C19.5234 2.875 19.8672 4.25 19.9531 5.79688ZM17.8906 15.4219C18.4062 14.1758 18.2773 11.168 18.2773 9.75C18.2773 8.375 18.4062 5.36719 17.8906 4.07812C17.5469 3.26172 16.9023 2.57422 16.0859 2.27344C14.7969 1.75781 11.7891 1.88672 10.4141 1.88672C8.99609 1.88672 5.98828 1.75781 4.74219 2.27344C3.88281 2.61719 3.23828 3.26172 2.89453 4.07812C2.37891 5.36719 2.50781 8.375 2.50781 9.75C2.50781 11.168 2.37891 14.1758 2.89453 15.4219C3.23828 16.2812 3.88281 16.9258 4.74219 17.2695C5.98828 17.7852 8.99609 17.6562 10.4141 17.6562C11.7891 17.6562 14.7969 17.7852 16.0859 17.2695C16.9023 16.9258 17.5898 16.2812 17.8906 15.4219Z" fill="#DCA629"/>
</svg>
