<svg width="22" height="19" viewBox="0 0 22 19" fill="none" xmlns="http://www.w3.org/2000/svg">
<path d="M19.7327 5.28125C19.7327 5.49609 19.7327 5.66797 19.7327 5.88281C19.7327 11.8555 15.2209 18.6875 6.92798 18.6875C4.34985 18.6875 1.98657 17.957 0.0100098 16.668C0.35376 16.7109 0.69751 16.7539 1.08423 16.7539C3.1897 16.7539 5.12329 16.0234 6.67017 14.8203C4.6936 14.7773 3.01782 13.4883 2.45923 11.6836C2.76001 11.7266 3.01782 11.7695 3.3186 11.7695C3.70532 11.7695 4.13501 11.6836 4.47876 11.5977C2.41626 11.168 0.869385 9.36328 0.869385 7.17188V7.12891C1.47095 7.47266 2.20142 7.64453 2.93188 7.6875C1.68579 6.87109 0.912354 5.49609 0.912354 3.94922C0.912354 3.08984 1.1272 2.31641 1.51392 1.67188C3.74829 4.37891 7.09985 6.18359 10.8381 6.39844C10.7522 6.05469 10.7092 5.71094 10.7092 5.36719C10.7092 2.875 12.7288 0.855469 15.2209 0.855469C16.51 0.855469 17.6702 1.37109 18.5295 2.27344C19.5178 2.05859 20.5061 1.67188 21.3655 1.15625C21.0217 2.23047 20.3342 3.08984 19.3889 3.64844C20.2913 3.5625 21.1936 3.30469 21.967 2.96094C21.3655 3.86328 20.592 4.63672 19.7327 5.28125Z" fill="#DCA629"/>
</svg>
