<svg width="30" height="30" viewBox="0 0 30 30" fill="none" xmlns="http://www.w3.org/2000/svg">
<rect x="-0.00976562" width="30" height="30" rx="15" fill="#3B2B09"/>
<g clip-path="url(#clip0_1_2785)">
<path d="M21.3653 18.4751L20.7903 21.0001C20.6737 21.3834 20.4153 21.5834 20.0153 21.6001C17.8987 21.5834 15.982 21.0584 14.2653 20.0251C12.5487 19.0084 11.182 17.6418 10.1653 15.9251C9.132 14.2084 8.607 12.2918 8.59033 10.1751C8.607 9.7751 8.807 9.51676 9.19033 9.4001L11.7153 8.8251C12.1153 8.75843 12.4153 8.90843 12.6153 9.2751L13.7653 11.9751C13.8987 12.3418 13.8237 12.6501 13.5403 12.9001L12.2153 13.9751C12.632 14.8418 13.182 15.6168 13.8653 16.3001C14.5487 16.9834 15.3237 17.5418 16.1903 17.9751L17.2903 16.6251C17.5403 16.3418 17.8487 16.2668 18.2153 16.4001L20.9153 17.5501C21.2653 17.7668 21.4153 18.0751 21.3653 18.4751Z" fill="white"/>
</g>
<defs>
<clipPath id="clip0_1_2785">
<rect width="13" height="12.8" fill="white" transform="matrix(1 0 0 -1 8.49023 21.6001)"/>
</clipPath>
</defs>
</svg>
