<svg width="31" height="30" viewBox="0 0 31 30" fill="none" xmlns="http://www.w3.org/2000/svg">
<rect x="0.600098" width="30" height="30" rx="15" fill="#3B2B09"/>
<path d="M22.4172 10.7988C22.7219 11.8652 22.7219 14.1504 22.7219 14.1504C22.7219 14.1504 22.7219 16.4102 22.4172 17.502C22.2648 18.1113 21.7824 18.5684 21.1984 18.7207C20.1066 19 15.7902 19 15.7902 19C15.7902 19 11.4484 19 10.3566 18.7207C9.77265 18.5684 9.29023 18.1113 9.13788 17.502C8.8332 16.4102 8.8332 14.1504 8.8332 14.1504C8.8332 14.1504 8.8332 11.8652 9.13788 10.7988C9.29023 10.1895 9.77265 9.70703 10.3566 9.55469C11.4484 9.25 15.7902 9.25 15.7902 9.25C15.7902 9.25 20.1066 9.25 21.1984 9.55469C21.7824 9.70703 22.2648 10.1895 22.4172 10.7988ZM14.3684 16.207L17.9738 14.1504L14.3684 12.0938V16.207Z" fill="white"/>
</svg>
