<svg width="31" height="30" viewBox="0 0 31 30" fill="none" xmlns="http://www.w3.org/2000/svg">
<rect x="0.640137" width="30" height="30" rx="15" fill="#3B2B09"/>
<path d="M15.8051 11.2051C17.4047 11.2051 18.725 12.5254 18.725 14.125C18.725 15.75 17.4047 17.0449 15.8051 17.0449C14.1801 17.0449 12.8851 15.75 12.8851 14.125C12.8851 12.5254 14.1801 11.2051 15.8051 11.2051ZM15.8051 16.0293C16.8461 16.0293 17.684 15.1914 17.684 14.125C17.684 13.084 16.8461 12.2461 15.8051 12.2461C14.7387 12.2461 13.9008 13.084 13.9008 14.125C13.9008 15.1914 14.7641 16.0293 15.8051 16.0293ZM19.5121 11.1035C19.5121 11.4844 19.2074 11.7891 18.8266 11.7891C18.4457 11.7891 18.141 11.4844 18.141 11.1035C18.141 10.7227 18.4457 10.418 18.8266 10.418C19.2074 10.418 19.5121 10.7227 19.5121 11.1035ZM21.4418 11.7891C21.4926 12.7285 21.4926 15.5469 21.4418 16.4863C21.391 17.4004 21.1879 18.1875 20.5277 18.873C19.8676 19.5332 19.0551 19.7363 18.141 19.7871C17.2016 19.8379 14.3832 19.8379 13.4437 19.7871C12.5297 19.7363 11.7426 19.5332 11.057 18.873C10.3969 18.1875 10.1937 17.4004 10.143 16.4863C10.0922 15.5469 10.0922 12.7285 10.143 11.7891C10.1937 10.875 10.3969 10.0625 11.057 9.40234C11.7426 8.74219 12.5297 8.53906 13.4437 8.48828C14.3832 8.4375 17.2016 8.4375 18.141 8.48828C19.0551 8.53906 19.8676 8.74219 20.5277 9.40234C21.1879 10.0625 21.391 10.875 21.4418 11.7891ZM20.223 17.4766C20.5277 16.7402 20.4516 14.9629 20.4516 14.125C20.4516 13.3125 20.5277 11.5352 20.223 10.7734C20.0199 10.291 19.6391 9.88477 19.1566 9.70703C18.3949 9.40234 16.6176 9.47852 15.8051 9.47852C14.9672 9.47852 13.1898 9.40234 12.4535 9.70703C11.9457 9.91016 11.5648 10.291 11.3617 10.7734C11.057 11.5352 11.1332 13.3125 11.1332 14.125C11.1332 14.9629 11.057 16.7402 11.3617 17.4766C11.5648 17.9844 11.9457 18.3652 12.4535 18.5684C13.1898 18.873 14.9672 18.7969 15.8051 18.7969C16.6176 18.7969 18.3949 18.873 19.1566 18.5684C19.6391 18.3652 20.0453 17.9844 20.223 17.4766Z" fill="white"/>
</svg>
