<svg width="31" height="30" viewBox="0 0 31 30" fill="none" xmlns="http://www.w3.org/2000/svg">
<rect x="0.709961" width="30" height="30" rx="15" fill="#3B2B09"/>
<path d="M21.0393 11.4844C21.0393 11.6113 21.0393 11.7129 21.0393 11.8398C21.0393 15.3691 18.3732 19.4062 13.4729 19.4062C11.9494 19.4062 10.5529 18.9746 9.38496 18.2129C9.58809 18.2383 9.79121 18.2637 10.0197 18.2637C11.2639 18.2637 12.4064 17.832 13.3205 17.1211C12.1525 17.0957 11.1623 16.334 10.8322 15.2676C11.01 15.293 11.1623 15.3184 11.34 15.3184C11.5686 15.3184 11.8225 15.2676 12.0256 15.2168C10.8068 14.9629 9.89277 13.8965 9.89277 12.6016V12.5762C10.2482 12.7793 10.6799 12.8809 11.1115 12.9062C10.3752 12.4238 9.91816 11.6113 9.91816 10.6973C9.91816 10.1895 10.0451 9.73242 10.2736 9.35156C11.5939 10.9512 13.5744 12.0176 15.7834 12.1445C15.7326 11.9414 15.7072 11.7383 15.7072 11.5352C15.7072 10.0625 16.9006 8.86914 18.3732 8.86914C19.135 8.86914 19.8205 9.17383 20.3283 9.70703C20.9123 9.58008 21.4963 9.35156 22.0041 9.04688C21.801 9.68164 21.3947 10.1895 20.8361 10.5195C21.3693 10.4688 21.9025 10.3164 22.3596 10.1133C22.0041 10.6465 21.5471 11.1035 21.0393 11.4844Z" fill="white"/>
</svg>
