<svg width="31" height="30" viewBox="0 0 31 30" fill="none" xmlns="http://www.w3.org/2000/svg">
<rect x="0.680176" width="30" height="30" rx="15" fill="#3B2B09"/>
<path d="M12.6967 19H10.3353V11.4082H12.6967V19ZM11.5033 10.3926C10.767 10.3926 10.1576 9.75781 10.1576 8.99609C10.1576 8.25977 10.767 7.65039 11.5033 7.65039C12.265 7.65039 12.8744 8.25977 12.8744 8.99609C12.8744 9.75781 12.265 10.3926 11.5033 10.3926ZM21.5072 19H19.1713V15.3184C19.1713 14.4297 19.1459 13.3125 17.9271 13.3125C16.7084 13.3125 16.5307 14.252 16.5307 15.2422V19H14.1693V11.4082H16.4291V12.4492H16.4545C16.7846 11.8652 17.5463 11.2305 18.6889 11.2305C21.0756 11.2305 21.5326 12.8047 21.5326 14.8359V19H21.5072Z" fill="white"/>
</svg>
