<svg width="31" height="31" viewBox="0 0 31 31" fill="none" xmlns="http://www.w3.org/2000/svg">
<rect x="0.649902" y="0.964844" width="30" height="30" rx="15" fill="#3B2B09"/>
<g clip-path="url(#clip0_1_2790)">
<path d="M20.85 11.3648C21.1833 11.3815 21.4667 11.4982 21.7 11.7148C21.9167 11.9482 22.0333 12.2315 22.05 12.5648C22.0333 12.9648 21.875 13.2815 21.575 13.5148L16.125 17.6148C15.8083 17.8148 15.4917 17.8148 15.175 17.6148L9.725 13.5148C9.425 13.2815 9.26667 12.9648 9.25 12.5648C9.26667 12.2315 9.38333 11.9482 9.6 11.7148C9.83333 11.4982 10.1167 11.3815 10.45 11.3648H20.85ZM14.7 18.2398C14.9833 18.4565 15.3 18.5648 15.65 18.5648C16 18.5648 16.3167 18.4565 16.6 18.2398L22.05 14.1648V19.3648C22.0333 19.8148 21.875 20.1898 21.575 20.4898C21.275 20.7898 20.9 20.9482 20.45 20.9648H10.85C10.4 20.9482 10.025 20.7898 9.725 20.4898C9.425 20.1898 9.26667 19.8148 9.25 19.3648V14.1648L14.7 18.2398Z" fill="white"/>
</g>
<defs>
<clipPath id="clip0_1_2790">
<rect width="13" height="12.8" fill="white" transform="matrix(1 0 0 -1 9.1499 22.5649)"/>
</clipPath>
</defs>
</svg>
