<svg width="1103" height="1756" viewBox="0 0 1103 1756" fill="none" xmlns="http://www.w3.org/2000/svg">
<g opacity="0.2">
<mask id="mask0_1_24" style="mask-type:luminance" maskUnits="userSpaceOnUse" x="-805" y="0" width="1908" height="1756">
<path d="M821.141 0.649486L-804.145 1436.88L-522.295 1755.83L1102.99 319.6L821.141 0.649486Z" fill="white"/>
</mask>
<g mask="url(#mask0_1_24)">
<path d="M381.784 853.697C361.791 871.365 336.842 886.128 306.028 898.571C273.136 911.854 237.507 920.892 203.833 929.012C184.35 933.71 164.367 938.098 145.042 942.341C86.856 955.117 26.6879 968.329 -29.0541 991.948C-94.8078 1019.81 -147.03 1063.63 -184.284 1122.19C-206.695 1157.42 -224.105 1196.06 -240.942 1233.42C-252.663 1259.43 -264.784 1286.33 -278.494 1311.86C-298.443 1349.01 -321.937 1380.99 -348.322 1406.89C-362.196 1420.54 -377.314 1432.87 -393.477 1443.71C-410.114 1454.82 -427.809 1464.25 -446.305 1471.87C-530.645 1506.64 -624.33 1511.37 -714.929 1515.94C-721.118 1516.25 -727.29 1516.56 -733.444 1516.88L-733.458 1516.62C-727.304 1516.3 -721.132 1515.98 -714.942 1515.67C-624.37 1511.11 -530.704 1506.37 -446.409 1471.63C-376.682 1442.89 -320.267 1389.09 -278.73 1311.74C-265.025 1286.21 -252.906 1259.32 -241.185 1233.31C-224.343 1195.94 -206.93 1157.3 -184.508 1122.05C-147.225 1063.44 -94.9638 1019.59 -29.1613 991.704C26.6044 968.075 86.7836 954.862 144.982 942.083C164.305 937.84 184.286 933.453 203.768 928.756C262.962 914.483 344.026 894.939 394.455 841.023C467.379 763.052 438.17 652.321 412.399 554.624C404.071 523.058 396.208 493.243 391.774 465.378C387.46 438.215 387.454 416.419 391.763 398.754C394.14 388.409 398.631 378.667 404.954 370.141C412.01 361.022 421.163 353.741 431.635 348.916C476.008 327.799 532.546 331.618 582.429 334.988C591.439 335.598 599.949 336.173 608.309 336.601L608.295 336.867C599.932 336.435 591.426 335.856 582.414 335.255C532.564 331.887 476.063 328.07 431.75 349.159C383.275 372.228 385.874 426.515 392.045 465.342C396.471 493.189 404.335 522.997 412.658 554.556C425.845 604.547 439.481 656.241 440.843 705.748C441.58 732.551 438.671 755.989 431.956 777.396C428.352 788.935 423.495 800.045 417.473 810.527C411.062 821.587 403.408 831.879 394.659 841.2C390.62 845.519 386.331 849.684 381.792 853.696" fill="url(#paint0_linear_1_24)" fill-opacity="0.7"/>
<path d="M391.521 835.25C352.201 869.997 300.258 887.576 258.52 899.11C241.585 903.792 224.568 907.896 208.589 911.697C192.041 915.635 175.1 919.402 158.716 923.044C110.1 933.847 59.8358 945.027 12.5581 962.28C0.288122 966.76 -11.5611 971.56 -22.6618 976.546C-86.8111 1005.39 -137.597 1050.06 -173.611 1109.3C-195.277 1144.92 -211.951 1183.9 -228.077 1221.59C-239.138 1247.44 -250.575 1274.17 -263.514 1299.56C-274.901 1322.17 -288.263 1343.73 -303.443 1363.99C-319.129 1385.02 -337.306 1404.07 -357.576 1420.73C-378.449 1437.7 -401.852 1451.3 -426.935 1461.04C-455.786 1472.16 -485.344 1478.1 -520.848 1483.61C-540.82 1486.66 -561.493 1489.06 -581.483 1491.37C-594.83 1492.92 -608.631 1494.52 -622.117 1496.3C-653.735 1500.43 -684.431 1505.01 -714.115 1509.43L-726.764 1511.32L-726.812 1511L-714.163 1509.11C-684.476 1504.69 -653.781 1500.12 -622.159 1495.98C-608.672 1494.2 -594.87 1492.6 -581.521 1491.05C-561.529 1488.74 -540.867 1486.34 -520.897 1483.29C-485.413 1477.79 -455.874 1471.85 -427.051 1460.73C-379.524 1442.41 -339.177 1410.7 -303.703 1363.8C-288.531 1343.56 -275.176 1322.01 -263.794 1299.41C-250.861 1274.03 -239.425 1247.31 -228.366 1221.46C-212.234 1183.76 -195.555 1144.78 -173.88 1109.13C-137.835 1049.84 -87.0021 1005.13 -22.7916 976.258C-11.6841 971.269 0.174075 966.466 12.4509 961.983C59.7499 944.723 110.028 933.545 158.651 922.735C175.033 919.092 191.973 915.326 208.519 911.388C224.496 907.587 241.51 903.484 258.443 898.806C303.201 886.434 359.719 867.109 399.749 827.096C427.092 799.614 443.065 766.412 448.589 725.605C456.213 670.437 443.61 610.583 431.423 552.7C424.982 522.111 418.905 493.221 416.008 466.082C413.141 439.124 414.073 418.559 418.957 401.351C421.71 391.207 426.436 381.705 432.865 373.389C440.041 364.449 449.168 357.269 459.546 352.4C503.258 331.263 558.466 333.183 607.176 334.874C616.625 335.202 625.551 335.512 634.318 335.664L634.312 335.984C625.542 335.833 616.616 335.522 607.164 335.194C558.492 333.503 503.325 331.585 459.685 352.688C412.947 375.238 411.962 425.116 416.323 466.051C419.211 493.168 425.294 522.056 431.737 552.639C443.928 610.549 456.537 670.431 448.901 725.648C443.372 766.533 427.366 799.791 399.971 827.323C397.23 830.062 394.415 832.707 391.524 835.258" fill="url(#paint1_linear_1_24)" fill-opacity="0.7"/>
<path d="M401.073 817.266C384.205 832.172 363.975 844.862 339.401 855.946C318.191 865.517 293.974 873.825 263.205 882.081C246.959 886.445 231.016 890.233 213.351 894.381C199.71 897.584 185.764 900.709 172.28 903.732C120.957 915.236 67.8848 927.132 18.4333 946.252C6.36052 950.926 -5.31439 955.936 -16.2636 961.145C-77.8855 990.093 -129.095 1037.32 -162.928 1096.4C-183.845 1132.43 -199.783 1171.77 -215.2 1209.81C-225.594 1235.48 -236.354 1262.03 -248.518 1287.25C-259.302 1309.93 -272.017 1331.64 -286.522 1352.14C-303.135 1375.39 -320.196 1394.3 -338.688 1409.95C-359.058 1427.35 -382.376 1440.98 -407.542 1450.18C-438.593 1461.39 -471.618 1465.16 -503.557 1468.8L-506.99 1469.19C-516.992 1470.3 -527.293 1471.31 -537.26 1472.29C-562.522 1474.77 -588.643 1477.34 -613.867 1481.82C-646.37 1487.51 -676.746 1495.02 -706.117 1502.28C-710.78 1503.44 -715.426 1504.58 -720.054 1505.72L-720.144 1505.35C-715.513 1504.22 -710.868 1503.07 -706.206 1501.92C-676.83 1494.65 -646.449 1487.13 -613.926 1481.44C-588.689 1476.96 -562.559 1474.39 -537.288 1471.9C-527.327 1470.93 -517.026 1469.91 -507.027 1468.8L-503.595 1468.41C-471.678 1464.77 -438.675 1461.01 -407.666 1449.81C-361.505 1433.14 -321.977 1401.12 -286.825 1351.9C-272.337 1331.43 -259.637 1309.74 -248.864 1287.09C-236.704 1261.88 -225.947 1235.34 -215.549 1209.67C-200.131 1171.62 -184.189 1132.27 -163.258 1096.21C-129.388 1037.07 -78.1201 989.787 -16.4289 960.807C-5.47191 955.598 6.21218 950.582 18.2939 945.904C67.7761 926.769 120.856 914.875 172.199 903.364C185.684 900.341 199.627 897.215 213.265 894.012C230.927 889.865 246.868 886.08 263.105 881.713C307.978 869.672 364.673 850.992 405.029 813.145C432.577 787.316 449.683 755.712 457.327 716.53C467.605 663.831 458.823 606.231 450.325 550.53C445.821 520.999 441.567 493.109 440.222 466.751C439.376 450.164 439.069 425.606 446.135 403.926C449.264 393.989 454.223 384.725 460.758 376.612C468.054 367.847 477.159 360.763 487.45 355.848C506.69 346.395 529.699 340.356 557.797 337.382C582.516 334.765 607.646 334.797 631.949 334.827C641.823 334.84 651.152 334.852 660.316 334.69L660.322 335.066C651.155 335.227 641.826 335.216 631.949 335.203C584.439 335.141 530.59 335.075 487.621 356.18C442.088 378.456 438.577 426.958 440.605 466.724C441.948 493.063 446.197 520.949 450.703 550.465C459.204 606.199 467.995 663.831 457.703 716.594C450.044 755.858 432.901 787.528 405.291 813.414C403.91 814.709 402.505 815.988 401.075 817.252" fill="url(#paint2_linear_1_24)" fill-opacity="0.7"/>
<path d="M411.315 798.919L410.61 799.541C392.619 815.284 370.863 828.519 344.107 839.993C322.973 849.056 298.755 857.02 267.887 865.056C251.353 869.368 234.73 873.216 218.654 876.939L218.11 877.065C207.344 879.56 196.357 882.031 185.722 884.426C131.701 896.582 75.8408 909.151 24.3081 930.226C12.4271 935.094 0.923437 940.31 -9.86574 945.744C-70.8382 976.495 -118.744 1022.85 -152.252 1083.51C-172.423 1119.98 -187.621 1159.7 -202.317 1198.11C-212.06 1223.58 -222.135 1249.91 -233.538 1274.95C-243.722 1297.7 -255.789 1319.56 -269.616 1340.29C-285.797 1364.34 -302.227 1383.6 -319.827 1399.16L-319.901 1399.23C-339.707 1417.08 -362.932 1430.73 -388.169 1439.34C-418.135 1449.48 -449.929 1451.73 -480.675 1453.9C-484.768 1454.19 -489.002 1454.48 -493.154 1454.8C-498.859 1455.23 -504.713 1455.64 -510.373 1456.04C-541.899 1458.26 -574.497 1460.55 -605.628 1467.36C-639.722 1474.71 -670.389 1485.32 -700.048 1495.57C-704.418 1497.08 -708.933 1498.65 -713.357 1500.16L-713.497 1499.75C-709.078 1498.24 -704.558 1496.67 -700.189 1495.16C-670.518 1484.9 -639.836 1474.3 -605.719 1466.94C-574.557 1460.12 -541.944 1457.83 -510.403 1455.61C-504.74 1455.21 -498.89 1454.8 -493.186 1454.37C-489.037 1454.06 -484.804 1453.76 -480.705 1453.47C-449.986 1451.3 -418.221 1449.06 -388.308 1438.93C-342.563 1423.45 -304.962 1392.03 -269.974 1340.05C-256.16 1319.33 -244.103 1297.5 -233.929 1274.77C-222.532 1249.74 -212.46 1223.41 -202.718 1197.95C-188.016 1159.53 -172.813 1119.79 -152.627 1083.29C-119.078 1022.55 -71.1107 976.145 -10.0575 945.354C0.748161 939.919 12.2615 934.689 24.1456 929.824C75.7145 908.736 131.592 896.162 185.629 884.002C196.258 881.609 207.248 879.137 218.014 876.642L218.558 876.516C234.631 872.794 251.249 868.945 267.778 864.635C315.491 852.216 369.739 834.731 410.324 799.215C438.145 774.875 456.385 744.859 466.077 707.474C479.134 657.139 474.102 601.676 469.237 548.04C466.667 519.693 464.238 492.914 464.444 467.436C464.774 426.3 471.075 381.285 515.357 359.321C534.31 349.862 556.852 343.464 584.269 339.759C608.413 336.496 632.991 335.689 656.758 334.909C667.043 334.573 676.765 334.252 686.316 333.743L686.339 334.176C676.784 334.684 667.064 335.003 656.772 335.34C610.413 336.862 557.869 338.588 515.548 359.708C471.481 381.569 465.205 426.436 464.876 467.439C464.671 492.9 467.098 519.664 469.672 547.996C474.538 601.666 479.568 657.164 466.496 707.577C456.863 744.731 438.809 774.619 411.315 798.914" fill="url(#paint3_linear_1_24)" fill-opacity="0.7"/>
<path d="M421.973 780.526C420.003 782.267 417.988 783.978 415.928 785.66C374.857 819.116 320.412 835.964 272.568 848.028C257.21 851.911 241.728 855.444 226.749 858.865L222.865 859.752C214.945 861.564 206.868 863.379 199.058 865.136C142.355 877.898 83.7119 891.084 30.1748 914.205C18.4836 919.264 7.16161 924.694 -3.48168 930.353C-62.8785 962.02 -109.344 1009.21 -141.588 1070.62C-161.012 1107.55 -175.465 1147.68 -189.443 1186.5C-198.531 1211.73 -207.927 1237.82 -218.57 1262.65C-228.156 1285.47 -239.578 1307.47 -252.722 1328.45C-268.412 1353.24 -284.2 1372.84 -300.988 1388.35C-321.645 1407.44 -343.824 1420.57 -368.809 1428.5C-398.552 1437.94 -430.051 1438.87 -460.515 1439.77C-466.696 1439.95 -473.087 1440.14 -479.326 1440.4C-481.966 1440.51 -484.615 1440.61 -487.272 1440.72C-523.836 1442.19 -561.645 1443.71 -597.398 1452.89C-633.136 1461.94 -664.127 1475.7 -694.097 1489.01C-698.226 1490.85 -702.495 1492.74 -706.668 1494.58L-706.86 1494.12C-702.687 1492.29 -698.416 1490.4 -694.291 1488.56C-664.302 1475.24 -633.291 1461.47 -597.511 1452.42C-561.707 1443.22 -523.871 1441.7 -487.284 1440.23C-484.627 1440.12 -481.979 1440.02 -479.338 1439.91C-473.096 1439.65 -466.703 1439.46 -460.521 1439.28C-430.092 1438.38 -398.628 1437.46 -368.949 1428.04C-309.913 1409.3 -274.572 1362.08 -253.131 1328.18C-240 1307.23 -228.591 1285.25 -219.015 1262.45C-208.377 1237.63 -198.988 1211.55 -189.907 1186.32C-175.924 1147.49 -161.466 1107.34 -142.025 1070.38C-126.58 1040.68 -106.872 1013.4 -83.5272 989.406C-60.1097 965.615 -33.1875 945.55 -3.69654 929.908C6.95336 924.25 18.2869 918.811 29.9905 913.747C83.5658 890.614 142.225 877.418 198.95 864.65C206.761 862.893 214.836 861.077 222.756 859.265L226.639 858.379C241.609 854.962 257.09 851.43 272.442 847.548C320.232 835.492 374.617 818.67 415.61 785.271C443.705 762.389 463.07 733.973 474.822 698.401C490.71 650.302 489.429 596.859 488.19 545.177C487.54 518.145 486.931 492.609 488.665 468.111C489.959 449.853 492.374 428.571 500.497 409.122C509.325 387.982 523.314 372.826 543.261 362.788C561.931 353.325 584.007 346.581 610.754 342.172C634.332 338.285 658.355 336.658 681.59 335.085C692.282 334.36 702.381 333.677 712.314 332.79L712.357 333.276C702.425 334.169 692.318 334.847 681.623 335.572C636.402 338.634 585.149 342.105 543.482 363.225C500.742 384.733 492.112 426.363 489.153 468.147C487.419 492.621 488.031 518.145 488.679 545.166C489.919 596.891 491.197 650.38 475.287 698.557C464.369 731.607 446.891 758.505 421.968 780.528" fill="url(#paint4_linear_1_24)" fill-opacity="0.7"/>
<path d="M433.228 761.968C429.397 765.354 425.4 768.619 421.239 771.764C402.642 785.824 380.486 797.702 353.507 808.075C332.333 816.218 308.819 823.291 277.249 830.993C263.138 834.448 248.875 837.651 235.083 840.748L227.629 842.424C222.527 843.574 217.418 844.721 212.302 845.864C152.916 859.165 91.5085 872.919 36.0629 898.159C24.5582 903.409 13.4105 909.048 2.93532 914.927C-54.8943 947.488 -99.9159 995.519 -130.892 1057.7C-149.571 1095.12 -163.275 1135.69 -176.526 1174.93C-184.958 1199.91 -193.683 1225.73 -203.563 1250.33C-212.555 1273.22 -223.33 1295.37 -235.789 1316.58C-251.129 1342.44 -265.851 1361.8 -282.119 1377.51C-302.375 1397.07 -324.391 1410.2 -349.415 1417.64C-379.504 1426.6 -411.322 1426.31 -442.091 1426.04C-449.781 1425.97 -457.734 1425.9 -465.467 1425.98L-466.467 1425.99C-507.313 1426.41 -549.55 1426.85 -589.135 1438.41C-626.532 1449.18 -657.829 1466.15 -688.093 1482.57C-691.985 1484.68 -696.008 1486.87 -699.944 1488.98L-700.202 1488.5C-696.264 1486.38 -692.245 1484.2 -688.353 1482.09C-658.06 1465.66 -626.741 1448.67 -589.286 1437.88C-549.631 1426.3 -507.36 1425.86 -466.472 1425.44L-465.471 1425.43C-457.732 1425.35 -449.778 1425.42 -442.084 1425.49C-411.354 1425.77 -379.578 1426.05 -349.569 1417.12C-291.989 1399.99 -258.766 1354.24 -236.257 1316.3C-223.814 1295.12 -213.053 1272.99 -204.071 1250.12C-194.198 1225.54 -185.479 1199.72 -177.045 1174.76C-163.788 1135.5 -150.077 1094.91 -131.384 1057.46C-116.677 1027.59 -97.7439 1000 -75.1678 975.538C-52.5214 951.29 -26.2642 930.687 2.67455 914.458C13.1666 908.575 24.3247 902.926 35.8441 897.67C91.3408 872.405 152.781 858.651 212.19 845.338C217.304 844.193 222.413 843.046 227.517 841.898L234.971 840.222C248.761 837.126 263.018 833.927 277.127 830.47C325.021 818.774 379.563 802.607 420.918 771.336C449.277 749.898 469.77 723.079 483.588 689.335C502.417 643.341 504.895 591.767 507.291 541.892C508.52 516.324 509.68 492.17 512.902 468.787C515.36 450.947 519.037 430.218 527.685 411.727C537.3 391.165 551.528 376.293 571.182 366.261C589.564 356.797 611.18 349.723 637.263 344.632C660.278 340.141 683.75 337.716 706.444 335.367C717.536 334.221 728.011 333.139 738.321 331.837L738.386 332.38C728.069 333.681 717.59 334.765 706.496 335.91C660.253 340.688 612.435 345.63 571.424 366.744C529.907 387.936 519.015 428.349 513.435 468.862C510.217 492.22 509.055 516.361 507.829 541.919C505.43 591.84 502.95 643.459 484.086 689.541C473.036 717.331 455.616 742.139 433.228 761.968Z" fill="url(#paint5_linear_1_24)" fill-opacity="0.7"/>
<path d="M445.496 743.016C439.47 748.329 433.146 753.293 426.555 757.887C384.926 786.997 332.443 802.047 281.927 813.977C269.13 817.007 256.164 819.867 243.627 822.632C239.867 823.465 236.121 824.293 232.387 825.117L225.45 826.658C163.389 840.438 99.2141 854.687 41.9368 882.14C30.6142 887.581 19.6439 893.433 9.33656 899.537C-46.9386 932.967 -90.5255 981.845 -120.214 1044.81C-138.141 1082.74 -151.094 1123.79 -163.616 1163.48C-171.396 1188.17 -179.445 1213.7 -188.57 1238.02C-196.947 1261 -207.077 1283.3 -218.869 1304.73C-233.59 1331.27 -247.693 1350.95 -263.267 1366.66C-283.096 1386.68 -304.935 1399.81 -330.032 1406.81C-360.771 1415.38 -393.229 1413.94 -424.617 1412.55C-433.51 1412.15 -442.707 1411.74 -451.615 1411.58C-490.098 1410.89 -537.993 1410.02 -580.878 1423.94C-619.941 1436.45 -651.519 1456.69 -682.054 1476.26C-685.723 1478.61 -689.517 1481.04 -693.227 1483.39L-693.549 1482.88C-689.842 1480.53 -686.048 1478.1 -682.378 1475.75C-651.809 1456.16 -620.197 1435.9 -581.066 1423.36C-538.087 1409.42 -490.136 1410.28 -451.608 1410.97C-442.688 1411.13 -433.489 1411.54 -424.589 1411.94C-393.248 1413.33 -360.839 1414.77 -330.193 1406.22C-273.206 1390.32 -241.039 1343.47 -219.393 1304.43C-207.616 1283.03 -197.499 1260.75 -189.132 1237.8C-180.015 1213.5 -171.957 1187.98 -164.18 1163.3C-151.653 1123.58 -138.699 1082.52 -120.751 1044.54C-106.779 1014.5 -88.6186 986.597 -66.8111 961.659C-44.9403 936.953 -19.3502 915.81 9.03658 898.991C19.3639 892.883 30.3491 887.023 41.6876 881.574C99.0284 854.092 163.236 839.835 225.329 826.047L232.266 824.506C235.995 823.678 239.742 822.85 243.506 822.021C256.042 819.257 269.004 816.398 281.797 813.367C332.251 801.455 384.666 786.426 426.215 757.374C454.502 737.752 477.273 711.191 492.344 680.238C514.265 636.203 520.553 586.318 526.635 538.075C529.518 515.195 532.501 491.538 537.13 469.433C540.963 451.122 545.76 431.773 554.857 414.307C564.479 395.111 579.975 379.486 599.091 369.706C617.185 360.246 638.339 352.855 663.767 347.106C686.222 342.032 709.139 338.829 731.299 335.733C742.785 334.127 753.635 332.611 764.325 330.862L764.422 331.455C753.726 333.203 742.877 334.726 731.382 336.327C686.322 342.622 639.727 349.136 599.374 370.234C557.089 392.131 545.38 432.98 537.725 469.55C533.102 491.631 530.254 514.225 527.243 538.15C521.158 586.439 514.86 636.378 492.894 680.505C485.709 695.142 476.827 708.884 466.431 721.446C460.021 729.154 453.027 736.359 445.513 742.995" fill="url(#paint6_linear_1_24)" fill-opacity="0.7"/>
<path d="M-254.958 1365.97C-270.862 1380.28 -289.964 1390.56 -310.661 1395.95C-342.231 1404.21 -375.518 1401.64 -407.709 1399.16C-417.625 1398.4 -427.88 1397.61 -437.783 1397.17C-484.745 1395.1 -530.403 1394.49 -572.639 1409.46C-613.364 1423.73 -645.199 1447.27 -675.985 1470.03C-679.448 1472.59 -683.028 1475.24 -686.527 1477.8L-686.914 1477.27C-683.416 1474.71 -679.841 1472.06 -676.375 1469.5C-645.55 1446.71 -613.675 1423.14 -572.858 1408.84C-553.36 1401.93 -531.424 1397.8 -505.8 1396.21C-482.375 1394.76 -458.395 1395.61 -437.759 1396.52C-427.844 1396.96 -417.586 1397.75 -407.663 1398.51C-375.526 1400.99 -342.295 1403.55 -310.831 1395.33C-254.272 1380.54 -223.253 1332.64 -202.545 1292.57C-191.461 1270.94 -181.99 1248.52 -174.21 1225.49C-165.841 1201.49 -158.46 1176.31 -151.316 1151.96C-139.526 1111.75 -127.334 1070.17 -110.132 1031.63C-96.8935 1001.42 -79.5073 973.212 -58.4754 947.809C-37.3758 922.652 -12.4479 900.974 15.3931 883.57C25.5596 877.231 36.3658 871.163 47.5267 865.525C106.631 835.734 172.916 821.202 237.019 807.158C242.09 806.048 247.289 804.928 252.317 803.837C263.507 801.417 275.076 798.915 286.474 796.308C337.123 784.761 389.751 770.365 431.514 743.452C460.078 725.176 483.92 700.411 501.099 671.173C526.335 628.933 536.538 580.52 546.401 533.697C550.852 512.577 555.453 490.737 561.352 470.112C566.111 453.472 572.026 434.27 582.032 416.959C592.462 398.323 608.081 383.118 626.99 373.191C666.879 352.123 712.368 344.04 756.36 336.226C768.16 334.13 779.311 332.146 790.311 329.929L790.44 330.573C779.428 332.795 768.279 334.774 756.474 336.871C712.538 344.674 667.099 352.745 627.299 373.769C586.311 395.418 572.558 433.322 561.982 470.285C556.09 490.888 551.49 512.717 547.043 533.825C537.166 580.698 526.955 629.17 501.661 671.502C493.505 685.305 483.877 698.184 472.946 709.912C460.721 722.935 446.919 734.383 431.862 743.991C412.67 756.355 390.11 766.876 362.89 776.153C336.285 785.221 308.148 792.021 286.608 796.932C275.206 799.539 263.634 802.043 252.444 804.462C247.417 805.55 242.218 806.674 237.148 807.782C173.086 821.825 106.845 836.346 47.8189 866.09C36.6762 871.721 25.8824 877.782 15.7388 884.107C-38.9926 918.382 -81.1426 968.105 -109.534 1031.89C-126.715 1070.38 -138.9 1111.94 -150.685 1152.13C-157.827 1176.49 -165.214 1201.68 -173.592 1225.69C-181.383 1248.75 -190.866 1271.2 -201.965 1292.85C-216.01 1320.04 -229.506 1340.03 -244.437 1355.78C-247.874 1359.4 -251.384 1362.8 -254.965 1365.96" fill="url(#paint7_linear_1_24)" fill-opacity="0.7"/>
<path d="M-237.664 1356.87C-252.927 1370.57 -271.35 1380.28 -291.284 1385.12C-323.804 1393.08 -358.041 1389.41 -391.153 1385.86C-401.974 1384.7 -413.167 1383.5 -423.942 1382.77C-470.545 1379.6 -519.777 1377.93 -564.39 1394.99C-606.777 1411.03 -638.847 1437.9 -669.861 1463.89C-673.13 1466.63 -676.511 1469.47 -679.814 1472.21L-680.269 1471.66C-676.967 1468.92 -673.582 1466.08 -670.319 1463.35C-639.259 1437.32 -607.14 1410.41 -564.642 1394.32C-519.895 1377.21 -470.574 1378.88 -423.891 1382.06C-413.102 1382.79 -401.901 1383.99 -391.074 1385.15C-358.024 1388.69 -323.854 1392.35 -291.452 1384.42C-235.506 1370.72 -206.591 1324.31 -185.68 1280.7C-175.292 1258.85 -166.468 1236.28 -159.272 1213.17C-151.644 1189.51 -144.919 1164.71 -138.417 1140.72C-127.373 1099.98 -115.953 1057.85 -99.5052 1018.72C-86.995 988.333 -70.3776 959.808 -50.1173 933.939C-29.7973 908.329 -5.53802 886.11 21.7533 868.113C31.7463 861.552 42.3872 855.273 53.3696 849.438C79.5377 835.588 109.511 823.785 145.001 813.356C176.747 804.027 208.885 796.878 241.76 789.779C248.279 788.375 254.967 786.959 261.438 785.59C271.173 783.532 281.239 781.402 291.138 779.219C338.563 768.791 392.838 755.493 436.811 729.507C465.707 712.524 490.62 689.535 509.864 662.093C538.731 621.466 553.023 574.252 566.843 528.593C572.637 509.457 578.627 489.669 585.586 470.773C592.116 453.041 598.835 435.785 609.192 419.564C620.399 401.503 636.161 386.708 654.894 376.665C694.106 355.64 738.363 346.088 781.163 336.853C793.363 334.224 804.895 331.73 816.296 328.987L816.459 329.673C805.05 332.419 793.518 334.908 781.31 337.542C738.558 346.769 694.351 356.309 655.226 377.287C612.29 400.307 597.235 441.178 586.249 471.021C579.297 489.897 573.31 509.675 567.521 528.801C553.684 574.515 539.375 621.784 510.439 662.507C501.323 675.451 490.952 687.465 479.477 698.374C466.623 710.524 452.428 721.172 437.167 730.114C393.104 756.153 338.761 769.47 291.285 779.909C281.388 782.091 271.316 784.223 261.579 786.282C255.106 787.644 248.42 789.066 241.903 790.469C172.006 805.569 109.599 820.476 53.6921 850.066C42.7259 855.887 32.1087 862.157 22.1341 868.706C-31.072 903.803 -71.7816 954.369 -98.8646 1018.99C-115.294 1058.08 -126.705 1100.18 -137.746 1140.9C-144.246 1164.9 -150.978 1189.71 -158.61 1213.39C-165.817 1236.53 -174.654 1259.12 -185.057 1281.01C-193.442 1298.5 -206.771 1324.14 -225.606 1344.91C-229.408 1349.11 -233.439 1353.1 -237.68 1356.86" fill="url(#paint8_linear_1_24)" fill-opacity="0.7"/>
<path d="M-220.108 1347.56C-234.812 1360.74 -252.645 1369.94 -271.908 1374.27C-305.458 1381.96 -340.728 1377.2 -374.838 1372.6C-386.486 1371.03 -398.533 1369.41 -410.098 1368.36C-456.179 1364.2 -509.267 1361.37 -556.138 1380.52C-600.186 1398.34 -632.473 1428.59 -663.697 1457.83C-666.785 1460.72 -669.981 1463.72 -673.102 1466.61L-673.625 1466.05C-670.504 1463.15 -667.31 1460.16 -664.222 1457.27C-632.948 1427.97 -600.606 1397.68 -556.428 1379.8C-509.398 1360.59 -456.195 1363.43 -410.029 1367.6C-398.447 1368.64 -386.392 1370.27 -374.74 1371.84C-340.698 1376.43 -305.497 1381.18 -272.082 1373.52C-216.312 1360.76 -188.592 1313.44 -168.828 1268.84C-159.139 1246.76 -150.959 1224.05 -144.344 1200.87C-137.449 1177.59 -131.375 1153.2 -125.503 1129.62C-115.214 1088.3 -104.575 1045.58 -88.8832 1005.81C-77.1003 975.248 -61.2531 946.412 -41.7693 920.082C-22.2263 894.018 1.36965 871.258 28.1198 852.666C37.943 845.878 48.4055 839.384 59.2176 833.362C85.1886 818.942 114.904 806.768 150.058 796.139C183.117 786.146 217.178 778.651 246.515 772.406C254.579 770.692 262.863 768.984 270.871 767.333C279.051 765.646 287.507 763.902 295.815 762.135C345.744 751.564 398.169 739.261 442.119 715.562C471.458 699.897 497.452 678.646 518.637 653.007C551.576 613.796 570.241 567.449 588.287 522.634C595.087 505.75 602.12 488.291 609.821 471.433C616.884 455.974 624.889 438.453 636.341 422.168C648.309 404.698 664.228 390.296 682.806 380.132C721.311 359.177 764.315 348.213 805.907 337.609C818.538 334.389 830.469 331.348 842.292 328.036L842.498 328.775C830.667 332.091 818.732 335.133 806.096 338.353C764.551 348.942 721.59 359.893 683.175 380.805C641.781 403.338 624.448 441.269 610.522 471.747C602.827 488.589 595.801 506.036 589.005 522.919C579.968 545.357 570.624 568.561 559.608 590.582C547.249 615.286 534.042 635.868 519.227 653.503C509.165 665.572 498.055 676.727 486.027 686.837C472.557 698.099 457.969 707.951 442.489 716.237C398.45 739.984 345.964 752.303 295.98 762.885C287.671 764.651 279.211 766.396 271.033 768.084C263.024 769.736 254.741 771.445 246.678 773.158C180.494 787.244 116.384 802.504 59.597 834.033C48.8054 840.043 38.3646 846.524 28.5633 853.297C-23.86 889.703 -62.0409 939.682 -88.1579 1006.09C-103.831 1045.81 -114.463 1088.51 -124.747 1129.8C-130.623 1153.39 -136.7 1177.78 -143.597 1201.08C-150.221 1224.29 -158.413 1247.04 -168.115 1269.15C-176.695 1288.51 -188.838 1313.38 -206.744 1334.02C-210.891 1338.82 -215.352 1343.34 -220.097 1347.55" fill="url(#paint9_linear_1_24)" fill-opacity="0.7"/>
<path d="M-202.256 1337.99C-216.498 1350.73 -233.838 1359.51 -252.538 1363.43C-287.177 1370.84 -323.547 1365.02 -358.71 1359.38C-371.129 1357.39 -383.97 1355.33 -396.265 1353.97C-443.915 1348.69 -498.857 1344.82 -547.895 1366.06C-593.601 1385.68 -626.085 1419.32 -657.502 1451.85C-660.427 1454.88 -663.445 1458 -666.397 1461.03L-666.986 1460.46C-664.03 1457.43 -661.016 1454.3 -658.091 1451.27C-642.615 1435.25 -626.611 1418.68 -608.754 1403.66C-588.541 1386.66 -568.74 1374.11 -548.218 1365.3C-526.408 1355.85 -501.805 1350.65 -473.007 1349.37C-446.064 1348.18 -419.046 1350.61 -396.172 1353.15C-383.859 1354.51 -371.003 1356.58 -358.576 1358.57C-323.484 1364.19 -287.196 1370.01 -252.705 1362.63C-197.011 1350.72 -170.529 1302.54 -151.968 1256.99C-142.981 1234.69 -135.446 1211.83 -129.41 1188.56C-123.237 1165.71 -117.808 1141.79 -112.554 1118.67C-103.032 1076.73 -93.1865 1033.37 -78.2504 992.904C-67.1934 962.159 -52.1163 933.013 -33.4118 906.224C-14.65 879.714 8.27755 856.415 34.4822 837.23C44.1287 830.216 54.4182 823.509 65.0627 817.296C90.8199 802.304 120.271 789.758 155.114 778.93C187.543 768.852 220.494 761.492 251.27 755.038C261.013 753 271.023 750.992 280.702 749.051C287.194 747.75 293.906 746.403 300.497 745.055C352.96 734.379 403.673 723.021 447.433 701.621C477.23 687.155 504.292 667.633 527.419 643.922C565.038 605.908 587.467 562.058 611.211 515.628C618.529 501.316 626.098 486.518 634.073 472.084L634.963 470.468C651.73 440.107 670.736 405.698 710.723 383.603C748.471 362.743 790.193 350.438 830.544 338.538C843.639 334.676 856.008 331.029 868.291 327.09L868.542 327.874C856.254 331.811 843.877 335.464 830.777 339.328C790.47 351.216 748.79 363.508 711.123 384.325C671.345 406.307 652.401 440.606 635.687 470.87L634.798 472.486C626.828 486.908 619.263 501.701 611.948 516.006C600.554 538.286 588.773 561.323 575.411 583C560.442 607.284 544.937 627.401 528.009 644.505C517.018 655.681 505.168 665.979 492.568 675.303C478.501 685.666 463.518 694.723 447.805 702.361C403.957 723.802 353.188 735.172 300.672 745.863C294.08 747.21 287.368 748.557 280.875 749.859C271.197 751.799 261.19 753.806 251.451 755.846C188.852 768.969 122.927 784.579 65.489 818.008C54.8673 824.208 44.6031 830.898 34.9796 837.896C-15.9516 875.091 -52.7336 925.89 -77.4797 993.194C-92.3937 1033.6 -102.232 1076.94 -111.748 1118.85C-117.001 1141.98 -122.434 1165.91 -128.613 1188.77C-134.657 1212.08 -142.203 1234.97 -151.203 1257.3C-163.104 1286.51 -178.26 1316.8 -202.251 1338" fill="url(#paint10_linear_1_24)" fill-opacity="0.7"/>
<path d="M-184.342 1328.39C-198.138 1340.71 -215.005 1349.07 -233.16 1352.58C-268.934 1359.71 -306.431 1352.82 -342.698 1346.16C-355.843 1343.74 -369.437 1341.24 -382.419 1339.56C-435.29 1332.68 -490.93 1329.37 -539.642 1351.58C-587.006 1373.01 -619.676 1410.06 -651.264 1445.9C-654.03 1449.04 -656.89 1452.28 -659.686 1455.43L-660.344 1454.85C-657.55 1451.7 -654.691 1448.46 -651.924 1445.32C-636.374 1427.68 -620.295 1409.44 -602.15 1392.9C-581.606 1374.18 -561.276 1360.4 -540.002 1350.77C-491.093 1328.48 -435.306 1331.78 -382.305 1338.68C-369.296 1340.37 -355.691 1342.88 -342.534 1345.29C-306.35 1351.94 -268.935 1358.82 -233.327 1351.72C-177.624 1340.61 -152.423 1291.6 -135.108 1245.12C-126.826 1222.6 -119.937 1199.6 -114.48 1176.24C-109.014 1153.87 -104.217 1130.48 -99.5768 1107.86C-90.837 1065.25 -81.7963 1021.2 -67.6331 979.994C-57.3001 949.063 -42.9922 919.607 -25.0685 892.363C-7.08804 865.407 15.1731 841.567 40.8362 821.784C50.4942 814.413 60.5288 807.549 70.8993 801.22C96.4181 785.668 125.614 772.746 160.161 761.712C193.389 751.1 227.263 743.601 256.018 737.664C267.57 735.284 279.434 732.98 290.909 730.751C295.666 729.827 300.419 728.9 305.169 727.971C360.289 717.203 409.439 706.74 452.74 687.675C483.072 674.386 511.212 656.568 536.196 634.832C579.343 597.793 606.972 553.863 636.229 507.348C643.365 496.002 650.743 484.27 658.315 472.732C659.191 471.405 660.068 470.067 660.945 468.717C679.394 440.525 700.296 408.577 738.627 387.072C775.553 366.354 815.932 352.785 854.989 339.67C868.612 335.1 881.472 330.773 894.277 326.139L894.576 326.965C881.763 331.601 868.894 335.923 855.272 340.5C816.258 353.607 775.92 367.154 739.061 387.835C700.918 409.236 680.074 441.092 661.685 469.197C660.802 470.546 659.925 471.884 659.054 473.212C651.488 484.743 644.111 496.471 636.979 507.813C622.9 530.198 608.337 553.35 592.298 574.891C574.358 598.995 556.193 618.816 536.771 635.492C511.722 657.288 483.508 675.154 453.095 688.479C409.71 707.581 360.512 718.056 305.338 728.834C300.591 729.766 295.838 730.692 291.078 731.614C279.606 733.843 267.745 736.146 256.197 738.526C197.127 750.72 129.259 766.687 71.3597 801.971C61.0155 808.284 51.0066 815.13 41.3735 822.482C-8.04692 860.45 -43.4301 912.068 -66.7982 980.279C-80.946 1021.43 -89.9784 1065.46 -98.7131 1108.04C-103.354 1130.67 -108.154 1154.07 -113.622 1176.45C-119.09 1199.84 -125.99 1222.88 -134.285 1245.43C-145.556 1275.7 -160.181 1307.04 -184.342 1328.39Z" fill="url(#paint11_linear_1_24)" fill-opacity="0.7"/>
<path d="M-166.254 1318.68C-169.651 1321.69 -173.248 1324.47 -177.022 1326.99C-188.146 1334.35 -200.655 1339.37 -213.785 1341.74C-250.572 1348.56 -289.084 1340.65 -326.326 1333.01C-340.964 1330 -354.79 1327.16 -368.582 1325.15C-420.426 1317.37 -480.308 1312.72 -531.391 1337.09C-580.409 1360.34 -613.239 1400.84 -644.995 1440.01C-647.615 1443.24 -650.324 1446.58 -652.973 1449.82L-653.701 1449.23C-651.053 1445.99 -648.344 1442.65 -645.725 1439.42C-630.107 1420.15 -613.959 1400.24 -595.534 1382.17C-574.66 1361.71 -553.813 1346.69 -531.798 1336.25C-508.45 1325.11 -482.069 1319.17 -451.141 1318.09C-421.134 1317.04 -391.185 1320.82 -368.447 1324.23C-354.629 1326.24 -340.792 1329.09 -326.139 1332.1C-288.987 1339.72 -250.564 1347.61 -213.955 1340.82C-158.165 1330.47 -134.272 1280.64 -118.255 1233.26C-110.678 1210.54 -104.432 1187.39 -99.5482 1163.94C-94.7724 1142.11 -90.5976 1119.3 -86.5548 1097.25C-78.6125 1053.91 -70.3984 1009.09 -57.0075 967.09C-34.9861 897.768 -0.900367 845.187 47.1898 806.34C56.6497 798.749 66.5127 791.674 76.7357 785.146C132.281 749.728 198.009 733.043 260.763 720.29C274.276 717.548 288.139 714.951 301.546 712.441L309.839 710.886C360.184 701.46 412.25 691.723 458.045 673.728C488.973 661.554 518.194 645.425 544.979 625.745C594.819 589.433 628.54 544.776 664.241 497.497C670.198 489.606 676.359 481.448 682.56 473.383C684.178 471.278 685.806 469.152 687.442 467.005C707.344 440.945 729.901 411.408 766.529 390.543C802.533 370.032 841.485 355.312 879.154 341.076C892.764 335.932 906.838 330.613 920.256 325.197L920.606 326.063C907.178 331.483 893.099 336.804 879.485 341.949C841.848 356.174 802.933 370.88 766.994 391.354C730.532 412.124 708.038 441.585 688.187 467.57C686.544 469.714 684.918 471.843 683.308 473.957C677.108 482.019 670.949 490.174 664.994 498.064C635.98 536.487 608.267 573.186 572.147 605.105C563.768 612.509 554.941 619.654 545.536 626.506C518.688 646.235 489.398 662.404 458.398 674.609C412.52 692.636 360.413 702.386 310.021 711.816L301.727 713.371C288.322 715.881 274.466 718.478 260.959 721.218C198.293 733.954 132.664 750.61 77.248 785.946C67.0549 792.455 57.2207 799.509 47.7886 807.079C-0.153957 845.799 -34.1449 898.237 -56.1089 967.379C-69.481 1009.32 -77.69 1054.11 -85.6272 1097.42C-89.6705 1119.49 -93.8516 1142.3 -98.6256 1164.14C-103.516 1187.63 -109.77 1210.81 -117.357 1233.57C-124.266 1253.99 -134.238 1280.15 -150.232 1301.29C-154.975 1307.61 -160.336 1313.43 -166.236 1318.69" fill="url(#paint12_linear_1_24)" fill-opacity="0.7"/>
<path d="M-148.019 1308.85C-161.081 1320.45 -177.174 1328.1 -194.417 1330.9C-232.414 1337.44 -272.143 1328.48 -310.561 1319.81C-325.878 1316.36 -340.347 1313.1 -354.749 1310.75C-408.294 1301.84 -470.176 1296.28 -523.147 1322.62C-573.818 1347.69 -606.804 1391.66 -638.705 1434.17C-641.189 1437.48 -643.753 1440.9 -646.269 1444.23L-647.061 1443.63C-644.55 1440.31 -641.982 1436.89 -639.497 1433.58C-623.817 1412.68 -607.602 1391.07 -588.906 1371.48C-567.715 1349.27 -546.35 1333 -523.587 1321.74C-499.493 1309.75 -472.222 1303.45 -440.214 1302.47C-408.928 1301.51 -378.019 1305.87 -354.587 1309.77C-340.156 1312.12 -325.674 1315.39 -310.342 1318.85C-272.018 1327.49 -232.389 1336.43 -194.584 1329.92C-138.646 1320.29 -116.089 1269.66 -101.403 1221.41C-94.5338 1198.47 -88.9315 1175.18 -84.621 1151.63C-80.5252 1130.41 -76.9502 1108.26 -73.4907 1086.84C-66.3648 1042.7 -58.9952 997.056 -46.3937 954.177C-25.797 883.901 6.88962 830.485 53.542 790.896C62.8025 783.084 72.4939 775.798 82.5706 769.072C107.581 752.398 136.258 738.732 170.252 727.276C197.085 718.236 226.464 710.723 265.51 702.914C281.158 699.79 297.189 696.913 312.686 694.127L321.358 692.575C369.433 683.991 419.148 675.114 463.354 659.779C494.988 648.78 525.307 634.315 553.759 616.648C611.885 580.825 652.967 534.581 696.474 485.634C699.899 481.776 703.342 477.905 706.801 474.018C709.378 471.118 712.033 468.117 714.596 465.209C735.692 441.271 759.604 414.141 794.424 394.001C829.342 373.804 866.707 358.076 902.841 342.866C917.193 336.822 932.037 330.576 946.225 324.238L946.629 325.142C932.43 331.48 917.586 337.736 903.223 343.775C867.117 358.973 829.781 374.688 794.918 394.854C760.241 414.916 736.384 441.98 715.339 465.859C712.775 468.768 710.125 471.776 707.541 474.673C704.079 478.555 700.637 482.427 697.215 486.287C669.922 517.001 643.574 546.652 613.37 573.343C594.981 589.731 575.211 604.501 554.28 617.486C525.767 635.194 495.383 649.693 463.682 660.718C419.4 676.078 369.649 684.963 321.535 693.554L312.863 695.105C297.368 697.889 281.344 700.758 265.707 703.89C206.67 715.697 138.81 732.773 83.1219 769.9C73.0766 776.606 63.4153 783.87 54.1834 791.657C7.68219 831.117 -24.9062 884.369 -45.442 954.461C-58.0281 997.27 -65.3961 1042.89 -72.5179 1086.99C-75.9768 1108.42 -79.5546 1130.58 -83.6512 1151.81C-87.9683 1175.4 -93.579 1198.73 -100.458 1221.7C-110.277 1253.96 -123.609 1287.28 -148.021 1308.85" fill="url(#paint13_linear_1_24)" fill-opacity="0.7"/>
<path d="M-129.64 1298.94C-142.403 1310.24 -158.178 1317.57 -175.041 1320.05C-214.275 1326.3 -255.235 1316.29 -294.849 1306.61C-310.824 1302.71 -325.914 1299.02 -340.909 1296.34C-396.174 1286.29 -460.061 1279.83 -514.894 1308.15C-567.217 1335.05 -600.344 1382.5 -632.383 1428.38C-634.739 1431.75 -637.176 1435.24 -639.559 1438.63L-640.415 1438.03C-638.033 1434.64 -635.597 1431.15 -633.241 1427.78C-617.505 1405.24 -601.232 1381.94 -582.264 1360.79C-560.759 1336.83 -538.878 1319.3 -515.371 1307.21C-460.262 1278.75 -396.159 1285.22 -340.722 1295.3C-325.688 1297.99 -310.597 1301.69 -294.604 1305.59C-255.09 1315.24 -214.229 1325.23 -175.209 1319.01C-119.066 1310.06 -97.8719 1258.65 -84.5487 1209.54C-78.3894 1186.4 -73.4309 1162.96 -69.6931 1139.31C-66.2518 1118.77 -63.2607 1097.36 -60.3682 1076.65C-54.0839 1031.64 -47.5803 985.091 -35.7677 941.27C-16.626 870.014 14.6676 815.775 59.9013 775.454C68.9627 767.424 78.4829 759.926 88.4138 752.999C113.155 735.767 141.578 721.721 175.307 710.06C202.027 700.823 232.201 693.032 270.267 685.542C286.594 682.334 303.389 679.422 319.192 676.715C324.505 675.808 329.821 674.907 335.138 674.012C380.067 666.42 426.525 658.57 468.681 645.838C501.099 636.033 532.529 623.219 562.562 607.563C631.104 572.04 681.924 522.543 731.07 474.671C734.998 470.845 738.853 467.018 742.929 462.97C765.873 440.186 789.598 416.626 822.339 397.482C855.825 377.727 891.317 361.254 925.64 345.324C941.038 338.178 956.959 330.787 972.22 323.31L972.68 324.25C957.408 331.729 941.484 339.124 926.081 346.273C891.781 362.193 856.313 378.655 822.869 398.385C790.243 417.464 766.565 440.976 743.667 463.714C739.585 467.767 735.729 471.598 731.798 475.427C682.596 523.349 631.72 572.905 563.041 608.497C532.951 624.182 501.461 637.021 468.982 646.845C426.765 659.6 380.275 667.456 335.313 675.053C329.998 675.951 324.684 676.852 319.369 677.756C303.573 680.461 286.782 683.375 270.47 686.578C211.993 698.084 144.707 715.076 89.0134 753.868C79.1158 760.77 69.6284 768.242 60.5993 776.246C15.5228 816.426 -15.6621 870.494 -34.7552 941.552C-46.5507 985.31 -53.0467 1031.82 -59.3292 1076.8C-62.2232 1097.52 -65.2189 1118.94 -68.6614 1139.5C-72.4052 1163.18 -77.3713 1186.66 -83.5399 1209.83C-92.5492 1243.04 -105.149 1277.29 -129.645 1298.94" fill="url(#paint14_linear_1_24)" fill-opacity="0.7"/>
<path d="M998.72 323.338C981.921 332.316 964.456 341.207 947.564 349.807C915.53 366.115 882.405 382.979 850.812 401.901C820.516 419.903 796.455 440.949 773.188 461.303C767.293 466.46 761.72 471.335 756.043 476.165C729.519 498.741 700.658 522.638 669.357 544.454C638.783 566.056 606.094 584.498 571.793 599.494C540.21 613.177 507.605 624.37 474.277 632.969C434.757 643.186 392.059 649.942 350.773 656.471C342.014 657.856 332.955 659.288 324.046 660.738C308.583 663.257 291.967 666.035 275.227 669.27C220.644 679.833 150.819 697.172 94.9 737.839C85.1481 744.937 75.8342 752.618 67.0092 760.84C23.3278 801.723 -6.46309 856.617 -24.0732 928.649C-35.0591 973.44 -40.6613 1020.94 -46.0788 1066.88C-48.4279 1086.8 -50.8564 1107.4 -53.6705 1127.18C-57.4661 1154.34 -61.6977 1177.5 -66.6239 1197.96C-71.7218 1219.3 -79.4094 1246.61 -93.7387 1268.47C-100.359 1278.85 -108.916 1287.87 -118.943 1295.02C-129.913 1302.54 -142.489 1307.41 -155.67 1309.22C-196.148 1315.16 -238.364 1304.11 -279.191 1293.42C-295.807 1289.07 -311.503 1284.96 -327.071 1281.94C-384.065 1270.75 -449.968 1263.4 -506.643 1293.68C-560.617 1322.42 -593.875 1373.36 -626.034 1422.63C-628.316 1426.12 -630.586 1429.59 -632.845 1433.04L-633.766 1432.43C-631.505 1428.99 -629.235 1425.52 -626.956 1422.02C-611.167 1397.84 -594.841 1372.84 -575.614 1350.15C-553.802 1324.41 -531.41 1305.62 -507.158 1292.71C-481.577 1279.04 -452.522 1272.02 -418.345 1271.24C-384.169 1270.47 -349.763 1276.36 -326.86 1280.86C-311.264 1283.88 -295.547 1288 -278.913 1292.35C-238.193 1303.02 -196.086 1314.04 -155.832 1308.13C-99.4239 1299.84 -79.623 1247.66 -67.6918 1197.71C-62.7798 1177.27 -58.5512 1154.15 -54.7589 1127.02C-51.9467 1107.26 -49.5198 1086.66 -47.1721 1066.75C-41.7514 1020.78 -36.146 973.241 -25.1429 928.384C-16.6611 893.698 -5.71652 863.79 8.31958 836.952C15.708 822.772 24.2148 809.203 33.7592 796.374C43.5033 783.329 54.3783 771.168 66.2582 760.033C75.1177 751.782 84.4675 744.074 94.2565 736.951C118.717 719.162 146.883 704.741 180.362 692.867C207.272 683.321 237.351 675.48 275.024 668.19C291.776 664.953 308.403 662.173 323.874 659.651C332.784 658.209 341.839 656.774 350.602 655.385C391.863 648.86 434.53 642.113 474.003 631.906C507.278 623.322 539.83 612.149 571.362 598.489C644.928 566.717 702.584 520.227 755.336 475.335C761.011 470.505 766.577 465.636 772.47 460.483C795.775 440.096 819.869 419.012 850.254 400.965C881.882 382.028 915.024 365.157 947.074 348.839C963.96 340.244 981.416 331.355 998.21 322.38L998.72 323.338Z" fill="url(#paint15_linear_1_24)" fill-opacity="0.7"/>
<path d="M1024.76 322.427C1005.24 333.743 985.016 344.962 965.454 355.811C936.856 371.671 907.286 388.071 878.749 405.411C851.518 421.856 828.023 440.089 805.301 457.722C796.702 464.395 788.58 470.699 780.281 476.896C743.841 504.117 714.655 523.861 685.655 540.925C652.289 560.781 617.088 577.378 580.54 590.484C547.534 602.19 513.804 611.742 479.562 619.081C443.611 626.855 405.488 632.407 368.62 637.776C355.541 639.68 342.016 641.65 328.722 643.698C315.352 645.762 297.734 648.567 279.987 651.94C225.832 662.243 156.523 679.494 100.789 721.79C91.1827 729.085 82.0427 736.974 73.4231 745.413C31.1195 786.992 2.72115 842.702 -13.3894 915.724C-23.5522 961.651 -28.225 1010.25 -32.7382 1057.24C-34.5672 1076.26 -36.4593 1095.93 -38.6781 1114.85C-41.8446 1142.36 -45.449 1165.67 -49.7002 1186.08C-54.1754 1207.7 -61.0863 1235.36 -74.893 1257.52C-81.2424 1268.02 -89.6354 1277.14 -99.575 1284.35C-110.497 1291.93 -123.099 1296.74 -136.294 1298.37C-178.032 1304 -221.518 1291.91 -263.572 1280.21C-280.814 1275.42 -297.101 1270.89 -313.23 1267.53C-371.961 1255.21 -439.887 1246.95 -498.389 1279.2C-554.013 1309.79 -588.893 1366.7 -619.669 1416.9C-621.835 1420.44 -623.99 1423.95 -626.132 1427.43L-627.119 1426.83C-624.973 1423.34 -622.818 1419.83 -620.654 1416.3C-604.818 1390.46 -588.444 1363.75 -568.956 1339.5C-546.843 1311.99 -523.942 1291.93 -498.946 1278.19C-472.622 1263.68 -442.683 1256.3 -407.414 1255.63C-371.99 1254.95 -336.56 1261.45 -312.992 1266.4C-296.827 1269.76 -280.523 1274.3 -263.264 1279.09C-221.323 1290.75 -177.955 1302.82 -136.455 1297.22C-79.7335 1289.56 -61.3465 1236.63 -50.8382 1185.85C-46.5946 1165.47 -42.9955 1142.2 -39.8369 1114.72C-37.6234 1095.82 -35.7375 1076.16 -33.9042 1057.14C-29.382 1010.11 -24.7048 961.481 -14.5279 915.485C-6.7888 880.411 3.41054 850.193 16.6571 823.103C23.6666 808.705 31.8149 794.89 41.0242 781.79C50.4227 768.473 60.9924 756.023 72.6072 744.588C81.2618 736.116 90.4386 728.194 100.084 720.87C124.257 702.525 152.165 687.731 185.403 675.639C212.456 665.798 242.442 657.906 279.768 650.804C297.532 647.428 315.168 644.626 328.545 642.556C341.846 640.508 355.371 638.537 368.454 636.632C405.303 631.265 443.406 625.717 479.316 617.951C513.51 610.623 547.192 601.084 580.15 589.395C659.877 561.072 723.119 518.143 779.586 475.97C787.875 469.78 795.994 463.479 804.588 456.81C827.337 439.156 850.863 420.897 878.147 404.422C906.702 387.073 936.285 370.666 964.89 354.8C984.446 343.951 1004.67 332.737 1024.18 321.428L1024.76 322.427Z" fill="url(#paint16_linear_1_24)" fill-opacity="0.7"/>
<path d="M1050.81 321.515C1024.6 337.92 997.524 354.14 971.336 369.827C950.097 382.55 928.133 395.706 906.692 408.926C884.266 422.693 863.393 437.201 843.207 451.23C829.923 460.462 817.373 469.187 804.522 477.632C767.597 501.905 734.043 521.448 701.955 537.392C665.83 555.508 628.117 570.265 589.29 581.478C554.925 591.241 520.064 599.159 484.854 605.201C453.765 610.637 421.339 614.885 389.984 618.991C371.433 621.418 352.253 623.928 333.395 626.672C314.36 629.452 298.899 631.979 284.741 634.625C230.971 644.681 162.14 661.843 106.674 705.751C97.211 713.243 88.2447 721.341 79.8309 729.995C38.8717 772.26 11.8723 828.787 -2.71064 902.808C-12.0278 949.988 -15.7312 999.792 -19.3176 1047.95C-20.6579 1065.96 -22.0417 1084.59 -23.6938 1102.52C-26.258 1130.81 -29.1473 1153.59 -32.7886 1174.21C-36.6338 1196.09 -42.7565 1224.09 -56.0638 1246.55C-62.1421 1257.17 -70.371 1266.4 -80.2235 1273.66C-91.0986 1281.3 -103.728 1286.07 -116.938 1287.52C-159.949 1292.82 -204.716 1279.69 -248.009 1267C-265.865 1261.76 -282.735 1256.81 -299.408 1253.12C-356.347 1240.44 -429.484 1230.3 -490.152 1264.72C-547.425 1297.16 -582.425 1357.76 -613.297 1411.21C-615.356 1414.77 -617.405 1418.31 -619.444 1421.83L-620.494 1421.22C-618.454 1417.71 -616.406 1414.17 -614.35 1410.6C-598.472 1383.11 -582.056 1354.68 -562.31 1328.87C-539.899 1299.57 -516.493 1278.25 -490.753 1263.67C-476.364 1255.56 -460.902 1249.53 -444.826 1245.76C-428.974 1242.1 -412.771 1240.16 -396.502 1240C-368.593 1239.57 -337.658 1243.36 -299.147 1251.93C-282.436 1255.63 -265.546 1260.59 -247.669 1265.83C-204.495 1278.49 -159.851 1291.59 -117.089 1286.31C-60.0248 1279.28 -43.0559 1225.59 -33.9907 1174C-30.3558 1153.41 -27.4707 1130.66 -24.9097 1102.41C-23.259 1084.49 -21.8746 1065.87 -20.5347 1047.86C-16.9439 999.669 -13.2392 949.826 -3.90418 902.57C3.08385 867.102 12.5402 836.573 25.0044 809.239C31.6356 794.625 39.4252 780.565 48.2987 767.193C57.3503 753.612 67.6123 740.878 78.9591 729.147C87.4094 720.455 96.4149 712.321 105.919 704.796C129.796 685.898 157.447 670.727 190.454 658.416C217.24 648.427 248.01 640.251 284.522 633.424C298.697 630.776 314.177 628.242 333.224 625.464C352.088 622.716 371.274 620.204 389.824 617.773C421.163 613.671 453.57 609.43 484.639 603.994C519.807 597.959 554.627 590.05 588.95 580.299C659.065 560.193 725.344 528.213 803.85 476.606C816.692 468.162 829.232 459.448 842.508 450.221C862.708 436.182 883.596 421.663 906.05 407.88C927.496 394.656 949.462 381.498 970.706 368.774C996.888 353.089 1023.96 336.872 1050.16 320.474L1050.81 321.515Z" fill="url(#paint17_linear_1_24)" fill-opacity="0.7"/>
<path d="M1076.85 320.601C1035.82 348.227 990.625 377.409 934.634 412.439C922.845 419.796 911.12 427.266 899.781 434.489C875.456 449.982 852.481 464.616 828.762 478.366C747.316 525.578 674.002 555.48 598.039 572.47C566.847 579.543 532.562 585.532 490.144 591.321C466.326 594.493 441.865 597.261 418.202 599.937C391.932 602.909 364.766 605.98 338.081 609.648C319.47 612.208 304.036 614.643 289.509 617.31C240.26 626.357 168.338 643.705 112.572 689.714C103.253 697.403 94.4605 705.71 86.2547 714.578C46.0628 758.116 21.1922 813.824 7.97956 889.895C-0.466142 938.462 -3.15738 989.607 -5.76116 1039.07C-6.6487 1055.94 -7.56725 1073.38 -8.69713 1090.19C-10.6037 1118.91 -12.8806 1141.83 -15.8637 1162.34C-19.0789 1184.47 -24.4031 1212.81 -37.2148 1235.59C-43.0205 1246.32 -51.085 1255.67 -60.8522 1262.98C-71.6798 1270.68 -84.3352 1275.4 -97.557 1276.68C-141.85 1281.64 -187.908 1267.48 -232.449 1253.79C-250.911 1248.11 -268.345 1242.75 -285.561 1238.72C-344.148 1224.97 -419.407 1213.85 -481.891 1250.25C-540.81 1284.55 -575.913 1348.84 -606.883 1405.56C-608.837 1409.14 -610.784 1412.7 -612.723 1416.24L-613.837 1415.62C-611.898 1412.09 -609.952 1408.53 -607.998 1404.95C-592.08 1375.79 -575.619 1345.65 -555.626 1318.27C-532.922 1287.18 -509.012 1264.57 -482.529 1249.15C-467.786 1240.62 -451.882 1234.28 -435.315 1230.32C-419.003 1226.49 -402.312 1224.5 -385.557 1224.39C-356.709 1224.03 -324.843 1228.19 -285.27 1237.48C-268.007 1241.52 -250.556 1246.89 -232.075 1252.57C-187.659 1266.23 -141.727 1280.35 -97.6972 1275.42C-71.3928 1272.47 -51.9757 1259.23 -38.3214 1234.96C-25.6136 1212.37 -20.3154 1184.18 -17.1199 1162.15C-14.1452 1141.68 -11.8682 1118.79 -9.96382 1090.11C-8.838 1073.3 -7.91745 1055.86 -7.03017 1039C-4.42409 989.5 -1.73139 938.317 6.72781 889.673C12.9573 853.807 21.6674 822.966 33.359 795.392C46.7563 763.793 63.7535 737.076 85.3202 713.713C93.5647 704.802 102.399 696.456 111.763 688.73C135.338 669.279 162.731 653.734 195.505 641.206C222.363 630.94 253.038 622.713 289.278 616.056C303.824 613.384 319.276 610.946 337.907 608.385C364.602 604.713 391.784 601.647 418.058 598.67C441.711 595.995 466.169 593.229 489.973 590.059C532.351 584.277 566.601 578.293 597.759 571.228C673.594 554.268 746.793 524.41 828.124 477.264C851.821 463.527 874.782 448.897 899.099 433.415C910.441 426.191 922.169 418.719 933.964 411.356C989.946 376.333 1035.12 347.161 1076.15 319.542L1076.85 320.601Z" fill="url(#paint18_linear_1_24)" fill-opacity="0.7"/>
<path d="M1102.89 319.685C1071.41 342.398 1029.83 372.042 987.428 399.893C944.896 427.832 906.035 451.071 868.608 470.953C828.095 492.701 786.086 511.538 742.9 527.324C698.712 543.46 653.151 555.554 606.777 563.457C555.46 572.159 502.834 576.865 451.94 581.417C416.1 584.622 379.041 587.937 342.75 592.618C267.11 602.376 181.311 619.637 118.457 673.671C16.2089 761.571 11.9981 898.357 7.92182 1030.64C6.62311 1072.79 5.39723 1112.6 1.04843 1150.46C-1.52342 1172.84 -6.05452 1201.5 -18.3759 1224.61C-23.9082 1235.45 -31.8078 1244.91 -41.4901 1252.29C-52.2705 1260.04 -64.9536 1264.73 -78.1866 1265.84C-123.768 1270.45 -171.127 1255.25 -216.928 1240.56C-235.982 1234.45 -253.983 1228.68 -271.725 1224.31C-331.96 1209.49 -409.348 1197.4 -473.639 1235.78C-534.206 1271.93 -569.407 1339.93 -600.464 1399.93C-602.323 1403.52 -604.172 1407.09 -606.012 1410.64L-607.192 1410.02C-605.346 1406.47 -603.498 1402.9 -601.647 1399.31C-585.693 1368.49 -569.193 1336.62 -548.953 1307.67C-525.961 1274.77 -501.55 1250.89 -474.325 1234.63C-459.228 1225.68 -442.882 1219.02 -425.823 1214.88C-409.051 1210.88 -391.874 1208.83 -374.632 1208.77C-344.85 1208.49 -312.053 1213.02 -271.413 1223.02C-253.623 1227.4 -235.605 1233.18 -216.529 1239.29C-170.859 1253.94 -123.633 1269.09 -78.3263 1264.51C-51.8869 1261.84 -32.6603 1248.58 -19.551 1223.98C-7.33539 1201.07 -2.83171 1172.57 -0.268478 1150.31C4.07358 1112.51 5.30013 1072.72 6.59707 1030.6C8.60581 965.382 10.6877 897.942 25.084 835.842C32.8658 802.272 43.4622 773.381 57.4777 747.52C64.9834 733.633 73.6901 720.429 83.4981 708.06C93.7286 695.219 105.146 683.371 117.599 672.672C146.132 648.143 180.873 629.522 223.799 615.755C265.943 602.236 309.42 595.591 342.589 591.312C378.906 586.627 415.976 583.308 451.832 580.104C502.7 575.554 555.301 570.85 606.566 562.157C797.278 529.82 949.799 428.505 1102.12 318.618L1102.89 319.685Z" fill="url(#paint19_linear_1_24)" fill-opacity="0.7"/>
</g>
</g>
<defs>
<linearGradient id="paint0_linear_1_24" x1="-134.594" y1="845.234" x2="96.0312" y2="1106.22" gradientUnits="userSpaceOnUse">
<stop stop-color="#FEDC00"/>
<stop offset="1" stop-color="#373737"/>
</linearGradient>
<linearGradient id="paint1_linear_1_24" x1="-109.836" y1="851.504" x2="101.94" y2="1091.16" gradientUnits="userSpaceOnUse">
<stop stop-color="#FEDC00"/>
<stop offset="1" stop-color="#373737"/>
</linearGradient>
<linearGradient id="paint2_linear_1_24" x1="-85.0808" y1="857.726" x2="108.012" y2="1076.24" gradientUnits="userSpaceOnUse">
<stop stop-color="#FEDC00"/>
<stop offset="1" stop-color="#373737"/>
</linearGradient>
<linearGradient id="paint3_linear_1_24" x1="-60.3591" y1="863.946" x2="114.194" y2="1061.48" gradientUnits="userSpaceOnUse">
<stop stop-color="#FEDC00"/>
<stop offset="1" stop-color="#373737"/>
</linearGradient>
<linearGradient id="paint4_linear_1_24" x1="-35.6202" y1="870.18" x2="120.54" y2="1046.9" gradientUnits="userSpaceOnUse">
<stop stop-color="#FEDC00"/>
<stop offset="1" stop-color="#373737"/>
</linearGradient>
<linearGradient id="paint5_linear_1_24" x1="-10.8537" y1="876.41" x2="127.082" y2="1032.5" gradientUnits="userSpaceOnUse">
<stop stop-color="#FEDC00"/>
<stop offset="1" stop-color="#373737"/>
</linearGradient>
<linearGradient id="paint6_linear_1_24" x1="1.54457" y1="868.646" x2="133.872" y2="1018.39" gradientUnits="userSpaceOnUse">
<stop stop-color="#FEDC00"/>
<stop offset="1" stop-color="#373737"/>
</linearGradient>
<linearGradient id="paint7_linear_1_24" x1="12.4636" y1="859.245" x2="146.647" y2="1011.09" gradientUnits="userSpaceOnUse">
<stop stop-color="#FEDC00"/>
<stop offset="1" stop-color="#373737"/>
</linearGradient>
<linearGradient id="paint8_linear_1_24" x1="23.395" y1="849.849" x2="160.513" y2="1005.02" gradientUnits="userSpaceOnUse">
<stop stop-color="#FEDC00"/>
<stop offset="1" stop-color="#373737"/>
</linearGradient>
<linearGradient id="paint9_linear_1_24" x1="33.6416" y1="839.679" x2="174.39" y2="998.955" gradientUnits="userSpaceOnUse">
<stop stop-color="#FEDC00"/>
<stop offset="1" stop-color="#373737"/>
</linearGradient>
<linearGradient id="paint10_linear_1_24" x1="42.5258" y1="827.996" x2="188.261" y2="992.914" gradientUnits="userSpaceOnUse">
<stop stop-color="#FEDC00"/>
<stop offset="1" stop-color="#373737"/>
</linearGradient>
<linearGradient id="paint11_linear_1_24" x1="49.0497" y1="813.635" x2="202.137" y2="986.873" gradientUnits="userSpaceOnUse">
<stop stop-color="#FEDC00"/>
<stop offset="1" stop-color="#373737"/>
</linearGradient>
<linearGradient id="paint12_linear_1_24" x1="55.2093" y1="798.871" x2="216.043" y2="980.876" gradientUnits="userSpaceOnUse">
<stop stop-color="#FEDC00"/>
<stop offset="1" stop-color="#373737"/>
</linearGradient>
<linearGradient id="paint13_linear_1_24" x1="61.2663" y1="783.994" x2="229.935" y2="974.865" gradientUnits="userSpaceOnUse">
<stop stop-color="#FEDC00"/>
<stop offset="1" stop-color="#373737"/>
</linearGradient>
<linearGradient id="paint14_linear_1_24" x1="67.215" y1="768.991" x2="243.859" y2="968.888" gradientUnits="userSpaceOnUse">
<stop stop-color="#FEDC00"/>
<stop offset="1" stop-color="#373737"/>
</linearGradient>
<linearGradient id="paint15_linear_1_24" x1="73.0651" y1="753.881" x2="265.312" y2="971.434" gradientUnits="userSpaceOnUse">
<stop stop-color="#FEDC00"/>
<stop offset="1" stop-color="#373737"/>
</linearGradient>
<linearGradient id="paint16_linear_1_24" x1="78.788" y1="738.622" x2="287.063" y2="974.314" gradientUnits="userSpaceOnUse">
<stop stop-color="#FEDC00"/>
<stop offset="1" stop-color="#373737"/>
</linearGradient>
<linearGradient id="paint17_linear_1_24" x1="84.4105" y1="723.257" x2="308.813" y2="977.199" gradientUnits="userSpaceOnUse">
<stop stop-color="#FEDC00"/>
<stop offset="1" stop-color="#373737"/>
</linearGradient>
<linearGradient id="paint18_linear_1_24" x1="89.9536" y1="707.795" x2="330.564" y2="980.078" gradientUnits="userSpaceOnUse">
<stop stop-color="#FEDC00"/>
<stop offset="1" stop-color="#373737"/>
</linearGradient>
<linearGradient id="paint19_linear_1_24" x1="95.4096" y1="692.247" x2="352.307" y2="982.961" gradientUnits="userSpaceOnUse">
<stop stop-color="#FEDC00"/>
<stop offset="1" stop-color="#373737"/>
</linearGradient>
</defs>
</svg>
