<svg width="74" height="74" viewBox="0 0 74 74" fill="none" xmlns="http://www.w3.org/2000/svg">
<path d="M22.3233 6.16675H16.465C9.71249 6.16675 6.16666 9.71258 6.16666 16.4342V22.2926C6.16666 29.0142 9.71249 32.5601 16.4342 32.5601H22.2925C29.0142 32.5601 32.56 29.0142 32.56 22.2926V16.4342C32.5908 9.71258 29.045 6.16675 22.3233 6.16675Z" fill="#0B0B0B"/>
<path opacity="0.4" d="M57.5658 6.16675H51.7075C44.9858 6.16675 41.44 9.71258 41.44 16.4342V22.2926C41.44 29.0142 44.9858 32.5601 51.7075 32.5601H57.5658C64.2875 32.5601 67.8333 29.0142 67.8333 22.2926V16.4342C67.8333 9.71258 64.2875 6.16675 57.5658 6.16675Z" fill="#0B0B0B"/>
<path d="M57.5658 41.4092H51.7075C44.9858 41.4092 41.44 44.955 41.44 51.6767V57.535C41.44 64.2567 44.9858 67.8025 51.7075 67.8025H57.5658C64.2875 67.8025 67.8333 64.2567 67.8333 57.535V51.6767C67.8333 44.955 64.2875 41.4092 57.5658 41.4092Z" fill="#0B0B0B"/>
<path opacity="0.4" d="M22.3233 41.4092H16.465C9.71249 41.4092 6.16666 44.955 6.16666 51.6767V57.535C6.16666 64.2875 9.71249 67.8333 16.4342 67.8333H22.2925C29.0142 67.8333 32.56 64.2875 32.56 57.5658V51.7075C32.5908 44.955 29.045 41.4092 22.3233 41.4092Z" fill="#0B0B0B"/>
</svg>
