<svg width="74" height="74" viewBox="0 0 74 74" fill="none" xmlns="http://www.w3.org/2000/svg">
<path opacity="0.4" d="M6.16666 39.7133V34.2867C6.16666 31.08 8.78749 28.4283 12.025 28.4283C17.6058 28.4283 19.8875 24.4817 17.0817 19.6408C15.4783 16.8658 16.4342 13.2583 19.24 11.655L24.5742 8.60251C27.01 7.15334 30.155 8.01667 31.6042 10.4525L31.9433 11.0383C34.7183 15.8792 39.2817 15.8792 42.0875 11.0383L42.4267 10.4525C43.8758 8.01667 47.0208 7.15334 49.4567 8.60251L54.7908 11.655C57.5967 13.2583 58.5525 16.8658 56.9492 19.6408C54.1433 24.4817 56.425 28.4283 62.0058 28.4283C65.2125 28.4283 67.8642 31.0492 67.8642 34.2867V39.7133C67.8642 42.92 65.2433 45.5717 62.0058 45.5717C56.425 45.5717 54.1433 49.5183 56.9492 54.3592C58.5525 57.165 57.5967 60.7417 54.7908 62.345L49.4567 65.3975C47.0208 66.8467 43.8758 65.9833 42.4267 63.5475L42.0875 62.9617C39.3125 58.1208 34.7492 58.1208 31.9433 62.9617L31.6042 63.5475C30.155 65.9833 27.01 66.8467 24.5742 65.3975L19.24 62.345C16.4342 60.7417 15.4783 57.1342 17.0817 54.3592C19.8875 49.5183 17.6058 45.5717 12.025 45.5717C8.78749 45.5717 6.16666 42.92 6.16666 39.7133Z" fill="#0B0B0B"/>
<path d="M37 47.0209C42.5344 47.0209 47.0208 42.5344 47.0208 37.0001C47.0208 31.4657 42.5344 26.9792 37 26.9792C31.4657 26.9792 26.9792 31.4657 26.9792 37.0001C26.9792 42.5344 31.4657 47.0209 37 47.0209Z" fill="#0B0B0B"/>
</svg>
