<svg width="101" height="110" viewBox="0 0 101 110" fill="none" xmlns="http://www.w3.org/2000/svg">
<g clip-path="url(#clip0_1_24166)">
<path d="M99.0009 44.2566C99.0009 37.7197 90.8146 31.5246 78.2632 27.6827C81.1597 14.8902 79.8725 4.71239 74.2 1.45389C72.8925 0.689544 71.3642 0.327478 69.6946 0.327478V4.81297C70.6198 4.81297 71.3642 4.994 71.9875 5.33592C74.7231 6.90481 75.91 12.8787 74.9843 20.5623C74.7635 22.453 74.4014 24.4443 73.9589 26.4759C70.0162 25.5104 65.7119 24.7662 61.1863 24.2834C58.4709 20.5623 55.6549 17.1832 52.8187 14.2264C59.3759 8.13179 65.531 4.79282 69.7148 4.79282V0.307373C64.1831 0.307373 56.9421 4.24977 49.6208 11.0886C42.2989 4.28997 35.0581 0.387838 29.5268 0.387838V4.87328C33.6903 4.87328 39.8652 8.19215 46.4225 14.2465C43.6065 17.2033 40.7904 20.5623 38.1152 24.2834C33.5693 24.7662 29.265 25.5104 25.3227 26.496C24.86 24.4846 24.5181 22.5335 24.2765 20.6629C23.3316 12.9793 24.4979 7.00538 27.2135 5.41638C27.8168 5.05432 28.6011 4.89343 29.5268 4.89343V0.407941C27.837 0.407941 26.3082 0.770009 24.981 1.53435C19.3286 4.79282 18.0616 14.9505 20.9779 27.7029C8.46703 31.5648 0.320801 37.7399 0.320801 44.2566C0.320801 50.7941 8.50724 56.9893 21.0585 60.8308C18.1619 73.6237 19.4492 83.8011 25.1217 87.0597C26.4292 87.8238 27.9576 88.1859 29.6473 88.1859C35.1786 88.1859 42.4199 84.2437 49.7413 77.4048C57.0627 84.2037 64.3041 88.1059 69.8354 88.1059C71.5247 88.1059 73.0535 87.7438 74.3812 86.9791C80.033 83.7206 81.3005 73.5629 78.3838 60.811C90.8546 56.969 99.0009 50.7738 99.0009 44.2566ZM72.8124 30.8407C72.0681 33.4355 71.1428 36.1103 70.0967 38.7856C69.2723 37.1768 68.4074 35.5676 67.4619 33.9582C66.5368 32.3493 65.5508 30.7803 64.5654 29.2517C67.4215 29.6741 70.1772 30.197 72.8124 30.8407ZM63.5998 52.2622C62.031 54.9778 60.4221 57.5524 58.7525 59.9461C55.7553 60.2073 52.7184 60.3481 49.6609 60.3481C46.6235 60.3481 43.5862 60.2073 40.6097 59.9659C38.9401 57.5722 37.3105 55.018 35.7417 52.3224C34.2129 49.6877 32.8254 47.0124 31.5579 44.3174C32.8052 41.6218 34.2129 38.9264 35.7219 36.2917C37.2907 33.5763 38.8995 31.0016 40.5691 28.608C43.5665 28.3465 46.6033 28.2057 49.6609 28.2057C52.6981 28.2057 55.7355 28.3465 58.7121 28.5879C60.3816 30.9815 62.0112 33.5359 63.58 36.2313C65.1087 38.8661 66.4962 41.5414 67.7637 44.2369C66.4962 46.9319 65.1087 49.6274 63.5998 52.2622ZM70.0967 49.6477C71.1526 52.2689 72.079 54.9404 72.8727 57.6527C70.2375 58.2963 67.4619 58.8396 64.5857 59.262C65.5711 57.7134 66.5566 56.1243 67.4821 54.4948C68.4074 52.8859 69.2723 51.2565 70.0967 49.6477ZM49.7009 71.1094C47.8303 69.1781 45.9596 67.026 44.1093 64.6727C45.9196 64.7533 47.77 64.8135 49.6406 64.8135C51.5314 64.8135 53.402 64.7735 55.2326 64.6727C53.5061 66.9164 51.6594 69.0651 49.7009 71.1094ZM34.7361 59.262C31.88 58.8396 29.1242 58.3165 26.4894 57.6729C27.2333 55.0782 28.159 52.4029 29.2048 49.7277C30.0296 51.3369 30.8946 52.9463 31.8395 54.5551C32.7849 56.1644 33.7506 57.7332 34.7361 59.262ZM49.6005 17.4045C51.4712 19.3353 53.3418 21.4875 55.1921 23.8409C53.3818 23.7605 51.5314 23.7001 49.6609 23.7001C47.77 23.7001 45.8994 23.7403 44.0693 23.8409C45.7957 21.5973 47.6421 19.4487 49.6005 17.4045ZM34.7158 29.2517C33.7304 30.8005 32.7449 32.3895 31.8197 34.0184C30.8946 35.6278 30.0296 37.237 29.2048 38.8459C28.1488 36.2246 27.2225 33.553 26.4292 30.8407C29.064 30.2171 31.8395 29.6741 34.7158 29.2517ZM16.5126 54.4345C9.39231 51.3973 4.78614 47.415 4.78614 44.2566C4.78614 41.0988 9.39231 37.0962 16.5126 34.0792C18.2425 33.3349 20.1333 32.6711 22.0844 32.0476C23.2308 35.9898 24.7394 40.0932 26.61 44.2971C24.7596 48.4809 23.2709 52.5639 22.1446 56.4864C20.1535 55.8625 18.2627 55.179 16.5126 54.4345ZM27.3341 83.1777C24.5986 81.6089 23.4116 75.635 24.3373 67.9511C24.5586 66.0607 24.9202 64.0692 25.3628 62.0375C29.3055 63.0031 33.6098 63.7476 38.1354 64.2302C40.8507 67.9511 43.6667 71.3302 46.5029 74.287C39.9458 80.3819 33.7906 83.7206 29.6068 83.7206C28.7019 83.7008 27.9378 83.5196 27.3341 83.1777ZM75.0451 67.8508C75.9901 75.5343 74.8238 81.5082 72.1081 83.0972C71.5049 83.4592 70.7205 83.6203 69.7949 83.6203C65.6313 83.6203 59.4564 80.3014 52.8992 74.247C55.7152 71.2902 58.5313 67.9313 61.2065 64.2099C65.7523 63.7273 70.0567 62.9829 73.9989 61.9975C74.4617 64.0291 74.8237 65.9802 75.0451 67.8508ZM82.7888 54.4345C81.059 55.179 79.1681 55.8428 77.217 56.4662C76.0705 52.5239 74.562 48.4207 72.6914 44.2166C74.5422 40.0328 76.0305 35.9498 77.1568 32.0274C79.1483 32.651 81.0387 33.3349 82.809 34.0792C89.9294 37.116 94.5355 41.0988 94.5355 44.2566C94.5153 47.415 89.9091 51.4175 82.7888 54.4345Z" fill="#61DAFB"/>
<path d="M49.6403 53.4489C54.7174 53.4489 58.8329 49.3334 58.8329 44.2565C58.8329 39.1799 54.7174 35.0645 49.6403 35.0645C44.5638 35.0645 40.4484 39.1799 40.4484 44.2565C40.4484 49.3334 44.5638 53.4489 49.6403 53.4489ZM4.80145 104.013H1.76706V109.238H0.0546875V96.3203H4.33121C5.78627 96.3203 6.90422 96.6518 7.68498 97.3143C8.47168 97.9764 8.86505 98.9407 8.86505 100.206C8.86505 101.011 8.6462 101.712 8.20848 102.309C7.77669 102.907 7.17337 103.353 6.3985 103.649L9.43289 109.132V109.238H7.60515L4.80145 104.013ZM1.76706 102.62H4.38447C5.23031 102.62 5.90164 102.401 6.3985 101.963C6.90126 101.526 7.15264 100.94 7.15264 100.206C7.15264 99.408 6.91309 98.7958 6.43399 98.3699C5.96078 97.944 5.27465 97.7281 4.37557 97.7222H1.76706V102.62ZM14.9872 109.416C13.6857 109.416 12.6269 108.99 11.8107 108.138C10.9944 107.28 10.5862 106.136 10.5862 104.705V104.403C10.5862 103.451 10.7666 102.602 11.1274 101.857C11.4942 101.105 12.0029 100.52 12.6536 100.1C13.3102 99.6743 14.0199 99.4611 14.783 99.4611C16.0311 99.4611 17.0013 99.8722 17.6931 100.694C18.3853 101.517 18.7312 102.694 18.7312 104.226V104.908H12.2277C12.2513 105.856 12.5264 106.621 13.0529 107.207C13.5852 107.786 14.2595 108.076 15.0758 108.076C15.6556 108.076 16.1463 107.958 16.5484 107.721C16.951 107.485 17.3026 107.171 17.6045 106.782L18.607 107.562C17.8024 108.798 16.596 109.416 14.9872 109.416ZM14.783 100.81C14.1205 100.81 13.5645 101.052 13.115 101.537C12.6654 102.017 12.3874 102.691 12.281 103.56H17.0899V103.436C17.0427 102.602 16.8178 101.957 16.4157 101.502C16.0131 101.041 15.4689 100.81 14.783 100.81ZM26.5657 109.238C26.4708 109.05 26.3939 108.712 26.335 108.227C25.5717 109.019 24.6609 109.416 23.6022 109.416C22.6559 109.416 21.8782 109.15 21.2687 108.617C20.6656 108.08 20.3638 107.399 20.3638 106.577C20.3638 105.578 20.7425 104.803 21.4995 104.252C22.2623 103.696 23.3332 103.418 24.7113 103.418H26.3084V102.664C26.3084 102.09 26.1366 101.635 25.7939 101.298C25.4507 100.955 24.9447 100.783 24.2763 100.783C23.6908 100.783 23.2001 100.931 22.8038 101.227C22.4076 101.522 22.2093 101.88 22.2093 102.3H20.559C20.559 101.821 20.7276 101.36 21.0645 100.916C21.4077 100.467 21.8692 100.112 22.449 99.8514C23.0346 99.5915 23.6759 99.4611 24.374 99.4611C25.4805 99.4611 26.3466 99.739 26.9736 100.295C27.6006 100.845 27.9258 101.606 27.9497 102.575V106.994C27.9497 107.875 28.0621 108.576 28.287 109.097V109.238H26.5657ZM23.8419 107.987C24.3565 107.987 24.8444 107.854 25.3059 107.588C25.7669 107.322 26.1011 106.976 26.3084 106.55V104.581H25.0216C23.0107 104.581 22.005 105.169 22.005 106.346C22.005 106.86 22.1768 107.264 22.5196 107.553C22.8628 107.843 23.3035 107.987 23.8419 107.987ZM34.3733 108.076C34.9589 108.076 35.4708 107.898 35.9084 107.544C36.3461 107.189 36.5885 106.746 36.6357 106.213H38.1887C38.1591 106.763 37.9697 107.287 37.6207 107.783C37.2716 108.281 36.8043 108.677 36.2188 108.972C35.639 109.269 35.0242 109.416 34.3733 109.416C33.0663 109.416 32.025 108.982 31.2501 108.112C30.4815 107.236 30.0969 106.042 30.0969 104.527V104.252C30.0969 103.318 30.2682 102.487 30.6114 101.759C30.9546 101.032 31.4453 100.467 32.0844 100.065C32.7289 99.6621 33.4891 99.4611 34.3643 99.4611C35.4411 99.4611 36.3343 99.7835 37.0441 100.429C37.7596 101.073 38.141 101.91 38.1887 102.939H36.6357C36.5885 102.318 36.3518 101.809 35.926 101.413C35.5063 101.011 34.9854 100.81 34.3643 100.81C33.5305 100.81 32.8827 101.111 32.4212 101.715C31.9662 102.312 31.7381 103.179 31.7381 104.315V104.625C31.7381 105.731 31.9662 106.583 32.4212 107.18C32.877 107.778 33.5277 108.076 34.3733 108.076ZM42.261 97.3143V99.6387H44.0533V100.908H42.261V106.86C42.261 107.246 42.3411 107.535 42.5007 107.73C42.6604 107.919 42.9324 108.015 43.317 108.015C43.5059 108.015 43.7663 107.979 44.0974 107.908V109.238C43.6657 109.357 43.246 109.416 42.8376 109.416C42.1045 109.416 41.5513 109.194 41.1784 108.751C40.806 108.307 40.6197 107.677 40.6197 106.86V100.908H38.8714V99.6387H40.6197V97.3143H42.261ZM60.6715 109.238H58.9588L52.4555 99.2838V109.238H50.7433V96.3203H52.4555L58.9767 106.32V96.3203H60.6715V109.238ZM69.3665 109.238C69.2716 109.05 69.1947 108.712 69.1358 108.227C68.3725 109.019 67.4617 109.416 66.403 109.416C65.4567 109.416 64.6785 109.15 64.0695 108.617C63.4664 108.08 63.1646 107.399 63.1646 106.577C63.1646 105.578 63.5429 104.803 64.3003 104.252C65.0631 103.696 66.1339 103.418 67.5121 103.418H69.1092V102.664C69.1092 102.09 68.9374 101.635 68.5943 101.298C68.2515 100.955 67.7455 100.783 67.0771 100.783C66.4915 100.783 66.0009 100.931 65.6046 101.227C65.2084 101.522 65.01 101.88 65.01 102.3H63.3597C63.3597 101.821 63.5284 101.36 63.8653 100.916C64.2085 100.467 64.67 100.112 65.2498 99.8514C65.8354 99.5915 66.4767 99.4611 67.1748 99.4611C68.2807 99.4611 69.1474 99.739 69.7744 100.295C70.4014 100.845 70.7266 101.606 70.7505 102.575V106.994C70.7505 107.875 70.8629 108.576 71.0878 109.097V109.238H69.3665ZM66.6427 107.987C67.1573 107.987 67.6452 107.854 68.1067 107.588C68.5677 107.322 68.9019 106.976 69.1092 106.55V104.581H67.8224C65.8115 104.581 64.8058 105.169 64.8058 106.346C64.8058 106.86 64.9776 107.264 65.3204 107.553C65.6636 107.843 66.1043 107.987 66.6427 107.987ZM75.5505 97.3143V99.6387H77.3427V100.908H75.5505V106.86C75.5505 107.246 75.6305 107.535 75.7902 107.73C75.9498 107.919 76.2219 108.015 76.6065 108.015C76.7954 108.015 77.0558 107.979 77.3873 107.908V109.238C76.955 109.357 76.5354 109.416 76.127 109.416C75.3939 109.416 74.8407 109.194 74.4679 108.751C74.0954 108.307 73.9092 107.677 73.9092 106.86V100.908H72.1614V99.6387H73.9092V97.3143H75.5505ZM81.0516 109.238H79.4099V99.6387H81.0516V109.238ZM79.2767 97.0921C79.2767 96.8263 79.3569 96.6014 79.5165 96.4179C79.6821 96.2344 79.9245 96.1431 80.2438 96.1431C80.5635 96.1431 80.806 96.2344 80.9715 96.4179C81.137 96.6014 81.2198 96.8263 81.2198 97.0921C81.2198 97.3584 81.137 97.5801 80.9715 97.7577C80.806 97.935 80.5635 98.024 80.2438 98.024C79.9245 98.024 79.6821 97.935 79.5165 97.7577C79.3569 97.5801 79.2767 97.3584 79.2767 97.0921ZM86.8541 107.012L89.2316 99.6387H90.9088L87.4662 109.238H86.215L82.7374 99.6387H84.4141L86.8541 107.012ZM96.3474 109.416C95.0462 109.416 93.9875 108.99 93.1711 108.138C92.3548 107.28 91.9469 106.136 91.9469 104.705V104.403C91.9469 103.451 92.1273 102.602 92.488 101.857C92.8545 101.105 93.3632 100.52 94.014 100.1C94.6707 99.6743 95.3804 99.4611 96.1432 99.4611C97.3913 99.4611 98.3615 99.8722 99.0537 100.694C99.7454 101.517 100.092 102.694 100.092 104.226V104.908H93.5881C93.6119 105.856 93.8867 106.621 94.4134 107.207C94.9455 107.786 95.6201 108.076 96.436 108.076C97.0158 108.076 97.507 107.958 97.9091 107.721C98.3111 107.485 98.6634 107.171 98.9652 106.782L99.9676 107.562C99.1631 108.798 97.9563 109.416 96.3474 109.416ZM96.1432 100.81C95.4812 100.81 94.9248 101.052 94.4755 101.537C94.0258 102.017 93.7477 102.691 93.6416 103.56H98.4502V103.436C98.4029 102.602 98.178 101.957 97.7759 101.502C97.3738 101.041 96.8296 100.81 96.1432 100.81Z" fill="#61DAFB"/>
</g>
<defs>
<clipPath id="clip0_1_24166">
<rect width="100.571" height="110" fill="white"/>
</clipPath>
</defs>
</svg>
