<svg width="113" height="110" viewBox="0 0 113 110" fill="none" xmlns="http://www.w3.org/2000/svg">
<g clip-path="url(#clip0_1_24192)">
<path d="M7.32281 69.9151C1.57307 39.3452 16.7687 9.86239 51.6467 5.93996C46.8367 0.80079 40.2661 0.762218 37.2435 1.38769C31.9054 3.08833 32.0727 6.54264 26.018 11.0042C19.9987 14.4418 16.9757 11.8094 12.5912 15.3732C8.21565 18.9104 11.2689 27.0309 9.43371 28.6102C7.6121 31.7673 1.96185 34.5799 0.933138 38.5677C0.082819 43.6678 3.2404 47.3111 3.11898 51.6828C3.48366 55.3256 -0.507583 57.3856 0.0657249 60.3384C1.78346 65.1621 5.09401 68.0654 6.65482 69.4036C7.01248 69.6561 7.39075 70.2772 7.32281 69.9151Z" fill="#FF0090"/>
<path d="M69.3844 27.5984C69.0814 27.5984 68.7812 27.5386 68.5013 27.4226C68.2214 27.3066 67.9669 27.1366 67.7526 26.9222C67.5384 26.708 67.3684 26.4536 67.2525 26.1736C67.1365 25.8936 67.0769 25.5935 67.0769 25.2904C67.0769 24.9874 67.1366 24.6872 67.2526 24.4074C67.3686 24.1274 67.5386 23.873 67.753 23.6587C67.9673 23.4445 68.2218 23.2745 68.5018 23.1585C68.7816 23.0426 69.0818 22.9829 69.3849 22.983C69.9969 22.983 70.5839 23.2261 71.0166 23.6589C71.4494 24.0916 71.6925 24.6786 71.6925 25.2906C71.6925 25.9027 71.4494 26.4896 71.0166 26.9225C70.5839 27.3552 69.9964 27.5984 69.3844 27.5984ZM8.67069 73.25C3.14493 46.6815 20.2434 24.4815 53.355 35.4107C72.7839 46.777 97.2254 46.0367 98.3268 38.6894C101.047 29.8815 85.9402 11.7307 63.3532 6.99476C18.5431 -1.74907 -5.61424 46.682 8.67069 73.25Z" fill="url(#paint0_radial_1_24192)"/>
<path d="M82.1748 76.2129C88.8283 76.9339 95.1444 75.3372 100.997 70.5662C92.1546 80.4294 81.0979 85.3885 68.4119 86.7375C74.4693 91.8873 80.3106 94.2068 85.8986 93.214C70.3711 97.4989 57.3616 92.7828 41.5361 77.0229C40.7076 81.2653 45.1885 87.8754 49.807 92.0947C23.0096 80.4772 20.6603 44.2869 53.3366 35.3849C19.4641 19.1104 0.310488 50.7318 9.72054 76.6482C18.9281 96.6088 43.4638 111.976 70.3549 108.597C83.4165 106.997 102.922 97.9908 110.891 76.6482C105.275 81.6878 95.236 86.077 90.7564 86.4137C105.918 78.8367 114.103 65.9613 111.805 48.364C108.664 55.8408 104.521 61.583 99.3376 65.5265C110.348 48.3637 108.459 39.4927 100.309 29.7434C106.138 45.7732 98.5978 63.5638 82.1748 76.2129Z" fill="url(#paint1_radial_1_24192)"/>
<path d="M74.3943 94.6802C73.2438 94.4655 77.0023 96.2025 69.736 94.2787C62.4702 92.3555 55.072 90.5018 41.5366 77.0225C40.7081 81.2653 45.189 87.875 49.8075 92.0946C62.2747 100.79 53.7961 96.7232 72.7923 103.29C74.3168 100.256 74.3943 97.5595 74.3943 94.6802Z" fill="url(#paint2_linear_1_24192)"/>
<path d="M50.2399 26.4026C50.2399 26.4026 51.8914 23.9647 52.5344 22.8653C53.3225 21.5181 54.5323 19.0626 54.5323 19.0626C54.5323 19.0626 41.8195 14.9149 38.6996 14.4087C29.0011 16.9263 28.966 20.9894 34.388 27.2086C34.991 27.9011 50.2399 26.4026 50.2399 26.4026Z" fill="url(#paint3_linear_1_24192)"/>
</g>
<defs>
<radialGradient id="paint0_radial_1_24192" cx="0" cy="0" r="1" gradientUnits="userSpaceOnUse" gradientTransform="translate(7414.34 2553) scale(8454.85 6048.15)">
<stop stop-color="#F80090"/>
<stop offset="1" stop-color="#4D008E"/>
</radialGradient>
<radialGradient id="paint1_radial_1_24192" cx="0" cy="0" r="1" gradientUnits="userSpaceOnUse" gradientTransform="translate(7215.15 378.596) scale(8569.81 6482.74)">
<stop stop-color="#57008E"/>
<stop offset="0.29175" stop-color="#5C008E"/>
<stop offset="1" stop-color="#F80090"/>
</radialGradient>
<linearGradient id="paint2_linear_1_24192" x1="642.546" y1="77.0225" x2="2157.39" y2="2624.62" gradientUnits="userSpaceOnUse">
<stop stop-color="#F70090"/>
<stop offset="0.66971" stop-color="#E50090"/>
<stop offset="0.82715" stop-color="#D6008F" stop-opacity="0.2"/>
<stop offset="1" stop-color="#C10090" stop-opacity="0"/>
</linearGradient>
<linearGradient id="paint3_linear_1_24192" x1="1574.05" y1="943.439" x2="1354.2" y2="522.388" gradientUnits="userSpaceOnUse">
<stop stop-color="#B2008F" stop-opacity="0.151"/>
<stop offset="0.40035" stop-color="#F70090" stop-opacity="0.4"/>
<stop offset="0.649" stop-color="#F60090" stop-opacity="0.892"/>
<stop offset="1" stop-color="#FF0090"/>
</linearGradient>
<clipPath id="clip0_1_24192">
<rect width="112.5" height="110" fill="white"/>
</clipPath>
</defs>
</svg>
