<svg width="120" height="120" viewBox="0 0 120 120" fill="none" xmlns="http://www.w3.org/2000/svg">
<path d="M60.3599 70.0216C65.8444 70.0216 70.2905 65.5756 70.2905 60.091C70.2905 54.6065 65.8444 50.1604 60.3599 50.1604C54.8754 50.1604 50.4292 54.6065 50.4292 60.091C50.4292 65.5756 54.8754 70.0216 60.3599 70.0216Z" fill="#00D8FF"/>
<path d="M60.3604 39.9014C73.691 39.9014 86.0764 41.8145 95.413 45.0275C106.663 48.8999 113.581 54.771 113.581 60.0875C113.581 65.6271 106.249 71.8657 94.1692 75.8662C85.0361 78.892 73.0149 80.4738 60.3604 80.4738C47.3844 80.4738 35.1007 78.9904 25.8625 75.8334C14.1761 71.8395 7.13672 65.522 7.13672 60.0875C7.13672 54.8136 13.743 48.9886 24.8353 45.1226C34.208 41.8573 46.8986 39.9014 60.3604 39.9014Z" stroke="#00D8FF" stroke-width="4.31478" stroke-miterlimit="10"/>
<path d="M42.7866 50.0552C49.4453 38.5067 57.2921 28.7336 64.7417 22.2521C73.7173 14.4415 82.2598 11.3828 86.864 14.0378C91.6621 16.8043 93.4046 26.2723 90.835 38.7396C88.8921 48.1649 84.2584 59.3656 77.9344 70.33C71.4528 81.5701 64.0295 91.4712 56.6816 97.8969C47.3844 106.026 38.3923 108.966 33.6863 106.252C29.1181 103.617 27.3721 94.9859 29.5611 83.4439C31.412 73.684 36.059 61.7153 42.7866 50.0552Z" stroke="#00D8FF" stroke-width="4.31478" stroke-miterlimit="10"/>
<path d="M42.803 70.353C36.1246 58.8143 31.5761 47.1377 29.6792 37.4467C27.3951 25.7701 29.0097 16.8405 33.6108 14.179C38.4054 11.4026 47.4762 14.622 56.9934 23.0726C64.1903 29.4622 71.5776 39.0712 77.9179 50.0258C84.4191 61.2559 89.2925 72.6306 91.1861 82.2035C93.585 94.3197 91.6422 103.578 86.9394 106.298C82.3746 108.94 74.0257 106.144 65.119 98.481C57.5972 92.0061 49.547 82.0032 42.803 70.353Z" stroke="#00D8FF" stroke-width="4.31478" stroke-miterlimit="10"/>
</svg>
