<svg width="109" height="109" viewBox="0 0 109 109" fill="none" xmlns="http://www.w3.org/2000/svg">
<g clip-path="url(#clip0_1_24179)">
<path d="M0.413086 94.2526C0.413086 101.935 6.64037 108.161 14.3218 108.161H94.3723C102.055 108.161 108.281 101.934 108.281 94.2526V14.2021C108.281 6.51941 102.054 0.292969 94.3727 0.292969H14.3222C6.63953 0.292969 0.413086 6.52026 0.413086 14.2017V94.2526Z" fill="#563D7C"/>
<path d="M45.1435 48.0071V32.7315H58.5895C59.8704 32.7315 61.105 32.8381 62.2941 33.0517C63.4832 33.265 64.5353 33.6459 65.4501 34.1949C66.3644 34.7439 67.0963 35.5062 67.6454 36.4816C68.194 37.4575 68.4687 38.7077 68.4687 40.2317C68.4687 42.976 67.6454 44.9581 65.9987 46.1775C64.3524 47.3974 62.2486 48.0071 59.6871 48.0071H45.1435ZM30.7822 21.5718V86.8827H62.4315C65.3586 86.8827 68.2096 86.5169 70.9842 85.785C73.7589 85.0531 76.2285 83.9251 78.3934 82.4006C80.558 80.8762 82.2809 78.9092 83.5614 76.5007C84.8424 74.0918 85.4824 71.2409 85.4824 67.948C85.4824 63.862 84.4914 60.3711 82.5097 57.4746C80.5276 54.5778 77.5242 52.5502 73.4993 51.3915C76.4265 49.9892 78.6374 48.19 80.1315 45.9947C81.6253 43.7994 82.3723 41.0555 82.3723 37.7621C82.3723 34.7132 81.8692 32.1521 80.863 30.0786C79.8568 28.0055 78.4389 26.3437 76.6094 25.0935C74.7803 23.8433 72.585 22.9437 70.0235 22.3951C67.4625 21.8461 64.6267 21.5718 61.5167 21.5718H30.7822ZM45.1435 75.7229V57.7945H60.7848C63.8948 57.7945 66.3952 58.5108 68.2858 59.9442C70.1761 61.3773 71.1216 63.7706 71.1216 67.1246C71.1216 68.8324 70.8317 70.2347 70.2523 71.3323C69.673 72.43 68.8955 73.2993 67.9197 73.9393C66.9442 74.5798 65.8158 75.0369 64.5353 75.3117C63.2544 75.5856 61.9132 75.7229 60.5105 75.7229H45.1435Z" fill="white"/>
</g>
<defs>
<clipPath id="clip0_1_24179">
<rect width="109" height="109" fill="white"/>
</clipPath>
</defs>
</svg>
