<svg width="109" height="110" viewBox="0 0 109 110" fill="none" xmlns="http://www.w3.org/2000/svg">
<path d="M53.5189 0.424413C49.1087 0.424413 44.8406 0.834474 41.125 1.52907C30.1119 3.45385 28.1787 7.45404 28.1787 15.0276V24.9444H54.0712V28.25H18.5382C11.0984 28.25 4.49562 32.7942 2.42857 41.3301C0.0853638 51.2469 -0.048534 57.3059 2.42857 67.6327C4.21945 75.3485 8.62971 80.7128 16.2033 80.7128H25.1577V68.8712C25.1577 60.3353 32.5974 52.7616 41.2672 52.7616H67.0174C74.1809 52.7616 79.9636 46.8367 79.9636 39.5393V14.8853C79.9636 7.8641 74.0387 2.62535 67.0174 1.3868C62.4649 0.700577 57.9208 0.290515 53.5189 0.424413ZM39.468 8.27416C42.0874 8.27416 44.2883 10.4751 44.2883 13.2284C44.2883 15.9817 42.0874 18.1826 39.468 18.1826C36.8486 18.1826 34.6477 15.9817 34.6477 13.2284C34.6477 10.4751 36.7147 8.27416 39.468 8.27416Z" fill="url(#paint0_linear_1_24169)"/>
<path d="M83.127 27.9653V39.3968C83.127 48.3513 75.5534 55.7825 66.8751 55.7825H41.125C34.1037 55.7825 28.1787 61.8415 28.1787 69.005V93.6589C28.1787 100.68 34.2377 104.814 41.125 106.881C49.2509 109.358 57.1007 109.777 67.0174 106.881C73.4864 104.956 79.9636 101.232 79.9636 93.6589V83.742H54.0628V80.4365H92.9016C100.341 80.4365 103.228 75.2061 105.848 67.3563C108.601 59.2304 108.467 51.5229 105.848 41.0539C104.057 33.6141 100.475 27.9737 92.9016 27.9737L83.127 27.9653ZM68.5238 90.3533C71.1431 90.3533 73.3441 92.5542 73.3441 95.3074C73.3441 98.0607 71.1431 100.262 68.5238 100.262C65.9044 100.262 63.7035 98.0607 63.7035 95.3074C63.7035 92.5542 65.9128 90.3533 68.5238 90.3533Z" fill="url(#paint1_linear_1_24169)"/>
<defs>
<linearGradient id="paint0_linear_1_24169" x1="-2.23417" y1="3.35756" x2="57.4274" y2="54.1916" gradientUnits="userSpaceOnUse">
<stop stop-color="#5CA0D5"/>
<stop offset="1" stop-color="#316A99"/>
</linearGradient>
<linearGradient id="paint1_linear_1_24169" x1="79.922" y1="85.8425" x2="58.5165" y2="55.8509" gradientUnits="userSpaceOnUse">
<stop stop-color="#FFD43E"/>
<stop offset="1" stop-color="#FFE975"/>
</linearGradient>
</defs>
</svg>
