<svg width="99" height="110" viewBox="0 0 99 110" fill="none" xmlns="http://www.w3.org/2000/svg">
<g clip-path="url(#clip0_1_24198)">
<path d="M98.0532 32.2435C98.0524 30.4055 97.6593 28.7814 96.8643 27.3878C96.0835 26.0168 94.9141 24.8679 93.3455 23.9596C80.3978 16.4938 67.4375 9.05092 54.4939 1.57756C51.0043 -0.437003 47.621 -0.363179 44.1574 1.6803C39.0038 4.71927 13.2014 19.502 5.51276 23.9554C2.34631 25.7888 0.805513 28.5941 0.804751 32.24C0.799805 47.2541 0.804751 62.2682 0.799805 77.2823C0.799805 79.0799 1.17691 80.6728 1.93685 82.0454C2.71809 83.4576 3.90384 84.6381 5.50856 85.5669C13.1977 90.0203 39.0033 104.802 44.1559 107.842C47.621 109.887 51.0043 109.96 54.495 107.945C67.439 100.471 80.4 93.028 93.3497 85.5624C94.9544 84.6339 96.1402 83.4527 96.9215 82.0416C97.6803 80.6687 98.0581 79.0761 98.0581 77.2781C98.0581 77.2781 98.0581 47.2579 98.0532 32.2435Z" fill="#A179DC"/>
<path d="M49.5784 54.615L1.9375 82.0455C2.71874 83.4577 3.90449 84.6381 5.50921 85.567C13.1984 90.0204 39.0041 104.802 44.1565 107.842C47.6217 109.887 51.0051 109.96 54.4957 107.944C67.4396 100.471 80.4007 93.0282 93.3503 85.5625C94.9551 84.634 96.1409 83.4528 96.9221 82.0418L49.5784 54.615Z" fill="#280068"/>
<path d="M98.054 32.2436C98.0532 30.4056 97.6602 28.7815 96.8651 27.3879L49.5786 54.6154L96.9223 82.0418C97.6811 80.6688 98.0582 79.0763 98.059 77.2782C98.059 77.2782 98.059 47.258 98.054 32.2436Z" fill="#390091"/>
<path d="M77.6276 44.3606V49.4879H82.755V44.3606H85.3187V49.4879H90.446V52.0516H85.3187V57.1786H90.446V59.7423H85.3187V64.8696H82.755V59.7423H77.6276V64.8696H75.064V59.7423H69.937V57.1786H75.064V52.0516H69.937V49.4879H75.064V44.3606H77.6276ZM82.755 52.0512H77.6276V57.1786H82.755V52.0512Z" fill="white"/>
<path d="M49.682 18.6104C63.0557 18.6104 74.7316 25.8735 80.9858 36.6692L80.9249 36.5653L65.1897 45.6251C62.0898 40.3764 56.4069 36.834 49.8872 36.761L49.6817 36.7598C39.7402 36.7598 31.6804 44.8195 31.6804 54.7611C31.6772 57.8946 32.4957 60.974 34.0546 63.6922C37.1575 69.1092 42.9907 72.7627 49.682 72.7627C56.4149 72.7627 62.2812 69.0628 65.3682 63.588L65.2932 63.7193L81.0044 72.8209C74.8188 83.5254 63.3026 90.7659 50.0847 90.9101L49.682 90.9125C36.2663 90.9125 24.5572 83.6046 18.3187 72.7517C15.2732 67.4535 13.5308 61.3112 13.5308 54.7611C13.5308 34.7959 29.7161 18.6104 49.682 18.6104Z" fill="white"/>
</g>
<defs>
<clipPath id="clip0_1_24198">
<rect width="98.1373" height="110" fill="white"/>
</clipPath>
</defs>
</svg>
