<svg width="109" height="110" viewBox="0 0 109 110" fill="none" xmlns="http://www.w3.org/2000/svg">
<g clip-path="url(#clip0_1_24182)">
<path d="M50.9645 0.838711C50.7317 0.859879 49.9909 0.933964 49.3241 0.986883C33.9458 2.37335 19.5414 10.671 10.4182 23.4244C5.33804 30.5155 2.08883 38.5591 0.86112 47.0791C0.427187 50.0531 0.374268 50.9315 0.374268 54.964C0.374268 58.9963 0.427187 59.8748 0.86112 62.8488C3.8034 83.1802 18.2714 100.262 37.8936 106.591C41.4075 107.724 45.1117 108.497 49.3241 108.962C50.9645 109.142 58.0557 109.142 59.6962 108.962C66.9672 108.158 73.1269 106.359 79.202 103.258C80.1334 102.781 80.3132 102.654 80.1862 102.548C80.1016 102.485 76.1327 97.1613 71.37 90.7264L62.7125 79.0314L51.8642 62.9758C45.8949 54.1491 40.984 46.9309 40.9417 46.9309C40.8994 46.9204 40.8571 54.0538 40.8359 62.7642C40.8042 78.0153 40.7936 78.6292 40.6031 78.9891C40.3279 79.5077 40.1162 79.7193 39.6717 79.9522C39.333 80.1215 39.0367 80.1533 37.4385 80.1533H35.6075L35.1207 79.8463C34.8032 79.6452 34.5703 79.3807 34.4116 79.0737L34.1893 78.5974L34.2105 57.377L34.2423 36.146L34.5703 35.7334C34.7397 35.5111 35.0995 35.2253 35.3535 35.0876C35.7875 34.876 35.9568 34.8548 37.7878 34.8548C39.9468 34.8548 40.3067 34.9395 40.8677 35.5534C41.0264 35.7227 46.9004 44.5708 53.928 55.2285C60.9556 65.8864 70.5656 80.4391 75.286 87.583L83.8589 100.569L84.2927 100.284C88.1347 97.7858 92.1988 94.2297 95.4162 90.5254C102.264 82.6616 106.677 73.0728 108.159 62.8488C108.593 59.8748 108.646 58.9963 108.646 54.964C108.646 50.9315 108.593 50.0531 108.159 47.0791C105.217 26.7477 90.7488 9.66555 71.1266 3.33648C67.6657 2.2146 63.9825 1.44198 59.8549 0.9763C58.8388 0.870463 51.843 0.754041 50.9645 0.838711ZM73.1269 33.5848C73.635 33.8389 74.0476 34.3257 74.1959 34.8337C74.2806 35.1089 74.3017 40.9934 74.2806 54.2549L74.2488 73.2844L70.8937 68.1407L67.5282 62.997V49.164C67.5282 40.2208 67.5705 35.1936 67.634 34.9501C67.8033 34.3574 68.1738 33.8917 68.6817 33.6166C69.1157 33.3943 69.2744 33.3731 70.9361 33.3731C72.5024 33.3731 72.7777 33.3943 73.1269 33.5848Z" fill="white"/>
</g>
<defs>
<clipPath id="clip0_1_24182">
<rect width="108.866" height="110" fill="white"/>
</clipPath>
</defs>
</svg>
