<svg width="100" height="110" viewBox="0 0 100 110" fill="none" xmlns="http://www.w3.org/2000/svg">
<path d="M45.1261 1.55671C47.8164 0.016803 51.3206 0.00984728 54.0085 1.55671C67.5315 9.19792 81.0588 16.8271 94.5795 24.473C97.1225 25.9055 98.8235 28.7357 98.7977 31.666V77.6384C98.8166 80.6899 96.9474 83.5878 94.2645 84.9879C80.7859 92.5869 67.3143 100.195 53.8381 107.794C51.0922 109.364 47.5177 109.243 44.8575 107.545C40.8167 105.202 36.7688 102.871 32.7276 100.531C31.9018 100.039 30.9709 99.6469 30.3878 98.8463C30.9033 98.1515 31.8249 98.0649 32.5738 97.7616C34.2606 97.2252 35.8098 96.3642 37.3593 95.5288C37.7511 95.2606 38.2295 95.3634 38.6051 95.6033C42.0606 97.5846 45.4854 99.6233 48.9525 101.586C49.6921 102.013 50.441 101.446 51.0732 101.093C64.2998 93.6179 77.5426 86.1706 90.767 78.6929C91.2569 78.4571 91.5278 77.9371 91.488 77.4004C91.4973 62.235 91.4904 47.067 91.4927 31.9016C91.5487 31.2927 91.1962 30.7327 90.6457 30.4834C77.2138 22.9192 63.789 15.3432 50.3595 7.77703C50.1268 7.61706 49.8512 7.53124 49.5688 7.53082C49.2865 7.53041 49.0105 7.61543 48.7774 7.7747C35.348 15.3432 21.9254 22.9261 8.4959 30.49C7.94717 30.7397 7.57891 31.2903 7.64421 31.9016C7.64653 47.067 7.64421 62.235 7.64421 77.4026C7.62093 77.6646 7.67844 77.9272 7.80903 78.1555C7.93961 78.3837 8.13697 78.5664 8.37456 78.679C11.9582 80.7112 15.5466 82.7291 19.1327 84.7544C21.1529 85.8418 23.6334 86.4879 25.8592 85.6548C27.8234 84.9503 29.2002 82.9459 29.1628 80.8604C29.1813 65.7836 29.1535 50.7044 29.1766 35.6298C29.1277 34.9607 29.7625 34.4076 30.4133 34.4706C32.1352 34.4591 33.8595 34.4474 35.5814 34.4753C36.3001 34.4591 36.7948 35.1797 36.7059 35.854C36.6988 51.0263 36.7243 66.199 36.6943 81.3712C36.6988 85.4148 35.0376 89.8147 31.2974 91.7932C26.6896 94.1801 20.9945 93.6739 16.4424 91.3851C12.5015 89.4181 8.7409 87.0969 4.87005 84.9898C2.18013 83.5974 0.320265 80.688 0.3392 77.6387V31.666C0.310991 28.675 2.07967 25.7933 4.70196 24.3818C18.1782 16.7765 31.6521 9.16545 45.1261 1.55671Z" fill="#8CC84B"/>
<path d="M56.883 33.4018C62.7605 33.0235 69.0527 33.1777 74.3418 36.0732C78.4367 38.292 80.7069 42.9489 80.7793 47.4982C80.6649 48.1119 80.0233 48.4505 79.4375 48.4083C77.7323 48.406 76.0266 48.4315 74.3213 48.3967C73.5979 48.4245 73.1775 47.7576 73.0867 47.118C72.5966 44.9412 71.4095 42.7854 69.3607 41.7355C66.2156 40.1608 62.5688 40.2401 59.1393 40.2728C56.6356 40.4058 53.9435 40.6226 51.8223 42.0949C50.1939 43.2101 49.6993 45.4614 50.2805 47.2745C50.8284 48.5764 52.3312 48.9964 53.5609 49.3837C60.6441 51.2362 68.15 51.0518 75.0979 53.4898C77.9745 54.4837 80.7885 56.4158 81.7731 59.4277C83.061 63.4642 82.4965 68.2891 79.6246 71.5297C77.2956 74.1965 73.9035 75.6479 70.5204 76.4362C66.0197 77.4398 61.349 77.4653 56.7783 77.0197C52.4805 76.5297 48.0079 75.4006 44.6901 72.4722C41.8529 70.0088 40.4672 66.1705 40.6048 62.4657C40.6376 61.8401 41.2605 61.4038 41.8599 61.4552C43.5772 61.4414 45.2944 61.4367 47.0117 61.4576C47.6976 61.4085 48.2061 62.0012 48.2413 62.6477C48.5582 64.7217 49.3377 66.8984 51.1461 68.128C54.6362 70.3797 59.0157 70.2256 63.0121 70.2885C66.323 70.1417 70.0396 70.0972 72.7416 67.9089C74.167 66.6608 74.5895 64.5725 74.2042 62.776C73.7868 61.2594 72.2002 60.5525 70.8377 60.0904C63.8453 57.8785 56.2554 58.681 49.3306 56.1797C46.5194 55.1862 43.8009 53.3078 42.7209 50.4197C41.2138 46.332 41.9043 41.276 45.0772 38.1448C48.171 35.0303 52.637 33.8311 56.883 33.4018Z" fill="#8CC84B"/>
</svg>
