<svg width="160" height="160" viewBox="0 0 160 160" fill="none" xmlns="http://www.w3.org/2000/svg">
<circle cx="80" cy="80" r="79.5" fill="#0B0B0B" stroke="#2F2F2F"/>
<path d="M71.9307 85.0051C71.9307 87.8937 69.5893 90.2353 66.7007 90.2353C63.8124 90.2353 61.4709 87.8938 61.4709 85.0051C61.4709 82.1168 63.8124 79.7751 66.7007 79.7751C69.5893 79.7753 71.9307 82.1169 71.9307 85.0051ZM93.1594 79.7753C90.271 79.7753 87.9294 82.1168 87.9294 85.0055C87.9294 87.8938 90.271 90.2353 93.1594 90.2353C96.0478 90.2353 98.3895 87.8938 98.3895 85.0055C98.3894 82.1169 96.0479 79.7753 93.1594 79.7753ZM130.86 82.09V92.0295C130.86 97.0196 126.815 101.065 121.825 101.065H115.268C108.771 119.104 92.1806 130 79.9301 130C67.6795 130 51.0892 119.104 44.5923 101.065H38.0356C33.0453 101.065 29 97.0196 29 92.0293V82.0898C29 78.656 30.9159 75.6698 33.7368 74.141C33.8315 60.0296 37.9444 49.0086 45.9789 41.3895C53.9482 33.8322 65.3711 30 79.9301 30C94.4891 30 105.912 33.8322 113.881 41.3894C121.916 49.0084 126.028 60.0296 126.123 74.1409C128.944 75.6698 130.86 78.656 130.86 82.09ZM111.736 85.0382C111.736 82.7133 111.617 80.5288 111.441 78.412C107.431 74.7432 100.152 71.9594 90.9641 70.925C92.1704 72.2814 93.2125 74.0658 93.8445 76.4146C88.2168 71.9812 77.1705 73.0364 68.8152 63.1154C68.3361 62.5613 67.9219 62.0318 67.5637 61.548C67.5595 61.5422 67.5549 61.5377 67.5507 61.532L67.5517 61.5324C66.0653 59.5221 65.5585 58.3264 65.5302 59.6499C65.285 71.0531 57.2026 79.9429 48.2276 81.197C48.1708 82.4511 48.1244 83.7174 48.1244 85.0384C48.1244 89.8583 48.9115 94.2511 50.2497 98.2098C55.2911 104.291 63.6166 106.008 70.9855 106.463C72.3535 104.287 75.4227 102.768 78.9972 102.768C83.8434 102.768 87.7718 105.556 87.7718 108.997C87.7718 112.436 83.8432 115.225 78.9972 115.225C75.2695 115.225 72.0928 113.572 70.8214 111.245C65.6713 110.946 60.0097 110.068 54.9638 107.685C62.0598 118.144 73.0603 123.675 79.9301 123.675C90.7251 123.675 111.736 110.038 111.736 85.0382ZM120.683 73.0544C120.108 48.4297 106.053 35.4216 79.9301 35.4216C53.8074 35.4216 39.7521 48.4297 39.1769 73.0544H42.6533C43.9243 64.7546 46.6108 57.9288 50.6897 52.6804C57.1896 44.3172 67.0274 40.0765 79.9301 40.0765C92.8327 40.0765 102.67 44.3172 109.171 52.6804C113.249 57.9286 115.936 64.7546 117.207 73.0544H120.683Z" fill="#DCA629"/>
</svg>
