<svg width="8" height="12" viewBox="0 0 8 12" fill="none" xmlns="http://www.w3.org/2000/svg">
<path d="M2.84617 6.00243L7.32912 1.69264C7.45256 1.57425 7.52047 1.41597 7.52047 1.2472C7.52047 1.07833 7.45256 0.92014 7.32912 0.801568L6.9363 0.424124C6.81306 0.305365 6.64831 0.239991 6.47275 0.239991C6.29719 0.239991 6.13264 0.305365 6.0093 0.424124L0.67162 5.5553C0.547792 5.67425 0.479983 5.83318 0.48047 6.00214C0.479983 6.17185 0.547694 6.3306 0.67162 6.44964L6.00432 11.5759C6.12767 11.6946 6.29222 11.76 6.46788 11.76C6.64344 11.76 6.80799 11.6946 6.93143 11.5759L7.32415 11.1984C7.5797 10.9527 7.5797 10.5528 7.32415 10.3073L2.84617 6.00243Z" fill="white"/>
</svg>
