<svg width="9" height="12" viewBox="0 0 9 12" fill="none" xmlns="http://www.w3.org/2000/svg">
<path d="M5.65432 6.00243L1.17136 1.69264C1.04793 1.57425 0.98002 1.41597 0.98002 1.2472C0.98002 1.07833 1.04793 0.92014 1.17136 0.801568L1.56419 0.424124C1.68743 0.305365 1.85218 0.239991 2.02774 0.239991C2.2033 0.239991 2.36785 0.305365 2.49119 0.424124L7.82887 5.5553C7.9527 5.67425 8.02051 5.83318 8.02002 6.00214C8.02051 6.17185 7.95279 6.3306 7.82887 6.44964L2.49616 11.5759C2.37282 11.6946 2.20827 11.76 2.03261 11.76C1.85705 11.76 1.6925 11.6946 1.56906 11.5759L1.17633 11.1984C0.920787 10.9527 0.920787 10.5528 1.17633 10.3073L5.65432 6.00243Z" fill="black"/>
</svg>
