<svg width="239" height="37" viewBox="0 0 239 37" fill="none" xmlns="http://www.w3.org/2000/svg">
<path d="M18.387 36.498C8.23136 36.498 0 28.2347 0 18.0396V0.5C10.1557 0.5 18.387 8.76333 18.387 18.9584V36.498Z" fill="white"/>
<path d="M20 21.5738V12.26C20 5.76533 25.2449 0.5 31.7144 0.5V9.81702C31.7144 16.3117 26.4695 21.5738 20 21.5738Z" fill="white"/>
<path d="M46.4797 36.5002H33.0472C25.8404 36.5002 20.002 30.6359 20.002 23.4043H33.4345C40.6381 23.4043 46.4797 29.2686 46.4797 36.5002Z" fill="white"/>
<path d="M92.3104 34.7366H85.2377L76.7192 19.7101L71.9596 25.4706V34.7366H65.2205V2.45068H71.9596V17.2317L83.6808 2.45068H91.1316L81.3677 14.9543L92.3104 34.7366Z" fill="white"/>
<path d="M96.2832 34.7365V11.6497H102.667V14.9095C103.023 14.3439 103.482 13.8006 104.046 13.2796C104.624 12.7437 105.351 12.3046 106.225 11.9622C107.1 11.6199 108.138 11.4487 109.339 11.4487C110.748 11.4487 112.06 11.7241 113.276 12.2748C114.507 12.8256 115.5 13.6964 116.256 14.8872C117.013 16.0631 117.391 17.6037 117.391 19.509V34.7365H110.896V20.3128C110.896 19.0625 110.525 18.1247 109.784 17.4995C109.043 16.8743 108.138 16.5618 107.071 16.5618C106.359 16.5618 105.669 16.6883 105.002 16.9413C104.35 17.1944 103.816 17.574 103.401 18.08C102.986 18.5861 102.778 19.2113 102.778 19.9556V34.7365H96.2832Z" fill="white"/>
<path d="M127.989 24.6891C127.974 25.865 128.159 26.8921 128.545 27.7703C128.93 28.6336 129.486 29.3035 130.213 29.7798C130.954 30.2412 131.844 30.4719 132.882 30.4719C133.994 30.4719 134.965 30.2338 135.795 29.7575C136.641 29.2811 137.226 28.4997 137.552 27.413H143.402C143.15 29.0504 142.497 30.4496 141.445 31.6107C140.407 32.7717 139.146 33.6574 137.664 34.2677C136.181 34.878 134.639 35.1831 133.037 35.1831C130.769 35.1831 128.767 34.7068 127.032 33.7541C125.312 32.7866 123.97 31.4246 123.007 29.6681C122.043 27.9117 121.561 25.8427 121.561 23.461C121.561 21.1538 121.998 19.0774 122.873 17.2316C123.748 15.3709 125.016 13.9048 126.676 12.833C128.352 11.7464 130.361 11.2031 132.704 11.2031C135.047 11.2031 137.011 11.7018 138.598 12.6991C140.199 13.6815 141.4 15.0584 142.201 16.8297C143.016 18.5861 143.424 20.618 143.424 22.9252V24.6891H127.989ZM127.966 20.804H137.352C137.352 19.8812 137.182 19.0327 136.841 18.2587C136.5 17.4846 135.981 16.8743 135.284 16.4278C134.602 15.9812 133.742 15.758 132.704 15.758C131.696 15.758 130.836 16.0036 130.124 16.4948C129.427 16.9711 128.893 17.5963 128.522 18.3703C128.152 19.1443 127.966 19.9556 127.966 20.804Z" fill="white"/>
<path d="M178.694 11.6499L171.132 34.7367H165.972L161.68 20.7596L157.409 34.7367H152.383L144.932 11.6499H150.67L155.074 25.9619H155.252L159.478 11.6499H164.104L168.374 25.9619H168.552L172.823 11.6499H178.694Z" fill="white"/>
<path d="M188.703 11.6499V34.7367H182.497V11.6499H188.703ZM188.769 2.47314V8.34534H182.453V2.47314H188.769Z" fill="white"/>
<path d="M203.684 35.1831C202.083 35.1831 200.541 34.9226 199.058 34.4016C197.575 33.8658 196.322 33.0322 195.299 31.9009C194.276 30.7548 193.624 29.2737 193.342 27.4577H198.969C199.162 28.2764 199.51 28.9239 200.015 29.4002C200.533 29.8765 201.119 30.2189 201.772 30.4273C202.424 30.6208 203.047 30.7175 203.64 30.7175C204.885 30.7175 205.886 30.524 206.642 30.137C207.413 29.7351 207.799 29.1248 207.799 28.3062C207.799 27.681 207.569 27.1823 207.109 26.8102C206.665 26.4381 205.923 26.1552 204.885 25.9617L200.837 25.1133C198.806 24.6816 197.175 23.9522 195.944 22.9252C194.714 21.8832 194.083 20.4096 194.054 18.5043C194.054 17.12 194.417 15.877 195.144 14.7755C195.885 13.674 196.975 12.8033 198.413 12.1632C199.851 11.5231 201.616 11.2031 203.707 11.2031C206.539 11.2031 208.8 11.8283 210.49 13.0786C212.195 14.329 213.063 16.0929 213.092 18.3703H207.666C207.502 17.4772 207.058 16.7925 206.331 16.3162C205.619 15.8249 204.722 15.5793 203.64 15.5793C202.513 15.5793 201.586 15.7803 200.86 16.1822C200.133 16.5841 199.77 17.1944 199.77 18.0131C199.77 18.6234 200.066 19.1071 200.66 19.4644C201.253 19.8067 202.172 20.1044 203.417 20.3575L207.154 21.2059C208.444 21.5185 209.489 21.9502 210.29 22.5009C211.106 23.0368 211.736 23.6248 212.181 24.2648C212.625 24.9049 212.929 25.5524 213.092 26.2073C213.27 26.8474 213.359 27.4279 213.359 27.9489C213.359 29.4821 212.952 30.792 212.136 31.8786C211.321 32.9503 210.186 33.769 208.733 34.3346C207.28 34.9003 205.597 35.1831 203.684 35.1831Z" fill="white"/>
<path d="M217.914 34.7366V1.55762H224.364V14.9766C224.735 14.4407 225.202 13.9123 225.765 13.3913C226.329 12.8555 227.033 12.4089 227.878 12.0517C228.723 11.6944 229.754 11.5158 230.97 11.5158C232.438 11.5158 233.772 11.8061 234.973 12.3866C236.189 12.9522 237.16 13.7783 237.887 14.865C238.628 15.9516 238.999 17.2763 238.999 18.8393V34.7366H232.482V19.7994C232.482 18.7574 232.104 17.9611 231.348 17.4103C230.606 16.8447 229.702 16.5619 228.634 16.5619C227.937 16.5619 227.263 16.6884 226.61 16.9414C225.958 17.1945 225.424 17.5815 225.009 18.1025C224.609 18.6086 224.408 19.2412 224.408 20.0003V34.7366H217.914Z" fill="white"/>
</svg>
