<svg width="223" height="37" viewBox="0 0 223 37" fill="none" xmlns="http://www.w3.org/2000/svg">
<path d="M42.4779 26.1996C42.3509 25.8879 31.7975 4.8466 31.6267 4.5589C31.0709 3.22034 30.0981 2.0416 28.7561 1.25445C25.4765 -0.679468 21.2639 0.427342 19.3422 3.72779C18.024 5.98936 18.1272 8.69845 19.3819 10.7962C19.5089 11.1079 29.6097 31.2462 29.7805 31.5379C29.9075 31.8495 30.0584 32.1492 30.2331 32.4409C30.789 33.7795 31.7617 34.9582 33.1037 35.7453C36.3833 37.6793 40.5959 36.5725 42.5176 33.272C43.8358 31.0064 43.7326 28.3014 42.4779 26.1996Z" fill="white"/>
<path d="M30.2928 11.9651C31.4482 10.7265 32.1549 9.06026 32.1549 7.23022C32.1549 3.40634 29.0739 0.305664 25.2742 0.305664C22.9356 0.305664 20.8749 1.48039 19.6322 3.27047C19.4059 3.51421 2.27342 24.7634 2.08284 25.0351C0.927441 26.2737 0.220703 27.9399 0.220703 29.77C0.220703 33.5939 3.30176 36.6945 7.10147 36.6945C9.44006 36.6945 11.5007 35.5198 12.7435 33.7297C12.9698 33.486 30.1022 12.2368 30.2928 11.9651Z" fill="white"/>
<path d="M59.7774 11.9651C60.9328 10.7265 61.6396 9.06026 61.6396 7.23022C61.6396 3.40634 58.5585 0.305664 54.7588 0.305664C52.4202 0.305664 50.3595 1.48039 49.1168 3.27047C48.8905 3.51421 31.758 24.7634 31.5675 25.0351C30.4121 26.2737 29.7053 27.9399 29.7053 29.77C29.7053 33.5939 32.7864 36.6945 36.5861 36.6945C38.9247 36.6945 40.9853 35.5198 42.2281 33.7297C42.4544 33.486 59.5868 12.2368 59.7774 11.9651Z" fill="white"/>
<path d="M97.1263 33.3274C95.3315 30.1193 93.3893 26.9516 91.2998 23.8244C89.2103 20.6972 86.9869 17.7452 84.6295 14.9685V33.3274H78.4414V5.30371H83.5446C84.4286 6.19335 85.4064 7.28518 86.4779 8.5792C87.5495 9.87322 88.6344 11.2616 89.7327 12.7444C90.8578 14.2001 91.9695 15.7233 93.0679 17.3139C94.1662 18.8775 95.1975 20.3872 96.1619 21.8429V5.30371H102.39V33.3274H97.1263Z" fill="white"/>
<path d="M126.454 32.5992C125.436 32.8957 124.123 33.1653 122.516 33.408C120.909 33.6775 119.221 33.8123 117.453 33.8123C115.658 33.8123 114.158 33.5697 112.953 33.0845C111.774 32.5992 110.836 31.9252 110.14 31.0625C109.443 30.1729 108.948 29.1215 108.653 27.9084C108.358 26.6952 108.211 25.3608 108.211 23.905V12.0566H114.198V23.1771C114.198 25.1181 114.453 26.52 114.962 27.3827C115.471 28.2454 116.422 28.6767 117.815 28.6767C118.243 28.6767 118.699 28.6632 119.181 28.6363C119.663 28.5823 120.092 28.5284 120.467 28.4745V12.0566H126.454V32.5992Z" fill="white"/>
<path d="M131.873 6.75958L137.86 5.78906V12.057H145.053V17.0713H137.86V24.5524C137.86 25.8195 138.075 26.8304 138.503 27.5853C138.959 28.3401 139.856 28.7175 141.195 28.7175C141.838 28.7175 142.495 28.6636 143.164 28.5558C143.861 28.421 144.49 28.2458 145.053 28.0301L145.897 32.7209C145.174 33.0175 144.37 33.2736 143.486 33.4892C142.602 33.7049 141.517 33.8127 140.231 33.8127C138.597 33.8127 137.244 33.5971 136.173 33.1657C135.101 32.7074 134.244 32.0874 133.601 31.3056C132.958 30.4968 132.503 29.5263 132.235 28.394C131.994 27.2618 131.873 26.0082 131.873 24.6333V6.75958Z" fill="white"/>
<path d="M162.667 17.3947C162.132 17.2599 161.502 17.1252 160.779 16.9904C160.056 16.8286 159.279 16.7477 158.448 16.7477C158.073 16.7477 157.618 16.7882 157.082 16.869C156.573 16.923 156.185 16.9904 155.917 17.0712V33.3274H149.93V13.1892C151.001 12.8118 152.26 12.4613 153.707 12.1378C155.18 11.7873 156.814 11.6121 158.609 11.6121C158.93 11.6121 159.319 11.639 159.774 11.693C160.23 11.7199 160.685 11.7738 161.14 11.8547C161.596 11.9086 162.051 11.9895 162.507 12.0973C162.962 12.1782 163.351 12.2861 163.672 12.4208L162.667 17.3947Z" fill="white"/>
<path d="M172.869 33.3272H166.882V12.0567H172.869V33.3272ZM173.431 5.91011C173.431 7.01542 173.07 7.89158 172.346 8.53859C171.65 9.15865 170.819 9.46867 169.855 9.46867C168.891 9.46867 168.047 9.15865 167.324 8.53859C166.627 7.89158 166.279 7.01542 166.279 5.91011C166.279 4.8048 166.627 3.94212 167.324 3.32207C168.047 2.67506 168.891 2.35156 169.855 2.35156C170.819 2.35156 171.65 2.67506 172.346 3.32207C173.07 3.94212 173.431 4.8048 173.431 5.91011Z" fill="white"/>
<path d="M186.934 33.7317C185.193 33.7047 183.773 33.516 182.675 33.1655C181.603 32.8151 180.746 32.3298 180.103 31.7098C179.487 31.0627 179.058 30.2944 178.817 29.4048C178.603 28.4882 178.496 27.4637 178.496 26.3315V2.91778L184.483 1.94727V25.1183C184.483 25.6575 184.523 26.1428 184.604 26.5741C184.684 27.0054 184.831 27.3694 185.046 27.6659C185.287 27.9625 185.621 28.2051 186.05 28.3938C186.479 28.5825 187.055 28.7038 187.778 28.7578L186.934 33.7317Z" fill="white"/>
<path d="M197.197 33.3272H191.21V12.0567H197.197V33.3272ZM197.76 5.91011C197.76 7.01542 197.398 7.89158 196.675 8.53859C195.978 9.15865 195.148 9.46867 194.183 9.46867C193.219 9.46867 192.375 9.15865 191.652 8.53859C190.955 7.89158 190.607 7.01542 190.607 5.91011C190.607 4.8048 190.955 3.94212 191.652 3.32207C192.375 2.67506 193.219 2.35156 194.183 2.35156C195.148 2.35156 195.978 2.67506 196.675 3.32207C197.398 3.94212 197.76 4.8048 197.76 5.91011Z" fill="white"/>
<path d="M211.223 18.5267L215.402 12.0566H221.59L214.357 22.2875C215.965 24.3094 217.425 26.2774 218.737 28.1914C220.05 30.1055 221.095 31.8174 221.872 33.3271H215.442C215.228 32.9227 214.96 32.424 214.639 31.8309C214.317 31.2108 213.956 30.5773 213.554 29.9303C213.152 29.2563 212.723 28.5958 212.268 27.9488C211.839 27.2748 211.411 26.6683 210.982 26.1291C210.58 26.6413 210.165 27.2074 209.736 27.8275C209.335 28.4475 208.946 29.0811 208.571 29.7281C208.196 30.3481 207.821 30.9682 207.446 31.5882C207.098 32.2083 206.79 32.7879 206.522 33.3271H200.414C200.736 32.6531 201.178 31.8578 201.74 30.9412C202.303 30.0246 202.905 29.0811 203.548 28.1106C204.218 27.1131 204.915 26.1291 205.638 25.1586C206.361 24.1611 207.071 23.231 207.767 22.3683C206.562 20.6699 205.357 18.9581 204.151 17.2327C202.946 15.4804 201.753 13.755 200.575 12.0566H207.044L211.223 18.5267Z" fill="white"/>
</svg>
