<svg width="199" height="43" viewBox="0 0 199 43" fill="none" xmlns="http://www.w3.org/2000/svg">
<path d="M23.4686 23.0294C27.3939 24.8708 31.447 25.788 34.8717 25.6074C34.8924 25.6074 34.9131 25.6039 34.9338 25.6039L35.1789 1.10656C35.1893 0.241459 34.2261 -0.279687 33.5149 0.203241L13.0391 14.1039C14.6962 17.2829 18.5283 20.7086 23.4686 23.0294Z" fill="white"/>
<path d="M34.0149 27.9564C30.4417 27.9564 26.3921 26.9697 22.4875 25.1387C17.1019 22.6129 13.0522 19.0066 11.1051 15.4106L0.692888 22.4809C-0.121864 23.0333 0.175037 24.3049 1.14514 24.4369L18.6278 26.8307C19.6566 26.9731 20.5991 27.4839 21.2826 28.2691L32.8998 41.6347C33.5453 42.3782 34.7606 41.9266 34.7709 40.9364L34.9021 27.932C34.6156 27.9494 34.3187 27.9564 34.0149 27.9564Z" fill="white"/>
<path d="M34.0163 26.0982C30.4431 26.0982 26.3935 25.1115 22.4889 23.2806C13.3057 18.969 7.99598 11.527 10.4023 6.33639C12.8086 1.14578 21.8882 0.454393 31.0714 4.76601C34.075 6.17658 36.7989 8.00406 38.9462 10.0539C39.4088 10.4951 39.4295 11.2352 38.9911 11.7007C38.5492 12.1663 37.8173 12.1871 37.3547 11.7459C35.3869 9.86629 32.877 8.18473 30.0944 6.87839C22.3543 3.24426 14.2965 3.44925 12.5048 7.3231C10.7095 11.1969 15.7327 17.5376 23.4728 21.1717C27.3981 23.0131 31.4477 23.9303 34.8759 23.7496C38.0417 23.5829 40.2374 22.5093 41.0659 20.727C41.9256 18.8682 41.0936 16.7489 40.2443 15.2932C39.9198 14.7373 40.1027 14.025 40.6551 13.6985C41.2075 13.3719 41.9152 13.556 42.2397 14.1119C43.8416 16.8462 44.1696 19.5457 43.165 21.7102C41.9601 24.309 39.0601 25.8585 35.0002 26.0739C34.6722 26.0913 34.3477 26.0982 34.0163 26.0982Z" fill="white"/>
<path d="M63.7022 8.24072V23.1751C63.7022 24.6685 64.0673 25.8182 64.7975 26.6242C65.5277 27.4302 66.5995 27.8332 68.0128 27.8332C69.4261 27.8332 70.5097 27.4302 71.2634 26.6242C72.0172 25.8182 72.3941 24.6685 72.3941 23.1751V8.24072H78.4361V23.1395C78.4361 25.3678 77.965 27.2524 77.0227 28.7933C76.0805 30.3341 74.8085 31.4957 73.2068 32.2779C71.6286 33.0602 69.8619 33.4513 67.9068 33.4513C65.9517 33.4513 64.1968 33.0721 62.6422 32.3135C61.1111 31.5312 59.898 30.3697 59.0028 28.8288C58.1077 27.2643 57.6602 25.3678 57.6602 23.1395V8.24072H63.7022Z" fill="white"/>
<path d="M88.7215 16.1703C89.3104 15.2458 90.123 14.4991 91.1595 13.9301C92.1959 13.3612 93.409 13.0767 94.7988 13.0767C96.4241 13.0767 97.8963 13.4916 99.2154 14.3213C100.535 15.1509 101.571 16.3362 102.325 17.8771C103.102 19.4179 103.491 21.2077 103.491 23.2463C103.491 25.285 103.102 27.0866 102.325 28.6511C101.571 30.192 100.535 31.3891 99.2154 32.2425C97.8963 33.0722 96.4241 33.487 94.7988 33.487C93.4326 33.487 92.2195 33.2025 91.1595 32.6336C90.123 32.0647 89.3104 31.3298 88.7215 30.429V42.661H82.6795V13.3612H88.7215V16.1703ZM97.3428 23.2463C97.3428 21.7292 96.9188 20.5439 96.0708 19.6905C95.2463 18.8134 94.2217 18.3749 92.9968 18.3749C91.7955 18.3749 90.7708 18.8134 89.9228 19.6905C89.0984 20.5676 88.6861 21.7647 88.6861 23.2819C88.6861 24.799 89.0984 25.9961 89.9228 26.8732C90.7708 27.7503 91.7955 28.1889 92.9968 28.1889C94.1981 28.1889 95.2228 27.7503 96.0708 26.8732C96.9188 25.9724 97.3428 24.7635 97.3428 23.2463Z" fill="white"/>
<path d="M114.151 13.0767C115.541 13.0767 116.754 13.3612 117.791 13.9301C118.851 14.4991 119.663 15.2458 120.229 16.1703V13.3612H126.271V33.167C126.271 34.9923 125.906 36.6398 125.175 38.1095C124.469 39.603 123.373 40.7882 121.889 41.6653C120.429 42.5424 118.603 42.981 116.413 42.981C113.492 42.981 111.125 42.2817 109.311 40.8831C107.497 39.5082 106.461 37.6354 106.201 35.2649H112.173C112.361 36.0235 112.809 36.6161 113.515 37.0428C114.222 37.4932 115.094 37.7184 116.13 37.7184C117.379 37.7184 118.368 37.351 119.098 36.6161C119.852 35.9049 120.229 34.7552 120.229 33.167V30.3579C119.64 31.2824 118.827 32.041 117.791 32.6336C116.754 33.2025 115.541 33.487 114.151 33.487C112.526 33.487 111.054 33.0722 109.735 32.2425C108.416 31.3891 107.367 30.192 106.59 28.6511C105.836 27.0866 105.459 25.285 105.459 23.2463C105.459 21.2077 105.836 19.4179 106.59 17.8771C107.367 16.3362 108.416 15.1509 109.735 14.3213C111.054 13.4916 112.526 13.0767 114.151 13.0767ZM120.229 23.2819C120.229 21.7647 119.805 20.5676 118.957 19.6905C118.132 18.8134 117.119 18.3749 115.918 18.3749C114.717 18.3749 113.692 18.8134 112.844 19.6905C112.02 20.5439 111.607 21.7292 111.607 23.2463C111.607 24.7635 112.02 25.9724 112.844 26.8732C113.692 27.7503 114.717 28.1889 115.918 28.1889C117.119 28.1889 118.132 27.7503 118.957 26.8732C119.805 25.9961 120.229 24.799 120.229 23.2819Z" fill="white"/>
<path d="M136.685 6.88965V33.2025H130.643V6.88965H136.685Z" fill="white"/>
<path d="M139.861 23.2463C139.861 21.2077 140.238 19.4179 140.992 17.8771C141.769 16.3362 142.817 15.1509 144.136 14.3213C145.455 13.4916 146.928 13.0767 148.553 13.0767C149.943 13.0767 151.156 13.3612 152.192 13.9301C153.252 14.4991 154.065 15.2458 154.63 16.1703V13.3612H160.672V33.2025H154.63V30.3935C154.041 31.318 153.217 32.0647 152.157 32.6336C151.12 33.2025 149.907 33.487 148.518 33.487C146.916 33.487 145.455 33.0722 144.136 32.2425C142.817 31.3891 141.769 30.192 140.992 28.6511C140.238 27.0866 139.861 25.285 139.861 23.2463ZM154.63 23.2819C154.63 21.7647 154.206 20.5676 153.358 19.6905C152.534 18.8134 151.521 18.3749 150.32 18.3749C149.118 18.3749 148.094 18.8134 147.246 19.6905C146.421 20.5439 146.009 21.7292 146.009 23.2463C146.009 24.7635 146.421 25.9724 147.246 26.8732C148.094 27.7503 149.118 28.1889 150.32 28.1889C151.521 28.1889 152.534 27.7503 153.358 26.8732C154.206 25.9961 154.63 24.799 154.63 23.2819Z" fill="white"/>
<path d="M190.2 13.1479C192.65 13.1479 194.594 13.8947 196.03 15.3881C197.491 16.8815 198.221 18.9558 198.221 21.6107V33.2026H192.214V22.4286C192.214 21.1485 191.873 20.1647 191.19 19.4773C190.53 18.7661 189.612 18.4105 188.434 18.4105C187.256 18.4105 186.326 18.7661 185.643 19.4773C184.983 20.1647 184.653 21.1485 184.653 22.4286V33.2026H178.647V22.4286C178.647 21.1485 178.305 20.1647 177.622 19.4773C176.962 18.7661 176.044 18.4105 174.866 18.4105C173.688 18.4105 172.758 18.7661 172.075 19.4773C171.415 20.1647 171.085 21.1485 171.085 22.4286V33.2026H165.043V13.3613H171.085V15.8504C171.698 15.0207 172.499 14.3688 173.488 13.8947C174.477 13.3969 175.596 13.1479 176.845 13.1479C178.329 13.1479 179.648 13.468 180.802 14.108C181.98 14.7481 182.898 15.6607 183.558 16.846C184.241 15.7555 185.171 14.8666 186.349 14.1791C187.527 13.4917 188.811 13.1479 190.2 13.1479Z" fill="white"/>
</svg>
