<svg width="159" height="45" viewBox="0 0 159 45" fill="none" xmlns="http://www.w3.org/2000/svg">
<mask id="mask0_1_2904" style="mask-type:luminance" maskUnits="userSpaceOnUse" x="1" y="0" width="157" height="45">
<path d="M157.872 0.303711H1.00781V44.6966H157.872V0.303711Z" fill="white"/>
</mask>
<g mask="url(#mask0_1_2904)">
<path d="M12.625 27.6041L16.25 22.1064H13.3289L12.625 27.6041Z" fill="white"/>
<path d="M9.1053 5.375L9.0277 6.58371H13.1571C13.8112 6.58371 14.3489 7.11844 14.3489 7.78128C14.3489 8.44969 13.8167 8.97884 13.1571 8.97884H8.93901C8.9113 8.97884 8.90021 8.97327 8.8725 8.97327L8.72838 11.3016H11.206C11.8601 11.3016 12.3922 11.8307 12.3922 12.4991C12.3922 13.1564 11.8656 13.6967 11.206 13.6967H8.57318L8.21289 19.4172H13.7059L18.6391 5.38614C18.6446 5.375 9.1053 5.375 9.1053 5.375Z" fill="white"/>
<path fill-rule="evenodd" clip-rule="evenodd" d="M24.8201 2.18904L19.4823 17.3285H22.8967C23.8667 17.3564 24.4321 18.398 23.8834 19.1834L8.10275 43.0512C7.23806 44.1986 5.7969 43.3742 5.94102 42.2379L8.26349 24.1742H4.42226C3.76266 24.1853 3.14185 23.567 3.23608 22.9097L4.57192 1.72115C4.61626 1.09173 5.14284 0.601562 5.76364 0.601562H23.6893C24.5873 0.651694 25.064 1.48721 24.8201 2.18904ZM22.0209 2.98556H6.88885L5.70267 21.7902H9.63259C10.3531 21.8236 10.9074 22.4419 10.8076 23.1381L8.9619 37.4532L20.6906 19.7237H17.8083C16.8161 19.8072 16.3893 18.9104 16.6887 18.1306L22.0209 2.98556Z" fill="white"/>
<path d="M46.4276 10.789L54.0934 11.7024L47.7579 22.7646L53.1511 32.3897L46.361 34.5119L43.4399 27.8557L39.9978 34.5454L32.9805 31.9998L38.9557 22.5363L33.5015 12.5825L40.9401 10.789L43.6007 17.3449L46.4276 10.789ZM53.9437 12.0589L62.5851 11.6022L61.4488 33.8268L54.5978 34.1889L53.9437 12.0589ZM92.284 23.5166C92.284 25.0725 92.236 26.6228 92.1399 28.1676C92.0438 29.7124 91.9293 31.2627 91.7962 32.8186L83.4542 33.2085C83.7018 31.3147 83.9235 29.4209 84.1193 27.5271C84.3226 25.6258 84.4242 23.7227 84.4242 21.8177C84.4242 21.6989 84.4186 21.4928 84.4076 21.1994C84.4002 20.8949 84.3798 20.5515 84.3466 20.169C84.3244 19.7902 84.2856 19.3984 84.2302 18.9937C84.1895 18.5815 84.1249 18.2064 84.0362 17.8685C83.9623 17.5195 83.8643 17.2373 83.7424 17.0219C83.6241 16.8028 83.4837 16.6932 83.3211 16.6932C82.9442 16.6932 82.6467 16.8399 82.4287 17.1333C82.2107 17.4155 82.0481 17.759 81.9409 18.1637C81.8449 18.5648 81.7858 18.977 81.7636 19.4003C81.7414 19.8162 81.7303 20.1541 81.7303 20.4141C81.7303 20.8708 81.7414 21.3276 81.7636 21.7843C81.7858 22.241 81.7968 22.7089 81.7968 23.188C81.7968 24.8738 81.7525 26.5541 81.6638 28.2289C81.5899 29.9073 81.4938 31.5895 81.3756 33.2754L73.6765 33.565C73.9241 31.6749 74.1402 29.7885 74.325 27.9058C74.5209 26.012 74.6188 24.1126 74.6188 22.2076C74.6188 22.0888 74.6132 21.8716 74.6021 21.5559C74.5911 21.2403 74.5689 20.8875 74.5356 20.4976C74.5135 20.104 74.4765 19.6955 74.4248 19.2722C74.3693 18.8489 74.2991 18.4627 74.2141 18.1136C74.1365 17.7534 74.0386 17.4601 73.9204 17.2335C73.8021 17.0033 73.6562 16.8882 73.4825 16.8882C73.2127 16.8882 72.9855 16.9977 72.8007 17.2168C72.6159 17.4211 72.4644 17.6921 72.3462 18.0301C72.2353 18.368 72.1485 18.743 72.0857 19.1552C72.0302 19.56 71.9859 19.9573 71.9526 20.3472C71.9342 20.7408 71.9194 21.1066 71.9083 21.4445C71.9083 21.7676 71.9027 22.0108 71.8917 22.1742L71.5314 34.0886H63.35C63.5237 32.2505 63.6956 30.4068 63.8655 28.5575C64.0503 26.7083 64.2074 24.8646 64.3367 23.0264C64.4771 21.1772 64.5917 19.3279 64.6803 17.4786C64.7653 15.6294 64.8078 13.7801 64.8078 11.9308L72.5402 11.6022L72.5069 13.496C72.7434 13.1915 73.015 12.887 73.3217 12.5825C73.6247 12.2669 73.9425 11.9884 74.2751 11.747C74.6225 11.4982 74.9865 11.2977 75.3671 11.1454C75.7551 10.9932 76.1542 10.9171 76.5643 10.9171C77.0965 10.9171 77.5731 10.9598 77.9944 11.0452C78.4194 11.1232 78.7981 11.2606 79.1307 11.4574C79.4781 11.6505 79.7811 11.9215 80.0397 12.2706C80.3021 12.6085 80.5294 13.0393 80.7215 13.5629C81.0689 13.1804 81.4162 12.8257 81.7636 12.499C82.122 12.1722 82.4952 11.8955 82.8833 11.669C83.2749 11.4277 83.6981 11.242 84.1526 11.112C84.6071 10.9821 85.1097 10.9171 85.6602 10.9171C86.7097 10.9171 87.6021 11.1232 88.3375 11.5353C89.0765 11.9401 89.6899 12.4785 90.1777 13.1507C90.6729 13.8265 91.0572 14.5989 91.3306 15.4678C91.6115 16.3405 91.8221 17.2447 91.9625 18.1805C92.1029 19.1162 92.1898 20.0464 92.223 20.9711C92.2637 21.8957 92.284 22.7442 92.284 23.5166ZM113.835 22.0795C113.835 23.0673 113.722 24.0235 113.497 24.9481C113.268 25.8653 112.937 26.725 112.505 27.5271C112.084 28.3329 111.564 29.0737 110.947 29.7495C110.341 30.4142 109.654 30.9842 108.885 31.4595C108.124 31.9386 107.295 32.3155 106.397 32.5903C105.499 32.8502 104.547 32.9802 103.542 32.9802C102.566 32.9802 101.635 32.8558 100.748 32.607C99.8686 32.3545 99.0445 32.0054 98.2759 31.5598C97.5073 31.103 96.8107 30.559 96.1862 29.9278C95.5691 29.2853 95.037 28.5779 94.5899 27.8056C94.1575 27.022 93.8176 26.1847 93.57 25.2935C93.3298 24.4022 93.2097 23.472 93.2097 22.5028C93.2097 21.5559 93.3242 20.6313 93.5533 19.7289C93.7788 18.8154 94.1039 17.9558 94.5289 17.15C94.9612 16.3442 95.4804 15.6052 96.0864 14.9331C96.6925 14.2573 97.3687 13.6743 98.1152 13.1841C98.8727 12.6939 99.6912 12.3133 100.571 12.0422C101.447 11.7711 102.372 11.6356 103.348 11.6356C104.915 11.6356 106.343 11.8807 107.633 12.3709C108.933 12.861 110.038 13.5629 110.947 14.4764C111.867 15.3787 112.575 16.476 113.07 17.7683C113.58 19.0531 113.835 20.4902 113.835 22.0795ZM106.624 22.5028C106.624 22.035 106.554 21.5838 106.413 21.1493C106.284 20.7037 106.09 20.3119 105.831 19.974C105.569 19.625 105.244 19.3483 104.856 19.1441C104.475 18.925 104.037 18.8154 103.542 18.8154C103.032 18.8154 102.577 18.9083 102.178 19.0939C101.776 19.2796 101.428 19.534 101.136 19.857C100.855 20.1727 100.639 20.5496 100.488 20.9878C100.336 21.4111 100.261 21.8623 100.261 22.3413C100.261 22.7981 100.325 23.2548 100.455 23.7115C100.584 24.1683 100.778 24.5805 101.037 24.9481C101.299 25.3194 101.619 25.6202 101.995 25.8505C102.387 26.077 102.838 26.1902 103.348 26.1902C103.854 26.1902 104.309 26.0918 104.712 25.895C105.122 25.6908 105.467 25.4197 105.748 25.0818C106.029 24.7327 106.245 24.3354 106.397 23.8898C106.548 23.4442 106.624 22.9819 106.624 22.5028ZM134.006 18.8489C134.006 19.6955 133.93 20.4679 133.779 21.166C133.638 21.8493 133.411 22.4806 133.097 23.0598C132.783 23.6354 132.376 24.1683 131.877 24.6585C131.378 25.1486 130.778 25.6165 130.076 26.0621L133.939 32.9802L126.634 34.4172L124.134 27.4658L122.116 27.5271L121.822 34.317H114.844C114.896 31.8364 114.944 29.367 114.988 26.9088C115.043 24.4505 115.103 21.9811 115.165 19.5006C115.188 18.2492 115.21 17.0089 115.232 15.7797C115.254 14.5506 115.297 13.3103 115.359 12.0589C116.121 11.7767 116.869 11.5428 117.604 11.3571C118.34 11.1714 119.075 11.0303 119.81 10.9338C120.557 10.8261 121.309 10.7555 122.066 10.7221C122.835 10.6776 123.62 10.6553 124.422 10.6553C125.656 10.6553 126.848 10.8298 127.997 11.1789C129.154 11.5168 130.176 12.0274 131.062 12.7106C131.953 13.3976 132.663 14.2517 133.191 15.2729C133.734 16.2978 134.006 17.4898 134.006 18.8489ZM126.728 19.3725C126.728 18.912 126.663 18.4924 126.534 18.1136C126.416 17.7311 126.231 17.4044 125.98 17.1333C125.743 16.8511 125.44 16.6338 125.071 16.4816C124.716 16.3182 124.295 16.2365 123.807 16.2365C123.589 16.2365 123.378 16.2532 123.175 16.2866C122.968 16.3089 122.767 16.346 122.571 16.398L122.31 22.4694H122.704C123.169 22.4694 123.641 22.41 124.117 22.2912C124.601 22.1723 125.034 21.9867 125.414 21.7342C125.802 21.4854 126.116 21.1642 126.357 20.7705C126.604 20.3806 126.728 19.9146 126.728 19.3725ZM149.271 11.2123L155.601 33.1751L147.547 34.2223L146.572 30.5293H142.869L142.06 34.2223L133.779 33.4035L140.242 11.669L149.271 11.2123ZM143.551 25.5385H145.99L144.753 19.857L143.551 25.5385Z" fill="white"/>
</g>
</svg>
