<svg width="227" height="41" viewBox="0 0 227 41" fill="none" xmlns="http://www.w3.org/2000/svg">
<path d="M28.596 8.56883C29.4423 7.71357 29.9683 6.53234 29.9683 5.22843C29.9683 2.61711 27.8645 0.5 25.2697 0.5C23.6292 0.5 22.1873 1.34825 21.3479 2.63113C21.125 2.85546 2.42145 26.0559 2.2473 26.3223C1.40093 27.1776 0.875 28.3588 0.875 29.6627C0.875 32.274 2.97871 34.3911 5.57353 34.3911C7.21402 34.3911 8.65595 33.5429 9.49535 32.26C9.71826 32.0322 28.4218 8.83522 28.596 8.56883Z" fill="white"/>
<path d="M39.4221 19.5772C40.272 18.722 40.7979 17.5407 40.7979 16.2333C40.7979 13.622 38.6942 11.5049 36.0994 11.5049C34.4589 11.5049 33.0169 12.3531 32.1741 13.636C31.9477 13.8638 22.1257 26.0477 21.9481 26.3176C21.0982 27.1728 20.5723 28.3541 20.5723 29.6615C20.5723 32.2728 22.676 34.3899 25.2708 34.3899C26.9113 34.3899 28.3532 33.5417 29.1961 32.2588C29.419 32.0345 39.2445 19.8471 39.4221 19.5772Z" fill="white"/>
<path d="M49.6686 5.22844C49.6686 7.83976 47.5649 9.95686 44.97 9.95686C42.3752 9.95686 40.2715 7.83976 40.2715 5.22844C40.2715 2.61711 42.3752 0.5 44.97 0.5C47.5649 0.5 49.6686 2.61711 49.6686 5.22844Z" fill="white"/>
<path d="M10.2701 5.22844C10.2701 7.83976 8.16639 9.95686 5.57158 9.95686C2.97676 9.95686 0.873047 7.83976 0.873047 5.22844C0.873047 2.61711 2.97676 0.5 5.57158 0.5C8.16639 0.5 10.2701 2.61711 10.2701 5.22844Z" fill="white"/>
<path d="M72.2122 32.5615H66.5193V3.54736H72.2122V32.5615Z" fill="white"/>
<path d="M83.7911 20.9803V32.5614H78.3828V12.4275H83.6284V14.9238C84.1977 13.9416 85.011 13.1914 86.0683 12.673C87.1255 12.1547 88.237 11.8955 89.4027 11.8955C91.7612 11.8955 93.5504 12.6458 94.7703 14.1463C96.0174 15.6195 96.6409 17.5292 96.6409 19.8754V32.5614H91.2326V20.8166C91.2326 19.6162 90.9208 18.6477 90.2973 17.9111C89.7009 17.1745 88.7792 16.8062 87.5322 16.8062C86.3936 16.8062 85.4854 17.2018 84.8077 17.993C84.13 18.7842 83.7911 19.7799 83.7911 20.9803Z" fill="white"/>
<path d="M120.641 12.4277L112.875 32.5616H107.466L99.293 12.4277H105.23L110.191 25.9322L114.948 12.4277H120.641Z" fill="white"/>
<path d="M127.281 20.2026H136.227C136.172 19.0841 135.766 18.1428 135.007 17.3789C134.275 16.6151 133.19 16.2331 131.754 16.2331C130.452 16.2331 129.395 16.6423 128.582 17.4608C127.769 18.2792 127.335 19.1932 127.281 20.2026ZM136.755 25.4407L141.269 26.7912C140.727 28.6463 139.656 30.1741 138.057 31.3745C136.484 32.5749 134.519 33.1751 132.16 33.1751C129.287 33.1751 126.847 32.2066 124.841 30.2696C122.835 28.3053 121.832 25.6862 121.832 22.4124C121.832 19.3023 122.808 16.7651 124.759 14.8008C126.711 12.8093 129.016 11.8135 131.672 11.8135C134.763 11.8135 137.176 12.741 138.911 14.5962C140.673 16.4514 141.554 19.0022 141.554 22.2487C141.554 22.467 141.54 22.7125 141.513 22.9853C141.513 23.2582 141.513 23.4764 141.513 23.6401L141.472 23.9266H127.159C127.213 25.2361 127.728 26.3274 128.704 27.2004C129.68 28.0734 130.846 28.5099 132.201 28.5099C134.505 28.5099 136.023 27.4868 136.755 25.4407Z" fill="white"/>
<path d="M144.105 26.9548L148.74 25.9318C148.795 26.8048 149.133 27.5414 149.757 28.1416C150.408 28.7145 151.289 29.001 152.4 29.001C153.241 29.001 153.891 28.81 154.352 28.4281C154.813 28.0461 155.043 27.5687 155.043 26.9958C155.043 25.9863 154.325 25.3316 152.888 25.0315L150.245 24.4176C148.374 24.0084 146.965 23.2718 146.016 22.2078C145.094 21.1438 144.633 19.8752 144.633 18.402C144.633 16.5741 145.338 15.0191 146.748 13.7368C148.185 12.4546 149.974 11.8135 152.115 11.8135C153.471 11.8135 154.664 12.0181 155.694 12.4273C156.724 12.8093 157.524 13.314 158.093 13.9414C158.662 14.5416 159.096 15.1555 159.394 15.783C159.693 16.4104 159.882 17.0243 159.964 17.6245L155.45 18.6475C155.341 17.9382 155.016 17.3107 154.474 16.7651C153.959 16.2195 153.186 15.9467 152.156 15.9467C151.451 15.9467 150.841 16.1376 150.326 16.5196C149.838 16.9015 149.594 17.3789 149.594 17.9519C149.594 18.934 150.204 19.5342 151.424 19.7525L154.271 20.3663C156.195 20.7755 157.659 21.5258 158.662 22.617C159.693 23.7083 160.208 25.0178 160.208 26.5456C160.208 28.3462 159.53 29.9013 158.174 31.2108C156.819 32.5203 154.908 33.1751 152.441 33.1751C151.031 33.1751 149.771 32.9705 148.659 32.5612C147.548 32.1247 146.68 31.5791 146.057 30.9243C145.46 30.2423 144.999 29.5739 144.674 28.9191C144.376 28.2371 144.186 27.5823 144.105 26.9548Z" fill="white"/>
<path d="M171.225 6.41211V12.4277H175.251V17.2566H171.225V25.6866C171.225 26.5324 171.415 27.1326 171.794 27.4872C172.174 27.8419 172.77 28.0192 173.583 28.0192C174.315 28.0192 174.871 27.9647 175.251 27.8555V32.357C174.465 32.6844 173.448 32.8481 172.201 32.8481C170.249 32.8481 168.704 32.3025 167.565 31.2112C166.427 30.0926 165.857 28.5649 165.857 26.6279V17.2566H162.238V12.4277H163.255C164.258 12.4277 165.017 12.1412 165.532 11.5683C166.074 10.9681 166.345 10.1906 166.345 9.23577V6.41211H171.225Z" fill="white"/>
<path d="M185.252 32.5614H179.844V12.4275H185.252V32.5614ZM179.193 5.83896C179.193 4.91138 179.518 4.12021 180.169 3.46545C180.82 2.78341 181.606 2.44238 182.528 2.44238C183.449 2.44238 184.235 2.76976 184.886 3.42453C185.537 4.07929 185.862 4.8841 185.862 5.83896C185.862 6.73926 185.537 7.51679 184.886 8.17155C184.235 8.82631 183.449 9.1537 182.528 9.1537C181.606 9.1537 180.82 8.82631 180.169 8.17155C179.518 7.51679 179.193 6.73926 179.193 5.83896Z" fill="white"/>
<path d="M200.315 7.43492C199.556 7.43492 198.891 7.65317 198.322 8.08968C197.78 8.4989 197.509 9.20823 197.509 10.2177V12.4275H202.022V17.0927H197.509V32.5614H192.06V17.0927H188.725V12.4275H192.06V10.1358C192.06 7.87142 192.71 6.05719 194.012 4.6931C195.34 3.32901 197.116 2.64697 199.339 2.64697C200.531 2.64697 201.426 2.78338 202.022 3.05619V7.63953C201.562 7.50312 200.992 7.43492 200.315 7.43492Z" fill="white"/>
<path d="M213.443 40.5004H207.71L212.427 30.0242L203.928 12.4275H209.987L215.314 24.2132L220.234 12.4275H226.008L213.443 40.5004Z" fill="white"/>
</svg>
