<svg width="937" height="113" viewBox="0 0 937 113" fill="none" xmlns="http://www.w3.org/2000/svg">
<g opacity="0.2">
<mask id="path-1-outside-1_1_3120" maskUnits="userSpaceOnUse" x="-1" y="-1" width="939" height="115" fill="black">
<rect fill="white" x="-1" y="-1" width="939" height="115"/>
<path d="M34.392 110V21.4453H0.493334V2.47999H88.6V21.4453H54.7013V110H34.392ZM126.124 112.24C117.86 112.24 110.568 110.473 104.246 106.939C97.9742 103.355 93.0462 98.4516 89.4622 92.2293C85.928 85.9573 84.1608 78.7893 84.1608 70.7253C84.1608 61.9147 85.9031 54.2489 89.3875 47.728C92.872 41.2071 97.6755 36.1547 103.798 32.5707C109.921 28.9369 116.964 27.12 124.929 27.12C133.391 27.12 140.584 29.1111 146.508 33.0933C152.431 37.0755 156.812 42.6755 159.649 49.8933C162.486 57.1111 163.482 65.5982 162.636 75.3547H142.55V67.888C142.55 59.6747 141.231 53.776 138.593 50.192C136.004 46.5582 131.748 44.7413 125.825 44.7413C118.906 44.7413 113.804 46.8569 110.518 51.088C107.283 55.2693 105.665 61.4667 105.665 69.68C105.665 77.1964 107.283 83.0204 110.518 87.152C113.804 91.2338 118.607 93.2747 124.929 93.2747C128.911 93.2747 132.321 92.4036 135.158 90.6613C137.996 88.9191 140.161 86.4053 141.654 83.12L161.964 88.944C158.927 96.3111 154.124 102.036 147.553 106.117C141.032 110.199 133.889 112.24 126.124 112.24ZM99.3928 75.3547V60.272H152.854V75.3547H99.3928ZM211.004 112.24C200.85 112.24 192.636 109.95 186.364 105.371C180.142 100.741 176.359 94.2204 175.015 85.808L195.772 82.672C196.619 86.4551 198.485 89.4169 201.372 91.5573C204.309 93.6978 208.018 94.768 212.498 94.768C216.181 94.768 219.019 94.0711 221.01 92.6773C223.001 91.2338 223.996 89.2427 223.996 86.704C223.996 85.1111 223.598 83.8418 222.802 82.896C222.005 81.9004 220.213 80.9298 217.426 79.984C214.688 79.0382 210.407 77.7938 204.583 76.2507C198.012 74.5582 192.761 72.6667 188.828 70.576C184.896 68.4853 182.059 65.9964 180.316 63.1093C178.574 60.1724 177.703 56.6382 177.703 52.5067C177.703 47.3298 179.022 42.8498 181.66 39.0667C184.299 35.2338 188.007 32.2969 192.786 30.256C197.614 28.1653 203.289 27.12 209.81 27.12C216.131 27.12 221.731 28.0907 226.61 30.032C231.488 31.9733 235.42 34.736 238.407 38.32C241.443 41.904 243.31 46.1351 244.007 51.0133L223.25 54.7467C222.901 51.76 221.607 49.3955 219.367 47.6533C217.127 45.9111 214.091 44.8907 210.258 44.592C206.524 44.3431 203.513 44.8409 201.223 46.0853C198.983 47.3298 197.863 49.1218 197.863 51.4613C197.863 52.8551 198.336 54.0249 199.282 54.9707C200.277 55.9164 202.293 56.8871 205.33 57.8827C208.416 58.8782 213.095 60.1724 219.367 61.7653C225.49 63.3582 230.393 65.2249 234.076 67.3653C237.81 69.456 240.523 71.9947 242.215 74.9813C243.907 77.9182 244.754 81.4773 244.754 85.6587C244.754 93.9218 241.767 100.418 235.794 105.147C229.82 109.876 221.557 112.24 211.004 112.24ZM309.546 110C303.971 111.045 298.495 111.493 293.119 111.344C287.793 111.244 283.014 110.324 278.783 108.581C274.602 106.789 271.416 103.927 269.226 99.9947C267.235 96.3111 266.189 92.5778 266.09 88.7947C265.99 84.9618 265.94 80.6311 265.94 75.8027V6.95998H286.25V74.608C286.25 77.744 286.275 80.5813 286.324 83.12C286.424 85.6089 286.947 87.6 287.892 89.0933C289.684 91.9307 292.547 93.4738 296.479 93.7227C300.411 93.9716 304.767 93.7724 309.546 93.1253V110ZM252.202 45.04V29.36H309.546V45.04H252.202ZM329.009 18.16V0.23999H349.319V18.16H329.009ZM329.009 110V29.36H349.319V110H329.009ZM468.77 110V62.3627C468.77 57.0364 467.501 52.9049 464.962 49.968C462.473 46.9813 459.014 45.488 454.583 45.488C451.746 45.488 449.282 46.16 447.191 47.504C445.101 48.7982 443.458 50.64 442.263 53.0293C441.118 55.3689 440.546 58.0818 440.546 61.168L432.034 55.4933C432.034 49.968 433.328 45.0898 435.917 40.8587C438.555 36.6275 442.064 33.3422 446.445 31.0027C450.875 28.6133 455.778 27.4187 461.154 27.4187C470.363 27.4187 477.307 30.1564 481.986 35.632C486.715 41.0578 489.079 48.176 489.079 56.9867V110H468.77ZM371.554 110V29.36H389.474V56.0907H392.013V110H371.554ZM420.237 110V62.3627C420.237 57.0364 418.967 52.9049 416.429 49.968C413.94 46.9813 410.48 45.488 406.05 45.488C401.819 45.488 398.409 46.9564 395.821 49.8933C393.282 52.7804 392.013 56.5387 392.013 61.168L383.501 55.1947C383.501 49.9182 384.82 45.1893 387.458 41.008C390.096 36.8267 393.63 33.5164 398.061 31.0773C402.541 28.6382 407.543 27.4187 413.069 27.4187C419.39 27.4187 424.567 28.7627 428.599 31.4507C432.681 34.1387 435.693 37.7227 437.634 42.2027C439.575 46.6827 440.546 51.6107 440.546 56.9867V110H420.237ZM543.325 112.24C535.211 112.24 528.093 110.423 521.97 106.789C515.847 103.156 511.069 98.1529 507.634 91.7813C504.249 85.36 502.557 77.9929 502.557 69.68C502.557 61.2675 504.299 53.8755 507.783 47.504C511.268 41.0827 516.071 36.08 522.194 32.496C528.317 28.912 535.36 27.12 543.325 27.12C551.438 27.12 558.557 28.9369 564.679 32.5707C570.852 36.2044 575.655 41.232 579.09 47.6533C582.525 54.0249 584.242 61.3671 584.242 69.68C584.242 78.0427 582.5 85.4347 579.015 91.856C575.581 98.2276 570.777 103.23 564.605 106.864C558.482 110.448 551.389 112.24 543.325 112.24ZM543.325 93.2747C549.846 93.2747 554.699 91.0844 557.885 86.704C561.12 82.2738 562.738 76.5991 562.738 69.68C562.738 62.512 561.095 56.7876 557.81 52.5067C554.574 48.2258 549.746 46.0853 543.325 46.0853C538.894 46.0853 535.261 47.0809 532.423 49.072C529.586 51.0631 527.47 53.8258 526.077 57.36C524.733 60.8942 524.061 65.0009 524.061 69.68C524.061 76.8978 525.678 82.6471 528.914 86.928C532.199 91.1591 537.003 93.2747 543.325 93.2747ZM655.616 110V71.92C655.616 70.0782 655.517 67.7387 655.318 64.9013C655.119 62.0142 654.496 59.1271 653.451 56.24C652.406 53.3529 650.688 50.9387 648.299 48.9973C645.959 47.056 642.624 46.0853 638.294 46.0853C636.551 46.0853 634.685 46.3591 632.694 46.9067C630.703 47.4542 628.836 48.5244 627.094 50.1173C625.351 51.6604 623.908 53.9502 622.763 56.9867C621.668 60.0231 621.12 64.0551 621.12 69.0827L609.472 63.5573C609.472 57.1858 610.767 51.2124 613.355 45.6373C615.943 40.0622 619.826 35.5573 625.003 32.1227C630.23 28.688 636.8 26.9707 644.715 26.9707C651.037 26.9707 656.189 28.0409 660.171 30.1813C664.153 32.3218 667.239 35.0347 669.43 38.32C671.67 41.6053 673.263 45.04 674.208 48.624C675.154 52.1582 675.727 55.3938 675.926 58.3307C676.125 61.2676 676.224 63.408 676.224 64.752V110H655.616ZM600.512 110V29.36H618.582V56.0907H621.12V110H600.512ZM697.093 18.16V0.23999H717.402V18.16H697.093ZM697.093 110V29.36H717.402V110H697.093ZM762.187 112.24C756.412 112.24 751.509 111.145 747.477 108.955C743.495 106.715 740.459 103.753 738.368 100.069C736.327 96.336 735.307 92.2293 735.307 87.7493C735.307 84.016 735.879 80.6062 737.024 77.52C738.169 74.4338 740.011 71.7209 742.549 69.3813C745.138 66.992 748.597 65.0009 752.928 63.408C755.915 62.3129 759.474 61.3422 763.605 60.496C767.737 59.6498 772.416 58.8533 777.643 58.1067C782.869 57.3102 788.619 56.4391 794.891 55.4933L787.573 59.5253C787.573 54.7467 786.428 51.2373 784.139 48.9973C781.849 46.7573 778.016 45.6373 772.64 45.6373C769.653 45.6373 766.542 46.3591 763.307 47.8027C760.071 49.2462 757.806 51.8098 756.512 55.4933L738.144 49.6693C740.185 42.9991 744.018 37.5733 749.643 33.392C755.268 29.2107 762.933 27.12 772.64 27.12C779.758 27.12 786.08 28.2151 791.605 30.4053C797.131 32.5955 801.312 36.3787 804.149 41.7547C805.742 44.7413 806.688 47.728 806.987 50.7147C807.285 53.7013 807.435 57.0364 807.435 60.72V110H789.664V93.424L792.203 96.8587C788.27 102.284 784.014 106.217 779.435 108.656C774.905 111.045 769.156 112.24 762.187 112.24ZM766.517 96.2613C770.251 96.2613 773.387 95.6142 775.925 94.32C778.514 92.976 780.555 91.4578 782.048 89.7653C783.591 88.0729 784.636 86.6542 785.184 85.5093C786.229 83.3191 786.827 80.7804 786.976 77.8933C787.175 74.9564 787.275 72.5173 787.275 70.576L793.248 72.0693C787.225 73.0649 782.347 73.9111 778.613 74.608C774.88 75.2551 771.868 75.8524 769.579 76.4C767.289 76.9476 765.273 77.5449 763.531 78.192C761.54 78.9884 759.922 79.8596 758.677 80.8053C757.483 81.7013 756.587 82.6969 755.989 83.792C755.442 84.8871 755.168 86.1067 755.168 87.4507C755.168 89.2924 755.616 90.8853 756.512 92.2293C757.458 93.5236 758.777 94.5191 760.469 95.216C762.162 95.9129 764.178 96.2613 766.517 96.2613ZM828.343 110V0.23999H848.652V110H828.343ZM902.546 112.24C892.391 112.24 884.178 109.95 877.906 105.371C871.684 100.741 867.901 94.2204 866.557 85.808L887.314 82.672C888.16 86.4551 890.027 89.4169 892.914 91.5573C895.851 93.6978 899.559 94.768 904.039 94.768C907.723 94.768 910.56 94.0711 912.551 92.6773C914.542 91.2338 915.538 89.2427 915.538 86.704C915.538 85.1111 915.14 83.8418 914.343 82.896C913.547 81.9004 911.755 80.9298 908.967 79.984C906.23 79.0382 901.949 77.7938 896.125 76.2507C889.554 74.5582 884.302 72.6667 880.37 70.576C876.438 68.4853 873.6 65.9964 871.858 63.1093C870.116 60.1724 869.245 56.6382 869.245 52.5067C869.245 47.3298 870.564 42.8498 873.202 39.0667C875.84 35.2338 879.549 32.2969 884.327 30.256C889.156 28.1653 894.83 27.12 901.351 27.12C907.673 27.12 913.273 28.0907 918.151 30.032C923.03 31.9733 926.962 34.736 929.949 38.32C932.985 41.904 934.852 46.1351 935.549 51.0133L914.791 54.7467C914.443 51.76 913.149 49.3955 910.909 47.6533C908.669 45.9111 905.632 44.8907 901.799 44.592C898.066 44.3431 895.054 44.8409 892.765 46.0853C890.525 47.3298 889.405 49.1218 889.405 51.4613C889.405 52.8551 889.878 54.0249 890.823 54.9707C891.819 55.9164 893.835 56.8871 896.871 57.8827C899.958 58.8782 904.637 60.1724 910.909 61.7653C917.031 63.3582 921.934 65.2249 925.618 67.3653C929.351 69.456 932.064 71.9947 933.757 74.9813C935.449 77.9182 936.295 81.4773 936.295 85.6587C936.295 93.9218 933.309 100.418 927.335 105.147C921.362 109.876 913.099 112.24 902.546 112.24Z"/>
</mask>
<path d="M34.392 110H33.392V111H34.392V110ZM34.392 21.4453H35.392V20.4453H34.392V21.4453ZM0.493334 21.4453H-0.506666V22.4453H0.493334V21.4453ZM0.493334 2.47999V1.47999H-0.506666V2.47999H0.493334ZM88.6 2.47999H89.6V1.47999H88.6V2.47999ZM88.6 21.4453V22.4453H89.6V21.4453H88.6ZM54.7013 21.4453V20.4453H53.7013V21.4453H54.7013ZM54.7013 110V111H55.7013V110H54.7013ZM35.392 110V21.4453H33.392V110H35.392ZM34.392 20.4453H0.493334V22.4453H34.392V20.4453ZM1.49333 21.4453V2.47999H-0.506666V21.4453H1.49333ZM0.493334 3.47999H88.6V1.47999H0.493334V3.47999ZM87.6 2.47999V21.4453H89.6V2.47999H87.6ZM88.6 20.4453H54.7013V22.4453H88.6V20.4453ZM53.7013 21.4453V110H55.7013V21.4453H53.7013ZM54.7013 109H34.392V111H54.7013V109ZM104.246 106.939L103.75 107.807L103.758 107.812L104.246 106.939ZM89.4622 92.2293L88.5909 92.7203L88.5956 92.7285L89.4622 92.2293ZM89.3875 47.728L88.5055 47.2567L89.3875 47.728ZM103.798 32.5707L104.303 33.4337L104.309 33.4306L103.798 32.5707ZM146.508 33.0933L147.065 32.2634L146.508 33.0933ZM159.649 49.8933L160.58 49.5275L159.649 49.8933ZM162.636 75.3547V76.3547H163.553L163.632 75.4411L162.636 75.3547ZM142.55 75.3547H141.55V76.3547H142.55V75.3547ZM138.593 50.192L137.778 50.7722L137.783 50.7785L137.788 50.7848L138.593 50.192ZM110.518 51.088L109.728 50.4747L109.727 50.476L110.518 51.088ZM110.518 87.152L109.731 87.7686L109.739 87.779L110.518 87.152ZM135.158 90.6613L134.635 89.8092L135.158 90.6613ZM141.654 83.12L141.93 82.1587L141.101 81.921L140.744 82.7062L141.654 83.12ZM161.964 88.944L162.888 89.3251L163.314 88.291L162.239 87.9827L161.964 88.944ZM147.553 106.117L147.025 105.268L147.022 105.27L147.553 106.117ZM99.3928 75.3547H98.3928V76.3547H99.3928V75.3547ZM99.3928 60.272V59.272H98.3928V60.272H99.3928ZM152.854 60.272H153.854V59.272H152.854V60.272ZM152.854 75.3547V76.3547H153.854V75.3547H152.854ZM126.124 111.24C118.007 111.24 110.887 109.506 104.734 106.066L103.758 107.812C110.249 111.44 117.714 113.24 126.124 113.24V111.24ZM104.742 106.07C98.6234 102.574 93.8236 97.7977 90.3287 91.7302L88.5956 92.7285C92.2687 99.1054 97.325 104.135 103.75 107.807L104.742 106.07ZM90.3334 91.7384C86.8934 85.6336 85.1608 78.6384 85.1608 70.7253H83.1608C83.1608 78.9403 84.9625 86.2811 88.591 92.7202L90.3334 91.7384ZM85.1608 70.7253C85.1608 62.0477 86.8761 54.5498 90.2695 48.1993L88.5055 47.2567C84.93 53.948 83.1608 61.7817 83.1608 70.7253H85.1608ZM90.2695 48.1993C93.6708 41.8341 98.3469 36.9204 104.303 33.4337L103.293 31.7076C97.0041 35.389 92.0732 40.5801 88.5055 47.2567L90.2695 48.1993ZM104.309 33.4306C110.259 29.899 117.122 28.12 124.929 28.12V26.12C116.807 26.12 109.583 27.9747 103.288 31.7107L104.309 33.4306ZM124.929 28.12C133.23 28.12 140.22 30.0712 145.95 33.9232L147.065 32.2634C140.948 28.1511 133.552 26.12 124.929 26.12V28.12ZM145.95 33.9232C151.69 37.7823 155.948 43.2132 158.718 50.2592L160.58 49.5275C157.675 42.1379 153.172 36.3688 147.065 32.2634L145.95 33.9232ZM158.718 50.2592C161.486 57.3006 162.476 65.6263 161.639 75.2682L163.632 75.4411C164.488 65.5702 163.486 56.9216 160.58 49.5275L158.718 50.2592ZM162.636 74.3547H142.55V76.3547H162.636V74.3547ZM143.55 75.3547V67.888H141.55V75.3547H143.55ZM143.55 67.888C143.55 59.6178 142.232 53.4484 139.398 49.5992L137.788 50.7848C140.23 54.1035 141.55 59.7315 141.55 67.888H143.55ZM139.407 49.6118C136.573 45.6324 131.956 43.7413 125.825 43.7413V45.7413C131.541 45.7413 135.436 47.484 137.778 50.7722L139.407 49.6118ZM125.825 43.7413C118.695 43.7413 113.256 45.9313 109.728 50.4747L111.308 51.7013C114.351 47.7824 119.116 45.7413 125.825 45.7413V43.7413ZM109.727 50.476C106.299 54.906 104.665 61.3605 104.665 69.68H106.665C106.665 61.5728 108.266 55.6327 111.309 51.7L109.727 50.476ZM104.665 69.68C104.665 77.326 106.309 83.3991 109.731 87.7686L111.305 86.5354C108.256 82.6418 106.665 77.0669 106.665 69.68H104.665ZM109.739 87.779C113.254 92.1458 118.374 94.2747 124.929 94.2747V92.2747C118.841 92.2747 114.353 90.3218 111.297 86.525L109.739 87.779ZM124.929 94.2747C129.059 94.2747 132.658 93.3698 135.681 91.5135L134.635 89.8092C131.983 91.4373 128.763 92.2747 124.929 92.2747V94.2747ZM135.681 91.5135C138.703 89.6582 140.996 86.9846 142.565 83.5338L140.744 82.7062C139.326 85.826 137.288 88.18 134.635 89.8092L135.681 91.5135ZM141.379 84.0813L161.688 89.9053L162.239 87.9827L141.93 82.1587L141.379 84.0813ZM161.039 88.5629C158.08 95.7424 153.412 101.3 147.025 105.268L148.081 106.967C154.835 102.771 159.774 96.8798 162.888 89.3251L161.039 88.5629ZM147.022 105.27C140.662 109.251 133.703 111.24 126.124 111.24V113.24C134.075 113.24 141.402 111.147 148.083 106.965L147.022 105.27ZM100.393 75.3547V60.272H98.3928V75.3547H100.393ZM99.3928 61.272H152.854V59.272H99.3928V61.272ZM151.854 60.272V75.3547H153.854V60.272H151.854ZM152.854 74.3547H99.3928V76.3547H152.854V74.3547ZM186.364 105.371L185.767 106.173L185.775 106.178L186.364 105.371ZM175.015 85.808L174.866 84.8192L173.868 84.9699L174.028 85.9658L175.015 85.808ZM195.772 82.672L196.748 82.4537L196.545 81.544L195.623 81.6832L195.772 82.672ZM201.372 91.5573L200.777 92.3607L200.783 92.3655L201.372 91.5573ZM221.01 92.6773L221.583 93.4966L221.59 93.4918L221.597 93.4869L221.01 92.6773ZM222.802 82.896L222.021 83.5207L222.029 83.5305L222.037 83.5401L222.802 82.896ZM217.426 79.984L217.099 80.9292L217.104 80.931L217.426 79.984ZM204.583 76.2507L204.839 75.284L204.832 75.2823L204.583 76.2507ZM188.828 70.576L188.359 71.459L188.828 70.576ZM180.316 63.1093L179.456 63.6195L179.46 63.626L180.316 63.1093ZM181.66 39.0667L182.481 39.6387L182.484 39.6336L181.66 39.0667ZM192.786 30.256L193.178 31.1756L193.183 31.1737L192.786 30.256ZM226.61 30.032L226.979 29.1029L226.61 30.032ZM238.407 38.32L237.639 38.9602L237.644 38.9664L238.407 38.32ZM244.007 51.0133L244.184 51.9975L245.133 51.8268L244.997 50.8719L244.007 51.0133ZM223.25 54.7467L222.256 54.8625L222.38 55.9192L223.427 55.7309L223.25 54.7467ZM219.367 47.6533L219.981 46.864L219.367 47.6533ZM210.258 44.592L210.335 43.595L210.324 43.5942L210.258 44.592ZM201.223 46.0853L200.745 45.2067L200.737 45.2112L201.223 46.0853ZM199.282 54.9707L198.575 55.6778L198.584 55.6868L198.593 55.6957L199.282 54.9707ZM205.33 57.8827L205.018 58.8329L205.023 58.8344L205.33 57.8827ZM219.367 61.7653L219.619 60.7975L219.613 60.7961L219.367 61.7653ZM234.076 67.3653L233.574 68.2299L233.581 68.2339L233.588 68.2378L234.076 67.3653ZM242.215 74.9813L241.345 75.4744L241.349 75.4806L242.215 74.9813ZM235.794 105.147L235.173 104.363L235.794 105.147ZM211.004 111.24C200.997 111.24 193.009 108.984 186.954 104.563L185.775 106.178C192.264 110.916 200.703 113.24 211.004 113.24V111.24ZM186.961 104.568C180.97 100.111 177.31 93.8329 176.003 85.6502L174.028 85.9658C175.408 94.608 179.314 101.372 185.767 106.173L186.961 104.568ZM175.164 86.7968L195.922 83.6608L195.623 81.6832L174.866 84.8192L175.164 86.7968ZM194.796 82.8903C195.691 86.8878 197.681 90.0655 200.777 92.3606L201.968 90.754C199.29 88.7683 197.546 86.0224 196.748 82.4537L194.796 82.8903ZM200.783 92.3655C203.928 94.6572 207.856 95.768 212.498 95.768V93.768C208.179 93.768 204.691 92.7384 201.961 90.7492L200.783 92.3655ZM212.498 95.768C216.287 95.768 219.358 95.0544 221.583 93.4966L220.436 91.8581C218.679 93.0878 216.075 93.768 212.498 93.768V95.768ZM221.597 93.4869C223.857 91.8482 224.996 89.5509 224.996 86.704H222.996C222.996 88.9344 222.145 90.6193 220.423 91.8677L221.597 93.4869ZM224.996 86.704C224.996 84.9447 224.554 83.4247 223.567 82.2519L222.037 83.5401C222.642 84.2589 222.996 85.2775 222.996 86.704H224.996ZM223.583 82.2713C223.066 81.6254 222.288 81.0574 221.337 80.542C220.374 80.0209 219.173 79.5208 217.747 79.037L217.104 80.931C218.466 81.393 219.554 81.8511 220.384 82.3006C221.225 82.756 221.741 83.1711 222.021 83.5207L223.583 82.2713ZM217.752 79.0388C214.978 78.0804 210.667 76.8282 204.839 75.284L204.327 77.2173C210.147 78.7593 214.398 79.9961 217.099 80.9292L217.752 79.0388ZM204.832 75.2823C198.303 73.6004 193.134 71.7327 189.298 69.693L188.359 71.459C192.387 73.6006 197.722 75.516 204.334 77.2191L204.832 75.2823ZM189.298 69.693C185.475 67.6608 182.796 65.2829 181.173 62.5927L179.46 63.626C181.321 66.71 184.317 69.3099 188.359 71.459L189.298 69.693ZM181.176 62.5991C179.543 59.8462 178.703 56.4964 178.703 52.5067H176.703C176.703 56.78 177.605 60.4987 179.456 63.6195L181.176 62.5991ZM178.703 52.5067C178.703 47.5083 179.973 43.2338 182.481 39.6387L180.84 38.4946C178.071 42.4657 176.703 47.1513 176.703 52.5067H178.703ZM182.484 39.6336C185.003 35.9745 188.553 33.1511 193.178 31.1756L192.393 29.3363C187.461 31.4427 183.594 34.493 180.837 38.4997L182.484 39.6336ZM193.183 31.1737C197.86 29.1486 203.394 28.12 209.81 28.12V26.12C203.184 26.12 197.368 27.182 192.388 29.3383L193.183 31.1737ZM209.81 28.12C216.03 28.12 221.501 29.0751 226.24 30.9611L226.979 29.1029C221.962 27.1062 216.233 26.12 209.81 26.12V28.12ZM226.24 30.9611C230.983 32.8487 234.772 35.5195 237.639 38.9602L239.175 37.6798C236.069 33.9524 231.993 31.098 226.979 29.1029L226.24 30.9611ZM237.644 38.9664C240.553 42.3996 242.345 46.4533 243.017 51.1547L244.997 50.8719C244.275 45.8169 242.334 41.4084 239.17 37.6736L237.644 38.9664ZM243.83 50.0291L223.073 53.7625L223.427 55.7309L244.184 51.9975L243.83 50.0291ZM224.243 54.6308C223.866 51.3955 222.446 48.7814 219.981 46.864L218.753 48.4427C220.768 50.0097 221.937 52.1245 222.256 54.8625L224.243 54.6308ZM219.981 46.864C217.54 44.9658 214.296 43.9036 210.335 43.595L210.18 45.589C213.885 45.8777 216.714 46.8564 218.753 48.4427L219.981 46.864ZM210.324 43.5942C206.48 43.3379 203.259 43.8406 200.746 45.2067L201.701 46.964C203.766 45.8412 206.569 45.3483 210.191 45.5898L210.324 43.5942ZM200.737 45.2112C198.217 46.6114 196.863 48.7182 196.863 51.4613H198.863C198.863 49.5254 199.749 48.0481 201.709 46.9595L200.737 45.2112ZM196.863 51.4613C196.863 53.1079 197.433 54.5358 198.575 55.6778L199.989 54.2635C199.239 53.5139 198.863 52.6023 198.863 51.4613H196.863ZM198.593 55.6957C199.767 56.811 201.98 57.8368 205.018 58.8329L205.641 56.9324C202.606 55.9374 200.788 55.0219 199.97 54.2457L198.593 55.6957ZM205.023 58.8344C208.14 59.84 212.844 61.1405 219.121 62.7346L219.613 60.7961C213.346 59.2044 208.692 57.9164 205.637 56.931L205.023 58.8344ZM219.115 62.7331C225.188 64.3131 229.997 66.1514 233.574 68.2299L234.579 66.5007C230.789 64.2984 225.791 62.4034 219.619 60.7975L219.115 62.7331ZM233.588 68.2378C237.201 70.2611 239.762 72.6815 241.345 75.4743L243.085 74.4883C241.283 71.3078 238.419 68.6509 234.565 66.4928L233.588 68.2378ZM241.349 75.4806C242.935 78.234 243.754 81.612 243.754 85.6587H245.754C245.754 81.3427 244.88 77.6025 243.081 74.482L241.349 75.4806ZM243.754 85.6587C243.754 93.6459 240.884 99.8411 235.173 104.363L236.414 105.931C242.65 100.994 245.754 94.1977 245.754 85.6587H243.754ZM235.173 104.363C229.433 108.906 221.418 111.24 211.004 111.24V113.24C221.697 113.24 230.207 110.845 236.414 105.931L235.173 104.363ZM309.546 110L309.73 110.983L310.546 110.83V110H309.546ZM293.119 111.344L293.147 110.344L293.138 110.344L293.119 111.344ZM278.783 108.581L278.389 109.5L278.396 109.503L278.402 109.506L278.783 108.581ZM269.226 99.9947L268.346 100.47L268.352 100.481L269.226 99.9947ZM266.09 88.7947L265.09 88.8206V88.821L266.09 88.7947ZM265.94 6.95998V5.95998H264.94V6.95998H265.94ZM286.25 6.95998H287.25V5.95998H286.25V6.95998ZM286.324 83.12L285.325 83.1396L285.325 83.1498L285.325 83.16L286.324 83.12ZM287.892 89.0933L288.738 88.5593L288.737 88.5583L287.892 89.0933ZM309.546 93.1253H310.546V91.9808L309.411 92.1344L309.546 93.1253ZM252.202 45.04H251.202V46.04H252.202V45.04ZM252.202 29.36V28.36H251.202V29.36H252.202ZM309.546 29.36H310.546V28.36H309.546V29.36ZM309.546 45.04V46.04H310.546V45.04H309.546ZM309.361 109.017C303.852 110.05 298.448 110.492 293.147 110.344L293.091 112.344C298.542 112.495 304.089 112.041 309.73 110.983L309.361 109.017ZM293.138 110.344C287.916 110.247 283.263 109.344 279.164 107.657L278.402 109.506C282.766 111.303 287.67 112.242 293.1 112.344L293.138 110.344ZM279.177 107.662C275.197 105.956 272.181 103.245 270.099 99.5081L268.352 100.481C270.651 104.609 274.007 107.622 278.389 109.5L279.177 107.662ZM270.105 99.5191C268.181 95.9589 267.184 92.3783 267.089 88.7684L265.09 88.821C265.194 92.7773 266.288 96.6633 268.346 100.47L270.105 99.5191ZM267.089 88.7687C266.99 84.9463 266.94 80.6246 266.94 75.8027H264.94C264.94 80.6377 264.99 84.9772 265.09 88.8206L267.089 88.7687ZM266.94 75.8027V6.95998H264.94V75.8027H266.94ZM265.94 7.95998H286.25V5.95998H265.94V7.95998ZM285.25 6.95998V74.608H287.25V6.95998H285.25ZM285.25 74.608C285.25 77.7491 285.275 80.5931 285.325 83.1396L287.324 83.1004C287.275 80.5696 287.25 77.7389 287.25 74.608H285.25ZM285.325 83.16C285.429 85.7564 285.977 87.9379 287.048 89.6284L288.737 88.5583C287.916 87.2621 287.419 85.4613 287.324 83.08L285.325 83.16ZM287.047 89.6273C289.042 92.7855 292.227 94.4555 296.416 94.7207L296.542 92.7247C292.866 92.492 290.327 91.0758 288.738 88.5593L287.047 89.6273ZM296.416 94.7207C300.427 94.9745 304.85 94.7704 309.68 94.1163L309.411 92.1344C304.684 92.7745 300.396 92.9686 296.542 92.7247L296.416 94.7207ZM308.546 93.1253V110H310.546V93.1253H308.546ZM253.202 45.04V29.36H251.202V45.04H253.202ZM252.202 30.36H309.546V28.36H252.202V30.36ZM308.546 29.36V45.04H310.546V29.36H308.546ZM309.546 44.04H252.202V46.04H309.546V44.04ZM329.009 18.16H328.009V19.16H329.009V18.16ZM329.009 0.23999V-0.76001H328.009V0.23999H329.009ZM349.319 0.23999H350.319V-0.76001H349.319V0.23999ZM349.319 18.16V19.16H350.319V18.16H349.319ZM329.009 110H328.009V111H329.009V110ZM329.009 29.36V28.36H328.009V29.36H329.009ZM349.319 29.36H350.319V28.36H349.319V29.36ZM349.319 110V111H350.319V110H349.319ZM330.009 18.16V0.23999H328.009V18.16H330.009ZM329.009 1.23999H349.319V-0.76001H329.009V1.23999ZM348.319 0.23999V18.16H350.319V0.23999H348.319ZM349.319 17.16H329.009V19.16H349.319V17.16ZM330.009 110V29.36H328.009V110H330.009ZM329.009 30.36H349.319V28.36H329.009V30.36ZM348.319 29.36V110H350.319V29.36H348.319ZM349.319 109H329.009V111H349.319V109ZM468.77 110H467.77V111H468.77V110ZM464.962 49.968L464.194 50.6082L464.2 50.6151L464.206 50.6219L464.962 49.968ZM447.191 47.504L447.718 48.3543L447.725 48.3498L447.732 48.3452L447.191 47.504ZM442.263 53.0293L441.369 52.5821L441.365 52.5898L442.263 53.0293ZM440.546 61.168L439.991 62L441.546 63.0365V61.168H440.546ZM432.034 55.4933H431.034V56.0285L431.479 56.3254L432.034 55.4933ZM435.917 40.8587L435.068 40.3295L435.064 40.3368L435.917 40.8587ZM446.445 31.0027L446.916 31.8847L446.919 31.8828L446.445 31.0027ZM481.986 35.632L481.226 36.2817L481.232 36.289L481.986 35.632ZM489.079 110V111H490.079V110H489.079ZM371.554 110H370.554V111H371.554V110ZM371.554 29.36V28.36H370.554V29.36H371.554ZM389.474 29.36H390.474V28.36H389.474V29.36ZM389.474 56.0907H388.474V57.0907H389.474V56.0907ZM392.013 56.0907H393.013V55.0907H392.013V56.0907ZM392.013 110V111H393.013V110H392.013ZM420.237 110H419.237V111H420.237V110ZM416.429 49.968L415.66 50.6082L415.666 50.6151L415.672 50.6219L416.429 49.968ZM395.821 49.8933L395.07 49.2321L395.07 49.233L395.821 49.8933ZM392.013 61.168L391.438 61.9865L393.013 63.0914V61.168H392.013ZM383.501 55.1947H382.501V55.7146L382.926 56.0132L383.501 55.1947ZM398.061 31.0773L397.583 30.199L397.578 30.2013L398.061 31.0773ZM428.599 31.4507L428.045 32.2827L428.049 32.2858L428.599 31.4507ZM437.634 42.2027L436.716 42.6003L437.634 42.2027ZM440.546 110V111H441.546V110H440.546ZM469.77 110V62.3627H467.77V110H469.77ZM469.77 62.3627C469.77 56.8857 468.464 52.4904 465.719 49.314L464.206 50.6219C466.537 53.3193 467.77 57.1872 467.77 62.3627H469.77ZM465.73 49.3278C463.024 46.0797 459.264 44.488 454.583 44.488V46.488C458.763 46.488 461.923 47.8829 464.194 50.6082L465.73 49.3278ZM454.583 44.488C451.582 44.488 448.925 45.201 446.651 46.6628L447.732 48.3452C449.64 47.119 451.91 46.488 454.583 46.488V44.488ZM446.665 46.6537C444.403 48.054 442.639 50.0418 441.369 52.5821L443.158 53.4765C444.277 51.2382 445.798 49.5425 447.718 48.3543L446.665 46.6537ZM441.365 52.5898C440.142 55.0892 439.546 57.9574 439.546 61.168H441.546C441.546 58.2062 442.095 55.6485 443.162 53.4689L441.365 52.5898ZM441.101 60.3359L432.589 54.6613L431.479 56.3254L439.991 62L441.101 60.3359ZM433.034 55.4933C433.034 50.1306 434.288 45.4371 436.77 41.3805L435.064 40.3368C432.368 44.7425 431.034 49.8054 431.034 55.4933H433.034ZM436.765 41.3878C439.311 37.3047 442.691 34.1414 446.916 31.8847L445.974 30.1206C441.438 32.543 437.799 35.9504 435.068 40.3296L436.765 41.3878ZM446.919 31.8828C451.194 29.5775 455.932 28.4187 461.154 28.4187V26.4187C455.624 26.4187 450.556 27.6492 445.97 30.1225L446.919 31.8828ZM461.154 28.4187C470.158 28.4187 476.787 31.0874 481.226 36.2816L482.746 34.9823C477.827 29.2255 470.568 26.4187 461.154 26.4187V28.4187ZM481.232 36.289C485.769 41.4943 488.079 48.3611 488.079 56.9867H490.079C490.079 47.9909 487.661 40.6213 482.74 34.975L481.232 36.289ZM488.079 56.9867V110H490.079V56.9867H488.079ZM489.079 109H468.77V111H489.079V109ZM372.554 110V29.36H370.554V110H372.554ZM371.554 30.36H389.474V28.36H371.554V30.36ZM388.474 29.36V56.0907H390.474V29.36H388.474ZM389.474 57.0907H392.013V55.0907H389.474V57.0907ZM391.013 56.0907V110H393.013V56.0907H391.013ZM392.013 109H371.554V111H392.013V109ZM421.237 110V62.3627H419.237V110H421.237ZM421.237 62.3627C421.237 56.8857 419.931 52.4904 417.185 49.314L415.672 50.6219C418.004 53.3193 419.237 57.1872 419.237 62.3627H421.237ZM417.197 49.3278C414.49 46.0797 410.731 44.488 406.05 44.488V46.488C410.23 46.488 413.389 47.8829 415.66 50.6082L417.197 49.3278ZM406.05 44.488C401.558 44.488 397.865 46.061 395.07 49.2321L396.571 50.5545C398.953 47.8519 402.08 46.488 406.05 46.488V44.488ZM395.07 49.233C392.339 52.3383 391.013 56.3476 391.013 61.168H393.013C393.013 56.7297 394.225 53.2226 396.572 50.5537L395.07 49.233ZM392.587 60.3494L384.075 54.3761L382.926 56.0132L391.438 61.9865L392.587 60.3494ZM384.501 55.1947C384.501 50.0938 385.773 45.5524 388.304 41.5416L386.612 40.4744C383.866 44.8263 382.501 49.7426 382.501 55.1947H384.501ZM388.304 41.5416C390.85 37.5067 394.257 34.3128 398.543 31.9533L397.578 30.2013C393.004 32.72 389.343 36.1466 386.612 40.4744L388.304 41.5416ZM398.539 31.9556C402.86 29.6029 407.696 28.4187 413.069 28.4187V26.4187C407.391 26.4187 402.221 27.6735 397.583 30.1991L398.539 31.9556ZM413.069 28.4187C419.252 28.4187 424.22 29.7331 428.045 32.2827L429.154 30.6186C424.915 27.7922 419.529 26.4187 413.069 26.4187V28.4187ZM428.049 32.2858C431.969 34.8669 434.853 38.299 436.716 42.6003L438.552 41.8051C436.533 37.1464 433.393 33.4104 429.149 30.6155L428.049 32.2858ZM436.716 42.6003C438.598 46.9426 439.546 51.7335 439.546 56.9867H441.546C441.546 51.4878 440.553 46.4227 438.552 41.8051L436.716 42.6003ZM439.546 56.9867V110H441.546V56.9867H439.546ZM440.546 109H420.237V111H440.546V109ZM521.97 106.789L521.46 107.649L521.97 106.789ZM507.634 91.7813L506.749 92.2477L506.754 92.2558L507.634 91.7813ZM507.783 47.504L508.661 47.9838L508.662 47.9809L507.783 47.504ZM522.194 32.496L521.689 31.633L522.194 32.496ZM564.679 32.5707L564.169 33.4306L564.172 33.4324L564.679 32.5707ZM579.09 47.6533L578.208 48.125L578.21 48.1278L579.09 47.6533ZM579.015 91.856L578.136 91.3791L578.135 91.3815L579.015 91.856ZM564.605 106.864L565.11 107.727L565.112 107.726L564.605 106.864ZM557.885 86.704L557.077 86.1142L557.076 86.1158L557.885 86.704ZM557.81 52.5067L557.012 53.1096L557.017 53.1155L557.81 52.5067ZM532.423 49.072L532.998 49.8905L532.423 49.072ZM526.077 57.36L525.146 56.9931L525.142 57.0045L526.077 57.36ZM528.914 86.928L528.116 87.531L528.124 87.5413L528.914 86.928ZM543.325 111.24C535.365 111.24 528.428 109.459 522.48 105.929L521.46 107.649C527.757 111.387 535.057 113.24 543.325 113.24V111.24ZM522.48 105.929C516.516 102.39 511.864 97.5215 508.514 91.3068L506.754 92.2558C510.273 98.7842 515.178 103.921 521.46 107.649L522.48 105.929ZM508.519 91.315C505.22 85.0571 503.557 77.8542 503.557 69.68H501.557C501.557 78.1316 503.278 85.6629 506.749 92.2476L508.519 91.315ZM503.557 69.68C503.557 61.4085 505.269 54.1864 508.661 47.9838L506.906 47.0242C503.329 53.5647 501.557 61.1266 501.557 69.68H503.557ZM508.662 47.9809C512.062 41.715 516.739 36.848 522.699 33.359L521.689 31.633C515.404 35.312 510.473 40.4504 506.904 47.0271L508.662 47.9809ZM522.699 33.359C528.651 29.8753 535.516 28.12 543.325 28.12V26.12C535.205 26.12 527.983 27.9487 521.689 31.633L522.699 33.359ZM543.325 28.12C551.284 28.12 558.221 29.9007 564.169 33.4306L565.19 31.7107C558.892 27.973 551.593 26.12 543.325 26.12V28.12ZM564.172 33.4324C570.183 36.9714 574.859 41.8627 578.208 48.125L579.972 47.1817C576.452 40.6012 571.52 35.4375 565.187 31.7089L564.172 33.4324ZM578.21 48.1278C581.555 54.3332 583.242 61.5079 583.242 69.68H585.242C585.242 61.2263 583.495 53.7166 579.97 47.1788L578.21 48.1278ZM583.242 69.68C583.242 77.9004 581.531 85.1241 578.136 91.3791L579.894 92.3329C583.469 85.7452 585.242 78.1849 585.242 69.68H583.242ZM578.135 91.3815C574.786 97.5941 570.111 102.462 564.097 106.002L565.112 107.726C571.444 103.998 576.375 98.861 579.896 92.3305L578.135 91.3815ZM564.1 106.001C558.15 109.484 551.236 111.24 543.325 111.24V113.24C551.542 113.24 558.814 111.412 565.11 107.727L564.1 106.001ZM543.325 94.2747C550.092 94.2747 555.28 91.9857 558.693 87.2922L557.076 86.1158C554.118 90.1832 549.599 92.2747 543.325 92.2747V94.2747ZM558.692 87.2938C562.082 82.6521 563.738 76.7552 563.738 69.68H561.738C561.738 76.443 560.158 81.8954 557.077 86.1142L558.692 87.2938ZM563.738 69.68C563.738 62.3639 562.061 56.403 558.603 51.8978L557.017 53.1155C560.13 57.1721 561.738 62.6601 561.738 69.68H563.738ZM558.608 51.9037C555.145 47.3222 549.99 45.0853 543.325 45.0853V47.0853C549.502 47.0853 554.004 49.1293 557.012 53.1096L558.608 51.9037ZM543.325 45.0853C538.746 45.0853 534.896 46.1152 531.849 48.2534L532.998 49.8905C535.625 48.0466 539.043 47.0853 543.325 47.0853V45.0853ZM531.849 48.2534C528.836 50.3678 526.605 53.295 525.146 56.9931L527.007 57.7269C528.336 54.3566 530.336 51.7584 532.998 49.8905L531.849 48.2534ZM525.142 57.0045C523.746 60.6757 523.061 64.9072 523.061 69.68H525.061C525.061 65.0945 525.719 61.1127 527.011 57.7154L525.142 57.0045ZM523.061 69.68C523.061 77.041 524.711 83.0252 528.116 87.531L529.712 86.325C526.646 82.269 525.061 76.7546 525.061 69.68H523.061ZM528.124 87.5413C531.634 92.0618 536.757 94.2747 543.325 94.2747V92.2747C537.249 92.2747 532.765 90.2564 529.704 86.3147L528.124 87.5413ZM655.616 110H654.616V111H655.616V110ZM655.318 64.9013L654.32 64.9701L654.32 64.9713L655.318 64.9013ZM653.451 56.24L654.391 55.8996L653.451 56.24ZM648.299 48.9973L647.66 49.7669L647.668 49.7734L648.299 48.9973ZM632.694 46.9067L632.959 47.8709L632.694 46.9067ZM627.094 50.1173L627.757 50.8659L627.763 50.8607L627.768 50.8554L627.094 50.1173ZM622.763 56.9867L621.827 56.6339L621.825 56.6406L621.822 56.6474L622.763 56.9867ZM621.12 69.0827L620.692 69.9862L622.12 70.6638V69.0827H621.12ZM609.472 63.5573H608.472V64.1898L609.044 64.4608L609.472 63.5573ZM613.355 45.6373L612.448 45.2162L613.355 45.6373ZM625.003 32.1227L624.454 31.2869L624.45 31.2894L625.003 32.1227ZM660.171 30.1813L659.698 31.0621L660.171 30.1813ZM669.43 38.32L668.598 38.8747L668.604 38.8833L669.43 38.32ZM674.208 48.624L673.241 48.8792L673.242 48.8825L674.208 48.624ZM675.926 58.3307L674.928 58.3983L675.926 58.3307ZM676.224 110V111H677.224V110H676.224ZM600.512 110H599.512V111H600.512V110ZM600.512 29.36V28.36H599.512V29.36H600.512ZM618.582 29.36H619.582V28.36H618.582V29.36ZM618.582 56.0907H617.582V57.0907H618.582V56.0907ZM621.12 56.0907H622.12V55.0907H621.12V56.0907ZM621.12 110V111H622.12V110H621.12ZM656.616 110V71.92H654.616V110H656.616ZM656.616 71.92C656.616 70.0459 656.515 67.6809 656.315 64.8313L654.32 64.9713C654.518 67.7964 654.616 70.1105 654.616 71.92H656.616ZM656.315 64.8325C656.109 61.8472 655.466 58.8688 654.391 55.8996L652.511 56.5804C653.526 59.3854 654.128 62.1813 654.32 64.9701L656.315 64.8325ZM654.391 55.8996C653.284 52.8413 651.459 50.2767 648.93 48.2212L647.668 49.7734C649.917 51.6007 651.527 53.8644 652.511 56.5804L654.391 55.8996ZM648.938 48.2278C646.356 46.0854 642.76 45.0853 638.294 45.0853V47.0853C642.488 47.0853 645.563 48.0266 647.66 49.7669L648.938 48.2278ZM638.294 45.0853C636.447 45.0853 634.491 45.3754 632.429 45.9425L632.959 47.8709C634.879 47.3428 636.656 47.0853 638.294 47.0853V45.0853ZM632.429 45.9425C630.264 46.5376 628.261 47.6951 626.419 49.3793L627.768 50.8554C629.411 49.3538 631.141 48.3708 632.959 47.8709L632.429 45.9425ZM626.431 49.3687C624.528 51.0537 623.008 53.502 621.827 56.6339L623.699 57.3395C624.808 54.3985 626.175 52.2672 627.757 50.8659L626.431 49.3687ZM621.822 56.6474C620.672 59.8359 620.12 63.9966 620.12 69.0827H622.12C622.12 64.1136 622.663 60.2104 623.704 57.3259L621.822 56.6474ZM621.549 68.1792L609.901 62.6538L609.044 64.4608L620.692 69.9862L621.549 68.1792ZM610.472 63.5573C610.472 57.3258 611.737 51.4967 614.262 46.0584L612.448 45.2162C609.796 50.9281 608.472 57.0458 608.472 63.5573H610.472ZM614.262 46.0584C616.772 40.6527 620.531 36.2897 625.556 32.9559L624.45 31.2894C619.121 34.825 615.115 39.4718 612.448 45.2162L614.262 46.0584ZM625.552 32.9584C630.577 29.6561 636.944 27.9706 644.715 27.9706V25.9706C636.657 25.9706 629.882 27.7199 624.454 31.2869L625.552 32.9584ZM644.715 27.9706C650.934 27.9706 655.907 29.0249 659.698 31.0621L660.644 29.3005C656.47 27.0569 651.14 25.9706 644.715 25.9706V27.9706ZM659.698 31.0621C663.556 33.1363 666.511 35.7445 668.598 38.8747L670.262 37.7653C667.968 34.3248 664.75 31.5072 660.644 29.3005L659.698 31.0621ZM668.604 38.8833C670.784 42.0815 672.327 45.4129 673.241 48.8792L675.175 48.3688C674.198 44.6671 672.555 41.1291 670.256 37.7567L668.604 38.8833ZM673.242 48.8825C674.175 52.3686 674.734 55.5392 674.928 58.3983L676.923 58.263C676.719 55.2483 676.133 51.9478 675.174 48.3655L673.242 48.8825ZM674.928 58.3983C675.127 61.3326 675.224 63.4443 675.224 64.752H677.224C677.224 63.3717 677.123 61.2025 676.923 58.263L674.928 58.3983ZM675.224 64.752V110H677.224V64.752H675.224ZM676.224 109H655.616V111H676.224V109ZM601.512 110V29.36H599.512V110H601.512ZM600.512 30.36H618.582V28.36H600.512V30.36ZM617.582 29.36V56.0907H619.582V29.36H617.582ZM618.582 57.0907H621.12V55.0907H618.582V57.0907ZM620.12 56.0907V110H622.12V56.0907H620.12ZM621.12 109H600.512V111H621.12V109ZM697.093 18.16H696.093V19.16H697.093V18.16ZM697.093 0.23999V-0.76001H696.093V0.23999H697.093ZM717.402 0.23999H718.402V-0.76001H717.402V0.23999ZM717.402 18.16V19.16H718.402V18.16H717.402ZM697.093 110H696.093V111H697.093V110ZM697.093 29.36V28.36H696.093V29.36H697.093ZM717.402 29.36H718.402V28.36H717.402V29.36ZM717.402 110V111H718.402V110H717.402ZM698.093 18.16V0.23999H696.093V18.16H698.093ZM697.093 1.23999H717.402V-0.76001H697.093V1.23999ZM716.402 0.23999V18.16H718.402V0.23999H716.402ZM717.402 17.16H697.093V19.16H717.402V17.16ZM698.093 110V29.36H696.093V110H698.093ZM697.093 30.36H717.402V28.36H697.093V30.36ZM716.402 29.36V110H718.402V29.36H716.402ZM717.402 109H697.093V111H717.402V109ZM747.477 108.955L746.987 109.826L746.994 109.83L747 109.833L747.477 108.955ZM738.368 100.069L737.491 100.549L737.494 100.556L737.498 100.563L738.368 100.069ZM737.024 77.52L736.086 77.1722L737.024 77.52ZM742.549 69.3813L743.227 70.1167L743.228 70.1161L742.549 69.3813ZM752.928 63.408L752.584 62.4691L752.583 62.4695L752.928 63.408ZM763.605 60.496L763.405 59.5163L763.605 60.496ZM777.643 58.1067L777.784 59.0966L777.793 59.0952L777.643 58.1067ZM794.891 55.4933L795.373 56.3692L794.742 54.5045L794.891 55.4933ZM787.573 59.5253H786.573V61.2181L788.056 60.4012L787.573 59.5253ZM763.307 47.8027L762.899 46.8894L763.307 47.8027ZM756.512 55.4933L756.21 56.4466L757.134 56.7396L757.456 55.8248L756.512 55.4933ZM738.144 49.6693L737.188 49.3767L736.898 50.3234L737.842 50.6226L738.144 49.6693ZM749.643 33.392L749.046 32.5894L749.643 33.392ZM791.605 30.4053L791.974 29.4757L791.605 30.4053ZM804.149 41.7547L803.265 42.2214L803.267 42.2253L804.149 41.7547ZM806.987 50.7147L807.982 50.6152L806.987 50.7147ZM807.435 110V111H808.435V110H807.435ZM789.664 110H788.664V111H789.664V110ZM789.664 93.424L790.468 92.8296L788.664 90.3887V93.424H789.664ZM792.203 96.8587L793.012 97.4455L793.442 96.8529L793.007 96.2643L792.203 96.8587ZM779.435 108.656L779.901 109.54L779.905 109.539L779.435 108.656ZM775.925 94.32L776.38 95.2109L776.386 95.2075L775.925 94.32ZM782.048 89.7653L781.309 89.0916L781.304 89.0976L781.298 89.1037L782.048 89.7653ZM785.184 85.5093L786.086 85.9408L786.087 85.9401L785.184 85.5093ZM786.976 77.8933L785.978 77.8257L785.978 77.8337L785.977 77.8417L786.976 77.8933ZM787.275 70.576L787.517 69.6059L786.275 69.2952V70.576H787.275ZM793.248 72.0693L793.411 73.0559L793.491 71.0992L793.248 72.0693ZM778.613 74.608L778.784 75.5934L778.797 75.591L778.613 74.608ZM763.531 78.192L763.183 77.2546L763.171 77.2589L763.159 77.2635L763.531 78.192ZM758.677 80.8053L759.277 81.6053L759.282 81.6015L758.677 80.8053ZM755.989 83.792L755.112 83.3131L755.103 83.3288L755.095 83.3448L755.989 83.792ZM756.512 92.2293L755.68 92.784L755.692 92.802L755.705 92.8194L756.512 92.2293ZM760.469 95.216L760.089 96.1407L760.469 95.216ZM762.187 111.24C756.537 111.24 751.807 110.169 747.955 108.076L747 109.833C751.212 112.121 756.288 113.24 762.187 113.24V111.24ZM747.968 108.083C744.131 105.925 741.232 103.089 739.238 99.5757L737.498 100.563C739.686 104.417 742.859 107.504 746.987 109.826L747.968 108.083ZM739.245 99.5897C737.289 96.0113 736.307 92.0709 736.307 87.7493H734.307C734.307 92.3878 735.365 96.6607 737.491 100.549L739.245 99.5897ZM736.307 87.7493C736.307 84.119 736.863 80.8288 737.962 77.8678L736.086 77.1722C734.895 80.3836 734.307 83.913 734.307 87.7493H736.307ZM737.962 77.8678C739.049 74.9367 740.799 72.3547 743.227 70.1167L741.872 68.646C739.223 71.087 737.289 73.9308 736.086 77.1722L737.962 77.8678ZM743.228 70.1161C745.695 67.8389 749.03 65.9074 753.273 64.3465L752.583 62.4695C748.165 64.0944 744.581 66.1451 741.871 68.6465L743.228 70.1161ZM753.272 64.3469C756.2 63.2734 759.709 62.3149 763.806 61.4757L763.405 59.5163C759.239 60.3695 755.629 61.3524 752.584 62.4691L753.272 64.3469ZM763.806 61.4757C767.914 60.6343 772.573 59.8411 777.784 59.0966L777.501 57.1167C772.259 57.8655 767.56 58.6652 763.405 59.5163L763.806 61.4757ZM777.793 59.0952C783.019 58.2989 788.768 57.4279 795.04 56.4821L794.742 54.5045C788.469 55.4503 782.719 56.3215 777.492 57.1181L777.793 59.0952ZM794.408 54.6175L787.091 58.6495L788.056 60.4012L795.373 56.3692L794.408 54.6175ZM788.573 59.5253C788.573 54.6091 787.397 50.7861 784.838 48.2825L783.439 49.7122C785.46 51.6886 786.573 54.8842 786.573 59.5253H788.573ZM784.838 48.2825C782.269 45.7693 778.111 44.6373 772.64 44.6373V46.6373C777.921 46.6373 781.429 47.7453 783.439 49.7122L784.838 48.2825ZM772.64 44.6373C769.489 44.6373 766.24 45.3992 762.899 46.8894L763.714 48.7159C766.845 47.319 769.817 46.6373 772.64 46.6373V44.6373ZM762.899 46.8894C759.386 48.457 756.944 51.2482 755.569 55.1618L757.456 55.8248C758.669 52.3713 760.757 50.0354 763.714 48.7159L762.899 46.8894ZM756.814 54.5401L738.446 48.7161L737.842 50.6226L756.21 56.4466L756.814 54.5401ZM739.1 49.9619C741.078 43.4967 744.785 38.2493 750.239 34.1945L749.046 32.5894C743.251 36.8974 739.291 42.5015 737.188 49.3767L739.1 49.9619ZM750.239 34.1945C755.636 30.1825 763.067 28.12 772.64 28.12V26.12C762.799 26.12 754.899 28.2388 749.046 32.5894L750.239 34.1945ZM772.64 28.12C779.656 28.12 785.85 29.1994 791.237 31.3349L791.974 29.4757C786.311 27.2308 779.86 26.12 772.64 26.12V28.12ZM791.237 31.3349C796.535 33.4352 800.536 37.051 803.265 42.2214L805.034 41.2879C802.088 35.7063 797.726 31.7559 791.974 29.4757L791.237 31.3349ZM803.267 42.2253C804.806 45.1114 805.708 47.9729 805.992 50.8142L807.982 50.6152C807.669 47.4831 806.678 44.3712 805.032 41.2841L803.267 42.2253ZM805.992 50.8142C806.286 53.7614 806.435 57.0625 806.435 60.72H808.435C808.435 57.0103 808.284 53.6413 807.982 50.6152L805.992 50.8142ZM806.435 60.72V110H808.435V60.72H806.435ZM807.435 109H789.664V111H807.435V109ZM790.664 110V93.424H788.664V110H790.664ZM788.86 94.0184L791.399 97.453L793.007 96.2643L790.468 92.8296L788.86 94.0184ZM791.393 96.2718C787.525 101.609 783.377 105.423 778.965 107.773L779.905 109.539C784.652 107.01 789.016 102.96 793.012 97.4455L791.393 96.2718ZM778.968 107.771C774.625 110.063 769.049 111.24 762.187 111.24V113.24C769.262 113.24 775.185 112.028 779.901 109.54L778.968 107.771ZM766.517 97.2613C770.361 97.2613 773.664 96.5956 776.38 95.2109L775.471 93.4291C773.11 94.6329 770.14 95.2613 766.517 95.2613V97.2613ZM776.386 95.2075C779.054 93.8225 781.203 92.2345 782.798 90.427L781.298 89.1037C779.906 90.681 777.974 92.1295 775.465 93.4325L776.386 95.2075ZM782.787 90.4391C784.352 88.7225 785.475 87.2181 786.086 85.9408L784.282 85.0779C783.798 86.0904 782.83 87.4233 781.309 89.0916L782.787 90.4391ZM786.087 85.9401C787.198 83.6106 787.82 80.9389 787.975 77.945L785.977 77.8417C785.834 80.622 785.26 83.0276 784.282 85.0786L786.087 85.9401ZM787.974 77.961C788.174 75.0118 788.275 72.5482 788.275 70.576H786.275C786.275 72.4864 786.177 74.9011 785.978 77.8257L787.974 77.961ZM787.032 71.5461L793.005 73.0395L793.491 71.0992L787.517 69.6059L787.032 71.5461ZM793.085 71.0827C787.059 72.0788 782.173 72.9263 778.43 73.625L778.797 75.591C782.521 74.8959 787.391 74.051 793.411 73.0559L793.085 71.0827ZM778.443 73.6227C774.699 74.2715 771.665 74.8729 769.346 75.4274L769.811 77.3726C772.072 76.8319 775.061 76.2387 778.784 75.5933L778.443 73.6227ZM769.346 75.4274C767.027 75.982 764.971 76.5903 763.183 77.2546L763.879 79.1294C765.575 78.4995 767.551 77.9131 769.811 77.3726L769.346 75.4274ZM763.159 77.2635C761.113 78.0819 759.409 78.993 758.072 80.0092L759.282 81.6015C760.434 80.7261 761.966 79.895 763.902 79.1205L763.159 77.2635ZM758.077 80.0053C756.79 80.9706 755.79 82.07 755.112 83.3131L756.867 84.2708C757.384 83.3237 758.175 82.4321 759.277 81.6053L758.077 80.0053ZM755.095 83.3448C754.471 84.5919 754.168 85.9668 754.168 87.4507H756.168C756.168 86.2465 756.412 85.1823 756.884 84.2392L755.095 83.3448ZM754.168 87.4507C754.168 89.4613 754.66 91.2535 755.68 92.784L757.344 91.6746C756.572 90.5171 756.168 89.1236 756.168 87.4507H754.168ZM755.705 92.8194C756.774 94.2825 758.251 95.3838 760.089 96.1407L760.85 94.2913C759.303 93.6544 758.142 92.7646 757.319 91.6393L755.705 92.8194ZM760.089 96.1407C761.93 96.899 764.082 97.2613 766.517 97.2613V95.2613C764.274 95.2613 762.393 94.9267 760.85 94.2913L760.089 96.1407ZM828.343 110H827.343V111H828.343V110ZM828.343 0.23999V-0.76001H827.343V0.23999H828.343ZM848.652 0.23999H849.652V-0.76001H848.652V0.23999ZM848.652 110V111H849.652V110H848.652ZM829.343 110V0.23999H827.343V110H829.343ZM828.343 1.23999H848.652V-0.76001H828.343V1.23999ZM847.652 0.23999V110H849.652V0.23999H847.652ZM848.652 109H828.343V111H848.652V109ZM877.906 105.371L877.309 106.173L877.316 106.178L877.906 105.371ZM866.557 85.808L866.407 84.8192L865.41 84.9699L865.569 85.9658L866.557 85.808ZM887.314 82.672L888.29 82.4537L888.086 81.544L887.165 81.6832L887.314 82.672ZM892.914 91.5573L892.318 92.3607L892.325 92.3655L892.914 91.5573ZM912.551 92.6773L913.125 93.4966L913.132 93.4918L913.138 93.4869L912.551 92.6773ZM914.343 82.896L913.562 83.5207L913.57 83.5305L913.578 83.5401L914.343 82.896ZM908.967 79.984L908.641 80.9292L908.646 80.931L908.967 79.984ZM896.125 76.2507L896.381 75.284L896.374 75.2823L896.125 76.2507ZM880.37 70.576L879.901 71.459L880.37 70.576ZM871.858 63.1093L870.998 63.6195L871.002 63.626L871.858 63.1093ZM873.202 39.0667L874.022 39.6387L874.026 39.6336L873.202 39.0667ZM884.327 30.256L884.72 31.1756L884.725 31.1737L884.327 30.256ZM918.151 30.032L918.521 29.1029L918.151 30.032ZM929.949 38.32L929.18 38.9602L929.186 38.9664L929.949 38.32ZM935.549 51.0133L935.726 51.9975L936.675 51.8268L936.539 50.8719L935.549 51.0133ZM914.791 54.7467L913.798 54.8625L913.921 55.9192L914.968 55.7309L914.791 54.7467ZM910.909 47.6533L911.523 46.864L910.909 47.6533ZM901.799 44.592L901.877 43.595L901.866 43.5942L901.799 44.592ZM892.765 46.0853L892.287 45.2067L892.279 45.2112L892.765 46.0853ZM890.823 54.9707L890.116 55.6778L890.125 55.6868L890.135 55.6957L890.823 54.9707ZM896.871 57.8827L896.56 58.8329L896.564 58.8344L896.871 57.8827ZM910.909 61.7653L911.161 60.7975L911.155 60.7961L910.909 61.7653ZM925.618 67.3653L925.116 68.2299L925.122 68.2339L925.129 68.2378L925.618 67.3653ZM933.757 74.9813L932.887 75.4744L932.89 75.4806L933.757 74.9813ZM927.335 105.147L926.715 104.363L927.335 105.147ZM902.546 111.24C892.538 111.24 884.551 108.984 878.496 104.563L877.316 106.178C883.805 110.916 892.244 113.24 902.546 113.24V111.24ZM878.503 104.568C872.512 100.111 868.852 93.8329 867.544 85.6502L865.569 85.9658C866.95 94.608 870.856 101.372 877.309 106.173L878.503 104.568ZM866.706 86.7968L887.463 83.6608L887.165 81.6832L866.407 84.8192L866.706 86.7968ZM886.338 82.8903C887.232 86.8878 889.223 90.0655 892.318 92.3606L893.51 90.754C890.831 88.7683 889.088 86.0224 888.29 82.4537L886.338 82.8903ZM892.325 92.3655C895.469 94.6572 899.398 95.768 904.039 95.768V93.768C899.721 93.768 896.232 92.7384 893.503 90.7492L892.325 92.3655ZM904.039 95.768C907.829 95.768 910.899 95.0544 913.125 93.4966L911.978 91.8581C910.221 93.0878 907.617 93.768 904.039 93.768V95.768ZM913.138 93.4869C915.399 91.8482 916.538 89.5509 916.538 86.704H914.538C914.538 88.9344 913.686 90.6193 911.964 91.8677L913.138 93.4869ZM916.538 86.704C916.538 84.9447 916.096 83.4247 915.108 82.2519L913.578 83.5401C914.184 84.2589 914.538 85.2775 914.538 86.704H916.538ZM915.124 82.2713C914.607 81.6254 913.83 81.0574 912.878 80.542C911.916 80.0209 910.715 79.5208 909.289 79.037L908.646 80.931C910.008 81.393 911.096 81.8511 911.926 82.3006C912.766 82.756 913.283 83.1711 913.562 83.5207L915.124 82.2713ZM909.294 79.0388C906.519 78.0804 902.209 76.8282 896.381 75.284L895.869 77.2173C901.688 78.7593 905.94 79.9961 908.641 80.9292L909.294 79.0388ZM896.374 75.2823C889.845 73.6004 884.676 71.7327 880.839 69.693L879.901 71.459C883.929 73.6006 889.264 75.516 895.875 77.2191L896.374 75.2823ZM880.839 69.693C877.017 67.6608 874.338 65.2829 872.714 62.5927L871.002 63.626C872.863 66.71 875.858 69.3099 879.901 71.459L880.839 69.693ZM872.718 62.5991C871.085 59.8462 870.245 56.4964 870.245 52.5067H868.245C868.245 56.78 869.147 60.4987 870.998 63.6195L872.718 62.5991ZM870.245 52.5067C870.245 47.5083 871.515 43.2338 874.022 39.6387L872.382 38.4946C869.612 42.4657 868.245 47.1513 868.245 52.5067H870.245ZM874.026 39.6336C876.544 35.9745 880.095 33.1511 884.72 31.1756L883.935 29.3363C879.003 31.4427 875.136 34.493 872.378 38.4997L874.026 39.6336ZM884.725 31.1737C889.402 29.1486 894.935 28.12 901.351 28.12V26.12C894.726 26.12 888.91 27.182 883.93 29.3383L884.725 31.1737ZM901.351 28.12C907.572 28.12 913.042 29.0751 917.782 30.9611L918.521 29.1029C913.504 27.1062 907.775 26.12 901.351 26.12V28.12ZM917.782 30.9611C922.525 32.8487 926.313 35.5195 929.18 38.9602L930.717 37.6798C927.611 33.9524 923.534 31.098 918.521 29.1029L917.782 30.9611ZM929.186 38.9664C932.094 42.3996 933.887 46.4533 934.559 51.1547L936.539 50.8719C935.817 45.8169 933.876 41.4084 930.712 37.6736L929.186 38.9664ZM935.372 50.0291L914.614 53.7625L914.968 55.7309L935.726 51.9975L935.372 50.0291ZM915.785 54.6308C915.407 51.3955 913.988 48.7814 911.523 46.864L910.295 48.4427C912.31 50.0097 913.479 52.1245 913.798 54.8625L915.785 54.6308ZM911.523 46.864C909.082 44.9658 905.838 43.9036 901.877 43.595L901.722 45.589C905.427 45.8777 908.255 46.8564 910.295 48.4427L911.523 46.864ZM901.866 43.5942C898.022 43.3379 894.801 43.8406 892.287 45.2067L893.242 46.964C895.308 45.8412 898.11 45.3483 901.733 45.5898L901.866 43.5942ZM892.279 45.2112C889.759 46.6114 888.405 48.7182 888.405 51.4613H890.405C890.405 49.5254 891.291 48.0481 893.25 46.9595L892.279 45.2112ZM888.405 51.4613C888.405 53.1079 888.974 54.5358 890.116 55.6778L891.53 54.2635C890.781 53.5139 890.405 52.6023 890.405 51.4613H888.405ZM890.135 55.6957C891.309 56.811 893.522 57.8368 896.56 58.8329L897.183 56.9324C894.148 55.9374 892.329 55.0219 891.512 54.2457L890.135 55.6957ZM896.564 58.8344C899.682 59.84 904.386 61.1405 910.663 62.7346L911.155 60.7961C904.887 59.2044 900.233 57.9164 897.178 56.931L896.564 58.8344ZM910.657 62.7331C916.73 64.3131 921.539 66.1514 925.116 68.2299L926.12 66.5007C922.33 64.2984 917.333 62.4034 911.161 60.7975L910.657 62.7331ZM925.129 68.2378C928.742 70.2611 931.304 72.6815 932.887 75.4743L934.627 74.4883C932.824 71.3078 929.96 68.6509 926.107 66.4928L925.129 68.2378ZM932.89 75.4806C934.477 78.234 935.295 81.612 935.295 85.6587H937.295C937.295 81.3427 936.421 77.6025 934.623 74.482L932.89 75.4806ZM935.295 85.6587C935.295 93.6459 932.426 99.8411 926.715 104.363L927.956 105.931C934.191 100.994 937.295 94.1977 937.295 85.6587H935.295ZM926.715 104.363C920.975 108.906 912.959 111.24 902.546 111.24V113.24C913.239 113.24 921.749 110.845 927.956 105.931L926.715 104.363Z" fill="white" mask="url(#path-1-outside-1_1_3120)"/>
</g>
</svg>
