<svg width="252" height="104" viewBox="0 0 252 104" fill="none" xmlns="http://www.w3.org/2000/svg">
<path d="M79.0648 52.7626C88.7838 52.7626 95.3333 59.6456 95.3333 69.8439C95.3333 79.0211 87.8057 86.6666 77.61 86.6666C66.4424 86.6666 58.1905 77.4894 58.1905 63.4715C58.1905 31.6097 81.0086 18.8649 95.3333 17.3333V31.3513C85.6205 33.135 74.7005 43.0749 74.2114 54.0422C74.7005 53.79 76.6381 52.7626 79.0648 52.7626ZM29.5471 52.7626C39.2538 52.7626 45.8095 59.6456 45.8095 69.8439C45.8095 79.0211 38.2819 86.6666 28.0862 86.6666C16.9186 86.6666 8.66666 77.4894 8.66666 63.4715C8.66666 31.6097 31.4848 18.8649 45.8095 17.3333V31.3513C36.0967 33.135 25.1767 43.0749 24.6876 54.0422C25.1767 53.79 27.1143 52.7626 29.5471 52.7626Z" fill="white" fill-opacity="0.1"/>
<path d="M143.014 35.797V33.4822H153.919V35.797H149.854V46.7595H147.079V35.797H143.014Z" fill="white"/>
<path d="M160.205 46.954C159.186 46.954 158.307 46.7452 157.567 46.3278C156.827 45.9104 156.258 45.3198 155.86 44.5537C155.464 43.7852 155.267 42.8768 155.267 41.8261C155.267 40.8015 155.464 39.9038 155.86 39.1318C156.258 38.3574 156.819 37.7538 157.544 37.3197C158.267 36.8869 159.119 36.6699 160.096 36.6699C160.971 36.6699 161.762 36.8572 162.468 37.2296C163.176 37.5996 163.737 38.1617 164.152 38.9136C164.569 39.6631 164.778 40.6011 164.778 41.7265V42.4855H157.994V42.495C157.994 43.2385 158.196 43.8232 158.602 44.2501C159.01 44.677 159.56 44.8905 160.252 44.8905C160.714 44.8905 161.112 44.7944 161.448 44.6011C161.786 44.4055 162.024 44.1173 162.164 43.7378L164.716 43.9086C164.523 44.8324 164.031 45.5712 163.241 46.1238C162.45 46.6777 161.438 46.954 160.205 46.954ZM157.994 40.7731H162.178C162.171 40.1825 161.98 39.6951 161.604 39.312C161.227 38.9266 160.739 38.7333 160.139 38.7333C159.524 38.7333 159.021 38.9326 158.63 39.331C158.238 39.7271 158.025 40.2074 157.994 40.7731Z" fill="white"/>
<path d="M174.863 39.6393L172.335 39.7959C172.265 39.4769 172.089 39.2029 171.808 38.9752C171.53 38.7452 171.15 38.629 170.67 38.629C170.243 38.629 169.88 38.7191 169.583 38.8993C169.286 39.0772 169.14 39.3156 169.147 39.6156C169.14 39.8528 169.234 40.0544 169.427 40.2181C169.619 40.3829 169.946 40.5145 170.409 40.6118L172.211 40.977C174.128 41.3696 175.087 42.2673 175.091 43.6714C175.091 44.326 174.899 44.9 174.517 45.3933C174.134 45.8843 173.608 46.2661 172.942 46.5413C172.278 46.8164 171.515 46.954 170.656 46.954C169.337 46.954 168.285 46.6788 167.501 46.1286C166.72 45.576 166.264 44.8241 166.135 43.8754L168.853 43.7331C168.938 44.1386 169.138 44.4446 169.451 44.6533C169.766 44.8597 170.169 44.9617 170.66 44.9617C171.146 44.9617 171.538 44.8668 171.832 44.677C172.128 44.4873 172.279 44.2454 172.283 43.9513C172.27 43.4579 171.844 43.1283 171.007 42.9599L169.28 42.6183C167.354 42.2329 166.393 41.2842 166.401 39.7722C166.397 38.8116 166.781 38.0538 167.553 37.5C168.324 36.9474 169.347 36.6699 170.622 36.6699C171.881 36.6699 172.872 36.9355 173.597 37.4668C174.32 37.9981 174.742 38.7226 174.863 39.6393Z" fill="white"/>
<path d="M182.131 36.8027V38.8756H180.257V43.6998C180.257 44.0793 180.342 44.3378 180.513 44.473C180.686 44.6059 180.913 44.6723 181.191 44.6723C181.321 44.6723 181.45 44.6616 181.58 44.6391C181.71 44.6142 181.809 44.5952 181.879 44.5821L182.311 46.6361C182.174 46.6812 181.98 46.731 181.727 46.7879C181.477 46.8472 181.174 46.884 180.817 46.897C179.811 46.9373 179.005 46.7203 178.397 46.2424C177.79 45.7657 177.489 45.0375 177.496 44.0603V38.8756H176.135V36.8027H177.496V34.4166H180.257V36.8027H182.131Z" fill="white"/>
<path d="M183.924 46.7595V36.8027H186.69V46.7595H183.924ZM185.177 35.5172C184.771 35.5172 184.422 35.3796 184.128 35.1045C183.834 34.8294 183.687 34.5009 183.687 34.1178C183.687 33.7324 183.834 33.4039 184.128 33.1312C184.422 32.8596 184.771 32.7232 185.177 32.7232C185.587 32.7232 185.94 32.8596 186.235 33.1312C186.529 33.4039 186.676 33.7324 186.676 34.1178C186.676 34.5009 186.529 34.8294 186.235 35.1045C185.94 35.3796 185.587 35.5172 185.177 35.5172Z" fill="white"/>
<path d="M188.89 46.7595V36.8027H191.523V38.5578H191.642C191.85 37.9696 192.197 37.5083 192.68 37.1727C193.167 36.8383 193.745 36.6699 194.417 36.6699C195.1 36.6699 195.68 36.8406 196.158 37.1822C196.638 37.5213 196.959 37.9791 197.12 38.5578H197.225C197.426 37.9886 197.795 37.532 198.33 37.1869C198.864 36.843 199.497 36.6699 200.228 36.6699C201.154 36.6699 201.908 36.9663 202.49 37.5569C203.071 38.1451 203.363 38.98 203.363 40.0615V46.7595H200.607V40.607C200.607 40.0544 200.46 39.6393 200.166 39.3642C199.872 39.0867 199.504 38.9468 199.065 38.9468C198.563 38.9468 198.17 39.1069 197.889 39.4259C197.61 39.7461 197.471 40.1635 197.471 40.6782V46.7595H194.791V40.5501C194.791 40.0603 194.651 39.6714 194.374 39.3832C194.095 39.0926 193.729 38.9468 193.273 38.9468C192.814 38.9468 192.43 39.1152 192.121 39.4496C191.81 39.7852 191.656 40.2299 191.656 40.7826V46.7595H188.89Z" fill="white"/>
<path d="M210.04 46.954C209.031 46.954 208.159 46.7393 207.426 46.3088C206.696 45.8795 206.131 45.2783 205.733 44.5063C205.337 43.7354 205.14 42.8389 205.14 41.8167C205.14 40.7897 205.337 39.8896 205.733 39.1176C206.131 38.3467 206.696 37.7455 207.426 37.315C208.159 36.8857 209.031 36.6699 210.04 36.6699C211.046 36.6699 211.915 36.8857 212.649 37.315C213.382 37.7455 213.946 38.3467 214.343 39.1176C214.741 39.8896 214.94 40.7897 214.94 41.8167C214.94 42.8389 214.741 43.7354 214.343 44.5063C213.946 45.2783 213.382 45.8795 212.649 46.3088C211.915 46.7393 211.046 46.954 210.04 46.954ZM210.054 44.8146C210.737 44.8146 211.254 44.53 211.605 43.9608C211.957 43.3892 212.132 42.6681 212.132 41.7977C212.132 40.932 211.957 40.2121 211.605 39.6393C211.254 39.0642 210.737 38.776 210.054 38.776C209.358 38.776 208.832 39.0642 208.475 39.6393C208.12 40.2121 207.943 40.932 207.943 41.7977C207.943 42.6681 208.12 43.3892 208.475 43.9608C208.832 44.53 209.358 44.8146 210.054 44.8146Z" fill="white"/>
<path d="M219.506 41.0008V46.7595H216.741V36.8027H219.374V38.5578H219.492C219.716 37.9791 220.086 37.5213 220.602 37.1822C221.12 36.8406 221.748 36.6699 222.485 36.6699C223.522 36.6699 224.354 37.0055 224.98 37.6755C225.609 38.3432 225.924 39.2575 225.924 40.4173V46.7595H223.164V40.9106C223.166 40.3011 223.009 39.8243 222.694 39.4828C222.377 39.1389 221.942 38.9658 221.39 38.9658C220.832 38.9658 220.38 39.1448 220.033 39.5018C219.684 39.8599 219.509 40.3592 219.506 41.0008Z" fill="white"/>
<path d="M228.092 46.7595V36.8027H230.858V46.7595H228.092ZM229.345 35.5172C228.939 35.5172 228.591 35.3796 228.296 35.1045C228.002 34.8294 227.855 34.5009 227.855 34.1178C227.855 33.7324 228.002 33.4039 228.296 33.1312C228.591 32.8596 228.939 32.7232 229.345 32.7232C229.755 32.7232 230.108 32.8596 230.403 33.1312C230.697 33.4039 230.844 33.7324 230.844 34.1178C230.844 34.5009 230.697 34.8294 230.403 35.1045C230.108 35.3796 229.755 35.5172 229.345 35.5172Z" fill="white"/>
<path d="M235.9 46.9492C234.948 46.9492 234.159 46.7014 233.533 46.2045C232.907 45.7052 232.594 44.964 232.594 43.9797C232.594 43.2374 232.767 42.6539 233.115 42.2293C233.466 41.806 233.926 41.4965 234.496 41.2996C235.065 41.1004 235.678 40.9711 236.336 40.9106C237.2 40.8252 237.816 40.7351 238.186 40.6402C238.559 40.5454 238.746 40.3367 238.746 40.0141V39.9761C238.746 39.5658 238.615 39.248 238.357 39.0227C238.101 38.7985 237.737 38.6859 237.266 38.6859C236.769 38.6859 236.374 38.795 236.08 39.0132C235.786 39.229 235.591 39.5018 235.497 39.8338L232.945 39.6251C233.134 38.7179 233.605 37.9981 234.358 37.4668C235.114 36.9355 236.087 36.6699 237.28 36.6699C238.02 36.6699 238.71 36.7873 239.353 37.0209C239.998 37.2557 240.518 37.621 240.914 38.1167C241.309 38.61 241.507 39.2527 241.507 40.0426V46.7595H238.888V45.3791H238.812C238.568 45.8416 238.205 46.2187 237.721 46.5128C237.24 46.8034 236.633 46.9492 235.9 46.9492ZM236.692 45.0423C237.296 45.0423 237.792 44.8668 238.181 44.5158C238.57 44.1624 238.765 43.7236 238.765 43.2018V42.144C238.657 42.2175 238.49 42.2815 238.262 42.3385C238.034 42.3954 237.792 42.4452 237.536 42.4855C237.28 42.527 237.05 42.5614 236.849 42.5899C236.365 42.6598 235.973 42.7962 235.677 42.9978C235.379 43.2006 235.231 43.4959 235.231 43.8849C235.231 44.2679 235.369 44.5573 235.644 44.7529C235.919 44.9462 236.267 45.0423 236.692 45.0423Z" fill="white"/>
<path d="M246.417 33.4822V46.7595H243.651V33.4822H246.417Z" fill="white"/>
<path d="M121.634 26.2324C113.902 26.2324 107.635 32.5011 107.635 40.2319C107.635 47.964 113.902 54.2315 121.634 54.2315C129.365 54.2315 135.634 47.9628 135.634 40.2319C135.634 32.5011 129.365 26.2324 121.634 26.2324ZM118.205 43.9912C118.205 44.7478 117.592 45.3598 116.836 45.3598C116.08 45.3598 115.468 44.7478 115.468 43.9912V38.1566C115.468 37.4 116.08 36.7869 116.836 36.7869C117.592 36.7869 118.205 37.4 118.205 38.1566V43.9912ZM127.872 43.8928C127.872 44.9625 127.247 45.3455 126.177 45.3455H121.256C120.186 45.3455 119.319 44.4786 119.319 43.409V38.5681C119.319 38.5681 119.223 37.7629 120.115 37.0063C120.619 36.5782 121.367 35.7611 121.89 34.7697C122.929 32.7999 123.551 32.2259 124.024 32.3801C125.777 32.9482 124.9 35.5465 124.335 36.6316H125.936C127.004 36.6316 127.872 37.4984 127.872 38.5681V43.8928Z" fill="#DCA629"/>
</svg>
