<svg width="100" height="100" viewBox="0 0 100 100" fill="none" xmlns="http://www.w3.org/2000/svg">
<circle cx="50" cy="50" r="50" fill="#0B0B0B"/>
<g clip-path="url(#clip0_11_3)">
<path d="M32.1617 75.576L35.9687 72.6317L40.3025 74.7233L38.6823 70.199L42.0129 66.728L37.2077 66.8784L34.9304 62.64L33.5812 67.2597L28.8412 68.1124L32.8188 70.8209L32.1617 75.576ZM49.8176 80L51.6384 75.5459L56.4335 75.1898L52.7669 72.0799L53.9156 67.4051L49.8226 69.9381L45.7296 67.4051L46.8783 72.0799L43.2016 75.1898L47.9968 75.5459L49.8176 80ZM35.6377 46.3183C37.8647 45.4857 40.7087 44.4223 42.7552 43.1533C45.1027 45.3302 46.6275 47.8081 46.7479 50.8176H52.9074C53.0278 47.8081 54.5526 45.3302 56.9 43.1533C58.9465 44.4223 61.7905 45.4807 64.0176 46.3183C70.5783 48.7711 67.3732 53.2503 63.5461 57.0222C60.0349 60.4782 55.1846 62.6149 49.8226 62.6149C44.4606 62.6149 39.6153 60.4832 36.0991 57.0222C32.3272 53.3055 29.0318 48.7862 35.6377 46.3183ZM44.9923 40.0936C45.0926 39.271 42.6649 36.1562 42.2235 34.6564C41.2705 33.1516 40.9345 30.744 41.9727 29.149C42.3891 28.517 42.2085 27.3834 42.2085 26.5156C42.2085 17.8331 57.4217 17.8231 57.4217 26.5156C57.4217 27.6141 57.1709 28.4518 57.7678 29.3145C58.7659 30.7591 58.2493 33.3222 57.4066 34.6664C56.8699 36.2364 54.3218 39.2108 54.5024 40.1037C54.6529 44.5527 44.9572 44.4073 44.9923 40.0936ZM80.6352 62.4093L77.6909 58.6073L79.7825 54.2735L75.2531 55.8987L71.7821 52.5681L71.9326 57.3733L67.6942 59.6506L72.3138 60.9948L73.1665 65.7348L75.8701 61.7572L80.6352 62.4093ZM67.4735 75.576L66.8264 70.8059L70.804 68.0973L66.069 67.2396L64.7248 62.62L62.4476 66.8584L57.6373 66.7079L60.9679 70.1789L59.3327 74.7133L63.6664 72.6216L67.4735 75.576ZM19 62.4043L23.7701 61.7572L26.4787 65.7348L27.3364 60.9998L31.956 59.6556L27.7176 57.3784L27.8681 52.5731L24.3921 55.9037L19.8527 54.2735L21.9443 58.6073L19 62.4043Z" fill="#DCA629"/>
</g>
<defs>
<clipPath id="clip0_11_3">
<rect width="61.6352" height="60" fill="white" transform="translate(19 20)"/>
</clipPath>
</defs>
</svg>
