<svg width="100" height="100" viewBox="0 0 100 100" fill="none" xmlns="http://www.w3.org/2000/svg">
<circle cx="50" cy="50" r="50" fill="#0B0B0B"/>
<path d="M49.8852 26.2554C51.0218 26.2554 52.1329 26.5924 53.0779 27.2239C54.0229 27.8553 54.7595 28.7528 55.1945 29.8029C55.6294 30.853 55.7432 32.0084 55.5215 33.1232C55.2997 34.2379 54.7524 35.2619 53.9487 36.0656C53.1451 36.8693 52.1211 37.4166 51.0063 37.6383C49.8916 37.86 48.7361 37.7462 47.6861 37.3113C46.636 36.8763 45.7385 36.1398 45.107 35.1947C44.4756 34.2497 44.1385 33.1386 44.1385 32.002C44.1385 30.4779 44.744 29.0162 45.8217 27.9385C46.8994 26.8608 48.3611 26.2554 49.8852 26.2554ZM58.5499 54.8419L59.8717 44.7597C59.9508 44.0717 59.8837 43.3747 59.6748 42.7144C59.4658 42.0541 59.1197 41.4454 58.6592 40.9282C58.1986 40.4109 57.634 39.9969 57.0022 39.713C56.3705 39.4292 55.6859 39.282 54.9934 39.2812H53.2311C53.1426 39.2814 53.0552 39.3016 52.9756 39.3403C52.896 39.379 52.8262 39.4352 52.7713 39.5047L49.9874 42.9782C49.8916 43.0995 49.7958 43.0995 49.7001 42.9782L46.9161 39.5047C46.8606 39.4343 46.7897 39.3776 46.7089 39.3389C46.6282 39.3002 46.5396 39.2804 46.45 39.2812H44.7771C44.084 39.2811 43.3987 39.4276 42.7662 39.7111C42.1337 39.9945 41.5683 40.4085 41.107 40.9258C40.6458 41.4431 40.2991 42.0521 40.0898 42.7129C39.8804 43.3736 39.8132 44.0711 39.8924 44.7597L41.2141 54.8355C41.2979 55.5797 41.5788 56.2881 42.0278 56.8875C42.4767 57.4869 43.0776 57.9556 43.7682 58.2452L45.9583 73.0844C46.012 73.6094 46.2585 74.0959 46.6501 74.4497C47.0416 74.8035 47.5505 74.9996 48.0782 75H51.6092C52.1322 74.9984 52.6362 74.804 53.0249 74.4542C53.4137 74.1043 53.6598 73.6235 53.7163 73.1036L55.9192 58.3027C56.6289 58.0164 57.248 57.5437 57.7111 56.9345C58.1741 56.3253 58.464 55.6023 58.5499 54.8419ZM27.8243 51.8792C27.8257 52.0811 27.8824 52.2789 27.9883 52.4508C28.0942 52.6228 28.2452 52.7625 28.4249 52.8547C28.6046 52.9468 28.8061 52.9879 29.0076 52.9736C29.2091 52.9592 29.4027 52.8899 29.5675 52.7731L34.6757 49.1144C34.8193 49.013 34.9365 48.8786 35.0173 48.7224C35.0982 48.5663 35.1404 48.3931 35.1404 48.2173C35.1404 48.0415 35.0982 47.8682 35.0173 47.7121C34.9365 47.556 34.8193 47.4216 34.6757 47.3201L29.5675 43.6614C29.4027 43.5447 29.2091 43.4753 29.0076 43.461C28.8061 43.4466 28.6046 43.4877 28.4249 43.5799C28.2452 43.672 28.0942 43.8117 27.9883 43.9837C27.8824 44.1557 27.8257 44.3534 27.8243 44.5554V45.5323H20.3473C19.99 45.5323 19.6473 45.6742 19.3946 45.9269C19.1419 46.1796 19 46.5222 19 46.8796V49.6124C19 49.9698 19.1419 50.3124 19.3946 50.5651C19.6473 50.8178 19.99 50.9597 20.3473 50.9597H27.8243V51.8792ZM79.4232 45.5323H71.9461V44.5554C71.9447 44.3534 71.888 44.1557 71.7822 43.9837C71.6763 43.8117 71.5253 43.672 71.3456 43.5799C71.1658 43.4877 70.9643 43.4466 70.7628 43.461C70.5614 43.4753 70.3677 43.5447 70.2029 43.6614L65.0948 47.3201C64.9512 47.4216 64.834 47.556 64.7531 47.7121C64.6722 47.8682 64.63 48.0415 64.63 48.2173C64.63 48.3931 64.6722 48.5663 64.7531 48.7224C64.834 48.8786 64.9512 49.013 65.0948 49.1144L70.2029 52.7731C70.3677 52.8899 70.5614 52.9592 70.7628 52.9736C70.9643 52.9879 71.1658 52.9468 71.3456 52.8547C71.5253 52.7625 71.6763 52.6228 71.7822 52.4508C71.888 52.2789 71.9447 52.0811 71.9461 51.8792V50.9278H79.4232C79.7805 50.9278 80.1232 50.7858 80.3758 50.5332C80.6285 50.2805 80.7705 49.9378 80.7705 49.5805V46.854C80.7638 46.5012 80.6189 46.165 80.3669 45.9178C80.115 45.6707 79.7761 45.5322 79.4232 45.5323ZM74.7364 27.3472L72.8209 25.4317C72.6956 25.305 72.5464 25.2045 72.382 25.1359C72.2176 25.0673 72.0412 25.0319 71.8631 25.0319C71.6849 25.0319 71.5086 25.0673 71.3442 25.1359C71.1798 25.2045 71.0306 25.305 70.9053 25.4317L65.6184 30.7186L64.9479 30.0482C64.8042 29.9064 64.6243 29.8067 64.4279 29.76C64.2314 29.7133 64.026 29.7213 63.8338 29.7832C63.6416 29.845 63.47 29.9584 63.3377 30.1109C63.2054 30.2635 63.1175 30.4494 63.0834 30.6484L62.0618 36.8484C62.03 37.0231 62.0411 37.2029 62.094 37.3724C62.147 37.5418 62.2402 37.696 62.3658 37.8215C62.4913 37.9471 62.6454 38.0403 62.8149 38.0932C62.9844 38.1462 63.1642 38.1572 63.3388 38.1255L69.5389 37.1038C69.7379 37.0698 69.9238 36.9818 70.0763 36.8495C70.2289 36.7173 70.3422 36.5457 70.4041 36.3535C70.466 36.1613 70.474 35.9558 70.4272 35.7594C70.3805 35.563 70.2809 35.3831 70.1391 35.2393L69.4686 34.5689L74.7556 29.2819C74.8839 29.1551 74.9855 29.0037 75.0542 28.8368C75.1229 28.67 75.1574 28.491 75.1556 28.3105C75.1538 28.1301 75.1158 27.9518 75.0438 27.7864C74.9718 27.6209 74.8672 27.4715 74.7364 27.3472ZM25.034 29.2628L30.321 34.5497L29.6505 35.2202C29.5087 35.3639 29.4091 35.5438 29.3624 35.7402C29.3156 35.9367 29.3236 36.1421 29.3855 36.3343C29.4474 36.5265 29.5608 36.6981 29.7133 36.8304C29.8658 36.9627 30.0517 37.0506 30.2507 37.0847L36.4763 38.0935C36.651 38.1253 36.8308 38.1142 37.0002 38.0613C37.1697 38.0084 37.3238 37.9151 37.4494 37.7896C37.5749 37.664 37.6682 37.5099 37.7211 37.3404C37.7741 37.171 37.7851 36.9912 37.7533 36.8165L36.7317 30.6165C36.6977 30.4174 36.6097 30.2316 36.4774 30.079C36.3451 29.9265 36.1736 29.8131 35.9814 29.7512C35.7892 29.6894 35.5837 29.6814 35.3873 29.7281C35.1909 29.7748 35.011 29.8745 34.8672 30.0162L34.1968 30.6867L28.9098 25.3997C28.7845 25.2731 28.6354 25.1726 28.471 25.1039C28.3066 25.0353 28.1302 25 27.9521 25C27.7739 25 27.5975 25.0353 27.4331 25.1039C27.2687 25.1726 27.1196 25.2731 26.9943 25.3997L25.0787 27.3153C24.9462 27.4379 24.8397 27.5858 24.7655 27.7504C24.6912 27.9149 24.6508 28.0927 24.6467 28.2732C24.6425 28.4537 24.6746 28.6331 24.7412 28.8009C24.8077 28.9687 24.9073 29.1215 25.034 29.25V29.2628ZM28.8651 71.0348L34.1521 65.7478L34.8225 66.4183C34.9663 66.5601 35.1462 66.6597 35.3426 66.7064C35.539 66.7532 35.7445 66.7452 35.9367 66.6833C36.1289 66.6214 36.3004 66.508 36.4327 66.3555C36.565 66.203 36.653 66.0171 36.687 65.8181L37.715 59.5797C37.7468 59.405 37.7357 59.2253 37.6828 59.0558C37.6299 58.8863 37.5366 58.7322 37.4111 58.6066C37.2855 58.4811 37.1314 58.3879 36.9619 58.3349C36.7925 58.282 36.6127 58.2709 36.438 58.3027L30.238 59.3243C30.0389 59.3584 29.8531 59.4463 29.7005 59.5786C29.548 59.7109 29.4346 59.8825 29.3727 60.0746C29.3109 60.2668 29.3029 60.4723 29.3496 60.6688C29.3963 60.8652 29.496 61.045 29.6377 61.1888L30.3082 61.8593L25.0212 67.1462C24.8946 67.2715 24.7941 67.4207 24.7254 67.5851C24.6568 67.7495 24.6215 67.9258 24.6215 68.104C24.6215 68.2821 24.6568 68.4585 24.7254 68.6229C24.7941 68.7873 24.8946 68.9365 25.0212 69.0618L26.9368 70.9773C27.0593 71.1089 27.2069 71.2146 27.3708 71.2882C27.5348 71.3618 27.7119 71.4019 27.8916 71.4061C28.0712 71.4102 28.25 71.3784 28.4172 71.3124C28.5844 71.2465 28.7367 71.1477 28.8651 71.022V71.0348ZM69.4495 61.8976L70.1199 61.2271C70.2617 61.0834 70.3614 60.9035 70.4081 60.7071C70.4548 60.5106 70.4468 60.3052 70.3849 60.113C70.3231 59.9208 70.2097 59.7492 70.0572 59.6169C69.9046 59.4846 69.7187 59.3967 69.5197 59.3626L63.2942 58.341C63.1195 58.3092 62.9397 58.3203 62.7702 58.3732C62.6007 58.4262 62.4466 58.5194 62.3211 58.645C62.1955 58.7705 62.1023 58.9246 62.0493 59.0941C61.9964 59.2636 61.9853 59.4434 62.0171 59.618L63.0387 65.8181C63.0728 66.0171 63.1607 66.203 63.293 66.3555C63.4253 66.508 63.5969 66.6214 63.7891 66.6833C63.9813 66.7452 64.1867 66.7532 64.3832 66.7064C64.5796 66.6597 64.7595 66.5601 64.9032 66.4183L65.5737 65.7478L70.8606 71.0348C70.9859 71.1614 71.1351 71.262 71.2995 71.3306C71.4639 71.3992 71.6402 71.4345 71.8184 71.4345C71.9965 71.4345 72.1729 71.3992 72.3373 71.3306C72.5017 71.262 72.6509 71.1614 72.7762 71.0348L74.6917 69.1192C74.8184 68.9939 74.9189 68.8448 74.9875 68.6804C75.0562 68.516 75.0915 68.3396 75.0915 68.1614C75.0915 67.9833 75.0562 67.8069 74.9875 67.6425C74.9189 67.4781 74.8184 67.329 74.6917 67.2037L69.4495 61.8976Z" fill="#DCA629"/>
</svg>
