<svg width="100" height="100" viewBox="0 0 100 100" fill="none" xmlns="http://www.w3.org/2000/svg">
<circle cx="50" cy="50" r="50" fill="#0B0B0B"/>
<path fill-rule="evenodd" clip-rule="evenodd" d="M63.233 42.5446C62.4168 42.3488 61.6764 42.1406 60.9447 41.9305L60.662 41.8492L60.3793 41.9305C59.6476 42.1406 58.9072 42.3488 58.091 42.5446C57.3079 42.7375 56.5145 42.8862 55.7146 42.9899L54.8247 43.1006V48.5458L54.9022 48.7334C55.4374 50.0073 56.1536 51.1974 57.0285 52.2668C57.9072 53.3453 58.9353 54.293 60.0817 55.0811L60.6576 55.4757L61.2336 55.0811C62.38 54.293 63.408 53.3453 64.2868 52.2668C65.1615 51.1972 65.8776 50.0072 66.4131 48.7334L66.4906 48.5458V43.1006L65.6007 42.9899C64.8008 42.8862 64.0074 42.7375 63.2242 42.5446H63.233ZM58.1498 42.9824C58.9147 42.801 59.6739 42.5877 60.4638 42.3614C60.5907 42.3231 60.7259 42.322 60.8534 42.3582C61.6451 42.5859 62.4081 42.7997 63.1761 42.9836C63.9253 43.1655 64.684 43.306 65.4487 43.4045C65.6197 43.4211 65.7785 43.5007 65.8941 43.6279C66.0097 43.755 66.0738 43.9206 66.0741 44.0924V48.3451C66.0744 48.4361 66.0565 48.5262 66.0216 48.6102C65.5065 49.8331 64.8175 50.9752 63.9759 52.0011C63.138 53.0292 62.1582 53.9332 61.066 54.6858C60.9505 54.7682 60.8124 54.8128 60.6705 54.8136C60.5287 54.8144 60.3901 54.7713 60.2736 54.6902C59.1754 53.9378 58.1902 53.0322 57.3481 52.0011C56.5172 50.9872 55.8349 49.8602 55.3218 48.654C55.2743 48.5584 55.2497 48.4531 55.2499 48.3463V44.0937C55.2497 43.9245 55.3115 43.7612 55.4234 43.6345C55.5354 43.5077 55.6899 43.4264 55.8578 43.4058C56.6291 43.3074 57.3943 43.166 58.1498 42.9824ZM60.662 43.7428C61.4125 43.9561 62.1323 44.1568 62.8552 44.3288C63.4594 44.472 64.066 44.5971 64.6901 44.694V48.2056C64.2327 49.2566 63.6321 50.2392 62.9053 51.1255C62.2489 51.9307 61.4954 52.6516 60.662 53.2718C59.8286 52.6516 59.0752 51.9307 58.4188 51.1255C57.6918 50.2386 57.0911 49.2554 56.6339 48.2037V44.694C57.2593 44.5971 57.8647 44.472 58.4688 44.3288C59.1917 44.1568 59.9147 43.9536 60.662 43.7428ZM61.9378 46.9273C62.0017 46.8618 62.078 46.8096 62.1623 46.7738C62.2465 46.7379 62.3371 46.7192 62.4286 46.7186C62.5202 46.7181 62.6109 46.7357 62.6956 46.7704C62.7803 46.8052 62.8573 46.8565 62.922 46.9212C62.9867 46.9859 63.038 47.0629 63.0728 47.1476C63.1075 47.2323 63.1251 47.323 63.1246 47.4146C63.124 47.5061 63.1053 47.5967 63.0695 47.6809C63.0336 47.7652 62.9814 47.8415 62.9159 47.9054L60.602 50.2193C60.4723 50.349 60.2964 50.4219 60.1129 50.4219C59.9295 50.4219 59.7536 50.349 59.6239 50.2193L58.4081 48.9992C58.2783 48.8695 58.2054 48.6936 58.2053 48.5101C58.2053 48.3266 58.2781 48.1506 58.4078 48.0208C58.5375 47.891 58.7135 47.8181 58.897 47.818C59.0804 47.8179 59.2564 47.8908 59.3862 48.0205L60.1142 48.7491L61.9378 46.926V46.9273ZM28.646 52.4138H22V73.1842H28.646V52.4138ZM30.03 53.8697C31.9917 53.8334 33.948 54.0863 35.836 54.6202C37.6753 55.1943 39.4996 56.1893 42.1306 57.8597C42.2225 57.9179 42.3268 57.9535 42.4351 57.9635L55.7371 59.263C57.2824 59.4144 58.2937 59.8509 58.8365 60.3944C59.0466 60.5896 59.1914 60.8449 59.2511 61.1255C59.2901 61.3616 59.2482 61.604 59.1323 61.8134C58.8265 62.3027 58.354 62.6649 57.8021 62.8334L51.911 64.3068L43.1656 63.2286C43.0743 63.2151 42.9812 63.2201 42.8918 63.2431C42.8024 63.2661 42.7186 63.3068 42.6452 63.3628C42.5718 63.4188 42.5103 63.4888 42.4644 63.5689C42.4185 63.649 42.3891 63.7374 42.3779 63.829C42.3667 63.9207 42.374 64.0136 42.3993 64.1024C42.4246 64.1911 42.4674 64.2739 42.5252 64.3459C42.5829 64.4179 42.6545 64.4776 42.7357 64.5214C42.8169 64.5653 42.9061 64.5925 42.998 64.6013L51.8691 65.697C51.9642 65.7093 52.0608 65.7009 52.1524 65.6726L59.8822 63.7402L63.2474 63.2399C63.3418 63.2261 63.4323 63.1929 63.5131 63.1423L73.6194 57.041C74.3056 56.6386 75.1101 56.4868 75.8958 56.6114C76.6459 56.7076 77.334 57.0778 77.8276 57.6508L77.8514 57.6783C78.0393 57.9042 78.1716 58.171 78.2375 58.4574C78.3035 58.7437 78.3012 59.0415 78.231 59.3268C78.0373 60.0063 77.6285 60.6047 77.0659 61.0323C77.0559 61.041 77.0459 61.0492 77.0365 61.0585L64.4525 71.2004C64.2251 71.3867 63.9743 71.5422 63.7064 71.6632C63.4287 71.7848 63.1369 71.8711 62.8377 71.9202L45.5389 74.9377C45.0185 75.0364 44.4827 75.0176 43.9705 74.8827L32.0794 71.9196C32.0064 71.9018 31.931 71.8959 31.8561 71.9021L30.03 71.9646V53.8697ZM53.844 53.6077C54.309 53.0941 54.721 52.5349 55.0736 51.9385C55.305 52.2821 55.5493 52.6156 55.8065 52.9391C55.1691 53.2077 54.5133 53.4303 53.844 53.6052V53.6077ZM44.1387 49.7559C42.9466 49.9381 41.7679 50.1988 40.6102 50.5364C42.2932 51.9924 44.2879 53.0427 46.4407 53.6064C45.6427 52.7051 44.9874 51.6868 44.4977 50.5871C44.3726 50.3194 44.2529 50.0424 44.1387 49.7559ZM49.4482 49.3131C48.0942 49.335 46.7884 49.4213 45.5539 49.5633C45.6165 49.7146 45.6846 49.8629 45.7516 50.008C46.7565 52.1712 48.0473 53.6252 49.4482 53.9898V49.3119V49.3131ZM53.7102 49.4589C53.2024 49.4147 52.6835 49.3796 52.1536 49.3538C51.7309 49.333 51.2904 49.3192 50.8322 49.3125V53.9898C51.3849 53.8316 51.8943 53.5493 52.3212 53.1643C53.1203 52.4289 53.7745 51.5503 54.2499 50.5739C54.0548 50.2095 53.8749 49.8378 53.7102 49.4589ZM50.8334 47.9292V40.1869H56.5363C56.5326 40.3864 56.5276 40.5765 56.5207 40.756C56.5111 40.9882 56.4988 41.2279 56.4838 41.4752C56.1761 41.5296 55.8647 41.5777 55.5457 41.6171L54.0673 41.7998C53.8963 41.8164 53.7376 41.896 53.622 42.0231C53.5064 42.1503 53.4422 42.3159 53.4419 42.4877V48.0505C53.0396 48.0192 52.6325 47.9936 52.2205 47.9736C51.7528 47.9511 51.2906 47.9358 50.8341 47.9279L50.8334 47.9292ZM45.0492 48.2312C46.5095 48.0513 47.9783 47.9504 49.4495 47.9292V40.1869H43.7491C43.7794 42.9182 44.2181 45.6297 45.0505 48.2312H45.0492ZM39.4789 49.447C40.8438 48.9977 42.2425 48.6585 43.6615 48.4326C42.8343 45.7608 42.397 42.9836 42.3632 40.1869H35.574C35.7333 43.6399 37.1182 46.9231 39.4802 49.447H39.4789ZM56.1461 29.237C57.3381 29.0545 58.5168 28.7938 59.6745 28.4565C57.9911 27.0006 55.9963 25.9502 53.8434 25.3859C54.6415 26.2874 55.2968 27.3059 55.7865 28.4059C55.9116 28.6735 56.0314 28.9506 56.1461 29.237ZM50.8347 29.6748V25C52.2362 25.3646 53.5239 26.8186 54.5314 28.9818C54.5989 29.1269 54.6648 29.2751 54.729 29.4265C53.4945 29.5691 52.1887 29.6554 50.8347 29.6766V29.6748ZM45.5564 29.4246C46.7909 29.5672 48.0968 29.6535 49.4507 29.6748V25C48.0498 25.3646 46.7616 26.8186 45.7541 28.9818C45.6871 29.1269 45.6208 29.2751 45.5564 29.4265V29.4246ZM40.6128 28.4521C42.2958 26.9962 44.2905 25.9457 46.4432 25.3815C45.6453 26.2832 44.9901 27.3016 44.5002 28.4015C44.3751 28.6691 44.2554 28.9462 44.1412 29.2326C42.9491 29.0505 41.7704 28.7897 40.6128 28.4521ZM43.6628 30.5559C42.2438 30.3297 40.8451 29.9905 39.4802 29.5416C37.1173 32.0663 35.7322 35.351 35.574 38.8054H42.3645C42.3983 36.0089 42.8356 33.2319 43.6628 30.5603V30.5559ZM49.4507 31.0562C47.9796 31.0346 46.5107 30.9338 45.0505 30.7542C44.2174 33.358 43.7788 36.0718 43.7491 38.8054H49.4507V31.0612V31.0562ZM55.2349 30.7542C53.7747 30.9338 52.3058 31.0346 50.8347 31.0562V38.8054H56.5363C56.5059 36.0743 56.0672 33.3631 55.2349 30.7617V30.7542ZM60.8052 29.5434C59.4405 29.9923 58.042 30.3315 56.6233 30.5578C57.4501 33.2303 57.8872 36.0081 57.9209 38.8054H64.7139C64.5545 35.3514 63.1686 32.0673 60.8052 29.5434ZM61.323 40.6003C62.0935 40.8223 62.854 41.038 63.5519 41.2038C63.8984 41.2869 64.248 41.3639 64.6032 41.4314C64.6307 41.2263 64.6532 41.0193 64.672 40.8123C64.6908 40.6053 64.7039 40.4014 64.7133 40.1869H57.9197C57.9153 40.3864 57.9084 40.5921 57.9003 40.8048C57.8953 40.9298 57.8901 41.0549 57.8847 41.18C58.5507 41.0168 59.2712 40.8135 60.001 40.6034L60.4725 40.4683C60.6 40.4318 60.7353 40.4329 60.8621 40.4714L61.323 40.6003Z" fill="#DCA629"/>
</svg>
