<svg width="100" height="100" viewBox="0 0 100 100" fill="none" xmlns="http://www.w3.org/2000/svg">
<circle cx="50" cy="50" r="50" fill="#0B0B0B"/>
<path fill-rule="evenodd" clip-rule="evenodd" d="M71.9916 74.1379C72.0341 74.2017 72.0561 74.2771 72.0546 74.3539C72.053 74.4306 72.028 74.5051 71.9828 74.5671C71.9377 74.6292 71.8746 74.676 71.8021 74.7011C71.7295 74.7262 71.651 74.7285 71.5771 74.7077L65.1019 72.9723C65.0041 72.9484 64.9008 72.9634 64.8138 73.0141C64.7269 73.0649 64.663 73.1474 64.6357 73.2443L62.9003 79.7196C62.8818 79.7938 62.8408 79.8605 62.7828 79.9103C62.7248 79.9602 62.6527 79.9909 62.5765 79.998C62.5003 80.0059 62.4234 79.9903 62.3563 79.9533C62.2891 79.9162 62.2349 79.8595 62.201 79.7908L56.3279 68.3037C56.7283 68.2098 57.1449 68.2098 57.5453 68.3037L59.2418 68.6922C60.631 69.0089 62.0886 68.7893 63.3229 68.0773C64.5571 67.3653 65.477 66.2135 65.8983 64.8524L65.9307 64.7617L71.9916 74.1379ZM73.9989 47.8872L72.8139 49.1822C72.345 49.6684 72.0069 50.2655 71.8314 50.9177C71.6559 51.57 71.6486 52.2561 71.8103 52.912L72.2052 54.6344C72.4391 55.6518 72.2785 56.7201 71.7558 57.6238C71.233 58.5274 70.3871 59.1993 69.3885 59.5038L67.7244 60.0153C67.0756 60.2031 66.4846 60.5513 66.0059 61.0278C65.5272 61.5042 65.1762 62.0936 64.9853 62.7414L64.4673 64.4315C64.1601 65.4293 63.4865 66.2739 62.5819 66.7952C61.6773 67.3166 60.6089 67.4761 59.5914 67.2417L57.882 66.8467C57.2265 66.6873 56.5415 66.6951 55.8898 66.8693C55.2381 67.0435 54.6407 67.3787 54.1522 67.8439L52.8572 69.0483C52.0945 69.7602 51.0902 70.1562 50.0469 70.1562C49.0036 70.1562 47.9993 69.7602 47.2366 69.0483L45.9416 67.8633C45.4557 67.3978 44.8612 67.061 44.2122 66.8834C43.5631 66.7059 42.88 66.6933 42.2248 66.8467L40.5024 67.2417C39.485 67.474 38.4175 67.3127 37.5142 66.7902C36.6109 66.2677 35.9388 65.4227 35.633 64.425L35.1473 62.7479C34.958 62.0996 34.6084 61.5094 34.1308 61.0318C33.6532 60.5543 33.0631 60.2047 32.4148 60.0153L30.7247 59.4908C29.7277 59.185 28.8838 58.5123 28.3634 57.6086C27.843 56.7048 27.6849 55.6373 27.9209 54.6214L28.3095 52.9249C28.4706 52.2685 28.4638 51.5821 28.2895 50.9291C28.1152 50.276 27.7791 49.6775 27.3123 49.1887L26.1079 47.8936C25.3959 47.131 25 46.1266 25 45.0834C25 44.0401 25.3959 43.0357 26.1079 42.2731L27.2928 40.9781C27.7613 40.4916 28.099 39.8944 28.2744 39.2423C28.4499 38.5901 28.4575 37.9042 28.2965 37.2483L27.9015 35.5194C27.6695 34.5029 27.831 33.4363 28.3536 32.534C28.8762 31.6318 29.7211 30.961 30.7182 30.6565L32.3824 30.1449C33.0311 29.9549 33.6217 29.6052 34.1002 29.1278C34.5788 28.6504 34.9299 28.0606 35.1214 27.4124L35.6394 25.7223C35.9466 24.7248 36.6205 23.8808 37.5254 23.3605C38.4302 22.8402 39.4987 22.6823 40.5153 22.9186L42.2118 23.3071C42.8672 23.4683 43.5527 23.4615 44.2047 23.2871C44.8567 23.1128 45.4541 22.7767 45.9416 22.3099L47.2366 21.1055C48 20.395 49.0041 20 50.0469 20C51.0897 20 52.0938 20.395 52.8572 21.1055L54.1522 22.2905C54.6397 22.7594 55.2379 23.0974 55.8912 23.2729C56.5445 23.4484 57.2316 23.4557 57.8884 23.2941L59.6109 22.9056C60.6284 22.6701 61.6974 22.8301 62.6014 23.353C63.5055 23.876 64.1771 24.7229 64.4803 25.7223L64.9335 27.4124C65.1229 28.0607 65.4725 28.6509 65.95 29.1284C66.4276 29.606 67.0178 29.9556 67.6661 30.1449L69.3561 30.6694C70.3532 30.9752 71.1971 31.6479 71.7175 32.5517C72.2378 33.4555 72.396 34.523 72.1599 35.5388L71.7714 37.2354C71.6161 37.8894 71.6278 38.5721 71.8055 39.2205C71.9831 39.8688 72.321 40.4621 72.788 40.9457L73.9989 42.2407C74.7183 43.0047 75.1189 44.0146 75.1189 45.064C75.1189 46.1133 74.7183 47.1232 73.9989 47.8872ZM67.5236 45.0769C67.5257 41.0314 66.1247 37.1103 63.5595 33.9821C60.9943 30.8538 57.4235 28.712 53.456 27.9217C49.4884 27.1313 45.3695 27.7414 41.8014 29.6479C38.2332 31.5543 35.4367 34.6393 33.8883 38.3768C32.34 42.1143 32.1358 46.2731 33.3104 50.1443C34.4851 54.0156 36.9659 57.3597 40.3301 59.6066C43.6942 61.8535 47.7335 62.8643 51.7594 62.4665C55.7854 62.0687 59.5488 60.2871 62.4082 57.4252C64.0319 55.8051 65.3196 53.8803 66.1975 51.7613C67.0753 49.6422 67.526 47.3706 67.5236 45.0769ZM61.3139 33.8229C63.9124 36.4348 65.5251 39.8668 65.8774 43.5342C66.2297 47.2017 65.2999 50.8779 63.2461 53.9368C61.1924 56.9956 58.1418 59.248 54.6139 60.3102C51.086 61.3724 47.2989 61.1789 43.8977 59.7625C40.4965 58.3462 37.6914 55.7946 35.9602 52.5423C34.229 49.29 33.6787 45.5382 34.403 41.9257C35.1274 38.3133 37.0816 35.0636 39.9329 32.7302C42.7841 30.3968 46.3561 29.1239 50.0404 29.1283C52.1364 29.128 54.2116 29.5427 56.1465 30.3484C58.0814 31.1542 59.8376 32.335 61.3139 33.8229ZM59.8763 41.6321C59.8398 41.5137 59.7656 41.4105 59.6652 41.3381C59.5647 41.2656 59.4433 41.2279 59.3195 41.2306H53.0773C52.9523 41.2312 52.8303 41.1919 52.729 41.1186C52.6278 41.0453 52.5524 40.9416 52.514 40.8227L50.5714 34.8784C50.5347 34.7593 50.4608 34.6552 50.3606 34.5813C50.2604 34.5073 50.1391 34.4674 50.0145 34.4674C49.89 34.4674 49.7687 34.5073 49.6685 34.5813C49.5683 34.6552 49.4944 34.7593 49.4577 34.8784L47.5151 40.8227C47.4766 40.9416 47.4013 41.0453 47.3 41.1186C47.1987 41.1919 47.0768 41.2312 46.9517 41.2306H40.7096C40.5856 41.2287 40.4642 41.2664 40.3631 41.3383C40.262 41.4101 40.1865 41.5123 40.1475 41.63C40.1085 41.7478 40.108 41.8749 40.1462 41.9928C40.1845 42.1108 40.2593 42.2135 40.3599 42.2861L45.5077 45.9511C45.6084 46.0215 45.6836 46.1226 45.7221 46.2393C45.7606 46.356 45.7604 46.482 45.7214 46.5986L43.7788 52.5364C43.7439 52.6532 43.7457 52.778 43.7839 52.8938C43.8221 53.0096 43.8949 53.1108 43.9925 53.1839C44.0918 53.2575 44.2121 53.2973 44.3357 53.2973C44.4593 53.2973 44.5796 53.2575 44.6789 53.1839L49.7296 49.506C49.828 49.4304 49.9487 49.3894 50.0728 49.3894C50.1969 49.3894 50.3176 49.4304 50.416 49.506L55.4667 53.1839C55.566 53.2575 55.6863 53.2973 55.8099 53.2973C55.9335 53.2973 56.0538 53.2575 56.1531 53.1839C56.2507 53.1108 56.3235 53.0096 56.3617 52.8938C56.3999 52.778 56.4017 52.6532 56.3668 52.5364L54.4242 46.5986C54.3852 46.482 54.385 46.356 54.4235 46.2393C54.462 46.1226 54.5372 46.0215 54.6379 45.9511L59.7015 42.2861C59.7967 42.2101 59.8651 42.1055 59.8966 41.9878C59.928 41.8701 59.921 41.7454 59.8763 41.6321ZM42.5615 68.3101L40.8391 68.7051C39.4499 69.0197 37.9932 68.7983 36.7603 68.0852C35.5273 67.3721 34.609 66.2198 34.189 64.8588L34.1566 64.7617L28.0893 74.1379C28.0467 74.2017 28.0247 74.2771 28.0263 74.3539C28.0278 74.4306 28.0529 74.5051 28.098 74.5671C28.1432 74.6292 28.2063 74.676 28.2788 74.7011C28.3513 74.7262 28.4298 74.7285 28.5037 74.7077L34.979 72.9723C35.0768 72.9484 35.18 72.9634 35.267 73.0141C35.354 73.0649 35.4179 73.1474 35.4452 73.2443L37.1806 79.7196C37.199 79.7938 37.2401 79.8605 37.2981 79.9103C37.3561 79.9602 37.4282 79.9909 37.5043 79.998C37.5806 80.0059 37.6575 79.9903 37.7246 79.9533C37.7917 79.9162 37.8459 79.8595 37.8799 79.7908L43.7529 68.3037C43.3601 68.2184 42.9534 68.2206 42.5615 68.3101Z" fill="#DCA629"/>
</svg>
