<svg width="100" height="100" viewBox="0 0 100 100" fill="none" xmlns="http://www.w3.org/2000/svg">
<circle cx="50" cy="50" r="50" fill="#0B0B0B"/>
<path d="M74.7997 61.8755C73.9747 68.5255 68.5247 73.9755 61.8747 74.8005C57.8497 75.3005 54.0997 74.2005 51.1747 72.0505C49.4997 70.8255 49.8997 68.2255 51.8997 67.6255C59.4247 65.3505 65.3497 59.4005 67.6497 51.8755C68.2497 49.9005 70.8497 49.5005 72.0747 51.1505C74.1997 54.1005 75.2997 57.8505 74.7997 61.8755Z" fill="#DCA629"/>
<path d="M44.975 25C33.95 25 25 33.95 25 44.975C25 56 33.95 64.95 44.975 64.95C56 64.95 64.95 56 64.95 44.975C64.925 33.95 56 25 44.975 25ZM42.625 42.175L48.65 44.275C50.825 45.05 51.875 46.575 51.875 48.925C51.875 51.625 49.725 53.85 47.1 53.85H46.875V53.975C46.875 55 46.025 55.85 45 55.85C43.975 55.85 43.125 55 43.125 53.975V53.825C40.35 53.7 38.125 51.375 38.125 48.475C38.125 47.45 38.975 46.6 40 46.6C41.025 46.6 41.875 47.45 41.875 48.475C41.875 49.375 42.525 50.1 43.325 50.1H47.075C47.65 50.1 48.1 49.575 48.1 48.925C48.1 48.05 47.95 48 47.375 47.8L41.35 45.7C39.2 44.95 38.125 43.425 38.125 41.05C38.125 38.35 40.275 36.125 42.9 36.125H43.125V36.025C43.125 35 43.975 34.15 45 34.15C46.025 34.15 46.875 35 46.875 36.025V36.175C49.65 36.3 51.875 38.625 51.875 41.525C51.875 42.55 51.025 43.4 50 43.4C48.975 43.4 48.125 42.55 48.125 41.525C48.125 40.625 47.475 39.9 46.675 39.9H42.925C42.35 39.9 41.9 40.425 41.9 41.075C41.875 41.925 42.025 41.975 42.625 42.175Z" fill="#DCA629"/>
</svg>
