<svg width="100" height="100" viewBox="0 0 100 100" fill="none" xmlns="http://www.w3.org/2000/svg">
<circle cx="50" cy="50" r="50" fill="#0B0B0B"/>
<path d="M45.535 50.8058C45.7765 51.0473 45.9303 51.3882 45.9303 51.7551V53.0999H44.5856C44.2162 53.0999 43.8824 52.946 43.6362 52.7045C43.39 52.4583 43.2408 52.1221 43.2408 51.7552C43.2408 51.3858 43.39 51.0473 43.6362 50.8058C43.8824 50.5596 44.2186 50.4104 44.5856 50.4104C44.9549 50.4104 45.2888 50.5595 45.535 50.8058ZM47.867 55.0389V66.1897H51.5106V55.0389H47.867ZM48.3808 80H51.0016C54.3871 80 57.254 77.6775 58.0874 74.5499L41.2945 74.5476C42.1279 77.6775 44.9955 80 48.3808 80ZM46.8987 68.1268H40.9988C41.032 68.5056 41.0485 68.8915 41.0485 69.2869V72.6109H58.3317V69.2869C58.3317 68.8915 58.3483 68.5056 58.3814 68.1268H46.8987ZM55.7439 52.7073C55.9854 52.4611 56.1393 52.1249 56.1393 51.7579C56.1393 51.3886 55.9854 51.05 55.7439 50.8086C55.4977 50.5623 55.1615 50.4132 54.7946 50.4132C54.4252 50.4132 54.0866 50.5623 53.8452 50.8086C53.599 51.05 53.4498 51.391 53.4498 51.7579V53.1027H54.7946C55.1639 53.1003 55.5001 52.9488 55.7439 52.7073ZM68.0596 46.2131H31.3229C31.1524 46.2131 31.008 46.2723 30.8896 46.3954C30.7712 46.5138 30.7144 46.6653 30.7168 46.8334C30.9062 54.3549 34.5143 57.1938 38.165 61.4692C39.3961 62.911 40.2271 64.4759 40.6698 66.19H45.9328V55.0392H44.5881C43.6837 55.0392 42.8645 54.6699 42.2703 54.0757C40.9847 52.7901 40.9847 50.7209 42.2703 49.4377C43.5558 48.1522 45.6226 48.1522 46.9082 49.4377C47.5025 50.032 47.8718 50.8535 47.8718 51.7555V53.1003H51.5154V51.7555C51.5154 50.8511 51.8847 50.0319 52.4789 49.4377C53.7645 48.1522 55.8313 48.1522 57.1169 49.4377C58.4001 50.7209 58.4001 52.7901 57.1169 54.0757C56.5227 54.6699 55.7011 55.0392 54.7991 55.0392H53.4543V66.19H58.7173C59.1601 64.476 59.9887 62.911 61.2222 61.4692C64.8705 57.1934 68.4813 54.3549 68.6704 46.8334C68.6727 46.6629 68.6159 46.5138 68.4975 46.3954C68.3744 46.2723 68.2277 46.2131 68.0596 46.2131ZM76.0381 37.2569C75.0911 37.2569 74.2743 37.8228 73.905 38.6324L65.6234 38.6301C65.9265 39.2575 66.1846 39.9015 66.4118 40.5643H73.9049C74.2742 41.374 75.091 41.9375 76.038 41.9375C77.3307 41.9375 78.3795 40.891 78.3795 39.5984C78.3795 38.3057 77.3308 37.2569 76.0381 37.2569ZM33.7515 38.6301H25.4699C25.1053 37.8204 24.2885 37.2546 23.3415 37.2546C22.0488 37.2546 21 38.3034 21 39.5961C21 40.8887 22.0488 41.9352 23.3415 41.9352C24.2885 41.9352 25.1053 41.3741 25.4699 40.562H32.9678C33.1903 39.9039 33.4531 39.2599 33.7515 38.6301ZM44.164 39.6268C45.6579 38.372 47.5851 37.6144 49.6875 37.6144C51.7946 37.6144 53.7194 38.372 55.2157 39.6268V31.4398C54.7232 31.2575 54.2213 31.0941 53.7099 30.9615C53.3808 30.8763 53.1417 30.6467 53.0351 30.3247L52.2444 27.8932C52.1118 27.4884 51.7496 27.2256 51.3234 27.2256H48.0492C47.623 27.2256 47.2655 27.4883 47.133 27.8932L46.3422 30.3247C46.2357 30.6466 45.9965 30.8763 45.6674 30.9615C45.156 31.0941 44.6541 31.2527 44.1617 31.4398L44.164 39.6268ZM49.6875 39.551C47.8503 39.551 46.1859 40.2945 44.9809 41.5019C44.2162 42.2666 43.6385 43.216 43.3165 44.2766H56.0631C55.7411 43.2183 55.1634 42.2666 54.3987 41.5019C53.1936 40.2945 51.5294 39.551 49.6875 39.551ZM36.0905 37.3445C36.2444 37.6476 36.2326 37.979 36.0645 38.2702C35.9958 38.3862 35.9248 38.5069 35.8585 38.6301H38.1882C38.7233 38.6301 39.1542 39.0633 39.1542 39.596V44.2743H41.3134C41.5028 43.4433 41.8153 42.6596 42.2272 41.9423V32.3158C42.0686 32.4034 41.9076 32.491 41.749 32.5857C41.4578 32.7561 41.1287 32.7656 40.8257 32.6117L38.5434 31.4492C38.1646 31.2575 37.7218 31.3261 37.4212 31.6244L35.1057 33.9399C34.8027 34.2429 34.734 34.6833 34.9305 35.0621L36.0905 37.3445ZM62.1595 40.5643V44.2743H68.0594C68.263 44.2743 68.4619 44.2979 68.6513 44.3429C68.5779 44.0209 68.3412 43.7581 68.0144 43.6516L65.5783 42.8609C65.2563 42.7567 65.0266 42.5152 64.9414 42.1908C64.7994 41.6368 64.6218 41.0923 64.4205 40.562L62.1595 40.5643ZM30.7261 44.3453C30.9178 44.298 31.1191 44.2766 31.3203 44.2766H37.2202V40.5667L34.9616 40.5644C34.7579 41.0923 34.5828 41.6368 34.436 42.1932C34.3531 42.5176 34.1235 42.7614 33.8015 42.8632L31.3653 43.654C31.0386 43.7605 30.8042 44.0233 30.7261 44.3453ZM57.6284 32.586C57.4722 32.4937 57.3136 32.4037 57.1526 32.3161V41.9426C57.5645 42.6599 57.8723 43.4436 58.0664 44.2746H60.2256V39.5964C60.2256 39.0613 60.6589 38.6304 61.1916 38.6304H63.5165C63.4502 38.5073 63.3839 38.3889 63.3129 38.2705C63.1424 37.9793 63.1329 37.6455 63.2868 37.3448L64.4493 35.0626C64.6411 34.6838 64.5724 34.241 64.2741 33.9403L61.9587 31.6249C61.6556 31.3266 61.2152 31.2556 60.8364 31.4497L58.5542 32.6122C58.2535 32.7661 57.9196 32.7541 57.6284 32.586ZM55.2159 24.4699V29.4536C55.8764 29.669 56.5204 29.9247 57.1525 30.2206V24.4699C57.9598 24.1053 58.5257 23.2885 58.5257 22.3415C58.5257 21.0488 57.4769 20 56.1842 20C54.8915 20 53.8451 21.0488 53.8451 22.3415C53.8451 23.2885 54.4062 24.1053 55.2159 24.4699ZM42.2275 24.4699V30.2206C42.8573 29.9247 43.5036 29.669 44.1641 29.4536V24.4699C44.9738 24.1053 45.5372 23.2885 45.5372 22.3415C45.5372 21.0488 44.4908 20 43.1958 20C41.9031 20 40.8566 21.0488 40.8566 22.3415C40.8543 23.2885 41.4178 24.1053 42.2275 24.4699Z" fill="#DCA629"/>
</svg>
