<svg width="100" height="100" viewBox="0 0 100 100" fill="none" xmlns="http://www.w3.org/2000/svg">
<circle cx="50" cy="50" r="50" fill="#0B0B0B"/>
<path d="M60.475 25H39.525C30.425 25 25 30.425 25 39.525V60.45C25 69.575 30.425 75 39.525 75H60.45C69.55 75 74.975 69.575 74.975 60.475V39.525C75 30.425 69.575 25 60.475 25ZM39.075 65.375C39.075 66.4 38.225 67.25 37.2 67.25C36.175 67.25 35.325 66.4 35.325 65.375V60.2C35.325 59.175 36.175 58.325 37.2 58.325C38.225 58.325 39.075 59.175 39.075 60.2V65.375ZM51.875 65.375C51.875 66.4 51.025 67.25 50 67.25C48.975 67.25 48.125 66.4 48.125 65.375V55C48.125 53.975 48.975 53.125 50 53.125C51.025 53.125 51.875 53.975 51.875 55V65.375ZM64.675 65.375C64.675 66.4 63.825 67.25 62.8 67.25C61.775 67.25 60.925 66.4 60.925 65.375V49.825C60.925 48.8 61.775 47.95 62.8 47.95C63.825 47.95 64.675 48.8 64.675 49.825V65.375ZM64.675 41.925C64.675 42.95 63.825 43.8 62.8 43.8C61.775 43.8 60.925 42.95 60.925 41.925V39.5C54.55 46.05 46.575 50.675 37.65 52.9C37.5 52.95 37.35 52.95 37.2 52.95C36.35 52.95 35.6 52.375 35.375 51.525C35.125 50.525 35.725 49.5 36.75 49.25C45.175 47.15 52.675 42.725 58.625 36.475H55.5C54.475 36.475 53.625 35.625 53.625 34.6C53.625 33.575 54.475 32.725 55.5 32.725H62.825C62.925 32.725 63 32.775 63.1 32.775C63.225 32.8 63.35 32.8 63.475 32.85C63.6 32.9 63.7 32.975 63.825 33.05C63.9 33.1 63.975 33.125 64.05 33.175C64.075 33.2 64.075 33.225 64.1 33.225C64.2 33.325 64.275 33.425 64.35 33.525C64.425 33.625 64.5 33.7 64.525 33.8C64.575 33.9 64.575 34 64.6 34.125C64.625 34.25 64.675 34.375 64.675 34.525C64.675 34.55 64.7 34.575 64.7 34.6V41.925H64.675Z" fill="#DCA629"/>
</svg>
