<svg width="319" height="169" viewBox="0 0 319 169" fill="none" xmlns="http://www.w3.org/2000/svg">
<mask id="path-1-outside-1_35_11" maskUnits="userSpaceOnUse" x="44.5819" y="28.1772" width="156" height="106" fill="black">
<rect fill="white" x="44.5819" y="28.1772" width="156" height="106"/>
<path d="M116.052 117.929V132.177H48.5085V119.984L80.9104 84.9787C84.2899 81.1425 86.9615 77.8087 88.9253 74.9773C90.889 72.1458 92.2819 69.5884 93.104 67.3049C93.9717 64.9758 94.4055 62.7609 94.4055 60.6602C94.4055 57.6004 93.8575 54.9287 92.7614 52.6453C91.6654 50.3162 90.067 48.5123 87.9662 47.2336C85.9111 45.9549 83.3765 45.3155 80.3624 45.3155C77.0286 45.3155 74.1743 46.0919 71.7995 47.6446C69.4704 49.1517 67.6894 51.2524 66.4563 53.9469C65.2689 56.6413 64.6752 59.7239 64.6752 63.1948H46.5219C46.5219 57.3035 47.892 51.9374 50.6321 47.0966C53.3722 42.21 57.2997 38.3054 62.4146 35.3826C67.5295 32.4598 73.6034 30.9984 80.6364 30.9984C87.4867 30.9984 93.2866 32.1401 98.0362 34.4235C102.786 36.6613 106.394 39.8581 108.86 44.0139C111.326 48.1698 112.559 53.1248 112.559 58.8791C112.559 62.0759 112.034 65.227 110.983 68.3325C109.933 71.438 108.449 74.5206 106.531 77.5804C104.658 80.5945 102.42 83.6543 99.8172 86.7598C97.2141 89.8652 94.3142 93.0392 91.1174 96.2817L71.6625 117.929H116.052ZM197.913 95.8022V110.051H126.054L125.3 99.0903L167.567 32.4369H182.021L166.402 58.9476L143.728 95.8022H197.913ZM186.062 32.4369V132.177H167.909V32.4369H186.062Z"/>
</mask>
<path d="M116.052 117.929H117.923V116.058H116.052V117.929ZM116.052 132.177V134.048H117.923V132.177H116.052ZM48.5085 132.177H46.6379V134.048H48.5085V132.177ZM48.5085 119.984L47.1358 118.713L46.6379 119.251V119.984H48.5085ZM80.9104 84.9787L82.2832 86.2494L82.2988 86.2325L82.314 86.2152L80.9104 84.9787ZM93.104 67.3049L91.3511 66.6519L91.3475 66.6616L91.3439 66.6713L93.104 67.3049ZM92.7614 52.6453L91.0689 53.4418L91.072 53.4483L91.0751 53.4548L92.7614 52.6453ZM87.9662 47.2336L86.978 48.8218L86.9858 48.8267L86.9936 48.8314L87.9662 47.2336ZM71.7995 47.6446L72.8158 49.2151L72.8232 49.2102L71.7995 47.6446ZM66.4563 53.9469L64.7554 53.1685L64.7499 53.1805L64.7446 53.1925L66.4563 53.9469ZM64.6752 63.1948V65.0654H66.5458V63.1948H64.6752ZM46.5219 63.1948H44.6514V65.0654H46.5219V63.1948ZM50.6321 47.0966L52.26 48.018L52.2637 48.0115L50.6321 47.0966ZM62.4146 35.3826L61.4866 33.7584L62.4146 35.3826ZM98.0362 34.4235L97.2257 36.1094L97.2323 36.1126L97.2389 36.1157L98.0362 34.4235ZM110.983 68.3325L112.755 68.9318L110.983 68.3325ZM106.531 77.5804L104.946 76.5868L104.942 76.5933L106.531 77.5804ZM91.1174 96.2817L89.7853 94.9684L89.755 94.9992L89.7261 95.0313L91.1174 96.2817ZM71.6625 117.929L70.2713 116.678L67.4663 119.799H71.6625V117.929ZM114.182 117.929V132.177H117.923V117.929H114.182ZM116.052 130.307H48.5085V134.048H116.052V130.307ZM50.3791 132.177V119.984H46.6379V132.177H50.3791ZM49.8813 121.254L82.2832 86.2494L79.5377 83.708L47.1358 118.713L49.8813 121.254ZM82.314 86.2152C85.7208 82.3481 88.4429 78.955 90.4624 76.0433L87.3882 73.9112C85.4801 76.6624 82.859 79.937 79.5068 83.7422L82.314 86.2152ZM90.4624 76.0433C92.4835 73.1291 93.9691 70.4244 94.864 67.9385L91.3439 66.6713C90.5948 68.7524 89.2946 71.1625 87.3882 73.9112L90.4624 76.0433ZM94.8569 67.958C95.7885 65.4574 96.2761 63.0206 96.2761 60.6602H92.5349C92.5349 62.5013 92.1549 64.4943 91.3511 66.6519L94.8569 67.958ZM96.2761 60.6602C96.2761 57.3776 95.6877 54.419 94.4478 51.8358L91.0751 53.4548C92.0272 55.4385 92.5349 57.8232 92.5349 60.6602H96.2761ZM94.454 51.8488C93.2094 49.2041 91.368 47.1144 88.9388 45.6357L86.9936 48.8314C88.7659 49.9102 90.1214 51.4283 91.0689 53.4418L94.454 51.8488ZM88.9545 45.6453C86.5378 44.1417 83.6405 43.4449 80.3624 43.4449V47.1861C83.1126 47.1861 85.2845 47.768 86.978 48.8218L88.9545 45.6453ZM80.3624 43.4449C76.7298 43.4449 73.5051 44.2945 70.7759 46.079L72.8232 49.2102C74.8436 47.8892 77.3273 47.1861 80.3624 47.1861V43.4449ZM70.7833 46.0741C68.1346 47.788 66.1261 50.1732 64.7554 53.1685L68.1572 54.7253C69.2527 52.3316 70.8062 50.5153 72.8157 49.2151L70.7833 46.0741ZM64.7446 53.1925C63.4354 56.1633 62.8046 59.51 62.8046 63.1948H66.5458C66.5458 59.9379 67.1024 57.1193 68.1681 54.7012L64.7446 53.1925ZM64.6752 61.3242H46.5219V65.0654H64.6752V61.3242ZM48.3925 63.1948C48.3925 57.6067 49.6884 52.5611 52.26 48.018L49.0042 46.1751C46.0956 51.3138 44.6514 57.0003 44.6514 63.1948H48.3925ZM52.2637 48.0115C54.8292 43.4362 58.5064 39.7703 63.3427 37.0067L61.4866 33.7584C56.0931 36.8404 51.9152 40.9838 49.0005 46.1817L52.2637 48.0115ZM63.3427 37.0067C68.1247 34.2741 73.8658 32.869 80.6364 32.869V29.1278C73.3411 29.1278 66.9343 30.6454 61.4866 33.7584L63.3427 37.0067ZM80.6364 32.869C87.287 32.869 92.793 33.9783 97.2257 36.1094L98.8467 32.7376C93.7802 30.3019 87.6864 29.1278 80.6364 29.1278V32.869ZM97.2389 36.1157C101.681 38.2086 104.992 41.162 107.251 44.9685L110.468 43.0593C107.795 38.5542 103.89 35.114 98.8335 32.7313L97.2389 36.1157ZM107.251 44.9685C109.515 48.7847 110.688 53.3963 110.688 58.8791H114.429C114.429 52.8533 113.136 47.5549 110.468 43.0593L107.251 44.9685ZM110.688 58.8791C110.688 61.8669 110.198 64.8158 109.211 67.7331L112.755 68.9318C113.869 65.6383 114.429 62.2849 114.429 58.8791H110.688ZM109.211 67.7331C108.212 70.6872 106.794 73.6383 104.946 76.5869L108.115 78.5739C110.103 75.4028 111.654 72.1887 112.755 68.9318L109.211 67.7331ZM104.942 76.5933C103.122 79.5227 100.938 82.5111 98.3837 85.5581L101.251 87.9614C103.903 84.7975 106.194 81.6664 108.119 78.5675L104.942 76.5933ZM98.3837 85.5581C95.8166 88.6207 92.951 91.7575 89.7853 94.9684L92.4494 97.595C95.6773 94.321 98.6117 91.1098 101.251 87.9614L98.3837 85.5581ZM89.7261 95.0313L70.2713 116.678L73.0538 119.179L92.5086 97.5321L89.7261 95.0313ZM71.6625 119.799H116.052V116.058H71.6625V119.799ZM197.913 95.8022H199.784V93.9316H197.913V95.8022ZM197.913 110.051V111.921H199.784V110.051H197.913ZM126.054 110.051L124.188 110.179L124.307 111.921H126.054V110.051ZM125.3 99.0903L123.721 98.0886L123.392 98.6066L123.434 99.2186L125.3 99.0903ZM167.567 32.4369V30.5663H166.538L165.987 31.4352L167.567 32.4369ZM182.021 32.4369L183.632 33.3865L185.294 30.5663H182.021V32.4369ZM166.402 58.9476L167.995 59.9278L168.005 59.9125L168.014 59.8971L166.402 58.9476ZM143.728 95.8022L142.134 94.822L140.381 97.6728H143.728V95.8022ZM186.062 32.4369H187.933V30.5663H186.062V32.4369ZM186.062 132.177V134.048H187.933V132.177H186.062ZM167.909 132.177H166.039V134.048H167.909V132.177ZM167.909 32.4369V30.5663H166.039V32.4369H167.909ZM196.043 95.8022V110.051H199.784V95.8022H196.043ZM197.913 108.18H126.054V111.921H197.913V108.18ZM127.92 109.922L127.167 98.962L123.434 99.2186L124.188 110.179L127.92 109.922ZM126.88 100.092L169.146 33.4387L165.987 31.4352L123.721 98.0886L126.88 100.092ZM167.567 34.3075H182.021V30.5663H167.567V34.3075ZM180.409 31.4874L164.79 57.9981L168.014 59.8971L183.632 33.3865L180.409 31.4874ZM164.809 57.9674L142.134 94.822L145.321 96.7824L167.995 59.9278L164.809 57.9674ZM143.728 97.6728H197.913V93.9316H143.728V97.6728ZM184.192 32.4369V132.177H187.933V32.4369H184.192ZM186.062 130.307H167.909V134.048H186.062V130.307ZM169.78 132.177V32.4369H166.039V132.177H169.78ZM167.909 34.3075H186.062V30.5663H167.909V34.3075Z" fill="#DCA629" mask="url(#path-1-outside-1_35_11)"/>
<mask id="path-3-outside-2_35_11" maskUnits="userSpaceOnUse" x="244.056" y="47.1772" width="73" height="77" fill="black">
<rect fill="white" x="244.056" y="47.1772" width="73" height="77"/>
<path d="M314.6 77.0324V93.1306H246.234V77.0324H314.6ZM289.117 49.5627V122.176H271.786V49.5627H289.117Z"/>
</mask>
<path d="M314.6 77.0324H316.471V75.1618H314.6V77.0324ZM314.6 93.1306V95.0011H316.471V93.1306H314.6ZM246.234 93.1306H244.364V95.0011H246.234V93.1306ZM246.234 77.0324V75.1618H244.364V77.0324H246.234ZM289.117 49.5627H290.988V47.6921H289.117V49.5627ZM289.117 122.176V124.046H290.988V122.176H289.117ZM271.786 122.176H269.915V124.046H271.786V122.176ZM271.786 49.5627V47.6921H269.915V49.5627H271.786ZM312.73 77.0324V93.1306H316.471V77.0324H312.73ZM314.6 91.26H246.234V95.0011H314.6V91.26ZM248.105 93.1306V77.0324H244.364V93.1306H248.105ZM246.234 78.9029H314.6V75.1618H246.234V78.9029ZM287.246 49.5627V122.176H290.988V49.5627H287.246ZM289.117 120.305H271.786V124.046H289.117V120.305ZM273.656 122.176V49.5627H269.915V122.176H273.656ZM271.786 51.4333H289.117V47.6921H271.786V51.4333Z" fill="#DCA629" mask="url(#path-3-outside-2_35_11)"/>
<rect width="128.089" height="35.5412" transform="translate(33.582 73.3174)" fill="#0B0B0B"/>
<path d="M37.8006 96.8066V86.0312H34.0038V84.124H43.8475V86.0312H40.0594V96.8066H37.8006ZM46.5383 96.9912C43.7434 96.9912 42.0559 95.1367 42.0559 92.1748V92.166C42.0559 89.2305 43.7697 87.2969 46.4328 87.2969C49.0959 87.2969 50.7482 89.1689 50.7482 91.9814V92.6846H44.2268C44.2619 94.3193 45.1584 95.2861 46.5822 95.2861C47.6721 95.2861 48.384 94.7061 48.5949 94.082L48.6125 94.0205H50.6604L50.634 94.1172C50.3439 95.5498 48.9729 96.9912 46.5383 96.9912ZM46.4592 89.0107C45.299 89.0107 44.4289 89.793 44.2531 91.2256H48.6213C48.4631 89.749 47.6193 89.0107 46.4592 89.0107ZM54.3531 96.9648C52.4898 96.9648 51.233 95.8135 51.233 94.1523V94.1348C51.233 92.4824 52.5162 91.4893 54.775 91.3486L57.2095 91.1992V90.5576C57.2095 89.6172 56.5943 89.0459 55.4869 89.0459C54.4498 89.0459 53.8169 89.5293 53.6763 90.2148L53.6587 90.2939H51.6285L51.6373 90.1885C51.7691 88.5361 53.2017 87.2969 55.566 87.2969C57.8951 87.2969 59.398 88.5273 59.398 90.3994V96.8066H57.2095V95.374H57.1568C56.6207 96.3496 55.5835 96.9648 54.3531 96.9648ZM53.4127 94.0645C53.4127 94.8291 54.0455 95.2949 55.0035 95.2949C56.2603 95.2949 57.2095 94.46 57.2095 93.3525V92.6494L55.0826 92.7812C54.0015 92.8516 53.4127 93.3174 53.4127 94.0557V94.0645ZM60.6034 96.8066V87.4902H62.7919V88.9844H62.8358C63.2314 87.9648 64.1894 87.2969 65.4198 87.2969C66.7206 87.2969 67.661 87.9824 68.0038 89.1777H68.0566C68.5048 88.0176 69.6122 87.2969 70.9569 87.2969C72.7939 87.2969 73.998 88.5449 73.998 90.4082V96.8066H71.8095V90.9531C71.8095 89.8018 71.2118 89.1426 70.1396 89.1426C69.0849 89.1426 68.3642 89.9248 68.3642 91.0498V96.8066H66.2372V90.8389C66.2372 89.793 65.6044 89.1426 64.5849 89.1426C63.5302 89.1426 62.7919 89.9688 62.7919 91.1025V96.8066H60.6034ZM78.2369 96.8066V87.4902H80.4254V88.9844H80.4694C80.8649 87.9648 81.8229 87.2969 83.0533 87.2969C84.3541 87.2969 85.2946 87.9824 85.6373 89.1777H85.6901C86.1383 88.0176 87.2457 87.2969 88.5905 87.2969C90.4274 87.2969 91.6315 88.5449 91.6315 90.4082V96.8066H89.443V90.9531C89.443 89.8018 88.8453 89.1426 87.7731 89.1426C86.7184 89.1426 85.9977 89.9248 85.9977 91.0498V96.8066H83.8707V90.8389C83.8707 89.793 83.2379 89.1426 82.2184 89.1426C81.1637 89.1426 80.4254 89.9688 80.4254 91.1025V96.8066H78.2369ZM96.9238 96.9912C94.1289 96.9912 92.4414 95.1367 92.4414 92.1748V92.166C92.4414 89.2305 94.1553 87.2969 96.8183 87.2969C99.4814 87.2969 101.134 89.1689 101.134 91.9814V92.6846H94.6123C94.6474 94.3193 95.5439 95.2861 96.9678 95.2861C98.0576 95.2861 98.7695 94.7061 98.9804 94.082L98.998 94.0205H101.046L101.02 94.1172C100.729 95.5498 99.3584 96.9912 96.9238 96.9912ZM96.8447 89.0107C95.6845 89.0107 94.8144 89.793 94.6386 91.2256H99.0068C98.8486 89.749 98.0049 89.0107 96.8447 89.0107ZM101.988 96.8066V87.4902H104.176V88.9844H104.22C104.616 87.9648 105.574 87.2969 106.804 87.2969C108.105 87.2969 109.045 87.9824 109.388 89.1777H109.441C109.889 88.0176 110.996 87.2969 112.341 87.2969C114.178 87.2969 115.382 88.5449 115.382 90.4082V96.8066H113.194V90.9531C113.194 89.8018 112.596 89.1426 111.524 89.1426C110.469 89.1426 109.748 89.9248 109.748 91.0498V96.8066H107.621V90.8389C107.621 89.793 106.989 89.1426 105.969 89.1426C104.914 89.1426 104.176 89.9688 104.176 91.1025V96.8066H101.988ZM121.782 96.9912C120.437 96.9912 119.409 96.3232 118.882 95.2246H118.829V96.8066H116.64V84.124H118.829V89.0898H118.882C119.409 87.9736 120.472 87.2969 121.791 87.2969C124.129 87.2969 125.632 89.1338 125.632 92.1396V92.1484C125.632 95.1455 124.137 96.9912 121.782 96.9912ZM121.123 95.1455C122.529 95.1455 123.399 94.0029 123.399 92.1484V92.1396C123.399 90.2852 122.52 89.1426 121.123 89.1426C119.778 89.1426 118.829 90.3203 118.829 92.1396V92.1484C118.829 93.9766 119.769 95.1455 121.123 95.1455ZM130.572 96.9912C127.777 96.9912 126.09 95.1367 126.09 92.1748V92.166C126.09 89.2305 127.804 87.2969 130.467 87.2969C133.13 87.2969 134.782 89.1689 134.782 91.9814V92.6846H128.261C128.296 94.3193 129.192 95.2861 130.616 95.2861C131.706 95.2861 132.418 94.7061 132.629 94.082L132.647 94.0205H134.694L134.668 94.1172C134.378 95.5498 133.007 96.9912 130.572 96.9912ZM130.493 89.0107C129.333 89.0107 128.463 89.793 128.287 91.2256H132.655C132.497 89.749 131.653 89.0107 130.493 89.0107ZM135.636 96.8066V87.4902H137.825V89.0986H137.869C138.159 87.9736 138.932 87.2969 140.004 87.2969C140.277 87.2969 140.532 87.3408 140.699 87.3848V89.3623C140.514 89.292 140.18 89.2393 139.811 89.2393C138.572 89.2393 137.825 90.0215 137.825 91.4014V96.8066H135.636ZM144.901 96.9912C142.458 96.9912 141.06 95.8311 140.867 94.0996L140.858 94.0205H143.011L143.029 94.0996C143.196 94.8994 143.802 95.374 144.91 95.374C145.973 95.374 146.615 94.9434 146.615 94.2578V94.249C146.615 93.6865 146.29 93.3701 145.323 93.1504L143.776 92.8076C141.992 92.4121 141.095 91.542 141.095 90.1621V90.1533C141.095 88.4482 142.581 87.2969 144.831 87.2969C147.151 87.2969 148.505 88.5713 148.584 90.1797L148.593 90.2764H146.553L146.545 90.2061C146.448 89.459 145.85 88.9141 144.831 88.9141C143.864 88.9141 143.258 89.3623 143.258 90.0479V90.0566C143.258 90.5928 143.618 90.9443 144.585 91.1641L146.14 91.5068C148.065 91.9375 148.812 92.6934 148.812 94.0469V94.0557C148.812 95.8135 147.186 96.9912 144.901 96.9912Z" fill="white"/>
</svg>
