<svg width="28" height="30" viewBox="0 0 28 30" fill="none" xmlns="http://www.w3.org/2000/svg">
<path d="M9.22923 12.3242C6.84466 12.3242 4.90527 14.2637 4.90527 16.6482C4.90527 19.0327 6.84473 20.9721 9.22923 20.9721H14.3325C16.7171 20.9721 18.6565 19.0327 18.6565 16.6482C18.6565 14.2637 16.717 12.3242 14.3325 12.3242H9.22923ZM8.96784 17.6333C8.33164 17.6333 7.81503 17.1167 7.81503 16.4805C7.81503 15.8455 8.33164 15.3277 8.96784 15.3277C9.60281 15.3277 10.1207 15.8443 10.1207 16.4805C10.1207 17.1154 9.60404 17.6333 8.96784 17.6333ZM11.8481 19.6948H11.6779C11.0627 19.6948 10.5633 19.1942 10.5633 18.5802C10.5633 18.4446 10.6743 18.3336 10.8099 18.3336C10.9455 18.3336 11.0565 18.4446 11.0565 18.5802C11.0565 18.923 11.3352 19.2016 11.6779 19.2016H11.8481C12.1908 19.2016 12.4695 18.923 12.4695 18.5802C12.4695 18.4446 12.5805 18.3336 12.7161 18.3336C12.8517 18.3336 12.9627 18.4446 12.9627 18.5802C12.9627 19.1955 12.4621 19.6948 11.8481 19.6948ZM15.791 16.4803C15.791 17.1276 15.2645 17.6554 14.616 17.6554C13.9687 17.6554 13.441 17.1289 13.441 16.4803C13.441 15.833 13.9675 15.3053 14.616 15.3053C15.2633 15.3053 15.791 15.8318 15.791 16.4803Z" fill="#DCA629"/>
<path d="M8.9396 11.5059C6.10376 11.5059 3.79688 13.8127 3.79688 16.6486C3.79688 19.4844 6.10376 21.7913 8.9396 21.7913H14.6237C17.4595 21.7913 19.7664 19.4844 19.7664 16.6486C19.7664 13.8127 17.4595 11.5059 14.6237 11.5059H8.9396ZM19.273 16.6486C19.273 19.2119 17.1868 21.298 14.6237 21.298H8.9396C6.37626 21.298 4.29022 19.2118 4.29022 16.6486C4.29022 14.0854 6.37641 11.9992 8.9396 11.9992H14.6237C17.187 11.9992 19.273 14.0854 19.273 16.6486Z" fill="#DCA629"/>
<path d="M25.3554 1.6578C24.0509 0.791023 22.2717 0.220156 20.3446 0.0512567C18.4174 -0.117642 16.5654 0.133866 15.1302 0.761448C13.6457 1.40999 12.774 2.38526 12.6754 3.5085C12.5927 4.4468 13.0551 5.374 14.0119 6.18898C14.8478 6.90163 16.0401 7.48853 17.3927 7.85594C17.299 8.0828 17.1979 8.33925 17.0993 8.59324C15.5457 7.5033 13.7235 6.92874 11.8123 6.92874C7.3624 6.92874 3.63879 10.0937 2.77457 14.292L2.07423 14.7433C1.16553 15.3289 0.589741 16.3227 0.53302 17.4016C0.466439 18.674 1.11127 19.8601 2.21478 20.4976L3.1321 21.0277C3.14566 21.0364 3.16046 21.0413 3.17525 21.0462C3.95324 22.7613 5.43776 24.0904 7.25522 24.66C6.45131 25.2913 5.77935 26.0878 5.29604 26.9891L4.47364 28.5204C4.43911 28.5858 4.43418 28.6622 4.46254 28.73C4.4909 28.7979 4.54762 28.8509 4.6179 28.8718L4.69311 28.8953C7.06287 29.6313 9.50283 30 11.9443 30C14.3005 30 16.6581 29.6572 18.9512 28.9705C19.0178 28.9507 19.0733 28.9027 19.1041 28.8398C19.1337 28.7769 19.1349 28.7029 19.1078 28.6388L18.6775 27.6191C18.1831 26.4453 17.4014 25.4281 16.4039 24.6502C18.225 24.0682 19.7083 22.7206 20.4741 20.9894C20.479 20.9869 20.4852 20.9844 20.4901 20.9807L21.3261 20.4987C22.4296 19.8612 23.0732 18.6751 23.0078 17.4027C22.9511 16.3238 22.3753 15.33 21.4666 14.7444L20.8674 14.3584C20.8649 14.3572 20.8625 14.356 20.86 14.3547C20.4926 12.5176 19.5703 10.8186 18.2054 9.50429L20.1683 8.28734C21.9746 8.37241 23.6883 8.08267 25.0014 7.46863C26.386 6.82132 27.201 5.87193 27.2959 4.79431C27.3946 3.67107 26.7053 2.55894 25.3565 1.66132L25.3554 1.6578ZM2.46038 20.0685C1.51838 19.5247 0.968474 18.5125 1.02519 17.4262C1.07328 16.5052 1.56522 15.6569 2.34078 15.1563L2.66258 14.9492C2.6108 15.3437 2.58367 15.7469 2.58367 16.1563V18.3041C2.58367 19.0069 2.6934 19.685 2.89684 20.3212L2.46038 20.0697L2.46038 20.0685ZM18.2228 27.808L18.5459 28.5737C14.1184 29.8436 9.46267 29.814 5.0497 28.4873L5.73029 27.2211C6.2432 26.2668 6.98051 25.4395 7.86825 24.8193C8.3121 24.913 8.77325 24.9623 9.24425 24.9623H14.3797C14.8643 24.9623 15.3377 24.9093 15.7927 24.8106C16.8728 25.5615 17.7111 26.5947 18.2228 27.808ZM21.0389 18.3018V16.154C21.0389 15.7681 21.0143 15.3846 20.9662 15.0049L21.1992 15.1553C21.9748 15.6546 22.4667 16.5029 22.5148 17.4252C22.5715 18.5114 22.0216 19.5237 21.0796 20.0675L20.7455 20.261C20.9366 19.6409 21.0402 18.9837 21.0402 18.3018L21.0389 18.3018ZM20.5458 16.154V18.3018C20.5458 21.7022 17.779 24.4679 14.3797 24.4679H9.24425C5.84385 24.4679 3.07821 21.7011 3.07821 18.3018V16.154C3.07821 11.338 6.99657 7.4196 11.8126 7.4196C13.6621 7.4196 15.4239 7.98923 16.9159 9.06686C16.7198 9.57855 16.5669 9.99036 16.5645 9.99898C16.5275 10.0976 16.5583 10.2086 16.6397 10.2752C16.6853 10.3122 16.7396 10.3306 16.7963 10.3306C16.8407 10.3306 16.8863 10.3183 16.9257 10.2937L17.7716 9.76963C19.5372 11.4181 20.547 13.7372 20.547 16.1541L20.5458 16.154ZM26.803 4.74644C26.7241 5.64156 26.0102 6.44793 24.7908 7.01757C23.5307 7.60693 21.8699 7.87942 20.1143 7.78694C20.0637 7.78447 20.0144 7.7968 19.9712 7.82393L17.2797 9.49338C17.4782 8.96936 17.7544 8.25547 17.9566 7.78324C17.9849 7.71666 17.9825 7.64145 17.9504 7.5761C17.9184 7.51076 17.8592 7.4639 17.7889 7.44664C14.9284 6.74384 13.0271 5.14221 13.1676 3.55038C13.2502 2.6158 14.0171 1.78475 15.329 1.21142C16.4116 0.739189 17.7493 0.491379 19.182 0.491379C19.5507 0.491379 19.9255 0.507408 20.3028 0.540698C22.1498 0.702218 23.8475 1.24473 25.0832 2.0671C26.2755 2.8599 26.8858 3.81051 26.8044 4.74635L26.803 4.74644Z" fill="#DCA629"/>
<path d="M19.5196 3.2002C19.0955 3.2002 18.7515 3.54418 18.7515 3.96834C18.7515 4.3925 19.0955 4.73648 19.5196 4.73648C19.9438 4.73648 20.2878 4.3925 20.2878 3.96834C20.2878 3.54418 19.9438 3.2002 19.5196 3.2002Z" fill="#DCA629"/>
<path d="M16.0318 3.2002C15.6077 3.2002 15.2637 3.54418 15.2637 3.96834C15.2637 4.3925 15.6077 4.73648 16.0318 4.73648C16.456 4.73648 16.8 4.3925 16.8 3.96834C16.8 3.54418 16.456 3.2002 16.0318 3.2002Z" fill="#DCA629"/>
<path d="M22.9537 3.2002C22.5295 3.2002 22.1855 3.54418 22.1855 3.96834C22.1855 4.3925 22.5295 4.73648 22.9537 4.73648C23.3778 4.73648 23.7218 4.3925 23.7218 3.96834C23.7218 3.54418 23.3778 3.2002 22.9537 3.2002Z" fill="#DCA629"/>
</svg>
