<svg width="32" height="30" viewBox="0 0 32 30" fill="none" xmlns="http://www.w3.org/2000/svg">
<g clip-path="url(#clip0_170_42887)">
<path d="M8.89638 5.66695C8.66989 5.40453 8.49026 5.19834 8.31844 4.99684C7.84983 4.4314 7.88263 3.76129 8.3981 3.23489C8.54024 3.09119 8.68082 2.94905 8.82609 2.80846C9.04248 2.5782 9.33987 2.44102 9.6555 2.42586C9.97112 2.41071 10.2803 2.51877 10.5177 2.72724C10.9239 3.05682 11.3144 3.40515 11.7018 3.75504C11.7452 3.80029 11.8033 3.82859 11.8657 3.83489C11.9281 3.84118 11.9907 3.82506 12.0423 3.78941C12.6921 3.502 13.3466 3.22552 14.0104 2.97091C14.1666 2.91312 14.2119 2.85689 14.2213 2.70537C14.2478 2.21334 14.29 1.72287 14.3244 1.23083C14.3267 1.06416 14.3624 0.899646 14.4294 0.746978C14.4963 0.594311 14.5931 0.456574 14.714 0.341877C14.835 0.227181 14.9777 0.137843 15.1337 0.0791238C15.2897 0.0204046 15.4558 -0.00650919 15.6224 -3.30543e-05C15.7942 -3.30543e-05 15.9645 -3.30543e-05 16.1363 -3.30543e-05C16.9642 -3.30543e-05 17.4656 0.476381 17.5187 1.30737C17.5484 1.75879 17.5827 2.20865 17.6015 2.66164C17.6093 2.85376 17.6952 2.91781 17.8717 2.98497C18.5168 3.23021 19.1525 3.50044 19.782 3.78316C19.8375 3.8222 19.9054 3.83948 19.9728 3.8317C20.0402 3.82393 20.1024 3.79164 20.1476 3.74099C20.4709 3.43952 20.8098 3.15523 21.1426 2.86313C21.8361 2.25083 22.4843 2.2602 23.1232 2.91937C23.3792 3.15986 23.5949 3.4399 23.762 3.7488C23.9635 4.18303 23.823 4.61571 23.5246 4.98435C23.3497 5.1999 23.1622 5.40765 22.9357 5.67319H28.4403C30.0335 5.67319 31.0801 6.71974 31.0816 8.3208C31.0816 12.6247 31.0816 16.9275 31.0816 21.2293C31.0816 21.9228 31.0816 22.6163 31.0816 23.3099C31.0691 24.8375 30.0226 25.8856 28.4965 25.8872C25.4006 25.8872 22.3047 25.8846 19.2088 25.8794C18.9198 25.8794 18.7839 25.9653 18.6886 26.2324C18.3361 27.1537 18.3506 28.1753 18.7292 29.0862C18.7465 29.163 18.7922 29.2304 18.857 29.275C18.9219 29.3196 19.0012 29.3381 19.0791 29.3267C19.44 29.3096 19.8023 29.3267 20.1725 29.3267C20.4084 29.3267 20.5802 29.422 20.5849 29.6657C20.5896 29.9094 20.4287 30.0125 20.185 30.0125H11.6752C11.4362 30.0125 11.2425 29.9469 11.2488 29.6673C11.255 29.3877 11.4456 29.3252 11.6846 29.3267C12.036 29.3267 12.389 29.3111 12.7405 29.3346C12.9639 29.3486 13.0529 29.2533 13.1294 29.0612C13.5114 28.1293 13.5114 27.0846 13.1294 26.1527C13.1076 26.0675 13.055 25.9934 12.9817 25.9446C12.9085 25.8959 12.8197 25.876 12.7327 25.8888C10.2335 25.8966 7.73424 25.8888 5.22409 25.8888C4.58054 25.8888 3.93855 25.8888 3.29501 25.8888C1.8189 25.8716 0.750488 24.8157 0.750488 23.3489C0.750488 18.3005 0.750488 13.2536 0.750488 8.20834C0.750488 6.72911 1.82047 5.67163 3.3075 5.66851C5.03665 5.66851 6.7658 5.66851 8.49494 5.66851L8.89638 5.66695ZM11.8408 16.8447C11.4393 17.1962 11.027 17.5632 10.6083 17.9225C10.0085 18.4395 9.33843 18.4145 8.77767 17.8631L8.49963 17.5867C7.84046 16.9259 7.81703 16.3058 8.42621 15.6013C8.76673 15.2077 9.10881 14.8203 9.40091 14.4814C9.05414 13.652 8.73237 12.8772 8.40435 12.0712C7.88732 12.0306 7.31094 11.99 6.74549 11.9415C6.4259 11.9277 6.12448 11.7891 5.90601 11.5554C5.68754 11.3218 5.56944 11.0117 5.5771 10.6919C5.5771 10.5217 5.58804 10.3499 5.5771 10.1796C5.50838 9.34236 6.09413 8.77379 6.93137 8.75192C7.37342 8.7363 7.81391 8.69413 8.25596 8.67538C8.32453 8.6782 8.39164 8.65496 8.44379 8.61034C8.49595 8.56572 8.52929 8.50302 8.53712 8.43483C8.64068 8.0679 8.7632 7.70659 8.90419 7.35236C9.03852 7.02433 9.21659 6.71193 9.38685 6.35267H3.41528C2.1563 6.35579 1.42996 7.079 1.42996 8.33955V21.4495H30.374C30.374 21.3761 30.385 21.3261 30.385 21.2761C30.385 16.9119 30.385 12.5476 30.385 8.18335C30.385 7.10868 29.6368 6.3636 28.559 6.35736C26.5987 6.34798 24.6383 6.35736 22.6764 6.35736C22.6208 6.35919 22.5654 6.36598 22.5109 6.37766C22.7749 7.06495 23.0451 7.73349 23.2809 8.40828C23.2955 8.48954 23.34 8.5624 23.4056 8.61244C23.4713 8.66248 23.5533 8.68605 23.6355 8.67851C24.1572 8.7035 24.6805 8.73005 25.1975 8.79566C25.4916 8.82987 25.7627 8.97133 25.959 9.19296C26.1552 9.41458 26.2629 9.70081 26.2613 9.99684C26.2706 10.228 26.2613 10.4654 26.2613 10.6919C26.2645 11.0113 26.1443 11.3195 25.9258 11.5524C25.7072 11.7852 25.4071 11.9247 25.0882 11.9415C24.5873 11.9863 24.0859 12.0223 23.584 12.0493C23.5168 12.044 23.4501 12.0633 23.3961 12.1035C23.3421 12.1437 23.3045 12.2022 23.2903 12.268C23.0373 12.9319 22.7608 13.5863 22.4718 14.2361C22.4369 14.2886 22.4217 14.3517 22.4289 14.4143C22.436 14.4769 22.4651 14.535 22.5109 14.5782C22.8483 14.95 23.1825 15.3264 23.5059 15.7122C23.9823 16.2808 23.9542 16.9431 23.4387 17.4742C23.3419 17.5742 23.2403 17.6726 23.1419 17.7725C22.4687 18.4442 21.858 18.4661 21.1332 17.8397C20.7458 17.5054 20.3615 17.1665 20.0398 16.9025C19.2588 17.204 18.5246 17.4773 17.803 17.771C17.7519 17.7979 17.7076 17.836 17.6735 17.8826C17.6394 17.9291 17.6164 17.9828 17.6062 18.0396C17.5577 18.4879 17.5374 18.9409 17.5109 19.3923C17.4609 20.2265 16.9657 20.7013 16.1379 20.706C15.9676 20.706 15.7958 20.706 15.6255 20.706C14.8617 20.706 14.365 20.2249 14.3134 19.4642C14.2775 18.9144 14.2338 18.3708 14.1947 17.8272C13.787 17.6882 13.3903 17.5757 13.0123 17.418C12.6343 17.2602 12.261 17.0509 11.8408 16.8447ZM1.42996 22.1805V23.2411C1.42996 24.4548 2.17348 25.2015 3.38092 25.2015H18.8448C22.1001 25.2015 25.3553 25.2015 28.6121 25.2015C28.9773 25.2045 29.3341 25.0925 29.6321 24.8814C29.9301 24.6703 30.1542 24.3708 30.2725 24.0253C30.4834 23.4223 30.3459 22.8007 30.3865 22.1805H1.42996ZM22.1063 17.632C22.2407 17.5745 22.3697 17.5056 22.4921 17.4258C22.6281 17.3065 22.7574 17.1797 22.8795 17.0462C23.2263 16.6963 23.2435 16.4495 22.9264 16.0793C22.5562 15.642 22.1829 15.2062 21.797 14.7844C21.7482 14.745 21.7078 14.6962 21.6782 14.6408C21.6486 14.5855 21.6304 14.5248 21.6248 14.4623C21.6191 14.3998 21.626 14.3368 21.6451 14.277C21.6643 14.2172 21.6952 14.1619 21.7361 14.1143C22.2091 13.4011 22.5371 12.6018 22.7014 11.7619C22.706 11.7071 22.7213 11.6537 22.7465 11.6048C22.7718 11.5559 22.8065 11.5125 22.8486 11.477C22.8907 11.4416 22.9394 11.4149 22.9919 11.3984C23.0444 11.3818 23.0996 11.3759 23.1544 11.3808C23.7371 11.3527 24.3181 11.3089 24.8992 11.2668C25.385 11.2324 25.563 11.0434 25.5693 10.5654C25.5693 10.4092 25.5693 10.2639 25.5693 10.114C25.5693 9.66882 25.4131 9.48919 24.9679 9.44858C24.3681 9.39547 23.7652 9.36267 23.1638 9.32674C23.0477 9.33121 22.9343 9.2909 22.8471 9.21415C22.7599 9.1374 22.7055 9.03008 22.6952 8.91437C22.5313 8.08409 22.2043 7.2946 21.733 6.59166C21.6917 6.5448 21.6602 6.49016 21.6403 6.43095C21.6204 6.37174 21.6126 6.30915 21.6172 6.24686C21.6219 6.18458 21.639 6.12385 21.6674 6.06825C21.6959 6.01266 21.7352 5.96331 21.783 5.92312C22.175 5.49356 22.5562 5.04995 22.9326 4.60634C23.2294 4.25801 23.2153 4.00497 22.9014 3.68319C22.7952 3.57541 22.6889 3.46763 22.5812 3.37079C22.2469 3.04277 21.986 3.03027 21.644 3.33486C21.1972 3.72537 20.7521 4.11587 20.3147 4.51731C20.2399 4.6005 20.1359 4.65152 20.0244 4.65967C19.9128 4.66783 19.8025 4.63248 19.7164 4.56104C18.9968 4.07942 18.1887 3.74546 17.3391 3.57854C17.2283 3.56896 17.1256 3.51666 17.0527 3.43269C16.9798 3.34873 16.9425 3.2397 16.9486 3.12868C16.9251 2.67726 16.8876 2.22583 16.8673 1.77441C16.8236 0.738799 16.6736 0.681004 15.7521 0.707558C15.2163 0.723179 15.0382 0.885628 15.0038 1.42608C14.9679 1.99778 14.9211 2.56791 14.8929 3.1443C14.8983 3.25033 14.8627 3.35437 14.7935 3.4349C14.7243 3.51543 14.6268 3.56629 14.5212 3.57697C13.6632 3.75144 12.847 4.08982 12.1172 4.57354C12.0346 4.64091 11.9293 4.67409 11.823 4.66624C11.7167 4.6584 11.6174 4.61013 11.5456 4.53136C11.1925 4.21896 10.8333 3.90656 10.4771 3.59416C9.73518 2.94748 9.66645 2.94905 8.97917 3.64102C8.58085 4.03933 8.57304 4.26582 8.94793 4.69694C9.3025 5.10618 9.65239 5.52324 10.0226 5.91999C10.246 6.15898 10.2522 6.36829 10.0726 6.64008C9.6078 7.32432 9.28878 8.09687 9.13537 8.90968C9.07601 9.22209 8.90575 9.33924 8.59647 9.35173C8.01384 9.3736 7.43278 9.42202 6.85171 9.4642C6.4409 9.49544 6.25346 9.69538 6.24721 10.0999C6.24721 10.2718 6.24721 10.442 6.24721 10.6123C6.24721 11.045 6.45027 11.2511 6.88763 11.2793C7.47964 11.3199 8.07008 11.3683 8.66208 11.3948C8.77348 11.3874 8.88343 11.4234 8.96879 11.4954C9.05415 11.5673 9.10827 11.6696 9.11975 11.7807C9.29242 12.6378 9.63326 13.4522 10.1226 14.1768C10.1901 14.2592 10.2228 14.3647 10.2138 14.4709C10.2047 14.5771 10.1546 14.6755 10.0741 14.7454C9.76173 15.089 9.46495 15.4405 9.16348 15.7903C8.49494 16.5589 8.49807 16.6198 9.21815 17.3305C9.58054 17.6882 9.82109 17.6991 10.2069 17.368C10.6646 16.9744 11.1207 16.587 11.5705 16.1777C11.6302 16.1089 11.7139 16.0655 11.8046 16.0564C11.8952 16.0474 11.9859 16.0735 12.0579 16.1293C12.8106 16.6341 13.6557 16.985 14.5446 17.1618C14.6404 17.1728 14.7284 17.22 14.7906 17.2938C14.8527 17.3675 14.8843 17.4623 14.8789 17.5585C14.9117 18.1505 14.957 18.741 14.9945 19.333C15.0257 19.8297 15.221 20.0218 15.7083 20.0234H16.1316C16.5862 20.0234 16.7783 19.8531 16.8142 19.3986C16.8595 18.8269 16.9033 18.2568 16.9251 17.6804C16.9392 17.368 17.0579 17.1837 17.3859 17.1212C18.1853 16.9599 18.9466 16.6477 19.629 16.2012C20.0023 15.9653 20.0429 15.97 20.385 16.2699C20.8098 16.6401 21.23 17.0134 21.6627 17.3742C21.8026 17.4732 21.951 17.5595 22.1063 17.632ZM13.7667 29.2955H18.0685C17.6343 28.2079 17.6343 26.9951 18.0685 25.9075H13.7605C14.1959 26.9945 14.1981 28.2069 13.7667 29.2955Z" fill="#DCA629"/>
<path d="M5.00863 18.3192C5.75215 18.3192 6.4941 18.3192 7.23762 18.3192C7.47973 18.3192 7.69217 18.352 7.70623 18.655C7.7156 18.8846 7.56096 18.9986 7.24699 18.9986C5.74017 18.9986 4.23387 18.9986 2.72809 18.9986C2.37664 18.9986 2.16421 18.7284 2.34072 18.4957C2.39015 18.4441 2.44926 18.4029 2.51465 18.3742C2.58005 18.3455 2.65045 18.33 2.72185 18.3285C3.48255 18.3113 4.24481 18.3192 5.00863 18.3192Z" fill="#DCA629"/>
<path d="M26.805 18.3195C27.5485 18.3195 28.2904 18.3195 29.034 18.3195C29.2808 18.3195 29.4854 18.3632 29.5026 18.6537C29.5213 18.8708 29.3464 18.9989 29.034 18.9989C27.5282 18.9989 26.0224 18.9989 24.5151 18.9989C24.2761 18.9989 24.0855 18.9349 24.0793 18.66C24.073 18.3851 24.2636 18.3163 24.5057 18.3179C25.2742 18.3226 26.0427 18.3195 26.805 18.3195Z" fill="#DCA629"/>
<path d="M5.01024 20.5043H2.75001C2.43761 20.5043 2.26891 20.3778 2.28141 20.1591C2.30172 19.8701 2.50634 19.8154 2.75001 19.8154H7.24236C7.48291 19.8154 7.71096 19.8576 7.70159 20.1591C7.69222 20.4605 7.48447 20.5043 7.23299 20.5043C6.49572 20.5027 5.74908 20.5043 5.01024 20.5043Z" fill="#DCA629"/>
<path d="M26.8142 20.5046C26.0332 20.5046 25.2678 20.5046 24.4962 20.5046C24.1838 20.5046 24.0182 20.2984 24.1041 20.0469C24.1775 19.8313 24.3603 19.8188 24.5462 19.8188H29.1244C29.3478 19.8188 29.5071 19.9266 29.5055 20.1562C29.504 20.3859 29.34 20.5046 29.1041 20.5046H26.8142Z" fill="#DCA629"/>
<path d="M4.3554 17.4945C3.81182 17.4945 3.2698 17.4945 2.72622 17.4945C2.48254 17.4945 2.29042 17.4211 2.28573 17.1587C2.28104 16.8963 2.47005 16.8119 2.71685 16.8135C3.82171 16.8135 4.92709 16.8135 6.033 16.8135C6.28136 16.8135 6.46411 16.8994 6.45786 17.1634C6.45162 17.4274 6.25636 17.4945 6.01269 17.4945C5.45974 17.4945 4.90679 17.4945 4.3554 17.4945Z" fill="#DCA629"/>
<path d="M27.4001 17.4945C26.8581 17.4945 26.3067 17.4945 25.7725 17.4945C25.5272 17.4945 25.3367 17.4211 25.3335 17.1571C25.3304 16.8932 25.5179 16.8119 25.7646 16.8135C26.8706 16.8135 27.9759 16.8135 29.0808 16.8135C29.3292 16.8135 29.5119 16.901 29.5041 17.1634C29.4963 17.4258 29.3245 17.4961 29.0886 17.4945C28.5247 17.4945 27.9624 17.4945 27.4001 17.4945Z" fill="#DCA629"/>
<path d="M15.9019 24.0204C15.2178 24.0204 14.5352 24.0204 13.851 24.0204C13.6151 24.0204 13.4246 23.9657 13.4058 23.6892C13.3902 23.4596 13.5495 23.3394 13.8604 23.3394C15.2381 23.3394 16.6158 23.3394 17.9919 23.3394C18.2309 23.3394 18.4183 23.394 18.4386 23.6689C18.4543 23.897 18.2949 24.0188 17.9825 24.0204C17.2827 24.0235 16.5892 24.0204 15.9019 24.0204Z" fill="#DCA629"/>
<path d="M15.9019 16.2634C14.733 16.2618 13.5908 15.9133 12.6201 15.2621C11.6495 14.6108 10.8939 13.6861 10.4493 12.6051C10.0046 11.5241 9.89083 10.3354 10.1223 9.18962C10.3538 8.04387 10.9202 6.99261 11.7497 6.16904C12.5792 5.34546 13.6345 4.78662 14.7819 4.56333C15.9292 4.34003 17.1171 4.46233 18.1949 4.91472C19.2727 5.36711 20.192 6.12924 20.8363 7.10455C21.4806 8.07986 21.8209 9.22447 21.8141 10.3934C21.8009 11.9534 21.1725 13.4452 20.0653 14.5444C18.9582 15.6436 17.462 16.2614 15.9019 16.2634ZM15.9253 15.5667C16.9572 15.5658 17.9657 15.2588 18.8231 14.6845C19.6805 14.1102 20.3482 13.2945 20.7418 12.3406C21.1354 11.3867 21.2372 10.3374 21.0343 9.32563C20.8314 8.31384 20.3329 7.38498 19.6019 6.6566C18.8709 5.92822 17.9403 5.43307 16.9278 5.23379C15.9152 5.03452 14.8664 5.14009 13.9139 5.53713C12.9614 5.93418 12.1481 6.60486 11.5769 7.4643C11.0057 8.32374 10.7023 9.33331 10.7051 10.3652C10.71 11.7465 11.2622 13.0695 12.2406 14.0444C13.2191 15.0193 14.544 15.5667 15.9253 15.5667Z" fill="#DCA629"/>
<path d="M13.2702 9.89216C13.5701 9.57976 13.8232 9.2986 14.1074 9.04399C14.2105 8.95183 14.4199 8.85967 14.5151 8.90497C14.5804 8.94943 14.6349 9.00806 14.6744 9.07648C14.7138 9.14491 14.7374 9.22137 14.7432 9.30016C14.7666 9.99213 14.7432 10.6841 14.7557 11.3776C14.7557 11.6135 14.6682 11.7806 14.4183 11.7806C14.1684 11.7806 14.0778 11.6135 14.0793 11.3776C14.0793 10.959 14.0793 10.5404 14.0793 10.128L13.9919 10.064C13.8716 10.2046 13.7591 10.353 13.6295 10.4842C13.3358 10.7841 13.1952 10.7841 12.9047 10.4842C12.7735 10.3514 12.6532 10.2092 12.5267 10.0718L12.4517 10.114C12.4517 10.5404 12.4517 10.9684 12.4517 11.3948C12.4517 11.6604 12.283 11.8103 12.0597 11.7759C12.0168 11.7719 11.9751 11.7593 11.9371 11.7389C11.8991 11.7186 11.8656 11.6909 11.8384 11.6575C11.8112 11.624 11.7909 11.5855 11.7788 11.5442C11.7666 11.5029 11.7628 11.4595 11.7676 11.4167C11.7676 10.6935 11.7566 9.97026 11.7676 9.24861C11.7756 9.17695 11.8006 9.10824 11.8406 9.0482C11.8805 8.98816 11.9342 8.93852 11.9972 8.90341C12.0663 8.89056 12.1374 8.89344 12.2053 8.91183C12.2732 8.93021 12.336 8.96364 12.3892 9.00962C12.6845 9.27829 12.9562 9.57507 13.2702 9.89216Z" fill="#DCA629"/>
<path d="M18.8997 10.8029C18.8997 11.0559 18.8997 11.2715 18.8997 11.473C18.8997 11.6745 18.7857 11.8494 18.5576 11.8526C18.5092 11.8554 18.4608 11.8476 18.4157 11.8297C18.3707 11.8118 18.3301 11.7842 18.2969 11.7489C18.2637 11.7136 18.2386 11.6714 18.2235 11.6254C18.2083 11.5793 18.2035 11.5305 18.2093 11.4824C18.1999 10.731 18.1937 9.97971 18.1984 9.22682C18.1937 9.17623 18.2005 9.12524 18.2183 9.07763C18.236 9.03001 18.2642 8.98699 18.3008 8.95175C18.3374 8.91651 18.3814 8.88994 18.4297 8.87402C18.4779 8.85809 18.5291 8.85321 18.5795 8.85975C18.7997 8.85975 19.0216 8.85975 19.2402 8.85975C19.4906 8.8698 19.7273 8.97631 19.9008 9.15698C20.0744 9.33764 20.1713 9.57845 20.1713 9.82898C20.1713 10.0795 20.0744 10.3203 19.9008 10.501C19.7273 10.6816 19.4906 10.7882 19.2402 10.7982C19.145 10.806 19.0465 10.8029 18.8997 10.8029ZM18.9294 9.47674V10.1984C19.1111 10.1345 19.2872 10.0556 19.4558 9.96253C19.477 9.92204 19.4881 9.87702 19.4881 9.83132C19.4881 9.78562 19.477 9.74059 19.4558 9.70011C19.2871 9.61059 19.111 9.53586 18.9294 9.47674Z" fill="#DCA629"/>
<path d="M16.4986 10.5716C16.722 10.0514 16.9141 9.6125 17.1 9.16577C17.1906 8.94708 17.3234 8.79869 17.5795 8.88148C17.792 8.94865 17.8482 9.16264 17.7357 9.43756C17.4468 10.1202 17.164 10.8059 16.8532 11.4791C16.8168 11.5496 16.765 11.611 16.7018 11.6588C16.6385 11.7066 16.5654 11.7397 16.4877 11.7556C16.3799 11.7556 16.2112 11.5994 16.155 11.4791C15.8426 10.7965 15.5536 10.1014 15.2584 9.411C15.1631 9.18763 15.1803 8.98145 15.4255 8.88304C15.6707 8.78464 15.8051 8.9299 15.8941 9.13921C16.0816 9.5922 16.2737 10.0421 16.4986 10.5716Z" fill="#DCA629"/>
</g>
<defs>
<clipPath id="clip0_170_42887">
<rect width="30.3327" height="30" fill="white" transform="translate(0.750488)"/>
</clipPath>
</defs>
</svg>
