<svg width="42" height="30" viewBox="0 0 42 30" fill="none" xmlns="http://www.w3.org/2000/svg">
<path fill-rule="evenodd" clip-rule="evenodd" d="M20.4907 2.98738C20.0696 2.97211 19.6479 2.98492 19.2284 3.02572C17.5536 3.17788 15.9562 3.80169 14.6215 4.82482C12.9398 6.15412 11.8119 8.06087 11.4569 10.1749L11.3153 10.9182L10.578 11.0479C9.91773 11.1591 9.26979 11.334 8.64321 11.57C8.11915 11.7665 7.62332 12.0312 7.16854 12.3575C6.83977 12.5929 6.54242 12.8695 6.28373 13.1803C5.53137 14.1032 5.132 15.2637 5.15708 16.4541C5.1721 17.6764 5.56458 18.8641 6.28078 19.8547C6.54893 20.2261 6.86197 20.5629 7.21278 20.8575C7.37428 20.995 7.54367 21.123 7.72007 21.2409C7.72007 21.3766 7.72007 21.5152 7.72007 21.6567C7.71772 22.0807 7.77127 22.5032 7.87933 22.9132C7.89484 22.9889 7.91453 23.0638 7.93832 23.1373L7.99436 23.2936C7.9438 23.4271 7.90723 23.5655 7.88523 23.7065L7.60799 23.6004C6.96722 23.3353 6.37052 22.9743 5.83838 22.5298C5.3493 22.1218 4.91333 21.6541 4.54067 21.1377C3.55562 19.7754 3.01769 18.141 3.00111 16.46C2.97117 14.7569 3.54828 13.0988 4.62915 11.7823C5.00482 11.3371 5.43485 10.9408 5.90917 10.6026C6.51483 10.1718 7.17292 9.81997 7.86753 9.55558C8.39501 9.34753 8.93722 9.17895 9.48967 9.05124C10.0481 6.69501 11.392 4.59908 13.3002 3.1083C14.9598 1.83624 16.9456 1.06011 19.0279 0.869745C19.9773 0.780671 20.934 0.807411 21.8769 0.949377C21.8037 1.15276 21.7523 1.36334 21.7236 1.57759C21.7236 1.65427 21.7059 1.7339 21.7 1.81059C21.5571 1.88899 21.42 1.9777 21.29 2.07603C20.9624 2.32354 20.6868 2.63323 20.4789 2.98738H20.4907ZM26.2538 22.4973V24.4321C26.3224 24.4803 26.3994 24.5153 26.4809 24.5353L26.4514 25.8714C26.119 25.9314 25.783 25.9698 25.4456 25.9864C25.276 25.9877 25.1074 25.9598 24.9472 25.9038C24.8374 25.8739 24.7363 25.8183 24.6523 25.7416L24.5697 25.6649C24.1333 25.8957 23.6445 26.0095 23.1511 25.9952C22.6993 26.0266 22.2519 25.8901 21.8946 25.6118C21.742 25.4485 21.6256 25.2548 21.5529 25.0433C21.4802 24.8319 21.453 24.6076 21.4729 24.3849C21.4729 23.8186 21.6351 23.4382 21.9507 23.2494C22.4237 23.0242 22.9429 22.9131 23.4666 22.925L24.145 22.8955V22.6566C24.145 22.5386 24.0123 22.4767 23.7498 22.4767C23.1805 22.4767 22.6025 22.5209 22.0362 22.571L21.7265 22.6005L21.6793 21.1701C22.4159 20.9626 23.1763 20.8516 23.9415 20.8398C24.5143 20.813 25.0853 20.9221 25.6079 21.1583C26.0326 21.3825 26.2479 21.8396 26.2479 22.4973H26.2538ZM14.6451 21.3707C13.7603 21.2763 13.1144 21.2291 12.7133 21.2291C12.4788 21.2193 12.2439 21.2302 12.0114 21.2615C11.9818 21.2702 11.9561 21.2886 11.9384 21.3138C11.9207 21.339 11.9121 21.3694 11.914 21.4002C11.9151 21.4348 11.9263 21.4683 11.9462 21.4966C11.9661 21.5249 11.9939 21.5467 12.0261 21.5594C12.2578 21.6407 12.4954 21.7038 12.7369 21.7482C13.0675 21.8179 13.3943 21.9046 13.7161 22.0077C13.9636 22.0871 14.196 22.2078 14.4033 22.3646C14.5917 22.5054 14.7302 22.7028 14.7985 22.9279C14.8702 23.2172 14.9029 23.5148 14.8958 23.8127C14.8958 24.5992 14.6884 25.1557 14.2735 25.4821C13.8606 25.8124 13.2353 25.9805 12.4007 25.9805C11.9775 25.9785 11.555 25.95 11.1354 25.895C10.693 25.8389 10.3509 25.7829 10.112 25.7268L9.75807 25.6649L9.85244 23.9985C10.6334 24.1203 11.4217 24.1893 12.2119 24.205C12.5393 24.205 12.7015 24.1342 12.7015 23.9867C12.7015 23.9248 12.6632 23.8806 12.5894 23.8511C12.3882 23.7965 12.1831 23.7571 11.976 23.7331C11.0912 23.5945 10.5013 23.3792 10.1828 23.0872C9.86424 22.7952 9.70793 22.3174 9.70793 21.6538C9.70793 20.8044 9.91143 20.2234 10.3184 19.9107C10.7284 19.5981 11.3566 19.4388 12.2031 19.4388C12.9064 19.4488 13.6082 19.5089 14.303 19.6187L14.6982 19.6836L14.6422 21.3795L14.6451 21.3707ZM32.1997 21.3707C31.3149 21.2841 30.6709 21.2409 30.2678 21.2409C30.0343 21.2324 29.8005 21.2432 29.5688 21.2733C29.5387 21.2814 29.5124 21.2996 29.4941 21.3248C29.4758 21.3501 29.4668 21.3808 29.4686 21.412C29.4695 21.447 29.4809 21.481 29.5014 21.5094C29.522 21.5378 29.5506 21.5593 29.5836 21.5712C29.8145 21.6516 30.0511 21.7147 30.2914 21.76C30.6233 21.8284 30.9512 21.915 31.2736 22.0195C31.5202 22.0989 31.7516 22.2196 31.9578 22.3764C32.1512 22.5148 32.2942 22.7126 32.3648 22.9397C32.4365 23.229 32.4692 23.5266 32.4621 23.8245C32.4621 24.611 32.2557 25.1675 31.8428 25.4939C31.4269 25.8242 30.8017 25.9923 29.967 25.9923C29.5439 25.9903 29.1213 25.9618 28.7017 25.9068C28.2593 25.8507 27.9113 25.7917 27.6813 25.7386L27.3126 25.6649L27.407 23.9985C28.1879 24.1202 28.9762 24.1891 29.7664 24.205C30.0938 24.205 30.256 24.1342 30.256 23.9867C30.2549 23.9549 30.2433 23.9244 30.223 23.8999C30.2028 23.8753 30.175 23.8582 30.144 23.8511C29.9429 23.7998 29.7391 23.7605 29.5334 23.7331C28.6486 23.6033 28.0588 23.3792 27.7373 23.0872C27.4158 22.7952 27.2624 22.3174 27.2624 21.6538C27.2624 20.8044 27.4689 20.2204 27.8759 19.9107C28.2829 19.6011 28.9111 19.4388 29.7576 19.4388C30.4613 19.4413 31.1637 19.5014 31.8575 19.6187L32.2527 19.6836L32.1997 21.3707ZM17.7243 24.7978C17.9787 24.785 18.2198 24.6802 18.4026 24.5029V23.7832L17.795 23.8216C17.7297 23.8194 17.6646 23.8314 17.6043 23.8567C17.544 23.882 17.4899 23.9201 17.4456 23.9683C17.4014 24.0164 17.368 24.0736 17.3479 24.1358C17.3278 24.1981 17.3214 24.2639 17.329 24.3289C17.329 24.6415 17.4618 24.7978 17.7243 24.7978ZM23.5345 24.7978C23.7889 24.785 24.03 24.6802 24.2128 24.5029V23.7832L23.6053 23.8216C23.5401 23.8199 23.4754 23.8322 23.4154 23.8577C23.3555 23.8832 23.3017 23.9213 23.2578 23.9694C23.2139 24.0175 23.1808 24.0745 23.1609 24.1366C23.1409 24.1986 23.1346 24.2642 23.1422 24.3289C23.1422 24.6415 23.272 24.7978 23.5345 24.7978ZM20.4436 22.4973V24.4321C20.5122 24.4803 20.5892 24.5153 20.6707 24.5353L20.6441 25.8714C20.3107 25.9313 19.9738 25.9697 19.6354 25.9864C19.4658 25.9877 19.2972 25.9598 19.137 25.9038C19.0275 25.8732 18.9265 25.8177 18.8421 25.7416L18.7595 25.6649C18.324 25.8953 17.8363 26.0091 17.3438 25.9952C16.891 26.0279 16.4422 25.8913 16.0844 25.6118C15.9313 25.4488 15.8146 25.2551 15.7419 25.0436C15.6692 24.8321 15.6422 24.6076 15.6627 24.3849C15.6627 23.8186 15.8219 23.4382 16.1405 23.2494C16.6139 23.0225 17.1345 22.9113 17.6594 22.925L18.3348 22.8955V22.6566C18.3348 22.5386 18.205 22.4767 17.9396 22.4767C17.3674 22.4767 16.7923 22.5209 16.226 22.571L15.9163 22.6005L15.8691 21.1701C16.6076 20.9621 17.37 20.8511 18.1372 20.8398C18.713 20.8109 19.2874 20.9201 19.8124 21.1583C20.2341 21.3854 20.4495 21.8367 20.4495 22.4973H20.4436ZM33.0107 2.04064L33.751 3.01687C33.8437 3.1409 33.8838 3.29639 33.8629 3.44978C33.8419 3.60317 33.7615 3.74217 33.6389 3.83679L32.8515 4.42666C32.9968 4.81356 33.089 5.21834 33.1258 5.62999L34.0106 5.75092C34.1643 5.77289 34.3031 5.85457 34.397 5.97825C34.4908 6.10193 34.5321 6.25763 34.5119 6.41157L34.3468 7.62965C34.3248 7.78335 34.2431 7.92219 34.1194 8.01606C33.9958 8.10992 33.8401 8.15123 33.6861 8.13104L32.7069 7.99537C32.5353 8.37095 32.313 8.72125 32.0463 9.03649L32.5949 9.75908C32.6881 9.88367 32.7284 10.0401 32.7068 10.1942C32.6853 10.3483 32.6037 10.4877 32.4798 10.5819L31.5125 11.3311C31.3877 11.4231 31.2317 11.4623 31.0783 11.4402C30.9249 11.4182 30.7863 11.3366 30.6925 11.2131L30.1027 10.4256C29.715 10.5714 29.3091 10.6627 28.8964 10.697L28.7755 11.5818C28.7664 11.6603 28.7417 11.7363 28.7027 11.8051C28.6637 11.8739 28.6113 11.9342 28.5486 11.9823C28.4859 12.0305 28.4141 12.0655 28.3375 12.0854C28.261 12.1052 28.1812 12.1095 28.103 12.0979L26.8908 11.9357C26.7365 11.9137 26.5972 11.8316 26.5033 11.7073C26.4093 11.583 26.3684 11.4265 26.3894 11.2721L26.5251 10.2959C26.15 10.1218 25.799 9.89968 25.481 9.63521L24.7614 10.1838C24.6374 10.2764 24.4819 10.3166 24.3285 10.2957C24.1751 10.2747 24.0361 10.1943 23.9415 10.0717L23.2012 9.09548C23.1532 9.03405 23.1178 8.96371 23.0971 8.88853C23.0765 8.81335 23.0709 8.73481 23.0808 8.65747C23.0907 8.58012 23.1158 8.50551 23.1547 8.43793C23.1936 8.37035 23.2455 8.31115 23.3074 8.26376L24.0948 7.67389C23.9494 7.28719 23.8581 6.88225 23.8235 6.47056L22.9387 6.34668C22.785 6.32471 22.6462 6.24303 22.5523 6.11935C22.4584 5.99567 22.4171 5.83997 22.4373 5.68603L22.6025 4.4709C22.6244 4.3172 22.7061 4.17836 22.8298 4.08449C22.9535 3.99063 23.1092 3.94932 23.2631 3.96951L24.2364 4.10518C24.4105 3.73095 24.6326 3.38097 24.8971 3.06406L24.3426 2.34442C24.2499 2.22039 24.2098 2.0649 24.2307 1.91151C24.2517 1.75812 24.3321 1.61912 24.4547 1.5245L25.4309 0.784213C25.5544 0.689996 25.7101 0.6483 25.8642 0.668179C26.0182 0.688058 26.1582 0.767907 26.2538 0.89039L26.8436 1.67492C27.2311 1.53194 27.6357 1.44071 28.047 1.40358L28.1708 0.518772C28.1803 0.441041 28.2051 0.365967 28.2439 0.297928C28.2826 0.229889 28.3345 0.170247 28.3966 0.122479C28.4586 0.0747107 28.5295 0.0397735 28.6052 0.0197043C28.6809 -0.000364965 28.7598 -0.00516448 28.8374 0.00558559L30.0525 0.170749C30.2062 0.19272 30.3451 0.274404 30.4389 0.398082C30.5328 0.52176 30.5741 0.677459 30.5539 0.831403L30.43 1.81649C30.8058 1.98948 31.1569 2.21164 31.4741 2.47714L32.1997 1.93151C32.3237 1.83669 32.4803 1.79493 32.6351 1.81539C32.7899 1.83585 32.9303 1.91685 33.0255 2.04064H33.0107ZM20.3049 9.60277C20.2623 9.57151 20.2138 9.54919 20.1624 9.53714C20.1109 9.5251 20.0575 9.52357 20.0055 9.53266C19.9534 9.54175 19.9037 9.56127 19.8594 9.59004C19.8151 9.61881 19.777 9.65625 19.7475 9.70009L19.3965 10.1985C19.2681 10.145 19.136 10.1007 19.0013 10.0658C18.8653 10.0309 18.7274 10.0034 18.5884 9.98323L18.4763 9.32847C18.4678 9.27649 18.449 9.22674 18.4209 9.18214C18.3929 9.13755 18.3563 9.099 18.3131 9.06878C18.27 9.03855 18.2212 9.01725 18.1697 9.00614C18.1183 8.99502 18.0651 8.99431 18.0133 9.00405L17.1934 9.14856C17.1423 9.15692 17.0934 9.17562 17.0498 9.20351C17.0062 9.23141 16.9687 9.26791 16.9397 9.31078C16.9082 9.35234 16.8858 9.40012 16.8742 9.45096C16.8625 9.50181 16.8617 9.55455 16.8719 9.60571L16.9751 10.1956C16.8456 10.25 16.7204 10.3141 16.6006 10.3873C16.4865 10.4588 16.3771 10.5376 16.2732 10.6232L15.7216 10.2398C15.6804 10.2076 15.6327 10.1846 15.5819 10.1724C15.531 10.1602 15.4781 10.1591 15.4267 10.169C15.3744 10.1783 15.3245 10.198 15.28 10.2269C15.2354 10.2557 15.197 10.2932 15.1672 10.3372L14.6953 11.0126C14.6629 11.0558 14.6397 11.1053 14.6273 11.1579C14.6149 11.2105 14.6135 11.2651 14.6232 11.3182C14.6329 11.3714 14.6535 11.422 14.6836 11.4668C14.7138 11.5117 14.7529 11.5498 14.7985 11.5788L15.2969 11.9298C15.2422 12.0578 15.1978 12.1899 15.1642 12.325C15.1284 12.461 15.0998 12.5989 15.0787 12.7379L14.4269 12.85C14.3749 12.8585 14.3252 12.8774 14.2806 12.9054C14.236 12.9334 14.1974 12.9701 14.1672 13.0132C14.137 13.0564 14.1157 13.1051 14.1045 13.1566C14.0934 13.2081 14.0927 13.2613 14.1025 13.313L14.247 14.133C14.2553 14.1841 14.274 14.2329 14.3019 14.2765C14.3298 14.3201 14.3663 14.3576 14.4092 14.3866C14.4508 14.4181 14.4985 14.4405 14.5494 14.4522C14.6002 14.4639 14.653 14.4646 14.7041 14.4544L15.294 14.3512C15.3484 14.4807 15.4125 14.6059 15.4857 14.7258C15.5565 14.8453 15.6343 14.9605 15.7187 15.0709L15.3353 15.6165C15.3031 15.6577 15.2801 15.7054 15.2679 15.7563C15.2557 15.8071 15.2545 15.8601 15.2645 15.9114C15.2726 15.9641 15.2918 16.0145 15.3208 16.0592C15.3497 16.1039 15.3879 16.142 15.4326 16.171L16.108 16.6517C16.1949 16.709 16.3003 16.7312 16.4029 16.7136C16.4546 16.7057 16.5042 16.6876 16.5488 16.6602C16.5934 16.6329 16.632 16.5969 16.6625 16.5544L17.0135 16.0471C17.1414 16.1019 17.2736 16.1463 17.4087 16.1798C17.5438 16.2154 17.6806 16.2439 17.8186 16.2653L17.9337 16.9171C17.9422 16.9691 17.961 17.0189 17.989 17.0635C18.0171 17.1081 18.0537 17.1466 18.0969 17.1768C18.14 17.2071 18.1888 17.2284 18.2403 17.2395C18.2917 17.2506 18.3449 17.2513 18.3967 17.2416L19.2225 17.0941C19.3265 17.0761 19.4192 17.0175 19.48 16.9312C19.5408 16.845 19.5649 16.738 19.547 16.634L19.4437 16.0441C19.5715 15.9866 19.6947 15.9196 19.8124 15.8436C19.9319 15.7728 20.0471 15.695 20.1575 15.6106L20.6972 15.994C20.7387 16.0257 20.7864 16.0484 20.8372 16.0606C20.888 16.0728 20.9408 16.0742 20.9921 16.0648C21.0443 16.0563 21.0941 16.0369 21.1383 16.008C21.1825 15.979 21.2201 15.9411 21.2487 15.8967L21.7295 15.2213C21.7868 15.1344 21.809 15.0289 21.7914 14.9263C21.773 14.8228 21.7161 14.7301 21.6321 14.6668L21.1249 14.3158C21.1784 14.1874 21.2227 14.0553 21.2576 13.9206C21.2922 13.7855 21.3197 13.6486 21.3402 13.5107L21.9949 13.3956C22.0469 13.3871 22.0966 13.3683 22.1412 13.3402C22.1858 13.3122 22.2244 13.2755 22.2546 13.2324C22.2848 13.1893 22.3061 13.1405 22.3172 13.089C22.3284 13.0375 22.3291 12.9843 22.3193 12.9326L22.1719 12.1127C22.1639 12.061 22.1454 12.0116 22.1175 11.9675C22.0896 11.9233 22.0529 11.8854 22.0097 11.8561C21.9681 11.8245 21.9203 11.8022 21.8695 11.7905C21.8186 11.7788 21.7659 11.778 21.7147 11.7882L21.1249 11.8915C21.0671 11.7596 21.0011 11.6316 20.9272 11.508C20.8583 11.3937 20.7814 11.2843 20.6972 11.1807L21.0777 10.6232C21.1099 10.582 21.1329 10.5343 21.1451 10.4835C21.1573 10.4326 21.1584 10.3797 21.1484 10.3283C21.1281 10.2233 21.0679 10.1302 20.9803 10.0688L20.3049 9.59687V9.60277ZM17.9956 11.9269C18.155 11.8929 18.3198 11.8929 18.4793 11.9269C18.7883 12.0004 19.0556 12.1934 19.2225 12.4636C19.3097 12.6006 19.369 12.7534 19.3968 12.9134C19.4247 13.0734 19.4206 13.2373 19.3847 13.3956C19.3303 13.6277 19.2092 13.8388 19.0362 14.0028C18.8633 14.1669 18.6461 14.2767 18.4115 14.3188C18.176 14.3621 17.9329 14.3338 17.7137 14.2376C17.4945 14.1414 17.3091 13.9816 17.1816 13.779C17.0931 13.643 17.0329 13.4905 17.0046 13.3307C16.961 13.0945 16.9894 12.8506 17.0862 12.6308C17.183 12.4109 17.3436 12.2253 17.5473 12.0979C17.6829 12.0091 17.8356 11.9498 17.9956 11.9239V11.9269ZM28.7991 3.66868C29.2718 3.73313 29.7149 3.93634 30.0722 4.2526C30.4295 4.56886 30.685 4.98397 30.8064 5.44544C30.9277 5.9069 30.9096 6.394 30.7541 6.84512C30.5986 7.29625 30.3129 7.69115 29.933 7.97988C29.5531 8.26862 29.0961 8.43822 28.6199 8.46723C28.1436 8.49625 27.6694 8.38338 27.2573 8.1429C26.8451 7.90242 26.5136 7.54513 26.3045 7.11621C26.0954 6.68729 26.0182 6.20601 26.0827 5.73322C26.1251 5.41914 26.2291 5.11652 26.3887 4.84268C26.5482 4.56885 26.7602 4.32918 27.0126 4.1374C27.2649 3.94562 27.5526 3.80551 27.8591 3.72508C28.1657 3.64465 28.4851 3.62548 28.7991 3.66868ZM36.6237 8.81529C36.7358 8.92146 36.8419 9.03059 36.9511 9.14562C37.2778 9.50345 37.5738 9.88823 37.8359 10.2959C38.8009 11.8878 39.2891 13.723 39.2427 15.584C39.2221 17.4451 38.7207 19.2973 37.6943 20.6599C37.0081 21.5591 36.141 22.3046 35.149 22.8483C34.9219 22.9751 34.683 23.096 34.4382 23.2081V23.1108C34.4125 22.8592 34.3641 22.6104 34.2937 22.3675C34.2507 22.2191 34.1965 22.0742 34.1315 21.934C34.1792 21.7709 34.2059 21.6024 34.2111 21.4326L34.2288 20.8811C34.9089 20.4988 35.5047 19.9832 35.9807 19.3651C36.7181 18.383 37.0808 17.0056 37.0956 15.5693C37.1412 14.1325 36.7737 12.7128 36.0368 11.4786C35.8338 11.1734 35.6038 10.8872 35.3496 10.6232L35.2168 10.4876C35.2168 10.4256 35.2168 10.3607 35.2345 10.2988C35.3794 10.2222 35.5176 10.1334 35.6474 10.0334C36.0721 9.71794 36.4083 9.29843 36.6237 8.81529Z" fill="#DCA629"/>
</svg>
