<svg width="36" height="30" viewBox="0 0 36 30" fill="none" xmlns="http://www.w3.org/2000/svg">
<path d="M11.2504 21.6665C10.9434 21.6665 10.6948 21.9151 10.6948 22.2221V23.3332C10.6948 23.6401 10.9434 23.8887 11.2504 23.8887C11.5573 23.8887 11.8059 23.6401 11.8059 23.3332V22.2221C11.8059 21.9151 11.5573 21.6665 11.2504 21.6665Z" fill="#DCA629"/>
<path d="M13.4724 23.8886V21.6664C13.4724 21.3595 13.2238 21.1108 12.9169 21.1108C12.6099 21.1108 12.3613 21.3595 12.3613 21.6664V23.8886C12.3613 24.1956 12.6099 24.4442 12.9169 24.4442C13.2238 24.4442 13.4724 24.1956 13.4724 23.8886Z" fill="#DCA629"/>
<path d="M14.5839 21.6665C14.2769 21.6665 14.0283 21.9151 14.0283 22.2221V23.3332C14.0283 23.6401 14.2769 23.8887 14.5839 23.8887C14.8908 23.8887 15.1394 23.6401 15.1394 23.3332V22.2221C15.1394 21.9151 14.8908 21.6665 14.5839 21.6665Z" fill="#DCA629"/>
<path d="M22.9168 25.5557C22.2529 25.5557 21.6571 25.8488 21.2501 26.3099C20.8432 25.8487 20.2474 25.5557 19.5835 25.5557H17.2154C18.9973 24.5668 20.4043 22.9849 21.1695 21.0778C22.8001 20.8473 24.0279 19.4653 24.0279 17.7779C24.0279 16.0904 22.8001 14.7084 21.1709 14.4779C19.9237 11.3696 16.9683 9.12255 13.4724 8.90566V6.11122C13.4724 5.80427 13.2238 5.55566 12.9169 5.55566C12.61 5.55566 12.3613 5.80427 12.3613 6.11122V8.90705C8.86553 9.12371 5.90981 11.3695 4.66288 14.4793C3.03373 14.7085 1.80593 16.0904 1.80593 17.7779C1.80593 19.4654 3.0337 20.8473 4.66288 21.0778C5.42814 22.9848 6.83649 24.5681 8.617 25.5557H6.25036C5.58647 25.5557 4.99063 25.8488 4.5837 26.3099C4.17677 25.8487 3.58093 25.5557 2.91704 25.5557C1.69205 25.5557 0.694824 26.5529 0.694824 27.7779C0.694824 29.0029 1.69205 30.0001 2.91704 30.0001C3.58093 30.0001 4.17677 29.7071 4.5837 29.246C4.99063 29.7071 5.58647 30.0001 6.25036 30.0001H19.5836C20.2475 30.0001 20.8434 29.7071 21.2503 29.246C21.6572 29.7085 22.2531 30.0001 22.917 30.0001C24.142 30.0001 25.1392 29.0029 25.1392 27.7779C25.1392 26.5529 24.1418 25.5557 22.9168 25.5557ZM21.5682 15.7321C22.3654 16.0682 22.9168 16.8543 22.9168 17.7779C22.9168 18.7015 22.3654 19.4876 21.5682 19.8237C21.7223 19.1668 21.8057 18.4821 21.8057 17.7779C21.8057 17.0737 21.7223 16.389 21.5682 15.7321ZM4.26548 19.8238C3.46825 19.4877 2.91686 18.7016 2.91686 17.778C2.91686 16.8544 3.46825 16.0683 4.26548 15.7322C4.11131 16.3891 4.02798 17.0738 4.02798 17.778C4.02798 18.4822 4.11131 19.1669 4.26548 19.8238ZM2.91686 28.889C2.30435 28.889 1.80575 28.3904 1.80575 27.7779C1.80575 27.1654 2.30435 26.6668 2.91686 26.6668C3.52937 26.6668 4.02797 27.1654 4.02797 27.7779C4.02797 28.3904 3.52937 28.889 2.91686 28.889ZM10.1389 10.514C11.0028 10.1834 11.9389 10.0001 12.9166 10.0001C13.8944 10.0001 14.8305 10.182 15.6944 10.514V11.1112C15.6944 11.564 14.6125 12.2223 12.9166 12.2223C11.2208 12.2223 10.1389 11.564 10.1389 11.1112V10.514ZM5.13907 17.7779C5.13907 14.9044 6.70433 12.3906 9.02813 11.0445V11.1111C9.02813 12.3778 10.7003 13.3333 12.9172 13.3333C15.134 13.3333 16.8062 12.3778 16.8062 11.1111V11.0445C19.1299 12.3917 20.6953 14.9054 20.6953 17.7779C20.6953 22.0666 17.2064 25.5557 12.9175 25.5557C8.62866 25.5557 5.13979 22.0668 5.13979 17.7779H5.13907ZM6.25018 28.889C5.63767 28.889 5.13907 28.3904 5.13907 27.7779C5.13907 27.2501 5.50853 26.8085 6.00158 26.696C6.73352 27.6029 7.61686 28.3418 8.60157 28.889H6.25018ZM7.4724 26.6668H18.3612C16.9154 28.0904 14.9835 28.889 12.917 28.889C10.8505 28.889 8.91808 28.0904 7.4724 26.6668ZM19.5833 28.889H17.2319C18.2166 28.3418 19.0999 27.6029 19.8319 26.696C20.3249 26.8085 20.6944 27.2501 20.6944 27.7779C20.6944 28.3904 20.1958 28.889 19.5833 28.889ZM22.9166 28.889C22.3041 28.889 21.8055 28.3904 21.8055 27.7779C21.8055 27.1654 22.3041 26.6668 22.9166 26.6668C23.5291 26.6668 24.0277 27.1654 24.0277 27.7779C24.0277 28.3904 23.5291 28.889 22.9166 28.889Z" fill="#DCA629"/>
<path d="M32.917 0H22.917C21.692 0 20.6948 0.997223 20.6948 2.22221V7.77775C20.6948 8.81106 21.4045 9.68192 22.3615 9.92914V11.1111C22.3615 11.3111 22.4698 11.4958 22.6434 11.5944C22.7281 11.643 22.8226 11.6666 22.917 11.6666C23.0156 11.6666 23.1156 11.6402 23.2031 11.5875L25.849 9.99999H32.917C34.142 9.99999 35.1392 9.00276 35.1392 7.77777V2.22224C35.1392 0.997244 34.142 0 32.917 0ZM34.0281 7.77775C34.0281 8.39026 33.5295 8.88886 32.917 8.88886H25.695C25.595 8.88886 25.495 8.91663 25.4089 8.96803L23.4728 10.1305V9.4444C23.4728 9.13745 23.2242 8.88884 22.9172 8.88884C22.3047 8.88884 21.8061 8.39025 21.8061 7.77774V2.2222C21.8061 1.60969 22.3047 1.11109 22.9172 1.11109H32.9172C33.5297 1.11109 34.0283 1.60969 34.0283 2.2222L34.0281 7.77775Z" fill="#DCA629"/>
<path d="M16.806 20.5555C18.3379 20.5555 19.5838 19.3097 19.5838 17.7778C19.5838 16.2458 18.3379 15 16.806 15H9.02826C7.49631 15 6.25049 16.2458 6.25049 17.7778C6.25049 19.3097 7.49631 20.5555 9.02826 20.5555H16.806ZM7.36177 17.7778C7.36177 16.8583 8.10901 16.1111 9.02843 16.1111H16.8062C17.7256 16.1111 18.4728 16.8583 18.4728 17.7778C18.4728 18.6972 17.7256 19.4444 16.8062 19.4444H9.02843C8.10901 19.4444 7.36177 18.6972 7.36177 17.7778Z" fill="#DCA629"/>
<path d="M25.1389 5.00002C25.1389 5.74029 24.0278 5.74029 24.0278 5.00002C24.0278 4.25976 25.1389 4.25976 25.1389 5.00002Z" fill="#DCA629"/>
<path d="M16.8059 22.7779C16.8059 23.5181 15.6948 23.5181 15.6948 22.7779C15.6948 22.0376 16.8059 22.0376 16.8059 22.7779Z" fill="#DCA629"/>
<path d="M10.1394 22.7779C10.1394 23.5181 9.02832 23.5181 9.02832 22.7779C9.02832 22.0376 10.1394 22.0376 10.1394 22.7779Z" fill="#DCA629"/>
<path d="M27.3616 5.00002C27.3616 5.74029 26.2505 5.74029 26.2505 5.00002C26.2505 4.25976 27.3616 4.25976 27.3616 5.00002Z" fill="#DCA629"/>
<path d="M29.5838 5.00002C29.5838 5.74029 28.4727 5.74029 28.4727 5.00002C28.4727 4.25976 29.5838 4.25976 29.5838 5.00002Z" fill="#DCA629"/>
<path d="M31.8059 5.00002C31.8059 5.74029 30.6948 5.74029 30.6948 5.00002C30.6948 4.25976 31.8059 4.25976 31.8059 5.00002Z" fill="#DCA629"/>
</svg>
