<svg width="31" height="30" viewBox="0 0 31 30" fill="none" xmlns="http://www.w3.org/2000/svg">
<path d="M15.922 10.9466C13.6882 10.9466 11.8711 12.7622 11.8711 14.9975C11.8711 17.2313 13.688 19.0484 15.922 19.0484C18.1559 19.0484 19.9729 17.2314 19.9729 14.9975C19.9729 12.7635 18.1559 10.9466 15.922 10.9466ZM15.922 18.3023C14.0987 18.3023 12.6172 16.8206 12.6172 14.9975C12.6172 13.1743 14.0988 11.6927 15.922 11.6927C17.7451 11.6927 19.2268 13.1743 19.2268 14.9975C19.2268 16.8206 17.7451 18.3023 15.922 18.3023ZM28.8088 12.883C27.7704 12.883 26.9028 13.6351 26.7257 14.6258H23.7071V13.7645C23.7071 13.4945 23.4949 13.2785 23.2287 13.2697L22.0622 13.2295C21.9303 12.77 21.747 12.3267 21.5122 11.9048L22.3121 11.0535C22.4954 10.8576 22.4916 10.555 22.302 10.3654L21.9103 9.97361V4.99372H23.4987C23.6757 5.98318 24.5434 6.73659 25.5818 6.73659C26.7483 6.73659 27.6963 5.78857 27.6963 4.62206C27.6963 3.45556 26.7483 2.50754 25.5818 2.50754C24.5434 2.50754 23.6757 3.25967 23.4987 4.2504H21.5373C21.3314 4.2504 21.1644 4.41741 21.1644 4.62335V9.22907L20.5566 8.62134C20.367 8.43173 20.0644 8.42546 19.8685 8.61129L19.0172 9.41115C18.5966 9.18011 18.1521 8.99301 17.6925 8.86119L17.6573 7.69468C17.6473 7.42472 17.4326 7.21627 17.1626 7.21627H16.3012V4.19767C17.2907 4.02062 18.0441 3.15296 18.0441 2.11452C18.0441 0.948017 17.0961 0 15.9295 0C14.763 0 13.815 0.948017 13.815 2.11452C13.815 3.15296 14.5672 4.02062 15.5579 4.19767V7.21627H14.6965C14.4265 7.21627 14.2106 7.42848 14.2018 7.69468L14.154 8.85743C13.6945 8.98927 13.2475 9.17511 12.8293 9.40739L11.9805 8.60753C11.7846 8.42421 11.482 8.42797 11.2924 8.61758L10.6947 9.21152V4.61834C10.6947 4.41241 10.5277 4.24539 10.3218 4.24539H8.34787C8.17083 3.25594 7.30317 2.50253 6.26473 2.50253C5.09822 2.50253 4.1502 3.45054 4.1502 4.61705C4.1502 5.78356 5.09822 6.73157 6.26473 6.73157C7.30317 6.73157 8.17082 5.97945 8.34787 4.98871H9.94885V9.95477L9.54077 10.3629C9.35117 10.5525 9.34489 10.8551 9.53073 11.0509L10.3306 11.8998C10.0995 12.3204 9.91245 12.7649 9.78062 13.227L8.61411 13.2621C8.34415 13.2722 8.1357 13.4869 8.1357 13.7569V14.6183H5.1171C4.94006 13.6288 4.0724 12.8754 3.03396 12.8754C1.86745 12.8754 0.919434 13.8234 0.919434 14.9899C0.919434 16.1564 1.86745 17.1045 3.03396 17.1045C4.0724 17.1045 4.94005 16.3523 5.1171 15.3616H8.1357V16.223C8.1357 16.4929 8.34791 16.7089 8.61411 16.7177L9.78062 16.7529C9.91247 17.2162 10.0983 17.6595 10.3306 18.0801L9.53073 18.9289C9.3474 19.1248 9.35117 19.4274 9.54077 19.617L9.94885 20.0251L9.95011 24.8343H8.34913C8.17208 23.8448 7.30442 23.0914 6.26598 23.0914C5.09948 23.0914 4.15146 24.0395 4.15146 25.206C4.15146 26.3725 5.09948 27.3205 6.26598 27.3205C7.30442 27.3205 8.17208 26.5684 8.34913 25.5776H10.323C10.5289 25.5776 10.696 25.4106 10.696 25.2047L10.6947 20.7835L11.2899 21.3787C11.4795 21.5683 11.7821 21.5745 11.978 21.3887L12.8268 20.5888C13.2475 20.8237 13.692 21.007 14.154 21.1388L14.1892 22.3053C14.1955 22.5753 14.414 22.7837 14.6839 22.7837H15.5453V25.8023C14.5559 25.9794 13.8025 26.847 13.8025 27.8855C13.8025 29.052 14.7505 30 15.917 30C17.0835 30 18.0315 29.052 18.0315 27.8855C18.0315 26.847 17.2794 25.9794 16.2887 25.8023V22.7837H17.15C17.42 22.7837 17.636 22.5715 17.6448 22.3053L17.6799 21.1388C18.1395 21.007 18.5865 20.8236 19.0047 20.5888L19.856 21.3887C20.0519 21.572 20.3545 21.5683 20.5441 21.3787L21.1518 20.7709V25.2072C21.1518 25.4132 21.3188 25.5802 21.5248 25.5802H23.4861C23.6632 26.5696 24.5308 27.3231 25.5693 27.3231C26.7358 27.3231 27.6838 26.375 27.6838 25.2085C27.6838 24.042 26.7358 23.094 25.5693 23.094C24.5308 23.094 23.6632 23.8461 23.4861 24.8369H21.8977L21.9015 20.0216L22.2932 19.6298C22.4829 19.4402 22.4891 19.1376 22.3033 18.9417L21.5034 18.0904C21.7345 17.6697 21.9216 17.2252 22.0534 16.7656L23.2199 16.7305C23.4899 16.7204 23.6983 16.5057 23.6983 16.2357V15.3744H26.7169C26.894 16.3638 27.7616 17.1172 28.8001 17.1172C29.9666 17.1172 30.9146 16.1692 30.9146 15.0027C30.9146 13.8337 29.9754 12.883 28.8088 12.883ZM25.578 3.24819C26.3339 3.24819 26.9479 3.86222 26.9479 4.61811C26.9479 5.37403 26.3339 5.98803 25.578 5.98803C24.822 5.98803 24.208 5.374 24.208 4.61811C24.2093 3.86219 24.8233 3.24819 25.578 3.24819ZM14.552 2.11055C14.552 1.35463 15.166 0.740634 15.9219 0.740634C16.6778 0.740634 17.2918 1.35467 17.2918 2.11055C17.2918 2.86647 16.6778 3.48047 15.9219 3.48047C15.166 3.48047 14.552 2.86644 14.552 2.11055ZM6.26597 5.9869C5.51005 5.9869 4.89605 5.37287 4.89605 4.61699C4.89605 3.86107 5.51008 3.24707 6.26597 3.24707C7.02189 3.24707 7.63588 3.8611 7.63588 4.61699C7.63463 5.3729 7.0206 5.9869 6.26597 5.9869ZM3.03508 16.3675C2.27917 16.3675 1.66517 15.7534 1.66517 14.9975C1.66517 14.2416 2.2792 13.6276 3.03508 13.6276C3.791 13.6276 4.405 14.2416 4.405 14.9975C4.405 15.7534 3.79097 16.3675 3.03508 16.3675ZM6.26597 26.576C5.51005 26.576 4.89605 25.962 4.89605 25.2061C4.89605 24.4502 5.51008 23.8362 6.26597 23.8362C7.02189 23.8362 7.63588 24.4502 7.63588 25.2061C7.63463 25.962 7.0206 26.576 6.26597 26.576ZM17.292 27.8844C17.292 28.6403 16.678 29.2543 15.9221 29.2543C15.1662 29.2543 14.5521 28.6403 14.5521 27.8844C14.5521 27.1285 15.1662 26.5145 15.9221 26.5145C16.678 26.5145 17.292 27.1285 17.292 27.8844ZM25.578 23.8374C26.3339 23.8374 26.9479 24.4514 26.9479 25.2073C26.9479 25.9632 26.3339 26.5772 25.578 26.5772C24.822 26.5772 24.208 25.9632 24.208 25.2073C24.2093 24.4514 24.8233 23.8374 25.578 23.8374ZM22.9612 15.9908L21.8524 16.026C21.6302 16.0322 21.4444 16.1829 21.3891 16.3989C21.2573 16.92 21.0513 17.4148 20.7789 17.8781C20.6659 18.0715 20.6922 18.3088 20.8429 18.4695L21.6051 19.2794L20.2038 20.6807L19.3939 19.9185C19.2332 19.7641 18.9958 19.739 18.8025 19.8545C18.3391 20.1282 17.8444 20.3329 17.3233 20.4685C17.1073 20.5238 16.9567 20.7096 16.9504 20.9319L16.9177 22.0406H14.9338L14.9011 20.9319C14.8948 20.7096 14.7442 20.5238 14.5282 20.4685C14.0071 20.3367 13.5086 20.1307 13.049 19.8545C12.8556 19.7415 12.6183 19.7678 12.4576 19.9185L11.6502 20.6807L10.2489 19.2794L11.0111 18.472C11.1655 18.3113 11.1906 18.074 11.0751 17.8806C10.8014 17.4173 10.5929 16.92 10.4611 16.4014C10.4058 16.1854 10.22 16.0348 9.99774 16.0285L8.88899 15.9958V14.0119L9.99774 13.9792C10.22 13.973 10.4058 13.8223 10.4636 13.6063C10.5954 13.0852 10.8014 12.5867 11.0776 12.1271C11.1906 11.9337 11.1643 11.6964 11.0136 11.5357L10.2514 10.7283L11.6527 9.327L12.4601 10.0892C12.6246 10.2436 12.8581 10.2687 13.0515 10.1532C13.5148 9.8795 14.0096 9.67105 14.5307 9.5392C14.7466 9.48395 14.8973 9.29811 14.9036 9.07586L14.9388 7.96712H16.9227L16.9579 9.07586C16.9642 9.29811 17.1148 9.48394 17.3308 9.5392C17.8519 9.67104 18.3467 9.87697 18.81 10.1494C19.0034 10.2624 19.2369 10.2361 19.4014 10.0854L20.2113 9.32321L21.6126 10.7245L20.8504 11.5344C20.6998 11.6951 20.6709 11.9325 20.7864 12.1258C21.0601 12.5892 21.2648 13.0839 21.3966 13.6012C21.4519 13.8172 21.6377 13.9679 21.86 13.9742L22.9687 14.0093L22.9712 15.9908L22.9612 15.9908ZM28.8087 16.3675C28.0527 16.3675 27.4387 15.7535 27.4387 14.9976C27.4387 14.2417 28.0528 13.6277 28.8087 13.6277C29.5646 13.6277 30.1786 14.2417 30.1786 14.9976C30.1786 15.7535 29.5645 16.3675 28.8087 16.3675Z" fill="#DCA629"/>
</svg>
