<svg width="145" height="64" viewBox="0 0 145 64" fill="none" xmlns="http://www.w3.org/2000/svg">
<g filter="url(#filter0_d_1_381)">
<rect x="10" y="10.5" width="124.88" height="43.19" rx="21.595" fill="white" shape-rendering="crispEdges"/>
<g clip-path="url(#clip0_1_381)">
<g clip-path="url(#clip1_1_381)">
<g clip-path="url(#clip2_1_381)">
<path d="M46.2827 20.208C45.9039 20.4302 45.2735 21.0594 44.5215 21.9718L45.2106 23.2662C45.6957 22.5787 46.1877 21.9579 46.6783 21.433C46.7175 21.3913 46.7356 21.3718 46.7356 21.3718C46.7175 21.3913 46.6965 21.4135 46.6783 21.433C46.5176 21.6079 46.0297 22.1746 45.2945 23.294C46.0032 23.2593 47.0837 23.1148 47.9783 22.9648C48.2439 21.4927 47.7197 20.826 47.7197 20.826C47.7197 20.826 47.0543 19.7566 46.2799 20.2136L46.2827 20.208Z" fill="url(#paint0_linear_1_381)"/>
<path d="M43.962 31.0805C43.874 31.0957 43.7845 31.1124 43.6909 31.1277L43.6895 31.1291C43.737 31.1221 43.7831 31.1152 43.8292 31.1082C43.8726 31.0985 43.9173 31.0902 43.962 31.0805Z" fill="#BD202E"/>
<path d="M43.962 31.0805C43.874 31.0957 43.7845 31.1124 43.6909 31.1277L43.6895 31.1291C43.737 31.1221 43.7831 31.1152 43.8292 31.1082C43.8726 31.0985 43.9173 31.0902 43.962 31.0805Z" fill="black"/>
<path d="M44.1987 29.9559L44.1973 29.9572C44.2113 29.9559 44.2267 29.9531 44.2407 29.9503C44.2994 29.942 44.3567 29.9322 44.4126 29.9184C44.3427 29.9309 44.2728 29.9434 44.1987 29.9559Z" fill="#BD202E"/>
<path d="M44.1987 29.9559L44.1973 29.9572C44.2113 29.9559 44.2267 29.9531 44.2407 29.9503C44.2994 29.942 44.3567 29.9322 44.4126 29.9184C44.3427 29.9309 44.2728 29.9434 44.1987 29.9559Z" fill="black"/>
<path d="M43.1795 26.6098C43.3892 26.2195 43.6017 25.839 43.8155 25.4696C44.0378 25.0835 44.2642 24.7113 44.4921 24.3502C44.5046 24.3293 44.52 24.3071 44.5326 24.2863C44.7577 23.9321 44.9855 23.5905 45.2133 23.2655L44.5242 21.9711C44.4725 22.0336 44.4208 22.0975 44.3677 22.1641C44.1678 22.4114 43.9623 22.6752 43.7498 22.9572C43.5108 23.2738 43.2662 23.6127 43.016 23.9682C42.7867 24.296 42.5519 24.639 42.3171 24.996C42.1172 25.2987 41.9187 25.6098 41.7202 25.9293C41.7132 25.9404 41.7062 25.9529 41.6992 25.9654L42.598 27.7292C42.7881 27.3472 42.9838 26.9737 43.1795 26.6098Z" fill="url(#paint1_linear_1_381)"/>
<path d="M39.0848 36.54C38.966 36.8636 38.8458 37.1955 38.727 37.533C38.7256 37.5371 38.7242 37.5427 38.7214 37.5469C38.7046 37.5941 38.6865 37.6427 38.6711 37.6899C38.59 37.9177 38.5201 38.1232 38.3594 38.5885C38.6236 38.7079 38.836 39.0246 39.0373 39.3829C39.0163 39.0121 38.8626 38.6635 38.5676 38.3941C39.8718 38.4524 40.9999 38.1246 41.573 37.1774C41.6247 37.0927 41.6722 37.0052 41.7156 36.9094C41.4514 37.2427 41.1229 37.383 40.5065 37.3497C41.415 36.9455 41.8693 36.558 42.2677 35.9192C42.3628 35.7664 42.4564 35.6011 42.5515 35.4164C41.7575 36.2261 40.8461 36.4566 39.8676 36.2816L39.1408 36.3608C39.117 36.4219 39.096 36.4816 39.0723 36.5427L39.0848 36.54Z" fill="url(#paint2_linear_1_381)"/>
<path d="M39.4329 34.9282C39.5895 34.5254 39.7516 34.1171 39.9166 33.706C40.0759 33.3116 40.2381 32.9144 40.4058 32.5172C40.5736 32.12 40.7441 31.7186 40.9174 31.3186C41.0935 30.9117 41.2753 30.5061 41.4612 30.102C41.6443 29.702 41.8288 29.3048 42.0175 28.9132C42.0846 28.7715 42.1545 28.6298 42.223 28.4896C42.3418 28.2465 42.462 28.0049 42.5836 27.766C42.5906 27.7535 42.5962 27.7396 42.6032 27.7271L41.7044 25.9633C41.6904 25.9869 41.675 26.0119 41.6597 26.0341C41.45 26.3744 41.2417 26.7216 41.0376 27.0757C40.8308 27.434 40.6281 27.7993 40.4296 28.1701C40.2632 28.4826 40.0997 28.7965 39.9389 29.1159C39.9068 29.1798 39.876 29.2451 39.8439 29.309C39.6482 29.7103 39.4721 30.095 39.3113 30.4686C39.1296 30.8895 38.9703 31.2922 38.8319 31.6741C38.7396 31.9255 38.6571 32.1672 38.5803 32.4005C38.5174 32.5991 38.4587 32.7991 38.3999 32.9977C38.2658 33.4643 38.1497 33.931 38.0547 34.4004L38.9577 36.1781C39.0765 35.8615 39.1995 35.5392 39.3253 35.2143C39.363 35.1212 39.3966 35.0295 39.4329 34.9407V34.9282Z" fill="url(#paint3_linear_1_381)"/>
<path d="M38.0352 34.4563C37.922 35.023 37.8409 35.5868 37.8004 36.1507L37.7962 36.209C37.5138 35.7604 36.7604 35.323 36.7618 35.3271C37.3028 36.1049 37.7123 36.8826 37.7724 37.6326C37.4831 37.6909 37.0875 37.6062 36.6304 37.4395C37.1071 37.8756 37.4649 37.9951 37.6061 38.0284C37.1672 38.0562 36.7115 38.3548 36.2516 38.6992C36.924 38.427 37.4677 38.3187 37.8591 38.4062C37.2413 40.1422 36.6234 42.0588 36 44.1003C36.1901 44.0448 36.3033 43.917 36.3662 43.7462C36.4767 43.3782 37.2077 40.9547 38.3511 37.7881C38.3847 37.6979 38.4168 37.6062 38.4504 37.5159C38.4588 37.4895 38.4686 37.4645 38.4783 37.4409C38.5986 37.1076 38.7258 36.7673 38.8544 36.4201C38.8837 36.341 38.9131 36.2618 38.9438 36.1826L38.9452 36.1785L38.0408 34.4008C38.038 34.4188 38.0338 34.4397 38.0296 34.4605L38.0352 34.4563Z" fill="url(#paint4_linear_1_381)"/>
<path d="M42.7316 27.8737C42.705 27.9264 42.6799 27.9792 42.6533 28.032C42.5751 28.1917 42.4968 28.3542 42.4157 28.5209C42.329 28.7014 42.2424 28.8847 42.1543 29.0736C42.1096 29.168 42.0648 29.2639 42.0201 29.3611C41.8859 29.6514 41.7503 29.9514 41.612 30.2611C41.4428 30.6402 41.2681 31.036 41.0934 31.4471C40.927 31.8388 40.7551 32.2429 40.5846 32.6623C40.421 33.0595 40.2561 33.4706 40.0883 33.8928C39.9388 34.2692 39.7878 34.6581 39.6368 35.0567C39.6298 35.0747 39.6229 35.0956 39.6159 35.1136C39.4649 35.5094 39.3125 35.9164 39.1602 36.333C39.1574 36.3427 39.1532 36.3511 39.1504 36.3622L39.8773 36.283C39.8633 36.2802 39.8479 36.2788 39.8339 36.2761C40.702 36.1691 41.8608 35.5233 42.6016 34.7206C42.9455 34.3539 43.2572 33.9206 43.5451 33.4137C43.759 33.0373 43.9617 32.6179 44.1546 32.1554C44.3223 31.7513 44.4831 31.3124 44.6382 30.8388C44.4383 30.943 44.2105 31.0207 43.9589 31.0735C43.9142 31.0832 43.8694 31.0916 43.8233 31.0999C43.7772 31.1082 43.731 31.1152 43.6835 31.1207L43.6849 31.1194C44.4957 30.8096 45.0059 30.2125 45.3763 29.4805C45.1638 29.625 44.8172 29.8139 44.402 29.9041C44.3461 29.9166 44.2888 29.9263 44.2301 29.9361C44.2161 29.9375 44.2007 29.9402 44.1867 29.943H44.1895C44.4719 29.8264 44.7081 29.6944 44.9136 29.5403C44.9583 29.5069 45.0017 29.4736 45.0408 29.4375C45.1037 29.3833 45.1624 29.3264 45.2211 29.268C45.2575 29.2292 45.2924 29.1903 45.3274 29.15C45.4084 29.0542 45.4839 28.9514 45.5538 28.8403C45.5748 28.8056 45.5971 28.7722 45.6167 28.7361C45.6447 28.6847 45.6698 28.6334 45.695 28.5847C45.8082 28.3598 45.8991 28.157 45.9704 27.9806C46.0067 27.8917 46.0375 27.8112 46.0654 27.7334C46.0766 27.7028 46.0864 27.6737 46.0962 27.6445C46.1255 27.5598 46.1479 27.4848 46.1661 27.4181C46.194 27.3181 46.2108 27.239 46.2192 27.182C46.1912 27.2029 46.1605 27.2251 46.1241 27.2459C45.8795 27.3917 45.4602 27.5223 45.1219 27.5848C45.1177 27.5862 45.1121 27.5862 45.1065 27.5876C45.0716 27.5931 45.0394 27.5987 45.0045 27.6028L45.0212 27.5945L42.7428 27.8431C42.7428 27.8487 42.7386 27.8584 42.7344 27.8667L42.7316 27.8737Z" fill="url(#paint5_linear_1_381)"/>
<path d="M45.3041 23.2899C45.1014 23.5996 44.8806 23.951 44.6401 24.3496C44.6276 24.369 44.6136 24.3926 44.6024 24.4121C44.3969 24.7565 44.1789 25.1343 43.9468 25.5495C43.7483 25.9079 43.5415 26.2912 43.3262 26.7037C43.1389 27.0634 42.946 27.4453 42.7461 27.8494L45.0245 27.6008C45.6899 27.2967 45.9862 27.0231 46.2742 26.6245C46.3497 26.5148 46.428 26.4009 46.5034 26.2815C46.7383 25.9176 46.9675 25.5176 47.173 25.119C47.3715 24.7343 47.5462 24.3538 47.6804 24.0093C47.7657 23.7913 47.8342 23.5885 47.8817 23.4094C47.9236 23.2524 47.9558 23.1024 47.9809 22.9594C47.0961 23.1108 46.01 23.2552 45.2971 23.2899H45.3041Z" fill="url(#paint6_linear_1_381)"/>
<path d="M43.8214 31.1078C43.7753 31.1161 43.7291 31.1231 43.6816 31.1286C43.7291 31.1245 43.7767 31.1161 43.8214 31.1078Z" fill="#BD202E"/>
<path opacity="0.35" d="M43.8214 31.1078C43.7753 31.1161 43.7291 31.1231 43.6816 31.1286C43.7291 31.1245 43.7767 31.1161 43.8214 31.1078Z" fill="#BD202E"/>
<path d="M43.8214 31.1078C43.7753 31.1161 43.7291 31.1231 43.6816 31.1286C43.7291 31.1245 43.7767 31.1161 43.8214 31.1078Z" fill="url(#paint7_linear_1_381)"/>
<path d="M44.1992 29.9565C44.2132 29.9552 44.2286 29.9524 44.2426 29.9496C44.2286 29.951 44.2146 29.9552 44.1992 29.9565Z" fill="#BD202E"/>
<path opacity="0.35" d="M44.1992 29.9565C44.2132 29.9552 44.2286 29.9524 44.2426 29.9496C44.2286 29.951 44.2146 29.9552 44.1992 29.9565Z" fill="#BD202E"/>
<path d="M44.1992 29.9565C44.2132 29.9552 44.2286 29.9524 44.2426 29.9496C44.2286 29.951 44.2146 29.9552 44.1992 29.9565Z" fill="url(#paint8_linear_1_381)"/>
</g>
</g>
</g>
<path d="M71.6007 36.25L70.6984 33.584H66.9386L66.0363 36.25H64.4435L68.005 26.3857H69.6593L73.2209 36.25H71.6007ZM68.798 28.0264L67.3283 32.3535H70.3088L68.839 28.0264H68.798ZM77.8761 28.9424C79.7013 28.9424 80.9045 30.3779 80.9045 32.6543C80.9045 34.9307 79.7082 36.373 77.9035 36.373C76.8713 36.373 76.0509 35.8672 75.6408 35.0674H75.6066V38.6289H74.13V29.0586H75.5588V30.2959H75.5861C76.0099 29.4688 76.8371 28.9424 77.8761 28.9424ZM77.4865 35.1221C78.6554 35.1221 79.3869 34.165 79.3869 32.6543C79.3869 31.1504 78.6554 30.1865 77.4865 30.1865C76.3586 30.1865 75.5998 31.1709 75.5998 32.6543C75.5998 34.1514 76.3517 35.1221 77.4865 35.1221ZM84.5617 35.2041C85.5939 35.2041 86.4006 34.4932 86.4006 33.5566V32.9893L84.63 33.0986C83.7482 33.1602 83.2492 33.5498 83.2492 34.165C83.2492 34.7939 83.7687 35.2041 84.5617 35.2041ZM84.1515 36.373C82.7433 36.373 81.759 35.498 81.759 34.2061C81.759 32.9482 82.7228 32.1758 84.4318 32.0801L86.4006 31.9639V31.4102C86.4006 30.6104 85.8605 30.1318 84.9582 30.1318C84.1037 30.1318 83.5705 30.542 83.4406 31.1846H82.0461C82.1281 29.8857 83.2355 28.9287 85.0129 28.9287C86.756 28.9287 87.8703 29.8516 87.8703 31.2939V36.25H86.4552V35.0674H86.4211C86.0041 35.8672 85.0949 36.373 84.1515 36.373ZM95.4787 31.5332H94.0705C93.9201 30.7676 93.3459 30.1592 92.382 30.1592C91.2404 30.1592 90.4884 31.1094 90.4884 32.6543C90.4884 34.2334 91.2472 35.1494 92.3957 35.1494C93.3049 35.1494 93.8996 34.6504 94.0705 33.8164H95.4924C95.3351 35.3477 94.1115 36.3867 92.382 36.3867C90.3244 36.3867 88.9845 34.9785 88.9845 32.6543C88.9845 30.3711 90.3244 28.9287 92.3683 28.9287C94.2209 28.9287 95.3488 30.1182 95.4787 31.5332ZM96.5929 36.25V26.3857H98.0558V30.2617H98.09C98.4865 29.4209 99.2726 28.9355 100.366 28.9355C101.945 28.9355 102.889 29.9883 102.889 31.6152V36.25H101.405V31.9023C101.405 30.8428 100.872 30.207 99.8332 30.207C98.7394 30.207 98.0695 30.959 98.0695 32.0938V36.25H96.5929ZM107.325 30.1182C106.293 30.1182 105.569 30.9043 105.493 31.9912H109.089C109.055 30.8906 108.358 30.1182 107.325 30.1182ZM109.082 34.1377H110.484C110.278 35.4502 109.034 36.3867 107.387 36.3867C105.275 36.3867 103.996 34.958 103.996 32.6885C103.996 30.4326 105.295 28.9287 107.325 28.9287C109.321 28.9287 110.566 30.3369 110.566 32.5176V33.0234H105.486V33.1123C105.486 34.3633 106.238 35.1904 107.421 35.1904C108.262 35.1904 108.884 34.7666 109.082 34.1377Z" fill="black"/>
</g>
<defs>
<filter id="filter0_d_1_381" x="0" y="0.5" width="144.88" height="63.19" filterUnits="userSpaceOnUse" color-interpolation-filters="sRGB">
<feFlood flood-opacity="0" result="BackgroundImageFix"/>
<feColorMatrix in="SourceAlpha" type="matrix" values="0 0 0 0 0 0 0 0 0 0 0 0 0 0 0 0 0 0 127 0" result="hardAlpha"/>
<feOffset/>
<feGaussianBlur stdDeviation="5"/>
<feComposite in2="hardAlpha" operator="out"/>
<feColorMatrix type="matrix" values="0 0 0 0 0 0 0 0 0 0 0 0 0 0 0 0 0 0 0.05 0"/>
<feBlend mode="normal" in2="BackgroundImageFix" result="effect1_dropShadow_1_381"/>
<feBlend mode="normal" in="SourceGraphic" in2="effect1_dropShadow_1_381" result="shape"/>
</filter>
<linearGradient id="paint0_linear_1_381" x1="45.1409" y1="22.1739" x2="50.1886" y2="20.7459" gradientUnits="userSpaceOnUse">
<stop stop-color="#F59723"/>
<stop offset="0.312" stop-color="#F69822"/>
<stop offset="0.838" stop-color="#E87726"/>
</linearGradient>
<linearGradient id="paint1_linear_1_381" x1="34.0781" y1="44.7301" x2="44.2463" y2="22.753" gradientUnits="userSpaceOnUse">
<stop offset="0.323" stop-color="#9C2063"/>
<stop offset="0.63" stop-color="#C82037"/>
<stop offset="0.751" stop-color="#CC2135"/>
<stop offset="1" stop-color="#E87726"/>
</linearGradient>
<linearGradient id="paint2_linear_1_381" x1="37.5374" y1="43.1014" x2="43.5939" y2="30.0111" gradientUnits="userSpaceOnUse">
<stop stop-color="#282661"/>
<stop offset="0.0955" stop-color="#662E8C"/>
<stop offset="0.788" stop-color="#9E2064"/>
<stop offset="0.949" stop-color="#CC2032"/>
</linearGradient>
<linearGradient id="paint3_linear_1_381" x1="34.4456" y1="43.4033" x2="44.6137" y2="21.4262" gradientUnits="userSpaceOnUse">
<stop offset="0.323" stop-color="#9C2063"/>
<stop offset="0.63" stop-color="#C82037"/>
<stop offset="0.751" stop-color="#CC2135"/>
<stop offset="1" stop-color="#E87726"/>
</linearGradient>
<linearGradient id="paint4_linear_1_381" x1="35.4976" y1="41.9373" x2="40.8397" y2="30.3908" gradientUnits="userSpaceOnUse">
<stop stop-color="#282661"/>
<stop offset="0.0955" stop-color="#662E8C"/>
<stop offset="0.788" stop-color="#9E2064"/>
<stop offset="0.949" stop-color="#CC2032"/>
</linearGradient>
<linearGradient id="paint5_linear_1_381" x1="36.7383" y1="44.4649" x2="46.9064" y2="22.4877" gradientUnits="userSpaceOnUse">
<stop offset="0.323" stop-color="#9C2063"/>
<stop offset="0.63" stop-color="#C82037"/>
<stop offset="0.751" stop-color="#CC2135"/>
<stop offset="1" stop-color="#E87726"/>
</linearGradient>
<linearGradient id="paint6_linear_1_381" x1="35.9845" y1="45.7691" x2="46.1527" y2="23.792" gradientUnits="userSpaceOnUse">
<stop offset="0.323" stop-color="#9C2063"/>
<stop offset="0.63" stop-color="#C82037"/>
<stop offset="0.751" stop-color="#CC2135"/>
<stop offset="1" stop-color="#E87726"/>
</linearGradient>
<linearGradient id="paint7_linear_1_381" x1="37.4152" y1="44.7763" x2="47.583" y2="22.7994" gradientUnits="userSpaceOnUse">
<stop offset="0.323" stop-color="#9C2063"/>
<stop offset="0.63" stop-color="#C82037"/>
<stop offset="0.751" stop-color="#CC2135"/>
<stop offset="1" stop-color="#E87726"/>
</linearGradient>
<linearGradient id="paint8_linear_1_381" x1="37.3373" y1="44.7416" x2="47.5052" y2="22.7646" gradientUnits="userSpaceOnUse">
<stop offset="0.323" stop-color="#9C2063"/>
<stop offset="0.63" stop-color="#C82037"/>
<stop offset="0.751" stop-color="#CC2135"/>
<stop offset="1" stop-color="#E87726"/>
</linearGradient>
<clipPath id="clip0_1_381">
<rect width="24" height="24" fill="white" transform="translate(30 20.1)"/>
</clipPath>
<clipPath id="clip1_1_381">
<rect width="24" height="24" fill="white" transform="translate(30 20.1)"/>
</clipPath>
<clipPath id="clip2_1_381">
<rect width="24" height="24" fill="white" transform="translate(30 20.1)"/>
</clipPath>
</defs>
</svg>
