<svg width="166" height="64" viewBox="0 0 166 64" fill="none" xmlns="http://www.w3.org/2000/svg">
<g filter="url(#filter0_d_1_273)">
<rect x="10" y="10.5" width="145.39" height="43.19" rx="21.595" fill="white" shape-rendering="crispEdges"/>
<g clip-path="url(#clip0_1_273)">
<g clip-path="url(#clip1_1_273)">
<g clip-path="url(#clip2_1_273)">
<path d="M52.7992 34.6327L51.9729 34.1524C52.1141 33.4602 52.1848 32.768 52.1848 32.09C52.1848 31.412 52.1141 30.7057 51.9799 30.0276L52.8063 29.5544C53.0606 29.4061 53.2442 29.1659 53.3219 28.8834C53.3996 28.6009 53.3572 28.3042 53.2089 28.0429L50.9558 24.1371C50.8075 23.8828 50.5673 23.6992 50.2848 23.6215C50.0023 23.5438 49.7057 23.5862 49.4443 23.7345L48.618 24.2077C47.5726 23.2895 46.3508 22.5832 45.0441 22.1383V21.1918C45.0441 20.5844 44.5497 20.09 43.9423 20.09H39.4291C38.8216 20.09 38.3272 20.5844 38.3272 21.1918V22.1383C37.0276 22.5762 35.8058 23.2895 34.7534 24.2077L33.92 23.7274C33.6657 23.5791 33.369 23.5438 33.0795 23.6144C32.7969 23.6921 32.5568 23.8758 32.4085 24.13L30.1554 28.0358C30.0071 28.2901 29.9718 28.5868 30.0424 28.8763C30.113 29.1659 30.3037 29.399 30.558 29.5473L31.3844 30.0276C31.2431 30.7198 31.1725 31.412 31.1725 32.09C31.1725 32.768 31.2431 33.4743 31.3773 34.1524L30.5509 34.6256C30.0212 34.9293 29.8446 35.6074 30.1483 36.1371L32.4014 40.0429C32.7051 40.5726 33.3832 40.7492 33.9129 40.4455L34.7393 39.9723C35.7846 40.8905 37.0065 41.5968 38.3131 42.0417V42.9882C38.3131 43.5956 38.8075 44.09 39.4149 44.09H43.9282C44.5356 44.09 45.03 43.5956 45.03 42.9882V42.0417C46.3296 41.6038 47.5515 40.8905 48.6038 39.9723L49.4373 40.4526C49.967 40.7563 50.638 40.5726 50.9487 40.05L53.2018 36.1441C53.5055 35.6144 53.3219 34.9434 52.7992 34.6327ZM52.5944 35.791L50.3413 39.6968C50.2283 39.8875 49.9882 39.9511 49.7975 39.8451L48.7451 39.2377C48.6109 39.16 48.4414 39.1812 48.3284 39.2872C47.2548 40.2831 45.9552 41.0317 44.585 41.4555C44.4367 41.4979 44.3378 41.6391 44.3378 41.7945V43.0023C44.3378 43.2213 44.1612 43.4049 43.9352 43.4049H39.422C39.203 43.4049 39.0194 43.2283 39.0194 43.0023V41.7945C39.0194 41.6391 38.9205 41.5049 38.7722 41.4555C37.3879 41.0247 36.0953 40.276 35.0218 39.2872C34.9582 39.2236 34.8664 39.1954 34.7816 39.1954C34.7181 39.1954 34.6616 39.2095 34.6051 39.2448L33.5597 39.8522C33.369 39.9652 33.1218 39.8946 33.0159 39.7039L30.7628 35.7981C30.6498 35.6074 30.7204 35.3602 30.9111 35.2542L31.9565 34.6468C32.0906 34.5691 32.1613 34.4137 32.126 34.2654C31.9635 33.552 31.8858 32.8245 31.8858 32.1041C31.8858 31.3837 31.9706 30.6703 32.133 29.9428C32.1683 29.7945 32.0977 29.6391 31.9635 29.5614L30.9111 28.954C30.8193 28.8975 30.7557 28.8128 30.7275 28.7139C30.6992 28.6079 30.7134 28.502 30.7699 28.4102L33.0229 24.5044C33.0795 24.4125 33.1642 24.349 33.2631 24.3207C33.369 24.2925 33.475 24.3066 33.5668 24.3631L34.6192 24.9705C34.7534 25.0482 34.9229 25.027 35.0359 24.9211C36.1095 23.9252 37.409 23.1765 38.7793 22.7527C38.9276 22.7104 39.0265 22.5691 39.0265 22.4137V21.2059C39.0265 20.987 39.203 20.8034 39.4291 20.8034H43.9423C44.1612 20.8034 44.3449 20.9799 44.3449 21.2059V22.4137C44.3449 22.5691 44.4438 22.7033 44.5921 22.7527C45.9764 23.1836 47.2689 23.9323 48.3425 24.9211C48.4555 25.027 48.625 25.0482 48.7592 24.9705L49.8045 24.3631C49.8964 24.3066 50.0023 24.2925 50.1082 24.3207C50.2142 24.349 50.2989 24.4125 50.3484 24.5044L52.6015 28.4102C52.658 28.502 52.6721 28.6079 52.6439 28.7139C52.6156 28.8198 52.552 28.9046 52.4602 28.954L51.4149 29.5614C51.2807 29.6391 51.2101 29.7945 51.2454 29.9428C51.4078 30.6562 51.4855 31.3837 51.4855 32.1041C51.4855 32.8245 51.4008 33.5379 51.2383 34.2654C51.203 34.4137 51.2736 34.5691 51.4078 34.6468L52.4602 35.2542C52.6509 35.3672 52.7145 35.6074 52.6085 35.7981L52.5944 35.791Z" fill="black"/>
<path d="M41.6741 24.9709C37.7471 24.9709 34.5547 28.1633 34.5547 32.0903C34.5547 36.0174 37.7471 39.2098 41.6741 39.2098C45.6011 39.2098 48.7936 36.0174 48.7936 32.0903C48.7936 28.1633 45.6011 24.9709 41.6741 24.9709ZM41.6741 38.5035C38.1356 38.5035 35.261 35.6289 35.261 32.0903C35.261 28.5518 38.1356 25.6772 41.6741 25.6772C45.2127 25.6772 48.0873 28.5518 48.0873 32.0903C48.0873 35.6289 45.2127 38.5035 41.6741 38.5035Z" fill="black"/>
<path d="M42.9891 30.2326H41.6754C41.4777 30.2326 41.3223 30.388 41.3223 30.5857V33.5946C41.3223 33.7923 41.4777 33.9477 41.6754 33.9477C41.8732 33.9477 42.0286 33.7923 42.0286 33.5946V32.8176H42.9891C43.7025 32.8176 44.2816 32.2385 44.2816 31.5251C44.2816 30.8117 43.7025 30.2326 42.9891 30.2326ZM42.9891 32.1113H42.0286V30.9389H42.9891C43.314 30.9389 43.5753 31.2002 43.5753 31.5251C43.5753 31.85 43.314 32.1113 42.9891 32.1113Z" fill="black"/>
<path d="M39.7468 30.4664C39.6974 30.3322 39.5632 30.2404 39.4149 30.2404H39.0405C38.8922 30.2404 38.7651 30.3322 38.7086 30.4664L37.5785 33.4752C37.5079 33.6589 37.5997 33.8637 37.7833 33.9273C37.967 33.9979 38.1718 33.9061 38.2354 33.7224L38.4331 33.1998H40.0152L40.213 33.7224C40.2695 33.8637 40.4037 33.9485 40.5449 33.9485C40.5873 33.9485 40.6297 33.9414 40.6721 33.9273C40.8557 33.8566 40.9475 33.6589 40.8769 33.4752L39.7468 30.4664ZM38.7015 32.4935L39.2242 31.095L39.7468 32.4935H38.6945H38.7015Z" fill="black"/>
<path d="M45.0582 30.2326C44.8605 30.2326 44.7051 30.388 44.7051 30.5857V33.5946C44.7051 33.7923 44.8605 33.9477 45.0582 33.9477C45.256 33.9477 45.4114 33.7923 45.4114 33.5946V30.5857C45.4114 30.388 45.256 30.2326 45.0582 30.2326Z" fill="black"/>
<path d="M44.1977 24.1858C44.4449 24.2635 44.6851 24.3553 44.9252 24.4542C44.9676 24.4754 45.017 24.4824 45.0665 24.4824C45.2007 24.4824 45.3349 24.4047 45.3914 24.2705C45.4691 24.094 45.3843 23.8821 45.2077 23.8115C44.9535 23.7055 44.6851 23.6066 44.4237 23.5219C44.2401 23.4654 44.0423 23.5643 43.9788 23.7479C43.9223 23.9315 44.0212 24.1293 44.2048 24.1929L44.1977 24.1858Z" fill="black"/>
<path d="M34.3863 36.0585C34.2945 35.889 34.0755 35.8254 33.906 35.9172C33.7365 36.009 33.6729 36.228 33.7647 36.3975C33.9131 36.6659 34.0755 36.9272 34.245 37.1815C34.3156 37.2804 34.4216 37.3369 34.5346 37.3369C34.6052 37.3369 34.6759 37.3157 34.7324 37.2733C34.8948 37.1603 34.9301 36.9414 34.8242 36.786C34.6617 36.5529 34.5134 36.3128 34.3792 36.0655L34.3863 36.0585Z" fill="black"/>
<path d="M40.956 40.3536C39.0701 40.1912 37.2762 39.3719 35.9059 38.0511C35.7647 37.9169 35.5457 37.9169 35.4045 38.0582C35.2703 38.1994 35.2703 38.4184 35.4115 38.5596C36.8948 39.9934 38.8371 40.8834 40.8924 41.0599C40.8995 41.0599 40.9136 41.0599 40.9207 41.0599C41.1043 41.0599 41.2526 40.9187 41.2738 40.735C41.2879 40.5443 41.1467 40.3678 40.956 40.3536Z" fill="black"/>
<path d="M46.7461 24.6534C46.5837 24.5404 46.3647 24.5828 46.2588 24.7453C46.1458 24.9077 46.1881 25.1267 46.3506 25.2326C47.9892 26.3486 49.1758 28.0154 49.6843 29.9224C49.7267 30.0778 49.8679 30.1838 50.0233 30.1838C50.0516 30.1838 50.0869 30.1838 50.1151 30.1696C50.3058 30.1202 50.4118 29.9224 50.3623 29.7388C49.8044 27.6693 48.5189 25.8683 46.7461 24.6534Z" fill="black"/>
</g>
</g>
</g>
<path d="M64.3023 27.6709V31.2188H66.4488C67.6314 31.2188 68.3082 30.5693 68.3082 29.4414C68.3082 28.3408 67.5904 27.6709 66.4078 27.6709H64.3023ZM64.3023 32.4561V36.25H62.7711V26.3857H66.5924C68.6226 26.3857 69.8873 27.5615 69.8873 29.4004C69.8873 30.7334 69.1764 31.8135 67.9732 32.2168L70.1812 36.25H68.4176L66.4078 32.4561H64.3023ZM77.6324 34.9238V36.25H71.3707V26.3857H77.6324V27.7051H72.9019V30.5898H77.3795V31.8613H72.9019V34.9238H77.6324ZM78.7672 33.502H80.2779C80.3873 34.4795 81.3375 35.1221 82.6363 35.1221C83.8805 35.1221 84.776 34.4795 84.776 33.5977C84.776 32.832 84.2359 32.374 82.9576 32.0596L81.6793 31.752C79.8678 31.3145 79.0269 30.4668 79.0269 29.0928C79.0269 27.3906 80.5103 26.2217 82.6158 26.2217C84.7008 26.2217 86.1295 27.3906 86.1773 29.0928H84.6871C84.5982 28.1084 83.7848 27.5137 82.5953 27.5137C81.4058 27.5137 80.5924 28.1152 80.5924 28.9902C80.5924 29.6875 81.1119 30.0977 82.3834 30.4121L83.4703 30.6787C85.4937 31.1572 86.3346 31.9707 86.3346 33.4131C86.3346 35.2588 84.8648 36.4141 82.5269 36.4141C80.3394 36.4141 78.8629 35.2861 78.7672 33.502ZM91.6871 36.25H90.1558V27.7051H87.1344V26.3857H94.7017V27.7051H91.6871V36.25ZM96.2057 36.25V30.2275H95.2144V29.0723H96.2057V28.3682C96.2057 26.9736 96.8619 26.3174 98.3248 26.3174C98.6256 26.3174 98.9605 26.3516 99.1519 26.3857V27.4795C99.0084 27.4521 98.8101 27.4385 98.6119 27.4385C97.9693 27.4385 97.6685 27.7598 97.6685 28.3955V29.0723H99.1246V30.2275H97.6891V36.25H96.2057ZM106.453 29.0586V36.25H105.038V35.0332H105.004C104.607 35.8945 103.876 36.3799 102.775 36.3799C101.21 36.3799 100.253 35.3613 100.253 33.7139V29.0586H101.729V33.4268C101.729 34.5205 102.249 35.1084 103.267 35.1084C104.334 35.1084 104.976 34.3701 104.976 33.249V29.0586H106.453ZM107.97 36.25V26.3857H109.447V36.25H107.97ZM120.412 36.25L119.509 33.584H115.75L114.847 36.25H113.254L116.816 26.3857H118.47L122.032 36.25H120.412ZM117.609 28.0264L116.139 32.3535H119.12L117.65 28.0264H117.609ZM123.119 26.3857H126.817C128.731 26.3857 130.064 27.7051 130.064 29.626C130.064 31.5537 128.704 32.8799 126.769 32.8799H124.65V36.25H123.119V26.3857ZM124.65 27.6777V31.5947H126.407C127.74 31.5947 128.499 30.877 128.499 29.6328C128.499 28.3887 127.74 27.6777 126.414 27.6777H124.65ZM132.935 36.25H131.404V26.3857H132.935V36.25Z" fill="black"/>
</g>
<defs>
<filter id="filter0_d_1_273" x="0" y="0.5" width="165.39" height="63.19" filterUnits="userSpaceOnUse" color-interpolation-filters="sRGB">
<feFlood flood-opacity="0" result="BackgroundImageFix"/>
<feColorMatrix in="SourceAlpha" type="matrix" values="0 0 0 0 0 0 0 0 0 0 0 0 0 0 0 0 0 0 127 0" result="hardAlpha"/>
<feOffset/>
<feGaussianBlur stdDeviation="5"/>
<feComposite in2="hardAlpha" operator="out"/>
<feColorMatrix type="matrix" values="0 0 0 0 0 0 0 0 0 0 0 0 0 0 0 0 0 0 0.05 0"/>
<feBlend mode="normal" in2="BackgroundImageFix" result="effect1_dropShadow_1_273"/>
<feBlend mode="normal" in="SourceGraphic" in2="effect1_dropShadow_1_273" result="shape"/>
</filter>
<clipPath id="clip0_1_273">
<rect width="24" height="24" fill="white" transform="translate(30 20.09)"/>
</clipPath>
<clipPath id="clip1_1_273">
<rect width="24" height="24" fill="white" transform="translate(30 20.09)"/>
</clipPath>
<clipPath id="clip2_1_273">
<rect width="24" height="24" fill="white" transform="translate(30 20.09)"/>
</clipPath>
</defs>
</svg>
