<svg width="186" height="65" viewBox="0 0 186 65" fill="none" xmlns="http://www.w3.org/2000/svg">
<g filter="url(#filter0_d_1_416)">
<rect x="10.6797" y="10" width="164.58" height="44.19" rx="22.095" fill="white" shape-rendering="crispEdges"/>
<g clip-path="url(#clip0_1_416)">
<g clip-path="url(#clip1_1_416)">
<g clip-path="url(#clip2_1_416)">
<mask id="mask0_1_416" style="mask-type:luminance" maskUnits="userSpaceOnUse" x="30" y="20" width="25" height="25">
<path d="M54.6797 20.1418H30.6797V44.1418H54.6797V20.1418Z" fill="white"/>
</mask>
<g mask="url(#mask0_1_416)">
<path d="M54.6797 20.1418H30.6797V44.1418H54.6797V20.1418Z" fill="#D86613"/>
<path d="M37.9102 24.4895V27.9801H40.3709L46.1079 39.7997H50.0478V36.3298H48.5202L42.7763 24.4895H37.9102Z" stroke="white" stroke-width="0.619843" stroke-linecap="round" stroke-linejoin="round"/>
<path d="M39.6721 30.6843L41.725 34.913L39.4962 39.77H35.3809L39.6721 30.6843Z" stroke="white" stroke-width="0.619843" stroke-linecap="round" stroke-linejoin="round"/>
</g>
</g>
</g>
</g>
<path d="M74.4006 36.25L73.4983 33.584H69.7385L68.8362 36.25H67.2434L70.8049 26.3857H72.4592L76.0207 36.25H74.4006ZM71.5979 28.0264L70.1281 32.3535H73.1086L71.6389 28.0264H71.5979ZM81.8313 28.8125L79.7053 36.25H78.2561L75.5969 26.3857H77.1897L79.0149 34.1104H79.0696L81.1545 26.3857H82.5764L84.6682 34.1104H84.7229L86.5481 26.3857H88.1408L85.4748 36.25H84.0324L81.8996 28.8125H81.8313ZM88.8791 33.502H90.3899C90.4992 34.4795 91.4494 35.1221 92.7483 35.1221C93.9924 35.1221 94.8879 34.4795 94.8879 33.5977C94.8879 32.832 94.3479 32.374 93.0696 32.0596L91.7912 31.752C89.9797 31.3145 89.1389 30.4668 89.1389 29.0928C89.1389 27.3906 90.6223 26.2217 92.7278 26.2217C94.8127 26.2217 96.2414 27.3906 96.2893 29.0928H94.799C94.7102 28.1084 93.8967 27.5137 92.7072 27.5137C91.5178 27.5137 90.7043 28.1152 90.7043 28.9902C90.7043 29.6875 91.2239 30.0977 92.4953 30.4121L93.5822 30.6787C95.6057 31.1572 96.4465 31.9707 96.4465 33.4131C96.4465 35.2588 94.9768 36.4141 92.6389 36.4141C90.4514 36.4141 88.9748 35.2861 88.8791 33.502ZM106.789 34.9238V36.25H100.664V26.3857H102.196V34.9238H106.789ZM110.44 35.2041C111.472 35.2041 112.279 34.4932 112.279 33.5566V32.9893L110.508 33.0986C109.626 33.1602 109.127 33.5498 109.127 34.165C109.127 34.7939 109.647 35.2041 110.44 35.2041ZM110.03 36.373C108.621 36.373 107.637 35.498 107.637 34.2061C107.637 32.9482 108.601 32.1758 110.31 32.0801L112.279 31.9639V31.4102C112.279 30.6104 111.738 30.1318 110.836 30.1318C109.982 30.1318 109.448 30.542 109.319 31.1846H107.924C108.006 29.8857 109.113 28.9287 110.891 28.9287C112.634 28.9287 113.748 29.8516 113.748 31.2939V36.25H112.333V35.0674H112.299C111.882 35.8672 110.973 36.373 110.03 36.373ZM115.184 36.25V29.0586H116.592V30.2686H116.626C116.947 29.4688 117.699 28.9355 118.67 28.9355C119.668 28.9355 120.393 29.4482 120.68 30.3438H120.714C121.083 29.4688 121.931 28.9355 122.956 28.9355C124.378 28.9355 125.308 29.8789 125.308 31.3076V36.25H123.824V31.6631C123.824 30.7334 123.325 30.2002 122.45 30.2002C121.575 30.2002 120.967 30.8496 120.967 31.7588V36.25H119.518V31.5537C119.518 30.7266 118.991 30.2002 118.157 30.2002C117.282 30.2002 116.66 30.8838 116.66 31.8066V36.25H115.184ZM130.565 36.373C129.512 36.373 128.698 35.8604 128.254 35.0264H128.227V36.25H126.791V26.3857H128.268V30.2822H128.302C128.733 29.4482 129.553 28.9424 130.572 28.9424C132.383 28.9424 133.566 30.3779 133.566 32.6543C133.566 34.9375 132.39 36.373 130.565 36.373ZM130.168 30.1865C129.047 30.1865 128.261 31.1709 128.261 32.6543C128.261 34.1514 129.047 35.1221 130.168 35.1221C131.33 35.1221 132.048 34.1787 132.048 32.6543C132.048 31.1436 131.33 30.1865 130.168 30.1865ZM137.421 36.373C135.603 36.373 134.4 34.9238 134.4 32.6543C134.4 30.3848 135.603 28.9424 137.407 28.9424C138.44 28.9424 139.26 29.4619 139.663 30.2549H139.691V26.3857H141.174V36.25H139.738V35.0264H139.711C139.287 35.8467 138.467 36.373 137.421 36.373ZM137.811 30.1865C136.642 30.1865 135.91 31.1436 135.91 32.6543C135.91 34.1719 136.642 35.1221 137.811 35.1221C138.946 35.1221 139.704 34.1582 139.704 32.6543C139.704 31.1641 138.946 30.1865 137.811 30.1865ZM145.207 35.2041C146.239 35.2041 147.046 34.4932 147.046 33.5566V32.9893L145.276 33.0986C144.394 33.1602 143.895 33.5498 143.895 34.165C143.895 34.7939 144.414 35.2041 145.207 35.2041ZM144.797 36.373C143.389 36.373 142.405 35.498 142.405 34.2061C142.405 32.9482 143.368 32.1758 145.077 32.0801L147.046 31.9639V31.4102C147.046 30.6104 146.506 30.1318 145.604 30.1318C144.749 30.1318 144.216 30.542 144.086 31.1846H142.692C142.774 29.8857 143.881 28.9287 145.658 28.9287C147.402 28.9287 148.516 29.8516 148.516 31.2939V36.25H147.101V35.0674H147.067C146.65 35.8672 145.74 36.373 144.797 36.373Z" fill="black"/>
</g>
<defs>
<filter id="filter0_d_1_416" x="0.679688" y="0" width="184.58" height="64.19" filterUnits="userSpaceOnUse" color-interpolation-filters="sRGB">
<feFlood flood-opacity="0" result="BackgroundImageFix"/>
<feColorMatrix in="SourceAlpha" type="matrix" values="0 0 0 0 0 0 0 0 0 0 0 0 0 0 0 0 0 0 127 0" result="hardAlpha"/>
<feOffset/>
<feGaussianBlur stdDeviation="5"/>
<feComposite in2="hardAlpha" operator="out"/>
<feColorMatrix type="matrix" values="0 0 0 0 0 0 0 0 0 0 0 0 0 0 0 0 0 0 0.05 0"/>
<feBlend mode="normal" in2="BackgroundImageFix" result="effect1_dropShadow_1_416"/>
<feBlend mode="normal" in="SourceGraphic" in2="effect1_dropShadow_1_416" result="shape"/>
</filter>
<clipPath id="clip0_1_416">
<rect width="24" height="25" fill="white" transform="translate(30.6797 19.6)"/>
</clipPath>
<clipPath id="clip1_1_416">
<rect width="24" height="25" fill="white" transform="translate(30.6797 19.6)"/>
</clipPath>
<clipPath id="clip2_1_416">
<rect width="24" height="25" fill="white" transform="translate(30.6797 19.6)"/>
</clipPath>
</defs>
</svg>
