<svg width="130" height="64" viewBox="0 0 130 64" fill="none" xmlns="http://www.w3.org/2000/svg">
<g filter="url(#filter0_d_1_410)">
<rect x="10.2285" y="10.5" width="109.45" height="43.19" rx="21.595" fill="white" shape-rendering="crispEdges"/>
<g clip-path="url(#clip0_1_410)">
<g clip-path="url(#clip1_1_410)">
<g clip-path="url(#clip2_1_410)">
<path d="M41.3315 40.6966C44.4149 40.1519 46.9617 39.7012 46.9909 39.695L47.0441 39.6837L44.133 36.2211C42.532 34.3166 41.222 32.7511 41.222 32.742C41.222 32.725 44.2279 24.4473 44.2448 24.4178C44.2504 24.408 46.2961 27.9397 49.2035 32.9789C51.9255 37.6968 54.1697 41.5866 54.1906 41.6231L54.2285 41.6894L44.9769 41.6882L35.7253 41.687L41.3315 40.6966ZM30.2285 39.6407C30.2285 39.6358 31.6002 37.2547 33.2767 34.3493L36.3249 29.0667L39.8772 26.0856C41.831 24.446 43.4348 23.1025 43.4412 23.1001C43.4476 23.0976 43.4219 23.1623 43.3841 23.2438C43.3462 23.3253 41.6104 27.0484 39.5268 31.5173L35.7383 39.6426L32.9834 39.6461C31.4682 39.648 30.2285 39.6456 30.2285 39.6407Z" fill="#0089D6"/>
</g>
</g>
</g>
<path d="M69.8597 36.25L68.9573 33.584H65.1976L64.2952 36.25H62.7025L66.264 26.3857H67.9183L71.4798 36.25H69.8597ZM67.057 28.0264L65.5872 32.3535H68.5677L67.098 28.0264H67.057ZM72.2386 36.25V35.2998L76.0736 30.2617V30.2344H72.2659V29.0586H77.7689V30.0703L74.0296 35.0469V35.0742H77.8099V36.25H72.2386ZM85.2952 29.0586V36.25H83.8802V35.0332H83.846C83.4495 35.8945 82.7181 36.3799 81.6175 36.3799C80.0521 36.3799 79.095 35.3613 79.095 33.7139V29.0586H80.5716V33.4268C80.5716 34.5205 81.0911 35.1084 82.1097 35.1084C83.1761 35.1084 83.8187 34.3701 83.8187 33.249V29.0586H85.2952ZM86.7581 36.25V29.0586H88.1663V30.2822H88.2005C88.4398 29.4414 89.0823 28.9424 89.93 28.9424C90.1419 28.9424 90.3265 28.9766 90.4359 28.9971V30.3711C90.3196 30.3232 90.0599 30.2891 89.7728 30.2891C88.8226 30.2891 88.2347 30.9248 88.2347 31.9434V36.25H86.7581ZM94.0452 30.1182C93.013 30.1182 92.2884 30.9043 92.2132 31.9912H95.8089C95.7747 30.8906 95.0775 30.1182 94.0452 30.1182ZM95.8021 34.1377H97.2034C96.9984 35.4502 95.7542 36.3867 94.1068 36.3867C91.9945 36.3867 90.7161 34.958 90.7161 32.6885C90.7161 30.4326 92.015 28.9287 94.0452 28.9287C96.0413 28.9287 97.2855 30.3369 97.2855 32.5176V33.0234H92.2064V33.1123C92.2064 34.3633 92.9583 35.1904 94.1409 35.1904C94.9818 35.1904 95.6038 34.7666 95.8021 34.1377Z" fill="black"/>
</g>
<defs>
<filter id="filter0_d_1_410" x="0.228516" y="0.5" width="129.45" height="63.19" filterUnits="userSpaceOnUse" color-interpolation-filters="sRGB">
<feFlood flood-opacity="0" result="BackgroundImageFix"/>
<feColorMatrix in="SourceAlpha" type="matrix" values="0 0 0 0 0 0 0 0 0 0 0 0 0 0 0 0 0 0 127 0" result="hardAlpha"/>
<feOffset/>
<feGaussianBlur stdDeviation="5"/>
<feComposite in2="hardAlpha" operator="out"/>
<feColorMatrix type="matrix" values="0 0 0 0 0 0 0 0 0 0 0 0 0 0 0 0 0 0 0.05 0"/>
<feBlend mode="normal" in2="BackgroundImageFix" result="effect1_dropShadow_1_410"/>
<feBlend mode="normal" in="SourceGraphic" in2="effect1_dropShadow_1_410" result="shape"/>
</filter>
<clipPath id="clip0_1_410">
<rect width="24" height="24" fill="white" transform="translate(30.2285 20.1)"/>
</clipPath>
<clipPath id="clip1_1_410">
<rect width="24" height="24" fill="white" transform="translate(30.2285 20.1)"/>
</clipPath>
<clipPath id="clip2_1_410">
<rect width="24" height="24" fill="white" transform="translate(30.2285 20.1)"/>
</clipPath>
</defs>
</svg>
