<svg width="32" height="30" viewBox="0 0 32 30" fill="none" xmlns="http://www.w3.org/2000/svg">
<path fill-rule="evenodd" clip-rule="evenodd" d="M2.27665 16.1008C2.06542 16.1754 1.8321 16.0718 1.74512 15.8661C1.65952 15.659 1.74788 15.4215 1.94945 15.3221L4.18742 14.3833V14.3847C4.39866 14.3088 4.6306 14.4123 4.71758 14.618C4.80456 14.8251 4.71482 15.064 4.51325 15.162L2.27528 16.1008L2.27665 16.1008ZM2.93522 17.6747L5.17319 16.7359C5.37476 16.6379 5.46451 16.399 5.37752 16.1919C5.29055 15.9862 5.05722 15.8827 4.84737 15.9586L2.60939 16.8974V16.896C2.50032 16.9361 2.41058 17.0175 2.36364 17.1238C2.3167 17.2301 2.3167 17.3516 2.36088 17.4579C2.40644 17.5656 2.49342 17.6498 2.60249 17.6899C2.71017 17.7313 2.83167 17.7258 2.93522 17.6747ZM3.59654 19.2486C3.38807 19.3107 3.16718 19.2058 3.08296 19.0056C2.99874 18.8068 3.07882 18.5748 3.26934 18.4699L5.50732 17.5311C5.61225 17.4732 5.7365 17.4635 5.85109 17.5021C5.9643 17.5422 6.05542 17.6278 6.10237 17.7382C6.14931 17.8501 6.14655 17.9757 6.09546 18.0834C6.04438 18.1925 5.94912 18.2753 5.83315 18.3098L3.59654 19.2486ZM27.5654 16.2734C26.3436 15.0488 24.4259 14.8582 22.9873 15.8191C21.5473 16.7786 20.9868 18.6218 21.6481 20.2205C22.3094 21.8192 24.0076 22.7291 25.7056 22.3922C27.4024 22.0553 28.6256 20.567 28.6256 18.837C28.627 17.8746 28.2461 16.9526 27.5654 16.2734ZM25.0016 14.364C27.1347 14.3653 28.9707 15.873 29.3849 17.9648C29.8005 20.0578 28.6808 22.1509 26.7093 22.9667C24.7378 23.7826 22.4652 23.0909 21.2808 21.3168C20.0976 19.5427 20.331 17.1791 21.84 15.6713C22.678 14.8333 23.8156 14.3626 25.0016 14.364ZM23.0963 19.2831V19.2817C23.0066 19.2127 22.9472 19.1105 22.9334 18.9973C22.921 18.8841 22.9528 18.7709 23.0245 18.6825C23.0963 18.5942 23.2013 18.5389 23.3145 18.5279C23.4277 18.5182 23.5409 18.5541 23.6265 18.6287L24.4784 19.319L26.3449 17.4869C26.5106 17.3281 26.7743 17.3323 26.9359 17.4966C27.0974 17.6609 27.0974 17.9245 26.9359 18.0875L24.8014 20.1833C24.6482 20.3338 24.4065 20.3448 24.2395 20.2095L23.095 19.2831L23.0963 19.2831ZM23.7411 25.1923V25.1909C23.6486 25.2019 23.5561 25.2171 23.465 25.2392C22.8989 25.4573 22.2611 25.2171 21.978 24.6814C21.9132 24.5806 21.8317 24.4909 21.7392 24.415C21.6274 24.3708 21.51 24.3459 21.3899 24.339C21.2132 24.3225 21.0392 24.2852 20.8708 24.2258L19.6048 27.4137L21.1593 26.8172L21.1607 26.8186C21.365 26.7399 21.5956 26.8324 21.6909 27.0299L22.4143 28.532L23.7411 25.1923ZM29.131 24.2272L29.1324 24.2258C28.964 24.2852 28.79 24.3225 28.6133 24.339C28.4932 24.3459 28.3758 24.3708 28.264 24.4149C28.1715 24.4909 28.09 24.5806 28.0251 24.6814C27.7435 25.2171 27.1043 25.4573 26.5382 25.2392C26.4471 25.2185 26.3546 25.2019 26.2621 25.1922L27.5889 28.532L28.3123 27.0298C28.4076 26.8324 28.6382 26.7399 28.8425 26.8172L30.3971 27.4136L29.131 24.2258V24.2272ZM9.69895 10.2568L12.6397 17.2676L8.38744 19.0528V19.0514L5.63585 12.4908L5.4467 12.0408H5.44808L9.69895 10.2568ZM7.25803 18.5407L5.02143 13.2059L1.47042 14.6956C0.948535 14.9137 0.702789 15.5143 0.920932 16.0362L2.36643 19.4808C2.58594 20.0027 3.18513 20.2471 3.70702 20.0289L7.25661 18.5393L7.25803 18.5407ZM23.2773 12.3955C23.0592 12.3444 22.83 12.3554 22.616 12.4272C22.3523 12.5459 22.13 12.742 21.9781 12.9891C21.9132 13.0899 21.8318 13.1796 21.7393 13.2556C21.6275 13.2997 21.5101 13.3246 21.39 13.3329C20.7908 13.3122 20.2731 13.7485 20.1916 14.3435C20.1654 14.4595 20.1198 14.5699 20.0591 14.6707C19.9693 14.7494 19.8686 14.8129 19.7595 14.8599C19.4916 14.9648 19.2611 15.1484 19.1009 15.3859C19.0692 15.4397 19.0429 15.4963 19.0222 15.5543C18.042 15.691 17.07 15.8801 16.1119 16.1231C15.202 16.3509 14.3046 16.6298 13.4252 16.9557L10.4734 9.91728C12.4118 9.01573 14.241 7.89745 15.9269 6.58308C17.233 5.58352 18.3927 4.40723 19.373 3.08735L23.2773 12.3955ZM24.0767 13.2873V13.2859C24.27 13.2266 24.4536 13.1368 24.6193 13.0222C24.7325 12.9353 24.8637 12.8745 25.0017 12.8428C25.1398 12.8745 25.2709 12.9353 25.3841 13.0222C25.5733 13.1562 25.7873 13.2528 26.0137 13.3053C26.247 13.3356 26.4831 13.3191 26.7095 13.2556L26.7454 13.2487C26.7634 13.2459 26.7827 13.2418 26.8006 13.2376C26.8945 13.21 26.9953 13.2017 27.092 13.2155C27.1969 13.2901 27.2852 13.384 27.3515 13.493C27.5904 13.9045 28.028 14.1599 28.5029 14.1654C28.6272 14.1695 28.7487 14.1985 28.8619 14.2496C28.9323 14.3518 28.9806 14.4677 29.0055 14.5892C29.0911 15.0573 29.4169 15.4452 29.8642 15.6081C29.9816 15.6537 30.0865 15.7213 30.1776 15.8083C30.2094 15.9312 30.2163 16.0582 30.1997 16.1839C30.1266 16.6533 30.3019 17.1282 30.6636 17.4388C30.763 17.5286 30.8431 17.6363 30.8997 17.7578C30.8887 17.8931 30.8528 18.0256 30.792 18.1457C30.5628 18.5779 30.5628 19.0928 30.792 19.525C30.8528 19.6465 30.8887 19.7776 30.8997 19.9129C30.8431 20.0344 30.763 20.1421 30.6636 20.2319C30.3033 20.5425 30.1279 21.0161 30.2011 21.4855C30.2177 21.6111 30.2094 21.7381 30.1776 21.861C30.0879 21.9466 29.9816 22.0156 29.8656 22.0612C29.4183 22.2241 29.0911 22.6121 29.0055 23.0801C28.982 23.1643 28.953 23.2471 28.9213 23.3286L28.9144 23.3438C28.9019 23.3714 28.884 23.3976 28.8633 23.4197C28.7501 23.4708 28.6286 23.4998 28.5043 23.5039C28.0294 23.5095 27.5917 23.7649 27.3515 24.1749C27.2852 24.284 27.1969 24.3792 27.0933 24.4538C26.9636 24.4648 26.8338 24.451 26.7095 24.4124C26.4831 24.3502 26.247 24.3337 26.0137 24.364C25.7873 24.4165 25.5733 24.5132 25.3841 24.6471C25.2709 24.7327 25.1398 24.7948 25.0017 24.8266C24.8623 24.7948 24.7325 24.7327 24.6193 24.6471C24.4302 24.5132 24.2162 24.4165 23.9897 24.364C23.7564 24.3337 23.5203 24.3516 23.2939 24.4151C23.1696 24.4524 23.0399 24.4662 22.9101 24.4552C22.8066 24.3806 22.7182 24.2867 22.6519 24.1777C22.5249 23.983 22.3592 23.8173 22.1659 23.6903C21.9589 23.5826 21.7324 23.5191 21.5005 23.5039C21.3762 23.4998 21.2547 23.4708 21.1415 23.4197C21.1194 23.399 21.1015 23.3728 21.0905 23.3438L21.0836 23.3286C21.0504 23.2485 21.0214 23.1657 20.998 23.0815C20.9124 22.6134 20.5865 22.2241 20.1392 22.0612C20.0232 22.0156 19.9169 21.948 19.8258 21.861C19.794 21.7395 19.7871 21.6125 19.8037 21.4868C19.8755 21.0161 19.7002 20.5425 19.3398 20.2318C19.2404 20.1421 19.1603 20.0344 19.1037 19.9129C19.1134 19.7776 19.1493 19.6465 19.21 19.525C19.4378 19.0928 19.4378 18.5778 19.21 18.1457C19.1493 18.0256 19.1134 17.8931 19.1037 17.7578C19.1603 17.6363 19.2404 17.5286 19.3398 17.4388C19.7002 17.1296 19.8755 16.6546 19.8023 16.1852C19.7996 16.1148 19.7968 16.0444 19.7982 15.9836V15.9823C19.801 15.9616 19.8023 15.9395 19.801 15.9174C19.8023 15.8815 19.8106 15.8442 19.8258 15.8111C19.9155 15.7255 20.0219 15.6564 20.1378 15.6109C20.5851 15.448 20.9123 15.0586 20.9966 14.5906C21.0214 14.4691 21.0697 14.3545 21.1402 14.251C21.2534 14.1999 21.3749 14.1723 21.4991 14.1668C21.7311 14.153 21.9575 14.0894 22.1646 13.9818C22.3579 13.8547 22.5235 13.6891 22.6505 13.4944C22.7168 13.3853 22.8052 13.2914 22.9087 13.2169C23.0385 13.2045 23.1697 13.2183 23.2939 13.2569C23.5203 13.3191 23.7564 13.3356 23.9897 13.3052C24.0201 13.3025 24.0491 13.2956 24.0781 13.2859L24.0767 13.2873ZM11.1086 18.8264L15.2919 23.7208C15.586 24.0605 16.0996 24.1019 16.4434 23.8106L16.8548 23.4599L12.423 18.2757L11.1086 18.8264ZM25.5859 9.10967C26.029 8.72725 26.1754 8.10318 25.949 7.56337C25.7225 7.02357 25.1744 6.6908 24.5918 6.73778L25.5859 9.10967ZM24.9963 9.88695L21.4744 1.49136C21.375 1.24699 21.1886 1.0468 20.9497 0.929461C20.7482 0.824532 20.5107 0.814869 20.3009 0.903229C20.091 0.99159 19.9322 1.16831 19.8659 1.38507C19.7817 1.63635 19.7942 1.90972 19.8991 2.15271L24.1612 12.3169L24.1778 12.3072V12.3059C24.6499 11.8958 25.3541 11.8958 25.8262 12.3059C25.9049 12.357 25.9864 12.4039 26.0706 12.4453L24.9979 9.88701L24.9963 9.88695ZM24.2535 5.9355L22.253 1.16407C22.0721 0.726411 21.7367 0.371593 21.31 0.165891C20.8903 -0.0384389 20.4043 -0.0550083 19.9736 0.121711C19.5456 0.305334 19.2157 0.664311 19.0693 1.10611C18.9561 1.43332 18.9354 1.78401 19.0072 2.12225C18.0242 3.57743 16.8064 4.86002 15.4063 5.91889C13.6737 7.26776 11.7864 8.40541 9.78311 9.30417L9.7624 9.31245L5.1221 11.2619C4.69274 11.4441 4.48976 11.937 4.66786 12.3691L4.69271 12.4271L1.14453 13.9154C0.196041 14.3186 -0.251271 15.4106 0.143591 16.3633L1.58909 19.8079C1.99084 20.7564 3.08293 21.2023 4.03556 20.8089L7.58515 19.3192L7.61 19.3772H7.60862C7.79224 19.8065 8.28514 20.0081 8.71725 19.83L10.2939 19.1687L14.6511 24.2674C15.2462 24.9632 16.294 25.0461 16.9899 24.451L17.7216 23.8256C17.8072 23.7524 17.8597 23.6503 17.868 23.5384C17.8762 23.4266 17.8403 23.3162 17.7686 23.2319L13.2389 17.9346L13.3562 17.8849L13.3687 17.8794H13.37C14.331 17.5052 15.3139 17.1932 16.3149 16.9419C17.1888 16.721 18.0738 16.5443 18.9657 16.4145C18.9671 16.4711 18.9602 16.5277 18.9436 16.5816C18.8842 16.6879 18.8083 16.7859 18.7199 16.8688C18.5004 17.0662 18.3458 17.323 18.2754 17.6088C18.2422 17.8987 18.2947 18.1928 18.4259 18.4537C18.4825 18.5752 18.5197 18.7036 18.5363 18.8361C18.5197 18.9687 18.4825 19.0971 18.4259 19.2186C18.2947 19.4795 18.2422 19.7722 18.2754 20.0635C18.3458 20.3479 18.5004 20.6061 18.7186 20.8021C18.8083 20.8877 18.8828 20.9844 18.9436 21.0907C18.9671 21.2108 18.974 21.335 18.9602 21.4565C18.8414 22.0475 19.1852 22.6315 19.7595 22.8137C19.8686 22.8606 19.9708 22.9228 20.0605 23.0001C20.1213 23.1022 20.1654 23.2127 20.1931 23.3287C20.2124 23.3908 20.2303 23.4515 20.251 23.5123L18.4811 27.9674C18.4038 28.122 18.43 28.3098 18.5474 28.4382C18.6647 28.5652 18.8483 28.6094 19.0112 28.5472L21.1015 27.7465L22.0735 29.7636V29.7622C22.1453 29.9127 22.2999 30.0065 22.467 29.9996C22.634 29.9941 22.7817 29.8906 22.8425 29.7346L24.5034 25.5513L24.5047 25.5526C24.8154 25.7142 25.1868 25.7142 25.4988 25.5526L27.1597 29.7359L27.1611 29.7346C27.2218 29.8906 27.3695 29.9941 27.5366 29.9996C27.7036 30.0065 27.8583 29.9127 27.9301 29.7622L28.902 27.7451L30.9923 28.5458V28.5472C31.1552 28.6094 31.3375 28.5652 31.4548 28.4368C31.5722 28.3098 31.5984 28.122 31.5225 27.9674L29.7525 23.5109C29.7732 23.4501 29.7926 23.3894 29.8105 23.3272L29.8119 23.3286C29.8381 23.2127 29.8837 23.1022 29.9444 23C30.0342 22.9227 30.1363 22.8606 30.2454 22.8137C30.8184 22.6314 31.1621 22.046 31.042 21.4565C31.0296 21.335 31.0351 21.2108 31.06 21.0906C31.1193 20.9843 31.1953 20.8877 31.2836 20.8021C31.5031 20.606 31.6578 20.3478 31.7282 20.0635C31.7613 19.7722 31.7088 19.4795 31.5777 19.2185C31.5197 19.097 31.4824 18.9686 31.4659 18.8361C31.4824 18.7036 31.5197 18.5752 31.5777 18.4537C31.7088 18.1928 31.7613 17.8987 31.7282 17.6088C31.6564 17.323 31.5018 17.0648 31.2836 16.8687C31.1953 16.7845 31.1193 16.6879 31.06 16.5816C31.0351 16.4601 31.0296 16.3372 31.042 16.2157C31.1621 15.6261 30.8184 15.0408 30.2454 14.8585C30.1363 14.8116 30.0342 14.7495 29.9444 14.6708C29.8837 14.57 29.8381 14.4595 29.8119 14.3436C29.7304 13.7485 29.2127 13.3122 28.6135 13.3329C28.4934 13.3247 28.376 13.2998 28.2642 13.2556C28.1717 13.1797 28.0903 13.09 28.0254 12.9892C27.8735 12.742 27.6512 12.546 27.3875 12.4273C27.2481 12.3776 27.1003 12.3555 26.9526 12.3665L25.9227 9.91178C26.7924 9.325 27.1279 8.20534 26.722 7.23752C26.3161 6.27107 25.2834 5.72437 24.2548 5.93421L24.2535 5.9355Z" fill="#DCA629"/>
</svg>
