<svg width="30" height="30" viewBox="0 0 30 30" fill="none" xmlns="http://www.w3.org/2000/svg">
<path d="M13.4392 28.1245H16.5892C17.7892 28.1245 18.5642 27.2745 18.3392 26.237L17.8267 23.9746H12.2017L11.6892 26.237C11.4642 27.212 12.3142 28.1245 13.4392 28.1245Z" stroke="#DCA629" stroke-width="1.87524" stroke-linecap="round" stroke-linejoin="round"/>
<path d="M17.8272 23.9617L19.99 22.0364C21.2027 20.9612 21.2527 20.2111 20.2901 18.9984L16.4771 14.1604C15.677 13.1477 14.3643 13.1477 13.5642 14.1604L9.7512 18.9984C8.78858 20.2111 8.78856 20.9987 10.0512 22.0364L12.214 23.9617" stroke="#DCA629" stroke-width="1.87524" stroke-linecap="round" stroke-linejoin="round"/>
<path d="M15.0143 13.8979V17.0605" stroke="#DCA629" stroke-width="1.87524" stroke-linecap="round" stroke-linejoin="round"/>
<path d="M15.6516 6.24658H14.4016C13.7141 6.24658 13.1516 5.68408 13.1516 4.99658V3.74658C13.1516 3.05908 13.7141 2.49658 14.4016 2.49658H15.6516C16.3391 2.49658 16.9016 3.05908 16.9016 3.74658V4.99658C16.9016 5.68408 16.3391 6.24658 15.6516 6.24658Z" stroke="#DCA629" stroke-width="1.87524" stroke-linecap="round" stroke-linejoin="round"/>
<path d="M4.08765 17.71H5.33765C6.02515 17.71 6.58765 17.1475 6.58765 16.46V15.21C6.58765 14.5225 6.02515 13.96 5.33765 13.96H4.08765C3.40015 13.96 2.83765 14.5225 2.83765 15.21V16.46C2.83765 17.1475 3.40015 17.71 4.08765 17.71Z" stroke="#DCA629" stroke-width="1.87524" stroke-linecap="round" stroke-linejoin="round"/>
<path d="M25.9155 17.71H24.6655C23.978 17.71 23.4155 17.1475 23.4155 16.46V15.21C23.4155 14.5225 23.978 13.96 24.6655 13.96H25.9155C26.603 13.96 27.1655 14.5225 27.1655 15.21V16.46C27.1655 17.1475 26.603 17.71 25.9155 17.71Z" stroke="#DCA629" stroke-width="1.87524" stroke-linecap="round" stroke-linejoin="round"/>
<path d="M13.1514 4.44678C8.38823 5.00935 4.68774 9.04736 4.68774 13.9605" stroke="#DCA629" stroke-width="1.87524" stroke-linecap="round" stroke-linejoin="round"/>
<path d="M25.3158 13.9605C25.3158 9.05986 21.6403 5.03435 16.9022 4.44678" stroke="#DCA629" stroke-width="1.87524" stroke-linecap="round" stroke-linejoin="round"/>
</svg>
