<svg width="30" height="30" viewBox="0 0 30 30" fill="none" xmlns="http://www.w3.org/2000/svg">
<path d="M19.5237 22.4345C18.4375 22.4345 18.4375 20.824 19.5237 20.824H20.048C21.1342 20.824 21.1342 22.4345 20.048 22.4345H19.5237ZM6.15288 22.7715H2.40756C1.24651 22.7715 0.310181 21.8352 0.310181 20.6742V9.55056C0.310181 8.38951 1.24651 7.45318 2.40756 7.45318H6.15288V1.16105C6.15288 0.524345 6.67722 0 7.31393 0H22.5199C23.1566 0 23.681 0.524345 23.681 1.16105V7.45318H27.4263C28.5873 7.45318 29.5237 8.38951 29.5237 9.55056V20.6742C29.5237 21.8352 28.5873 22.7715 27.4263 22.7715H23.681V28.9139C23.681 29.5131 23.1941 30 22.5948 30H7.23902C6.63977 30 6.15288 29.5131 6.15288 28.9139V22.7715ZM7.80082 7.45318H22.033V1.61049H7.80082V7.45318ZM23.681 21.161H27.4263C27.6885 21.161 27.8757 20.9363 27.8757 20.6742V9.55056C27.8757 9.28839 27.6885 9.06367 27.4263 9.06367H2.40756C2.14539 9.06367 1.92067 9.28839 1.92067 9.55056V20.6742C1.92067 20.9363 2.14539 21.161 2.40756 21.161H6.15288V18.2397C6.15288 17.6404 6.63977 17.1536 7.23902 17.1536H22.5948C23.1941 17.1536 23.681 17.6404 23.681 18.2397V21.161ZM22.033 18.8015H7.80082V28.3895H22.033V18.8015ZM4.20531 12.3221C3.15662 12.3221 3.15662 10.6742 4.20531 10.6742H6.00307C7.05175 10.6742 7.05175 12.3221 6.00307 12.3221H4.20531ZM11.1342 22.4345C10.048 22.4345 10.048 20.824 11.1342 20.824H17.2765C18.3626 20.824 18.3626 22.4345 17.2765 22.4345H11.1342ZM11.1342 25.618C10.048 25.618 10.048 24.0075 11.1342 24.0075H17.2765C18.3626 24.0075 18.3626 25.618 17.2765 25.618H11.1342Z" fill="#DCA629"/>
</svg>
