<svg width="35" height="31" viewBox="0 0 35 31" fill="none" xmlns="http://www.w3.org/2000/svg">
<path d="M9.19042 30.4997C9.54294 30.4997 9.82871 30.214 9.82871 29.8614C9.82871 29.5089 9.54294 29.2231 9.19042 29.2231C8.8379 29.2231 8.55212 29.5089 8.55212 29.8614C8.55212 30.214 8.8379 30.4997 9.19042 30.4997Z" fill="#DCA629"/>
<path fill-rule="evenodd" clip-rule="evenodd" d="M24.5095 25.3933H27.701C28.0533 25.3933 28.3393 25.1073 28.3393 24.755C28.3393 24.4027 28.0533 24.1167 27.701 24.1167H24.5095C24.1572 24.1167 23.8712 24.4027 23.8712 24.755C23.8712 25.1073 24.1572 25.3933 24.5095 25.3933Z" fill="#DCA629"/>
<path fill-rule="evenodd" clip-rule="evenodd" d="M23.2329 22.8406H27.701C28.0533 22.8406 28.3393 22.5546 28.3393 22.2023C28.3393 21.8499 28.0533 21.564 27.701 21.564H23.2329C22.8806 21.564 22.5946 21.8499 22.5946 22.2023C22.5946 22.5546 22.8806 22.8406 23.2329 22.8406Z" fill="#DCA629"/>
<path fill-rule="evenodd" clip-rule="evenodd" d="M23.2329 27.9465H27.701C28.0533 27.9465 28.3393 27.6606 28.3393 27.3082C28.3393 26.9559 28.0533 26.6699 27.701 26.6699H23.2329C22.8806 26.6699 22.5946 26.9559 22.5946 27.3082C22.5946 27.6606 22.8806 27.9465 23.2329 27.9465Z" fill="#DCA629"/>
<path fill-rule="evenodd" clip-rule="evenodd" d="M4.08404 17.096V28.5853C4.08404 29.643 4.94127 30.5002 5.99892 30.5002H7.27551C7.62785 30.5002 7.91381 30.2143 7.91381 29.8619C7.91381 29.5096 7.62785 29.2236 7.27551 29.2236H5.99892C5.64658 29.2236 5.36063 28.9377 5.36063 28.5853V17.096H13.6585C13.8276 17.096 13.9904 17.029 14.1097 16.909L16.8499 14.1688V17.7343C16.8499 18.0867 17.1359 18.3726 17.4882 18.3726C17.8406 18.3726 18.1265 18.0867 18.1265 17.7343V14.1688L20.8667 16.909C20.9861 17.029 21.1488 17.096 21.318 17.096H29.6158V28.5853C29.6158 28.9377 29.3299 29.2236 28.9775 29.2236H18.1265V19.6492C18.1265 19.2969 17.8406 19.0109 17.4882 19.0109C17.1359 19.0109 16.8499 19.2969 16.8499 19.6492V29.2236H11.1053C10.7529 29.2236 10.467 29.5096 10.467 29.8619C10.467 30.2143 10.7529 30.5002 11.1053 30.5002C17.1633 30.5002 25.6456 30.5002 28.9775 30.5002C30.0352 30.5002 30.8924 29.643 30.8924 28.5853V17.096H34.0839C34.3418 17.096 34.5747 16.9403 34.6737 16.7022C34.7726 16.4635 34.7177 16.189 34.5352 16.0065C34.5352 16.0065 32.5679 14.0392 31.4535 12.9241C30.8548 12.3261 30.0428 11.9897 29.1965 11.9897H25.3373C26.4231 8.20713 25.7931 1.08058 25.7931 1.08058C25.7739 0.873768 25.6565 0.689301 25.4765 0.585897C25.2971 0.482493 25.0788 0.472281 24.8905 0.559089C24.8905 0.559089 23.0931 1.3876 21.0014 2.58121C20.6957 2.75546 20.5891 3.1461 20.7633 3.45184C20.9382 3.75758 21.3282 3.86418 21.6346 3.68992C22.8103 3.01908 23.8903 2.46631 24.5944 2.11844C24.7361 4.20184 24.9601 9.30309 24.0014 11.9897H22.5876C22.7184 10.6595 22.0808 9.31266 20.8488 8.60096C19.1708 7.63267 17.0223 8.20841 16.0533 9.88585C15.6716 10.5478 15.5293 11.2824 15.6008 11.9897H13.8965C14.6465 10.2886 15.4221 8.76054 16.1376 7.81522C16.9227 6.77863 18.3914 5.69098 19.9169 4.72205C20.2137 4.53311 20.3018 4.13801 20.1129 3.84056C19.924 3.54312 19.5295 3.45567 19.232 3.6446C17.5655 4.70354 15.9774 5.91247 15.1202 7.0448C14.2891 8.14267 13.3693 9.97904 12.5051 11.9897H5.77999C4.93361 11.9897 4.1217 12.3261 3.52298 12.9241C2.40852 14.0392 0.441292 16.0065 0.441292 16.0065C0.258739 16.189 0.203846 16.4635 0.302782 16.7022C0.401717 16.9403 0.634695 17.096 0.892566 17.096H4.08404ZM19.0291 13.2663H29.1965C29.7045 13.2663 30.1916 13.468 30.5503 13.8273L32.543 15.8194H21.5823L19.0291 13.2663ZM15.9474 13.2663L13.3942 15.8194H2.43341L4.42616 13.8273C4.78489 13.468 5.2719 13.2663 5.77999 13.2663H15.9474ZM16.8876 11.9897H21.3008C21.4405 11.1031 21.034 10.182 20.2106 9.70649C19.1427 9.09054 17.7755 9.45692 17.1589 10.5241C16.8933 10.985 16.8104 11.5014 16.8876 11.9897Z" fill="#DCA629"/>
<path fill-rule="evenodd" clip-rule="evenodd" d="M28.0986 7.2137L29.9988 6.97945C30.3486 6.93604 30.5969 6.6169 30.5541 6.26775C30.5107 5.91796 30.1922 5.66903 29.8424 5.71243L27.9416 5.94669C27.5924 5.99009 27.3435 6.30924 27.3869 6.65839C27.4296 7.00817 27.7488 7.25711 28.0986 7.2137Z" fill="#DCA629"/>
<path fill-rule="evenodd" clip-rule="evenodd" d="M27.9333 10.0689L29.8303 10.3287C30.1794 10.3766 30.5018 10.1321 30.5496 9.78298C30.5975 9.43383 30.353 9.11213 30.0039 9.06426L28.1069 8.80384C27.7577 8.75597 27.4354 9.00043 27.3875 9.34958C27.3396 9.69873 27.5841 10.0211 27.9333 10.0689Z" fill="#DCA629"/>
<path fill-rule="evenodd" clip-rule="evenodd" d="M15.3149 1.41036L16.1306 3.14269C16.2806 3.46184 16.661 3.59843 16.9795 3.44843C17.2987 3.29843 17.4353 2.91801 17.2853 2.5995L16.4702 0.86653C16.3202 0.548021 15.9398 0.410788 15.6206 0.560787C15.3021 0.710786 15.1649 1.09121 15.3149 1.41036Z" fill="#DCA629"/>
<path fill-rule="evenodd" clip-rule="evenodd" d="M11.886 3.83592L13.2768 5.15272C13.5328 5.39464 13.9368 5.38379 14.1794 5.12783C14.4213 4.87187 14.4104 4.4672 14.1545 4.22528L12.7636 2.90912C12.5077 2.66657 12.1036 2.67805 11.8611 2.93401C11.6192 3.18933 11.63 3.59401 11.886 3.83592Z" fill="#DCA629"/>
<path fill-rule="evenodd" clip-rule="evenodd" d="M9.8606 7.34155L11.5706 8.20324C11.8853 8.36154 12.2695 8.23516 12.4278 7.92048C12.5861 7.6058 12.4597 7.22155 12.1451 7.06325L10.4351 6.20155C10.1204 6.04325 9.73613 6.16964 9.57783 6.48432C9.41953 6.79899 9.54592 7.18325 9.8606 7.34155Z" fill="#DCA629"/>
</svg>
