<svg width="1512" height="1110" viewBox="0 0 1512 1110" fill="none" xmlns="http://www.w3.org/2000/svg">
<path d="M-204 0C-204 0 380.914 30 756 30C1131.09 30 1716 0 1716 0V1110C1716 1110 1131.09 1080 756 1080C380.914 1080 -204 1110 -204 1110L-204 0Z" fill="#DDA72A"/>
<circle cx="256.24" cy="844.637" r="3.52358" transform="rotate(-180 256.24 844.637)" fill="#FFC642"/>
<circle cx="204.56" cy="844.637" r="3.52358" transform="rotate(-180 204.56 844.637)" fill="#FFC642"/>
<circle cx="152.882" cy="844.637" r="3.52358" transform="rotate(-180 152.882 844.637)" fill="#FFC642"/>
<circle cx="101.203" cy="844.637" r="3.52358" transform="rotate(-180 101.203 844.637)" fill="#FFC642"/>
<circle cx="49.5233" cy="844.637" r="3.52358" transform="rotate(-180 49.5233 844.637)" fill="#FFC642"/>
<circle cx="256.24" cy="792.957" r="3.52358" transform="rotate(-180 256.24 792.957)" fill="#FFC642"/>
<circle cx="204.56" cy="792.957" r="3.52358" transform="rotate(-180 204.56 792.957)" fill="#FFC642"/>
<circle cx="152.882" cy="792.957" r="3.52358" transform="rotate(-180 152.882 792.957)" fill="#FFC642"/>
<circle cx="101.203" cy="792.957" r="3.52358" transform="rotate(-180 101.203 792.957)" fill="#FFC642"/>
<circle cx="49.5233" cy="792.957" r="3.52358" transform="rotate(-180 49.5233 792.957)" fill="#FFC642"/>
<circle cx="256.24" cy="741.277" r="3.52358" transform="rotate(-180 256.24 741.277)" fill="#FFC642"/>
<circle cx="204.56" cy="741.277" r="3.52358" transform="rotate(-180 204.56 741.277)" fill="#FFC642"/>
<circle cx="152.882" cy="741.277" r="3.52358" transform="rotate(-180 152.882 741.277)" fill="#FFC642"/>
<circle cx="101.203" cy="741.277" r="3.52358" transform="rotate(-180 101.203 741.277)" fill="#FFC642"/>
<circle cx="49.5233" cy="741.277" r="3.52358" transform="rotate(-180 49.5233 741.277)" fill="#FFC642"/>
<circle cx="256.24" cy="689.599" r="3.52358" transform="rotate(-180 256.24 689.599)" fill="#FFC642"/>
<circle cx="204.56" cy="689.599" r="3.52358" transform="rotate(-180 204.56 689.599)" fill="#FFC642"/>
<circle cx="152.882" cy="689.599" r="3.52358" transform="rotate(-180 152.882 689.599)" fill="#FFC642"/>
<circle cx="101.203" cy="689.599" r="3.52358" transform="rotate(-180 101.203 689.599)" fill="#FFC642"/>
<circle cx="49.5233" cy="689.599" r="3.52358" transform="rotate(-180 49.5233 689.599)" fill="#FFC642"/>
<circle cx="256.24" cy="637.92" r="3.52358" transform="rotate(-180 256.24 637.92)" fill="#FFC642"/>
<circle cx="204.56" cy="637.92" r="3.52358" transform="rotate(-180 204.56 637.92)" fill="#FFC642"/>
<circle cx="152.882" cy="637.92" r="3.52358" transform="rotate(-180 152.882 637.92)" fill="#FFC642"/>
<circle cx="101.203" cy="637.92" r="3.52358" transform="rotate(-180 101.203 637.92)" fill="#FFC642"/>
<circle cx="49.5233" cy="637.92" r="3.52358" transform="rotate(-180 49.5233 637.92)" fill="#FFC642"/>
<circle cx="256.24" cy="586.24" r="3.52358" transform="rotate(-180 256.24 586.24)" fill="#FFC642"/>
<circle cx="204.56" cy="586.24" r="3.52358" transform="rotate(-180 204.56 586.24)" fill="#FFC642"/>
<circle cx="152.882" cy="586.24" r="3.52358" transform="rotate(-180 152.882 586.24)" fill="#FFC642"/>
<circle cx="101.203" cy="586.24" r="3.52358" transform="rotate(-180 101.203 586.24)" fill="#FFC642"/>
<circle cx="49.5233" cy="586.24" r="3.52358" transform="rotate(-180 49.5233 586.24)" fill="#FFC642"/>
<circle cx="256.24" cy="534.562" r="3.52358" transform="rotate(-180 256.24 534.562)" fill="#FFC642"/>
<circle cx="204.56" cy="534.562" r="3.52358" transform="rotate(-180 204.56 534.562)" fill="#FFC642"/>
<circle cx="152.882" cy="534.562" r="3.52358" transform="rotate(-180 152.882 534.562)" fill="#FFC642"/>
<circle cx="101.203" cy="534.562" r="3.52358" transform="rotate(-180 101.203 534.562)" fill="#FFC642"/>
<circle cx="49.5233" cy="534.562" r="3.52358" transform="rotate(-180 49.5233 534.562)" fill="#FFC642"/>
<circle cx="256.24" cy="482.883" r="3.52358" transform="rotate(-180 256.24 482.883)" fill="#FFC642"/>
<circle cx="204.56" cy="482.883" r="3.52358" transform="rotate(-180 204.56 482.883)" fill="#FFC642"/>
<circle cx="152.882" cy="482.883" r="3.52358" transform="rotate(-180 152.882 482.883)" fill="#FFC642"/>
<circle cx="101.203" cy="482.883" r="3.52358" transform="rotate(-180 101.203 482.883)" fill="#FFC642"/>
<circle cx="49.5233" cy="482.883" r="3.52358" transform="rotate(-180 49.5233 482.883)" fill="#FFC642"/>
<circle cx="256.24" cy="431.203" r="3.52358" transform="rotate(-180 256.24 431.203)" fill="#FFC642"/>
<circle cx="204.56" cy="431.203" r="3.52358" transform="rotate(-180 204.56 431.203)" fill="#FFC642"/>
<circle cx="152.882" cy="431.203" r="3.52358" transform="rotate(-180 152.882 431.203)" fill="#FFC642"/>
<circle cx="101.203" cy="431.203" r="3.52358" transform="rotate(-180 101.203 431.203)" fill="#FFC642"/>
<circle cx="49.5233" cy="431.203" r="3.52358" transform="rotate(-180 49.5233 431.203)" fill="#FFC642"/>
<circle cx="256.24" cy="379.523" r="3.52358" transform="rotate(-180 256.24 379.523)" fill="#FFC642"/>
<circle cx="204.56" cy="379.523" r="3.52358" transform="rotate(-180 204.56 379.523)" fill="#FFC642"/>
<circle cx="152.882" cy="379.523" r="3.52358" transform="rotate(-180 152.882 379.523)" fill="#FFC642"/>
<circle cx="101.203" cy="379.523" r="3.52358" transform="rotate(-180 101.203 379.523)" fill="#FFC642"/>
<circle cx="49.5233" cy="379.523" r="3.52358" transform="rotate(-180 49.5233 379.523)" fill="#FFC642"/>
<circle cx="1084.52" cy="962.24" r="3.52358" transform="rotate(-90 1084.52 962.24)" fill="#FFC642"/>
<circle cx="1084.52" cy="910.56" r="3.52358" transform="rotate(-90 1084.52 910.56)" fill="#FFC642"/>
<circle cx="1084.52" cy="858.883" r="3.52358" transform="rotate(-90 1084.52 858.883)" fill="#FFC642"/>
<circle cx="1084.52" cy="807.203" r="3.52358" transform="rotate(-90 1084.52 807.203)" fill="#FFC642"/>
<circle cx="1084.52" cy="755.523" r="3.52358" transform="rotate(-90 1084.52 755.523)" fill="#FFC642"/>
<circle cx="1136.2" cy="962.24" r="3.52358" transform="rotate(-90 1136.2 962.24)" fill="#FFC642"/>
<circle cx="1136.2" cy="910.56" r="3.52358" transform="rotate(-90 1136.2 910.56)" fill="#FFC642"/>
<circle cx="1136.2" cy="858.883" r="3.52358" transform="rotate(-90 1136.2 858.883)" fill="#FFC642"/>
<circle cx="1136.2" cy="807.203" r="3.52358" transform="rotate(-90 1136.2 807.203)" fill="#FFC642"/>
<circle cx="1136.2" cy="755.523" r="3.52358" transform="rotate(-90 1136.2 755.523)" fill="#FFC642"/>
<circle cx="1187.88" cy="962.24" r="3.52358" transform="rotate(-90 1187.88 962.24)" fill="#FFC642"/>
<circle cx="1187.88" cy="910.56" r="3.52358" transform="rotate(-90 1187.88 910.56)" fill="#FFC642"/>
<circle cx="1187.88" cy="858.883" r="3.52358" transform="rotate(-90 1187.88 858.883)" fill="#FFC642"/>
<circle cx="1187.88" cy="807.203" r="3.52358" transform="rotate(-90 1187.88 807.203)" fill="#FFC642"/>
<circle cx="1187.88" cy="755.523" r="3.52358" transform="rotate(-90 1187.88 755.523)" fill="#FFC642"/>
<circle cx="1239.56" cy="962.24" r="3.52358" transform="rotate(-90 1239.56 962.24)" fill="#FFC642"/>
<circle cx="1239.56" cy="910.56" r="3.52358" transform="rotate(-90 1239.56 910.56)" fill="#FFC642"/>
<circle cx="1239.56" cy="858.883" r="3.52358" transform="rotate(-90 1239.56 858.883)" fill="#FFC642"/>
<circle cx="1239.56" cy="807.203" r="3.52358" transform="rotate(-90 1239.56 807.203)" fill="#FFC642"/>
<circle cx="1239.56" cy="755.523" r="3.52358" transform="rotate(-90 1239.56 755.523)" fill="#FFC642"/>
<circle cx="1291.24" cy="962.24" r="3.52358" transform="rotate(-90 1291.24 962.24)" fill="#FFC642"/>
<circle cx="1291.24" cy="910.56" r="3.52358" transform="rotate(-90 1291.24 910.56)" fill="#FFC642"/>
<circle cx="1291.24" cy="858.883" r="3.52358" transform="rotate(-90 1291.24 858.883)" fill="#FFC642"/>
<circle cx="1291.24" cy="807.203" r="3.52358" transform="rotate(-90 1291.24 807.203)" fill="#FFC642"/>
<circle cx="1291.24" cy="755.523" r="3.52358" transform="rotate(-90 1291.24 755.523)" fill="#FFC642"/>
<circle cx="1342.92" cy="962.24" r="3.52358" transform="rotate(-90 1342.92 962.24)" fill="#FFC642"/>
<circle cx="1342.92" cy="910.56" r="3.52358" transform="rotate(-90 1342.92 910.56)" fill="#FFC642"/>
<circle cx="1342.92" cy="858.883" r="3.52358" transform="rotate(-90 1342.92 858.883)" fill="#FFC642"/>
<circle cx="1342.92" cy="807.203" r="3.52358" transform="rotate(-90 1342.92 807.203)" fill="#FFC642"/>
<circle cx="1342.92" cy="755.523" r="3.52358" transform="rotate(-90 1342.92 755.523)" fill="#FFC642"/>
<circle cx="1394.6" cy="962.24" r="3.52358" transform="rotate(-90 1394.6 962.24)" fill="#FFC642"/>
<circle cx="1394.6" cy="910.56" r="3.52358" transform="rotate(-90 1394.6 910.56)" fill="#FFC642"/>
<circle cx="1394.6" cy="858.883" r="3.52358" transform="rotate(-90 1394.6 858.883)" fill="#FFC642"/>
<circle cx="1394.6" cy="807.203" r="3.52358" transform="rotate(-90 1394.6 807.203)" fill="#FFC642"/>
<circle cx="1394.6" cy="755.523" r="3.52358" transform="rotate(-90 1394.6 755.523)" fill="#FFC642"/>
<circle cx="1446.28" cy="962.24" r="3.52358" transform="rotate(-90 1446.28 962.24)" fill="#FFC642"/>
<circle cx="1446.28" cy="910.56" r="3.52358" transform="rotate(-90 1446.28 910.56)" fill="#FFC642"/>
<circle cx="1446.28" cy="858.883" r="3.52358" transform="rotate(-90 1446.28 858.883)" fill="#FFC642"/>
<circle cx="1446.28" cy="807.203" r="3.52358" transform="rotate(-90 1446.28 807.203)" fill="#FFC642"/>
<circle cx="1446.28" cy="755.523" r="3.52358" transform="rotate(-90 1446.28 755.523)" fill="#FFC642"/>
<circle cx="1497.96" cy="962.24" r="3.52358" transform="rotate(-90 1497.96 962.24)" fill="#FFC642"/>
<circle cx="1497.96" cy="910.56" r="3.52358" transform="rotate(-90 1497.96 910.56)" fill="#FFC642"/>
<circle cx="1497.96" cy="858.883" r="3.52358" transform="rotate(-90 1497.96 858.883)" fill="#FFC642"/>
<circle cx="1497.96" cy="807.203" r="3.52358" transform="rotate(-90 1497.96 807.203)" fill="#FFC642"/>
<circle cx="1497.96" cy="755.523" r="3.52358" transform="rotate(-90 1497.96 755.523)" fill="#FFC642"/>
<circle cx="1064.5" cy="546.5" r="30" stroke="#521212" stroke-width="5"/>
<circle cx="233.5" cy="372.5" r="198" stroke="#521212" stroke-width="5"/>
<circle cx="1368" cy="667" r="128.5" stroke="#521212" stroke-width="5"/>
<circle cx="45.5" cy="159.5" r="30" stroke="#521212" stroke-width="5"/>
</svg>
