<svg width="160" height="160" viewBox="0 0 160 160" fill="none" xmlns="http://www.w3.org/2000/svg">
<circle cx="80" cy="80" r="75" fill="#DDA72A" stroke="#0B0B0B" stroke-width="10"/>
<path fill-rule="evenodd" clip-rule="evenodd" d="M76.5121 87.33C78.3423 87.33 79.9961 88.4336 80.6953 90.1238C81.3975 91.8172 81.0084 93.7658 79.7134 95.0609C78.4183 96.356 76.4696 96.7421 74.7794 96.0429C73.086 95.3406 71.9825 93.6899 71.9825 91.8567C71.9825 90.6558 72.4597 89.5037 73.3079 88.6555C74.1592 87.8073 75.3113 87.33 76.5121 87.33ZM78.5246 89.8442C77.7099 89.0294 76.4848 88.7862 75.4207 89.2271C74.3567 89.6679 73.6636 90.7045 73.6636 91.8567C73.6636 93.0089 74.3567 94.0486 75.4207 94.4894C76.4848 94.9302 77.7099 94.687 78.5246 93.8723C79.6343 92.7596 79.6343 90.9569 78.5246 89.8442ZM74.7002 83.156C74.4783 83.156 74.2624 83.2442 74.1074 83.4022C73.9493 83.5603 73.8611 83.7731 73.8611 83.9981V85.2293L73.7061 85.2931L72.9036 84.4723C72.7516 84.2929 72.5296 84.1835 72.2955 84.1744C72.0615 84.1653 71.8335 84.2534 71.6663 84.4206L69.1065 86.9834C68.7842 87.3087 68.7782 87.8316 69.0974 88.1599L69.9547 89.0355L69.8848 89.2057H68.6505C68.1884 89.2057 67.8115 89.5827 67.8115 90.0448V93.6685C67.8115 94.1336 68.1854 94.5075 68.6505 94.5075H69.8817C69.903 94.5622 69.9273 94.6139 69.9486 94.6686L69.0761 95.5411H69.0792C68.9211 95.6992 68.8329 95.912 68.8329 96.134C68.8329 96.3589 68.9211 96.5717 69.0792 96.7298L71.6389 99.2896C71.9673 99.6179 72.4993 99.6179 72.8276 99.2896L73.7001 98.4171L73.8551 98.484V99.7182C73.8551 100.18 74.2321 100.557 74.6972 100.557H78.3179C78.783 100.557 79.16 100.18 79.16 99.7182V98.487L79.315 98.4201L80.1875 99.2926V99.2896C80.5158 99.6179 81.0479 99.6179 81.3761 99.2896L83.945 96.7328C84.1001 96.5748 84.1913 96.362 84.1913 96.14C84.1913 95.9151 84.1001 95.7023 83.945 95.5442L83.0725 94.6717L83.1394 94.5106H84.3706V94.5136C84.5925 94.5136 84.8084 94.4254 84.9664 94.2673C85.1245 94.1093 85.2127 93.8934 85.2127 93.6715V90.0447C85.2127 89.5826 84.8357 89.2056 84.3706 89.2056H83.1394L83.0725 89.0445L83.945 88.172C84.1001 88.0139 84.1913 87.8011 84.1913 87.5792C84.1913 87.3542 84.1001 87.1414 83.945 86.9833L81.3853 84.4236H81.3822C81.2241 84.2655 81.0113 84.1773 80.7894 84.1773C80.5644 84.1773 80.3516 84.2655 80.1936 84.4236L79.3241 85.293C79.2694 85.2687 79.2177 85.2505 79.163 85.2261V83.998C79.163 83.5328 78.786 83.1559 78.3239 83.1559L74.7002 83.156ZM77.4819 84.8372H75.5423V85.8222C75.5392 86.1961 75.296 86.5214 74.9403 86.6278L73.9219 87.0473V87.0504C73.5936 87.2267 73.1862 87.1629 72.9248 86.8923L72.256 86.2052L70.8789 87.5854L71.5386 88.2603C71.8182 88.5217 71.8851 88.9382 71.7027 89.2727C71.5355 89.5858 71.3987 89.9111 71.2954 90.2485C71.2011 90.6255 70.8637 90.89 70.4776 90.89H69.4926V92.8295H70.4776V92.8326C70.8485 92.8326 71.1768 93.0758 71.2801 93.4315C71.3865 93.7628 71.5203 94.0881 71.6814 94.3982C71.8881 94.7296 71.8364 95.1613 71.5598 95.4379L70.8606 96.1341L72.2347 97.5112L72.9339 96.815C73.1953 96.5536 73.5997 96.4958 73.9249 96.6691C74.235 96.8363 74.5633 96.9762 74.9008 97.0795C75.2777 97.1707 75.5422 97.5082 75.5422 97.8943V98.8792H77.4818L77.4848 97.8912C77.4848 97.5204 77.7281 97.192 78.0837 97.0856C78.4181 96.9822 78.7434 96.8485 79.0566 96.6904C79.3879 96.4837 79.8166 96.5323 80.0932 96.8089L80.7924 97.5082L82.1635 96.1341L81.4673 95.4349L81.4703 95.4379C81.2089 95.1764 81.1481 94.7721 81.3244 94.4469C81.4916 94.1368 81.6284 93.8084 81.7348 93.471C81.826 93.094 82.1635 92.8295 82.5496 92.8295H83.5345V90.8869H82.5496C82.1787 90.8869 81.8504 90.6437 81.747 90.288C81.6467 89.9506 81.513 89.6253 81.3488 89.3152C81.1421 88.9838 81.1937 88.5552 81.4704 88.2786L82.1666 87.5794L80.7864 86.2083L80.0872 86.9075C79.8227 87.169 79.4214 87.2298 79.0962 87.0534C78.783 86.8862 78.4577 86.7494 78.1173 86.6461C77.7433 86.5518 77.4758 86.2144 77.4758 85.8283V84.8372L77.4819 84.8372ZM71.3652 49.0676L74.764 45.003L67.9634 45L71.3622 49.0646L71.3652 49.0676ZM75.3964 46.8636H79.996V52.4239H74.9343C74.4692 52.4239 74.0953 52.8009 74.0953 53.2629C74.1378 53.5183 74.1956 53.7706 74.2686 54.0199C74.4236 54.9197 74.153 55.8409 73.5359 56.5127C72.9188 57.1846 72.025 57.5342 71.116 57.4582C70.207 57.3821 69.3831 56.8866 68.8876 56.1205C68.3951 55.3544 68.2826 54.3999 68.5866 53.5395C68.6748 53.2811 68.6353 52.9984 68.4741 52.7764C68.3161 52.5545 68.0607 52.4238 67.7901 52.4268H62.7314V46.8635H67.3311L70.7178 50.9098C70.8607 51.0801 71.0643 51.1865 71.2863 51.2078C71.5082 51.226 71.7271 51.1591 71.8973 51.0162L75.3904 46.8605L75.3964 46.8636ZM81.6771 48.9582V51.445H89.1374C90.8429 51.5332 92.1593 52.9741 92.0955 54.6796V76.316C92.7095 76.6169 93.2628 77.0334 93.725 77.5411V50.5122C93.7888 49.737 93.2234 49.0469 92.4482 48.9557L81.6771 48.9582ZM81.6771 53.1262V53.263H81.6741C81.6741 53.7281 81.2971 54.1051 80.8351 54.1051H75.9709C76.0865 55.3971 75.6548 56.68 74.7762 57.6407C73.9006 58.5983 72.6633 59.1455 71.3652 59.1455C70.064 59.1455 68.8268 58.5983 67.9512 57.6407C67.0757 56.68 66.6409 55.3971 66.7596 54.1051H61.8954C61.4303 54.1051 61.0534 53.7281 61.0534 53.263V53.1262H53.59C52.8148 53.2174 52.2523 53.9044 52.3162 54.6827V99.9618C52.2524 100.74 52.8148 101.43 53.59 101.518H89.1378C89.913 101.43 90.4754 100.74 90.4115 99.9618V96.5295C89.7123 94.3042 89.2837 92.0059 89.1347 89.6802C89.1317 89.6437 89.1317 89.6072 89.1347 89.5738C89.3019 87.5461 88.5723 85.5487 87.1344 84.1108C86.9611 83.9132 86.7999 83.7308 86.6479 83.5393C81.6167 83.2292 79.0812 77.6081 81.9115 75.8084C82.8631 75.2034 84.4196 75.1152 86.651 75.9817L86.654 75.9847C87.8822 75.6777 89.156 75.6077 90.4115 75.781V54.6801C90.4754 53.9018 89.913 53.2148 89.1378 53.1236L81.6771 53.1262ZM61.0533 51.445L61.0503 48.9582H50.2792C49.5039 49.0494 48.9384 49.7365 49.0054 50.5147V104.127C48.9385 104.905 49.504 105.592 50.2792 105.683H92.4483C93.2235 105.592 93.786 104.905 93.7221 104.127V104.118C93.0989 103.029 92.5212 101.895 92.0045 100.743C91.7339 102.126 90.5452 103.142 89.1377 103.193H53.5899C51.8845 103.108 50.5681 101.664 50.6319 99.9587V54.6797C50.5681 52.9742 51.8845 51.5332 53.5899 51.4451L61.0533 51.445ZM92.035 96.1007C91.3662 93.997 90.9558 91.8172 90.8098 89.6132C91.0166 87.1629 90.135 84.7461 88.396 83.0041C88.1771 82.7669 87.9734 82.5146 87.7849 82.2532C87.6208 82.0069 87.3381 81.8641 87.0401 81.8792C85.286 81.8884 83.6626 80.946 82.7992 79.4198C82.5439 78.982 82.4101 78.4835 82.4223 77.9757C82.5165 76.6077 84.4287 76.8814 86.274 77.6413C86.4382 77.7082 86.6176 77.7234 86.7878 77.6809C89.5908 76.9968 92.0715 77.2522 93.3239 79.9731H93.327C93.5185 80.2467 93.7374 80.5051 93.9806 80.7392C95.0902 81.8853 95.9475 83.2503 96.4978 84.7459C97.0602 86.1414 97.7168 87.4941 98.4677 88.7953C98.6988 89.1966 99.2125 89.3364 99.6138 89.1054C99.8084 88.9959 99.9483 88.8135 100.006 88.5977C100.067 88.3819 100.036 88.1539 99.927 87.9593C99.2095 86.722 98.5832 85.433 98.0482 84.1075C97.4645 82.5145 96.5647 81.0553 95.4034 79.821V75.6591C96.0904 77.1184 96.7045 78.6111 97.2396 80.1311C97.4037 80.5901 97.4858 80.9368 97.7564 81.1374C99.7081 82.5054 101.429 84.1744 102.855 86.0836C103.791 87.3178 104.277 88.8318 104.232 90.3792C104.22 90.5677 104.271 90.7592 104.384 90.9143C105.518 92.5042 106.484 94.2067 107.263 95.9972C107.931 97.5598 108.257 99.2471 108.214 100.943L97.6564 107.039C95.7503 104.509 94.1847 101.74 92.999 98.8032C92.6554 97.9459 92.3423 97.0856 92.0718 96.2192C92.0626 96.1797 92.0502 96.1402 92.035 96.1007ZM94.8653 105.984C94.3485 106.826 93.4395 107.346 92.4514 107.364H89.4934C90.4936 108.34 91.6336 109.161 92.8771 109.796L96.1938 107.881C95.7347 107.27 95.2939 106.637 94.8653 105.981V105.984ZM54.9157 88.9804H62.6101C63.0753 88.9804 63.4492 89.3574 63.4492 89.8194V90.5491L64.9752 89.3695V89.3726C65.3431 89.1081 65.8538 89.181 66.1305 89.5398C66.4071 89.8985 66.3494 90.4123 65.9998 90.6981L63.4492 92.6711V97.3315C63.4492 97.7967 63.0753 98.1706 62.6101 98.1706H54.9157C54.4506 98.1706 54.0737 97.7966 54.0737 97.3315V89.8196C54.0737 89.5976 54.1618 89.3848 54.3199 89.2267C54.478 89.0687 54.6907 88.9804 54.9157 88.9804ZM61.7711 90.6616V91.8502L59.4637 93.6348L57.8767 91.5188C57.5971 91.148 57.0711 91.0689 56.7003 91.3486C56.3294 91.6253 56.2503 92.1511 56.53 92.5221L58.6246 95.325C58.9013 95.6959 59.4272 95.7719 59.7981 95.4953L61.768 93.9692V96.4894L55.7547 96.4925V90.6616L61.7711 90.6616ZM69.4473 81.9576C68.9943 81.9424 68.6325 81.5715 68.6325 81.1155C68.6325 80.6595 68.9943 80.2886 69.4473 80.2734H79.5802C80.0362 80.2886 80.398 80.6595 80.398 81.1155C80.398 81.5715 80.0362 81.9424 79.5802 81.9576H69.4473ZM69.4473 76.9901C68.9821 76.9901 68.6082 76.6131 68.6082 76.148C68.6082 75.6859 68.9822 75.309 69.4473 75.309H77.2392C77.7043 75.309 78.0782 75.6859 78.0782 76.148C78.0782 76.6131 77.7043 76.9901 77.2392 76.9901H69.4473ZM54.9156 74.0351H62.61C63.0752 74.0351 63.4491 74.4121 63.4491 74.8772V75.6098L64.9752 74.4303C65.343 74.1537 65.8628 74.2236 66.1426 74.5884C66.4222 74.9502 66.3584 75.47 65.9997 75.7558L63.4491 77.7257V82.3862C63.4491 82.8513 63.0752 83.2282 62.61 83.2282H54.9156C54.4505 83.2282 54.0736 82.8513 54.0736 82.3862V74.8772C54.0736 74.4121 54.4505 74.0351 54.9156 74.0351ZM61.771 75.7163V76.9049L59.4636 78.6925L57.8767 76.5766C57.597 76.2027 57.071 76.1267 56.7002 76.4033C56.3293 76.683 56.2503 77.209 56.5299 77.5798L58.6245 80.3828C58.7553 80.5591 58.9559 80.6777 59.1748 80.7111C59.3967 80.7415 59.6186 80.6868 59.798 80.553L61.7679 79.0269V81.5472L55.7546 81.5502V75.7193L61.771 75.7163ZM69.4472 67.0123C68.9821 67.0123 68.6082 66.6353 68.6082 66.1702C68.6082 65.7081 68.9821 65.3312 69.4472 65.3312H83.0488C83.514 65.3312 83.8909 65.7081 83.8909 66.1702C83.8909 66.6353 83.5139 67.0123 83.0488 67.0123H69.4472ZM69.4472 62.0448C68.9821 62.0448 68.6082 61.6678 68.6082 61.2058C68.6082 60.7406 68.9821 60.3637 69.4472 60.3637H87.8157C88.2777 60.3637 88.6547 60.7407 88.6547 61.2058C88.6547 61.6679 88.2777 62.0448 87.8157 62.0448H69.4472ZM54.9156 59.0929H62.61C63.0721 59.0929 63.449 59.4698 63.449 59.9319V60.6646L64.9751 59.485C65.3429 59.2206 65.8537 59.2935 66.1303 59.6522C66.407 60.011 66.3492 60.5247 65.9996 60.8105L63.449 62.7804V67.4439C63.449 67.6659 63.3609 67.8787 63.2028 68.0367C63.0447 68.1948 62.8319 68.283 62.61 68.283H54.9156C54.6906 68.283 54.4778 68.1948 54.3197 68.0367C54.1616 67.8787 54.0735 67.6659 54.0735 67.4439V59.9319C54.0735 59.4699 54.4505 59.0929 54.9156 59.0929ZM61.7709 60.7741V61.9627L59.4635 63.7472L57.8796 61.6283C57.5999 61.2574 57.074 61.1783 56.7031 61.458C56.3322 61.7347 56.2532 62.2606 56.5329 62.6315L58.6275 65.4345C58.7582 65.6138 58.9589 65.7324 59.1777 65.7628C59.3997 65.7962 59.6246 65.7385 59.801 65.6047L61.7709 64.0786V66.5989L55.7546 66.6019V60.7771L61.7709 60.7741ZM96.3824 115C102.277 114.517 107.646 111.416 111.014 106.554L108.722 102.584L94.0964 111.03L96.3824 115Z" fill="#0B0B0B"/>
</svg>
