<svg width="160" height="160" viewBox="0 0 160 160" fill="none" xmlns="http://www.w3.org/2000/svg">
<circle cx="80" cy="80" r="75" fill="#DDA72A" stroke="#0B0B0B" stroke-width="10"/>
<path d="M92.2215 50.8333H67.7798C57.1632 50.8333 50.834 57.1624 50.834 67.7791V92.1916C50.834 102.837 57.1632 109.167 67.7798 109.167H92.1923C102.809 109.167 109.138 102.837 109.138 92.2208V67.7791C109.167 57.1624 102.838 50.8333 92.2215 50.8333ZM94.234 78.6291C94.234 79.7666 93.3298 80.6707 92.1923 80.6707C91.0548 80.6707 90.1507 79.7666 90.1507 78.6291V78.1041L82.2173 86.0374C81.7798 86.4749 81.1965 86.6791 80.584 86.6208C79.9715 86.5624 79.4173 86.2416 79.0965 85.7166L76.1215 81.2832L69.1798 88.2249C68.7715 88.6332 68.2757 88.8083 67.7507 88.8083C67.2257 88.8083 66.7007 88.6041 66.3215 88.2249C65.534 87.4374 65.534 86.1541 66.3215 85.3374L75.0132 76.6458C75.4507 76.2083 76.034 76.0041 76.6465 76.0624C77.259 76.1207 77.8132 76.4416 78.134 76.9666L81.109 81.3999L87.2632 75.2458H86.7382C85.6007 75.2458 84.6965 74.3416 84.6965 73.2041C84.6965 72.0666 85.6007 71.1624 86.7382 71.1624H92.1632C92.4257 71.1624 92.6882 71.2208 92.9507 71.3083C93.4465 71.5124 93.8548 71.9207 94.059 72.4166C94.1757 72.6791 94.2048 72.9416 94.2048 73.2041V78.6291H94.234Z" fill="#0B0B0B"/>
</svg>
