<svg width="160" height="160" viewBox="0 0 160 160" fill="none" xmlns="http://www.w3.org/2000/svg">
<circle cx="80" cy="80" r="75" fill="#DDA72A" stroke="#0B0B0B" stroke-width="10"/>
<path fill-rule="evenodd" clip-rule="evenodd" d="M87.7042 79.9996C87.7042 77.8699 86.8417 75.9467 85.4488 74.551C84.056 73.1582 82.13 72.2957 80.0002 72.2957C77.8732 72.2957 75.9472 73.1582 74.5516 74.551C73.1588 75.9439 72.2963 77.8699 72.2963 79.9996C72.2963 82.1266 73.1588 84.0526 74.5516 85.4482C75.9445 86.8411 77.8732 87.7036 80.0002 87.7036C82.13 87.7036 84.0532 86.8411 85.4488 85.4482C86.8417 84.0554 87.7042 82.1266 87.7042 79.9996ZM78.359 106.213V113.359C78.359 114.263 79.0931 115 80.0003 115C80.9075 115 81.6416 114.266 81.6416 113.359V106.213C81.6416 105.306 80.9075 104.572 80.0003 104.572C79.0931 104.572 78.359 105.306 78.359 106.213ZM53.787 78.359H46.6413C45.7369 78.359 45 79.0931 45 80.0003C45 80.9075 45.7341 81.6416 46.6413 81.6416H53.787C54.6942 81.6416 55.4283 80.9075 55.4283 80.0003C55.4283 79.0931 54.6942 78.359 53.787 78.359ZM81.641 53.787V46.6413C81.641 45.7369 80.9069 45 79.9997 45C79.0925 45 78.3584 45.7341 78.3584 46.6413V53.787C78.3584 54.6942 79.0925 55.4283 79.9997 55.4283C80.9069 55.4283 81.641 54.6942 81.641 53.787ZM113.359 78.359H106.213C105.306 78.359 104.572 79.0931 104.572 80.0003C104.572 80.9075 105.306 81.6416 106.213 81.6416H113.359C114.263 81.6416 115 80.9075 115 80.0003C115 79.0931 114.266 78.359 113.359 78.359ZM101.934 80.0003C101.934 73.9431 99.4806 68.4614 95.5086 64.4891C91.5393 60.5199 86.0569 58.0635 79.9974 58.0635C73.9402 58.0635 68.4585 60.5171 64.4862 64.4891C60.5169 68.4583 58.0606 73.9407 58.0606 80.0003C58.0606 86.0574 60.5141 91.5392 64.4862 95.5115C68.4554 99.4807 73.9399 101.937 79.9974 101.937C86.0545 101.937 91.5363 99.4835 95.5086 95.5115C99.4778 91.5423 101.934 86.0577 101.934 80.0003ZM90.984 80.0003C90.984 83.0344 89.753 85.781 87.7657 87.7655C85.7755 89.7529 83.0289 90.9839 80.0004 90.9839C76.9663 90.9839 74.2197 89.7529 72.2352 87.7655C70.2478 85.7753 69.0168 83.0315 69.0168 80.0003C69.0168 76.9661 70.2478 74.2195 72.2352 72.235C74.2254 70.2477 76.9692 69.0167 80.0004 69.0167C83.0346 69.0167 85.7812 70.2477 87.7657 72.235C89.753 74.2253 90.984 76.9719 90.984 80.0003Z" fill="#0B0B0B"/>
</svg>
