<svg width="62" height="60" viewBox="0 0 62 60" fill="none" xmlns="http://www.w3.org/2000/svg">
<path d="M50.976 58C50.834 55.131 50.067 52.429 48.837 50H38.327C38.724 52.555 38.949 55.287 38.993 58H36.984C36.936 55.097 36.688 52.4 36.294 50H25.707C25.313 52.4 25.065 55.097 25.017 58H23.008C23.052 55.287 23.277 52.555 23.674 50H13.164C11.933 52.429 11.167 55.131 11.025 58H0V60H62V58H50.976Z" fill="#DCA629"/>
<path d="M54 17H52V22H54V17Z" fill="#DCA629"/>
<path d="M47.0879 44C47.6789 44.633 48.2329 45.3 48.7469 46H54.0009V40H52.0009V44H47.0879Z" fill="#DCA629"/>
<path d="M10 17H8V22H10V17Z" fill="#DCA629"/>
<path d="M8 40V46H13.255C13.768 45.3 14.323 44.633 14.914 44H10V40H8Z" fill="#DCA629"/>
<path d="M21 14H22V10H21C20.448 10 20 10.448 20 11V13C20 13.552 20.448 14 21 14Z" fill="#DCA629"/>
<path d="M21 32.858V39.414C21.962 38.921 22.963 38.497 24 38.148V32.61L23.92 32.476C23.333 32.804 22.678 33 22 33C21.653 33 21.322 32.942 21 32.858Z" fill="#DCA629"/>
<path d="M26.9996 6.00001V3.81201C25.7766 4.52201 24.8296 5.65001 24.3496 7.00001H27.1416C27.0576 6.67801 26.9996 6.34701 26.9996 6.00001Z" fill="#DCA629"/>
<path d="M22 31C22.319 31 22.621 30.916 22.898 30.773L22.478 30.072C22.165 29.554 22 28.957 22 28.35C22 27.887 22.095 27.446 22.265 27.044C22.176 27.031 22.091 27 22 27C20.897 27 20 27.897 20 29C20 30.103 20.897 31 22 31Z" fill="#DCA629"/>
<path d="M35.92 48C34.75 42.498 32.808 39 31 39C29.192 39 27.25 42.498 26.08 48H35.92Z" fill="#DCA629"/>
<path d="M34.9994 3.81201V6.00001C34.9994 6.34701 34.9414 6.67801 34.8574 7.00001H37.6494C37.1694 5.64901 36.2224 4.52201 34.9994 3.81201Z" fill="#DCA629"/>
<path d="M36 37.58V34.718C35.585 34.899 35.134 35 34.67 35H27.33C26.866 35 26.415 34.899 26 34.718V37.58C27.608 37.205 29.28 37 31 37C32.72 37 34.392 37.205 36 37.58Z" fill="#DCA629"/>
<path d="M38 9H33.618C32.915 9.615 32.006 10 31 10C29.994 10 29.085 9.615 28.382 9H24V15H38V9ZM27 13C26.448 13 26 12.552 26 12C26 11.448 26.448 11 27 11C27.552 11 28 11.448 28 12C28 12.552 27.552 13 27 13ZM35 13C34.448 13 34 12.552 34 12C34 11.448 34.448 11 35 11C35.552 11 36 11.448 36 12C36 12.552 35.552 13 35 13Z" fill="#DCA629"/>
<path d="M37.6496 17H24.3496C25.1756 19.327 27.3926 21 29.9996 21H31.9996C34.6066 21 36.8236 19.327 37.6496 17Z" fill="#DCA629"/>
<path d="M30 23C29.661 23 29.328 22.972 29 22.931V25H33V22.931C32.672 22.972 32.339 23 32 23H30Z" fill="#DCA629"/>
<path d="M26.173 32.345C26.415 32.749 26.858 33 27.33 33H34.67C35.142 33 35.585 32.749 35.827 32.345L37.807 29.043C37.934 28.833 38 28.594 38 28.35C38 27.606 37.395 27 36.65 27H35H27H25.35C24.605 27 24 27.605 24 28.35C24 28.594 24.066 28.833 24.191 29.042L26.173 32.345Z" fill="#DCA629"/>
<path d="M31 8C32.103 8 33 7.103 33 6V3.09C32.674 3.035 32.341 3 32 3H30C29.659 3 29.326 3.035 29 3.09V6C29 7.103 29.897 8 31 8Z" fill="#DCA629"/>
<path d="M37.9717 48H47.6717C44.7507 43.588 40.1427 40.39 34.7617 39.361C36.1827 41.347 37.2587 44.429 37.9717 48Z" fill="#DCA629"/>
<path d="M24.0281 48C24.7411 44.429 25.8171 41.347 27.2381 39.361C21.8571 40.39 17.2491 43.588 14.3281 48H24.0281Z" fill="#DCA629"/>
<path d="M38 38.148C39.037 38.497 40.038 38.921 41 39.414V32.858C40.678 32.942 40.347 33 40 33C39.322 33 38.667 32.804 38.08 32.477L38 32.61V38.148Z" fill="#DCA629"/>
<path d="M41.9996 29C41.9996 27.897 41.1026 27 39.9996 27C39.9086 27 39.8236 27.031 39.7346 27.044C39.9046 27.445 39.9996 27.887 39.9996 28.35C39.9996 28.957 39.8346 29.554 39.5206 30.074L39.1016 30.773C39.3776 30.916 39.6806 31 39.9996 31C41.1026 31 41.9996 30.103 41.9996 29Z" fill="#DCA629"/>
<path d="M42 13V11C42 10.448 41.552 10 41 10H40V14H41C41.552 14 42 13.552 42 13Z" fill="#DCA629"/>
<path d="M47.506 8.666C47.681 9.451 48.364 10 49.169 10H51V12.586C51 12.924 51.468 13.118 51.707 12.879L54.586 9.998L56.829 10H56.832C57.637 10 58.319 9.452 58.494 8.666L59.959 2.073C59.986 1.952 60 1.827 60 1.703C60 0.764 59.236 0 58.297 0H47.703C46.764 0 46 0.764 46 1.703C46 1.827 46.014 1.952 46.041 2.073L47.506 8.666ZM49 2H57V4H49V2ZM49 6H57V8H49V6Z" fill="#DCA629"/>
<path d="M47.506 31.666C47.681 32.451 48.364 33 49.169 33H51V35.586C51 35.924 51.468 36.117 51.707 35.879L54.586 32.998L56.829 33H56.832C57.637 33 58.319 32.452 58.494 31.666L59.959 25.073C59.986 24.952 60 24.827 60 24.703C60 23.764 59.236 23 58.297 23H47.703C46.764 23 46 23.764 46 24.703C46 24.827 46.014 24.952 46.041 25.073L47.506 31.666ZM49 25H57V27H49V25ZM49 29H57V31H49V29Z" fill="#DCA629"/>
<path d="M3.506 8.666C3.681 9.451 4.363 10 5.168 10H5.17L7.414 9.998L10.293 12.879C10.532 13.118 11 12.924 11 12.586V10H12.831C13.636 10 14.319 9.451 14.494 8.666L15.959 2.073C15.986 1.952 16 1.827 16 1.703C16 0.764 15.236 0 14.297 0H3.703C2.764 0 2 0.764 2 1.703C2 1.827 2.014 1.952 2.041 2.073L3.506 8.666ZM5 2H13V4H5V2ZM5 6H13V8H5V6Z" fill="#DCA629"/>
<path d="M3.506 31.666C3.681 32.451 4.363 33 5.168 33H5.17L7.414 32.998L10.293 35.879C10.532 36.117 11 35.924 11 35.586V33H12.831C13.636 33 14.319 32.451 14.494 31.666L15.959 25.073C15.986 24.952 16 24.827 16 24.703C16 23.764 15.236 23 14.297 23H3.703C2.764 23 2 23.764 2 24.703C2 24.827 2.014 24.952 2.041 25.073L3.506 31.666ZM5 25H13V27H5V25ZM5 29H13V31H5V29Z" fill="#DCA629"/>
</svg>
