<svg width="60" height="60" viewBox="0 0 60 60" fill="none" xmlns="http://www.w3.org/2000/svg">
<path fill-rule="evenodd" clip-rule="evenodd" d="M20.8701 23.4783C18.7101 23.4783 16.957 25.2313 16.957 27.3913C16.957 29.5513 18.7101 31.3044 20.8701 31.3044C23.0301 31.3044 24.7831 29.5513 24.7831 27.3913C24.7831 25.2313 23.0301 23.4783 20.8701 23.4783ZM20.8701 26.087C21.5901 26.087 22.1744 26.6713 22.1744 27.3913C22.1744 28.1113 21.5901 28.6957 20.8701 28.6957C20.1501 28.6957 19.5657 28.1113 19.5657 27.3913C19.5657 26.6713 20.1501 26.087 20.8701 26.087Z" fill="white"/>
<path fill-rule="evenodd" clip-rule="evenodd" d="M19.5645 30V33.9131C19.5645 34.6331 20.1488 35.2174 20.8688 35.2174C21.5888 35.2174 22.1731 34.6331 22.1731 33.9131V30C22.1731 29.28 21.5888 28.6957 20.8688 28.6957C20.1488 28.6957 19.5645 29.28 19.5645 30Z" fill="white"/>
<path fill-rule="evenodd" clip-rule="evenodd" d="M41.7391 46.9565C41.7391 43.4974 40.3643 40.1791 37.9187 37.7335C35.473 35.2878 32.1548 33.913 28.6957 33.913C23.7104 33.913 18.0287 33.913 13.0435 33.913C9.58435 33.913 6.26609 35.2878 3.82043 37.7335C1.37478 40.1791 0 43.4974 0 46.9565C0 50.4156 1.37478 53.7339 3.82043 56.1796C6.26609 58.6252 9.58435 60 13.0435 60C18.0287 60 23.7104 60 28.6957 60C32.1548 60 35.473 58.6252 37.9187 56.1796C40.3643 53.7339 41.7391 50.4156 41.7391 46.9565ZM23.4783 52.1739C23.4783 52.8652 23.203 53.5291 22.7139 54.0183C22.2248 54.5074 21.5609 54.7826 20.8696 54.7826H20.867C19.4283 54.7826 18.2609 53.6152 18.2609 52.1765C18.2609 51.4565 18.2609 50.8696 18.2609 50.8696H23.4783V52.1739ZM27.3913 43.0435H14.3478C14.3478 41.6022 13.1804 40.4348 11.7391 40.4348C10.2978 40.4348 9.13043 41.6022 9.13043 43.0435C9.13043 43.8835 9.13043 44.8122 9.13043 45.6522C9.13043 47.0935 10.2978 48.2609 11.7391 48.2609C13.1804 48.2609 14.3478 47.0935 14.3478 45.6522H27.3913C27.3913 47.0935 28.5587 48.2609 30 48.2609C31.4413 48.2609 32.6087 47.0935 32.6087 45.6522C32.6087 44.8122 32.6087 43.8835 32.6087 43.0435C32.6087 41.6022 31.4413 40.4348 30 40.4348C28.5587 40.4348 27.3913 41.6022 27.3913 43.0435Z" fill="white"/>
<path fill-rule="evenodd" clip-rule="evenodd" d="M6.52174 19.5652H2.6087C1.91739 19.5652 1.25348 19.29 0.764348 18.8009C0.275218 18.3117 0 17.6478 0 16.9565C0 13.2117 0 6.35348 0 2.6087C0 1.91739 0.275218 1.25348 0.764348 0.764348C1.25348 0.275218 1.91739 0 2.6087 0C12.4839 0 47.5161 0 57.3913 0C58.0826 0 58.7465 0.275218 59.2357 0.764348C59.7248 1.25348 60 1.91739 60 2.6087C60 6.35348 60 13.2117 60 16.9565C60 17.6478 59.7248 18.3117 59.2357 18.8009C58.7465 19.29 58.0826 19.5652 57.3913 19.5652H16.9565L11.7391 24.7826L6.52174 19.5652ZM41.7391 5.21739V14.3478C41.7391 15.0678 42.3235 15.6522 43.0435 15.6522C43.7635 15.6522 44.3478 15.0678 44.3478 14.3478V5.21739C44.3478 4.49739 43.7635 3.91304 43.0435 3.91304C42.3235 3.91304 41.7391 4.49739 41.7391 5.21739ZM15.6522 5.21739V14.3478C15.6522 15.0678 16.2365 15.6522 16.9565 15.6522C17.6765 15.6522 18.2609 15.0678 18.2609 14.3478V5.21739C18.2609 4.49739 17.6765 3.91304 16.9565 3.91304C16.2365 3.91304 15.6522 4.49739 15.6522 5.21739ZM46.9565 7.82609V11.7391C46.9565 12.4591 47.5409 13.0435 48.2609 13.0435C48.9809 13.0435 49.5652 12.4591 49.5652 11.7391V7.82609C49.5652 7.10609 48.9809 6.52174 48.2609 6.52174C47.5409 6.52174 46.9565 7.10609 46.9565 7.82609ZM10.4348 7.82609V11.7391C10.4348 12.4591 11.0191 13.0435 11.7391 13.0435C12.4591 13.0435 13.0435 12.4591 13.0435 11.7391V7.82609C13.0435 7.10609 12.4591 6.52174 11.7391 6.52174C11.0191 6.52174 10.4348 7.10609 10.4348 7.82609ZM20.8696 7.82609V11.7391C20.8696 12.4591 21.4539 13.0435 22.1739 13.0435C22.8939 13.0435 23.4783 12.4591 23.4783 11.7391V7.82609C23.4783 7.10609 22.8939 6.52174 22.1739 6.52174C21.4539 6.52174 20.8696 7.10609 20.8696 7.82609ZM36.5217 7.82609V11.7391C36.5217 12.4591 37.1061 13.0435 37.8261 13.0435C38.5461 13.0435 39.1304 12.4591 39.1304 11.7391V7.82609C39.1304 7.10609 38.5461 6.52174 37.8261 6.52174C37.1061 6.52174 36.5217 7.10609 36.5217 7.82609ZM5.21739 9.13043V10.4348C5.21739 11.1548 5.80174 11.7391 6.52174 11.7391C7.24174 11.7391 7.82609 11.1548 7.82609 10.4348V9.13043C7.82609 8.41043 7.24174 7.82609 6.52174 7.82609C5.80174 7.82609 5.21739 8.41043 5.21739 9.13043ZM52.1739 9.13043V10.4348C52.1739 11.1548 52.7583 11.7391 53.4783 11.7391C54.1983 11.7391 54.7826 11.1548 54.7826 10.4348V9.13043C54.7826 8.41043 54.1983 7.82609 53.4783 7.82609C52.7583 7.82609 52.1739 8.41043 52.1739 9.13043ZM31.3043 9.13043V10.4348C31.3043 11.1548 31.8887 11.7391 32.6087 11.7391C33.3287 11.7391 33.913 11.1548 33.913 10.4348V9.13043C33.913 8.41043 33.3287 7.82609 32.6087 7.82609C31.8887 7.82609 31.3043 8.41043 31.3043 9.13043ZM26.087 9.13043V10.4348C26.087 11.1548 26.6713 11.7391 27.3913 11.7391C28.1113 11.7391 28.6957 11.1548 28.6957 10.4348V9.13043C28.6957 8.41043 28.1113 7.82609 27.3913 7.82609C26.6713 7.82609 26.087 8.41043 26.087 9.13043Z" fill="white"/>
</svg>
