<svg width="160" height="160" viewBox="0 0 160 160" fill="none" xmlns="http://www.w3.org/2000/svg">
<circle cx="80" cy="80" r="75" fill="#DDA72A" stroke="#0B0B0B" stroke-width="10"/>
<path fill-rule="evenodd" clip-rule="evenodd" d="M104.822 74.1977L106.095 74.6089L110.011 75.8825V84.1207L106.095 85.3935L104.822 85.8047C104.198 88.5098 103.13 91.0931 101.663 93.4499L102.267 94.6334L104.129 98.303L101.217 101.215L98.3092 104.126L94.6428 102.254L93.457 101.653C91.0982 103.118 88.5157 104.186 85.8117 104.817L85.4021 106.084L84.1293 110H75.8911L74.6183 106.084L74.2087 104.82C71.5032 104.194 68.9199 103.125 66.5634 101.656L65.3775 102.259L61.7002 104.126L58.7888 101.212L55.8806 98.303L57.7565 94.6334L58.3604 93.4499C56.8941 91.0914 55.8234 88.5088 55.1906 85.8047L53.9225 85.3935L50 84.1207V75.8809L53.9225 74.6089L55.1843 74.1977C55.8172 71.4933 56.8879 68.9106 58.3541 66.5516L57.7502 65.3689L55.8806 61.6994L58.792 58.7865L61.7033 55.8728L65.3846 57.744L66.5704 58.3463C68.9245 56.8775 71.5055 55.8086 74.2087 55.1828L74.6183 53.9162L75.8911 50H84.1293L85.4021 53.9162L85.8117 55.1828C88.516 55.8119 91.0988 56.8806 93.457 58.3463L94.6428 57.744L98.3092 55.8728L101.221 58.7857L104.132 61.6994L102.267 65.3689L101.663 66.5516C103.13 68.9089 104.197 71.4924 104.822 74.1977ZM80.6681 67.6395C77.7634 67.6351 74.9397 68.5974 72.6422 70.3747L74.475 76.1918H86.8573L88.6988 70.3747C86.399 68.5964 83.5728 67.6342 80.6658 67.6395H80.6681ZM84.3337 81.1185C83.9025 81.1185 83.4889 81.2898 83.1839 81.5947C82.879 81.8997 82.7077 82.3133 82.7077 82.7445C82.7077 83.1758 82.879 83.5893 83.1839 83.8943C83.4889 84.1992 83.9025 84.3705 84.3337 84.3705H86.9756C87.4069 84.3705 87.8204 84.1992 88.1254 83.8943C88.4303 83.5893 88.6016 83.1758 88.6016 82.7445C88.6016 82.3133 88.4303 81.8997 88.1254 81.5947C87.8204 81.2898 87.4069 81.1185 86.9756 81.1185H84.3337ZM74.3708 81.1185C73.9395 81.1185 73.526 81.2898 73.221 81.5947C72.9161 81.8997 72.7448 82.3133 72.7448 82.7445C72.7448 83.1758 72.9161 83.5893 73.221 83.8943C73.526 84.1992 73.9395 84.3705 74.3708 84.3705H77.0127C77.4439 84.3705 77.8575 84.1992 78.1625 83.8943C78.4674 83.5893 78.6387 83.1758 78.6387 82.7445C78.6387 82.3133 78.4674 81.8997 78.1625 81.5947C77.8575 81.2898 77.4439 81.1185 77.0127 81.1185H74.3708ZM77.4333 73.3087H83.9139C84.1385 73.3087 84.3538 73.2195 84.5126 73.0607C84.6714 72.9019 84.7606 72.6866 84.7606 72.462C84.7606 72.2375 84.6714 72.0221 84.5126 71.8633C84.3538 71.7045 84.1385 71.6153 83.9139 71.6153H77.4333C77.2087 71.6153 76.9934 71.7045 76.8346 71.8633C76.6758 72.0221 76.5866 72.2375 76.5866 72.462C76.5866 72.6866 76.6758 72.9019 76.8346 73.0607C76.9934 73.2195 77.2087 73.3087 77.4333 73.3087ZM90.0812 71.6067L88.2915 77.2907C88.2362 77.462 88.1283 77.6114 87.9832 77.7179C87.8381 77.8243 87.6631 77.8823 87.4832 77.8837H73.864C73.678 77.8837 73.497 77.8228 73.3489 77.7102C73.2008 77.5976 73.0937 77.4395 73.044 77.2602L71.2652 71.6067C69.8186 73.0866 68.7421 74.8872 68.1234 76.862C67.5046 78.8368 67.3612 80.9298 67.7048 82.9706C68.0484 85.0113 68.8692 86.942 70.1004 88.6053C71.3316 90.2686 72.9384 91.6176 74.7898 92.5422C74.7715 92.3836 74.7642 92.224 74.7679 92.0644C74.7622 91.1051 75.0906 90.1738 75.6968 89.4303C75.9884 89.069 76.356 88.7765 76.7735 88.5734C77.191 88.3703 77.6481 88.2618 78.1124 88.2554H83.234C83.6969 88.2607 84.1527 88.3689 84.5686 88.5721C84.9845 88.7753 85.35 89.0684 85.6386 89.4303C86.2535 90.1705 86.5865 91.1045 86.5785 92.0667C86.5785 92.2234 86.5675 92.3871 86.5574 92.5445C88.4056 91.6165 90.0091 90.2659 91.2378 88.6023C92.4664 86.9386 93.2856 85.0088 93.6289 82.9694C93.9723 80.9299 93.83 78.8382 93.2137 76.864C92.5975 74.8898 91.5238 73.0887 90.0812 71.6067ZM83.1698 93.6943C83.6622 93.5735 84.1449 93.4164 84.6141 93.2244C84.6844 93.0878 84.7423 92.9452 84.7872 92.7983C84.8537 92.5615 84.8864 92.3166 84.8843 92.0706C84.893 91.5078 84.7061 90.9595 84.3556 90.519C84.2213 90.3486 84.0513 90.2095 83.8575 90.1117C83.6638 90.0139 83.451 89.9596 83.234 89.9527H78.1124C77.8952 89.9586 77.6821 90.0124 77.4882 90.1103C77.2943 90.2082 77.1244 90.3478 76.9908 90.519C76.6403 90.9595 76.4534 91.5078 76.4621 92.0706C76.46 92.3166 76.4927 92.5615 76.5592 92.7983C76.5993 92.9468 76.6574 93.0899 76.7323 93.2244C77.1986 93.4148 77.6778 93.5719 78.1664 93.6943C79.8191 94.0118 81.5171 94.0118 83.1698 93.6943ZM95.0313 77.0385C95.9245 80.4961 95.5494 84.1593 93.9739 87.3641H95.506C96.0011 87.3602 96.4747 87.1611 96.8239 86.81C97.1731 86.4589 97.3697 85.9842 97.3709 85.489V78.9136C97.3697 78.4185 97.1731 77.9438 96.8239 77.5927C96.4747 77.2416 96.0011 77.0425 95.506 77.0385H95.0313ZM66.3159 77.0385H66.1749V67.1837C66.7817 66.9826 67.2971 66.572 67.6287 66.0255C67.9603 65.479 68.0865 64.8323 67.9847 64.2012C67.8828 63.5701 67.5596 62.9959 67.0729 62.5814C66.5862 62.167 65.9678 61.9393 65.3286 61.9393C64.6893 61.9393 64.0709 62.167 63.5842 62.5814C63.0975 62.9959 62.7743 63.5701 62.6725 64.2012C62.5706 64.8323 62.6968 65.479 63.0285 66.0255C63.3601 66.572 63.8755 66.9826 64.4823 67.1837V77.626C64.1491 77.9717 63.9635 78.4335 63.9645 78.9136V85.4882C63.9658 85.986 64.1644 86.4629 64.5168 86.8144C64.8692 87.1659 65.3466 87.3633 65.8443 87.3633H67.3756C65.7854 84.163 65.41 80.4946 66.319 77.0385H66.3159ZM80.0102 58.7888C76.0537 58.7822 72.175 59.8879 68.8168 61.9798C68.4449 61.4835 67.972 61.0717 67.4293 60.7716C66.8866 60.4714 66.2864 60.2898 65.6683 60.2387C65.0503 60.1875 64.4284 60.268 63.8437 60.4749C63.2591 60.6817 62.7249 61.0102 62.2765 61.4386C61.8281 61.867 61.4757 62.3857 61.2424 62.9603C61.0092 63.535 60.9005 64.1525 60.9234 64.7723C60.9464 65.392 61.1005 65.9999 61.3756 66.5557C61.6507 67.1115 62.0406 67.6026 62.5195 67.9967C59.8375 71.9054 58.542 76.5997 58.8397 81.3307C59.1374 86.0616 61.0112 90.5565 64.162 94.0982C67.3128 97.6398 71.559 100.024 76.2232 100.87C80.8873 101.717 85.7005 100.976 89.8948 98.7676C94.0891 96.5588 97.4226 93.0088 99.3636 88.6841C101.305 84.3593 101.741 79.5091 100.603 74.9073C99.4656 70.3056 96.8193 66.2175 93.0868 63.2954C89.3542 60.3733 84.7505 58.7856 80.0102 58.7857V58.7888Z" fill="#0B0B0B"/>
</svg>
