<svg width="91" height="60" viewBox="0 0 91 60" fill="none" xmlns="http://www.w3.org/2000/svg">
<path d="M45.2811 23.3499C40.4741 23.1971 36.8991 28.6291 38.9197 32.9912C41.1703 38.5776 49.5917 38.4808 51.7046 32.8353C53.5904 28.4899 50.0185 23.2001 45.2811 23.3484V23.3499ZM42.2555 30.2683C42.357 26.2756 48.2098 26.2771 48.3097 30.2683C48.2083 34.261 42.3554 34.2595 42.2555 30.2683ZM87.6617 24.2142C86.5447 24.2142 85.5791 24.8271 85.0539 25.7277H75.5534C74.7164 25.7277 74.0399 26.4058 74.0399 27.2412V30.2683H68.6063C68.7939 25.7322 67.2395 26.7811 63.772 27.0218C63.6948 26.5904 63.5722 26.159 63.4648 25.7277H71.0143C71.8513 25.7277 72.5278 25.0496 72.5278 24.2142V21.1371L79.0482 20.9192C80.5496 23.465 84.6937 22.3192 84.6362 19.3194C84.6558 16.1954 80.374 15.1571 78.9543 17.8936L70.9644 18.1615C70.1486 18.1888 69.5008 18.8577 69.5008 19.675V22.7021H62.4749C62.2464 22.2299 62.0163 21.7516 61.7605 21.2733L63.0788 20.4137C63.8432 19.9218 63.9869 18.8532 63.4057 18.163H66.4737C67.0473 18.163 67.571 17.8391 67.8283 17.326L69.7687 13.4453C73.6993 13.2395 73.6146 7.49408 69.6794 7.40024C67.3697 7.33213 65.8441 10.0913 67.1063 12.0029L65.5398 15.1359H60.9735C59.7248 14.1234 57.6725 11.1251 56.0378 13.0019L54.211 15.4977C53.3074 14.9528 52.3509 14.4866 51.3701 14.1113L52.0754 11.5973L56.2482 10.5514C57.3561 10.3698 57.5483 8.68524 57.8844 7.85582C61.3231 7.05061 60.7646 1.90458 57.1957 1.88793C54.6121 1.79863 53.1803 5.17837 54.9874 6.97342L54.7059 7.81647L50.0079 8.994C49.4433 8.86838 48.8788 8.76546 48.3112 8.68524V5.63546C50.9508 4.19305 49.849 -0.0554526 46.7977 0.000548396C43.7464 -0.0554526 42.6445 4.19305 45.2841 5.63546V8.45669C44.0022 8.44459 41.9195 8.37194 42.0361 10.1806L42.4296 14.7787C41.9649 14.8605 41.4791 14.9664 40.9857 15.1042L39.9898 12.5705C39.7067 11.8485 38.9318 11.4898 38.1977 11.6836L35.938 6.69342C37.4152 4.8136 35.9168 1.80923 33.4997 1.88642C29.7128 1.96058 29.4192 7.429 33.1637 7.90728L35.4416 12.9368C35.0526 13.1562 34.6697 13.3848 34.3004 13.6285L32.4251 11.1992C31.9181 10.5423 30.9766 10.4152 30.3122 10.9177C28.72 12.1225 27.3063 13.5452 26.0788 15.1375H25.151L23.5875 12.0075C24.8514 10.0959 23.3272 7.33365 21.016 7.40176C17.0824 7.4956 16.9961 13.238 20.9237 13.4468L22.8656 17.3306C23.3318 18.443 24.9346 18.1267 25.873 18.1645L30.4499 21.4535C29.9141 22.3555 29.4601 23.306 29.0938 24.2974L24.647 23.076C23.9886 22.8959 23.3287 23.1955 22.9836 23.748L21.1901 23.135V19.6766C21.1901 18.8593 20.5423 18.1903 19.7265 18.163L11.7411 17.9012C10.3244 15.1586 6.03654 16.1954 6.05622 19.3224C5.99719 22.3192 10.1367 23.468 11.6412 20.9267L18.1615 21.1417V24.2172C18.1615 24.865 18.5732 25.4401 19.1862 25.649L22.2511 26.6964C22.0604 27.8784 21.965 29.0711 21.965 30.2713H16.648V27.2443C16.648 26.4088 15.9714 25.7307 15.1344 25.7307H5.63546C4.19305 23.0911 -0.0554526 24.193 0.000548396 27.2443C-0.0554526 30.2956 4.19305 31.3974 5.63546 28.7578H13.6209V31.0644L7.61668 35.9184C5.70054 35.1268 3.46504 36.6585 3.50893 38.7381C3.65423 43.035 10.058 42.5371 9.51617 38.2749L15.6717 33.2969H22.4569C22.7627 33.6374 23.2016 33.8509 23.7056 33.8039L26.7857 33.5149C26.8129 33.6632 26.8613 33.81 26.8916 33.9568L19.8476 38.894L17.7196 36.7659C16.9658 35.9607 15.5022 36.3225 15.2056 37.3835L13.7178 42.1345C10.2563 42.9139 10.7936 48.0918 14.3792 48.1114C16.9507 48.1992 18.3901 44.8482 16.6041 43.0456L17.3472 40.6739C18.1963 41.473 19.218 43.035 20.5453 42.1027L27.7876 37.0263C27.8739 37.2578 27.9375 37.4894 28.0328 37.721C28.2583 38.2023 28.5111 38.7305 28.8017 39.2678L27.4879 40.126C25.8049 41.3383 27.6847 43.1001 28.5353 44.2004L22.4024 45.434C21.122 45.7125 21.1417 46.9082 21.1871 47.9646C18.5505 49.4085 19.6539 53.654 22.7036 53.598C25.6081 53.6586 26.8311 49.7082 24.4563 48.1099L31.0629 46.7825C34.0809 49.7218 34.4956 47.3562 36.3603 45.0435C37.2533 45.5793 38.2038 46.0424 39.1846 46.4163L38.4429 49.0619L35.2827 52.4447C33.3832 51.7545 31.2733 53.2892 31.3127 55.3068C31.4852 59.693 38.0025 59.0452 37.3063 54.712L40.3106 51.4957C41.1037 51.6834 41.912 51.8257 42.7308 51.9225L44.2322 55.381C42.9578 57.2926 44.4804 60.0669 46.7977 59.9988C50.7177 59.9064 50.8237 54.1898 46.9127 53.9567L46.0848 52.0466C47.229 52.1374 48.6487 51.7818 48.5337 50.3605L48.1281 45.7533C48.5942 45.6716 49.0831 45.5672 49.5811 45.431L50.58 47.9752C50.801 48.5564 51.4019 48.959 52.0239 48.9242L53.8795 53.5693C52.4553 55.4597 53.9567 58.4095 56.3526 58.3339C60.1713 58.2552 60.421 52.7292 56.6357 52.3085L54.8179 47.7527C55.3159 47.4833 55.8078 47.2078 56.2618 46.9066C58.6411 49.9383 58.8364 51.3292 62.1359 48.0115L66.0151 48.2946C63.9007 50.0155 65.2296 53.6616 67.9872 53.601C71.0385 53.657 72.1404 49.4085 69.5008 47.9661V46.9218C69.5008 46.1287 68.8893 45.4703 68.0977 45.4113L64.6847 45.1615C65.4505 44.4229 65.7971 43.1591 64.7967 42.4538L60.1183 39.0922C60.6556 38.1887 61.1097 37.2366 61.476 36.2438C61.9043 36.3058 66.2391 37.6862 66.569 37.4758L69.8035 41.7773C70.3241 42.5038 71.4638 42.584 72.0829 41.9377L73.3421 40.6784L74.0853 43.0501C72.3008 44.8528 73.7387 48.2038 76.3102 48.116C79.8958 48.0963 80.4331 42.9185 76.9716 42.139L75.4838 37.388C75.3264 36.8825 74.9147 36.4965 74.4001 36.3709C73.1756 36.0031 72.2312 37.6544 71.1747 38.5655L68.1855 34.5925C68.2672 34.1626 68.3232 33.7328 68.3808 33.3014H75.0161L81.1717 38.2795C80.6298 42.5431 87.0351 43.038 87.1789 38.7426C87.2228 36.6645 84.9873 35.1313 83.0727 35.9229L77.0654 31.0659V28.7623H85.0524C86.4948 31.4019 90.7433 30.3001 90.6873 27.2488C90.6873 25.5778 89.3327 24.2217 87.6602 24.2217L87.6617 24.2142ZM49.1982 39.4086C44.3306 41.6047 38.1493 39.1316 36.1378 34.1854C32.5961 26.2196 40.9221 17.6878 48.9741 21.0312C57.1094 24.1597 57.2562 36.0848 49.1966 39.4086H49.1982Z" fill="#DCA629"/>
</svg>
