<svg width="100" height="100" viewBox="0 0 100 100" fill="none" xmlns="http://www.w3.org/2000/svg">
<rect width="100" height="100" rx="24" fill="#DCA629"/>
<path d="M70.25 43.0496C65.725 43.0496 63.875 39.8496 66.125 35.9246C67.425 33.6496 66.65 30.7496 64.375 29.4496L60.05 26.9746C58.075 25.7996 55.525 26.4996 54.35 28.4746L54.075 28.9496C51.825 32.8746 48.125 32.8746 45.85 28.9496L45.575 28.4746C44.45 26.4996 41.9 25.7996 39.925 26.9746L35.6 29.4496C33.325 30.7496 32.55 33.6746 33.85 35.9496C36.125 39.8496 34.275 43.0496 29.75 43.0496C27.15 43.0496 25 45.1746 25 47.7996V52.1996C25 54.7996 27.125 56.9496 29.75 56.9496C34.275 56.9496 36.125 60.1496 33.85 64.0746C32.55 66.3496 33.325 69.2496 35.6 70.5496L39.925 73.0246C41.9 74.1996 44.45 73.4996 45.625 71.5246L45.9 71.0496C48.15 67.1246 51.85 67.1246 54.125 71.0496L54.4 71.5246C55.575 73.4996 58.125 74.1996 60.1 73.0246L64.425 70.5496C66.7 69.2496 67.475 66.3246 66.175 64.0746C63.9 60.1496 65.75 56.9496 70.275 56.9496C72.875 56.9496 75.025 54.8246 75.025 52.1996V47.7996C75 45.1996 72.875 43.0496 70.25 43.0496ZM50 58.1246C45.525 58.1246 41.875 54.4746 41.875 49.9996C41.875 45.5246 45.525 41.8746 50 41.8746C54.475 41.8746 58.125 45.5246 58.125 49.9996C58.125 54.4746 54.475 58.1246 50 58.1246Z" fill="#0B0B0B"/>
</svg>
