<svg width="160" height="160" viewBox="0 0 160 160" fill="none" xmlns="http://www.w3.org/2000/svg">
<circle cx="80" cy="80" r="75" fill="#DDA72A" stroke="#0B0B0B" stroke-width="10"/>
<path d="M52.473 95.3104C52.5808 95.3983 52.7121 95.4526 52.8505 95.4663C52.9889 95.4801 53.1283 95.4527 53.2513 95.3877C53.3743 95.3227 53.4754 95.2229 53.5419 95.1008C53.6085 94.9787 53.6376 94.8396 53.6257 94.701C53.5497 93.9651 53.5099 93.2118 53.5075 92.4623L53.4907 87.2687C53.4655 83.6304 54.1501 80.0222 55.5062 76.6461C55.5561 76.5148 55.5658 76.3717 55.534 76.2349C55.5023 76.0981 55.4305 75.9739 55.3279 75.878C55.2253 75.7821 55.0965 75.719 54.9579 75.6966C54.8193 75.6742 54.6771 75.6935 54.5495 75.7522C53.7691 76.1199 53.0569 76.6178 52.4435 77.2245C50.2793 79.3802 50.187 82.128 50.059 85.9332C49.9282 89.7633 49.8368 92.5303 51.8402 94.7118C52.038 94.9248 52.2494 95.1247 52.473 95.3104Z" fill="#0B0B0B"/>
<path d="M105.989 87.2687L105.972 92.4618C105.972 93.2118 105.93 93.9646 105.854 94.7005C105.842 94.8391 105.871 94.9782 105.938 95.1003C106.004 95.2224 106.105 95.3222 106.228 95.3872C106.351 95.4522 106.491 95.4796 106.629 95.4658C106.768 95.4521 106.899 95.3978 107.007 95.3099C107.23 95.1242 107.442 94.9243 107.639 94.7113C109.643 92.5298 109.55 89.7628 109.421 85.9327C109.293 82.1275 109.2 79.3797 107.037 77.224C106.423 76.6173 105.711 76.1194 104.931 75.7517C104.803 75.693 104.661 75.6737 104.522 75.6961C104.384 75.7185 104.255 75.7816 104.152 75.8775C104.05 75.9734 103.978 76.0976 103.946 76.2344C103.914 76.3712 103.924 76.5143 103.974 76.6456C105.33 80.0219 106.014 83.6303 105.989 87.2687Z" fill="#0B0B0B"/>
<path d="M74.9215 88.0443C75.5385 88.7096 76.2861 89.2403 77.1177 89.6032C77.9493 89.9662 78.8469 90.1535 79.7542 90.1535C80.6615 90.1535 81.5591 89.9662 82.3907 89.6032C83.2223 89.2403 83.97 88.7096 84.5869 88.0443C85.1032 87.511 85.3899 86.7966 85.3855 86.0544C85.3811 85.3121 85.086 84.6012 84.5635 84.074C84.0259 83.5607 83.3099 83.2763 82.5666 83.2806C81.8233 83.285 81.1107 83.5779 80.5792 84.0975C80.488 84.2314 80.3656 84.3412 80.2224 84.4171C80.0793 84.4931 79.9198 84.5331 79.7578 84.5335C79.5957 84.534 79.436 84.495 79.2925 84.4198C79.1489 84.3446 79.0258 84.2356 78.9339 84.1021C78.4112 83.5701 77.6984 83.2674 76.9526 83.2609C76.2067 83.2543 75.4887 83.5442 74.9566 84.067C74.4246 84.5898 74.1219 85.3025 74.1153 86.0483C74.1088 86.7942 74.3987 87.5122 74.9215 88.0443Z" fill="#0B0B0B"/>
<path d="M71.7762 83.9847C72.5195 83.9776 73.2302 83.6788 73.7554 83.1528C74.2805 82.6268 74.5781 81.9155 74.584 81.1722V77.8911C74.5781 77.1478 74.2805 76.4365 73.7554 75.9105C73.2302 75.3845 72.5195 75.0857 71.7762 75.0786C71.0201 75.0942 70.3006 75.407 69.7734 75.9491C69.2461 76.4913 68.9536 77.2192 68.9591 77.9754C68.9684 78.7535 68.9684 80.3098 68.9591 81.0879C68.9536 81.8441 69.2461 82.572 69.7734 83.1142C70.3006 83.6563 71.0201 83.9691 71.7762 83.9847Z" fill="#0B0B0B"/>
<path d="M87.7042 83.9847C88.4603 83.9691 89.1798 83.6563 89.7071 83.1142C90.2343 82.572 90.5268 81.8441 90.5214 81.0879C90.512 80.3098 90.512 78.7535 90.5214 77.9754C90.5268 77.2192 90.2343 76.4913 89.7071 75.9491C89.1798 75.407 88.4603 75.0942 87.7042 75.0786C86.961 75.0857 86.2502 75.3845 85.7251 75.9105C85.1999 76.4365 84.9023 77.1478 84.8965 77.8911V81.1722C84.9023 81.9155 85.1999 82.6268 85.7251 83.1528C86.2502 83.6788 86.961 83.9776 87.7042 83.9847Z" fill="#0B0B0B"/>
<path d="M62.9082 67.8297C57.7683 72.9923 54.8869 79.9834 54.8965 87.2684L54.9134 92.4574C54.9509 103.934 63.1506 110 78.6265 110H80.8694C96.3459 110 104.546 103.934 104.583 92.4574L104.6 87.2726C104.61 79.9865 101.729 72.9939 96.5887 67.8302C92.1094 63.3087 86.3997 60.7522 80.4429 60.5647V57.1968C81.3281 57.0222 82.1167 56.5243 82.6551 55.8002C83.1934 55.0761 83.443 54.1775 83.3553 53.2795C83.2676 52.3815 82.8488 51.5482 82.1804 50.942C81.5121 50.3358 80.6421 50 79.7398 50C78.8375 50 77.9675 50.3358 77.2991 50.942C76.6308 51.5482 76.212 52.3815 76.1243 53.2795C76.0365 54.1775 76.2861 55.0761 76.8245 55.8002C77.3628 56.5243 78.1514 57.0222 79.0367 57.1968V60.5652C73.0865 60.755 67.3833 63.3134 62.9082 67.8297ZM79.7398 103.438C79.1835 103.438 78.6398 103.273 78.1773 102.964C77.7148 102.655 77.3543 102.215 77.1414 101.701C76.9286 101.188 76.8729 100.622 76.9814 100.076C77.0899 99.5309 77.3578 99.0298 77.7511 98.6365C78.1444 98.2432 78.6455 97.9753 79.1911 97.8668C79.7367 97.7583 80.3021 97.814 80.8161 98.0268C81.33 98.2397 81.7692 98.6002 82.0782 99.0627C82.3873 99.5252 82.5522 100.069 82.5522 100.625C82.5522 101.371 82.2559 102.086 81.7285 102.614C81.201 103.141 80.4857 103.438 79.7398 103.438ZM79.7398 67.3446C91.2141 67.3446 99.38 77.3086 98.1711 88.6128C97.9574 90.6817 96.986 92.5984 95.4438 93.994C93.9016 95.3896 91.8976 96.1654 89.8177 96.1721C84.7787 96.1581 84.7787 93.3597 79.7398 93.3597C74.7008 93.3597 74.7008 96.1581 69.6618 96.1721C67.5819 96.1654 65.578 95.3896 64.0358 93.994C62.4936 92.5984 61.5221 90.6817 61.3084 88.6128C60.0995 77.3086 68.2655 67.3446 79.7398 67.3446Z" fill="#0B0B0B"/>
</svg>
