<svg width="160" height="160" viewBox="0 0 160 160" fill="none" xmlns="http://www.w3.org/2000/svg">
<circle cx="80" cy="80" r="75" fill="#DDA72A" stroke="#0B0B0B" stroke-width="10"/>
<path d="M103.418 58.212C103.418 56.8586 104.069 55.5881 105.167 54.7964C106.265 54.0047 107.676 53.7877 108.959 54.2155C110.245 54.64 111.248 55.6583 111.653 56.9479C112.059 58.2376 111.822 59.6453 111.015 60.7306C114.341 65.6017 116.304 71.2706 116.7 77.1543C116.355 77.1 116.004 77.0713 115.653 77.0681H114.628C114.568 77.0681 114.507 77.0745 114.446 77.0808H114.449C114.05 71.7213 112.253 66.5629 109.243 62.1134C107.941 62.6497 106.46 62.5028 105.288 61.7208C104.12 60.9387 103.418 59.6235 103.418 58.2158V58.212ZM86.9269 63.0608C81.8801 63.0544 76.9295 64.4302 72.6099 67.0414V73.7543C72.6099 73.9267 72.6003 74.0895 72.5875 74.2555H72.5843C73.5324 73.9235 74.5283 73.7575 75.5307 73.7607H98.3259C101.09 73.7288 103.695 75.0439 105.31 77.288C109.923 83.5637 111.04 91.748 108.282 99.0291C107.755 100.529 106.322 101.516 104.732 101.477H69.1214C67.5349 101.513 66.1017 100.526 65.5717 99.0291C63.1585 92.6544 63.6979 85.5391 67.0465 79.599C66.9507 79.6054 66.8518 79.6054 66.756 79.6054L63.781 79.6086V84.5978C63.7778 86.2195 62.4626 87.5346 60.8378 87.5378C60.3367 87.5378 59.8418 87.4069 59.4078 87.1611C59.2418 88.3933 59.1588 89.6382 59.1588 90.8831C59.1524 94.2668 59.7653 97.6217 60.9655 100.785C62.22 104.194 65.4855 106.448 69.1181 106.406H104.732C108.368 106.448 111.637 104.197 112.892 100.785C116.131 92.2397 114.976 82.6476 109.795 75.1206C104.611 67.5904 96.0654 63.0861 86.9269 63.0608ZM115.652 79.3121H114.628C116.926 84.8408 117.529 90.9315 116.358 96.8046C118.455 96.4535 119.99 94.6436 120 92.5176V83.6561C119.994 81.2588 118.05 79.3184 115.652 79.3121ZM70.3438 78.6226C71.5345 76.9467 73.4721 75.9667 75.5279 76.0019H98.3231C100.379 75.9604 102.32 76.9435 103.51 78.6194C107.666 84.2822 108.675 91.6656 106.188 98.2382C105.991 98.8639 105.39 99.2788 104.733 99.2406H69.1218C68.4643 99.2757 67.8641 98.8639 67.6663 98.235C65.1796 91.6656 66.1877 84.2856 70.3438 78.6226ZM95.705 87.0085L95.7082 87.0117C95.7082 87.6277 96.2094 88.1321 96.8286 88.1321C97.4479 88.1321 97.9491 87.6277 97.9491 87.0117V81.9617C97.9491 81.3425 97.4479 80.8413 96.8286 80.8413C96.2094 80.8413 95.7082 81.3425 95.7082 81.9617L95.705 87.0085ZM81.3185 91.8668C81.3185 92.4861 81.8165 92.9873 82.4357 92.9873H91.4214C92.0407 92.9873 92.5387 92.4861 92.5387 91.8668C92.5387 91.2508 92.0407 90.7496 91.4214 90.7496H82.439C82.1421 90.7496 81.858 90.8677 81.6474 91.0752C81.4367 91.2859 81.3185 91.57 81.3185 91.8668ZM75.911 87.0085V87.0117C75.911 87.6277 76.4122 88.1289 77.0315 88.1289C77.6475 88.1289 78.1487 87.6277 78.1487 87.0117V81.9617C78.1487 81.3425 77.6476 80.8413 77.0315 80.8413C76.4122 80.8413 75.911 81.3425 75.911 81.9617V87.0085ZM57.4322 85.339L54.1634 82.0702V82.0734C53.9623 82.5778 53.8602 83.1172 53.8602 83.6599V92.5214V92.5182C53.8666 94.6442 55.4051 96.4541 57.5024 96.8052C56.749 93.0226 56.7235 89.131 57.4322 85.339ZM60.3497 85.09L53.6974 78.4376C53.0207 77.7386 52.0822 77.3492 51.1086 77.3651H43.6135C41.6216 77.3587 40.0064 75.7435 40 73.7516V63.5238C40.0064 61.5319 41.6216 59.9167 43.6135 59.9103H66.7527C68.7446 59.9199 70.3599 61.5319 70.3662 63.5238V73.7549C70.3598 75.7468 68.7446 77.362 66.7527 77.3684H62.4147C61.9327 77.3684 61.5432 77.7578 61.54 78.2398V84.5984C61.54 84.8794 61.3677 85.1315 61.1091 85.2401C60.8505 85.3486 60.5508 85.2879 60.3497 85.09ZM60.953 65.9663C60.953 66.5856 61.4542 67.0868 62.0703 67.0868H64.0175C64.6335 67.0868 65.1347 66.5856 65.1347 65.9663C65.1347 65.3503 64.6335 64.8491 64.0175 64.8491H62.0703C61.451 64.8491 60.9499 65.3471 60.9499 65.9632L60.953 65.9663ZM45.2354 65.9663C45.2354 66.5856 45.7366 67.0868 46.3527 67.0868H57.9525C58.5686 67.0868 59.0698 66.5856 59.0698 65.9663C59.0698 65.3503 58.5686 64.8491 57.9525 64.8491H46.3494C45.7333 64.8491 45.2321 65.3471 45.2321 65.9632L45.2354 65.9663ZM64.0207 72.4336H64.0175C64.6368 72.4336 65.138 71.9324 65.138 71.3131C65.138 70.6971 64.6368 70.1927 64.0175 70.1927H46.3493C45.7332 70.1927 45.2289 70.6971 45.2289 71.3131C45.2289 71.9324 45.7332 72.4336 46.3493 72.4336H64.0207Z" fill="#0B0B0B"/>
</svg>
