<svg width="100" height="100" viewBox="0 0 100 100" fill="none" xmlns="http://www.w3.org/2000/svg">
<rect width="100" height="100" rx="24" fill="#DCA629"/>
<path fill-rule="evenodd" clip-rule="evenodd" d="M52.0964 71.201V71.9409L66.0349 79.9867L79.9733 71.9409V55.8427L73.0474 51.8431C73.0474 51.8431 73.0208 51.8298 73.0074 51.8231L66.0415 47.7969L65.4016 48.1635V63.0952C65.4016 63.3952 65.2283 63.6485 64.9683 63.7685L52.0964 71.201ZM34.5717 48.1702L33.9318 47.8036L26.9659 51.8298L20 55.8493V71.9542L26.9259 75.9538C26.9259 75.9538 26.9526 75.9671 26.9659 75.9738L33.9318 80L47.8702 71.9542V71.2143L34.9383 63.7485C34.705 63.6152 34.5717 63.3685 34.5717 63.1152V48.1835V48.1702ZM49.2434 55.0494V70.3011L36.0449 62.6819V47.4303L49.2434 55.0494ZM63.9218 47.4303V62.6819L50.7233 70.3011V55.0494L63.9218 47.4303ZM36.7781 46.1571L43.0174 42.5575L49.9833 38.5379L56.9492 42.5642C56.9492 42.5642 56.9759 42.5775 56.9892 42.5842L63.1885 46.1638L49.9833 53.7896L36.7781 46.1638V46.1571ZM50.3566 37.0514L57.6891 41.2843C57.6891 41.2843 57.7158 41.2976 57.7291 41.311L63.2885 44.5173L63.9285 44.1507V28.0458L57.0026 24.0462C57.0026 24.0462 56.9759 24.0329 56.9626 24.0262L49.9967 20L43.0308 24.0262L36.0649 28.0458V44.1507L36.7048 44.5173L42.2975 41.2843L49.6367 37.0448C49.8767 36.9048 50.1566 36.9181 50.3833 37.0448L50.3566 37.0514Z" fill="#0B0B0B"/>
</svg>
