<svg width="32" height="60" viewBox="0 0 32 60" fill="none" xmlns="http://www.w3.org/2000/svg">
<path fill-rule="evenodd" clip-rule="evenodd" d="M24.5722 22.0757H6.85774C6.43573 22.0757 6.08575 21.6872 6.08575 21.2651V9.66519C6.08575 4.32312 10.4062 0 15.7173 0C21.026 0 25.3825 4.32048 25.3825 9.66519V21.2651C25.3825 21.6871 25.0328 22.0757 24.5722 22.0757ZM11.7397 13.6048C13.1422 13.6048 14.3027 12.4443 14.3027 11.0419C14.3027 9.6395 13.1422 8.47898 11.7397 8.47898C10.3373 8.47898 9.17681 9.6395 9.17681 11.0419C9.17681 12.4443 10.3373 13.6048 11.7397 13.6048ZM11.7397 9.34873C12.6558 9.34873 13.4252 10.1207 13.4252 11.0342C13.4252 11.9503 12.6532 12.6888 11.7397 12.6888C10.8237 12.6888 10.0543 11.9503 10.0543 11.0342C10.0543 10.1181 10.8263 9.34873 11.7397 9.34873ZM19.7218 13.6048C21.1242 13.6048 22.2848 12.4443 22.2848 11.0419C22.2848 9.6395 21.1242 8.47898 19.7218 8.47898C18.3194 8.47898 17.1589 9.6395 17.1589 11.0419C17.1589 12.4443 18.2859 13.6048 19.7218 13.6048ZM19.7218 9.34873C20.6379 9.34873 21.3764 10.1207 21.3764 11.0342C21.3764 11.9503 20.6379 12.6888 19.7218 12.6888C18.8058 12.6888 18.0363 11.9503 18.0363 11.0342C18.0363 10.1181 18.7749 9.34873 19.7218 9.34873Z" fill="#DCA629"/>
<path fill-rule="evenodd" clip-rule="evenodd" d="M8.89258 23.8997V21.2647C8.89258 20.8092 9.24254 20.4541 9.70317 20.4541H21.759C22.181 20.4541 22.531 20.8041 22.531 21.2647V23.8997H8.89258Z" fill="#DCA629"/>
<path fill-rule="evenodd" clip-rule="evenodd" d="M27.8375 43.0247H3.62313C1.62112 43.0247 0 41.4112 0 39.4015V28.4729C0 26.4709 1.61341 24.8497 3.62313 24.8497H27.8401C29.8421 24.8497 31.4633 26.4631 31.4633 28.4729V39.4015C31.4633 41.4035 29.8498 43.0247 27.8401 43.0247H27.8375ZM27.1015 38.7376C27.346 38.7376 27.557 38.5266 27.557 38.2822C27.557 38.0377 27.346 37.8602 27.1015 37.8602H4.32852C4.08406 37.8602 3.90651 38.0377 3.90651 38.2822C3.90651 38.5266 4.08406 38.7376 4.32852 38.7376H27.1015ZM27.1015 34.376C27.346 34.376 27.557 34.1984 27.557 33.954C27.557 33.6709 27.346 33.4985 27.1015 33.4985H4.32852C4.08406 33.4985 3.90651 33.6761 3.90651 33.954C3.90651 34.1984 4.08406 34.376 4.32852 34.376H27.1015ZM27.1015 30.022C27.346 30.022 27.557 29.8445 27.557 29.6C27.557 29.3556 27.346 29.1446 27.1015 29.1446H4.32852C4.08406 29.1446 3.90651 29.3556 3.90651 29.6C3.90651 29.8445 4.08406 30.022 4.32852 30.022H27.1015Z" fill="#DCA629"/>
<path fill-rule="evenodd" clip-rule="evenodd" d="M15.7097 54.2359C15.2877 54.2359 14.9377 53.886 14.9377 53.464V42.2191C14.9377 41.7971 15.2876 41.4471 15.7097 41.4471C16.1651 41.4471 16.5203 41.797 16.5203 42.2191V53.464C16.5203 53.886 16.1703 54.2359 15.7097 54.2359Z" fill="#DCA629"/>
<path fill-rule="evenodd" clip-rule="evenodd" d="M25.4863 54.9408C25.0308 54.9408 24.6757 54.5908 24.6757 54.1688V48.0548L19.4057 42.8183C19.1226 42.5017 19.1226 41.9743 19.4057 41.6577C19.7222 41.3747 20.2496 41.3747 20.5662 41.6577L26.0472 47.1773C26.1861 47.3163 26.2916 47.5273 26.2916 47.7383V54.1688C26.2916 54.5908 25.9031 54.9408 25.481 54.9408L25.4863 54.9408Z" fill="#DCA629"/>
<path fill-rule="evenodd" clip-rule="evenodd" d="M5.97466 54.9744C5.51919 54.9744 5.16406 54.6245 5.16406 54.1638V47.7333C5.16406 47.5223 5.26957 47.3113 5.40852 47.1723L10.8895 41.6527C11.206 41.3697 11.7001 41.3697 12.0166 41.6527C12.3331 41.9692 12.3331 42.4967 12.0166 42.8132L6.78004 48.0498V54.1638C6.78004 54.6193 6.39148 54.9744 5.96945 54.9744L5.97466 54.9744Z" fill="#DCA629"/>
<path fill-rule="evenodd" clip-rule="evenodd" d="M5.97457 59.9663C4.15016 59.9663 2.66797 58.4918 2.66797 56.6597C2.66797 54.8276 4.14245 53.3917 5.97457 53.3917C7.80669 53.3917 9.24257 54.8662 9.24257 56.6597C9.24257 58.4507 7.76808 59.9663 5.97457 59.9663Z" fill="#DCA629"/>
<path fill-rule="evenodd" clip-rule="evenodd" d="M15.7096 59.2306C13.9186 59.2306 12.4417 57.7561 12.4417 55.9626C12.4417 54.1716 13.9161 52.656 15.7096 52.656C17.5007 52.656 19.0162 54.1305 19.0162 55.9626C19.0162 57.7947 17.5418 59.2306 15.7096 59.2306Z" fill="#DCA629"/>
<path fill-rule="evenodd" clip-rule="evenodd" d="M25.4846 60.0001C23.6602 60.0001 22.1445 58.4921 22.1445 56.66C22.1445 54.8279 23.6525 53.3534 25.4846 53.3534C27.3167 53.3534 28.7912 54.8279 28.7912 56.66C28.7912 58.4921 27.3167 60.0001 25.4846 60.0001Z" fill="#DCA629"/>
<path fill-rule="evenodd" clip-rule="evenodd" d="M26.4355 15.259H26.33V9.67242C26.33 8.692 26.191 7.74247 25.9414 6.82642H26.4355C28.4709 6.82642 30.1255 8.481 30.1255 10.5165V11.5381C30.1255 13.5735 28.4709 15.2667 26.4355 15.2667V15.259Z" fill="#DCA629"/>
<path fill-rule="evenodd" clip-rule="evenodd" d="M5.1311 15.2589H5.0256C2.99019 15.2589 1.29694 13.5734 1.29694 11.5303V10.5087C1.29694 8.47325 2.98242 6.8186 5.0256 6.8186H5.51966C5.2752 7.73466 5.1311 8.68162 5.1311 9.6646V15.2589Z" fill="#DCA629"/>
</svg>
