<svg width="73" height="73" viewBox="0 0 73 73" fill="none" xmlns="http://www.w3.org/2000/svg">
<path d="M59.8606 49.621C57.5237 49.621 55.3009 50.4188 53.477 51.9004L52.2231 50.6467C59.4046 42.6116 59.4046 30.4735 52.2231 22.4953L56.3268 18.3353C56.7258 18.6772 57.1817 18.9621 57.6377 19.2471L57.7517 19.3041C60.8295 21.0137 64.5343 21.0137 67.6121 19.3041C67.6691 19.2471 67.7261 19.2471 67.84 19.1901C72.7417 16.3977 74.4516 10.1292 71.6588 5.17137C68.866 0.213535 62.5964 -1.43908 57.6377 1.35327C52.679 4.14561 51.0261 10.4711 53.819 15.429C54.1039 15.8849 54.3889 16.3408 54.7309 16.7397L47.3214 24.1479C41.1088 18.7342 31.8184 18.7342 25.6058 24.1479L20.5332 19.0191C24.0669 14.6312 23.383 8.13468 18.9943 4.60151C14.6055 1.06833 8.16496 1.75217 4.5742 6.14015C0.983436 10.5281 1.72439 17.0246 6.1131 20.5578C9.87485 23.5781 15.1755 23.5781 18.9373 20.6148L20.7611 22.4383C13.5796 30.4735 13.5796 42.6116 20.7611 50.5897L16.6574 54.7498C12.2117 51.2166 5.77112 51.9574 2.23735 56.3454C-1.29641 60.7334 -0.555463 67.2299 3.83325 70.763C8.22196 74.2962 14.7195 73.5554 18.2533 69.1674C21.2171 65.4063 21.2171 60.1065 18.2533 56.3454L25.6628 48.9371C31.8754 54.3509 41.1658 54.3509 47.3784 48.9371L51.8811 53.4391C48.3473 57.884 49.0883 64.3235 53.534 67.8567C57.9797 71.3899 64.4203 70.649 67.954 66.2041C71.4878 61.7591 70.7469 55.3196 66.3011 51.7865C64.4773 50.4188 62.1974 49.621 59.8606 49.621ZM66.1302 17.5945C63.9643 18.6202 61.4565 18.6202 59.3476 17.5945C59.1196 15.7139 60.4875 14.0043 62.3684 13.7764C64.2493 13.5484 65.9592 14.9161 66.1871 16.7967C66.1871 17.0246 66.1871 17.3095 66.1302 17.5945ZM62.7104 2.37903C67.0991 2.37903 70.6899 5.96919 70.6899 10.3572C70.6899 12.5227 69.8349 14.5742 68.296 16.0558C67.954 14.5172 67.0421 13.2065 65.7312 12.4087C67.1561 10.7561 66.9851 8.19167 65.2752 6.767C63.5653 5.34233 61.0575 5.51329 59.6326 7.22289C58.3787 8.70455 58.3787 10.927 59.6326 12.4087C58.3217 13.2065 57.4097 14.5742 57.0677 16.0558C53.933 12.9785 53.876 7.90673 56.9538 4.77247C58.4927 3.23383 60.5445 2.37903 62.7104 2.37903ZM15.8595 19.703C15.8595 19.76 15.8595 19.76 15.8595 19.8169C13.7506 20.7857 11.3568 20.7857 9.24789 19.8169C9.24789 19.76 9.24789 19.76 9.24789 19.703C9.1909 19.418 9.1339 19.1331 9.1339 18.8482C9.1339 16.9676 10.6728 15.429 12.5537 15.429C14.4346 15.429 15.9735 16.9676 15.9735 18.8482C15.9735 19.1331 15.9165 19.418 15.8595 19.703ZM18.1963 18.1643C17.9683 16.4547 16.9994 14.9161 15.5745 14.0043C16.9994 12.3517 16.8284 9.78729 15.1185 8.36263C13.4086 6.93796 10.9008 7.10892 9.47588 8.81852C8.22196 10.3002 8.22196 12.5227 9.47588 14.0043C7.99398 14.9161 7.02504 16.4547 6.85405 18.1643C3.71926 15.0301 3.77625 10.0152 6.91105 6.88097C10.0458 3.74671 15.0615 3.80369 18.1963 6.93796C21.2741 10.1292 21.2741 15.144 18.1963 18.1643ZM13.5796 69.8512C13.5796 69.9082 13.5796 69.9082 13.5796 69.9652C11.4707 70.934 9.0769 70.934 6.96804 69.9652C6.96804 69.9082 6.96804 69.9082 6.96804 69.8512C6.91105 69.5663 6.85405 69.2814 6.79705 68.9964C6.79705 67.1159 8.33595 65.5772 10.2168 65.5772C12.0977 65.5772 13.6366 67.1159 13.6366 68.9964C13.6936 69.2814 13.6366 69.5663 13.5796 69.8512ZM15.9165 68.3126C15.6885 66.603 14.7195 65.0644 13.2946 64.1526C14.7195 62.5 14.5485 59.9356 12.8387 58.5109C11.1288 57.0862 8.62093 57.2572 7.19603 58.9668C5.94211 60.4484 5.94211 62.6709 7.19603 64.1526C5.71413 65.0644 4.74519 66.603 4.5742 68.3126C1.43941 65.1783 1.4964 60.1635 4.6312 57.0292C7.76599 53.895 12.7817 53.952 15.9165 57.0862C18.9943 60.2205 18.9943 65.2353 15.9165 68.3126ZM27.6007 28.5359C29.8805 26.0285 33.1293 24.5468 36.4921 24.5468C37.1191 24.5468 37.632 25.0597 37.632 25.6866C37.632 26.3134 37.1191 26.8263 36.4921 26.8263C33.7563 26.8263 31.1345 27.966 29.2536 30.0176C28.8546 30.4735 28.1137 30.5304 27.6577 30.1315C27.2017 29.7326 27.1447 28.9918 27.6007 28.5359ZM24.0099 47.3415L22.414 48.9941C16.0874 41.8708 16.0874 31.1573 22.414 24.034L24.0099 25.6866C18.5953 31.8981 18.5953 41.1869 24.0099 47.3415ZM50.5702 48.9941L48.9743 47.3415C54.3889 41.13 54.3889 31.8411 48.9743 25.6296L50.5702 24.034C56.8968 31.1573 56.8968 41.8708 50.5702 48.9941ZM63.1664 67.0019C63.1664 67.0589 63.1664 67.0589 63.1664 67.1159C61.0575 68.0846 58.6636 68.0846 56.5548 67.1159C56.5548 67.0589 56.5548 67.0589 56.5548 67.0019C56.4978 66.717 56.4408 66.432 56.3838 66.1471C56.3838 64.2665 57.9227 62.7279 59.8036 62.7279C61.6844 62.7279 63.2233 64.2665 63.2233 66.1471C63.2803 66.432 63.2233 66.717 63.1664 67.0019ZM65.5032 65.4633C65.2752 63.7537 64.3063 62.215 62.8814 61.3032C64.3063 59.6506 64.1353 57.0862 62.4254 55.6616C60.7155 54.2369 58.2077 54.4079 56.7828 56.1175C55.5289 57.5991 55.5289 59.8216 56.7828 61.3032C55.3009 62.215 54.3319 63.7537 54.1609 65.4633C51.0261 62.329 51.0831 57.3142 54.2179 54.1799C57.3527 51.0456 62.3684 51.1026 65.5032 54.2369C68.581 57.3712 68.581 62.386 65.5032 65.4633Z" fill="#DCA629"/>
</svg>
