<svg width="160" height="160" viewBox="0 0 160 160" fill="none" xmlns="http://www.w3.org/2000/svg">
<circle cx="80" cy="80" r="75" fill="#DDA72A" stroke="#0B0B0B" stroke-width="10"/>
<path fill-rule="evenodd" clip-rule="evenodd" d="M71.6745 59.0029C71.9406 59.0029 72.1948 58.9536 72.4287 58.8643L75.2913 61.7268V75.7269C72.6258 77.4042 70.8532 80.3705 70.8532 83.7521C70.8532 88.9865 75.0968 93.23 80.3311 93.23C85.5655 93.23 89.809 88.9865 89.809 83.7521C89.809 80.3705 88.0364 77.4042 85.371 75.7269V61.7268L88.2335 58.8643C88.4681 58.9536 88.7224 59.0029 88.9878 59.0029C90.1579 59.0029 91.106 58.0542 91.106 56.8847C91.106 55.7153 90.1572 54.7665 88.9878 54.7665C87.8183 54.7665 86.8696 55.7153 86.8696 56.8847C86.8696 57.1508 86.9189 57.4051 87.0082 57.639L83.8973 60.7499C83.737 60.9069 83.6378 61.1263 83.6378 61.3688V74.8688C82.8672 74.5817 82.0485 74.3931 81.1977 74.3163V54.0517C81.9355 53.7206 82.4493 52.9795 82.4493 52.1182C82.4493 50.9481 81.5006 50 80.3311 50C79.1617 50 78.213 50.9487 78.213 52.1182C78.213 52.9795 78.7267 53.7206 79.4645 54.0517V74.3156C78.6137 74.3925 77.7958 74.5817 77.0244 74.8682V61.3681C77.0244 61.1257 76.9252 60.9069 76.7649 60.7492L73.654 57.6383C73.7434 57.4037 73.7927 57.1495 73.7927 56.8841C73.7927 55.7139 72.8439 54.7659 71.6745 54.7659C70.505 54.7659 69.5563 55.7146 69.5563 56.8841C69.5563 58.0535 70.505 59.0029 71.6745 59.0029ZM80.3318 78.7957C82.0065 78.7957 83.3638 80.1531 83.3638 81.8278C83.3638 83.0321 82.6615 84.0728 81.6438 84.5622V87.3978C81.6438 88.1192 81.0532 88.7099 80.3318 88.7099C79.6104 88.7099 79.0198 88.1192 79.0198 87.3978V84.5622C78.0021 84.0728 77.2997 83.0327 77.2997 81.8278C77.2997 80.1531 78.6571 78.7957 80.3318 78.7957ZM110.666 69.3296C110.666 70.4998 109.717 71.4478 108.547 71.4478C108.281 71.4478 108.027 71.3985 107.793 71.3092L104.931 74.1717V79.3824H106.58V88.1225L101.302 89.1632L98.9841 94.751L101.983 99.2219L95.8022 105.402L91.3313 102.404L85.7435 104.722L84.7028 110H75.9627L74.922 104.722L69.3342 102.404L64.8633 105.402L58.6829 99.2219L61.6815 94.751L59.3636 89.1632L54.0852 88.1225V79.3824H55.735V74.1717L52.8724 71.3092C52.6379 71.3985 52.3836 71.4478 52.1182 71.4478C50.9481 71.4478 50 70.4991 50 69.3296C50 68.1602 50.9487 67.2115 52.1182 67.2115C53.2876 67.2115 54.2363 68.1602 54.2363 69.3296C54.2363 69.5957 54.1871 69.85 54.0977 70.0839L57.2086 73.1948C57.3689 73.3518 57.4681 73.5712 57.4681 73.8137V79.3831H59.9082V66.4967C59.1704 66.1655 58.6567 65.4244 58.6567 64.5631C58.6567 63.393 59.6054 62.4449 60.7748 62.4449C61.9443 62.4449 62.893 63.3936 62.893 64.5631C62.893 65.4244 62.3792 66.1655 61.6414 66.4967V79.3824H64.0815V73.813C64.0815 73.5706 64.1814 73.3518 64.341 73.1941L67.4519 70.0832C67.3626 69.8487 67.3133 69.5944 67.3133 69.329C67.3133 68.1589 68.262 67.2108 69.4315 67.2108C70.6009 67.2108 71.5496 68.1595 71.5496 69.329C71.5496 70.4984 70.6009 71.4472 69.4315 71.4472C69.1654 71.4472 68.9111 71.3979 68.6772 71.3085L65.8147 74.1711V79.3818H67.4644C66.9986 80.7529 66.7463 82.2233 66.7463 83.7521C66.7463 91.2557 72.8295 97.3389 80.3331 97.3389C87.8367 97.3389 93.9199 91.2557 93.9199 83.7521C93.9199 82.2233 93.6669 80.7536 93.2018 79.3818H94.8515V74.1711L91.989 71.3085C91.7544 71.3979 91.5002 71.4472 91.2347 71.4472C90.0646 71.4472 89.1166 70.4984 89.1166 69.329C89.1166 68.1595 90.0653 67.2108 91.2347 67.2108C92.4042 67.2108 93.3529 68.1595 93.3529 69.329C93.3529 69.5951 93.3036 69.8493 93.2143 70.0832L96.3252 73.1941C96.4855 73.3511 96.5847 73.5706 96.5847 73.813V79.3824H99.0248V66.4967C98.287 66.1655 97.7732 65.4244 97.7732 64.5631C97.7732 63.393 98.7219 62.4449 99.8914 62.4449C101.061 62.4449 102.01 63.3936 102.01 64.5631C102.01 65.4244 101.496 66.1655 100.758 66.4967V79.3824H103.198V73.813C103.198 73.5706 103.297 73.3518 103.458 73.1941L106.568 70.0832C106.479 69.8487 106.43 69.5944 106.43 69.329C106.43 68.1589 107.379 67.2108 108.548 67.2108C109.717 67.2108 110.666 68.1595 110.666 69.329L110.666 69.3296Z" fill="#0B0B0B"/>
</svg>
