<svg width="61" height="60" viewBox="0 0 61 60" fill="none" xmlns="http://www.w3.org/2000/svg">
<path d="M9.86119 21.3332H16.177C17.5889 23.0756 19.2183 24.6431 21.0319 25.9955L16.5514 30.476H12.1015C11.8917 29.8852 11.3286 29.4602 10.6666 29.4602C9.82634 29.4602 9.14281 30.1437 9.14281 30.984C9.14281 31.8242 9.82634 32.5078 10.6666 32.5078C11.3286 32.5078 11.8917 32.0828 12.1015 31.4919H16.7618C16.8965 31.4919 17.0257 31.4384 17.1209 31.3431L21.8687 26.5954C21.9786 26.671 22.0884 26.7467 22.1995 26.8208L29.9681 31.9998L37.7367 26.7662C37.8369 26.6994 37.9358 26.631 38.035 26.5629L42.8152 31.3431C42.9105 31.4384 43.0397 31.4919 43.1744 31.4919H47.8347C48.0445 32.0828 48.6076 32.5078 49.2696 32.5078C50.1098 32.5078 50.7934 31.8242 50.7934 30.984C50.7934 30.1437 50.1098 29.4602 49.2696 29.4602C48.6076 29.4602 48.0445 29.8852 47.8347 30.476H43.3848L38.8729 25.9642C40.6802 24.6205 42.3054 23.0639 43.7152 21.3332H50.075L57.0387 28.297C56.9435 28.4958 56.8886 28.7174 56.8886 28.9522C56.8886 29.7924 57.5721 30.476 58.4124 30.476C59.2527 30.476 59.9362 29.7924 59.9362 28.9522C59.9362 28.112 59.2527 27.4284 58.4124 27.4284C58.1776 27.4284 57.9559 27.4834 57.7571 27.5786L50.6446 20.4661C50.5493 20.3709 50.4201 20.3174 50.2854 20.3174H44.5021C45.6655 18.7421 46.6592 17.0401 47.4613 15.238H54.3489C54.4836 15.238 54.6128 15.1845 54.708 15.0893L57.7571 12.0402C57.9559 12.1355 58.1776 12.1904 58.4124 12.1904C59.2527 12.1904 59.9362 11.5068 59.9362 10.6666C59.9362 9.8264 59.2527 9.14281 58.4124 9.14281C57.5721 9.14281 56.8886 9.8264 56.8886 10.6666C56.8886 10.9014 56.9435 11.123 57.0387 11.3219L54.1385 14.2221H47.8888C48.0058 13.9278 48.1186 13.6315 48.2254 13.3324C49.2117 10.5708 48.8808 7.55762 47.4174 5.11022L50.4959 2.03174H56.9775C57.1873 2.6226 57.7504 3.0476 58.4124 3.0476C59.2527 3.0476 59.9362 2.36401 59.9362 1.5238C59.9362 0.683591 59.2527 1.21101e-06 58.4124 1.21101e-06C57.7504 1.21101e-06 57.1873 0.425005 56.9775 1.01587H50.2854C50.1508 1.01587 50.0216 1.06938 49.9263 1.16462L46.8393 4.25168C46.5706 3.89547 46.2759 3.55486 45.9546 3.23358C42.1749 -0.546065 36.0469 -0.54608 32.2672 3.23357L29.9681 5.53271L27.6689 3.28812C23.8893 -0.491533 17.7613 -0.491533 13.9816 3.28812C13.6697 3.60009 13.3831 3.93052 13.1208 4.27552L10.0099 1.16461C9.91463 1.06938 9.78541 1.01587 9.65074 1.01587H2.95869C2.74887 0.425003 2.18575 0 1.5238 0C0.683528 0 0 0.68359 0 1.5238C0 2.36401 0.683528 3.0476 1.5238 3.0476C2.18575 3.0476 2.74887 2.6226 2.95869 2.03174H9.4403L12.5396 5.13105C11.0589 7.5845 10.7199 10.6126 11.7107 13.387C11.8109 13.6676 11.9168 13.9457 12.026 14.2221H5.79771L2.89743 11.3219C2.99267 11.1231 3.0476 10.9014 3.0476 10.6666C3.0476 9.8264 2.36407 9.14281 1.5238 9.14281C0.683528 9.14281 0 9.8264 0 10.6666C0 11.5068 0.683528 12.1904 1.5238 12.1904C1.75861 12.1904 1.9803 12.1355 2.17912 12.0402L5.22815 15.0893C5.32338 15.1845 5.4526 15.238 5.58727 15.238H12.4509C13.2481 17.0394 14.2362 18.7415 15.3941 20.3174H9.65074C9.51607 20.3174 9.38685 20.3709 9.29162 20.4661L2.17912 27.5786C1.9803 27.4834 1.75861 27.4284 1.5238 27.4284C0.683529 27.4284 1.45321e-06 28.112 1.45321e-06 28.9522C1.45321e-06 29.7924 0.683529 30.476 1.5238 30.476C2.36408 30.476 3.0476 29.7924 3.0476 28.9522C3.0476 28.7174 2.99267 28.4958 2.89743 28.297L9.86119 21.3332ZM36.0347 9.25584C38.3124 11.099 39.6188 13.8348 39.6188 16.7618C39.6188 19.5036 38.4463 22.1254 36.4021 23.955L35.7245 23.1981C37.5539 21.5609 38.603 19.215 38.603 16.7618C38.603 14.1429 37.434 11.6949 35.3955 10.0455L36.0347 9.25584ZM37.5871 16.7618C37.5871 20.9629 34.1692 24.3808 29.9681 24.3808C28.4006 24.3808 26.8951 23.9085 25.6141 23.0149L26.1952 22.1817C27.3049 22.9558 28.6096 23.365 29.9681 23.365C33.6091 23.365 36.5712 20.4028 36.5712 16.7618C36.5712 13.1208 33.6091 10.1587 29.9681 10.1587V9.14281C34.1692 9.14281 37.5871 12.5607 37.5871 16.7618ZM29.9681 12.1904C28.15 12.1904 26.5049 13.2671 25.7768 14.9335L24.846 14.5267C25.7357 12.4903 27.7463 11.1745 29.9681 11.1745C33.0489 11.1745 35.5554 13.681 35.5554 16.7618H34.5395C34.5395 14.2411 32.4888 12.1904 29.9681 12.1904ZM31.9998 16.7618C31.9998 17.8839 31.0902 18.7935 29.9681 18.7935C28.846 18.7935 27.9364 17.8839 27.9364 16.7618C27.9364 15.6397 28.846 14.7301 29.9681 14.7301C31.0902 14.7301 31.9998 15.6397 31.9998 16.7618ZM23.365 16.7618C23.365 18.1203 23.7742 19.4249 24.5482 20.5347L23.7152 21.1159C22.8214 19.8348 22.3491 18.3291 22.3491 16.7618C22.3491 13.4154 24.587 10.4121 27.7915 9.45834L28.0812 10.432C25.3044 11.2585 23.365 13.8614 23.365 16.7618ZM24.3808 16.7618H25.3967C25.3967 19.2825 27.4474 21.3332 29.9681 21.3332C31.7862 21.3332 33.4312 20.2565 34.1594 18.5902L35.0902 18.9969C34.2005 21.0333 32.1899 22.3491 29.9681 22.3491C26.8873 22.3491 24.3808 19.8426 24.3808 16.7618ZM29.9681 7.11107C31.4745 7.11107 32.9177 7.44868 34.2576 8.11454L33.8055 9.02426C32.6073 8.42883 31.3163 8.12694 29.9681 8.12694C27.0803 8.12694 24.3957 9.56177 22.787 11.965L21.9427 11.3999C23.7404 8.71436 26.7407 7.11107 29.9681 7.11107ZM20.8666 13.5449L21.8244 13.8835C21.4985 14.8056 21.3332 15.774 21.3332 16.7618C21.3332 21.5231 25.2068 25.3967 29.9681 25.3967C31.3163 25.3967 32.6073 25.0948 33.8055 24.4994L34.2576 25.4091C32.9177 26.0749 31.4745 26.4126 29.9681 26.4126C24.6467 26.4126 20.3174 22.0833 20.3174 16.7618C20.3174 15.6584 20.5021 14.5761 20.8666 13.5449Z" fill="#DCA629"/>
<path d="M43.175 44.1903L40.8591 42.4534C39.7679 41.635 38.3389 41.4186 37.0543 41.8774L24.8894 46.222C26.0552 48.5536 28.758 49.6732 31.2311 48.8488L39.1115 46.222L24.8894 52.3172L10.7767 44.0156C9.0051 42.9735 6.72801 43.496 5.58789 45.2061L22.4929 59.2936C23.3447 60.0035 24.515 60.1947 25.5485 59.7928L42.1591 53.3331L60.4447 56.3807V46.222L43.175 44.1903Z" fill="#DCA629"/>
<path d="M32.4921 34.9242C32.4362 34.7012 32.2376 34.5434 32.0077 34.5395C32.0048 34.5395 32.002 34.5395 31.9991 34.5395C31.7728 34.5395 31.5733 34.6895 31.5109 34.9079L30.029 40.094L28.4316 32.9055C28.3849 32.6956 28.2112 32.5378 27.9978 32.5115C27.784 32.4853 27.5776 32.5963 27.4814 32.7885L24.5743 38.6029H18.793V39.6188H24.8882C25.0805 39.6188 25.2565 39.5101 25.3425 39.338L27.7503 34.5224L29.4717 42.2686C29.5221 42.4955 29.7201 42.6593 29.9524 42.6661C29.9575 42.6663 29.9626 42.6664 29.9676 42.6664C30.1937 42.6664 30.3935 42.5165 30.4559 42.298L31.9665 37.0108L32.5223 39.2341C32.5789 39.4602 32.782 39.6188 33.0151 39.6188H41.1421V38.6029H33.4117L32.4921 34.9242Z" fill="#DCA629"/>
</svg>
