<svg width="46" height="46" viewBox="0 0 46 46" fill="none" xmlns="http://www.w3.org/2000/svg">
<g style="mix-blend-mode:exclusion">
<circle cx="15" cy="15" r="15" fill="#DCA629" fill-opacity="0.4"/>
</g>
<path fill-rule="evenodd" clip-rule="evenodd" d="M17.9229 7.91459C18.802 6.90048 19.889 6.08741 21.1101 5.53059C22.3313 4.97376 23.6579 4.68623 25 4.6875C27.8271 4.6875 30.3604 5.9375 32.0771 7.91459C33.416 7.81898 34.7599 8.01268 36.0173 8.48251C37.2748 8.95235 38.4164 9.68732 39.3646 10.6375C40.3144 11.5856 41.0491 12.7268 41.5189 13.9839C41.9888 15.2409 42.1827 16.5843 42.0875 17.9229C43.1012 18.8022 43.9139 19.8893 44.4704 21.1104C45.0268 22.3315 45.314 23.6581 45.3125 25C45.3138 26.3421 45.0262 27.6687 44.4694 28.8899C43.9126 30.111 43.0995 31.198 42.0854 32.0771C42.1806 33.4157 41.9867 34.7591 41.5169 36.0161C41.047 37.2732 40.3123 38.4145 39.3625 39.3625C38.4145 40.3123 37.2732 41.047 36.0161 41.5168C34.7591 41.9867 33.4157 42.1806 32.0771 42.0854C31.198 43.0995 30.111 43.9126 28.8899 44.4694C27.6687 45.0262 26.3421 45.3138 25 45.3125C23.6579 45.3138 22.3313 45.0262 21.1101 44.4694C19.889 43.9126 18.802 43.0995 17.9229 42.0854C16.5841 42.1813 15.2404 41.9879 13.9829 41.5185C12.7255 41.049 11.5838 40.3144 10.6354 39.3646C9.68535 38.4163 8.95046 37.2747 8.48063 36.0173C8.0108 34.7598 7.81704 33.416 7.91251 32.0771C6.89878 31.1978 6.0861 30.1107 5.52964 28.8896C4.97318 27.6685 4.68597 26.3419 4.68751 25C4.68751 22.1729 5.93751 19.6396 7.91459 17.9229C7.81929 16.5843 8.01313 15.2409 8.48296 13.9838C8.95279 12.7267 9.6876 11.5855 10.6375 10.6375C11.5855 9.6876 12.7267 8.95279 13.9838 8.48296C15.2409 8.01313 16.5843 7.81929 17.9229 7.91459ZM32.5208 21.2208C32.6458 21.0543 32.7363 20.8644 32.7869 20.6624C32.8374 20.4604 32.8471 20.2503 32.8153 20.0445C32.7835 19.8387 32.7109 19.6413 32.6018 19.464C32.4926 19.2866 32.3491 19.1329 32.1797 19.0118C32.0103 18.8907 31.8184 18.8047 31.6152 18.7588C31.4121 18.713 31.2018 18.7082 30.9968 18.7447C30.7918 18.7813 30.5962 18.8584 30.4214 18.9717C30.2467 19.0849 30.0963 19.232 29.9792 19.4042L23.2375 28.8417L19.8542 25.4583C19.558 25.1823 19.1662 25.0321 18.7614 25.0392C18.3566 25.0464 17.9704 25.2103 17.6841 25.4966C17.3979 25.7829 17.2339 26.1691 17.2267 26.5739C17.2196 26.9787 17.3698 27.3705 17.6458 27.6667L22.3333 32.3542C22.4937 32.5144 22.6871 32.6379 22.9 32.7159C23.1129 32.794 23.3402 32.8247 23.5662 32.8061C23.7922 32.7875 24.0114 32.7199 24.2086 32.608C24.4058 32.4962 24.5764 32.3427 24.7083 32.1583L32.5208 21.2208Z" fill="#DCA629"/>
</svg>
