<svg width="65" height="65" viewBox="0 0 65 65" fill="none" xmlns="http://www.w3.org/2000/svg">
<path d="M31.5529 18.5718H11.2693V25.5361H31.5529V18.5718ZM15.7768 23.2146H13.523V20.8932H15.7768V23.2146ZM22.538 23.2146H18.0305V20.8932H22.538V23.2146ZM29.2992 23.2146H24.7917V20.8932H29.2992V23.2146Z" fill="#DCA629"/>
<path d="M46.2022 0H11.2693V6.96429H46.2022V0ZM14.6499 4.64286C14.427 4.64286 14.2092 4.57478 14.0238 4.44724C13.8385 4.3197 13.6941 4.13842 13.6088 3.92633C13.5235 3.71424 13.5012 3.48086 13.5447 3.2557C13.5882 3.03054 13.6955 2.82372 13.8531 2.66139C14.0107 2.49907 14.2115 2.38852 14.4301 2.34373C14.6486 2.29894 14.8752 2.32193 15.0811 2.40978C15.287 2.49763 15.463 2.64641 15.5869 2.83728C15.7107 3.02816 15.7768 3.25258 15.7768 3.48214C15.7768 3.78998 15.658 4.08522 15.4467 4.30289C15.2354 4.52057 14.9488 4.64286 14.6499 4.64286ZM19.1574 4.64286C18.9345 4.64286 18.7166 4.57478 18.5313 4.44724C18.346 4.3197 18.2016 4.13842 18.1163 3.92633C18.031 3.71424 18.0087 3.48086 18.0522 3.2557C18.0956 3.03054 18.203 2.82372 18.3606 2.66139C18.5182 2.49907 18.7189 2.38852 18.9375 2.34373C19.1561 2.29894 19.3827 2.32193 19.5886 2.40978C19.7945 2.49763 19.9705 2.64641 20.0943 2.83728C20.2182 3.02816 20.2842 3.25258 20.2842 3.48214C20.2842 3.78998 20.1655 4.08522 19.9542 4.30289C19.7429 4.52057 19.4562 4.64286 19.1574 4.64286ZM23.6649 4.64286C23.442 4.64286 23.2241 4.57478 23.0388 4.44724C22.8535 4.3197 22.7091 4.13842 22.6238 3.92633C22.5385 3.71424 22.5162 3.48086 22.5596 3.2557C22.6031 3.03054 22.7104 2.82372 22.868 2.66139C23.0256 2.49907 23.2264 2.38852 23.445 2.34373C23.6636 2.29894 23.8902 2.32193 24.0961 2.40978C24.302 2.49763 24.478 2.64641 24.6018 2.83728C24.7256 3.02816 24.7917 3.25258 24.7917 3.48214C24.7917 3.78998 24.673 4.08522 24.4617 4.30289C24.2503 4.52057 23.9637 4.64286 23.6649 4.64286Z" fill="#DCA629"/>
<path d="M21.4102 44.1069H43.9475V37.1426H21.4102V44.1069ZM34.9326 39.464H41.6938V41.7854H34.9326V39.464ZM28.1714 39.464H32.6789V41.7854H28.1714V39.464ZM23.6639 39.464H25.9176V41.7854H23.6639V39.464Z" fill="#DCA629"/>
<path d="M41.6948 48.7499H43.9485V53.3928H46.2022V48.7499H48.456V54.5535C48.456 54.8613 48.3373 55.1566 48.1259 55.3742C47.9146 55.5919 47.628 55.7142 47.3291 55.7142H22.2582L21.7818 59.0263C21.7581 59.1913 21.7692 59.3596 21.8143 59.5198C21.8594 59.68 21.9375 59.8283 22.0433 59.9546C22.1491 60.0809 22.28 60.1822 22.4273 60.2516C22.5745 60.3211 22.7345 60.3571 22.8965 60.3571H55.8845C56.1544 60.3557 56.4149 60.2551 56.6192 60.0735C56.8235 59.892 56.9583 59.6412 56.9991 59.3665L60.8389 32.67C60.8626 32.505 60.8516 32.3367 60.8064 32.1765C60.7613 32.0163 60.6832 31.868 60.5774 31.7417C60.4717 31.6154 60.3407 31.5141 60.1935 31.4446C60.0462 31.3752 59.8862 31.3392 59.7243 31.3392H48.456V32.4999H46.2022V9.28564H43.9485V32.4999H41.6948V9.28564H11.2693V16.2499H32.6798C32.9787 16.2499 33.2653 16.3722 33.4766 16.5899C33.688 16.8076 33.8067 17.1028 33.8067 17.4106V26.6964C33.8067 27.0042 33.688 27.2994 33.4766 27.5171C33.2653 27.7348 32.9787 27.8571 32.6798 27.8571H11.2693V53.3928H41.6948V48.7499ZM55.2172 46.4285H50.7097V44.1071H55.2172V46.4285ZM48.456 41.7856V39.4642H50.7097V41.7856H48.456ZM52.9635 34.8214H55.2172V37.1428H52.9635V34.8214ZM52.9635 39.4642H55.2172V41.7856H52.9635V39.4642ZM19.1574 45.2678V35.9821C19.1574 35.6742 19.2761 35.379 19.4874 35.1613C19.6988 34.9437 19.9854 34.8214 20.2842 34.8214H50.7097V37.1428H46.2022V44.1071H48.456V46.4285H20.2842C19.9854 46.4285 19.6988 46.3062 19.4874 46.0885C19.2761 45.8709 19.1574 45.5756 19.1574 45.2678Z" fill="#DCA629"/>
<path d="M59.7224 62.6782H31.5507C31.2518 62.6782 30.9652 62.8005 30.7539 63.0182C30.5426 63.2359 30.4238 63.5311 30.4238 63.8389C30.4238 64.1468 30.5426 64.442 30.7539 64.6597C30.9652 64.8774 31.2518 64.9997 31.5507 64.9997H59.7224C60.0213 64.9997 60.3079 64.8774 60.5193 64.6597C60.7306 64.442 60.8493 64.1468 60.8493 63.8389C60.8493 63.5311 60.7306 63.2359 60.5193 63.0182C60.3079 62.8005 60.0213 62.6782 59.7224 62.6782Z" fill="#DCA629"/>
<path d="M64.726 31.7418C64.6209 31.6147 64.4901 31.5128 64.3427 31.4433C64.1953 31.3737 64.0349 31.3383 63.8728 31.3394H62.9105C63.0945 31.8748 63.1484 32.4485 63.0676 33.0104L59.2278 59.7068C59.1954 59.9285 59.142 60.1463 59.0684 60.3572H59.7238C59.8281 60.3572 59.9311 60.3629 60.033 60.3724V60.3572C60.303 60.3558 60.5635 60.2553 60.7679 60.0736C60.9722 59.892 61.107 59.6413 61.1479 59.3665L64.9874 32.6702C65.0123 32.5052 65.0017 32.3366 64.9566 32.1762C64.9114 32.0158 64.8327 31.8676 64.726 31.7418Z" fill="#DCA629"/>
<path d="M3.38078 62.6782C3.08191 62.6782 2.79529 62.8005 2.58396 63.0182C2.37263 63.2359 2.25391 63.5311 2.25391 63.8389C2.25391 64.1468 2.37263 64.442 2.58396 64.6597C2.79529 64.8774 3.08191 64.9997 3.38078 64.9997H28.3658C28.1073 64.2487 28.1073 63.4291 28.3658 62.6782H3.38078Z" fill="#DCA629"/>
<path d="M2.25374 16.25H0V18.5714H2.25374V16.25Z" fill="#DCA629"/>
<path d="M2.25374 20.8926H0V23.214H2.25374V20.8926Z" fill="#DCA629"/>
<path d="M6.76155 20.8926H4.50781V23.214H6.76155V20.8926Z" fill="#DCA629"/>
<path d="M9.0135 25.5356H6.75977V27.8571H9.0135V25.5356Z" fill="#DCA629"/>
<path d="M4.50748 25.5356H0V27.8571H4.50748V25.5356Z" fill="#DCA629"/>
<path d="M9.01529 16.25H4.50781V18.5714H9.01529V16.25Z" fill="#DCA629"/>
</svg>
