<svg width="60" height="60" viewBox="0 0 60 60" fill="none" xmlns="http://www.w3.org/2000/svg">
<path d="M57.6562 0H2.34375C1.72215 0 1.12601 0.24693 0.686468 0.686468C0.24693 1.12601 0 1.72215 0 2.34375L0 59.5312C0 59.6556 0.049386 59.7748 0.137294 59.8627C0.225201 59.9506 0.34443 60 0.46875 60H59.5312C59.6556 60 59.7748 59.9506 59.8627 59.8627C59.9506 59.7748 60 59.6556 60 59.5312V7.03125H4.21875C4.09443 7.03125 3.9752 6.98186 3.88729 6.89396C3.79939 6.80605 3.75 6.68682 3.75 6.5625C3.75 6.43818 3.79939 6.31895 3.88729 6.23104C3.9752 6.14314 4.09443 6.09375 4.21875 6.09375H60V2.34375C60 1.72215 59.7531 1.12601 59.3135 0.686468C58.874 0.24693 58.2779 0 57.6562 0ZM2.34375 7.03125C2.25104 7.03125 2.16041 7.00376 2.08333 6.95225C2.00624 6.90074 1.94616 6.82754 1.91068 6.74188C1.8752 6.65623 1.86592 6.56198 1.88401 6.47105C1.90209 6.38012 1.94674 6.2966 2.01229 6.23104C2.07785 6.16549 2.16137 6.12084 2.2523 6.10276C2.34323 6.08467 2.43748 6.09395 2.52313 6.12943C2.60879 6.16491 2.68199 6.22499 2.7335 6.30208C2.78501 6.37916 2.8125 6.46979 2.8125 6.5625C2.8125 6.68682 2.76311 6.80605 2.67521 6.89396C2.5873 6.98186 2.46807 7.03125 2.34375 7.03125ZM31.4062 57.1875H4.21875C4.09443 57.1875 3.9752 57.1381 3.88729 57.0502C3.79939 56.9623 3.75 56.8431 3.75 56.7188C3.75 56.5944 3.79939 56.4752 3.88729 56.3873C3.9752 56.2994 4.09443 56.25 4.21875 56.25H31.4062C31.5306 56.25 31.6498 56.2994 31.7377 56.3873C31.8256 56.4752 31.875 56.5944 31.875 56.7188C31.875 56.8431 31.8256 56.9623 31.7377 57.0502C31.6498 57.1381 31.5306 57.1875 31.4062 57.1875ZM31.4062 54.375H4.21875C4.09443 54.375 3.9752 54.3256 3.88729 54.2377C3.79939 54.1498 3.75 54.0306 3.75 53.9062C3.75 53.7819 3.79939 53.6627 3.88729 53.5748C3.9752 53.4869 4.09443 53.4375 4.21875 53.4375H31.4062C31.5306 53.4375 31.6498 53.4869 31.7377 53.5748C31.8256 53.6627 31.875 53.7819 31.875 53.9062C31.875 54.0306 31.8256 54.1498 31.7377 54.2377C31.6498 54.3256 31.5306 54.375 31.4062 54.375ZM31.4062 51.5625H4.21875C4.09443 51.5625 3.9752 51.5131 3.88729 51.4252C3.79939 51.3373 3.75 51.2181 3.75 51.0938C3.75 50.9694 3.79939 50.8502 3.88729 50.7623C3.9752 50.6744 4.09443 50.625 4.21875 50.625H31.4062C31.5306 50.625 31.6498 50.6744 31.7377 50.7623C31.8256 50.8502 31.875 50.9694 31.875 51.0938C31.875 51.2181 31.8256 51.3373 31.7377 51.4252C31.6498 51.5131 31.5306 51.5625 31.4062 51.5625ZM31.4062 48.75H4.21875C4.09443 48.75 3.9752 48.7006 3.88729 48.6127C3.79939 48.5248 3.75 48.4056 3.75 48.2812C3.75 48.1569 3.79939 48.0377 3.88729 47.9498C3.9752 47.8619 4.09443 47.8125 4.21875 47.8125H31.4062C31.5306 47.8125 31.6498 47.8619 31.7377 47.9498C31.8256 48.0377 31.875 48.1569 31.875 48.2812C31.875 48.4056 31.8256 48.5248 31.7377 48.6127C31.6498 48.7006 31.5306 48.75 31.4062 48.75ZM31.4062 45.9375H4.21875C4.09443 45.9375 3.9752 45.8881 3.88729 45.8002C3.79939 45.7123 3.75 45.5931 3.75 45.4688C3.75 45.3444 3.79939 45.2252 3.88729 45.1373C3.9752 45.0494 4.09443 45 4.21875 45H31.4062C31.5306 45 31.6498 45.0494 31.7377 45.1373C31.8256 45.2252 31.875 45.3444 31.875 45.4688C31.875 45.5931 31.8256 45.7123 31.7377 45.8002C31.6498 45.8881 31.5306 45.9375 31.4062 45.9375ZM31.4062 43.125H4.21875C4.09443 43.125 3.9752 43.0756 3.88729 42.9877C3.79939 42.8998 3.75 42.7806 3.75 42.6562C3.75 42.5319 3.79939 42.4127 3.88729 42.3248C3.9752 42.2369 4.09443 42.1875 4.21875 42.1875H31.4062C31.5306 42.1875 31.6498 42.2369 31.7377 42.3248C31.8256 42.4127 31.875 42.5319 31.875 42.6562C31.875 42.7806 31.8256 42.8998 31.7377 42.9877C31.6498 43.0756 31.5306 43.125 31.4062 43.125ZM7.5 24.8438V36.3422C7.5 36.5241 7.57195 36.6987 7.70016 36.8278C7.82837 36.9569 8.00244 37.03 8.18437 37.0312H20.1562V30.3094C20.1562 29.8781 20.0016 29.5312 19.6875 29.5312H15.9375C15.6234 29.5312 15.4688 29.8781 15.4688 30.3094V35.8078C15.4688 35.9321 15.4194 36.0514 15.3315 36.1393C15.2435 36.2272 15.1243 36.2766 15 36.2766C14.8757 36.2766 14.7565 36.2272 14.6685 36.1393C14.5806 36.0514 14.5312 35.9321 14.5312 35.8078V30.3094C14.5312 29.3719 15.1031 28.5938 15.9375 28.5938H19.6875C20.5219 28.5938 21.0938 29.3531 21.0938 30.3094V37.0312H22.5C22.6243 37.0312 22.7435 37.0806 22.8315 37.1685C22.9194 37.2565 22.9688 37.3757 22.9688 37.5C22.9688 37.6243 22.9194 37.7435 22.8315 37.8315C22.7435 37.9194 22.6243 37.9688 22.5 37.9688H8.18437C7.7538 37.9675 7.34128 37.7956 7.03725 37.4907C6.73322 37.1858 6.5625 36.7728 6.5625 36.3422V24.7781C6.57834 24.2859 6.76004 23.8135 7.07812 23.4375L16.6125 13.125C16.7584 12.9699 16.9346 12.8463 17.1301 12.7619C17.3256 12.6774 17.5363 12.6338 17.7492 12.6338C17.9622 12.6338 18.1729 12.6774 18.3684 12.7619C18.5639 12.8463 18.74 12.9699 18.8859 13.125L28.5281 23.4703C28.8533 23.8306 29.0423 24.2932 29.0625 24.7781V36.3422C29.0625 36.7736 28.8911 37.1873 28.5861 37.4923C28.2811 37.7974 27.8673 37.9688 27.4359 37.9688H26.25C26.1257 37.9688 26.0065 37.9194 25.9185 37.8315C25.8306 37.7435 25.7812 37.6243 25.7812 37.5C25.7812 37.3757 25.8306 37.2565 25.9185 37.1685C26.0065 37.0806 26.1257 37.0312 26.25 37.0312H27.4359C27.6187 37.0312 27.794 36.9587 27.9232 36.8294C28.0524 36.7002 28.125 36.5249 28.125 36.3422V24.8438H7.5ZM24.8438 37.5C24.8438 37.5927 24.8163 37.6833 24.7648 37.7604C24.7132 37.8375 24.64 37.8976 24.5544 37.9331C24.4687 37.9685 24.3745 37.9778 24.2836 37.9597C24.1926 37.9417 24.1091 37.897 24.0435 37.8315C23.978 37.7659 23.9333 37.6824 23.9153 37.5914C23.8972 37.5005 23.9065 37.4063 23.9419 37.3206C23.9774 37.235 24.0375 37.1618 24.1146 37.1102C24.1917 37.0587 24.2823 37.0312 24.375 37.0312C24.4993 37.0312 24.6185 37.0806 24.7065 37.1685C24.7944 37.2565 24.8438 37.3757 24.8438 37.5ZM35.1562 18.75H55.7812C55.9056 18.75 56.0248 18.7994 56.1127 18.8873C56.2006 18.9752 56.25 19.0944 56.25 19.2188C56.25 19.3431 56.2006 19.4623 56.1127 19.5502C56.0248 19.6381 55.9056 19.6875 55.7812 19.6875H35.1562C35.0319 19.6875 34.9127 19.6381 34.8248 19.5502C34.7369 19.4623 34.6875 19.3431 34.6875 19.2188C34.6875 19.0944 34.7369 18.9752 34.8248 18.8873C34.9127 18.7994 35.0319 18.75 35.1562 18.75ZM35.1562 21.5625H55.7812C55.9056 21.5625 56.0248 21.6119 56.1127 21.6998C56.2006 21.7877 56.25 21.9069 56.25 22.0312C56.25 22.1556 56.2006 22.2748 56.1127 22.3627C56.0248 22.4506 55.9056 22.5 55.7812 22.5H35.1562C35.0319 22.5 34.9127 22.4506 34.8248 22.3627C34.7369 22.2748 34.6875 22.1556 34.6875 22.0312C34.6875 21.9069 34.7369 21.7877 34.8248 21.6998C34.9127 21.6119 35.0319 21.5625 35.1562 21.5625ZM35.1562 24.375H55.7812C55.9056 24.375 56.0248 24.4244 56.1127 24.5123C56.2006 24.6002 56.25 24.7194 56.25 24.8438C56.25 24.9681 56.2006 25.0873 56.1127 25.1752C56.0248 25.2631 55.9056 25.3125 55.7812 25.3125H35.1562C35.0319 25.3125 34.9127 25.2631 34.8248 25.1752C34.7369 25.0873 34.6875 24.9681 34.6875 24.8438C34.6875 24.7194 34.7369 24.6002 34.8248 24.5123C34.9127 24.4244 35.0319 24.375 35.1562 24.375ZM35.1562 27.1875H55.7812C55.9056 27.1875 56.0248 27.2369 56.1127 27.3248C56.2006 27.4127 56.25 27.5319 56.25 27.6562C56.25 27.7806 56.2006 27.8998 56.1127 27.9877C56.0248 28.0756 55.9056 28.125 55.7812 28.125H35.1562C35.0319 28.125 34.9127 28.0756 34.8248 27.9877C34.7369 27.8998 34.6875 27.7806 34.6875 27.6562C34.6875 27.5319 34.7369 27.4127 34.8248 27.3248C34.9127 27.2369 35.0319 27.1875 35.1562 27.1875ZM35.1562 30H55.7812C55.9056 30 56.0248 30.0494 56.1127 30.1373C56.2006 30.2252 56.25 30.3444 56.25 30.4688C56.25 30.5931 56.2006 30.7123 56.1127 30.8002C56.0248 30.8881 55.9056 30.9375 55.7812 30.9375H35.1562C35.0319 30.9375 34.9127 30.8881 34.8248 30.8002C34.7369 30.7123 34.6875 30.5931 34.6875 30.4688C34.6875 30.3444 34.7369 30.2252 34.8248 30.1373C34.9127 30.0494 35.0319 30 35.1562 30ZM35.1562 32.8125H55.7812C55.9056 32.8125 56.0248 32.8619 56.1127 32.9498C56.2006 33.0377 56.25 33.1569 56.25 33.2812C56.25 33.4056 56.2006 33.5248 56.1127 33.6127C56.0248 33.7006 55.9056 33.75 55.7812 33.75H35.1562C35.0319 33.75 34.9127 33.7006 34.8248 33.6127C34.7369 33.5248 34.6875 33.4056 34.6875 33.2812C34.6875 33.1569 34.7369 33.0377 34.8248 32.9498C34.9127 32.8619 35.0319 32.8125 35.1562 32.8125ZM35.1562 35.625H55.7812C55.9056 35.625 56.0248 35.6744 56.1127 35.7623C56.2006 35.8502 56.25 35.9694 56.25 36.0938C56.25 36.2181 56.2006 36.3373 56.1127 36.4252C56.0248 36.5131 55.9056 36.5625 55.7812 36.5625H35.1562C35.0319 36.5625 34.9127 36.5131 34.8248 36.4252C34.7369 36.3373 34.6875 36.2181 34.6875 36.0938C34.6875 35.9694 34.7369 35.8502 34.8248 35.7623C34.9127 35.6744 35.0319 35.625 35.1562 35.625ZM34.6875 41.25C34.6875 40.7527 34.885 40.2758 35.2367 39.9242C35.5883 39.5725 36.0652 39.375 36.5625 39.375H54.375C54.8723 39.375 55.3492 39.5725 55.7008 39.9242C56.0525 40.2758 56.25 40.7527 56.25 41.25V55.3125C56.25 55.8098 56.0525 56.2867 55.7008 56.6383C55.3492 56.99 54.8723 57.1875 54.375 57.1875H36.5625C36.0652 57.1875 35.5883 56.99 35.2367 56.6383C34.885 56.2867 34.6875 55.8098 34.6875 55.3125V41.25ZM3.87656 23.5078L16.6406 9.97031C16.9076 9.64406 17.292 9.4357 17.7111 9.39011C18.1302 9.34452 18.5504 9.46534 18.8812 9.72656C18.8949 9.73785 18.9075 9.75041 18.9188 9.76406L24.375 15.6422V14.0625C24.375 13.9382 24.4244 13.819 24.5123 13.731C24.6002 13.6431 24.7194 13.5938 24.8438 13.5938H26.7188C26.8431 13.5938 26.9623 13.6431 27.0502 13.731C27.1381 13.819 27.1875 13.9382 27.1875 14.0625V18.6703L31.7484 23.5875C31.7954 23.6314 31.8328 23.6845 31.8583 23.7435C31.8838 23.8024 31.897 23.866 31.8969 23.9303C31.8968 23.9946 31.8835 24.0581 31.8579 24.117C31.8322 24.176 31.7947 24.229 31.7477 24.2728C31.7006 24.3166 31.6451 24.3502 31.5845 24.3717C31.5239 24.3931 31.4596 24.4019 31.3955 24.3974C31.3314 24.3929 31.2689 24.3753 31.2119 24.3456C31.1548 24.316 31.1045 24.2749 31.0641 24.225L18.2531 10.4203C18.0422 10.2562 17.6766 10.2516 17.3156 10.6172L4.56094 24.15C4.51736 24.1939 4.46552 24.2288 4.4084 24.2526C4.35127 24.2764 4.29001 24.2887 4.22813 24.2887C4.16624 24.2887 4.10498 24.2764 4.04785 24.2526C3.99073 24.2288 3.93889 24.1939 3.89531 24.15C3.81099 24.0655 3.7621 23.952 3.75862 23.8326C3.75513 23.7133 3.79732 23.5971 3.87656 23.5078ZM51.0938 4.21875C51.001 4.21875 50.9104 4.19126 50.8333 4.13975C50.7562 4.08824 50.6962 4.01504 50.6607 3.92938C50.6252 3.84373 50.6159 3.74948 50.634 3.65855C50.6521 3.56762 50.6967 3.4841 50.7623 3.41854C50.8279 3.35299 50.9114 3.30834 51.0023 3.29026C51.0932 3.27217 51.1875 3.28145 51.2731 3.31693C51.3588 3.35241 51.432 3.41249 51.4835 3.48958C51.535 3.56666 51.5625 3.65729 51.5625 3.75C51.5625 3.87432 51.5131 3.99355 51.4252 4.08146C51.3373 4.16936 51.2181 4.21875 51.0938 4.21875ZM52.9688 4.21875C52.876 4.21875 52.7854 4.19126 52.7083 4.13975C52.6312 4.08824 52.5712 4.01504 52.5357 3.92938C52.5002 3.84373 52.4909 3.74948 52.509 3.65855C52.5271 3.56762 52.5717 3.4841 52.6373 3.41854C52.7029 3.35299 52.7864 3.30834 52.8773 3.29026C52.9682 3.27217 53.0625 3.28145 53.1481 3.31693C53.2338 3.35241 53.307 3.41249 53.3585 3.48958C53.41 3.56666 53.4375 3.65729 53.4375 3.75C53.4375 3.87432 53.3881 3.99355 53.3002 4.08146C53.2123 4.16936 53.0931 4.21875 52.9688 4.21875ZM54.8438 4.21875C54.751 4.21875 54.6604 4.19126 54.5833 4.13975C54.5062 4.08824 54.4462 4.01504 54.4107 3.92938C54.3752 3.84373 54.3659 3.74948 54.384 3.65855C54.4021 3.56762 54.4467 3.4841 54.5123 3.41854C54.5779 3.35299 54.6614 3.30834 54.7523 3.29026C54.8432 3.27217 54.9375 3.28145 55.0231 3.31693C55.1088 3.35241 55.182 3.41249 55.2335 3.48958C55.285 3.56666 55.3125 3.65729 55.3125 3.75C55.3125 3.87432 55.2631 3.99355 55.1752 4.08146C55.0873 4.16936 54.9681 4.21875 54.8438 4.21875Z" fill="#DCA629"/>
</svg>
