<svg width="70" height="70" viewBox="0 0 70 70" fill="none" xmlns="http://www.w3.org/2000/svg">
<g filter="url(#filter0_d_68_821)">
<path d="M66 25.4839L58 19.7699L55.059 21.8709C53.698 19.7909 52.039 17.9549 50.108 16.3879C52.544 14.7039 54 11.9699 54 8.99887C54 6.43787 52.904 3.99087 50.994 2.28487C49.084 0.577866 46.515 -0.230134 43.955 0.0568662C39.904 0.514866 36.59 3.77987 36.075 7.81987C35.934 8.92387 36.014 10.0049 36.252 11.0379C34.605 10.9529 32.95 11.0429 31.334 11.2909L30.383 10.3399L27.834 11.6519C27.124 11.2899 26.378 10.9819 25.605 10.7329L24.729 7.99887H17.27L16.394 10.7329C15.621 10.9819 14.874 11.2899 14.165 11.6519L11.616 10.3399L6.342 15.6139L7.654 18.1629C7.292 18.8729 6.984 19.6189 6.735 20.3919L4 21.2699V28.7289L6.734 29.6049C6.983 30.3789 7.291 31.1259 7.653 31.8339L6.341 34.3829L11.615 39.6559L11.906 39.5069C11.963 39.8159 12 40.1279 12 40.4409V44.5489C12 45.6239 12.253 46.6999 12.73 47.6609L15 52.2329V54.1829C13.839 54.5969 13 55.6969 13 56.9989V61.9989H35V58.9989C36.686 58.9989 38.361 58.8159 40 58.4689V58.9989C40 60.6529 41.346 61.9989 43 61.9989H51C52.654 61.9989 54 60.6529 54 58.9989V49.6439C57.061 45.6809 58.757 40.9899 58.959 35.9989H64V27.9989H66V25.4839ZM63.279 25.9989H52.721L58 22.2279L63.279 25.9989ZM47 19.9989C47 21.1019 46.103 21.9989 45 21.9989C43.897 21.9989 43 21.1019 43 19.9989H47ZM44 8.99887C44 8.44687 44.448 7.99887 45 7.99887C45.552 7.99887 46 8.44687 46 8.99887C46 9.55087 45.552 9.99887 45 9.99887C44.448 9.99887 44 9.55087 44 8.99887ZM38.06 8.07287C38.459 4.93587 41.034 2.40087 44.18 2.04587C44.458 2.01387 44.735 1.99787 45.009 1.99787C46.734 1.99787 48.362 2.61487 49.661 3.77587C51.147 5.10387 52 7.00787 52 8.99887C52 11.3889 50.796 13.5899 48.781 14.8859C47.723 15.5659 47.077 16.7189 47.013 17.9989H46V11.8149C47.161 11.4009 48 10.3009 48 8.99887C48 7.34487 46.654 5.99887 45 5.99887C43.346 5.99887 42 7.34487 42 8.99887C42 10.3009 42.839 11.4009 44 11.8149V17.9989H42.985C42.911 16.7069 42.274 15.5599 41.236 14.8959C38.928 13.4219 37.711 10.8079 38.06 8.07287ZM9.654 31.3369C9.17 30.4709 8.782 29.5299 8.502 28.5399L8.356 28.0229L6 27.2699V22.7289L8.356 21.9749L8.502 21.4579C8.781 20.4699 9.169 19.5279 9.655 18.6609L9.917 18.1919L8.787 15.9979L11.999 12.7859L14.193 13.9159L14.662 13.6539C15.529 13.1679 16.471 12.7799 17.459 12.5009L17.976 12.3549L18.729 9.99887H23.27L24.024 12.3549L24.541 12.5009C25.529 12.7799 26.471 13.1679 27.338 13.6539L27.807 13.9159L30.001 12.7859L33.213 15.9979L32.083 18.1919L32.345 18.6609C32.831 19.5279 33.219 20.4699 33.498 21.4579L33.644 21.9749L36 22.7279V27.2689L33.644 28.0229L33.498 28.5399C33.218 29.5299 32.83 30.4709 32.346 31.3369L32.083 31.8049L32.239 32.1089C32.118 32.1409 31.998 32.1739 31.884 32.2189C31.681 31.4689 31.199 30.8389 30.551 30.4439C31.497 28.7919 32 26.9369 32 24.9989C32 18.9339 27.065 13.9989 21 13.9989C14.935 13.9989 10 18.9339 10 24.9989C10 27.6109 10.931 30.0519 12.501 31.9689C11.113 32.0319 10 33.1719 10 34.5749C10 34.8359 10.054 35.0929 10.131 35.3429L8.787 33.9999L9.917 31.8049L9.654 31.3369ZM27 30.7789C26.468 30.2989 25.771 29.9989 25 29.9989C24.648 29.9989 24.314 30.0709 24 30.1829V20.9989C24 19.3449 22.654 17.9989 21 17.9989C19.346 17.9989 18 19.3449 18 20.9989V33.4779C14.462 32.2249 12 28.8409 12 24.9989C12 20.0359 16.037 15.9989 21 15.9989C25.963 15.9989 30 20.0359 30 24.9989C30 26.8249 29.457 28.5619 28.437 30.0559C27.889 30.1609 27.399 30.4189 27 30.7789ZM14.521 46.7719C14.181 46.0859 14 45.3169 14 44.5499V40.4419C14 39.3169 13.733 38.1899 13.23 37.1829L12.065 34.8519C12.022 34.7669 12 34.6709 12 34.5749C12 34.2339 12.277 33.9569 12.714 33.9569C15.629 33.9579 18 36.3299 18 39.2439V40.9569V42.9569H20V40.9569V39.2439V20.9989C20 20.4469 20.448 19.9989 21 19.9989C21.552 19.9989 22 20.4469 22 20.9989V32.9989V36.9989H24V32.9989C24 32.4469 24.448 31.9989 25 31.9989C25.552 31.9989 26 32.4469 26 32.9989V36.9989H28V32.9989C28 32.4469 28.448 31.9989 29 31.9989C29.552 31.9989 30 32.4469 30 32.9989V34.9989V36.9989H32V34.9989C32 34.4469 32.448 33.9989 33 33.9989C33.552 33.9989 34 34.4469 34 34.9989V45.9989C34 47.0739 33.645 48.1399 33 48.9989L31 51.6659V53.9989H17V51.7649L14.521 46.7719ZM33 59.9989H15V56.9989C15 56.4469 15.448 55.9989 16 55.9989H32C32.552 55.9989 33 56.4469 33 56.9989V59.9989ZM52 43.9989H42V42.9989C42 42.4469 42.448 41.9989 43 41.9989H51C51.552 41.9989 52 42.4469 52 42.9989V43.9989ZM42 45.9989H52V55.9989H42V45.9989ZM51 59.9989H43C42.448 59.9989 42 59.5509 42 58.9989V57.9989H52V58.9989C52 59.5509 51.552 59.9989 51 59.9989ZM54 46.0729V42.9989C54 41.3449 52.654 39.9989 51 39.9989H43C41.346 39.9989 40 41.3449 40 42.9989V56.4109C38.362 56.7899 36.676 56.9809 34.998 56.9819C34.991 55.6869 34.156 54.5949 33 54.1829V52.3319L34.6 50.1989C35.503 48.9959 36 47.5049 36 45.9989V34.9989C36 33.9809 35.488 33.0829 34.71 32.5399L34.346 31.8339C34.708 31.1249 35.016 30.3789 35.265 29.6049L38 28.7279V21.2689L35.266 20.3929C35.017 19.6199 34.709 18.8729 34.347 18.1639L35.659 15.6149L33.133 13.0889C34.419 12.9819 35.717 12.9869 37.002 13.1019C37.714 14.4889 38.777 15.6979 40.16 16.5819C40.678 16.9129 41 17.5519 41 18.2489V19.9989C41 22.2049 42.794 23.9989 45 23.9989C47.206 23.9989 49 22.2049 49 19.9989V18.2079C49 18.1619 49.013 18.1199 49.016 18.0739C50.737 19.4979 52.215 21.1589 53.432 23.0329L50 25.4839V27.9989H52V35.9989H56.959C56.8 39.5929 55.795 43.0119 54 46.0729ZM62 33.9989H54V27.9989H62V33.9989Z" fill="#DCA629"/>
<path d="M50 33.999H48V35.999H50V33.999Z" fill="#DCA629"/>
<path d="M46 33.999H44V35.999H46V33.999Z" fill="#DCA629"/>
<path d="M42 33.999H40V35.999H42V33.999Z" fill="#DCA629"/>
</g>
<defs>
<filter id="filter0_d_68_821" x="0" y="0" width="70" height="69.999" filterUnits="userSpaceOnUse" color-interpolation-filters="sRGB">
<feFlood flood-opacity="0" result="BackgroundImageFix"/>
<feColorMatrix in="SourceAlpha" type="matrix" values="0 0 0 0 0 0 0 0 0 0 0 0 0 0 0 0 0 0 127 0" result="hardAlpha"/>
<feOffset dy="4"/>
<feGaussianBlur stdDeviation="2"/>
<feComposite in2="hardAlpha" operator="out"/>
<feColorMatrix type="matrix" values="0 0 0 0 0 0 0 0 0 0 0 0 0 0 0 0 0 0 0.25 0"/>
<feBlend mode="normal" in2="BackgroundImageFix" result="effect1_dropShadow_68_821"/>
<feBlend mode="normal" in="SourceGraphic" in2="effect1_dropShadow_68_821" result="shape"/>
</filter>
</defs>
</svg>
