<svg width="70" height="74" viewBox="0 0 70 74" fill="none" xmlns="http://www.w3.org/2000/svg">
<path d="M42.4793 51.8481C42.4793 51.3195 42.9082 50.887 43.4325 50.887C43.9567 50.887 44.3856 51.3195 44.3856 51.8481V53.5619C44.3856 57.0697 41.4149 59.8247 37.92 59.8247C34.4251 59.8247 31.4544 57.0697 31.4544 53.5619V51.5758C31.4544 51.0472 31.8833 50.6147 32.4076 50.6147C32.9318 50.6147 33.3607 51.0472 33.3607 51.5758V53.5619C33.3607 57.39 38.2695 59.3762 41.1449 56.6052C41.9551 55.8203 42.4634 54.7472 42.4634 53.5619V51.8481H42.4793ZM25.2112 44.2558H30.9143V33.1078L19.651 33.0918C18.1895 34.8697 15.9019 36.9359 12.8995 37.2883C9.21391 37.7208 9.78581 42.7983 12.3117 42.6861C13.9797 42.6061 15.4095 43.2307 15.3142 45.0087C15.1712 47.3312 11.7398 51.0472 10.0241 52.8411C10.1671 52.9853 10.31 53.1455 10.453 53.2896C12.3752 52.8251 14.3769 52.4247 16.4421 52.0883C16.029 51.2234 15.6319 50.3264 15.2824 49.3974C15.0918 48.9009 15.33 48.3563 15.8225 48.1641C16.315 47.9719 16.871 48.2121 17.0616 48.7087C17.4747 49.7818 17.9354 50.8229 18.4278 51.8C20.0959 51.5758 21.7957 51.3835 23.5431 51.2394L24.2739 45.1048C24.3215 44.6082 24.7346 44.2558 25.2112 44.2558ZM32.8365 44.2558H38.0948L39.032 35.3022C39.0797 34.8056 39.4927 34.4372 39.9852 34.4372H49.5963L49.6439 33.1078H32.8365V44.2558ZM40.0011 44.2558H46.3078C45.7201 42.7822 45.8313 41.613 45.8313 40.0593C45.8313 39.5307 46.2602 39.0983 46.7844 39.0983C47.3087 39.0983 47.7376 39.5307 47.7376 40.0593C47.7376 41.629 47.5946 42.8463 48.4207 44.2558H50.613C51.1213 44.2558 51.5344 44.6563 51.5661 45.1528L51.7409 46.6745C54.8545 47.3632 57.9205 44.9926 57.9205 41.7411V40.0593C57.9205 39.5307 58.3495 39.0983 58.8737 39.0983C59.3979 39.0983 59.8269 39.5307 59.8269 40.0593V41.7411C59.8269 45.9216 56.1095 49.1732 51.9633 48.6606L54.0443 66.2797H67.9605L64.8628 36.3593H40.8272L40.0011 44.2558ZM54.2985 68.1857L54.8545 72.9268C54.9181 73.4874 54.4733 74 53.9014 74H21.9228C21.3509 74 20.8902 73.5035 20.9855 72.8788L22.1769 62.7719C9.07094 58.5593 0 46.226 0 32.1468C0 14.3835 14.2657 0 31.8833 0C50.3588 0 64.9898 15.7931 63.6872 34.4372H65.7206C66.229 34.4372 66.6579 34.8537 66.6738 35.3662L69.9939 67.1286C70.0575 67.6892 69.6127 68.1857 69.0408 68.1857H54.2985ZM22.4152 60.8338L22.4629 60.4013C20.4612 58.6234 18.7614 56.3649 17.3793 53.8983C15.5524 54.1866 13.805 54.5069 12.1052 54.8753C15.0759 57.5022 18.5708 59.5524 22.4152 60.8338ZM22.7488 58.0147L23.3207 53.1775C22.0022 53.2896 20.6995 53.4338 19.4286 53.5939C20.3818 55.2277 21.4938 56.7333 22.7488 58.0147ZM49.771 46.1779H26.0531L23.003 72.0779H52.8529L49.771 46.1779ZM51.4708 34.4372H56.6497C56.1731 33.5403 55.9189 32.5472 55.9507 31.474C56.0778 27.6459 51.3914 25.2753 48.2618 24.1221C46.1331 23.3372 44.2427 22.9368 43.496 22.8407C37.8565 27.4377 38.3807 24.4584 35.7277 24.8268C34.6793 24.971 33.7102 25.0351 32.8524 25.019V31.1697H49.6121L49.4692 28.1745C49.4215 27.6459 49.8187 27.1814 50.3429 27.1494C50.8671 27.1013 51.3278 27.5017 51.3596 28.0303L51.5026 31.1537H53.7266C54.2509 31.1537 54.6798 31.5861 54.6798 32.1147C54.6798 32.6433 54.2509 33.0758 53.7266 33.0758H51.5026L51.4708 34.4372ZM30.9301 24.8749C29.9134 24.6987 28.8491 24.3143 28.3884 23.4333C27.5305 21.8316 29.2462 20.326 30.9301 19.3009V13.5827C26.625 13.5346 22.4311 13.2463 18.3325 12.6697C16.8869 15.5688 15.759 18.9485 15.0441 22.6325C14.9488 23.161 14.4404 23.4974 13.9321 23.3853C13.4078 23.2892 13.0742 22.7766 13.1854 22.2641C13.9003 18.6442 14.9805 15.2965 16.3785 12.3814C14.2816 12.045 12.2481 11.6286 10.31 11.1641C6.67214 14.9762 4.01917 19.7333 2.74829 25.0351C7.06929 24.6346 11.9463 26.845 15.0759 25.3234C17.6494 24.074 20.6519 23.161 22.1134 24.8589C23.3843 26.3485 22.5264 28.7511 21.4938 30.4649L21.0649 31.1857H30.946V24.8749H30.9301ZM32.8365 18.2117C38.1265 15.1524 38.5555 14.3355 38.4125 13.3745C36.6332 13.4866 34.6316 13.5667 32.8365 13.5827V18.2117ZM38.1424 11.4844C38.1265 10.4593 38.4125 9.11385 39.5245 7.17576L41.542 3.52381C38.7937 2.57879 35.8707 2.0342 32.8365 1.93809V11.6766C34.6793 11.6606 36.3155 11.5965 38.1424 11.4844ZM11.9304 9.59437C13.6461 9.97879 15.4254 10.3152 17.2681 10.6035C18.8409 7.75238 20.8584 5.12554 23.3207 3.18745C19.0474 4.45281 15.1712 6.6632 11.9304 9.59437ZM19.3016 10.8758C23.0665 11.3723 26.911 11.6286 30.9301 11.6606V1.93809C30.2312 1.95411 30.6124 1.98615 30.247 2.05022C25.656 2.771 21.891 6.45498 19.3016 10.8758Z" fill="#DCA629"/>
</svg>
