<svg width="72" height="72" viewBox="0 0 72 72" fill="none" xmlns="http://www.w3.org/2000/svg">
<path d="M67.1998 58.0409V36C67.1998 34.674 66.1258 33.6 64.7998 33.6H57.4588C56.3488 23.6067 48.3956 15.6541 38.4 14.5412V9.60019H58.0409C59.034 12.3872 61.674 14.4002 64.8 14.4002C68.769 14.4002 72 11.1692 72 7.20018C72 3.23114 68.769 0.000153626 64.8 0.000153626C61.674 0.000153626 59.034 2.01317 58.0409 4.80017H36C34.674 4.80017 33.6 5.87415 33.6 7.20018V14.5412C23.6037 15.6512 15.6541 23.6075 14.5412 33.6H9.60019V13.9591C12.3872 12.966 14.4002 10.326 14.4002 7.20003C14.4002 3.23099 11.1692 0 7.20018 0C3.23114 0 0.000153443 3.23099 0.000153443 7.20003C0.000153443 10.326 2.01317 12.966 4.80017 13.9591V36C4.80017 37.326 5.87415 38.4 7.20018 38.4H14.5412C15.6512 48.3963 23.6044 56.3459 33.6 57.4588V62.3998H13.9591C12.966 59.6128 10.326 57.5998 7.20003 57.5998C3.23099 57.5998 0 60.8308 0 64.7998C0 68.7689 3.23099 71.9998 7.20003 71.9998C10.326 71.9998 12.966 69.9868 13.9591 67.1998H36C37.326 67.1998 38.4 66.1258 38.4 64.7998V57.4588C48.3963 56.3488 56.3459 48.3956 57.4588 38.4H62.3998V58.0409C59.6128 59.034 57.5998 61.674 57.5998 64.8C57.5998 68.769 60.8308 72 64.7998 72C68.7689 72 71.9998 68.769 71.9998 64.8C71.9998 61.674 69.9868 59.034 67.1998 58.0409ZM64.7998 4.79987C66.1258 4.79987 67.1998 5.87684 67.1998 7.19988C67.1998 8.52292 66.1258 9.59989 64.7998 9.59989C63.4738 9.59989 62.3998 8.52292 62.3998 7.19988C62.3998 5.87684 63.4738 4.79987 64.7998 4.79987ZM7.19957 4.79987C8.5256 4.79987 9.59958 5.87684 9.59958 7.19988C9.59958 8.52292 8.5256 9.59989 7.19957 9.59989C5.87354 9.59989 4.79956 8.52292 4.79956 7.19988C4.79956 5.87684 5.87354 4.79987 7.19957 4.79987ZM7.19957 67.2001C5.87354 67.2001 4.79956 66.1262 4.79956 64.8001C4.79956 63.4741 5.87354 62.4001 7.19957 62.4001C8.5256 62.4001 9.59958 63.4741 9.59958 64.8001C9.59958 66.1262 8.5256 67.2001 7.19957 67.2001ZM52.6078 33.6H45.5368C45.3178 28.848 44.4507 24.2457 42.9657 20.7329C48.0597 23.0669 51.7799 27.8669 52.6078 33.6ZM35.9997 52.8001C34.7127 52.8001 31.7127 47.766 31.2626 38.4H40.7367C40.2867 47.7658 37.2867 52.8001 35.9997 52.8001ZM31.2626 33.6C31.7127 24.2342 34.7127 19.1999 35.9997 19.1999C37.2867 19.1999 40.2867 24.234 40.7367 33.6H31.2626ZM29.0307 20.7329C27.5457 24.2459 26.6787 28.8507 26.4596 33.6H19.3916C20.2166 27.867 23.9395 23.0668 29.0307 20.7329ZM19.3915 38.4H26.4595C26.6785 43.152 27.5455 47.7543 29.0305 51.2671C23.9365 48.9331 20.2163 44.1331 19.3915 38.4ZM42.9684 51.2671C44.4534 47.7541 45.3204 43.1493 45.5394 38.4H52.6075C51.7825 44.133 48.0596 48.9301 42.9684 51.2671ZM64.7997 67.2001C63.4736 67.2001 62.3997 66.1262 62.3997 64.8001C62.3997 63.4741 63.4736 62.4001 64.7997 62.4001C66.1257 62.4001 67.1997 63.4741 67.1997 64.8001C67.1997 66.1262 66.1257 67.2001 64.7997 67.2001Z" fill="#521212"/>
</svg>
