<svg width="161" height="146" viewBox="0 0 161 146" fill="none" xmlns="http://www.w3.org/2000/svg">
<path d="M8.96484 139.352C4.39453 139.352 1.30371 137.11 1.04004 133.492L1.02539 133.287H3.66211L3.69141 133.492C3.99902 135.616 6.0498 136.92 9.11133 136.92C12.1582 136.92 14.0771 135.543 14.0771 133.36V133.346C14.0771 131.485 12.8613 130.445 9.96094 129.801L7.61719 129.288C3.48633 128.38 1.55273 126.52 1.55273 123.429V123.414C1.56738 119.942 4.64355 117.511 8.99414 117.511C13.125 117.511 16.1426 119.898 16.377 123.355L16.3916 123.575H13.7549L13.7256 123.37C13.4033 121.217 11.6016 119.942 8.9209 119.942C6.09375 119.957 4.24805 121.305 4.24805 123.341V123.355C4.24805 125.084 5.52246 126.168 8.27637 126.769L10.6201 127.281C14.9561 128.233 16.7725 129.991 16.7725 133.214V133.229C16.7725 136.979 13.7988 139.352 8.96484 139.352ZM25.7812 139.293C21.5479 139.293 18.7207 136.231 18.7207 131.383V131.354C18.7207 126.505 21.5625 123.473 25.7666 123.473C29.9707 123.473 32.8271 126.49 32.8271 131.354V131.383C32.8271 136.246 29.9854 139.293 25.7812 139.293ZM25.7959 137.037C28.4766 137.037 30.2197 134.957 30.2197 131.383V131.354C30.2197 127.779 28.4619 125.729 25.7666 125.729C23.1152 125.729 21.3281 127.794 21.3281 131.354V131.383C21.3281 134.972 23.1006 137.037 25.7959 137.037ZM41.7188 139.293C37.3975 139.293 34.6582 136.217 34.6582 131.368V131.354C34.6582 126.549 37.4561 123.473 41.6895 123.473C45.4834 123.473 47.7246 125.992 48.0469 128.6L48.0615 128.717H45.5713L45.542 128.6C45.1611 127.076 43.9307 125.729 41.6895 125.729C39.0381 125.729 37.2656 127.926 37.2656 131.383V131.397C37.2656 134.942 39.082 137.037 41.7188 137.037C43.7988 137.037 45.1318 135.865 45.5566 134.166L45.5859 134.049H48.0908L48.0762 134.151C47.666 137.052 45.1611 139.293 41.7188 139.293ZM51.8701 121.188C50.9912 121.188 50.2734 120.47 50.2734 119.591C50.2734 118.697 50.9912 117.994 51.8701 117.994C52.7637 117.994 53.4668 118.697 53.4668 119.591C53.4668 120.47 52.7637 121.188 51.8701 121.188ZM50.5957 139V123.766H53.1445V139H50.5957ZM61.0693 139.293C58.0371 139.293 56.001 137.462 56.001 134.693V134.664C56.001 132.071 58.0225 130.445 61.5234 130.24L65.8887 129.991V128.717C65.8887 126.856 64.6729 125.729 62.5488 125.729C60.5859 125.729 59.3555 126.666 59.0625 128.028L59.0332 128.16H56.5723L56.5869 127.999C56.8066 125.494 58.9893 123.473 62.5781 123.473C66.1816 123.473 68.4375 125.421 68.4375 128.468V139H65.8887V136.524H65.8301C64.9365 138.194 63.1055 139.293 61.0693 139.293ZM58.6084 134.693C58.6084 136.158 59.8096 137.081 61.6406 137.081C64.043 137.081 65.8887 135.426 65.8887 133.214V131.969L61.8164 132.218C59.7803 132.335 58.6084 133.243 58.6084 134.664V134.693ZM71.8066 139V117.862H74.3555V139H71.8066ZM84.3457 139V117.862H87.3926L94.7168 135.675H94.8047L102.129 117.862H105.176V139H102.715V122.667H102.627L95.874 139H93.6475L86.8945 122.667H86.8066V139H84.3457ZM115.151 139.293C110.771 139.293 108.135 136.231 108.135 131.441V131.427C108.135 126.71 110.83 123.473 114.99 123.473C119.15 123.473 121.685 126.563 121.685 131.134V132.071H110.713C110.771 135.206 112.5 137.037 115.21 137.037C117.144 137.037 118.506 136.07 118.945 134.767L118.989 134.635H121.494L121.465 134.781C120.967 137.301 118.477 139.293 115.151 139.293ZM114.976 125.729C112.764 125.729 111.035 127.237 110.757 130.079H119.092C118.843 127.12 117.202 125.729 114.976 125.729ZM129.99 139.293C126.094 139.293 123.516 136.188 123.516 131.383V131.368C123.516 126.563 126.123 123.473 129.946 123.473C132.1 123.473 133.872 124.557 134.824 126.314H134.883V117.862H137.432V139H134.883V136.422H134.824C133.872 138.194 132.173 139.293 129.99 139.293ZM130.488 137.037C133.066 137.037 134.897 134.796 134.897 131.383V131.368C134.897 127.97 133.052 125.729 130.488 125.729C127.793 125.729 126.123 127.896 126.123 131.368V131.383C126.123 134.884 127.793 137.037 130.488 137.037ZM142.31 121.188C141.431 121.188 140.713 120.47 140.713 119.591C140.713 118.697 141.431 117.994 142.31 117.994C143.203 117.994 143.906 118.697 143.906 119.591C143.906 120.47 143.203 121.188 142.31 121.188ZM141.035 139V123.766H143.584V139H141.035ZM151.509 139.293C148.477 139.293 146.44 137.462 146.44 134.693V134.664C146.44 132.071 148.462 130.445 151.963 130.24L156.328 129.991V128.717C156.328 126.856 155.112 125.729 152.988 125.729C151.025 125.729 149.795 126.666 149.502 128.028L149.473 128.16H147.012L147.026 127.999C147.246 125.494 149.429 123.473 153.018 123.473C156.621 123.473 158.877 125.421 158.877 128.468V139H156.328V136.524H156.27C155.376 138.194 153.545 139.293 151.509 139.293ZM149.048 134.693C149.048 136.158 150.249 137.081 152.08 137.081C154.482 137.081 156.328 135.426 156.328 133.214V131.969L152.256 132.218C150.22 132.335 149.048 133.243 149.048 134.664V134.693Z" fill="white" fill-opacity="0.7"/>
<path d="M80 34.1757C45.7577 34.1757 18 0.0304146 18 34.1757C18 50.5725 24.5321 66.2978 36.1594 77.8921C47.7866 89.4864 63.5566 96 80 96C96.4434 96 112.213 89.4864 123.841 77.8921C135.468 66.2978 142 50.5725 142 34.1757C142 0.0304146 114.241 34.1757 80 34.1757Z" fill="#D6A1D5"/>
<mask id="path-3-outside-1_24_42" maskUnits="userSpaceOnUse" x="47" y="0" width="66" height="62" fill="black">
<rect fill="white" x="47" width="66" height="62"/>
<path fill-rule="evenodd" clip-rule="evenodd" d="M65.5763 14.8173C67.4488 11.086 66.3374 6.54774 62.9559 4.10603C59.5744 1.66418 54.9235 2.04127 51.9792 4.99995C49.0349 7.95599 48.6715 12.6154 51.1207 15.9934C53.5699 19.3713 58.1075 20.4683 61.829 18.5829C61.9923 18.4985 62.1793 18.48 62.3558 18.5275L66.6591 19.6824L65.5056 15.3736C65.4555 15.1864 65.4819 14.986 65.5767 14.8146L65.5763 14.8173ZM80.4721 26.5411C81.7336 26.5411 82.8187 27.4324 83.0636 28.6691C83.3086 29.9058 82.6475 31.1453 81.4834 31.6278C80.3194 32.1104 78.9789 31.7043 78.2784 30.6548C77.5778 29.6052 77.7148 28.2077 78.6049 27.3164C79.1 26.818 79.7716 26.5411 80.4721 26.5411ZM81.2859 28.3712C80.8988 27.9835 80.2956 27.9255 79.8401 28.2288C79.3871 28.532 79.2106 29.1148 79.4187 29.6184C79.6267 30.1247 80.164 30.4122 80.6986 30.304C81.2359 30.1986 81.6204 29.7292 81.6204 29.1807C81.6204 28.8774 81.5019 28.5847 81.2859 28.3712ZM75.7949 25.0301C76.8536 23.9727 78.2388 23.3082 79.7242 23.1447V21.0272C77.6331 21.0035 75.5447 20.8637 73.4694 20.6132C72.5819 20.5051 71.7128 20.3759 70.8621 20.2256C70.072 23.8145 69.6586 27.4744 69.627 31.1481H74.2542C74.1041 30.5574 74.0278 29.9509 74.0251 29.3444C74.0014 27.728 74.6414 26.1721 75.7896 25.0382L75.7949 25.0301ZM81.2254 23.1368V23.1394C82.7133 23.3029 84.1012 23.9701 85.1599 25.0301C86.3108 26.1667 86.9481 27.7199 86.9271 29.3363C86.9244 29.9454 86.8481 30.552 86.698 31.1426H91.3226C91.291 27.4693 90.8775 23.8121 90.0848 20.2255C89.3579 20.3521 88.6152 20.4655 87.8568 20.563H87.8594C85.6577 20.8452 83.4428 21.0008 81.2227 21.0271V23.1446L81.2254 23.1368ZM86.1792 32.6403C85.9211 33.2205 85.6077 33.7769 85.2469 34.3016L81.2227 40.1715V42.7663C83.3454 42.79 85.4655 42.9324 87.5724 43.1935C88.4283 43.299 89.2657 43.4255 90.0848 43.5679C90.8749 39.9817 91.2884 36.3218 91.32 32.6481L86.1792 32.6403ZM79.7242 40.1714L75.7028 34.3041V34.3067C75.342 33.782 75.0312 33.2256 74.7705 32.6455H69.6271C69.6376 33.4497 69.6613 34.233 69.7034 34.9898C69.7456 35.7835 69.8035 36.572 69.8799 37.3499H71.3863H71.3837C73.1297 37.3525 74.5466 38.7712 74.5493 40.5195V43.0641C75.3657 42.9798 76.2032 42.9138 77.0591 42.8637C77.9466 42.8136 78.8368 42.782 79.7243 42.7688L79.7242 40.1714ZM80.4722 24.6003C79.1133 24.595 77.8096 25.133 76.8484 26.0928C75.9819 26.9498 75.5026 28.1206 75.521 29.3389C75.571 30.8235 76.0662 32.258 76.9353 33.4605L80.4722 38.6184L84.0091 33.4605C84.8809 32.2581 85.3733 30.8236 85.426 29.3389C85.4418 28.1233 84.9625 26.9524 84.0987 26.0981C83.1348 25.1382 81.8311 24.6002 80.4722 24.6056V24.6003ZM54.5444 51.7663C54.131 51.7663 53.7965 51.4287 53.7965 51.0147C53.7965 50.6007 54.1309 50.2658 54.5444 50.2658H70.4778C70.8913 50.2658 71.2284 50.6007 71.2284 51.0147C71.2284 51.4287 70.8913 51.7663 70.4778 51.7663H54.5444ZM54.5444 47.5023C54.131 47.5023 53.7965 47.1648 53.7965 46.7507C53.7965 46.3367 54.1309 46.0018 54.5444 46.0018H70.4778C70.8913 46.0018 71.2284 46.3367 71.2284 46.7507C71.2284 47.1648 70.8913 47.5023 70.4778 47.5023H54.5444ZM54.5444 43.2383C54.3416 43.2436 54.1468 43.1671 53.9993 43.0274C53.8544 42.885 53.7728 42.6925 53.7728 42.4894C53.7728 42.2864 53.8544 42.0912 53.9993 41.9515C54.1468 41.8091 54.3416 41.7326 54.5444 41.7405H63.0852C63.2854 41.7326 63.4829 41.8091 63.6277 41.9515C63.7726 42.0912 63.8569 42.2864 63.8569 42.4894C63.8569 42.6925 63.7726 42.885 63.6277 43.0274C63.4829 43.1671 63.2854 43.2436 63.0852 43.2383H54.5444ZM53.6411 37.3526H54.2284C54.0757 36.6142 53.9545 35.8706 53.865 35.119C53.4884 31.9784 53.6675 28.7956 54.3891 25.7154C54.7868 24.0304 55.3477 22.3875 56.0641 20.8106C53.7254 20.3518 51.6291 19.0703 50.1517 17.198C48.6742 15.3257 47.9131 12.9867 48.0079 10.6029C48.1027 8.21913 49.0456 5.94605 50.6652 4.1977C52.2875 2.44942 54.4786 1.33921 56.8463 1.065C59.2139 0.79339 61.6026 1.37879 63.5751 2.7131C65.5504 4.05006 66.983 6.04886 67.6151 8.35097C72 5.94342 76.9723 4.81478 81.9655 5.09432C86.9586 5.37387 91.7731 7.0483 95.8655 9.92792C95.9445 9.8409 96.0288 9.75651 96.113 9.6695V9.67214C98.0593 7.72343 100.772 6.74775 103.514 7.0088C106.253 7.26722 108.734 8.73866 110.279 11.0196C111.823 13.3006 112.273 16.1512 111.501 18.7984C110.732 21.4433 108.823 23.6056 106.295 24.6973C106.59 25.7547 106.819 26.828 106.979 27.9118C107.443 31.0234 107.359 34.193 106.732 37.2756C106.418 38.8288 105.965 40.3477 105.378 41.8191C105.834 42.1276 106.26 42.4784 106.648 42.866C108.259 44.4376 109.178 46.5894 109.194 48.8414C109.21 51.0934 108.323 53.2584 106.732 54.851C105.141 56.4438 102.979 57.3298 100.73 57.3139C98.4808 57.2981 96.3318 56.3778 94.7622 54.764C94.7279 54.7297 94.6937 54.6955 94.6621 54.6612C86.9195 59.5027 77.2488 60.0643 68.9979 56.1537H60.9284L55.5453 60.6946C55.1292 61.0453 54.5419 61.098 54.0705 60.8317C53.5991 60.5627 53.3436 60.0301 53.4305 59.4921L53.9783 56.1511H53.6386L53.6412 56.1537C51.8925 56.1511 50.4783 54.7324 50.4756 52.9841V40.5163C50.4783 38.768 51.8925 37.3493 53.6412 37.3467L53.6411 37.3526ZM55.7559 37.3526H68.379C68.3105 36.6063 68.2526 35.8442 68.2131 35.0689C68.1709 34.2594 68.1446 33.4551 68.1341 32.6535H55.182C55.2057 33.4287 55.261 34.1935 55.3505 34.945C55.448 35.7678 55.5823 36.5693 55.7561 37.3552L55.7559 37.3526ZM74.5493 44.5649V53.0215C75.2946 54.2371 76.2611 55.2998 77.3989 56.1595C78.0862 56.671 78.8842 57.0164 79.7269 57.1721V44.2668C78.8421 44.2774 77.9809 44.3064 77.1434 44.3565C76.2717 44.4066 75.4052 44.4778 74.5493 44.5701V44.5649ZM73.9725 54.8043C73.8672 54.9546 73.7487 55.0944 73.617 55.2236C73.2983 55.5427 72.9138 55.7905 72.4924 55.9514C73.2535 56.2045 74.0331 56.4234 74.8231 56.6027C75.1471 56.6766 75.4763 56.7451 75.8054 56.8058V56.8084C75.126 56.2072 74.5124 55.5348 73.9725 54.8043ZM71.3837 38.8451C72.3055 38.8478 73.0534 39.594 73.0534 40.517V52.9821C73.0508 53.9024 72.3055 54.6513 71.3863 54.6513H60.6598C60.4596 54.6513 60.2674 54.733 60.1252 54.8781L54.9923 59.2106L55.5954 55.5268C55.627 55.329 55.5796 55.1286 55.4637 54.9678C55.3478 54.8069 55.174 54.6988 54.9791 54.6672C54.9396 54.6619 54.8975 54.6593 54.858 54.6593H53.6412C52.7195 54.6566 51.9741 53.9103 51.9715 52.9874V40.5169C51.9741 39.594 52.7195 38.8477 53.6412 38.8451L71.3837 38.8451ZM107.804 14.9565C107.206 14.358 106.274 14.2683 105.573 14.7377C104.873 15.2071 104.599 16.1062 104.923 16.8842C105.247 17.6647 106.074 18.1077 106.901 17.9442C107.728 17.7781 108.323 17.0529 108.323 16.2091C108.323 15.7371 108.136 15.2862 107.804 14.9565ZM106.824 16.2091C106.824 16.0799 106.732 15.9665 106.606 15.9428C106.479 15.9164 106.353 15.985 106.303 16.1063C106.253 16.225 106.295 16.3621 106.403 16.4333C106.511 16.5071 106.653 16.4913 106.745 16.4016C106.798 16.3489 106.824 16.2803 106.824 16.2091ZM103.893 14.9565C103.295 14.358 102.36 14.2657 101.657 14.735C100.957 15.2044 100.683 16.1036 101.007 16.8868C101.328 17.6673 102.158 18.1104 102.985 17.9442C103.814 17.7807 104.409 17.0529 104.409 16.2091C104.412 15.7371 104.225 15.2862 103.893 14.9565ZM102.913 16.2091C102.913 16.1353 102.885 16.0667 102.834 16.0166C102.782 15.9639 102.713 15.9349 102.642 15.9349C102.492 15.9349 102.368 16.0588 102.368 16.2091C102.368 16.2803 102.397 16.3489 102.45 16.4016C102.555 16.5071 102.727 16.5071 102.834 16.4016C102.885 16.3489 102.913 16.2803 102.913 16.2091ZM99.9796 14.9565C99.3844 14.358 98.4469 14.2657 97.7463 14.735C97.0432 15.2044 96.7719 16.1036 97.0932 16.8868C97.4171 17.6673 98.2467 18.1104 99.0737 17.9442C99.9007 17.7807 100.498 17.0529 100.498 16.2091C100.498 15.7371 100.311 15.2862 99.9796 14.9565ZM99 16.2091C99 16.0799 98.9078 15.9665 98.7814 15.9428C98.655 15.9164 98.5285 15.985 98.4785 16.1063C98.4311 16.225 98.4706 16.3621 98.5786 16.4333C98.6866 16.5071 98.8288 16.4913 98.9209 16.4016C98.9736 16.3489 99 16.2803 99 16.2091ZM94.2779 20.1277C94.162 19.8824 94.0593 19.6346 93.9698 19.3814C93.1903 19.5897 92.387 19.7769 91.5574 19.951H91.5548C92.3633 23.6295 92.7873 27.3848 92.8189 31.153H105.766C105.708 29.1331 105.41 27.1316 104.881 25.1829C104.623 25.2461 104.365 25.2989 104.101 25.3411C102.274 25.6338 100.404 25.3727 98.7286 24.5895L93.896 25.8869H93.8933C93.6352 25.9555 93.3587 25.8817 93.1717 25.6892C92.9821 25.4993 92.911 25.2224 92.9821 24.964L94.2752 20.1331L94.2779 20.1277ZM93.5721 17.939C93.1217 15.5684 93.6142 13.116 94.9415 11.1039C92.0024 9.0471 88.6604 7.64424 85.1366 6.98761C86.9669 8.71483 88.4076 10.8139 89.3583 13.1449C90.1141 14.8748 90.7304 16.6653 91.1992 18.4927C92.0129 18.3266 92.8057 18.1394 93.572 17.9363L93.5721 17.939ZM94.9995 14.9803V14.9829C94.744 16.5862 94.9969 18.2317 95.7237 19.6873C95.8186 19.8561 95.8449 20.0565 95.7948 20.2464L94.7625 24.1016L98.6128 23.0679C98.7893 23.0205 98.9762 23.0389 99.1395 23.1233C102.126 24.6369 105.747 24.0568 108.112 21.6835C110.477 19.3129 111.049 15.6844 109.529 12.6991C108.01 9.7114 104.744 8.04223 101.439 8.5617C98.1312 9.08118 95.5315 11.6709 94.9995 14.9803ZM92.9005 45.6849C92.3448 45.5478 91.7786 45.4186 91.1966 45.2999L91.1992 45.3026C90.7305 47.13 90.1142 48.9179 89.3583 50.6451C88.4076 52.9788 86.967 55.0779 85.1341 56.8051C88.1759 56.2381 91.0886 55.1148 93.722 53.4931C92.1814 51.1831 91.8759 48.264 92.9056 45.6853L92.9005 45.6849ZM89.7271 45.0231C88.966 44.8912 88.1864 44.7778 87.3911 44.6776V44.6803C85.3447 44.4271 83.2853 44.29 81.2232 44.2663V57.1715C83.8147 56.7416 86.1902 54.0967 87.9969 50.0387L87.9943 50.0361C88.7054 48.4144 89.2874 46.7399 89.7324 45.0258L89.7271 45.0231ZM91.5521 43.8443C92.2527 43.9867 92.9348 44.145 93.6011 44.3164C95.8186 40.8092 100.256 39.4432 104.059 41.0966C105.11 38.399 105.687 35.5405 105.766 32.6448H92.8164C92.7848 36.413 92.3608 40.1657 91.5523 43.8468L91.5521 43.8443ZM67.7683 18.0386C68.4109 18.2021 69.0719 18.3551 69.7514 18.4922H69.7488C70.2176 16.6622 70.8338 14.8743 71.5897 13.147C72.5404 10.8133 73.981 8.71166 75.814 6.98707C75.1081 7.11892 74.4129 7.27978 73.7281 7.46701H73.7307C71.695 8.02868 69.7408 8.84616 67.9105 9.89569C68.1133 11.7311 67.8052 13.5848 67.023 15.2566L67.7657 18.036L67.7683 18.0386ZM71.221 18.7691C72.0137 18.9062 72.8248 19.0248 73.6518 19.125V19.1224C75.6665 19.3676 77.6944 19.5021 79.7249 19.5259V6.62606C77.1334 7.05589 74.7579 9.70078 72.9512 13.7588H72.9538C72.2427 15.3805 71.6633 17.0576 71.2209 18.7717L71.221 18.7691ZM81.2288 19.5285H81.2262C83.3831 19.5021 85.5374 19.3545 87.6759 19.0802C88.3738 18.9906 89.0585 18.8851 89.7327 18.7691C89.2903 17.055 88.7083 15.3779 87.9998 13.7562C86.1905 9.69788 83.815 7.05297 81.2234 6.62613V19.5313L81.2288 19.5285ZM69.4013 19.9478C69.001 19.866 68.6033 19.779 68.2136 19.6867L68.4427 20.5385H68.44C68.5138 20.7969 68.4427 21.0738 68.2531 21.2636C68.0634 21.4561 67.7869 21.5299 67.5288 21.4614L62.2432 20.0427C60.8027 20.7204 59.2225 21.0447 57.6318 20.9867C56.1175 24.1642 55.2853 27.6239 55.1878 31.1417H68.1291C68.1634 27.3761 68.5874 23.6208 69.3959 19.9423L69.4013 19.9478ZM105.592 43.9234C103.264 41.5897 99.6116 41.2285 96.8697 43.0612C94.1307 44.8938 93.0641 48.4116 94.3256 51.4597C95.5871 54.5077 98.8238 56.2405 102.055 55.5971C105.287 54.9536 107.615 52.1136 107.615 48.812C107.618 46.9793 106.891 45.2182 105.592 43.9234ZM100.736 52.2591C100.736 53.2111 101.395 54.0364 102.324 54.25C103.251 54.4609 104.202 54.0021 104.615 53.1451C105.029 52.2855 104.795 51.2544 104.049 50.6611C103.307 50.0651 102.25 50.0651 101.505 50.6584L98.8426 49.1211C98.8584 49.0183 98.8663 48.9181 98.8663 48.8179C98.8663 48.715 98.8584 48.6122 98.8426 48.512L101.5 46.9773V46.9746C102.245 47.5732 103.304 47.5732 104.052 46.9799C104.8 46.384 105.037 45.3502 104.623 44.488C104.21 43.6257 103.257 43.1669 102.324 43.3778C101.395 43.5914 100.734 44.4195 100.734 45.374C100.734 45.4795 100.739 45.5823 100.755 45.6825L98.0973 47.2198C97.4837 46.7294 96.6462 46.6371 95.9404 46.9772C95.2346 47.3174 94.7869 48.032 94.7869 48.8179C94.7869 49.6037 95.2346 50.3183 95.9404 50.6585C96.6462 50.9987 97.4837 50.9064 98.0973 50.4159L100.76 51.9559H100.763C100.747 52.0561 100.739 52.1589 100.739 52.2591L100.736 52.2591ZM102.393 51.8741C102.208 52.056 102.179 52.3461 102.324 52.5623C102.469 52.7785 102.746 52.8629 102.985 52.7627C103.228 52.6652 103.362 52.4094 103.312 52.1536C103.262 51.8978 103.038 51.7132 102.777 51.7132C102.632 51.7132 102.495 51.7712 102.393 51.8741ZM102.393 44.9864C102.206 45.171 102.177 45.4637 102.324 45.6825C102.469 45.9014 102.748 45.9858 102.993 45.8856C103.235 45.7854 103.372 45.5269 103.322 45.2685C103.27 45.0101 103.043 44.8255 102.782 44.8255C102.635 44.8255 102.495 44.8836 102.393 44.9864ZM96.4434 48.4303C96.2617 48.6149 96.2327 48.9023 96.3775 49.1185C96.5224 49.3321 96.7963 49.4165 97.0359 49.3163C97.2756 49.2187 97.4125 48.9629 97.3599 48.7098C97.3098 48.454 97.0886 48.2721 96.8279 48.2721C96.683 48.2721 96.5461 48.3301 96.4434 48.4303ZM57.9876 15.5789C56.813 14.9698 55.7569 14.1523 54.8747 13.1634C54.2215 12.4752 53.6975 11.6788 53.3208 10.8086C53.0206 10.1757 52.9785 9.45059 53.1997 8.78605C53.3261 8.4828 53.521 8.2112 53.7686 7.99231C54.3269 7.48074 55.1196 7.31198 55.8412 7.5493C56.5602 7.78663 57.0974 8.39313 57.2449 9.13942C57.3081 9.49541 57.6136 9.75647 57.977 9.75911C58.3378 9.76174 58.6486 9.50596 58.7144 9.14997C58.8593 8.40105 59.3965 7.78931 60.1181 7.54932C60.8397 7.30936 61.6377 7.47812 62.1986 7.99233C62.4436 8.2112 62.6384 8.48281 62.7675 8.78607C62.9887 9.45059 62.9439 10.1731 62.6463 10.8086C62.2697 11.6789 61.7431 12.4752 61.0925 13.1635C60.2076 14.1523 59.1542 14.9724 57.977 15.5815L57.9876 15.5789ZM62.2066 14.1708C61.1084 15.4049 59.7679 16.4017 58.2694 17.0925C58.0903 17.1664 57.8875 17.1664 57.7085 17.0925C56.2073 16.4017 54.8668 15.4049 53.7686 14.1708C52.9943 13.348 52.3728 12.3961 51.9277 11.3571C51.4826 10.3683 51.4404 9.24226 51.8144 8.22177C52.0251 7.7102 52.3517 7.25136 52.7652 6.88217C53.4789 6.23084 54.4269 5.89597 55.3908 5.95132C56.3548 6.00406 57.2554 6.44444 57.8927 7.17225C57.9243 7.20916 57.9559 7.24344 57.9875 7.28564C58.0192 7.24608 58.0508 7.20916 58.0824 7.17225C58.7197 6.44446 59.623 6.00405 60.5869 5.94869C61.5508 5.89595 62.4962 6.23085 63.2126 6.88217C63.626 7.25134 63.95 7.70757 64.1633 8.21914C64.5373 9.23963 64.4951 10.3656 64.0474 11.3545C63.605 12.3935 62.9809 13.348 62.2065 14.1681L62.2066 14.1708Z"/>
</mask>
<path fill-rule="evenodd" clip-rule="evenodd" d="M65.5763 14.8173C67.4488 11.086 66.3374 6.54774 62.9559 4.10603C59.5744 1.66418 54.9235 2.04127 51.9792 4.99995C49.0349 7.95599 48.6715 12.6154 51.1207 15.9934C53.5699 19.3713 58.1075 20.4683 61.829 18.5829C61.9923 18.4985 62.1793 18.48 62.3558 18.5275L66.6591 19.6824L65.5056 15.3736C65.4555 15.1864 65.4819 14.986 65.5767 14.8146L65.5763 14.8173ZM80.4721 26.5411C81.7336 26.5411 82.8187 27.4324 83.0636 28.6691C83.3086 29.9058 82.6475 31.1453 81.4834 31.6278C80.3194 32.1104 78.9789 31.7043 78.2784 30.6548C77.5778 29.6052 77.7148 28.2077 78.6049 27.3164C79.1 26.818 79.7716 26.5411 80.4721 26.5411ZM81.2859 28.3712C80.8988 27.9835 80.2956 27.9255 79.8401 28.2288C79.3871 28.532 79.2106 29.1148 79.4187 29.6184C79.6267 30.1247 80.164 30.4122 80.6986 30.304C81.2359 30.1986 81.6204 29.7292 81.6204 29.1807C81.6204 28.8774 81.5019 28.5847 81.2859 28.3712ZM75.7949 25.0301C76.8536 23.9727 78.2388 23.3082 79.7242 23.1447V21.0272C77.6331 21.0035 75.5447 20.8637 73.4694 20.6132C72.5819 20.5051 71.7128 20.3759 70.8621 20.2256C70.072 23.8145 69.6586 27.4744 69.627 31.1481H74.2542C74.1041 30.5574 74.0278 29.9509 74.0251 29.3444C74.0014 27.728 74.6414 26.1721 75.7896 25.0382L75.7949 25.0301ZM81.2254 23.1368V23.1394C82.7133 23.3029 84.1012 23.9701 85.1599 25.0301C86.3108 26.1667 86.9481 27.7199 86.9271 29.3363C86.9244 29.9454 86.8481 30.552 86.698 31.1426H91.3226C91.291 27.4693 90.8775 23.8121 90.0848 20.2255C89.3579 20.3521 88.6152 20.4655 87.8568 20.563H87.8594C85.6577 20.8452 83.4428 21.0008 81.2227 21.0271V23.1446L81.2254 23.1368ZM86.1792 32.6403C85.9211 33.2205 85.6077 33.7769 85.2469 34.3016L81.2227 40.1715V42.7663C83.3454 42.79 85.4655 42.9324 87.5724 43.1935C88.4283 43.299 89.2657 43.4255 90.0848 43.5679C90.8749 39.9817 91.2884 36.3218 91.32 32.6481L86.1792 32.6403ZM79.7242 40.1714L75.7028 34.3041V34.3067C75.342 33.782 75.0312 33.2256 74.7705 32.6455H69.6271C69.6376 33.4497 69.6613 34.233 69.7034 34.9898C69.7456 35.7835 69.8035 36.572 69.8799 37.3499H71.3863H71.3837C73.1297 37.3525 74.5466 38.7712 74.5493 40.5195V43.0641C75.3657 42.9798 76.2032 42.9138 77.0591 42.8637C77.9466 42.8136 78.8368 42.782 79.7243 42.7688L79.7242 40.1714ZM80.4722 24.6003C79.1133 24.595 77.8096 25.133 76.8484 26.0928C75.9819 26.9498 75.5026 28.1206 75.521 29.3389C75.571 30.8235 76.0662 32.258 76.9353 33.4605L80.4722 38.6184L84.0091 33.4605C84.8809 32.2581 85.3733 30.8236 85.426 29.3389C85.4418 28.1233 84.9625 26.9524 84.0987 26.0981C83.1348 25.1382 81.8311 24.6002 80.4722 24.6056V24.6003ZM54.5444 51.7663C54.131 51.7663 53.7965 51.4287 53.7965 51.0147C53.7965 50.6007 54.1309 50.2658 54.5444 50.2658H70.4778C70.8913 50.2658 71.2284 50.6007 71.2284 51.0147C71.2284 51.4287 70.8913 51.7663 70.4778 51.7663H54.5444ZM54.5444 47.5023C54.131 47.5023 53.7965 47.1648 53.7965 46.7507C53.7965 46.3367 54.1309 46.0018 54.5444 46.0018H70.4778C70.8913 46.0018 71.2284 46.3367 71.2284 46.7507C71.2284 47.1648 70.8913 47.5023 70.4778 47.5023H54.5444ZM54.5444 43.2383C54.3416 43.2436 54.1468 43.1671 53.9993 43.0274C53.8544 42.885 53.7728 42.6925 53.7728 42.4894C53.7728 42.2864 53.8544 42.0912 53.9993 41.9515C54.1468 41.8091 54.3416 41.7326 54.5444 41.7405H63.0852C63.2854 41.7326 63.4829 41.8091 63.6277 41.9515C63.7726 42.0912 63.8569 42.2864 63.8569 42.4894C63.8569 42.6925 63.7726 42.885 63.6277 43.0274C63.4829 43.1671 63.2854 43.2436 63.0852 43.2383H54.5444ZM53.6411 37.3526H54.2284C54.0757 36.6142 53.9545 35.8706 53.865 35.119C53.4884 31.9784 53.6675 28.7956 54.3891 25.7154C54.7868 24.0304 55.3477 22.3875 56.0641 20.8106C53.7254 20.3518 51.6291 19.0703 50.1517 17.198C48.6742 15.3257 47.9131 12.9867 48.0079 10.6029C48.1027 8.21913 49.0456 5.94605 50.6652 4.1977C52.2875 2.44942 54.4786 1.33921 56.8463 1.065C59.2139 0.79339 61.6026 1.37879 63.5751 2.7131C65.5504 4.05006 66.983 6.04886 67.6151 8.35097C72 5.94342 76.9723 4.81478 81.9655 5.09432C86.9586 5.37387 91.7731 7.0483 95.8655 9.92792C95.9445 9.8409 96.0288 9.75651 96.113 9.6695V9.67214C98.0593 7.72343 100.772 6.74775 103.514 7.0088C106.253 7.26722 108.734 8.73866 110.279 11.0196C111.823 13.3006 112.273 16.1512 111.501 18.7984C110.732 21.4433 108.823 23.6056 106.295 24.6973C106.59 25.7547 106.819 26.828 106.979 27.9118C107.443 31.0234 107.359 34.193 106.732 37.2756C106.418 38.8288 105.965 40.3477 105.378 41.8191C105.834 42.1276 106.26 42.4784 106.648 42.866C108.259 44.4376 109.178 46.5894 109.194 48.8414C109.21 51.0934 108.323 53.2584 106.732 54.851C105.141 56.4438 102.979 57.3298 100.73 57.3139C98.4808 57.2981 96.3318 56.3778 94.7622 54.764C94.7279 54.7297 94.6937 54.6955 94.6621 54.6612C86.9195 59.5027 77.2488 60.0643 68.9979 56.1537H60.9284L55.5453 60.6946C55.1292 61.0453 54.5419 61.098 54.0705 60.8317C53.5991 60.5627 53.3436 60.0301 53.4305 59.4921L53.9783 56.1511H53.6386L53.6412 56.1537C51.8925 56.1511 50.4783 54.7324 50.4756 52.9841V40.5163C50.4783 38.768 51.8925 37.3493 53.6412 37.3467L53.6411 37.3526ZM55.7559 37.3526H68.379C68.3105 36.6063 68.2526 35.8442 68.2131 35.0689C68.1709 34.2594 68.1446 33.4551 68.1341 32.6535H55.182C55.2057 33.4287 55.261 34.1935 55.3505 34.945C55.448 35.7678 55.5823 36.5693 55.7561 37.3552L55.7559 37.3526ZM74.5493 44.5649V53.0215C75.2946 54.2371 76.2611 55.2998 77.3989 56.1595C78.0862 56.671 78.8842 57.0164 79.7269 57.1721V44.2668C78.8421 44.2774 77.9809 44.3064 77.1434 44.3565C76.2717 44.4066 75.4052 44.4778 74.5493 44.5701V44.5649ZM73.9725 54.8043C73.8672 54.9546 73.7487 55.0944 73.617 55.2236C73.2983 55.5427 72.9138 55.7905 72.4924 55.9514C73.2535 56.2045 74.0331 56.4234 74.8231 56.6027C75.1471 56.6766 75.4763 56.7451 75.8054 56.8058V56.8084C75.126 56.2072 74.5124 55.5348 73.9725 54.8043ZM71.3837 38.8451C72.3055 38.8478 73.0534 39.594 73.0534 40.517V52.9821C73.0508 53.9024 72.3055 54.6513 71.3863 54.6513H60.6598C60.4596 54.6513 60.2674 54.733 60.1252 54.8781L54.9923 59.2106L55.5954 55.5268C55.627 55.329 55.5796 55.1286 55.4637 54.9678C55.3478 54.8069 55.174 54.6988 54.9791 54.6672C54.9396 54.6619 54.8975 54.6593 54.858 54.6593H53.6412C52.7195 54.6566 51.9741 53.9103 51.9715 52.9874V40.5169C51.9741 39.594 52.7195 38.8477 53.6412 38.8451L71.3837 38.8451ZM107.804 14.9565C107.206 14.358 106.274 14.2683 105.573 14.7377C104.873 15.2071 104.599 16.1062 104.923 16.8842C105.247 17.6647 106.074 18.1077 106.901 17.9442C107.728 17.7781 108.323 17.0529 108.323 16.2091C108.323 15.7371 108.136 15.2862 107.804 14.9565ZM106.824 16.2091C106.824 16.0799 106.732 15.9665 106.606 15.9428C106.479 15.9164 106.353 15.985 106.303 16.1063C106.253 16.225 106.295 16.3621 106.403 16.4333C106.511 16.5071 106.653 16.4913 106.745 16.4016C106.798 16.3489 106.824 16.2803 106.824 16.2091ZM103.893 14.9565C103.295 14.358 102.36 14.2657 101.657 14.735C100.957 15.2044 100.683 16.1036 101.007 16.8868C101.328 17.6673 102.158 18.1104 102.985 17.9442C103.814 17.7807 104.409 17.0529 104.409 16.2091C104.412 15.7371 104.225 15.2862 103.893 14.9565ZM102.913 16.2091C102.913 16.1353 102.885 16.0667 102.834 16.0166C102.782 15.9639 102.713 15.9349 102.642 15.9349C102.492 15.9349 102.368 16.0588 102.368 16.2091C102.368 16.2803 102.397 16.3489 102.45 16.4016C102.555 16.5071 102.727 16.5071 102.834 16.4016C102.885 16.3489 102.913 16.2803 102.913 16.2091ZM99.9796 14.9565C99.3844 14.358 98.4469 14.2657 97.7463 14.735C97.0432 15.2044 96.7719 16.1036 97.0932 16.8868C97.4171 17.6673 98.2467 18.1104 99.0737 17.9442C99.9007 17.7807 100.498 17.0529 100.498 16.2091C100.498 15.7371 100.311 15.2862 99.9796 14.9565ZM99 16.2091C99 16.0799 98.9078 15.9665 98.7814 15.9428C98.655 15.9164 98.5285 15.985 98.4785 16.1063C98.4311 16.225 98.4706 16.3621 98.5786 16.4333C98.6866 16.5071 98.8288 16.4913 98.9209 16.4016C98.9736 16.3489 99 16.2803 99 16.2091ZM94.2779 20.1277C94.162 19.8824 94.0593 19.6346 93.9698 19.3814C93.1903 19.5897 92.387 19.7769 91.5574 19.951H91.5548C92.3633 23.6295 92.7873 27.3848 92.8189 31.153H105.766C105.708 29.1331 105.41 27.1316 104.881 25.1829C104.623 25.2461 104.365 25.2989 104.101 25.3411C102.274 25.6338 100.404 25.3727 98.7286 24.5895L93.896 25.8869H93.8933C93.6352 25.9555 93.3587 25.8817 93.1717 25.6892C92.9821 25.4993 92.911 25.2224 92.9821 24.964L94.2752 20.1331L94.2779 20.1277ZM93.5721 17.939C93.1217 15.5684 93.6142 13.116 94.9415 11.1039C92.0024 9.0471 88.6604 7.64424 85.1366 6.98761C86.9669 8.71483 88.4076 10.8139 89.3583 13.1449C90.1141 14.8748 90.7304 16.6653 91.1992 18.4927C92.0129 18.3266 92.8057 18.1394 93.572 17.9363L93.5721 17.939ZM94.9995 14.9803V14.9829C94.744 16.5862 94.9969 18.2317 95.7237 19.6873C95.8186 19.8561 95.8449 20.0565 95.7948 20.2464L94.7625 24.1016L98.6128 23.0679C98.7893 23.0205 98.9762 23.0389 99.1395 23.1233C102.126 24.6369 105.747 24.0568 108.112 21.6835C110.477 19.3129 111.049 15.6844 109.529 12.6991C108.01 9.7114 104.744 8.04223 101.439 8.5617C98.1312 9.08118 95.5315 11.6709 94.9995 14.9803ZM92.9005 45.6849C92.3448 45.5478 91.7786 45.4186 91.1966 45.2999L91.1992 45.3026C90.7305 47.13 90.1142 48.9179 89.3583 50.6451C88.4076 52.9788 86.967 55.0779 85.1341 56.8051C88.1759 56.2381 91.0886 55.1148 93.722 53.4931C92.1814 51.1831 91.8759 48.264 92.9056 45.6853L92.9005 45.6849ZM89.7271 45.0231C88.966 44.8912 88.1864 44.7778 87.3911 44.6776V44.6803C85.3447 44.4271 83.2853 44.29 81.2232 44.2663V57.1715C83.8147 56.7416 86.1902 54.0967 87.9969 50.0387L87.9943 50.0361C88.7054 48.4144 89.2874 46.7399 89.7324 45.0258L89.7271 45.0231ZM91.5521 43.8443C92.2527 43.9867 92.9348 44.145 93.6011 44.3164C95.8186 40.8092 100.256 39.4432 104.059 41.0966C105.11 38.399 105.687 35.5405 105.766 32.6448H92.8164C92.7848 36.413 92.3608 40.1657 91.5523 43.8468L91.5521 43.8443ZM67.7683 18.0386C68.4109 18.2021 69.0719 18.3551 69.7514 18.4922H69.7488C70.2176 16.6622 70.8338 14.8743 71.5897 13.147C72.5404 10.8133 73.981 8.71166 75.814 6.98707C75.1081 7.11892 74.4129 7.27978 73.7281 7.46701H73.7307C71.695 8.02868 69.7408 8.84616 67.9105 9.89569C68.1133 11.7311 67.8052 13.5848 67.023 15.2566L67.7657 18.036L67.7683 18.0386ZM71.221 18.7691C72.0137 18.9062 72.8248 19.0248 73.6518 19.125V19.1224C75.6665 19.3676 77.6944 19.5021 79.7249 19.5259V6.62606C77.1334 7.05589 74.7579 9.70078 72.9512 13.7588H72.9538C72.2427 15.3805 71.6633 17.0576 71.2209 18.7717L71.221 18.7691ZM81.2288 19.5285H81.2262C83.3831 19.5021 85.5374 19.3545 87.6759 19.0802C88.3738 18.9906 89.0585 18.8851 89.7327 18.7691C89.2903 17.055 88.7083 15.3779 87.9998 13.7562C86.1905 9.69788 83.815 7.05297 81.2234 6.62613V19.5313L81.2288 19.5285ZM69.4013 19.9478C69.001 19.866 68.6033 19.779 68.2136 19.6867L68.4427 20.5385H68.44C68.5138 20.7969 68.4427 21.0738 68.2531 21.2636C68.0634 21.4561 67.7869 21.5299 67.5288 21.4614L62.2432 20.0427C60.8027 20.7204 59.2225 21.0447 57.6318 20.9867C56.1175 24.1642 55.2853 27.6239 55.1878 31.1417H68.1291C68.1634 27.3761 68.5874 23.6208 69.3959 19.9423L69.4013 19.9478ZM105.592 43.9234C103.264 41.5897 99.6116 41.2285 96.8697 43.0612C94.1307 44.8938 93.0641 48.4116 94.3256 51.4597C95.5871 54.5077 98.8238 56.2405 102.055 55.5971C105.287 54.9536 107.615 52.1136 107.615 48.812C107.618 46.9793 106.891 45.2182 105.592 43.9234ZM100.736 52.2591C100.736 53.2111 101.395 54.0364 102.324 54.25C103.251 54.4609 104.202 54.0021 104.615 53.1451C105.029 52.2855 104.795 51.2544 104.049 50.6611C103.307 50.0651 102.25 50.0651 101.505 50.6584L98.8426 49.1211C98.8584 49.0183 98.8663 48.9181 98.8663 48.8179C98.8663 48.715 98.8584 48.6122 98.8426 48.512L101.5 46.9773V46.9746C102.245 47.5732 103.304 47.5732 104.052 46.9799C104.8 46.384 105.037 45.3502 104.623 44.488C104.21 43.6257 103.257 43.1669 102.324 43.3778C101.395 43.5914 100.734 44.4195 100.734 45.374C100.734 45.4795 100.739 45.5823 100.755 45.6825L98.0973 47.2198C97.4837 46.7294 96.6462 46.6371 95.9404 46.9772C95.2346 47.3174 94.7869 48.032 94.7869 48.8179C94.7869 49.6037 95.2346 50.3183 95.9404 50.6585C96.6462 50.9987 97.4837 50.9064 98.0973 50.4159L100.76 51.9559H100.763C100.747 52.0561 100.739 52.1589 100.739 52.2591L100.736 52.2591ZM102.393 51.8741C102.208 52.056 102.179 52.3461 102.324 52.5623C102.469 52.7785 102.746 52.8629 102.985 52.7627C103.228 52.6652 103.362 52.4094 103.312 52.1536C103.262 51.8978 103.038 51.7132 102.777 51.7132C102.632 51.7132 102.495 51.7712 102.393 51.8741ZM102.393 44.9864C102.206 45.171 102.177 45.4637 102.324 45.6825C102.469 45.9014 102.748 45.9858 102.993 45.8856C103.235 45.7854 103.372 45.5269 103.322 45.2685C103.27 45.0101 103.043 44.8255 102.782 44.8255C102.635 44.8255 102.495 44.8836 102.393 44.9864ZM96.4434 48.4303C96.2617 48.6149 96.2327 48.9023 96.3775 49.1185C96.5224 49.3321 96.7963 49.4165 97.0359 49.3163C97.2756 49.2187 97.4125 48.9629 97.3599 48.7098C97.3098 48.454 97.0886 48.2721 96.8279 48.2721C96.683 48.2721 96.5461 48.3301 96.4434 48.4303ZM57.9876 15.5789C56.813 14.9698 55.7569 14.1523 54.8747 13.1634C54.2215 12.4752 53.6975 11.6788 53.3208 10.8086C53.0206 10.1757 52.9785 9.45059 53.1997 8.78605C53.3261 8.4828 53.521 8.2112 53.7686 7.99231C54.3269 7.48074 55.1196 7.31198 55.8412 7.5493C56.5602 7.78663 57.0974 8.39313 57.2449 9.13942C57.3081 9.49541 57.6136 9.75647 57.977 9.75911C58.3378 9.76174 58.6486 9.50596 58.7144 9.14997C58.8593 8.40105 59.3965 7.78931 60.1181 7.54932C60.8397 7.30936 61.6377 7.47812 62.1986 7.99233C62.4436 8.2112 62.6384 8.48281 62.7675 8.78607C62.9887 9.45059 62.9439 10.1731 62.6463 10.8086C62.2697 11.6789 61.7431 12.4752 61.0925 13.1635C60.2076 14.1523 59.1542 14.9724 57.977 15.5815L57.9876 15.5789ZM62.2066 14.1708C61.1084 15.4049 59.7679 16.4017 58.2694 17.0925C58.0903 17.1664 57.8875 17.1664 57.7085 17.0925C56.2073 16.4017 54.8668 15.4049 53.7686 14.1708C52.9943 13.348 52.3728 12.3961 51.9277 11.3571C51.4826 10.3683 51.4404 9.24226 51.8144 8.22177C52.0251 7.7102 52.3517 7.25136 52.7652 6.88217C53.4789 6.23084 54.4269 5.89597 55.3908 5.95132C56.3548 6.00406 57.2554 6.44444 57.8927 7.17225C57.9243 7.20916 57.9559 7.24344 57.9875 7.28564C58.0192 7.24608 58.0508 7.20916 58.0824 7.17225C58.7197 6.44446 59.623 6.00405 60.5869 5.94869C61.5508 5.89595 62.4962 6.23085 63.2126 6.88217C63.626 7.25134 63.95 7.70757 64.1633 8.21914C64.5373 9.23963 64.4951 10.3656 64.0474 11.3545C63.605 12.3935 62.9809 13.348 62.2065 14.1681L62.2066 14.1708Z" fill="white"/>
<path d="M107.554 14.9539V14.9565H108.054V14.9539H107.554ZM106.574 16.2065V16.2091H107.074V16.2065H106.574ZM103.714 15.1306L103.716 15.1332L104.07 14.7799L104.067 14.7772L103.714 15.1306ZM102.734 16.3832L102.737 16.3858L103.09 16.0325L103.088 16.0298L102.734 16.3832ZM99.8001 15.1306L99.8027 15.1332L100.157 14.7799L100.154 14.7772L99.8001 15.1306ZM98.8204 16.3832L98.8231 16.3858L99.1768 16.0325L99.1742 16.0298L98.8204 16.3832ZM105.772 43.7494L105.769 43.7468L105.416 44.1001L105.418 44.1027L105.772 43.7494ZM96.6934 48.4329V48.4303H96.1934V48.4329H96.6934ZM65.5763 14.8173L65.0806 14.752L66.0232 15.0415L65.5763 14.8173ZM62.9559 4.10603L62.6632 4.51139L62.6632 4.51139L62.9559 4.10603ZM51.9792 4.99995L52.3335 5.3528L52.3337 5.35263L51.9792 4.99995ZM51.1207 15.9934L50.7159 16.2869L50.7159 16.2869L51.1207 15.9934ZM61.829 18.5829L62.055 19.0289L62.0586 19.027L61.829 18.5829ZM62.3558 18.5275L62.2259 19.0103L62.2262 19.0104L62.3558 18.5275ZM66.6591 19.6824L66.5295 20.1654L67.3661 20.3899L67.1421 19.5532L66.6591 19.6824ZM65.5056 15.3736L65.0225 15.5027L65.0226 15.5029L65.5056 15.3736ZM65.5767 14.8146L66.0724 14.8798L65.1392 14.5726L65.5767 14.8146ZM81.4834 31.6278L81.292 31.1659L81.292 31.1659L81.4834 31.6278ZM78.2784 30.6548L77.8625 30.9324L77.8625 30.9324L78.2784 30.6548ZM78.6049 27.3164L78.9587 27.6697L78.9596 27.6688L78.6049 27.3164ZM81.2859 28.3712L80.9321 28.7245L80.9343 28.7267L81.2859 28.3712ZM79.8401 28.2288L79.563 27.8125L79.5619 27.8133L79.8401 28.2288ZM79.4187 29.6184L79.8812 29.4284L79.8808 29.4276L79.4187 29.6184ZM80.6986 30.304L80.6023 29.8134L80.5995 29.814L80.6986 30.304ZM75.7949 25.0301L75.4415 24.6764L75.4036 24.7143L75.3745 24.7594L75.7949 25.0301ZM79.7242 23.1447L79.7789 23.6417L80.2242 23.5927V23.1447H79.7242ZM79.7242 21.0272H80.2242V20.5328L79.7299 20.5272L79.7242 21.0272ZM73.4694 20.6132L73.4089 21.1095L73.4095 21.1096L73.4694 20.6132ZM70.8621 20.2256L70.9491 19.7332L70.4769 19.6497L70.3738 20.1181L70.8621 20.2256ZM69.627 31.1481L69.127 31.1438L69.1227 31.6481H69.627V31.1481ZM74.2542 31.1481V31.6481H74.8972L74.7388 31.0249L74.2542 31.1481ZM74.0251 29.3444L74.5251 29.3422L74.5251 29.3371L74.0251 29.3444ZM75.7896 25.0382L76.141 25.394L76.1802 25.3553L76.21 25.309L75.7896 25.0382ZM81.2254 23.1368H81.7254L80.7518 22.9765L81.2254 23.1368ZM81.2254 23.1394H80.7254V23.5875L81.1707 23.6364L81.2254 23.1394ZM85.1599 25.0301L84.8061 25.3835L84.8086 25.3859L85.1599 25.0301ZM86.9271 29.3363L86.4271 29.3298L86.4271 29.3341L86.9271 29.3363ZM86.698 31.1426L86.2134 31.0195L86.055 31.6426H86.698V31.1426ZM91.3226 31.1426V31.6426H91.8269L91.8226 31.1383L91.3226 31.1426ZM90.0848 20.2255L90.573 20.1176L90.4699 19.6509L89.999 19.7329L90.0848 20.2255ZM87.8568 20.563L87.793 20.0671L87.8568 21.063V20.563ZM87.8594 20.563L87.923 21.059L87.8594 20.063V20.563ZM81.2227 21.0271L81.2168 20.5272L80.7227 20.533V21.0271H81.2227ZM81.2227 23.1446H80.7227L81.6963 23.3049L81.2227 23.1446ZM86.1792 32.6403L86.1799 32.1403L85.8546 32.1398L85.7224 32.4371L86.1792 32.6403ZM85.2469 34.3016L84.8349 34.0183L84.8345 34.0189L85.2469 34.3016ZM81.2227 40.1715L80.8103 39.8888L80.7227 40.0166V40.1715H81.2227ZM81.2227 42.7663H80.7227V43.2607L81.2171 43.2663L81.2227 42.7663ZM87.5724 43.1935L87.5109 43.6897L87.5112 43.6897L87.5724 43.1935ZM90.0848 43.5679L89.9992 44.0606L90.4703 44.1424L90.5731 43.6755L90.0848 43.5679ZM91.32 32.6481L91.8199 32.6524L91.8243 32.1489L91.3207 32.1481L91.32 32.6481ZM79.7242 40.1714L80.2242 40.1713L80.2242 40.0164L80.1367 39.8887L79.7242 40.1714ZM75.7028 34.3041L76.1152 34.0214L75.2028 32.6902V34.3041H75.7028ZM75.7028 34.3067L75.2908 34.59L76.2028 35.9164V34.3067H75.7028ZM74.7705 32.6455L75.2265 32.4405L75.0939 32.1455H74.7705V32.6455ZM69.6271 32.6455V32.1455H69.1205L69.1271 32.652L69.6271 32.6455ZM69.7034 34.9898L70.2027 34.9633L70.2027 34.962L69.7034 34.9898ZM69.8799 37.3499L69.3823 37.3987L69.4266 37.8499H69.8799V37.3499ZM71.3837 37.3499V36.8499L71.3829 37.8499L71.3837 37.3499ZM74.5493 40.5195H75.0493L75.0493 40.5187L74.5493 40.5195ZM74.5493 43.0641H74.0493V43.6185L74.6007 43.5615L74.5493 43.0641ZM77.0591 42.8637L77.0309 42.3645L77.0299 42.3646L77.0591 42.8637ZM79.7243 42.7688L79.7317 43.2688L80.2243 43.2614L80.2243 42.7688L79.7243 42.7688ZM80.4722 24.6003H80.9722V24.1023L80.4741 24.1003L80.4722 24.6003ZM76.8484 26.0928L77.2 26.4483L77.2017 26.4466L76.8484 26.0928ZM75.521 29.3389L75.021 29.3465L75.0213 29.3558L75.521 29.3389ZM76.9353 33.4605L77.3478 33.1777L77.3405 33.1676L76.9353 33.4605ZM80.4722 38.6184L80.0598 38.9012L80.4722 39.5026L80.8846 38.9012L80.4722 38.6184ZM84.0091 33.4605L83.6042 33.167L83.5968 33.1778L84.0091 33.4605ZM85.426 29.3389L85.9258 29.3567L85.926 29.3454L85.426 29.3389ZM84.0987 26.0981L83.7459 26.4524L83.7471 26.4536L84.0987 26.0981ZM80.4722 24.6056H79.9722V25.1075L80.4742 25.1056L80.4722 24.6056ZM54.5444 43.2383V42.7381L54.5314 42.7385L54.5444 43.2383ZM53.9993 43.0274L53.6487 43.384L53.6554 43.3903L53.9993 43.0274ZM53.9993 41.9515L54.3465 42.3113L54.3466 42.3112L53.9993 41.9515ZM54.5444 41.7405L54.5249 42.2401L54.5347 42.2405H54.5444V41.7405ZM63.0852 41.7405V42.2405H63.0951L63.105 42.2401L63.0852 41.7405ZM63.6277 41.9515L63.2772 42.308L63.2806 42.3113L63.6277 41.9515ZM63.6277 43.0274L63.9749 43.3872L63.9783 43.3839L63.6277 43.0274ZM63.0852 43.2383L63.0984 42.7383H63.0852V43.2383ZM53.6411 37.3526L53.1412 37.3465L53.135 37.8526H53.6411V37.3526ZM54.2284 37.3526V37.8526H54.8425L54.7181 37.2513L54.2284 37.3526ZM53.865 35.119L54.3615 35.0599L54.3614 35.0595L53.865 35.119ZM54.3891 25.7154L53.9024 25.6005L53.9023 25.6013L54.3891 25.7154ZM56.0641 20.8106L56.5193 21.0174L56.7808 20.4417L56.1603 20.32L56.0641 20.8106ZM50.1517 17.198L50.5442 16.8882L50.5442 16.8882L50.1517 17.198ZM50.6652 4.1977L50.2987 3.8576L50.2984 3.85791L50.6652 4.1977ZM56.8463 1.065L56.7893 0.568253L56.7888 0.568315L56.8463 1.065ZM63.5751 2.7131L63.8554 2.29903L63.8553 2.29895L63.5751 2.7131ZM67.6151 8.35097L67.1329 8.48335L67.3006 9.09404L67.8557 8.78925L67.6151 8.35097ZM95.8655 9.92792L95.5778 10.3368L95.9389 10.5909L96.2357 10.264L95.8655 9.92792ZM96.113 9.6695H96.613V8.43454L95.7539 9.32165L96.113 9.6695ZM96.113 9.67214H95.613V10.8803L96.4668 10.0255L96.113 9.67214ZM103.514 7.0088L103.466 7.50655L103.467 7.50659L103.514 7.0088ZM110.279 11.0196L110.693 10.7394L110.693 10.7391L110.279 11.0196ZM111.501 18.7984L111.021 18.6585L111.021 18.6588L111.501 18.7984ZM106.295 24.6973L106.096 24.2383L105.696 24.4113L105.813 24.8317L106.295 24.6973ZM106.979 27.9118L106.485 27.9851L106.485 27.9854L106.979 27.9118ZM106.732 37.2756L106.242 37.176L106.242 37.1767L106.732 37.2756ZM105.378 41.8191L104.914 41.6338L104.765 42.0075L105.098 42.2331L105.378 41.8191ZM106.648 42.866L106.294 43.2194L106.299 43.224L106.648 42.866ZM109.194 48.8414L108.694 48.8449V48.8449L109.194 48.8414ZM100.73 57.3139L100.733 56.814H100.733L100.73 57.3139ZM94.7622 54.764L95.1206 54.4154L95.1159 54.4107L94.7622 54.764ZM94.6621 54.6612L95.0297 54.3223L94.7486 54.0174L94.397 54.2372L94.6621 54.6612ZM68.9979 56.1537L69.2121 55.7019L69.1104 55.6537H68.9979V56.1537ZM60.9284 56.1537V55.6537H60.7457L60.606 55.7715L60.9284 56.1537ZM55.5453 60.6946L55.8675 61.0769L55.8677 61.0768L55.5453 60.6946ZM54.0705 60.8317L53.8227 61.266L53.8245 61.267L54.0705 60.8317ZM53.4305 59.4921L52.9371 59.4112L52.9369 59.4124L53.4305 59.4921ZM53.9783 56.1511L54.4717 56.232L54.567 55.6511H53.9783V56.1511ZM53.6386 56.1511V55.6511H52.4328L53.2848 56.5044L53.6386 56.1511ZM53.6412 56.1537L53.6405 56.6537L54.8488 56.6555L53.995 55.8004L53.6412 56.1537ZM50.4756 52.9841H49.9756L49.9756 52.9848L50.4756 52.9841ZM50.4756 40.5163L49.9756 40.5156V40.5163H50.4756ZM53.6412 37.3467L54.1412 37.3527L54.1473 36.8459L53.6405 36.8467L53.6412 37.3467ZM55.7559 37.3526V36.8526H55.2188L55.2572 37.3883L55.7559 37.3526ZM68.379 37.3526V37.8526H68.927L68.8769 37.3069L68.379 37.3526ZM68.2131 35.0689L68.7124 35.0435L68.7124 35.043L68.2131 35.0689ZM68.1341 32.6535L68.634 32.6469L68.6275 32.1535H68.1341V32.6535ZM55.182 32.6535V32.1535H54.6665L54.6822 32.6688L55.182 32.6535ZM55.3505 34.945L55.8471 34.8862L55.847 34.8859L55.3505 34.945ZM55.7561 37.3552L55.2679 37.4632L56.2548 37.3195L55.7561 37.3552ZM74.5493 53.0215H74.0493V53.1626L74.123 53.2828L74.5493 53.0215ZM77.3989 56.1595L77.0974 56.5584L77.1003 56.5606L77.3989 56.1595ZM79.7269 57.1721L79.6362 57.6637L80.2269 57.7728V57.1721H79.7269ZM79.7269 44.2668H80.2269V43.7608L79.721 43.7669L79.7269 44.2668ZM77.1434 44.3565L77.1721 44.8557L77.1733 44.8556L77.1434 44.3565ZM74.5493 44.5701H74.0493V45.1269L74.6029 45.0672L74.5493 44.5701ZM73.9725 54.8043L74.3746 54.5071L73.9617 53.9485L73.5631 54.5174L73.9725 54.8043ZM73.617 55.2236L73.2668 54.8667L73.2632 54.8703L73.617 55.2236ZM72.4924 55.9514L72.3141 55.4843L71.0055 55.9838L72.3346 56.4258L72.4924 55.9514ZM74.8231 56.6027L74.9342 56.1152L74.9338 56.1151L74.8231 56.6027ZM75.8054 56.8058H76.3054V56.3895L75.896 56.314L75.8054 56.8058ZM75.8054 56.8084L75.4741 57.1829L76.3054 57.9185V56.8084H75.8054ZM71.3837 38.8451L71.3851 38.3451H71.3837L71.3837 38.8451ZM73.0534 52.9821L73.5534 52.9835V52.9821H73.0534ZM60.1252 54.8781L60.4477 55.2602L60.4657 55.245L60.4822 55.2281L60.1252 54.8781ZM54.9923 59.2106L54.4988 59.1299L54.2801 60.4661L55.3148 59.5927L54.9923 59.2106ZM55.5954 55.5268L56.0888 55.6076L56.0891 55.6057L55.5954 55.5268ZM55.4637 54.9678L55.8694 54.6755L55.8694 54.6755L55.4637 54.9678ZM54.9791 54.6672L55.0593 54.1734L55.0453 54.1716L54.9791 54.6672ZM53.6412 54.6593L53.6398 55.1593H53.6412V54.6593ZM51.9715 52.9874H51.4715L51.4715 52.9888L51.9715 52.9874ZM51.9715 40.5169L51.4715 40.5155V40.5169H51.9715ZM53.6412 38.8451L53.6412 38.3451L53.6398 38.3451L53.6412 38.8451ZM107.804 14.9565L107.45 15.3099L107.452 15.3113L107.804 14.9565ZM105.573 14.7377L105.295 14.3223L105.295 14.3223L105.573 14.7377ZM104.923 16.8842L105.385 16.6925L105.385 16.692L104.923 16.8842ZM106.901 17.9442L106.998 18.4347L106.999 18.4344L106.901 17.9442ZM106.606 15.9428L106.504 16.4324L106.514 16.4342L106.606 15.9428ZM106.303 16.1063L106.764 16.3006L106.765 16.297L106.303 16.1063ZM106.403 16.4333L106.685 16.0205L106.678 16.0159L106.403 16.4333ZM106.745 16.4016L107.094 16.7601L107.099 16.755L106.745 16.4016ZM103.893 14.9565L103.539 15.3099L103.541 15.3113L103.893 14.9565ZM101.657 14.735L101.38 14.3192L101.379 14.3197L101.657 14.735ZM101.007 16.8868L101.469 16.6965L101.469 16.6957L101.007 16.8868ZM102.985 17.9442L102.888 17.4537L102.886 17.454L102.985 17.9442ZM104.409 16.2091L103.909 16.2063V16.2091H104.409ZM102.834 16.0166L102.481 16.37L102.481 16.37L102.834 16.0166ZM102.45 16.4016L102.096 16.7549L102.096 16.755L102.45 16.4016ZM102.834 16.4016L103.184 16.7593L103.191 16.7527L103.197 16.7458L102.834 16.4016ZM99.9796 14.9565L99.6251 15.3091L99.6273 15.3113L99.9796 14.9565ZM97.7463 14.735L98.0239 15.1509L98.0246 15.1504L97.7463 14.735ZM97.0932 16.8868L96.6306 17.0766L96.6314 17.0785L97.0932 16.8868ZM99.0737 17.9442L98.9767 17.4537L98.9752 17.454L99.0737 17.9442ZM98.7814 15.9428L98.6792 16.4324L98.6891 16.4342L98.7814 15.9428ZM98.4785 16.1063L98.0163 15.9156L98.0142 15.9208L98.4785 16.1063ZM98.5786 16.4333L98.8609 16.0205L98.8538 16.0159L98.5786 16.4333ZM98.9209 16.4016L99.2696 16.7601L99.2747 16.755L98.9209 16.4016ZM94.2779 20.1277L94.726 20.3496L94.8334 20.1328L94.73 19.9141L94.2779 20.1277ZM93.9698 19.3814L94.4412 19.2147L94.2871 18.779L93.8407 18.8983L93.9698 19.3814ZM91.5574 19.951V20.451H91.6093L91.6601 20.4403L91.5574 19.951ZM91.5548 19.951V19.451H90.933L91.0664 20.0583L91.5548 19.951ZM92.8189 31.153L92.3189 31.1572L92.3231 31.653H92.8189V31.153ZM105.766 31.153V31.653H106.28L106.265 31.1387L105.766 31.153ZM104.881 25.1829L105.363 25.0518L105.235 24.5811L104.762 24.6972L104.881 25.1829ZM104.101 25.3411L104.18 25.8348L104.18 25.8348L104.101 25.3411ZM98.7286 24.5895L98.9404 24.1366L98.7752 24.0593L98.599 24.1066L98.7286 24.5895ZM93.896 25.8869V26.3869H93.9619L94.0256 26.3698L93.896 25.8869ZM93.8933 25.8869V25.3869H93.828L93.765 25.4037L93.8933 25.8869ZM93.1717 25.6892L93.5304 25.3408L93.5255 25.3358L93.1717 25.6892ZM92.9821 24.964L93.4642 25.0967L93.4651 25.0933L92.9821 24.964ZM94.2752 20.1331L93.8272 19.9112L93.8051 19.9558L93.7922 20.0038L94.2752 20.1331ZM93.5721 17.939L93.0809 18.0323L94.0719 17.9263L93.5721 17.939ZM94.9415 11.1039L95.3589 11.3793L95.6268 10.9732L95.2282 10.6943L94.9415 11.1039ZM85.1366 6.98761L85.2282 6.49607L83.5573 6.1847L84.7935 7.35125L85.1366 6.98761ZM89.3583 13.1449L88.8951 13.3338L88.9001 13.3451L89.3583 13.1449ZM91.1992 18.4927L90.7149 18.617L90.8331 19.0778L91.2992 18.9826L91.1992 18.4927ZM93.572 17.9363L94.0719 17.9237L94.0559 17.2909L93.444 17.453L93.572 17.9363ZM94.9995 14.9803L94.5058 14.9009L94.4995 14.9404V14.9803H94.9995ZM94.9995 14.9829L95.4933 15.0616L95.4995 15.0225V14.9829H94.9995ZM95.7237 19.6873L95.2764 19.9107L95.2818 19.9216L95.2878 19.9322L95.7237 19.6873ZM95.7948 20.2464L96.2778 20.3757L96.2783 20.3738L95.7948 20.2464ZM94.7625 24.1016L94.2795 23.9723L94.0554 24.8091L94.8921 24.5845L94.7625 24.1016ZM98.6128 23.0679L98.7424 23.5508L98.7427 23.5508L98.6128 23.0679ZM99.1395 23.1233L98.91 23.5675L98.9135 23.5693L99.1395 23.1233ZM108.112 21.6835L107.758 21.3304L107.758 21.3306L108.112 21.6835ZM109.529 12.6991L109.084 12.9258L109.084 12.9259L109.529 12.6991ZM101.439 8.5617L101.517 9.05564L101.517 9.05563L101.439 8.5617ZM92.9005 45.6849L92.7807 46.1704L92.8237 46.181L92.8679 46.1839L92.9005 45.6849ZM91.1966 45.2999L91.2965 44.81L89.6693 44.4782L90.8428 45.6533L91.1966 45.2999ZM91.1992 45.3026L91.6836 45.4268L91.7544 45.1509L91.553 44.9493L91.1992 45.3026ZM89.3583 50.6451L88.9001 50.4446L88.8953 50.4565L89.3583 50.6451ZM85.1341 56.8051L84.7912 56.4412L83.5524 57.6085L85.2257 57.2966L85.1341 56.8051ZM93.722 53.4931L93.9842 53.9188L94.4257 53.647L94.138 53.2156L93.722 53.4931ZM92.9056 45.6853L93.37 45.8707L93.6254 45.2312L92.9382 45.1863L92.9056 45.6853ZM89.7271 45.0231L89.9555 44.5783L89.8876 44.5434L89.8124 44.5304L89.7271 45.0231ZM87.3911 44.6776L87.4536 44.1815L86.8911 44.1107V44.6776H87.3911ZM87.3911 44.6803L87.3297 45.1765L87.8911 45.2459V44.6803H87.3911ZM81.2232 44.2663L81.229 43.7663L80.7232 43.7605V44.2663H81.2232ZM81.2232 57.1715H80.7232V57.7612L81.305 57.6647L81.2232 57.1715ZM87.9969 50.0387L88.4537 50.2421L88.5934 49.9284L88.3507 49.6854L87.9969 50.0387ZM87.9943 50.0361L87.5364 49.8353L87.3993 50.1479L87.6405 50.3894L87.9943 50.0361ZM89.7324 45.0258L90.2164 45.1515L90.317 44.764L89.9609 44.5811L89.7324 45.0258ZM91.5521 43.8443L91.6517 43.3544L90.9994 43.2218L91.0538 43.8852L91.5521 43.8443ZM93.6011 44.3164L93.4765 44.8006L93.8291 44.8913L94.0237 44.5836L93.6011 44.3164ZM104.059 41.0966L103.86 41.5552L104.337 41.7624L104.525 41.2781L104.059 41.0966ZM105.766 32.6448L106.266 32.6585L106.28 32.1448H105.766V32.6448ZM92.8164 32.6448V32.1448H92.3206L92.3165 32.6406L92.8164 32.6448ZM91.5523 43.8468L91.054 43.8877L92.0407 43.9541L91.5523 43.8468ZM67.7683 18.0386L67.4154 18.3928L67.5124 18.4894L67.645 18.5232L67.7683 18.0386ZM69.7514 18.4922V18.9922L69.8503 18.0021L69.7514 18.4922ZM69.7488 18.4922L69.2644 18.3681L69.1046 18.9922H69.7488V18.4922ZM71.5897 13.147L72.0479 13.3476L72.0527 13.3357L71.5897 13.147ZM75.814 6.98707L76.1566 7.35123L77.3989 6.18236L75.7221 6.49558L75.814 6.98707ZM73.7281 7.46701L73.5962 6.98471L73.7281 7.96701V7.46701ZM73.7307 7.46701L73.8637 7.949L73.7307 6.96701V7.46701ZM67.9105 9.89569L67.6618 9.46193L67.3775 9.62492L67.4135 9.95059L67.9105 9.89569ZM67.023 15.2566L66.5701 15.0448L66.4929 15.2097L66.5399 15.3857L67.023 15.2566ZM67.7657 18.036L67.2826 18.1651L67.3174 18.2952L67.4128 18.3902L67.7657 18.036ZM71.221 18.7691L71.3062 18.2764L70.7353 18.1776L70.7211 18.7568L71.221 18.7691ZM73.6518 19.125L73.5917 19.6214L74.1518 19.6893V19.125H73.6518ZM73.6518 19.1224L73.7122 18.6261L73.1518 18.5579V19.1224H73.6518ZM79.7249 19.5259L79.719 20.0258L80.2249 20.0317V19.5259H79.7249ZM79.7249 6.62606H80.2249V6.0363L79.6431 6.1328L79.7249 6.62606ZM72.9512 13.7588L72.4944 13.5554L72.1812 14.2588H72.9512V13.7588ZM72.9538 13.7588L73.4117 13.9596L73.719 13.2588H72.9538V13.7588ZM71.2209 18.7717L70.7211 18.7595L71.705 18.8966L71.2209 18.7717ZM81.2288 19.5285L81.4614 19.9711L81.2288 19.0285V19.5285ZM81.2262 19.5285L81.2201 19.0285L81.2262 20.0285V19.5285ZM87.6759 19.0802L87.7395 19.5762L87.7396 19.5761L87.6759 19.0802ZM89.7327 18.7691L89.8175 19.2618L90.3525 19.1697L90.2168 18.6441L89.7327 18.7691ZM87.9998 13.7562L88.458 13.556L88.4565 13.5526L87.9998 13.7562ZM81.2234 6.62613L81.3047 6.13278L80.7234 6.03704V6.62613H81.2234ZM81.2234 19.5313H80.7234V20.3589L81.456 19.974L81.2234 19.5313ZM69.4013 19.9478L69.3013 20.4377L70.9209 20.7684L69.7561 19.5955L69.4013 19.9478ZM68.2136 19.6867L68.3288 19.2002L67.5129 19.007L67.7307 19.8166L68.2136 19.6867ZM68.4427 20.5385V21.0385H69.095L68.9255 20.4086L68.4427 20.5385ZM68.44 20.5385V20.0385H67.7774L67.9592 20.6757L68.44 20.5385ZM68.2531 21.2636L67.8993 20.9103L67.8968 20.9127L68.2531 21.2636ZM67.5288 21.4614L67.3992 21.9443L67.4005 21.9446L67.5288 21.4614ZM62.2432 20.0427L62.3728 19.5598L62.196 19.5123L62.0304 19.5902L62.2432 20.0427ZM57.6318 20.9867L57.6501 20.487L57.3218 20.475L57.1805 20.7716L57.6318 20.9867ZM55.1878 31.1417L54.688 31.1278L54.6738 31.6417H55.1878V31.1417ZM68.1291 31.1417V31.6417H68.6246L68.6291 31.1462L68.1291 31.1417ZM69.3959 19.9423L69.7507 19.59L69.1044 18.9393L68.9076 19.835L69.3959 19.9423ZM105.592 43.9234L105.239 44.2766L105.239 44.2775L105.592 43.9234ZM96.8697 43.0612L96.5918 42.6455L96.5916 42.6456L96.8697 43.0612ZM102.055 55.5971L102.153 56.0874H102.153L102.055 55.5971ZM107.615 48.812L107.115 48.8113V48.812H107.615ZM100.736 52.2591L100.743 51.7591L100.236 51.7522V52.2591H100.736ZM102.324 54.25L102.212 54.7373L102.213 54.7375L102.324 54.25ZM104.615 53.1451L105.066 53.3623L105.066 53.3618L104.615 53.1451ZM104.049 50.6611L103.736 51.051L103.738 51.0522L104.049 50.6611ZM101.505 50.6584L101.255 51.0914L101.55 51.2617L101.817 51.0496L101.505 50.6584ZM98.8426 49.1211L98.3484 49.0452L98.2965 49.3831L98.5926 49.5541L98.8426 49.1211ZM98.8426 48.512L98.5926 48.079L98.2952 48.2507L98.3487 48.5899L98.8426 48.512ZM101.5 46.9773L101.75 47.4103L102 47.2659V46.9773H101.5ZM101.5 46.9746L101.813 46.5848L101 45.9318V46.9746H101.5ZM104.052 46.9799L104.363 47.3716L104.363 47.371L104.052 46.9799ZM104.623 44.488L105.074 44.2718L105.074 44.2718L104.623 44.488ZM102.324 43.3778L102.214 42.8902L102.212 42.8905L102.324 43.3778ZM100.755 45.6825L101.005 46.1153L101.302 45.9435L101.249 45.6046L100.755 45.6825ZM98.0973 47.2198L97.7851 47.6104L98.052 47.8237L98.3477 47.6526L98.0973 47.2198ZM95.9404 46.9772L95.7233 46.5268L95.9404 46.9772ZM98.0973 50.4159L98.3476 49.9831L98.0519 49.8121L97.7851 50.0253L98.0973 50.4159ZM100.76 51.9559L100.51 52.3887L100.626 52.4559H100.76V51.9559ZM100.763 51.9559L101.256 52.0337L101.348 51.4559H100.763V51.9559ZM100.739 52.2591L100.732 52.7591L101.239 52.766V52.2591H100.739ZM102.393 51.8741L102.744 52.23L102.746 52.2274L102.393 51.8741ZM102.324 52.5623L102.74 52.284L102.74 52.284L102.324 52.5623ZM102.985 52.7627L102.798 52.2989L102.792 52.3014L102.985 52.7627ZM103.312 52.1536L103.803 52.0576L103.802 52.0576L103.312 52.1536ZM102.393 44.9864L102.744 45.3422L102.746 45.3397L102.393 44.9864ZM102.324 45.6825L102.741 45.4066L102.739 45.4031L102.324 45.6825ZM102.993 45.8856L103.182 46.3483L103.184 46.3476L102.993 45.8856ZM103.322 45.2685L103.813 45.1735L103.812 45.1687L103.322 45.2685ZM96.4434 48.4303L96.0942 48.0723L96.0871 48.0795L96.4434 48.4303ZM96.3775 49.1185L95.9621 49.3968L95.9637 49.3992L96.3775 49.1185ZM97.0359 49.3163L96.8474 48.8532L96.8431 48.855L97.0359 49.3163ZM97.3599 48.7098L96.8691 48.8058L96.8704 48.8116L97.3599 48.7098ZM57.9876 15.5789L58.1085 16.064L59.3922 15.7441L58.2178 15.135L57.9876 15.5789ZM54.8747 13.1634L55.2478 12.8306L55.2427 12.8248L55.2374 12.8193L54.8747 13.1634ZM53.3208 10.8086L53.7797 10.61L53.7763 10.6021L53.7726 10.5943L53.3208 10.8086ZM53.1997 8.78605L52.7382 8.59367L52.7311 8.61066L52.7253 8.62813L53.1997 8.78605ZM53.7686 7.99231L54.0998 8.36696L54.1063 8.36096L53.7686 7.99231ZM55.8412 7.5493L55.9979 7.0745L55.9974 7.07433L55.8412 7.5493ZM57.2449 9.13942L57.7373 9.05199L57.7354 9.0425L57.2449 9.13942ZM57.977 9.75911L57.9806 9.25912H57.9806L57.977 9.75911ZM58.7144 9.14997L58.2235 9.05502L58.2228 9.05899L58.7144 9.14997ZM60.1181 7.54932L59.9603 7.07487L59.9603 7.07487L60.1181 7.54932ZM62.1986 7.99233L61.8607 8.36093L61.8655 8.36516L62.1986 7.99233ZM62.7675 8.78607L63.2419 8.62815L63.2355 8.60893L63.2276 8.5903L62.7675 8.78607ZM62.6463 10.8086L62.1935 10.5966L62.1904 10.6033L62.1875 10.6101L62.6463 10.8086ZM61.0925 13.1635L60.729 12.8199L60.7199 12.83L61.0925 13.1635ZM57.977 15.5815L57.7472 15.1375L58.0979 16.0667L57.977 15.5815ZM62.2066 14.1708L62.5801 14.5032L62.713 14.3539L62.7063 14.1542L62.2066 14.1708ZM58.2694 17.0925L58.46 17.5548L58.4695 17.5509L58.4788 17.5466L58.2694 17.0925ZM57.7085 17.0925L57.4994 17.5467L57.5086 17.5509L57.5179 17.5548L57.7085 17.0925ZM53.7686 14.1708L54.1422 13.8382L54.1327 13.8281L53.7686 14.1708ZM51.9277 11.3571L52.3873 11.1602L52.3836 11.1519L51.9277 11.3571ZM51.8144 8.22177L51.3521 8.03136L51.3483 8.04047L51.3449 8.04972L51.8144 8.22177ZM52.7652 6.88217L53.0982 7.25516L53.1022 7.25149L52.7652 6.88217ZM55.3908 5.95132L55.3622 6.4505L55.3635 6.45058L55.3908 5.95132ZM57.8927 7.17225L58.2726 6.84707L58.2689 6.84285L57.8927 7.17225ZM57.9875 7.28564L57.5873 7.58537L57.9748 8.10265L58.3782 7.59774L57.9875 7.28564ZM58.0824 7.17225L57.7062 6.84282L57.7025 6.84712L58.0824 7.17225ZM60.5869 5.94869L60.5596 5.44944L60.5582 5.44951L60.5869 5.94869ZM63.2126 6.88217L62.8762 7.25213L62.8795 7.25514L63.2126 6.88217ZM64.1633 8.21914L64.6328 8.04709L64.629 8.03681L64.6248 8.0267L64.1633 8.21914ZM64.0474 11.3545L63.5918 11.1482L63.5874 11.1586L64.0474 11.3545ZM62.2065 14.1681L61.843 13.8249L61.6999 13.9764L61.7068 14.1847L62.2065 14.1681ZM66.0232 15.0415C68.0057 11.0911 66.8292 6.28607 63.2486 3.70066L62.6632 4.51139C65.8457 6.8094 66.8919 11.0809 65.1294 14.593L66.0232 15.0415ZM63.2486 3.70067C59.6678 1.11492 54.7425 1.51427 51.6248 4.64726L52.3337 5.35263C55.1044 2.56827 59.4809 2.21345 62.6632 4.51139L63.2486 3.70067ZM51.625 4.64709C48.5074 7.77707 48.1227 12.7103 50.7159 16.2869L51.5255 15.6999C49.2202 12.5204 49.5624 8.1349 52.3335 5.3528L51.625 4.64709ZM50.7159 16.2869C53.3094 19.8637 58.1143 21.0254 62.055 19.0289L61.6031 18.1368C58.1007 19.9113 53.8305 18.8789 51.5255 15.6999L50.7159 16.2869ZM62.0586 19.027C62.1085 19.0012 62.1671 18.9945 62.2259 19.0103L62.4856 18.0446C62.1916 17.9655 61.8761 17.9957 61.5995 18.1387L62.0586 19.027ZM62.2262 19.0104L66.5295 20.1654L66.7887 19.1995L62.4854 18.0446L62.2262 19.0104ZM67.1421 19.5532L65.9886 15.2443L65.0226 15.5029L66.1761 19.8117L67.1421 19.5532ZM65.9886 15.2445C65.973 15.1861 65.98 15.1184 66.0142 15.0566L65.1392 14.5726C64.9837 14.8536 64.9381 15.1868 65.0225 15.5027L65.9886 15.2445ZM65.081 14.7494L65.0806 14.752L66.0721 14.8825L66.0724 14.8798L65.081 14.7494ZM80.4721 27.0411C81.495 27.0411 82.3746 27.7638 82.5732 28.7663L83.5541 28.572C83.2628 27.1011 81.9723 26.0411 80.4721 26.0411V27.0411ZM82.5732 28.7663C82.7719 29.7699 82.2353 30.7749 81.292 31.1659L81.6749 32.0897C83.0598 31.5156 83.8452 30.0418 83.5541 28.572L82.5732 28.7663ZM81.292 31.1659C80.3483 31.5571 79.2623 31.2281 78.6942 30.3772L77.8625 30.9324C78.6956 32.1804 80.2904 32.6636 81.6749 32.0897L81.292 31.1659ZM78.6942 30.3772C78.1257 29.5255 78.2373 28.392 78.9587 27.6697L78.2511 26.963C77.1922 28.0233 77.0299 29.685 77.8625 30.9324L78.6942 30.3772ZM78.9596 27.6688C79.3601 27.2656 79.9037 27.0411 80.4721 27.0411V26.0411C79.6395 26.0411 78.8399 26.3704 78.2502 26.964L78.9596 27.6688ZM81.6397 28.0178C81.083 27.4604 80.2156 27.3781 79.563 27.8125L80.1171 28.645C80.3756 28.4729 80.7145 28.5066 80.9321 28.7245L81.6397 28.0178ZM79.5619 27.8133C78.9108 28.2492 78.6577 29.0858 78.9566 29.8093L79.8808 29.4276C79.7636 29.1438 79.8634 28.8149 80.1182 28.6442L79.5619 27.8133ZM78.9562 29.8085C79.2551 30.5357 80.0274 30.95 80.7977 30.7941L80.5995 29.814C80.3006 29.8744 79.9984 29.7138 79.8812 29.4284L78.9562 29.8085ZM80.7949 30.7947C81.568 30.6429 82.1204 29.9668 82.1204 29.1807H81.1204C81.1204 29.4915 80.9037 29.7542 80.6023 29.8134L80.7949 30.7947ZM82.1204 29.1807C82.1204 28.7479 81.9512 28.3259 81.6375 28.0157L80.9343 28.7267C81.0525 28.8435 81.1204 29.007 81.1204 29.1807H82.1204ZM76.1482 25.3839C77.1266 24.4067 78.4066 23.7927 79.7789 23.6417L79.6695 22.6477C78.0711 22.8236 76.5805 23.5387 75.4415 24.6764L76.1482 25.3839ZM80.2242 23.1447V21.0272H79.2242V23.1447H80.2242ZM79.7299 20.5272C77.6572 20.5037 75.5869 20.3652 73.5293 20.1168L73.4095 21.1096C75.5024 21.3622 77.6089 21.5032 79.7185 21.5272L79.7299 20.5272ZM73.5299 20.1169C72.6509 20.0098 71.7907 19.8819 70.9491 19.7332L70.7751 20.7179C71.6349 20.8699 72.5129 21.0004 73.4089 21.1095L73.5299 20.1169ZM70.3738 20.1181C69.5763 23.7409 69.1589 27.4354 69.127 31.1438L70.127 31.1524C70.1582 27.5134 70.5678 23.888 71.3504 20.3331L70.3738 20.1181ZM69.627 31.6481H74.2542V30.6481H69.627V31.6481ZM74.7388 31.0249C74.5989 30.4742 74.5276 29.9083 74.5251 29.3422L73.5251 29.3466C73.5279 29.9936 73.6094 30.6407 73.7697 31.2713L74.7388 31.0249ZM74.5251 29.3371C74.5034 27.8574 75.0893 26.4326 76.141 25.394L75.4383 24.6825C74.1935 25.9117 73.4995 27.5985 73.5252 29.3517L74.5251 29.3371ZM76.21 25.309L76.2152 25.3009L75.3745 24.7594L75.3693 24.7675L76.21 25.309ZM80.7254 23.1368V23.1394H81.7254V23.1368H80.7254ZM81.1707 23.6364C82.5454 23.7875 83.8278 24.4038 84.8061 25.3835L85.5137 24.6768C84.3747 23.5363 82.8813 22.8184 81.28 22.6424L81.1707 23.6364ZM84.8086 25.3859C85.8628 26.4269 86.4464 27.8494 86.4271 29.3298L87.427 29.3428C87.4498 27.5904 86.7588 25.9064 85.5113 24.6744L84.8086 25.3859ZM86.4271 29.3341C86.4246 29.9029 86.3533 30.4688 86.2134 31.0195L87.1826 31.2658C87.3428 30.6351 87.4243 29.988 87.4271 29.3385L86.4271 29.3341ZM86.698 31.6426H91.3226V30.6426H86.698V31.6426ZM91.8226 31.1383C91.7906 27.4304 91.3733 23.7384 90.573 20.1176L89.5966 20.3334C90.3817 23.8858 90.7913 27.5083 90.8226 31.1469L91.8226 31.1383ZM89.999 19.7329C89.2792 19.8583 88.5438 19.9705 87.793 20.0671L87.9206 21.0589C88.6867 20.9604 89.4367 20.8459 90.1706 20.7181L89.999 19.7329ZM87.8568 21.063H87.8594V20.063H87.8568V21.063ZM87.7958 20.0671C85.6131 20.3468 83.4175 20.501 81.2168 20.5272L81.2286 21.5271C83.4682 21.5005 85.7023 21.3436 87.923 21.059L87.7958 20.0671ZM80.7227 21.0271V23.1446H81.7227V21.0271H80.7227ZM81.6963 23.3049L81.699 23.2971L80.7518 22.9765L80.7491 22.9843L81.6963 23.3049ZM85.7224 32.4371C85.4771 32.9884 85.1788 33.5181 84.8349 34.0183L85.6589 34.5849C86.0366 34.0356 86.3651 33.4525 86.636 32.8436L85.7224 32.4371ZM84.8345 34.0189L80.8103 39.8888L81.6351 40.4542L85.6593 34.5843L84.8345 34.0189ZM80.7227 40.1715V42.7663H81.7227V40.1715H80.7227ZM81.2171 43.2663C83.3212 43.2898 85.4226 43.4309 87.5109 43.6897L87.6338 42.6973C85.5084 42.4339 83.3696 42.2903 81.2283 42.2663L81.2171 43.2663ZM87.5112 43.6897C88.3582 43.7941 89.1875 43.9194 89.9992 44.0606L90.1705 43.0753C89.344 42.9316 88.4983 42.8038 87.6335 42.6973L87.5112 43.6897ZM90.5731 43.6755C91.3707 40.0552 91.7881 36.3608 91.8199 32.6524L90.82 32.6438C90.7887 36.2828 90.3792 39.9081 89.5965 43.4604L90.5731 43.6755ZM91.3207 32.1481L86.1799 32.1403L86.1784 33.1403L91.3192 33.1481L91.3207 32.1481ZM80.1367 39.8887L76.1152 34.0214L75.2903 34.5868L79.3118 40.454L80.1367 39.8887ZM75.2028 34.3041V34.3067H76.2028V34.3041H75.2028ZM76.1148 34.0235C75.7715 33.5242 75.4754 32.9941 75.2265 32.4405L74.3144 32.8504C74.587 33.457 74.9124 34.0397 75.2908 34.59L76.1148 34.0235ZM74.7705 32.1455H69.6271V33.1455H74.7705V32.1455ZM69.1271 32.652C69.1377 33.4617 69.1616 34.2522 69.2042 35.0176L70.2027 34.962C70.161 34.2137 70.1375 33.4378 70.127 32.6389L69.1271 32.652ZM69.2041 35.0163C69.2466 35.8167 69.3051 36.6127 69.3823 37.3987L70.3775 37.301C70.3019 36.5313 70.2445 35.7503 70.2027 34.9633L69.2041 35.0163ZM69.8799 37.8499H71.3863V36.8499H69.8799V37.8499ZM71.3863 36.8499H71.3837V37.8499H71.3863V36.8499ZM71.3829 37.8499C72.8528 37.8521 74.0471 39.0469 74.0493 40.5202L75.0493 40.5187C75.0462 38.4955 73.4066 36.8529 71.3844 36.8499L71.3829 37.8499ZM74.0493 40.5195V43.0641H75.0493V40.5195H74.0493ZM74.6007 43.5615C75.4088 43.478 76.2389 43.4126 77.0883 43.3629L77.0299 42.3646C76.1674 42.4151 75.3225 42.4816 74.4979 42.5668L74.6007 43.5615ZM77.0873 43.3629C77.9679 43.3132 78.8511 43.2818 79.7317 43.2688L79.7169 42.2689C78.8225 42.2822 77.9254 42.314 77.0309 42.3645L77.0873 43.3629ZM80.2243 42.7688L80.2242 40.1713L79.2242 40.1714L79.2243 42.7688L80.2243 42.7688ZM80.4741 24.1003C78.9817 24.0945 77.5503 24.6853 76.4951 25.739L77.2017 26.4466C78.069 25.5806 79.2448 25.0956 80.4703 25.1003L80.4741 24.1003ZM76.4968 25.7373C75.5336 26.6899 75.0006 27.9918 75.0211 29.3465L76.0209 29.3314C76.0046 28.2495 76.4301 27.2097 77.2 26.4483L76.4968 25.7373ZM75.0213 29.3558C75.0747 30.9406 75.6032 32.4711 76.53 33.7534L77.3405 33.1676C76.5291 32.045 76.0674 30.7065 76.0207 29.3221L75.0213 29.3558ZM76.5229 33.7433L80.0598 38.9012L80.8846 38.3357L77.3476 33.1778L76.5229 33.7433ZM80.8846 38.9012L84.4215 33.7433L83.5968 33.1778L80.0598 38.3357L80.8846 38.9012ZM84.4139 33.754C85.3442 32.4709 85.8695 30.9404 85.9257 29.3567L84.9263 29.3212C84.8771 30.7068 84.4176 32.0453 83.6043 33.1671L84.4139 33.754ZM85.926 29.3454C85.9436 27.9942 85.4108 26.6926 84.4503 25.7426L83.7471 26.4536C84.5142 27.2123 84.9401 28.2524 84.9261 29.3324L85.926 29.3454ZM84.4515 25.7438C83.3939 24.6906 81.9628 24.0997 80.4702 24.1056L80.4742 25.1056C81.6994 25.1008 82.8756 25.5858 83.7459 26.4524L84.4515 25.7438ZM80.9722 24.6056V24.6003H79.9722V24.6056H80.9722ZM54.5444 51.2663C54.41 51.2663 54.2965 51.1555 54.2965 51.0147H53.2965C53.2965 51.702 53.8519 52.2663 54.5444 52.2663V51.2663ZM54.2965 51.0147C54.2965 50.8762 54.4077 50.7658 54.5444 50.7658V49.7658C53.8542 49.7658 53.2965 50.3252 53.2965 51.0147H54.2965ZM54.5444 50.7658H70.4778V49.7658H54.5444V50.7658ZM70.4778 50.7658C70.6169 50.7658 70.7284 50.8785 70.7284 51.0147H71.7284C71.7284 50.3229 71.1658 49.7658 70.4778 49.7658V50.7658ZM70.7284 51.0147C70.7284 51.1532 70.6146 51.2663 70.4778 51.2663V52.2663C71.1681 52.2663 71.7284 51.7043 71.7284 51.0147H70.7284ZM70.4778 51.2663H54.5444V52.2663H70.4778V51.2663ZM54.5444 47.0023C54.41 47.0023 54.2965 46.8915 54.2965 46.7507H53.2965C53.2965 47.438 53.8519 48.0023 54.5444 48.0023V47.0023ZM54.2965 46.7507C54.2965 46.6123 54.4077 46.5018 54.5444 46.5018V45.5018C53.8542 45.5018 53.2965 46.0612 53.2965 46.7507H54.2965ZM54.5444 46.5018H70.4778V45.5018H54.5444V46.5018ZM70.4778 46.5018C70.6169 46.5018 70.7284 46.6145 70.7284 46.7507H71.7284C71.7284 46.0589 71.1658 45.5018 70.4778 45.5018V46.5018ZM70.7284 46.7507C70.7284 46.8892 70.6146 47.0023 70.4778 47.0023V48.0023C71.1681 48.0023 71.7284 47.4403 71.7284 46.7507H70.7284ZM70.4778 47.0023H54.5444V48.0023H70.4778V47.0023ZM54.5314 42.7385C54.4641 42.7402 54.3968 42.7152 54.3432 42.6644L53.6554 43.3903C53.8968 43.619 54.2192 43.7469 54.5574 43.7381L54.5314 42.7385ZM54.3498 42.6708C54.2994 42.6213 54.2728 42.5568 54.2728 42.4894H53.2728C53.2728 42.8282 53.4095 43.1486 53.6488 43.3839L54.3498 42.6708ZM54.2728 42.4894C54.2728 42.4193 54.3012 42.3549 54.3465 42.3113L53.6521 41.5916C53.4077 41.8275 53.2728 42.1534 53.2728 42.4894H54.2728ZM54.3466 42.3112C54.3992 42.2604 54.4627 42.2377 54.5249 42.2401L54.5639 41.2409C54.2206 41.2275 53.8944 41.3577 53.652 41.5918L54.3466 42.3112ZM54.5444 42.2405H63.0852V41.2405H54.5444V42.2405ZM63.105 42.2401C63.166 42.2377 63.2298 42.2614 63.2772 42.308L63.9783 41.5949C63.7359 41.3567 63.4048 41.2275 63.0655 41.2409L63.105 42.2401ZM63.2806 42.3113C63.329 42.358 63.3569 42.4238 63.3569 42.4894H64.3569C64.3569 42.1489 64.2162 41.8244 63.9749 41.5916L63.2806 42.3113ZM63.3569 42.4894C63.3569 42.5524 63.3308 42.6181 63.2772 42.6708L63.9783 43.3839C64.2144 43.1518 64.3569 42.8325 64.3569 42.4894H63.3569ZM63.2806 42.6675C63.2323 42.7141 63.1646 42.7402 63.0984 42.7385L63.0721 43.7381C63.4061 43.7469 63.7335 43.6201 63.9749 43.3872L63.2806 42.6675ZM63.0852 42.7383H54.5444V43.7383H63.0852V42.7383ZM53.6411 37.8526H54.2284V36.8526H53.6411V37.8526ZM54.7181 37.2513C54.5682 36.5268 54.4493 35.7973 54.3615 35.0599L53.3685 35.1782C53.4597 35.9439 53.5832 36.7016 53.7388 37.4538L54.7181 37.2513ZM54.3614 35.0595C53.9918 31.9772 54.1675 28.853 54.8759 25.8294L53.9023 25.6013C53.1674 28.7381 52.985 31.9797 53.3686 35.1786L54.3614 35.0595ZM54.8757 25.8302C55.2659 24.1768 55.8164 22.5648 56.5193 21.0174L55.6088 20.6038C54.8791 22.2103 54.3076 23.8839 53.9024 25.6005L54.8757 25.8302ZM56.1603 20.32C53.9391 19.8842 51.9478 18.667 50.5442 16.8882L49.7591 17.5077C51.3104 19.4736 53.5117 20.8194 55.9678 21.3013L56.1603 20.32ZM50.5442 16.8882C49.1405 15.1095 48.4175 12.8873 48.5075 10.6228L47.5083 10.583C47.4088 13.0861 48.2079 15.542 49.7592 17.5077L50.5442 16.8882ZM48.5075 10.6228C48.5976 8.35789 49.4934 6.19831 51.032 4.53749L50.2984 3.85791C48.5977 5.69379 47.6078 8.08037 47.5083 10.583L48.5075 10.6228ZM51.0317 4.5378C52.5729 2.87685 54.6545 1.82218 56.9038 1.56168L56.7888 0.568315C54.3027 0.856237 52.002 2.02199 50.2987 3.8576L51.0317 4.5378ZM56.9033 1.56174C59.1522 1.30374 61.4213 1.85985 63.295 3.12725L63.8553 2.29895C61.7838 0.89773 59.2755 0.28304 56.7893 0.568253L56.9033 1.56174ZM63.2949 3.12716C65.1713 4.39728 66.5324 6.29616 67.1329 8.48335L68.0972 8.21859C67.4336 5.80156 65.9294 3.70285 63.8554 2.29903L63.2949 3.12716ZM67.8557 8.78925C72.1587 6.42673 77.0379 5.31923 81.9375 5.59354L81.9934 4.5951C76.9068 4.31032 71.8414 5.4601 67.3745 7.91268L67.8557 8.78925ZM81.9375 5.59354C86.8372 5.86785 91.5617 7.51096 95.5778 10.3368L96.1532 9.51901C91.9844 6.58564 87.08 4.87988 81.9934 4.5951L81.9375 5.59354ZM96.2357 10.264C96.3075 10.1849 96.3807 10.1118 96.4722 10.0174L95.7539 9.32165C95.6768 9.4012 95.5815 9.49685 95.4953 9.59182L96.2357 10.264ZM95.613 9.6695V9.67214H96.613V9.6695H95.613ZM96.4668 10.0255C98.3075 8.18244 100.873 7.25964 103.466 7.50655L103.561 6.51105C100.671 6.23587 97.811 7.26441 95.7593 9.31881L96.4668 10.0255ZM103.467 7.50659C106.057 7.75095 108.403 9.14239 109.865 11.3001L110.693 10.7391C109.064 8.33492 106.449 6.78349 103.561 6.51101L103.467 7.50659ZM109.865 11.2998C111.325 13.4578 111.751 16.1545 111.021 18.6585L111.981 18.9383C112.795 16.1479 112.32 13.1434 110.693 10.7394L109.865 11.2998ZM111.021 18.6588C110.294 21.1604 108.488 23.2056 106.096 24.2383L106.493 25.1564C109.158 24.0056 111.171 21.7262 111.981 18.938L111.021 18.6588ZM105.813 24.8317C106.103 25.8693 106.327 26.9221 106.485 27.9851L107.474 27.8385C107.31 26.7338 107.077 25.6402 106.776 24.563L105.813 24.8317ZM106.485 27.9854C106.94 31.0394 106.857 34.1504 106.242 37.176L107.222 37.3752C107.86 34.2357 107.946 31.0074 107.474 27.8381L106.485 27.9854ZM106.242 37.1767C105.934 38.7002 105.49 40.1902 104.914 41.6338L105.843 42.0045C106.441 40.5052 106.903 38.9573 107.222 37.3745L106.242 37.1767ZM105.098 42.2331C105.528 42.5243 105.93 42.8549 106.294 43.2193L107.001 42.5127C106.591 42.1019 106.14 41.7309 105.659 41.4051L105.098 42.2331ZM106.299 43.224C107.815 44.7027 108.679 46.7269 108.694 48.8449L109.694 48.8379C109.678 46.4519 108.704 44.1726 106.997 42.508L106.299 43.224ZM108.694 48.8449C108.709 50.9631 107.874 52.9996 106.378 54.4977L107.086 55.2044C108.771 53.5171 109.711 51.2236 109.694 48.8379L108.694 48.8449ZM106.378 54.4977C104.882 55.9956 102.849 56.8289 100.733 56.814L100.726 57.8139C103.109 57.8307 105.4 56.892 107.086 55.2044L106.378 54.4977ZM100.733 56.814C98.6188 56.7991 96.5974 55.9338 95.1206 54.4154L94.4037 55.1126C96.0663 56.8219 98.3429 57.7972 100.726 57.8139L100.733 56.814ZM95.1159 54.4107C95.0803 54.375 95.0533 54.3479 95.0297 54.3223L94.2945 55.0001C94.334 55.043 94.3755 55.0845 94.4084 55.1174L95.1159 54.4107ZM94.397 54.2372C86.799 58.9883 77.3089 59.5395 69.2121 55.7019L68.7838 56.6055C77.1887 60.5892 87.0401 60.017 94.9272 55.0851L94.397 54.2372ZM68.9979 55.6537H60.9284V56.6537H68.9979V55.6537ZM60.606 55.7715L55.2229 60.3124L55.8677 61.0768L61.2508 56.5359L60.606 55.7715ZM55.2231 60.3123C54.9674 60.5277 54.6068 60.5604 54.3164 60.3964L53.8245 61.267C54.477 61.6356 55.291 61.5629 55.8675 61.0769L55.2231 60.3123ZM54.3183 60.3974C54.028 60.2318 53.8705 59.9039 53.9241 59.5718L52.9369 59.4124C52.8168 60.1562 53.1702 60.8937 53.8227 61.266L54.3183 60.3974ZM53.9239 59.573L54.4717 56.232L53.4849 56.0702L52.9371 59.4112L53.9239 59.573ZM53.9783 55.6511H53.6386V56.6511H53.9783V55.6511ZM53.2848 56.5044L53.2874 56.507L53.995 55.8004L53.9924 55.7978L53.2848 56.5044ZM53.642 55.6537C52.1697 55.6515 50.9778 54.4569 50.9756 52.9833L49.9756 52.9848C49.9787 55.0078 51.6153 56.6507 53.6405 56.6537L53.642 55.6537ZM50.9756 52.9841V40.5163H49.9756V52.9841H50.9756ZM50.9756 40.5171C50.9779 39.0435 52.1697 37.8489 53.642 37.8467L53.6405 36.8467C51.6154 36.8497 49.9787 38.4926 49.9756 40.5156L50.9756 40.5171ZM53.1412 37.3406L53.1412 37.3465L54.1411 37.3586L54.1412 37.3527L53.1412 37.3406ZM55.7559 37.8526H68.379V36.8526H55.7559V37.8526ZM68.8769 37.3069C68.8089 36.5658 68.7515 35.8106 68.7124 35.0435L67.7137 35.0944C67.7536 35.8778 67.8121 36.6467 67.8811 37.3982L68.8769 37.3069ZM68.7124 35.043C68.6706 34.2398 68.6445 33.442 68.634 32.6469L67.6341 32.6601C67.6447 33.4683 67.6713 34.279 67.7137 35.0949L68.7124 35.043ZM68.1341 32.1535H55.182V33.1535H68.1341V32.1535ZM54.6822 32.6688C54.7063 33.4577 54.7626 34.2371 54.854 35.0042L55.847 34.8859C55.7593 34.1498 55.705 33.3998 55.6817 32.6382L54.6822 32.6688ZM54.854 35.0038C54.9533 35.8423 55.0903 36.6603 55.2679 37.4632L56.2443 37.2472C56.0743 36.4784 55.9426 35.6933 55.8471 34.8862L54.854 35.0038ZM56.2548 37.3195L56.2546 37.3169L55.2572 37.3883L55.2574 37.3909L56.2548 37.3195ZM74.0493 44.5649V53.0215H75.0493V44.5649H74.0493ZM74.123 53.2828C74.9012 54.5521 75.9102 55.6613 77.0974 56.5584L77.7003 55.7605C76.6121 54.9383 75.688 53.9222 74.9755 52.7601L74.123 53.2828ZM77.1003 56.5606C77.8498 57.1184 78.7191 57.4944 79.6362 57.6637L79.8177 56.6804C79.0493 56.5385 78.3226 56.2237 77.6974 55.7584L77.1003 56.5606ZM80.2269 57.1721V44.2668H79.2269V57.1721H80.2269ZM79.721 43.7669C78.8291 43.7775 77.9599 43.8068 77.1135 43.8574L77.1733 44.8556C78.0019 44.806 78.855 44.7773 79.7329 44.7668L79.721 43.7669ZM77.1147 43.8573C76.2348 43.9079 75.3601 43.9798 74.4957 44.073L74.6029 45.0672C75.4504 44.9758 76.3085 44.9053 77.1721 44.8557L77.1147 43.8573ZM75.0493 44.5701V44.5649H74.0493V44.5701H75.0493ZM73.5631 54.5174C73.4754 54.6425 73.3767 54.7589 73.2668 54.8667L73.9672 55.5805C74.1206 55.4299 74.259 55.2668 74.382 55.0913L73.5631 54.5174ZM73.2632 54.8703C72.995 55.1388 72.6705 55.3482 72.3141 55.4843L72.6707 56.4185C73.1571 56.2329 73.6016 55.9466 73.9708 55.5769L73.2632 54.8703ZM72.3346 56.4258C73.1108 56.684 73.9061 56.9073 74.7125 57.0903L74.9338 56.1151C74.1601 55.9395 73.3963 55.7251 72.6502 55.4769L72.3346 56.4258ZM74.712 57.0902C75.0421 57.1654 75.3781 57.2355 75.7148 57.2975L75.896 56.314C75.5744 56.2548 75.2521 56.1877 74.9342 56.1152L74.712 57.0902ZM75.3054 56.8058V56.8084H76.3054V56.8058H75.3054ZM76.1368 56.434C75.484 55.8563 74.8941 55.21 74.3746 54.5071L73.5704 55.1015C74.1308 55.8597 74.768 56.558 75.4741 57.1829L76.1368 56.434ZM71.3823 39.3451C72.0297 39.347 72.5534 39.8709 72.5534 40.517H73.5534C73.5534 39.3172 72.5812 38.3485 71.3851 38.3451L71.3823 39.3451ZM72.5534 40.517V52.9821H73.5534V40.517H72.5534ZM72.5534 52.9806C72.5516 53.6278 72.0274 54.1513 71.3863 54.1513V55.1513C72.5835 55.1513 73.55 54.1769 73.5534 52.9835L72.5534 52.9806ZM71.3863 54.1513H60.6598V55.1513H71.3863V54.1513ZM60.6598 54.1513C60.3226 54.1513 60.0025 54.289 59.7682 54.528L60.4822 55.2281C60.5323 55.177 60.5967 55.1513 60.6598 55.1513V54.1513ZM59.8027 54.496L54.6698 58.8286L55.3148 59.5927L60.4477 55.2602L59.8027 54.496ZM55.4857 59.2914L56.0888 55.6076L55.1019 55.446L54.4988 59.1299L55.4857 59.2914ZM56.0891 55.6057C56.1414 55.2784 56.0631 54.9444 55.8694 54.6755L55.058 55.26C55.0961 55.3129 55.1125 55.3797 55.1016 55.4479L56.0891 55.6057ZM55.8694 54.6755C55.6768 54.4081 55.3864 54.2267 55.0592 54.1736L54.899 55.1607C54.9616 55.1709 55.0189 55.2057 55.058 55.26L55.8694 54.6755ZM55.0453 54.1716C54.9826 54.1632 54.9183 54.1593 54.858 54.1593V55.1593C54.8766 55.1593 54.8966 55.1606 54.9129 55.1628L55.0453 54.1716ZM54.858 54.1593H53.6412V55.1593H54.858V54.1593ZM53.6427 54.1593C52.9965 54.1574 52.4734 53.6345 52.4715 52.986L51.4715 52.9888C51.4749 54.1862 52.4424 55.1558 53.6398 55.1593L53.6427 54.1593ZM52.4715 52.9874V40.5169H51.4715V52.9874H52.4715ZM52.4715 40.5183C52.4734 39.8698 52.9965 39.3469 53.6427 39.3451L53.6398 38.3451C52.4424 38.3485 51.4749 39.3181 51.4715 40.5155L52.4715 40.5183ZM53.6412 39.3451L71.3837 39.3451L71.3837 38.3451L53.6412 38.3451L53.6412 39.3451ZM108.158 14.6032C107.391 13.8352 106.194 13.7203 105.295 14.3223L105.852 15.1531C106.354 14.8164 107.022 14.8807 107.45 15.3099L108.158 14.6032ZM105.295 14.3223C104.398 14.9237 104.045 16.0768 104.461 17.0764L105.385 16.692C105.153 16.1357 105.348 15.4904 105.852 15.1531L105.295 14.3223ZM104.461 17.0758C104.876 18.0757 105.936 18.6446 106.998 18.4347L106.804 17.4537C106.211 17.5709 105.618 17.2537 105.385 16.6925L104.461 17.0758ZM106.999 18.4344C108.059 18.2215 108.823 17.2916 108.823 16.2091H107.823C107.823 16.8143 107.396 17.3347 106.802 17.454L106.999 18.4344ZM108.823 16.2091C108.823 15.605 108.584 15.0261 108.156 14.6018L107.452 15.3113C107.688 15.5463 107.823 15.8692 107.823 16.2091H108.823ZM107.324 16.2091C107.324 15.8452 107.067 15.5206 106.698 15.4514L106.514 16.4342C106.398 16.4125 106.324 16.3146 106.324 16.2091H107.324ZM106.708 15.4533C106.339 15.3763 105.98 15.5789 105.841 15.9156L106.765 16.297C106.726 16.3911 106.62 16.4565 106.504 16.4323L106.708 15.4533ZM105.842 15.912C105.698 16.255 105.821 16.6483 106.128 16.8507L106.678 16.0159C106.769 16.0759 106.808 16.1949 106.764 16.3006L105.842 15.912ZM106.121 16.846C106.433 17.0598 106.839 17.0085 107.094 16.7601L106.397 16.0432C106.468 15.9741 106.589 15.9544 106.685 16.0205L106.121 16.846ZM107.099 16.755C107.25 16.604 107.324 16.4064 107.324 16.2091H106.324C106.324 16.1543 106.346 16.0938 106.392 16.0483L107.099 16.755ZM104.247 14.6032C103.48 13.8358 102.281 13.7174 101.38 14.3192L101.935 15.1509C102.44 14.8139 103.11 14.8801 103.539 15.3099L104.247 14.6032ZM101.379 14.3197C100.481 14.9216 100.13 16.0746 100.545 17.0779L101.469 16.6957C101.236 16.1326 101.433 15.4872 101.936 15.1504L101.379 14.3197ZM100.544 17.0771C100.957 18.0791 102.022 18.6477 103.083 18.4344L102.886 17.454C102.294 17.5731 101.699 17.2556 101.469 16.6965L100.544 17.0771ZM103.081 18.4348C104.146 18.2249 104.909 17.2908 104.909 16.2091H103.909C103.909 16.8151 103.482 17.3366 102.888 17.4537L103.081 18.4348ZM104.909 16.2119C104.913 15.6058 104.673 15.026 104.246 14.6018L103.541 15.3113C103.777 15.5463 103.911 15.8684 103.909 16.2063L104.909 16.2119ZM103.413 16.2091C103.413 16.0029 103.332 15.8073 103.188 15.6633L102.481 16.37C102.437 16.3262 102.413 16.2676 102.413 16.2091H103.413ZM103.188 15.6633C103.046 15.5211 102.852 15.4349 102.642 15.4349V16.4349C102.574 16.4349 102.517 16.4067 102.481 16.37L103.188 15.6633ZM102.642 15.4349C102.215 15.4349 101.868 15.7833 101.868 16.2091H102.868C102.868 16.3344 102.769 16.4349 102.642 16.4349V15.4349ZM101.868 16.2091C101.868 16.4188 101.954 16.6128 102.096 16.7549L102.804 16.0483C102.84 16.085 102.868 16.1418 102.868 16.2091H101.868ZM102.096 16.755C102.399 17.0584 102.884 17.0522 103.184 16.7593L102.485 16.044C102.569 15.962 102.711 15.9558 102.804 16.0483L102.096 16.755ZM103.197 16.7458C103.329 16.6068 103.413 16.4173 103.413 16.2091H102.413C102.413 16.1433 102.44 16.091 102.472 16.0575L103.197 16.7458ZM100.334 14.604C99.5701 13.8355 98.3672 13.7173 97.468 14.3197L98.0246 15.1504C98.5266 14.8141 99.1988 14.8804 99.6251 15.3091L100.334 14.604ZM97.4688 14.3192C96.566 14.9218 96.2198 16.075 96.6306 17.0766L97.5558 16.697C97.3241 16.1322 97.5203 15.4871 98.0239 15.1509L97.4688 14.3192ZM96.6314 17.0785C97.0466 18.0788 98.1104 18.6478 99.1722 18.4344L98.9752 17.454C98.3831 17.573 97.7877 17.2558 97.555 16.6952L96.6314 17.0785ZM99.1707 18.4347C100.232 18.2249 100.998 17.2915 100.998 16.2091H99.9985C99.9985 16.8144 99.5692 17.3366 98.9767 17.4537L99.1707 18.4347ZM100.998 16.2091C100.998 15.605 100.759 15.0261 100.332 14.6018L99.6273 15.3113C99.8638 15.5463 99.9985 15.8692 99.9985 16.2091H100.998ZM99.5 16.2091C99.5 15.8452 99.2422 15.5206 98.8736 15.4514L98.6891 16.4342C98.5734 16.4125 98.5 16.3146 98.5 16.2091H99.5ZM98.8835 15.4533C98.5143 15.3763 98.1552 15.5789 98.0163 15.9156L98.9407 16.297C98.9019 16.3911 98.7956 16.4565 98.6793 16.4323L98.8835 15.4533ZM98.0142 15.9208C97.8825 16.2504 97.9889 16.6434 98.3033 16.8507L98.8538 16.0159C98.9523 16.0808 98.9797 16.1995 98.9428 16.2918L98.0142 15.9208ZM98.2964 16.846C98.6091 17.0598 99.0141 17.0085 99.2696 16.7601L98.5723 16.0432C98.6434 15.9741 98.7641 15.9544 98.8608 16.0205L98.2964 16.846ZM99.2747 16.755C99.4255 16.604 99.5 16.4064 99.5 16.2091H98.5C98.5 16.1543 98.5218 16.0938 98.5672 16.0483L99.2747 16.755ZM94.73 19.9141C94.621 19.6834 94.5248 19.4512 94.4412 19.2147L93.4984 19.5481C93.5938 19.818 93.7031 20.0815 93.8258 20.3413L94.73 19.9141ZM93.8407 18.8983C93.0717 19.1039 92.2774 19.289 91.4548 19.4616L91.6601 20.4403C92.4965 20.2648 93.3089 20.0756 94.0989 19.8644L93.8407 18.8983ZM91.5574 19.451H91.5548V20.451H91.5574V19.451ZM91.0664 20.0583C91.8675 23.703 92.2876 27.4237 92.3189 31.1572L93.3189 31.1488C93.287 27.3459 92.8591 23.5561 92.0431 19.8436L91.0664 20.0583ZM92.8189 31.653H105.766V30.653H92.8189V31.653ZM106.265 31.1387C106.206 29.0791 105.903 27.0385 105.363 25.0518L104.398 25.3139C104.917 27.2248 105.209 29.1871 105.266 31.1673L106.265 31.1387ZM104.762 24.6972C104.516 24.7574 104.271 24.8074 104.022 24.8474L104.18 25.8348C104.458 25.7903 104.729 25.7349 105 25.6685L104.762 24.6972ZM104.022 24.8474C102.293 25.1243 100.524 24.8773 98.9404 24.1366L98.5168 25.0425C100.283 25.8682 102.254 26.1433 104.18 25.8348L104.022 24.8474ZM98.599 24.1066L93.7663 25.404L94.0256 26.3698L98.8583 25.0724L98.599 24.1066ZM93.896 25.3869H93.8933V26.3869H93.896V25.3869ZM93.765 25.4037C93.6783 25.4267 93.589 25.4011 93.5304 25.3408L92.8131 26.0375C93.1284 26.3622 93.5922 26.4843 94.0217 26.3702L93.765 25.4037ZM93.5255 25.3358C93.4648 25.2751 93.44 25.1845 93.4642 25.0967L92.5 24.8314C92.382 25.2604 92.4994 25.7235 92.8179 26.0425L93.5255 25.3358ZM93.4651 25.0933L94.7582 20.2624L93.7922 20.0038L92.4991 24.8347L93.4651 25.0933ZM94.7233 20.3551L94.726 20.3496L93.8299 19.9057L93.8272 19.9112L94.7233 20.3551ZM94.0633 17.8457C93.6373 15.603 94.1032 13.2828 95.3589 11.3793L94.5242 10.8286C93.1253 12.9492 92.6062 15.5338 93.0809 18.0323L94.0633 17.8457ZM95.2282 10.6943C92.2307 8.59656 88.8222 7.16578 85.2282 6.49607L85.045 7.47915C88.4986 8.12271 91.7742 9.49763 94.6549 11.5136L95.2282 10.6943ZM84.7935 7.35125C86.572 9.02958 87.9717 11.0691 88.8953 13.3338L89.8212 12.9561C88.8435 10.5587 87.3619 8.40007 85.4798 6.62396L84.7935 7.35125ZM88.9001 13.3451C89.6452 15.0504 90.2527 16.8155 90.7149 18.617L91.6835 18.3685C91.2081 16.5151 90.583 14.6992 89.8164 12.9447L88.9001 13.3451ZM91.2992 18.9826C92.1227 18.8145 92.9248 18.6251 93.7001 18.4197L93.444 17.453C92.6865 17.6537 91.9032 17.8387 91.0992 18.0028L91.2992 18.9826ZM93.0722 17.949L93.0723 17.9516L94.0719 17.9263L94.0719 17.9237L93.0722 17.949ZM94.4995 14.9803V14.9829H95.4995V14.9803H94.4995ZM94.5057 14.9043C94.2338 16.6107 94.503 18.3618 95.2764 19.9107L96.1711 19.464C95.4908 18.1016 95.2543 16.5618 95.4933 15.0616L94.5057 14.9043ZM95.2878 19.9322C95.3192 19.9881 95.3282 20.055 95.3114 20.1189L96.2783 20.3738C96.3616 20.058 96.3179 19.7241 96.1597 19.4424L95.2878 19.9322ZM95.3119 20.117L94.2795 23.9723L95.2455 24.2309L96.2778 20.3757L95.3119 20.117ZM94.8921 24.5845L98.7424 23.5508L98.4832 22.585L94.6329 23.6187L94.8921 24.5845ZM98.7427 23.5508C98.8015 23.535 98.86 23.5417 98.91 23.5675L99.3691 22.6791C99.0925 22.5362 98.777 22.506 98.4829 22.5851L98.7427 23.5508ZM98.9135 23.5693C102.093 25.1808 105.949 24.5631 108.467 22.0365L107.758 21.3306C105.546 23.5505 102.159 24.0931 99.3656 22.6773L98.9135 23.5693ZM108.466 22.0367C110.984 19.5127 111.593 15.6502 109.975 12.4723L109.084 12.9259C110.505 15.7187 109.971 19.1131 107.758 21.3304L108.466 22.0367ZM109.975 12.4724C108.357 9.29207 104.881 7.51462 101.361 8.06776L101.517 9.05563C104.607 8.56985 107.662 10.1307 109.084 12.9258L109.975 12.4724ZM101.361 8.06775C97.8397 8.62082 95.0722 11.378 94.5058 14.9009L95.4932 15.0597C95.9908 11.9639 98.4227 9.54153 101.517 9.05564L101.361 8.06775ZM93.0203 45.1995C92.4588 45.061 91.8859 44.9302 91.2965 44.81L91.0967 45.7899C91.6713 45.907 92.2308 46.0347 92.7807 46.1704L93.0203 45.1995ZM90.8428 45.6533L90.8455 45.6559L91.553 44.9493L91.5504 44.9466L90.8428 45.6533ZM90.7149 45.1783C90.2528 46.9796 89.6454 48.7421 88.9003 50.4447L89.8164 50.8456C90.583 49.0937 91.2081 47.2803 91.6836 45.4268L90.7149 45.1783ZM88.8953 50.4565C87.9716 52.7237 86.5721 54.763 84.7912 56.4412L85.477 57.169C87.3619 55.3927 88.8435 53.2339 89.8214 50.8338L88.8953 50.4565ZM85.2257 57.2966C88.3279 56.7184 91.2984 55.5728 93.9842 53.9188L93.4599 53.0673C90.8788 54.6568 88.0239 55.7579 85.0424 56.3135L85.2257 57.2966ZM94.138 53.2156C92.6886 51.0425 92.4013 48.2965 93.37 45.8707L92.4413 45.4999C91.3505 48.2314 91.6741 51.3236 93.3061 53.7705L94.138 53.2156ZM92.9382 45.1863L92.9331 45.186L92.8679 46.1839L92.8731 46.1842L92.9382 45.1863ZM89.8124 44.5304C89.0423 44.397 88.255 44.2825 87.4536 44.1815L87.3286 45.1737C88.1178 45.2731 88.8896 45.3854 89.6417 45.5157L89.8124 44.5304ZM86.8911 44.6776V44.6803H87.8911V44.6776H86.8911ZM87.4525 44.184C85.3874 43.9286 83.3094 43.7902 81.229 43.7663L81.2175 44.7662C83.2612 44.7897 85.3021 44.9256 87.3297 45.1765L87.4525 44.184ZM80.7232 44.2663V57.1715H81.7232V44.2663H80.7232ZM81.305 57.6647C82.7427 57.4263 84.0776 56.581 85.2694 55.3073C86.4621 54.0327 87.5353 52.3049 88.4537 50.2421L87.5401 49.8354C86.6518 51.8306 85.6339 53.4542 84.5393 54.624C83.4439 55.7947 82.2953 56.4868 81.1414 56.6782L81.305 57.6647ZM88.3507 49.6854L88.3481 49.6828L87.6405 50.3894L87.6431 50.3921L88.3507 49.6854ZM88.4522 50.2369C89.1738 48.5911 89.7646 46.8915 90.2164 45.1515L89.2485 44.9002C88.8102 46.5883 88.2369 48.2376 87.5364 49.8353L88.4522 50.2369ZM89.9609 44.5811L89.9555 44.5783L89.4986 45.4678L89.504 45.4706L89.9609 44.5811ZM91.4525 44.3343C92.1443 44.4749 92.8181 44.6312 93.4765 44.8006L93.7256 43.8321C93.0515 43.6587 92.3611 43.4985 91.6517 43.3544L91.4525 44.3343ZM94.0237 44.5836C96.1095 41.2847 100.283 40.0001 103.86 41.5552L104.259 40.6381C100.229 38.8863 95.5277 40.3337 93.1785 44.0491L94.0237 44.5836ZM104.525 41.2781C105.597 38.5268 106.185 35.6115 106.266 32.6585L105.266 32.6312C105.189 35.4695 104.623 38.2712 103.593 40.9151L104.525 41.2781ZM105.766 32.1448H92.8164V33.1448H105.766V32.1448ZM92.3165 32.6406C92.2852 36.3741 91.8651 40.0922 91.064 43.7396L92.0407 43.9541C92.8566 40.2392 93.2845 36.452 93.3164 32.649L92.3165 32.6406ZM92.0506 43.806L92.0504 43.8035L91.0538 43.8852L91.054 43.8877L92.0506 43.806ZM67.645 18.5232C68.2948 18.6885 68.964 18.8434 69.6525 18.9823L69.8503 18.0021C69.1799 17.8668 68.527 17.7157 67.8916 17.5541L67.645 18.5232ZM69.7514 17.9922H69.7488V18.9922H69.7514V17.9922ZM70.2331 18.6163C70.6952 16.8124 71.3027 15.0501 72.0477 13.3475L71.1316 12.9466C70.365 14.6984 69.7399 16.5119 69.2644 18.3681L70.2331 18.6163ZM72.0527 13.3357C72.9765 11.0683 74.3761 9.02649 76.1566 7.35123L75.4713 6.62292C73.586 8.39683 72.1044 10.5584 71.1266 12.9584L72.0527 13.3357ZM75.7221 6.49558C75.0024 6.63002 74.2938 6.79398 73.5962 6.98471L73.86 7.9493C74.532 7.76557 75.2139 7.60782 75.9058 7.47857L75.7221 6.49558ZM73.7281 7.96701H73.7307V6.96701H73.7281V7.96701ZM73.5978 6.98501C71.5212 7.55796 69.5281 8.39175 67.6618 9.46193L68.1592 10.3294C69.9535 9.30058 71.8688 8.4994 73.8637 7.949L73.5978 6.98501ZM67.4135 9.95059C67.6062 11.6944 67.3135 13.4558 66.5701 15.0448L67.4759 15.4685C68.2968 13.7138 68.6204 11.7677 68.4075 9.84078L67.4135 9.95059ZM66.5399 15.3857L67.2826 18.1651L68.2487 17.9069L67.506 15.1276L66.5399 15.3857ZM67.4128 18.3902L67.4154 18.3928L68.1212 17.6844L68.1186 17.6818L67.4128 18.3902ZM71.1357 19.2617C71.9372 19.4004 72.7567 19.5202 73.5917 19.6214L73.7119 18.6287C72.893 18.5295 72.0902 18.412 71.3062 18.2764L71.1357 19.2617ZM74.1518 19.125V19.1224H73.1518V19.125H74.1518ZM73.5914 19.6187C75.6243 19.8662 77.6704 20.0019 79.719 20.0258L79.7307 19.0259C77.7184 19.0024 75.7088 18.8691 73.7122 18.6261L73.5914 19.6187ZM80.2249 19.5259V6.62606H79.2249V19.5259H80.2249ZM79.6431 6.1328C78.2054 6.37125 76.8705 7.21648 75.6786 8.49023C74.486 9.76481 73.4128 11.4926 72.4944 13.5554L73.4079 13.9622C74.2963 11.9669 75.3142 10.3433 76.4088 9.17348C77.5042 8.00283 78.6528 7.3107 79.8067 7.11932L79.6431 6.1328ZM72.9512 14.2588H72.9538V13.2588H72.9512V14.2588ZM72.4959 13.558C71.774 15.2043 71.1859 16.9068 70.7368 18.6467L71.705 18.8966C72.1408 17.2084 72.7114 15.5567 73.4117 13.9596L72.4959 13.558ZM71.7208 18.7839L71.7208 18.7813L70.7211 18.7568L70.7211 18.7595L71.7208 18.7839ZM81.2288 19.0285H81.2262V20.0285H81.2288V19.0285ZM81.2323 20.0285C83.4079 20.0019 85.5814 19.8529 87.7395 19.5762L87.6123 18.5843C85.4933 18.856 83.3582 19.0024 81.2201 19.0285L81.2323 20.0285ZM87.7396 19.5761C88.4456 19.4854 89.1375 19.3788 89.8175 19.2618L89.6479 18.2763C88.9795 18.3913 88.3019 18.4957 87.6122 18.5843L87.7396 19.5761ZM90.2168 18.6441C89.7676 16.9037 89.1768 15.2016 88.458 13.556L87.5416 13.9563C88.2397 15.5543 88.8129 17.2063 89.2486 18.894L90.2168 18.6441ZM88.4565 13.5526C87.5368 11.4897 86.463 9.76186 85.27 8.48763C84.0778 7.21422 82.7427 6.36961 81.3047 6.13278L81.1422 7.11948C82.2958 7.30949 83.4443 8.00076 84.54 9.17109C85.635 10.3406 86.6535 11.9643 87.5431 13.9598L88.4565 13.5526ZM80.7234 6.62613V19.5313H81.7234V6.62613H80.7234ZM81.456 19.974L81.4614 19.9711L80.9962 19.0859L80.9908 19.0887L81.456 19.974ZM69.5013 19.4579C69.1055 19.3771 68.7129 19.2912 68.3288 19.2002L68.0983 20.1733C68.4937 20.2669 68.8964 20.355 69.3013 20.4377L69.5013 19.4579ZM67.7307 19.8166L67.9598 20.6683L68.9255 20.4086L68.6964 19.5568L67.7307 19.8166ZM68.4427 20.0385H68.44V21.0385H68.4427V20.0385ZM67.9592 20.6757C67.9835 20.7606 67.96 20.8495 67.8993 20.9103L68.6068 21.6169C68.9254 21.298 69.0441 20.8331 68.9208 20.4012L67.9592 20.6757ZM67.8968 20.9127C67.8341 20.9764 67.7429 21.0009 67.6572 20.9781L67.4005 21.9446C67.8309 22.059 68.2927 21.9358 68.6093 21.6145L67.8968 20.9127ZM67.6584 20.9785L62.3728 19.5598L62.1136 20.5256L67.3992 21.9443L67.6584 20.9785ZM62.0304 19.5902C60.6617 20.2341 59.1607 20.5421 57.6501 20.487L57.6136 21.4863C59.2842 21.5473 60.9436 21.2066 62.4561 20.4951L62.0304 19.5902ZM57.1805 20.7716C55.6361 24.0121 54.7874 27.5404 54.688 31.1278L55.6877 31.1555C55.7831 27.7074 56.5989 24.3163 58.0832 21.2018L57.1805 20.7716ZM55.1878 31.6417H68.1291V30.6417H55.1878V31.6417ZM68.6291 31.1462C68.663 27.4151 69.0832 23.6943 69.8842 20.0497L68.9076 19.835C68.0916 23.5473 67.6637 27.3371 67.6292 31.1371L68.6291 31.1462ZM69.0411 20.2947L69.0465 20.3001L69.7561 19.5955L69.7507 19.59L69.0411 20.2947ZM105.946 43.5703C103.45 41.0675 99.5322 40.6801 96.5918 42.6455L97.1475 43.4769C99.691 41.7768 103.079 42.112 105.239 44.2766L105.946 43.5703ZM96.5916 42.6456C93.6545 44.6109 92.511 48.3827 93.8636 51.6509L94.7876 51.2685C93.6172 48.4405 94.607 45.1768 97.1477 43.4767L96.5916 42.6456ZM93.8636 51.6509C95.2162 54.919 98.687 56.7775 102.153 56.0874L101.958 55.1067C98.9607 55.7034 95.9581 54.0965 94.7876 51.2685L93.8636 51.6509ZM102.153 56.0874C105.619 55.3973 108.115 52.3516 108.115 48.812H107.115C107.115 51.8756 104.955 54.51 101.958 55.1067L102.153 56.0874ZM108.115 48.8127C108.118 46.8474 107.339 44.9585 105.946 43.5694L105.239 44.2775C106.443 45.4779 107.117 47.1112 107.115 48.8113L108.115 48.8127ZM100.236 52.2591C100.236 53.4448 101.056 54.4717 102.212 54.7373L102.436 53.7627C101.733 53.6011 101.236 52.9773 101.236 52.2591H100.236ZM102.213 54.7375C103.368 55.0003 104.551 54.4287 105.066 53.3623L104.165 52.9279C103.853 53.5755 103.134 53.9216 102.435 53.7624L102.213 54.7375ZM105.066 53.3618C105.58 52.2928 105.289 51.0091 104.361 50.2699L103.738 51.0522C104.3 51.4996 104.478 52.2782 104.165 52.9284L105.066 53.3618ZM104.362 50.2711C103.436 49.5283 102.121 49.529 101.194 50.2673L101.817 51.0496C102.38 50.6012 103.177 50.602 103.736 51.051L104.362 50.2711ZM101.755 50.2254L99.0926 48.6881L98.5926 49.5541L101.255 51.0914L101.755 50.2254ZM99.3368 49.197C99.3563 49.0704 99.3663 48.9448 99.3663 48.8179H98.3663C98.3663 48.8913 98.3606 48.9661 98.3484 49.0452L99.3368 49.197ZM99.3663 48.8179C99.3663 48.6896 99.3565 48.5607 99.3365 48.4341L98.3487 48.5899C98.3604 48.6636 98.3663 48.7404 98.3663 48.8179H99.3663ZM99.0927 48.9449L101.75 47.4103L101.25 46.5443L98.5926 48.079L99.0927 48.9449ZM102 46.9773V46.9746H101V46.9773H102ZM101.187 47.3645C102.115 48.1101 103.433 48.1092 104.363 47.3716L103.741 46.5882C103.175 47.0373 102.375 47.0364 101.813 46.5848L101.187 47.3645ZM104.363 47.371C105.294 46.6298 105.588 45.3442 105.074 44.2718L104.173 44.7042C104.485 45.3563 104.306 46.1381 103.74 46.5889L104.363 47.371ZM105.074 44.2718C104.56 43.1984 103.373 42.6279 102.214 42.8902L102.435 43.8655C103.14 43.7058 103.86 44.0531 104.173 44.7042L105.074 44.2718ZM102.212 42.8905C101.056 43.1562 100.234 44.1859 100.234 45.374H101.234C101.234 44.653 101.733 44.0267 102.436 43.8651L102.212 42.8905ZM100.234 45.374C100.234 45.4951 100.239 45.6259 100.261 45.7604L101.249 45.6046C101.238 45.5388 101.234 45.4638 101.234 45.374H100.234ZM100.504 45.2497L97.8469 46.7871L98.3477 47.6526L101.005 46.1153L100.504 45.2497ZM98.4095 46.8293C97.6449 46.2181 96.6015 46.1036 95.7233 46.5268L96.1575 47.4277C96.6909 47.1706 97.3225 47.2406 97.7851 47.6104L98.4095 46.8293ZM95.7233 46.5268C94.8438 46.9507 94.2869 47.8409 94.2869 48.8179H95.2869C95.2869 48.2232 95.6254 47.6841 96.1575 47.4277L95.7233 46.5268ZM94.2869 48.8179C94.2869 49.7949 94.8438 50.685 95.7233 51.1089L96.1575 50.2081C95.6254 49.9517 95.2869 49.4126 95.2869 48.8179H94.2869ZM95.7233 51.1089C96.6015 51.5322 97.6449 51.4176 98.4095 50.8065L97.7851 50.0253C97.3225 50.3951 96.6909 50.4652 96.1575 50.2081L95.7233 51.1089ZM97.847 50.8487L100.51 52.3887L101.01 51.523L98.3476 49.9831L97.847 50.8487ZM100.76 52.4559H100.763V51.4559H100.76V52.4559ZM100.269 51.878C100.249 52.0043 100.239 52.1332 100.239 52.2591H101.239C101.239 52.1846 101.245 52.1078 101.256 52.0337L100.269 51.878ZM100.746 51.7592L100.743 51.7591L100.729 52.759L100.732 52.7591L100.746 51.7592ZM102.041 51.5182C101.685 51.8697 101.631 52.4261 101.909 52.8406L102.74 52.284C102.734 52.2757 102.731 52.2658 102.733 52.2549C102.734 52.244 102.738 52.2358 102.744 52.2299L102.041 51.5182ZM101.909 52.8406C102.185 53.2534 102.716 53.4173 103.178 53.224L102.792 52.3014C102.775 52.3086 102.753 52.3036 102.74 52.284L101.909 52.8406ZM103.172 53.2265C103.643 53.0369 103.897 52.542 103.803 52.0576L102.821 52.2496C102.824 52.2629 102.821 52.274 102.817 52.2824C102.813 52.2902 102.807 52.2955 102.798 52.2989L103.172 53.2265ZM103.802 52.0576C103.707 51.5674 103.277 51.2132 102.777 51.2132V52.2132C102.798 52.2132 102.817 52.2282 102.821 52.2496L103.802 52.0576ZM102.777 51.2132C102.496 51.2132 102.233 51.3263 102.039 51.5208L102.746 52.2274C102.752 52.2215 102.758 52.2181 102.763 52.2161C102.767 52.2142 102.772 52.2132 102.777 52.2132V51.2132ZM102.041 44.6306C101.683 44.9848 101.628 45.5445 101.91 45.962L102.739 45.4031C102.725 45.3828 102.729 45.3571 102.744 45.3422L102.041 44.6306ZM101.907 45.9585C102.186 46.3795 102.72 46.5374 103.182 46.3483L102.804 45.4228C102.776 45.4342 102.752 45.4233 102.741 45.4066L101.907 45.9585ZM103.184 46.3476C103.65 46.1551 103.908 45.6615 103.813 45.1735L102.831 45.3636C102.837 45.3924 102.821 45.4156 102.802 45.4235L103.184 46.3476ZM103.812 45.1687C103.712 44.6785 103.282 44.3255 102.782 44.3255V45.3255C102.804 45.3255 102.827 45.3417 102.832 45.3684L103.812 45.1687ZM102.782 44.3255C102.503 44.3255 102.236 44.4359 102.039 44.6331L102.746 45.3397C102.755 45.3312 102.767 45.3255 102.782 45.3255V44.3255ZM96.0871 48.0795C95.7408 48.4312 95.6837 48.9812 95.9621 49.3968L96.7929 48.8402C96.7817 48.8235 96.7825 48.7985 96.7997 48.7811L96.0871 48.0795ZM95.9637 49.3992C96.2399 49.8065 96.7662 49.9711 97.2288 49.7776L96.8431 48.855C96.8264 48.862 96.8049 48.8578 96.7914 48.8379L95.9637 49.3992ZM97.2245 49.7794C97.6866 49.5913 97.9514 49.0985 97.8494 48.608L96.8704 48.8116C96.8736 48.8274 96.8646 48.8462 96.8474 48.8532L97.2245 49.7794ZM97.8506 48.6138C97.7546 48.123 97.3274 47.7721 96.8279 47.7721V48.7721C96.8403 48.7721 96.8489 48.776 96.8552 48.7811C96.8615 48.7863 96.8668 48.7939 96.8692 48.8058L97.8506 48.6138ZM96.8279 47.7721C96.5478 47.7721 96.2869 47.8845 96.0942 48.0724L96.7925 48.7882C96.8053 48.7757 96.8183 48.7721 96.8279 48.7721V47.7721ZM58.2178 15.135C57.0967 14.5537 56.0892 13.7736 55.2478 12.8306L54.5016 13.4963C55.4247 14.5309 56.5293 15.3859 57.7574 16.0228L58.2178 15.135ZM55.2374 12.8193C54.625 12.174 54.1333 11.427 53.7797 10.61L52.862 11.0072C53.2616 11.9307 53.8181 12.7765 54.512 13.5076L55.2374 12.8193ZM53.7726 10.5943C53.5281 10.0789 53.4933 9.48714 53.6741 8.94398L52.7253 8.62813C52.4637 9.41403 52.5132 10.2726 52.8691 11.0229L53.7726 10.5943ZM53.6612 8.97844C53.7582 8.74568 53.9083 8.53618 54.0998 8.3669L53.4374 7.61773C53.1337 7.88621 52.894 8.21992 52.7382 8.59367L53.6612 8.97844ZM54.1063 8.36096C54.5304 7.97241 55.1339 7.84305 55.685 8.02427L55.9974 7.07433C55.1052 6.78092 54.1234 6.98907 53.4308 7.62366L54.1063 8.36096ZM55.6845 8.0241C56.2323 8.20493 56.6419 8.66712 56.7544 9.23633L57.7354 9.0425C57.553 8.11914 56.888 7.36832 55.9979 7.0745L55.6845 8.0241ZM56.7526 9.22683C56.8575 9.8179 57.3666 10.2547 57.9734 10.2591L57.9806 9.25912C57.8605 9.25825 57.7586 9.17291 57.7372 9.05201L56.7526 9.22683ZM57.9733 10.2591C58.5763 10.2635 59.096 9.83563 59.2061 9.24095L58.2228 9.05899C58.2011 9.17628 58.0993 9.25999 57.9806 9.25912L57.9733 10.2591ZM59.2053 9.24491C59.3159 8.6732 59.726 8.20667 60.2759 8.02377L59.9603 7.07487C59.0671 7.37194 58.4026 8.1289 58.2235 9.05502L59.2053 9.24491ZM60.2759 8.02378C60.8261 7.84082 61.4342 7.96986 61.8608 8.3609L62.5365 7.62376C61.8412 6.98639 60.8534 6.7779 59.9603 7.07487L60.2759 8.02378ZM61.8655 8.36516C62.0556 8.53508 62.2072 8.74625 62.3074 8.98185L63.2276 8.5903C63.0697 8.21937 62.8315 7.88732 62.5318 7.61951L61.8655 8.36516ZM62.2931 8.944C62.4734 9.48558 62.4374 10.0757 62.1935 10.5966L63.0992 11.0207C63.4504 10.2705 63.504 9.41561 63.2419 8.62815L62.2931 8.944ZM62.1875 10.6101C61.8342 11.4264 61.34 12.1738 60.7292 12.82L61.4559 13.5069C62.1461 12.7767 62.7053 11.9314 63.1052 11.0072L62.1875 10.6101ZM60.7199 12.83C59.875 13.7743 58.8697 14.5566 57.7472 15.1375L58.2067 16.0256C59.4386 15.3882 60.5403 14.5303 61.4651 13.4969L60.7199 12.83ZM58.0979 16.0667L58.1085 16.064L57.8667 15.0937L57.856 15.0964L58.0979 16.0667ZM61.8331 13.8384C60.7803 15.0215 59.4955 15.9767 58.0601 16.6385L58.4788 17.5466C60.0403 16.8267 61.4366 15.7882 62.5801 14.5032L61.8331 13.8384ZM58.0788 16.6303C58.0218 16.6538 57.9561 16.6538 57.899 16.6303L57.5179 17.5548C57.819 17.6789 58.1588 17.6789 58.46 17.5548L58.0788 16.6303ZM57.9175 16.6383C56.4796 15.9766 55.195 15.0215 54.1421 13.8384L53.3951 14.5032C54.5387 15.7883 55.935 16.8268 57.4994 17.5467L57.9175 16.6383ZM54.1327 13.8281C53.3989 13.0483 52.8095 12.1459 52.3873 11.1602L51.4681 11.554C51.936 12.6463 52.5897 13.6477 53.4044 14.5134L54.1327 13.8281ZM52.3836 11.1519C51.992 10.2818 51.955 9.2912 52.2839 8.39381L51.3449 8.04972C50.9259 9.19332 50.9732 10.4547 51.4717 11.5623L52.3836 11.1519ZM52.2767 8.41217C52.4583 7.97124 52.7404 7.5746 53.0982 7.25514L52.4322 6.5092C51.963 6.92812 51.5919 7.44916 51.3521 8.03136L52.2767 8.41217ZM53.1022 7.25149C53.7161 6.69131 54.5321 6.40283 55.3622 6.4505L55.4195 5.45215C54.3218 5.3891 53.2417 5.77037 52.4281 6.51285L53.1022 7.25149ZM55.3635 6.45058C56.1923 6.49592 56.9674 6.87451 57.5166 7.50164L58.2689 6.84285C57.5434 6.01436 56.5173 5.51221 55.4182 5.45207L55.3635 6.45058ZM57.5129 7.4974C57.5586 7.55081 57.5688 7.56057 57.5873 7.58537L58.3877 6.9859C58.3431 6.92632 58.2901 6.86752 58.2726 6.84709L57.5129 7.4974ZM58.3782 7.59774C58.4037 7.56583 58.4298 7.53519 58.4622 7.49737L57.7025 6.84712C57.6717 6.88313 57.6346 6.92633 57.5969 6.97353L58.3782 7.59774ZM58.4585 7.50165C59.0074 6.87491 59.7854 6.49554 60.6155 6.44787L60.5582 5.44951C59.4606 5.51255 58.432 6.01401 57.7062 6.84284L58.4585 7.50165ZM60.6142 6.44794C61.4447 6.4025 62.2591 6.691 62.8762 7.25211L63.5489 6.51223C62.7334 5.7707 61.6569 5.3894 60.5596 5.44944L60.6142 6.44794ZM62.8795 7.25514C63.237 7.57426 63.5172 7.96871 63.7018 8.41157L64.6248 8.0267C64.3828 7.44644 64.0151 6.92842 63.5456 6.5092L62.8795 7.25514ZM63.6938 8.39118C64.0227 9.28854 63.9856 10.2787 63.592 11.1482L64.5029 11.5607C65.0047 10.4526 65.0519 9.19072 64.6328 8.04709L63.6938 8.39118ZM63.5874 11.1586C63.1681 12.1433 62.5765 13.0479 61.843 13.8249L62.5701 14.5114C63.3852 13.6481 64.0419 12.6436 64.5075 11.5504L63.5874 11.1586ZM61.7068 14.1847L61.7069 14.1874L62.7063 14.1542L62.7063 14.1515L61.7068 14.1847Z" fill="white" mask="url(#path-3-outside-1_24_42)"/>
</svg>
