<svg width="261" height="146" viewBox="0 0 261 146" fill="none" xmlns="http://www.w3.org/2000/svg">
<path d="M0.366211 139L8.23242 117.862H10.8398L18.6914 139H15.9229L13.7842 132.95H5.27344L3.13477 139H0.366211ZM9.50684 121.026L6.0791 130.709H12.9932L9.56543 121.026H9.50684ZM20.7275 139V123.766H23.2764V125.934H23.335C24.1553 124.513 25.708 123.473 28.0225 123.473C31.3623 123.473 33.2959 125.641 33.2959 129.112V139H30.7471V129.566C30.7471 127.091 29.5898 125.729 27.2461 125.729C24.8438 125.729 23.2764 127.442 23.2764 130.035V139H20.7275ZM42.2754 139.293C38.3789 139.293 35.8008 136.188 35.8008 131.383V131.368C35.8008 126.563 38.4082 123.473 42.2314 123.473C44.3848 123.473 46.1572 124.557 47.1094 126.314H47.168V117.862H49.7168V139H47.168V136.422H47.1094C46.1572 138.194 44.458 139.293 42.2754 139.293ZM42.7734 137.037C45.3516 137.037 47.1826 134.796 47.1826 131.383V131.368C47.1826 127.97 45.3369 125.729 42.7734 125.729C40.0781 125.729 38.4082 127.896 38.4082 131.368V131.383C38.4082 134.884 40.0781 137.037 42.7734 137.037ZM53.1592 139V123.766H55.708V126.344H55.7666C56.2793 124.586 57.5977 123.473 59.3115 123.473C59.751 123.473 60.1318 123.546 60.3369 123.575V126.051C60.1318 125.978 59.5898 125.904 58.9746 125.904C56.9971 125.904 55.708 127.281 55.708 129.596V139H53.1592ZM67.998 139.293C63.7646 139.293 60.9375 136.231 60.9375 131.383V131.354C60.9375 126.505 63.7793 123.473 67.9834 123.473C72.1875 123.473 75.0439 126.49 75.0439 131.354V131.383C75.0439 136.246 72.2021 139.293 67.998 139.293ZM68.0127 137.037C70.6934 137.037 72.4365 134.957 72.4365 131.383V131.354C72.4365 127.779 70.6787 125.729 67.9834 125.729C65.332 125.729 63.5449 127.794 63.5449 131.354V131.383C63.5449 134.972 65.3174 137.037 68.0127 137.037ZM79.0576 121.188C78.1787 121.188 77.4609 120.47 77.4609 119.591C77.4609 118.697 78.1787 117.994 79.0576 117.994C79.9512 117.994 80.6543 118.697 80.6543 119.591C80.6543 120.47 79.9512 121.188 79.0576 121.188ZM77.7832 139V123.766H80.332V139H77.7832ZM89.5312 139.293C85.6348 139.293 83.0566 136.188 83.0566 131.383V131.368C83.0566 126.563 85.6641 123.473 89.4873 123.473C91.6406 123.473 93.4131 124.557 94.3652 126.314H94.4238V117.862H96.9727V139H94.4238V136.422H94.3652C93.4131 138.194 91.7139 139.293 89.5312 139.293ZM90.0293 137.037C92.6074 137.037 94.4385 134.796 94.4385 131.383V131.368C94.4385 127.97 92.5928 125.729 90.0293 125.729C87.334 125.729 85.6641 127.896 85.6641 131.368V131.383C85.6641 134.884 87.334 137.037 90.0293 137.037ZM105.278 139L113.145 117.862H115.752L123.604 139H120.835L118.696 132.95H110.186L108.047 139H105.278ZM114.419 121.026L110.991 130.709H117.905L114.478 121.026H114.419ZM125.64 144.127V123.766H128.188V126.344H128.247C129.199 124.571 130.898 123.473 133.081 123.473C136.978 123.473 139.556 126.578 139.556 131.383V131.397C139.556 136.202 136.948 139.293 133.125 139.293C130.972 139.293 129.199 138.209 128.247 136.451H128.188V144.127H125.64ZM132.583 137.037C135.278 137.037 136.948 134.869 136.948 131.397V131.383C136.948 127.882 135.278 125.729 132.583 125.729C130.005 125.729 128.174 127.97 128.174 131.383V131.397C128.174 134.796 130.02 137.037 132.583 137.037ZM142.134 144.127V123.766H144.683V126.344H144.741C145.693 124.571 147.393 123.473 149.575 123.473C153.472 123.473 156.05 126.578 156.05 131.383V131.397C156.05 136.202 153.442 139.293 149.619 139.293C147.466 139.293 145.693 138.209 144.741 136.451H144.683V144.127H142.134ZM149.077 137.037C151.772 137.037 153.442 134.869 153.442 131.397V131.383C153.442 127.882 151.772 125.729 149.077 125.729C146.499 125.729 144.668 127.97 144.668 131.383V131.397C144.668 134.796 146.514 137.037 149.077 137.037ZM158.76 139V117.862H161.309V139H158.76ZM166.187 121.188C165.308 121.188 164.59 120.47 164.59 119.591C164.59 118.697 165.308 117.994 166.187 117.994C167.08 117.994 167.783 118.697 167.783 119.591C167.783 120.47 167.08 121.188 166.187 121.188ZM164.912 139V123.766H167.461V139H164.912ZM177.246 139.293C172.925 139.293 170.186 136.217 170.186 131.368V131.354C170.186 126.549 172.983 123.473 177.217 123.473C181.011 123.473 183.252 125.992 183.574 128.6L183.589 128.717H181.099L181.069 128.6C180.688 127.076 179.458 125.729 177.217 125.729C174.565 125.729 172.793 127.926 172.793 131.383V131.397C172.793 134.942 174.609 137.037 177.246 137.037C179.326 137.037 180.659 135.865 181.084 134.166L181.113 134.049H183.618L183.604 134.151C183.193 137.052 180.688 139.293 177.246 139.293ZM190.415 139.293C187.383 139.293 185.347 137.462 185.347 134.693V134.664C185.347 132.071 187.368 130.445 190.869 130.24L195.234 129.991V128.717C195.234 126.856 194.019 125.729 191.895 125.729C189.932 125.729 188.701 126.666 188.408 128.028L188.379 128.16H185.918L185.933 127.999C186.152 125.494 188.335 123.473 191.924 123.473C195.527 123.473 197.783 125.421 197.783 128.468V139H195.234V136.524H195.176C194.282 138.194 192.451 139.293 190.415 139.293ZM187.954 134.693C187.954 136.158 189.155 137.081 190.986 137.081C193.389 137.081 195.234 135.426 195.234 133.214V131.969L191.162 132.218C189.126 132.335 187.954 133.243 187.954 134.664V134.693ZM205.972 139.293C203.174 139.293 201.797 138.033 201.797 135.118V125.875H199.57V123.766H201.797V119.649H204.434V123.766H207.334V125.875H204.434V135.104C204.434 136.729 205.151 137.184 206.514 137.184C206.821 137.184 207.114 137.14 207.334 137.125V139.19C207.012 139.234 206.47 139.293 205.972 139.293ZM211.509 121.188C210.63 121.188 209.912 120.47 209.912 119.591C209.912 118.697 210.63 117.994 211.509 117.994C212.402 117.994 213.105 118.697 213.105 119.591C213.105 120.47 212.402 121.188 211.509 121.188ZM210.234 139V123.766H212.783V139H210.234ZM222.568 139.293C218.335 139.293 215.508 136.231 215.508 131.383V131.354C215.508 126.505 218.35 123.473 222.554 123.473C226.758 123.473 229.614 126.49 229.614 131.354V131.383C229.614 136.246 226.772 139.293 222.568 139.293ZM222.583 137.037C225.264 137.037 227.007 134.957 227.007 131.383V131.354C227.007 127.779 225.249 125.729 222.554 125.729C219.902 125.729 218.115 127.794 218.115 131.354V131.383C218.115 134.972 219.888 137.037 222.583 137.037ZM232.192 139V123.766H234.741V125.934H234.8C235.62 124.513 237.173 123.473 239.487 123.473C242.827 123.473 244.761 125.641 244.761 129.112V139H242.212V129.566C242.212 127.091 241.055 125.729 238.711 125.729C236.309 125.729 234.741 127.442 234.741 130.035V139H232.192ZM253.418 139.293C249.829 139.293 247.661 137.462 247.354 134.737L247.339 134.605H249.888L249.917 134.752C250.225 136.275 251.353 137.169 253.433 137.169C255.498 137.169 256.729 136.305 256.729 134.928V134.913C256.729 133.814 256.157 133.199 254.429 132.774L252.012 132.188C249.141 131.5 247.749 130.167 247.749 127.97V127.955C247.749 125.333 250.049 123.473 253.345 123.473C256.685 123.473 258.809 125.421 258.999 127.97L259.014 128.16H256.582L256.567 128.058C256.362 126.578 255.234 125.597 253.345 125.597C251.499 125.597 250.356 126.49 250.356 127.838V127.853C250.356 128.893 251.045 129.61 252.729 130.021L255.146 130.606C258.223 131.354 259.336 132.569 259.336 134.737V134.752C259.336 137.418 256.816 139.293 253.418 139.293Z" fill="white" fill-opacity="0.7"/>
<path d="M131 33.1757C97.31 33.1757 70 -0.969585 70 33.1757C70 49.5725 76.4268 65.2978 87.8665 76.8921C99.3062 88.4864 114.822 95 131 95C147.178 95 162.694 88.4864 174.134 76.8921C185.573 65.2978 192 49.5725 192 33.1757C192 -0.969585 164.688 33.1757 131 33.1757Z" fill="#87C954"/>
<path d="M128.5 45V52.5C128.5 53.75 127.5 55 126 55C124.5 55 123.5 53.75 123.5 52.5V45H128.5Z" stroke="white" stroke-width="3.75" stroke-miterlimit="10" stroke-linecap="round" stroke-linejoin="round"/>
<path d="M138.5 45V52.5C138.5 53.75 137.5 55 136 55C134.5 55 133.5 53.75 133.5 52.5V45H138.5Z" stroke="white" stroke-width="3.75" stroke-miterlimit="10" stroke-linecap="round" stroke-linejoin="round"/>
<path d="M143.5 27.5V40C143.5 42.75 141.25 45 138.5 45H123.5C120.75 45 118.5 42.75 118.5 40V27.5C118.5 24.75 120.75 22.5 123.5 22.5H138.5C141.25 22.5 143.5 24.75 143.5 27.5Z" stroke="white" stroke-width="3.75" stroke-miterlimit="10" stroke-linecap="round" stroke-linejoin="round"/>
<path d="M113.5 27.5V37.5C113.5 39 112.5 40 111 40C109.5 40 108.5 39 108.5 37.5V27.5C108.5 26 109.5 25 111 25C112.5 25 113.5 26 113.5 27.5Z" stroke="white" stroke-width="3.75" stroke-miterlimit="10" stroke-linecap="round" stroke-linejoin="round"/>
<path d="M153.5 27.5V37.5C153.5 39 152.5 40 151 40C149.5 40 148.5 39 148.5 37.5V27.5C148.5 26 149.5 25 151 25C152.5 25 153.5 26 153.5 27.5Z" stroke="white" stroke-width="3.75" stroke-miterlimit="10" stroke-linecap="round" stroke-linejoin="round"/>
<path d="M133.5 45H128.5" stroke="white" stroke-width="3.75" stroke-miterlimit="10" stroke-linecap="round" stroke-linejoin="round"/>
<path d="M125 17.5H137C139.25 17.5 141 15.625 141 13.2143C141 7.32143 136.5 2.5 131 2.5C125.5 2.5 121 7.32143 121 13.2143C121 15.625 122.75 17.5 125 17.5Z" stroke="white" stroke-width="3.75" stroke-miterlimit="10" stroke-linecap="round" stroke-linejoin="round"/>
</svg>
