<svg width="256" height="146" viewBox="0 0 256 146" fill="none" xmlns="http://www.w3.org/2000/svg">
<path d="M2.05078 139V117.862H15.1465V120.235H4.6875V127.018H14.6045V129.361H4.6875V136.627H15.1465V139H2.05078ZM18.3252 131.617V129.244H27.7002V131.617H18.3252ZM37.4121 139.293C33.0908 139.293 30.3516 136.217 30.3516 131.368V131.354C30.3516 126.549 33.1494 123.473 37.3828 123.473C41.1768 123.473 43.418 125.992 43.7402 128.6L43.7549 128.717H41.2646L41.2354 128.6C40.8545 127.076 39.624 125.729 37.3828 125.729C34.7314 125.729 32.959 127.926 32.959 131.383V131.397C32.959 134.942 34.7754 137.037 37.4121 137.037C39.4922 137.037 40.8252 135.865 41.25 134.166L41.2793 134.049H43.7842L43.7695 134.151C43.3594 137.052 40.8545 139.293 37.4121 139.293ZM52.4414 139.293C48.208 139.293 45.3809 136.231 45.3809 131.383V131.354C45.3809 126.505 48.2227 123.473 52.4268 123.473C56.6309 123.473 59.4873 126.49 59.4873 131.354V131.383C59.4873 136.246 56.6455 139.293 52.4414 139.293ZM52.4561 137.037C55.1367 137.037 56.8799 134.957 56.8799 131.383V131.354C56.8799 127.779 55.1221 125.729 52.4268 125.729C49.7754 125.729 47.9883 127.794 47.9883 131.354V131.383C47.9883 134.972 49.7607 137.037 52.4561 137.037ZM62.0654 139V123.766H64.6143V125.992H64.6729C65.3613 124.483 66.8848 123.473 68.8477 123.473C70.9277 123.473 72.4658 124.542 73.125 126.402H73.1836C74.0332 124.571 75.8203 123.473 77.959 123.473C80.9766 123.473 82.9248 125.45 82.9248 128.482V139H80.376V129.068C80.376 126.974 79.2188 125.729 77.2119 125.729C75.1904 125.729 73.7695 127.237 73.7695 129.317V139H71.2207V128.79C71.2207 126.944 69.9902 125.729 68.1006 125.729C66.0791 125.729 64.6143 127.325 64.6143 129.449V139H62.0654ZM86.1768 139V123.766H88.7256V125.992H88.7842C89.4727 124.483 90.9961 123.473 92.959 123.473C95.0391 123.473 96.5771 124.542 97.2363 126.402H97.2949C98.1445 124.571 99.9316 123.473 102.07 123.473C105.088 123.473 107.036 125.45 107.036 128.482V139H104.487V129.068C104.487 126.974 103.33 125.729 101.323 125.729C99.3018 125.729 97.8809 127.237 97.8809 129.317V139H95.332V128.79C95.332 126.944 94.1016 125.729 92.2119 125.729C90.1904 125.729 88.7256 127.325 88.7256 129.449V139H86.1768ZM116.558 139.293C112.178 139.293 109.541 136.231 109.541 131.441V131.427C109.541 126.71 112.236 123.473 116.396 123.473C120.557 123.473 123.091 126.563 123.091 131.134V132.071H112.119C112.178 135.206 113.906 137.037 116.616 137.037C118.55 137.037 119.912 136.07 120.352 134.767L120.396 134.635H122.9L122.871 134.781C122.373 137.301 119.883 139.293 116.558 139.293ZM116.382 125.729C114.17 125.729 112.441 127.237 112.163 130.079H120.498C120.249 127.12 118.608 125.729 116.382 125.729ZM125.669 139V123.766H128.218V126.344H128.276C128.789 124.586 130.107 123.473 131.821 123.473C132.261 123.473 132.642 123.546 132.847 123.575V126.051C132.642 125.978 132.1 125.904 131.484 125.904C129.507 125.904 128.218 127.281 128.218 129.596V139H125.669ZM140.508 139.293C136.187 139.293 133.447 136.217 133.447 131.368V131.354C133.447 126.549 136.245 123.473 140.479 123.473C144.272 123.473 146.514 125.992 146.836 128.6L146.851 128.717H144.36L144.331 128.6C143.95 127.076 142.72 125.729 140.479 125.729C137.827 125.729 136.055 127.926 136.055 131.383V131.397C136.055 134.942 137.871 137.037 140.508 137.037C142.588 137.037 143.921 135.865 144.346 134.166L144.375 134.049H146.88L146.865 134.151C146.455 137.052 143.95 139.293 140.508 139.293ZM155.493 139.293C151.113 139.293 148.477 136.231 148.477 131.441V131.427C148.477 126.71 151.172 123.473 155.332 123.473C159.492 123.473 162.026 126.563 162.026 131.134V132.071H151.055C151.113 135.206 152.842 137.037 155.552 137.037C157.485 137.037 158.848 136.07 159.287 134.767L159.331 134.635H161.836L161.807 134.781C161.309 137.301 158.818 139.293 155.493 139.293ZM155.317 125.729C153.105 125.729 151.377 127.237 151.099 130.079H159.434C159.185 127.12 157.544 125.729 155.317 125.729ZM171.152 139V117.862H178.682C182.651 117.862 185.464 120.602 185.464 124.615V124.645C185.464 128.658 182.651 131.456 178.682 131.456H173.789V139H171.152ZM178.008 120.206H173.789V129.112H178.008C181.025 129.112 182.769 127.457 182.769 124.674V124.645C182.769 121.861 181.025 120.206 178.008 120.206ZM193.682 139.293C189.448 139.293 186.621 136.231 186.621 131.383V131.354C186.621 126.505 189.463 123.473 193.667 123.473C197.871 123.473 200.728 126.49 200.728 131.354V131.383C200.728 136.246 197.886 139.293 193.682 139.293ZM193.696 137.037C196.377 137.037 198.12 134.957 198.12 131.383V131.354C198.12 127.779 196.362 125.729 193.667 125.729C191.016 125.729 189.229 127.794 189.229 131.354V131.383C189.229 134.972 191.001 137.037 193.696 137.037ZM203.306 139V123.766H205.854V126.344H205.913C206.426 124.586 207.744 123.473 209.458 123.473C209.897 123.473 210.278 123.546 210.483 123.575V126.051C210.278 125.978 209.736 125.904 209.121 125.904C207.144 125.904 205.854 127.281 205.854 129.596V139H203.306ZM218.247 139.293C215.449 139.293 214.072 138.033 214.072 135.118V125.875H211.846V123.766H214.072V119.649H216.709V123.766H219.609V125.875H216.709V135.104C216.709 136.729 217.427 137.184 218.789 137.184C219.097 137.184 219.39 137.14 219.609 137.125V139.19C219.287 139.234 218.745 139.293 218.247 139.293ZM226.509 139.293C223.477 139.293 221.44 137.462 221.44 134.693V134.664C221.44 132.071 223.462 130.445 226.963 130.24L231.328 129.991V128.717C231.328 126.856 230.112 125.729 227.988 125.729C226.025 125.729 224.795 126.666 224.502 128.028L224.473 128.16H222.012L222.026 127.999C222.246 125.494 224.429 123.473 228.018 123.473C231.621 123.473 233.877 125.421 233.877 128.468V139H231.328V136.524H231.27C230.376 138.194 228.545 139.293 226.509 139.293ZM224.048 134.693C224.048 136.158 225.249 137.081 227.08 137.081C229.482 137.081 231.328 135.426 231.328 133.214V131.969L227.256 132.218C225.22 132.335 224.048 133.243 224.048 134.664V134.693ZM237.246 139V117.862H239.795V139H237.246ZM248.643 139.293C245.054 139.293 242.886 137.462 242.578 134.737L242.563 134.605H245.112L245.142 134.752C245.449 136.275 246.577 137.169 248.657 137.169C250.723 137.169 251.953 136.305 251.953 134.928V134.913C251.953 133.814 251.382 133.199 249.653 132.774L247.236 132.188C244.365 131.5 242.974 130.167 242.974 127.97V127.955C242.974 125.333 245.273 123.473 248.569 123.473C251.909 123.473 254.033 125.421 254.224 127.97L254.238 128.16H251.807L251.792 128.058C251.587 126.578 250.459 125.597 248.569 125.597C246.724 125.597 245.581 126.49 245.581 127.838V127.853C245.581 128.893 246.27 129.61 247.954 130.021L250.371 130.606C253.447 131.354 254.561 132.569 254.561 134.737V134.752C254.561 137.418 252.041 139.293 248.643 139.293Z" fill="white" fill-opacity="0.7"/>
<path d="M128 33.1757C93.7577 33.1757 66 -0.969585 66 33.1757C66 49.5725 72.5321 65.2978 84.1594 76.8921C95.7866 88.4864 111.557 95 128 95C144.443 95 160.213 88.4864 171.841 76.8921C183.468 65.2978 190 49.5725 190 33.1757C190 -0.969585 162.241 33.1757 128 33.1757Z" fill="#2A89A0"/>
<path d="M103.868 6.62479C103.522 6.6215 103.19 6.75933 102.945 7.00448C102.7 7.24966 102.562 7.58212 102.563 7.92859L102.564 9.24634C102.565 9.96661 103.15 10.5501 103.87 10.5501L105.222 10.5517C105.942 10.5502 106.526 9.96661 106.527 9.24634L106.529 7.92859C106.529 7.58212 106.392 7.24966 106.147 7.00448C105.902 6.75933 105.57 6.62158 105.223 6.62158L103.868 6.62479ZM109.715 6.62479C109.368 6.6215 109.036 6.75933 108.791 7.00448C108.546 7.24966 108.409 7.58212 108.409 7.92859L108.411 9.24634C108.412 9.96661 108.996 10.5501 109.716 10.5501L111.068 10.5517C111.788 10.5502 112.372 9.96661 112.373 9.24634L112.375 7.92859C112.375 7.58212 112.238 7.24966 111.993 7.00448C111.748 6.75933 111.416 6.62158 111.07 6.62158L109.715 6.62479ZM120.58 6.62479C120.234 6.6215 119.901 6.75933 119.656 7.00448C119.412 7.24966 119.274 7.58212 119.275 7.92859L119.276 9.24634C119.277 9.96661 119.861 10.5501 120.582 10.5501L143.208 10.5517C143.929 10.5502 144.513 9.96661 144.514 9.24634L144.515 7.92859C144.516 7.58212 144.379 7.24966 144.134 7.00448C143.889 6.75933 143.557 6.62158 143.21 6.62158L120.58 6.62479ZM149.778 6.62479C149.431 6.6215 149.099 6.75933 148.854 7.00448C148.609 7.24966 148.472 7.58212 148.472 7.92859L148.474 9.24634C148.475 9.96661 149.059 10.5501 149.779 10.5501L151.131 10.5517C151.851 10.5502 152.436 9.96661 152.437 9.24634L152.438 7.92859C152.439 7.58212 152.301 7.24966 152.056 7.00448C151.812 6.75933 151.479 6.62158 151.133 6.62158L149.778 6.62479ZM99.9118 13.2466C99.5653 13.2434 99.233 13.3812 98.9882 13.6263C98.7433 13.8715 98.606 14.2039 98.6064 14.5504L98.608 15.8681C98.6088 16.5884 99.1931 17.1719 99.9134 17.1719L155.088 17.1735C155.808 17.1719 156.392 16.5884 156.393 15.8681L156.395 14.5504C156.395 14.2039 156.258 13.8715 156.013 13.6263C155.768 13.3812 155.436 13.2434 155.089 13.2434L99.9118 13.2466ZM123.216 34.0531V34.0563L113.888 34.0579L113.882 34.0595C113.88 34.0563 113.878 34.0563 113.876 34.0563C113.534 34.0563 113.207 34.1936 112.965 34.436C112.72 34.6812 112.583 35.0136 112.583 35.3601L112.585 36.6779C112.585 37.3982 113.17 37.9817 113.89 37.9817L123.214 37.9833C123.935 37.9817 124.519 37.3982 124.52 36.6779L124.521 35.3601C124.522 35.0136 124.384 34.6812 124.139 34.436C123.895 34.1908 123.562 34.0531 123.216 34.0531ZM116.382 40.4329V40.4361L110.142 40.4378L110.136 40.4394C110.134 40.4361 110.132 40.4361 110.13 40.4361C109.788 40.4361 109.46 40.5734 109.218 40.8158C108.973 41.061 108.836 41.3935 108.837 41.7399L108.838 43.0577C108.839 43.778 109.423 44.3615 110.144 44.3615L116.38 44.3631C117.101 44.3615 117.685 43.778 117.686 43.0577L117.687 41.7399C117.688 41.3935 117.55 41.061 117.305 40.8158C117.061 40.5707 116.728 40.4329 116.382 40.4329ZM114.533 21.1086V21.1118L114.526 21.115C114.523 21.1118 114.521 21.1118 114.518 21.1118C114.253 21.1118 113.992 21.1959 113.773 21.3527C113.491 21.5544 113.301 21.8598 113.245 22.202L113.031 23.502C112.914 24.2127 113.395 24.8842 114.106 25.002L117.63 25.5891L118.524 31.756C118.62 32.4024 119.176 32.8667 119.81 32.8667C119.874 32.8667 119.939 32.8619 120.003 32.8524L121.344 32.6534C121.944 32.5643 122.388 32.0784 122.448 31.5009L141.915 31.4949L140.504 42.528L124.035 42.5299L123.958 42.0089C123.908 41.6669 123.724 41.359 123.446 41.153C123.22 40.9854 122.948 40.8963 122.67 40.8963C122.606 40.8963 122.542 40.9011 122.478 40.9105L121.164 41.1057C120.822 41.1564 120.514 41.341 120.308 41.6188C120.102 41.8966 120.015 42.2446 120.066 42.5866L120.39 44.7716C120.53 45.7381 121.358 46.4555 122.334 46.4555L142.232 46.4552C143.221 46.4552 144.055 45.7208 144.18 44.7407L146.093 29.7799C146.165 29.2202 145.992 28.6568 145.619 28.2333C145.247 27.8098 144.71 27.5672 144.146 27.5672L121.883 27.5739L121.312 23.6087C121.191 22.7624 120.535 22.0921 119.692 21.9515L114.747 21.1262C114.676 21.1145 114.605 21.1086 114.533 21.1086ZM126.762 48.2699C126.416 48.2666 126.083 48.4044 125.839 48.6496C125.594 48.8947 125.456 49.2273 125.457 49.5737L125.458 50.8914C125.459 51.6117 126.043 52.1952 126.764 52.1952L128.115 52.1968C128.836 52.1952 129.42 51.6117 129.421 50.8914L129.422 49.5737C129.423 49.2273 129.285 48.8947 129.041 48.6496C128.796 48.4044 128.464 48.2667 128.117 48.2667L126.762 48.2699ZM137.82 48.2699C137.474 48.2666 137.142 48.4044 136.897 48.6496C136.652 48.8947 136.515 49.2273 136.515 49.5737L136.517 50.8914C136.518 51.6117 137.102 52.1952 137.822 52.1952L139.174 52.1968C139.894 52.1952 140.478 51.6117 140.479 50.8914L140.481 49.5737C140.481 49.2273 140.344 48.8947 140.099 48.6496C139.854 48.4044 139.522 48.2667 139.175 48.2667L137.82 48.2699ZM156.096 3.92815H156.103C158.297 3.92815 160.073 5.70705 160.073 7.90158L160.067 52.3144C159.951 54.3656 158.278 56.0019 156.21 56.0581L98.898 56.0627C96.7811 56.0577 95.0516 54.4006 94.9343 52.3127L94.9281 7.90148C94.9281 5.73383 96.6637 3.97182 98.8209 3.92886L156.096 3.92815ZM98.82 0.00190746C94.5139 0.0422716 91.0326 3.53199 91.0001 7.84225L91 52.1828C91.0498 56.485 94.5384 59.9854 98.8455 59.9875C156.077 60.0155 156.1 59.9878 156.1 59.9878C160.432 59.9878 163.951 56.5004 164.001 52.178L164.001 7.84235C163.968 3.50329 160.443 0 156.1 0L98.82 0.00190746Z" fill="white"/>
</svg>
