<svg width="124" height="145" viewBox="0 0 124 145" fill="none" xmlns="http://www.w3.org/2000/svg">
<path d="M62 33.1757C27.7577 33.1757 0 -0.969585 0 33.1757C0 49.5725 6.53212 65.2978 18.1594 76.8921C29.7866 88.4864 45.5566 95 62 95C78.4434 95 94.2134 88.4864 105.841 76.8921C117.468 65.2978 124 49.5725 124 33.1757C124 -0.969585 96.2408 33.1757 62 33.1757Z" fill="#FFB07D"/>
<path d="M9.41602 138L3.65918 116.862H6.41309L10.6758 134.221H10.7344L15.5244 116.862H18.1904L22.9805 134.221H23.0391L27.3018 116.862H30.0557L24.2988 138H21.8086L16.8867 121.066H16.8281L11.9062 138H9.41602ZM37.0283 138.293C32.6484 138.293 30.0117 135.231 30.0117 130.441V130.427C30.0117 125.71 32.707 122.473 36.8672 122.473C41.0273 122.473 43.5615 125.563 43.5615 130.134V131.071H32.5898C32.6484 134.206 34.377 136.037 37.0869 136.037C39.0205 136.037 40.3828 135.07 40.8223 133.767L40.8662 133.635H43.3711L43.3418 133.781C42.8438 136.301 40.3535 138.293 37.0283 138.293ZM36.8525 124.729C34.6406 124.729 32.9121 126.237 32.6338 129.079H40.9688C40.7197 126.12 39.0791 124.729 36.8525 124.729ZM53.7129 138.293C51.5303 138.293 49.8311 137.194 48.8789 135.422H48.8203V138H46.2715V116.862H48.8203V125.314H48.8789C49.8311 123.557 51.6035 122.473 53.7568 122.473C57.5801 122.473 60.1875 125.563 60.1875 130.368V130.383C60.1875 135.188 57.6094 138.293 53.7129 138.293ZM53.2148 136.037C55.9102 136.037 57.5801 133.884 57.5801 130.383V130.368C57.5801 126.896 55.9102 124.729 53.2148 124.729C50.6514 124.729 48.8057 126.97 48.8057 130.368V130.383C48.8057 133.796 50.6367 136.037 53.2148 136.037ZM68.1562 138.293C64.5674 138.293 62.3994 136.462 62.0918 133.737L62.0771 133.605H64.626L64.6553 133.752C64.9629 135.275 66.0908 136.169 68.1709 136.169C70.2363 136.169 71.4668 135.305 71.4668 133.928V133.913C71.4668 132.814 70.8955 132.199 69.167 131.774L66.75 131.188C63.8789 130.5 62.4873 129.167 62.4873 126.97V126.955C62.4873 124.333 64.7871 122.473 68.083 122.473C71.4229 122.473 73.5469 124.421 73.7373 126.97L73.752 127.16H71.3203L71.3057 127.058C71.1006 125.578 69.9727 124.597 68.083 124.597C66.2373 124.597 65.0947 125.49 65.0947 126.838V126.853C65.0947 127.893 65.7832 128.61 67.4678 129.021L69.8848 129.606C72.9609 130.354 74.0742 131.569 74.0742 133.737V133.752C74.0742 136.418 71.5547 138.293 68.1562 138.293ZM78.1611 120.188C77.2822 120.188 76.5645 119.47 76.5645 118.591C76.5645 117.697 77.2822 116.994 78.1611 116.994C79.0547 116.994 79.7578 117.697 79.7578 118.591C79.7578 119.47 79.0547 120.188 78.1611 120.188ZM76.8867 138V122.766H79.4355V138H76.8867ZM87.8584 138.293C85.0605 138.293 83.6836 137.033 83.6836 134.118V124.875H81.457V122.766H83.6836V118.649H86.3203V122.766H89.2207V124.875H86.3203V134.104C86.3203 135.729 87.0381 136.184 88.4004 136.184C88.708 136.184 89.001 136.14 89.2207 136.125V138.19C88.8984 138.234 88.3564 138.293 87.8584 138.293ZM97.79 138.293C93.4102 138.293 90.7734 135.231 90.7734 130.441V130.427C90.7734 125.71 93.4688 122.473 97.6289 122.473C101.789 122.473 104.323 125.563 104.323 130.134V131.071H93.3516C93.4102 134.206 95.1387 136.037 97.8486 136.037C99.7822 136.037 101.145 135.07 101.584 133.767L101.628 133.635H104.133L104.104 133.781C103.605 136.301 101.115 138.293 97.79 138.293ZM97.6143 124.729C95.4023 124.729 93.6738 126.237 93.3955 129.079H101.73C101.481 126.12 99.8408 124.729 97.6143 124.729ZM112.307 138.293C108.718 138.293 106.55 136.462 106.242 133.737L106.228 133.605H108.776L108.806 133.752C109.113 135.275 110.241 136.169 112.321 136.169C114.387 136.169 115.617 135.305 115.617 133.928V133.913C115.617 132.814 115.046 132.199 113.317 131.774L110.9 131.188C108.029 130.5 106.638 129.167 106.638 126.97V126.955C106.638 124.333 108.938 122.473 112.233 122.473C115.573 122.473 117.697 124.421 117.888 126.97L117.902 127.16H115.471L115.456 127.058C115.251 125.578 114.123 124.597 112.233 124.597C110.388 124.597 109.245 125.49 109.245 126.838V126.853C109.245 127.893 109.934 128.61 111.618 129.021L114.035 129.606C117.111 130.354 118.225 131.569 118.225 133.737V133.752C118.225 136.418 115.705 138.293 112.307 138.293Z" fill="white" fill-opacity="0.7"/>
<path d="M87.002 30C87.002 16.2 75.802 5 62.002 5C48.202 5 37.002 16.2 37.002 30C37.002 43.8 48.202 55 62.002 55" stroke="white" stroke-width="3.75" stroke-linecap="round" stroke-linejoin="round"/>
<path d="M52.002 7.5H54.502C49.627 22.1 49.627 37.9 54.502 52.5H52.002" stroke="white" stroke-width="3.75" stroke-linecap="round" stroke-linejoin="round"/>
<path d="M69.502 7.5C71.927 14.8 73.1519 22.4 73.1519 30" stroke="white" stroke-width="3.75" stroke-linecap="round" stroke-linejoin="round"/>
<path d="M39.502 40V37.5C46.802 39.925 54.402 41.1501 62.002 41.1501" stroke="white" stroke-width="3.75" stroke-linecap="round" stroke-linejoin="round"/>
<path d="M39.502 22.5C54.102 17.625 69.902 17.625 84.502 22.5" stroke="white" stroke-width="3.75" stroke-linecap="round" stroke-linejoin="round"/>
<path d="M80.7504 36.7503C79.8254 36.4753 78.7754 36.3003 77.6254 36.3003C72.4504 36.3003 68.2754 40.5003 68.2754 45.6503C68.2754 50.8253 72.4754 55.0002 77.6254 55.0002C82.7754 55.0002 86.9753 50.8003 86.9753 45.6503C86.9753 43.7253 86.4003 41.9252 85.4003 40.4502" stroke="white" stroke-width="3.75" stroke-linecap="round" stroke-linejoin="round"/>
<path d="M82.1055 37.0003L78.9805 33.4253" stroke="white" stroke-width="3.75" stroke-linecap="round" stroke-linejoin="round"/>
<path d="M82.1032 37L78.4531 39.65" stroke="white" stroke-width="3.75" stroke-linecap="round" stroke-linejoin="round"/>
</svg>
