<svg width="312" height="146" viewBox="0 0 312 146" fill="none" xmlns="http://www.w3.org/2000/svg">
<path d="M6.41602 139L0.65918 117.862H3.41309L7.67578 135.221H7.73438L12.5244 117.862H15.1904L19.9805 135.221H20.0391L24.3018 117.862H27.0557L21.2988 139H18.8086L13.8867 122.066H13.8281L8.90625 139H6.41602ZM34.0283 139.293C29.6484 139.293 27.0117 136.231 27.0117 131.441V131.427C27.0117 126.71 29.707 123.473 33.8672 123.473C38.0273 123.473 40.5615 126.563 40.5615 131.134V132.071H29.5898C29.6484 135.206 31.377 137.037 34.0869 137.037C36.0205 137.037 37.3828 136.07 37.8223 134.767L37.8662 134.635H40.3711L40.3418 134.781C39.8438 137.301 37.3535 139.293 34.0283 139.293ZM33.8525 125.729C31.6406 125.729 29.9121 127.237 29.6338 130.079H37.9688C37.7197 127.12 36.0791 125.729 33.8525 125.729ZM50.7129 139.293C48.5303 139.293 46.8311 138.194 45.8789 136.422H45.8203V139H43.2715V117.862H45.8203V126.314H45.8789C46.8311 124.557 48.6035 123.473 50.7568 123.473C54.5801 123.473 57.1875 126.563 57.1875 131.368V131.383C57.1875 136.188 54.6094 139.293 50.7129 139.293ZM50.2148 137.037C52.9102 137.037 54.5801 134.884 54.5801 131.383V131.368C54.5801 127.896 52.9102 125.729 50.2148 125.729C47.6514 125.729 45.8057 127.97 45.8057 131.368V131.383C45.8057 134.796 47.6367 137.037 50.2148 137.037ZM59.8389 131.617V129.244H69.2139V131.617H59.8389ZM73.0078 139V117.862H81.0205C84.6387 117.862 87.085 119.972 87.085 123.136V123.165C87.085 125.348 85.4443 127.472 83.2617 127.779V127.838C86.3086 128.189 88.1543 130.24 88.1543 133.038V133.067C88.1543 136.788 85.4883 139 80.9912 139H73.0078ZM80.4199 120.191H75.6445V126.974H79.5996C82.7197 126.974 84.4189 125.729 84.4189 123.443V123.414C84.4189 121.334 82.9688 120.191 80.4199 120.191ZM80.3467 129.244H75.6445V136.671H80.5957C83.7598 136.671 85.4443 135.396 85.4443 132.965V132.936C85.4443 130.489 83.7158 129.244 80.3467 129.244ZM95.2002 139.293C92.168 139.293 90.1318 137.462 90.1318 134.693V134.664C90.1318 132.071 92.1533 130.445 95.6543 130.24L100.02 129.991V128.717C100.02 126.856 98.8037 125.729 96.6797 125.729C94.7168 125.729 93.4863 126.666 93.1934 128.028L93.1641 128.16H90.7031L90.7178 127.999C90.9375 125.494 93.1201 123.473 96.709 123.473C100.312 123.473 102.568 125.421 102.568 128.468V139H100.02V136.524H99.9609C99.0674 138.194 97.2363 139.293 95.2002 139.293ZM92.7393 134.693C92.7393 136.158 93.9404 137.081 95.7715 137.081C98.1738 137.081 100.02 135.426 100.02 133.214V131.969L95.9473 132.218C93.9111 132.335 92.7393 133.243 92.7393 134.664V134.693ZM111.211 139.293C107.622 139.293 105.454 137.462 105.146 134.737L105.132 134.605H107.681L107.71 134.752C108.018 136.275 109.146 137.169 111.226 137.169C113.291 137.169 114.521 136.305 114.521 134.928V134.913C114.521 133.814 113.95 133.199 112.222 132.774L109.805 132.188C106.934 131.5 105.542 130.167 105.542 127.97V127.955C105.542 125.333 107.842 123.473 111.138 123.473C114.478 123.473 116.602 125.421 116.792 127.97L116.807 128.16H114.375L114.36 128.058C114.155 126.578 113.027 125.597 111.138 125.597C109.292 125.597 108.149 126.49 108.149 127.838V127.853C108.149 128.893 108.838 129.61 110.522 130.021L112.939 130.606C116.016 131.354 117.129 132.569 117.129 134.737V134.752C117.129 137.418 114.609 139.293 111.211 139.293ZM126.05 139.293C121.67 139.293 119.033 136.231 119.033 131.441V131.427C119.033 126.71 121.729 123.473 125.889 123.473C130.049 123.473 132.583 126.563 132.583 131.134V132.071H121.611C121.67 135.206 123.398 137.037 126.108 137.037C128.042 137.037 129.404 136.07 129.844 134.767L129.888 134.635H132.393L132.363 134.781C131.865 137.301 129.375 139.293 126.05 139.293ZM125.874 125.729C123.662 125.729 121.934 127.237 121.655 130.079H129.99C129.741 127.12 128.101 125.729 125.874 125.729ZM140.889 139.293C136.992 139.293 134.414 136.188 134.414 131.383V131.368C134.414 126.563 137.021 123.473 140.845 123.473C142.998 123.473 144.771 124.557 145.723 126.314H145.781V117.862H148.33V139H145.781V136.422H145.723C144.771 138.194 143.071 139.293 140.889 139.293ZM141.387 137.037C143.965 137.037 145.796 134.796 145.796 131.383V131.368C145.796 127.97 143.95 125.729 141.387 125.729C138.691 125.729 137.021 127.896 137.021 131.368V131.383C137.021 134.884 138.691 137.037 141.387 137.037ZM156.636 139L164.502 117.862H167.109L174.961 139H172.192L170.054 132.95H161.543L159.404 139H156.636ZM165.776 121.026L162.349 130.709H169.263L165.835 121.026H165.776ZM176.997 144.127V123.766H179.546V126.344H179.604C180.557 124.571 182.256 123.473 184.438 123.473C188.335 123.473 190.913 126.578 190.913 131.383V131.397C190.913 136.202 188.306 139.293 184.482 139.293C182.329 139.293 180.557 138.209 179.604 136.451H179.546V144.127H176.997ZM183.94 137.037C186.636 137.037 188.306 134.869 188.306 131.397V131.383C188.306 127.882 186.636 125.729 183.94 125.729C181.362 125.729 179.531 127.97 179.531 131.383V131.397C179.531 134.796 181.377 137.037 183.94 137.037ZM193.491 144.127V123.766H196.04V126.344H196.099C197.051 124.571 198.75 123.473 200.933 123.473C204.829 123.473 207.407 126.578 207.407 131.383V131.397C207.407 136.202 204.8 139.293 200.977 139.293C198.823 139.293 197.051 138.209 196.099 136.451H196.04V144.127H193.491ZM200.435 137.037C203.13 137.037 204.8 134.869 204.8 131.397V131.383C204.8 127.882 203.13 125.729 200.435 125.729C197.856 125.729 196.025 127.97 196.025 131.383V131.397C196.025 134.796 197.871 137.037 200.435 137.037ZM210.117 139V117.862H212.666V139H210.117ZM217.544 121.188C216.665 121.188 215.947 120.47 215.947 119.591C215.947 118.697 216.665 117.994 217.544 117.994C218.438 117.994 219.141 118.697 219.141 119.591C219.141 120.47 218.438 121.188 217.544 121.188ZM216.27 139V123.766H218.818V139H216.27ZM228.604 139.293C224.282 139.293 221.543 136.217 221.543 131.368V131.354C221.543 126.549 224.341 123.473 228.574 123.473C232.368 123.473 234.609 125.992 234.932 128.6L234.946 128.717H232.456L232.427 128.6C232.046 127.076 230.815 125.729 228.574 125.729C225.923 125.729 224.15 127.926 224.15 131.383V131.397C224.15 134.942 225.967 137.037 228.604 137.037C230.684 137.037 232.017 135.865 232.441 134.166L232.471 134.049H234.976L234.961 134.151C234.551 137.052 232.046 139.293 228.604 139.293ZM241.772 139.293C238.74 139.293 236.704 137.462 236.704 134.693V134.664C236.704 132.071 238.726 130.445 242.227 130.24L246.592 129.991V128.717C246.592 126.856 245.376 125.729 243.252 125.729C241.289 125.729 240.059 126.666 239.766 128.028L239.736 128.16H237.275L237.29 127.999C237.51 125.494 239.692 123.473 243.281 123.473C246.885 123.473 249.141 125.421 249.141 128.468V139H246.592V136.524H246.533C245.64 138.194 243.809 139.293 241.772 139.293ZM239.312 134.693C239.312 136.158 240.513 137.081 242.344 137.081C244.746 137.081 246.592 135.426 246.592 133.214V131.969L242.52 132.218C240.483 132.335 239.312 133.243 239.312 134.664V134.693ZM257.329 139.293C254.531 139.293 253.154 138.033 253.154 135.118V125.875H250.928V123.766H253.154V119.649H255.791V123.766H258.691V125.875H255.791V135.104C255.791 136.729 256.509 137.184 257.871 137.184C258.179 137.184 258.472 137.14 258.691 137.125V139.19C258.369 139.234 257.827 139.293 257.329 139.293ZM262.866 121.188C261.987 121.188 261.27 120.47 261.27 119.591C261.27 118.697 261.987 117.994 262.866 117.994C263.76 117.994 264.463 118.697 264.463 119.591C264.463 120.47 263.76 121.188 262.866 121.188ZM261.592 139V123.766H264.141V139H261.592ZM273.926 139.293C269.692 139.293 266.865 136.231 266.865 131.383V131.354C266.865 126.505 269.707 123.473 273.911 123.473C278.115 123.473 280.972 126.49 280.972 131.354V131.383C280.972 136.246 278.13 139.293 273.926 139.293ZM273.94 137.037C276.621 137.037 278.364 134.957 278.364 131.383V131.354C278.364 127.779 276.606 125.729 273.911 125.729C271.26 125.729 269.473 127.794 269.473 131.354V131.383C269.473 134.972 271.245 137.037 273.94 137.037ZM283.55 139V123.766H286.099V125.934H286.157C286.978 124.513 288.53 123.473 290.845 123.473C294.185 123.473 296.118 125.641 296.118 129.112V139H293.569V129.566C293.569 127.091 292.412 125.729 290.068 125.729C287.666 125.729 286.099 127.442 286.099 130.035V139H283.55ZM304.775 139.293C301.187 139.293 299.019 137.462 298.711 134.737L298.696 134.605H301.245L301.274 134.752C301.582 136.275 302.71 137.169 304.79 137.169C306.855 137.169 308.086 136.305 308.086 134.928V134.913C308.086 133.814 307.515 133.199 305.786 132.774L303.369 132.188C300.498 131.5 299.106 130.167 299.106 127.97V127.955C299.106 125.333 301.406 123.473 304.702 123.473C308.042 123.473 310.166 125.421 310.356 127.97L310.371 128.16H307.939L307.925 128.058C307.72 126.578 306.592 125.597 304.702 125.597C302.856 125.597 301.714 126.49 301.714 127.838V127.853C301.714 128.893 302.402 129.61 304.087 130.021L306.504 130.606C309.58 131.354 310.693 132.569 310.693 134.737V134.752C310.693 137.418 308.174 139.293 304.775 139.293Z" fill="white" fill-opacity="0.7"/>
<path d="M156 33.1757C121.758 33.1757 94 -0.969585 94 33.1757C94 49.5725 100.532 65.2978 112.159 76.8921C123.787 88.4864 139.557 95 156 95C172.443 95 188.213 88.4864 199.841 76.8921C211.468 65.2978 218 49.5725 218 33.1757C218 -0.969585 190.241 33.1757 156 33.1757Z" fill="#7CCCD4"/>
<path d="M144.15 5H167.825C169.45 5 170.9 5.05007 172.2 5.22507C179.125 6.00007 181 9.25002 181 18.15V33.95C181 42.85 179.125 46.1 172.2 46.875C170.9 47.05 169.475 47.1001 167.825 47.1001H144.15C142.525 47.1001 141.075 47.05 139.775 46.875C132.85 46.1 130.975 42.85 130.975 33.95V18.15C130.975 9.25002 132.85 6.00007 139.775 5.22507C141.075 5.05007 142.525 5 144.15 5Z" stroke="white" stroke-width="5" stroke-linecap="round" stroke-linejoin="round"/>
<path d="M159.949 20.8003H169.149" stroke="white" stroke-width="5" stroke-linecap="round" stroke-linejoin="round"/>
<path d="M142.85 35.2744H142.9H169.175" stroke="white" stroke-width="5" stroke-linecap="round" stroke-linejoin="round"/>
<path d="M143.5 55H168.5" stroke="white" stroke-width="5" stroke-linecap="round" stroke-linejoin="round"/>
<path d="M143.984 20.75H144.007" stroke="white" stroke-width="6.66667" stroke-linecap="round" stroke-linejoin="round"/>
<path d="M152.236 20.75H152.259" stroke="white" stroke-width="6.66667" stroke-linecap="round" stroke-linejoin="round"/>
</svg>
