<svg width="208" height="145" viewBox="0 0 208 145" fill="none" xmlns="http://www.w3.org/2000/svg">
<path d="M3.09082 120.188C2.21191 120.188 1.49414 119.47 1.49414 118.591C1.49414 117.697 2.21191 116.994 3.09082 116.994C3.98438 116.994 4.6875 117.697 4.6875 118.591C4.6875 119.47 3.98438 120.188 3.09082 120.188ZM1.81641 138V122.766H4.36523V138H1.81641ZM17.168 138.352C11.1621 138.352 7.41211 134.147 7.41211 127.438V127.409C7.41211 120.715 11.1768 116.511 17.168 116.511C23.1445 116.511 26.8945 120.715 26.8945 127.409V127.438C26.8945 134.147 23.1592 138.352 17.168 138.352ZM17.168 135.92C21.5186 135.92 24.1992 132.595 24.1992 127.438V127.409C24.1992 122.224 21.4746 118.942 17.168 118.942C12.8467 118.942 10.1074 122.209 10.1074 127.409V127.438C10.1074 132.639 12.832 135.92 17.168 135.92ZM37.0898 138.352C32.5195 138.352 29.4287 136.11 29.165 132.492L29.1504 132.287H31.7871L31.8164 132.492C32.124 134.616 34.1748 135.92 37.2363 135.92C40.2832 135.92 42.2021 134.543 42.2021 132.36V132.346C42.2021 130.485 40.9863 129.445 38.0859 128.801L35.7422 128.288C31.6113 127.38 29.6777 125.52 29.6777 122.429V122.414C29.6924 118.942 32.7686 116.511 37.1191 116.511C41.25 116.511 44.2676 118.898 44.502 122.355L44.5166 122.575H41.8799L41.8506 122.37C41.5283 120.217 39.7266 118.942 37.0459 118.942C34.2188 118.957 32.373 120.305 32.373 122.341V122.355C32.373 124.084 33.6475 125.168 36.4014 125.769L38.7451 126.281C43.0811 127.233 44.8975 128.991 44.8975 132.214V132.229C44.8975 135.979 41.9238 138.352 37.0898 138.352ZM52.4561 138L60.3223 116.862H62.9297L70.7812 138H68.0127L65.874 131.95H57.3633L55.2246 138H52.4561ZM61.5967 120.026L58.1689 129.709H65.083L61.6553 120.026H61.5967ZM72.8174 143.127V122.766H75.3662V125.344H75.4248C76.377 123.571 78.0762 122.473 80.2588 122.473C84.1553 122.473 86.7334 125.578 86.7334 130.383V130.397C86.7334 135.202 84.126 138.293 80.3027 138.293C78.1494 138.293 76.377 137.209 75.4248 135.451H75.3662V143.127H72.8174ZM79.7607 136.037C82.4561 136.037 84.126 133.869 84.126 130.397V130.383C84.126 126.882 82.4561 124.729 79.7607 124.729C77.1826 124.729 75.3516 126.97 75.3516 130.383V130.397C75.3516 133.796 77.1973 136.037 79.7607 136.037ZM89.3115 143.127V122.766H91.8604V125.344H91.9189C92.8711 123.571 94.5703 122.473 96.7529 122.473C100.649 122.473 103.228 125.578 103.228 130.383V130.397C103.228 135.202 100.62 138.293 96.7969 138.293C94.6436 138.293 92.8711 137.209 91.9189 135.451H91.8604V143.127H89.3115ZM96.2549 136.037C98.9502 136.037 100.62 133.869 100.62 130.397V130.383C100.62 126.882 98.9502 124.729 96.2549 124.729C93.6768 124.729 91.8457 126.97 91.8457 130.383V130.397C91.8457 133.796 93.6914 136.037 96.2549 136.037ZM105.938 138V116.862H108.486V138H105.938ZM113.364 120.188C112.485 120.188 111.768 119.47 111.768 118.591C111.768 117.697 112.485 116.994 113.364 116.994C114.258 116.994 114.961 117.697 114.961 118.591C114.961 119.47 114.258 120.188 113.364 120.188ZM112.09 138V122.766H114.639V138H112.09ZM124.424 138.293C120.103 138.293 117.363 135.217 117.363 130.368V130.354C117.363 125.549 120.161 122.473 124.395 122.473C128.188 122.473 130.43 124.992 130.752 127.6L130.767 127.717H128.276L128.247 127.6C127.866 126.076 126.636 124.729 124.395 124.729C121.743 124.729 119.971 126.926 119.971 130.383V130.397C119.971 133.942 121.787 136.037 124.424 136.037C126.504 136.037 127.837 134.865 128.262 133.166L128.291 133.049H130.796L130.781 133.151C130.371 136.052 127.866 138.293 124.424 138.293ZM137.593 138.293C134.561 138.293 132.524 136.462 132.524 133.693V133.664C132.524 131.071 134.546 129.445 138.047 129.24L142.412 128.991V127.717C142.412 125.856 141.196 124.729 139.072 124.729C137.109 124.729 135.879 125.666 135.586 127.028L135.557 127.16H133.096L133.11 126.999C133.33 124.494 135.513 122.473 139.102 122.473C142.705 122.473 144.961 124.421 144.961 127.468V138H142.412V135.524H142.354C141.46 137.194 139.629 138.293 137.593 138.293ZM135.132 133.693C135.132 135.158 136.333 136.081 138.164 136.081C140.566 136.081 142.412 134.426 142.412 132.214V130.969L138.34 131.218C136.304 131.335 135.132 132.243 135.132 133.664V133.693ZM153.149 138.293C150.352 138.293 148.975 137.033 148.975 134.118V124.875H146.748V122.766H148.975V118.649H151.611V122.766H154.512V124.875H151.611V134.104C151.611 135.729 152.329 136.184 153.691 136.184C153.999 136.184 154.292 136.14 154.512 136.125V138.19C154.189 138.234 153.647 138.293 153.149 138.293ZM158.687 120.188C157.808 120.188 157.09 119.47 157.09 118.591C157.09 117.697 157.808 116.994 158.687 116.994C159.58 116.994 160.283 117.697 160.283 118.591C160.283 119.47 159.58 120.188 158.687 120.188ZM157.412 138V122.766H159.961V138H157.412ZM169.746 138.293C165.513 138.293 162.686 135.231 162.686 130.383V130.354C162.686 125.505 165.527 122.473 169.731 122.473C173.936 122.473 176.792 125.49 176.792 130.354V130.383C176.792 135.246 173.95 138.293 169.746 138.293ZM169.761 136.037C172.441 136.037 174.185 133.957 174.185 130.383V130.354C174.185 126.779 172.427 124.729 169.731 124.729C167.08 124.729 165.293 126.794 165.293 130.354V130.383C165.293 133.972 167.065 136.037 169.761 136.037ZM179.37 138V122.766H181.919V124.934H181.978C182.798 123.513 184.351 122.473 186.665 122.473C190.005 122.473 191.938 124.641 191.938 128.112V138H189.39V128.566C189.39 126.091 188.232 124.729 185.889 124.729C183.486 124.729 181.919 126.442 181.919 129.035V138H179.37ZM200.596 138.293C197.007 138.293 194.839 136.462 194.531 133.737L194.517 133.605H197.065L197.095 133.752C197.402 135.275 198.53 136.169 200.61 136.169C202.676 136.169 203.906 135.305 203.906 133.928V133.913C203.906 132.814 203.335 132.199 201.606 131.774L199.189 131.188C196.318 130.5 194.927 129.167 194.927 126.97V126.955C194.927 124.333 197.227 122.473 200.522 122.473C203.862 122.473 205.986 124.421 206.177 126.97L206.191 127.16H203.76L203.745 127.058C203.54 125.578 202.412 124.597 200.522 124.597C198.677 124.597 197.534 125.49 197.534 126.838V126.853C197.534 127.893 198.223 128.61 199.907 129.021L202.324 129.606C205.4 130.354 206.514 131.569 206.514 133.737V133.752C206.514 136.418 203.994 138.293 200.596 138.293Z" fill="white" fill-opacity="0.7"/>
<path d="M104 32.9786C69.2054 32.9786 41 -0.723227 41 32.9786C41 49.1625 47.6375 64.6835 59.4523 76.1272C71.2671 87.571 87.2914 94 104 94C120.709 94 136.733 87.571 148.548 76.1272C160.363 64.6835 167 49.1625 167 32.9786C167 -0.723227 138.793 32.9786 104 32.9786Z" fill="#A596EA"/>
<path fill-rule="evenodd" clip-rule="evenodd" d="M112.5 5C113 7.75 111.75 10.5 110.25 12.5C108.75 14.5 106 16.25 103.25 16C102.75 13.25 104 10.75 105.5 8.75C107.25 6.75 110 5.25 112.5 5ZM120.5 48.5C121.75 46.5 122.5 45.25 123.5 43C115.75 40 114.5 29 122.25 25C120 22 116.75 20.5 113.5 20.5C111.25 20.5 109.75 21 108.25 21.5C107 22 106 22.25 104.75 22.25C103.25 22.25 102.25 21.75 100.75 21.25C99.2504 20.75 97.7504 20.25 96.0004 20.25C92.5004 20.25 88.7504 22.25 86.5004 26C83.2504 31 83.7504 40.75 89.0004 48.75C91.2504 51.75 93.7504 55 97.0004 55C98.5004 55 99.2504 54.5 100.25 54.25C101.5 53.75 102.75 53.25 104.75 53.25C107 53.25 108 53.75 109.25 54.25C110.25 54.75 111 55 112.5 55C116 55 118.5 51.25 120.5 48.5Z" stroke="white" stroke-width="3.75" stroke-miterlimit="10" stroke-linecap="round" stroke-linejoin="round"/>
</svg>
