<svg width="200" height="116" viewBox="0 0 200 116" fill="none" xmlns="http://www.w3.org/2000/svg">
<g clip-path="url(#clip0_58_10)">
<path d="M100 24.737C77.9082 24.737 60 5.26095 60 24.737C60 34.0896 64.2143 43.0591 71.7157 49.6724C79.2172 56.2856 89.3913 60.0009 100 60.0009C110.609 60.0009 120.783 56.2856 128.284 49.6724C135.786 43.0591 140 34.0896 140 24.737C140 5.26095 122.091 24.737 100 24.737Z" fill="#87C954"/>
<path d="M122.782 40.6623V27.7863C122.782 27.6065 122.701 27.4341 122.556 27.307C122.412 27.1799 122.217 27.1085 122.013 27.1085H121.244V3.38823C121.244 3.20846 121.163 3.03606 121.019 2.90894C120.874 2.78183 120.679 2.71041 120.475 2.71041H118.169V0.67782C118.169 0.498051 118.088 0.325645 117.944 0.198529C117.8 0.071413 117.604 0 117.401 0H108.176C107.972 0 107.777 0.071413 107.633 0.198529C107.488 0.325645 107.407 0.498051 107.407 0.67782V2.71041H105.098C104.894 2.71041 104.698 2.78183 104.554 2.90894C104.41 3.03606 104.329 3.20846 104.329 3.38823V14.9094H98.951C98.7471 14.9094 98.5516 14.9809 98.4074 15.108C98.2632 15.2351 98.1822 15.4075 98.1822 15.5873V28.4641H96.6455V15.5873C96.6455 15.4075 96.5644 15.2351 96.4203 15.108C96.2761 14.9809 96.0805 14.9094 95.8766 14.9094H78.9648C78.7609 14.9094 78.5653 14.9809 78.4211 15.108C78.2769 15.2351 78.1959 15.4075 78.1959 15.5873V40.6597H76.6582V42.0179H124.319V40.6623H122.782ZM102.026 37.9544H89.7268V29.8189H102.026V37.9544ZM89.7268 39.3075H102.026V40.6631H89.7268V39.3075ZM103.564 32.5302H109.714V33.8858H103.564V32.5302ZM110.482 6.77733V14.9094H108.945V6.77733H110.482ZM115.091 27.1085V6.77733H116.629V27.1085H115.091ZM113.553 14.9094H112.02V6.77733H113.557L113.553 14.9094ZM113.553 16.2651V21.6868H107.407V16.2651H113.553ZM113.553 23.0424V24.398H99.7199V23.0424H113.553ZM113.553 25.7528V27.1085H110.482C110.278 27.1085 110.082 27.1799 109.938 27.307C109.794 27.4341 109.713 27.6065 109.713 27.7863V31.1745H107.407V25.7528H113.553ZM103.564 35.2406H109.714V40.6623H103.564V35.2406ZM111.252 28.4632H121.245V40.6623H111.251L111.252 28.4632ZM118.17 27.1076V6.77733H119.71V27.1085L118.17 27.1076ZM108.176 4.06346C108.38 4.06346 108.576 3.99205 108.72 3.86493C108.864 3.73781 108.945 3.56541 108.945 3.38564V1.35564H116.633V3.38823C116.633 3.568 116.714 3.74041 116.858 3.86752C117.002 3.99464 117.198 4.06605 117.402 4.06605H119.71V5.42169H105.87V4.06346H108.176ZM105.87 6.77733H107.407V14.9094H105.87V6.77733ZM105.87 16.2651V21.6868H99.7199V16.2651H105.87ZM99.7199 25.7528H105.87V31.1745H103.564V29.1419C103.564 28.9622 103.483 28.7897 103.339 28.6626C103.195 28.5355 102.999 28.4641 102.795 28.4641H99.7199V25.7528ZM79.7326 16.2651H95.1077V28.4641H88.9579C88.754 28.4641 88.5584 28.5355 88.4142 28.6626C88.27 28.7897 88.189 28.9622 88.189 29.1419V40.6623H79.7326V16.2651Z" fill="white"/>
<path d="M85.8825 23.0424H82.808C82.6041 23.0424 82.4086 23.1138 82.2644 23.2409C82.1202 23.3681 82.0392 23.5405 82.0392 23.7202V26.4307C82.0392 26.6104 82.1202 26.7828 82.2644 26.9099C82.4086 27.0371 82.6041 27.1085 82.808 27.1085H85.8825C86.0864 27.1085 86.2819 27.0371 86.4261 26.9099C86.5703 26.7828 86.6513 26.6104 86.6513 26.4307V23.7202C86.6513 23.5405 86.5703 23.3681 86.4261 23.2409C86.2819 23.1138 86.0864 23.0424 85.8825 23.0424ZM85.1136 25.7528H83.5769V24.3981H85.1146L85.1136 25.7528Z" fill="white"/>
<path d="M88.9583 27.1059H92.0327C92.2367 27.1059 92.4322 27.0345 92.5764 26.9074C92.7206 26.7803 92.8016 26.6079 92.8016 26.4281V23.7203C92.8016 23.5405 92.7206 23.3681 92.5764 23.241C92.4322 23.1139 92.2367 23.0425 92.0327 23.0425H88.9583C88.7544 23.0425 88.5588 23.1139 88.4146 23.241C88.2705 23.3681 88.1895 23.5405 88.1895 23.7203V26.4307C88.1902 26.61 88.2716 26.7818 88.4157 26.9083C88.5598 27.0349 88.7549 27.1059 88.9583 27.1059ZM89.7272 24.3955H91.2649V25.7512H89.7272V24.3955Z" fill="white"/>
<path d="M85.8825 17.6207H82.808C82.6041 17.6207 82.4086 17.6921 82.2644 17.8193C82.1202 17.9464 82.0392 18.1188 82.0392 18.2985V21.009C82.0392 21.1887 82.1202 21.3611 82.2644 21.4883C82.4086 21.6154 82.6041 21.6868 82.808 21.6868H85.8825C86.0864 21.6868 86.2819 21.6154 86.4261 21.4883C86.5703 21.3611 86.6513 21.1887 86.6513 21.009V18.2985C86.6513 18.1188 86.5703 17.9464 86.4261 17.8193C86.2819 17.6921 86.0864 17.6207 85.8825 17.6207ZM85.1136 20.3311H83.5769V18.9764H85.1146L85.1136 20.3311Z" fill="white"/>
<path d="M88.9583 21.6841H92.0327C92.2367 21.6841 92.4322 21.6127 92.5764 21.4855C92.7206 21.3584 92.8016 21.186 92.8016 21.0062V18.2984C92.8016 18.1187 92.7206 17.9462 92.5764 17.8191C92.4322 17.692 92.2367 17.6206 92.0327 17.6206H88.9583C88.7544 17.6206 88.5588 17.692 88.4146 17.8191C88.2705 17.9462 88.1895 18.1187 88.1895 18.2984V21.0088C88.1902 21.1882 88.2716 21.3599 88.4157 21.4865C88.5598 21.613 88.7549 21.6841 88.9583 21.6841ZM89.7272 18.9737H91.2649V20.3293H89.7272V18.9737Z" fill="white"/>
<path d="M85.8823 28.4639H82.8079C82.604 28.4639 82.4084 28.5353 82.2643 28.6624C82.1201 28.7895 82.0391 28.9619 82.0391 29.1417V31.8521C82.0391 32.0319 82.1201 32.2043 82.2643 32.3314C82.4084 32.4585 82.604 32.5299 82.8079 32.5299H85.8823C86.0863 32.5299 86.2818 32.4585 86.426 32.3314C86.5702 32.2043 86.6512 32.0319 86.6512 31.8521V29.1417C86.6512 28.9619 86.5702 28.7895 86.426 28.6624C86.2818 28.5353 86.0863 28.4639 85.8823 28.4639ZM85.1135 31.1743H83.5768V29.8195H85.1145L85.1135 31.1743Z" fill="white"/>
<path d="M85.8825 33.8858H82.808C82.6041 33.8858 82.4086 33.9572 82.2644 34.0843C82.1202 34.2114 82.0392 34.3839 82.0392 34.5636V37.274C82.0392 37.4538 82.1202 37.6262 82.2644 37.7533C82.4086 37.8804 82.6041 37.9519 82.808 37.9519H85.8825C86.0864 37.9519 86.2819 37.8804 86.4261 37.7533C86.5703 37.6262 86.6513 37.4538 86.6513 37.274V34.5636C86.6513 34.3839 86.5703 34.2114 86.4261 34.0843C86.2819 33.9572 86.0864 33.8858 85.8825 33.8858ZM85.1136 36.5962H83.5769V35.2414H85.1146L85.1136 36.5962Z" fill="white"/>
<path d="M119.808 30.7786H112.943V32.5077H119.808V30.7786Z" fill="white"/>
<path d="M119.808 34.2368H112.943V35.1014H119.808V34.2368Z" fill="white"/>
<path d="M119.808 36.8305H112.943V37.6951H119.808V36.8305Z" fill="white"/>
<path d="M92.0325 36.5965H99.7201C99.924 36.5965 100.12 36.5251 100.264 36.398C100.408 36.2709 100.489 36.0984 100.489 35.9187V31.8552C100.489 31.766 100.47 31.6776 100.431 31.595C100.393 31.5125 100.336 31.4375 100.265 31.3742C100.193 31.311 100.108 31.2609 100.015 31.2266C99.9215 31.1924 99.8213 31.1748 99.7201 31.1748H92.0325C91.8286 31.1748 91.6331 31.2462 91.4889 31.3733C91.3447 31.5005 91.2637 31.6729 91.2637 31.8526V35.9161C91.2633 36.0053 91.2829 36.0937 91.3214 36.1763C91.3598 36.2588 91.4164 36.3338 91.4878 36.3971C91.5593 36.4603 91.6441 36.5104 91.7376 36.5447C91.8311 36.5789 91.9313 36.5965 92.0325 36.5965ZM98.9512 35.2383H96.6447V32.5304H98.9512V35.2383ZM92.8014 32.5278H95.1079V35.2383H92.8014V32.5278Z" fill="white"/>
<path d="M81.2708 11.5211C81.8819 11.5202 82.4675 11.3055 82.8993 10.9243C83.331 10.543 83.5734 10.0263 83.5734 9.48763C83.5721 9.18581 83.4933 8.88816 83.343 8.61701L86.4321 5.89622C86.7392 6.03046 87.0774 6.10031 87.4202 6.10031C87.7629 6.10031 88.1011 6.03046 88.4082 5.89622L90.7255 7.93919C90.5752 8.21034 90.4964 8.50799 90.4951 8.8098C90.5196 9.33415 90.7732 9.82983 91.2027 10.1932C91.6322 10.5565 92.2044 10.7594 92.7997 10.7594C93.395 10.7594 93.9672 10.5565 94.3967 10.1932C94.8262 9.82983 95.0797 9.33415 95.1043 8.8098C95.103 8.50799 95.0242 8.21034 94.8738 7.93919L99.4977 3.86276C99.8053 3.99532 100.143 4.06478 100.485 4.06593C100.942 4.06713 101.388 3.94887 101.769 3.72612C102.149 3.50337 102.446 3.18616 102.621 2.81465C102.797 2.44314 102.843 2.03404 102.755 1.63917C102.667 1.2443 102.448 0.881405 102.125 0.596449C101.803 0.311493 101.392 0.117291 100.944 0.0384358C100.496 -0.0404197 100.032 -0.000381959 99.6104 0.153479C99.1885 0.30734 98.8279 0.568103 98.5743 0.902747C98.3207 1.23739 98.1854 1.63086 98.1856 2.03334C98.1869 2.33516 98.2657 2.6328 98.416 2.90396L93.7892 6.98038C93.4821 6.84614 93.1439 6.77629 92.8012 6.77629C92.4584 6.77629 92.1202 6.84614 91.8131 6.98038L89.4958 4.93742C89.6467 4.66521 89.7255 4.36633 89.7262 4.06334C89.739 3.78948 89.6889 3.51616 89.5789 3.2598C89.4689 3.00345 89.3012 2.76935 89.0859 2.57158C88.8706 2.37381 88.6122 2.21645 88.3262 2.10895C88.0402 2.00145 87.7325 1.94604 87.4216 1.94604C87.1107 1.94604 86.803 2.00145 86.517 2.10895C86.231 2.21645 85.9726 2.37381 85.7574 2.57158C85.5421 2.76935 85.3744 3.00345 85.2644 3.2598C85.1543 3.51616 85.1042 3.78948 85.117 4.06334C85.1183 4.36516 85.1971 4.6628 85.3475 4.93396L82.2583 7.6582C81.9508 7.52565 81.6132 7.45619 81.2708 7.45503C80.9602 7.44373 80.6501 7.48791 80.3593 7.58492C80.0686 7.68193 79.803 7.82977 79.5787 8.01955C79.3544 8.20932 79.1759 8.43712 79.0539 8.68926C78.932 8.9414 78.8691 9.21266 78.8691 9.48676C78.8691 9.76086 78.932 10.0321 79.0539 10.2843C79.1759 10.5364 79.3544 10.7642 79.5787 10.954C79.803 11.1438 80.0686 11.2916 80.3593 11.3886C80.6501 11.4856 80.9602 11.5298 81.2708 11.5185V11.5211ZM100.492 1.35552C100.644 1.35552 100.793 1.39527 100.919 1.46975C101.046 1.54423 101.144 1.65009 101.202 1.77395C101.261 1.8978 101.276 2.03409 101.246 2.16557C101.217 2.29706 101.143 2.41783 101.036 2.51263C100.928 2.60742 100.791 2.67198 100.642 2.69813C100.493 2.72429 100.338 2.71086 100.198 2.65956C100.057 2.60826 99.9373 2.52138 99.8529 2.40991C99.7684 2.29845 99.7233 2.1674 99.7233 2.03334C99.7233 1.85417 99.8038 1.68228 99.9471 1.55527C100.09 1.42825 100.285 1.35643 100.488 1.35552H100.492ZM93.5705 8.8098C93.5705 8.94386 93.5254 9.07491 93.4409 9.18638C93.3564 9.29785 93.2364 9.38473 93.0959 9.43603C92.9554 9.48733 92.8008 9.50076 92.6516 9.4746C92.5025 9.44845 92.3655 9.38389 92.258 9.2891C92.1505 9.1943 92.0772 9.07353 92.0476 8.94204C92.0179 8.81056 92.0331 8.67427 92.0913 8.55042C92.1495 8.42656 92.2481 8.3207 92.3745 8.24622C92.5009 8.17174 92.6496 8.13199 92.8016 8.13199C93.0056 8.13199 93.2011 8.2034 93.3453 8.33051C93.4895 8.45763 93.5705 8.63004 93.5705 8.8098ZM87.4207 3.38811C87.5727 3.38811 87.7214 3.42787 87.8478 3.50235C87.9742 3.57683 88.0728 3.68269 88.131 3.80654C88.1892 3.9304 88.2044 4.06668 88.1747 4.19817C88.1451 4.32965 88.0718 4.45043 87.9643 4.54522C87.8568 4.64002 87.7198 4.70457 87.5706 4.73073C87.4215 4.75688 87.2669 4.74346 87.1264 4.69216C86.9859 4.64085 86.8659 4.55398 86.7814 4.44251C86.6969 4.33104 86.6518 4.19999 86.6518 4.06593C86.6518 3.88616 86.7328 3.71376 86.877 3.58664C87.0212 3.45953 87.2167 3.38811 87.4207 3.38811ZM81.2708 8.8098C81.4229 8.8098 81.5715 8.84956 81.698 8.92404C81.8244 8.99852 81.9229 9.10438 81.9811 9.22823C82.0393 9.35209 82.0545 9.48838 82.0249 9.61986C81.9952 9.75135 81.922 9.87212 81.8145 9.96692C81.7069 10.0617 81.5699 10.1263 81.4208 10.1524C81.2717 10.1786 81.1171 10.1652 80.9766 10.1138C80.8361 10.0625 80.716 9.97567 80.6315 9.8642C80.547 9.75273 80.5019 9.62169 80.5019 9.48763C80.5019 9.39861 80.5218 9.31047 80.5605 9.22823C80.5991 9.146 80.6557 9.07128 80.7271 9.00833C80.7985 8.94539 80.8833 8.89546 80.9766 8.8614C81.0699 8.82734 81.1698 8.8098 81.2708 8.8098Z" fill="white"/>
</g>
<path d="M2.05078 109V87.8623H15.1465V90.2354H4.6875V97.0176H14.6045V99.3613H4.6875V106.627H15.1465V109H2.05078ZM18.2373 109V93.7656H20.7861V95.9336H20.8447C21.665 94.5127 23.2178 93.4727 25.5322 93.4727C28.8721 93.4727 30.8057 95.6406 30.8057 99.1123V109H28.2568V99.5664C28.2568 97.0908 27.0996 95.7285 24.7559 95.7285C22.3535 95.7285 20.7861 97.4424 20.7861 100.035V109H18.2373ZM39.0088 109.293C36.2109 109.293 34.834 108.033 34.834 105.118V95.875H32.6074V93.7656H34.834V89.6494H37.4707V93.7656H40.3711V95.875H37.4707V105.104C37.4707 106.729 38.1885 107.184 39.5508 107.184C39.8584 107.184 40.1514 107.14 40.3711 107.125V109.19C40.0488 109.234 39.5068 109.293 39.0088 109.293ZM48.9404 109.293C44.5605 109.293 41.9238 106.231 41.9238 101.441V101.427C41.9238 96.71 44.6191 93.4727 48.7793 93.4727C52.9395 93.4727 55.4736 96.5635 55.4736 101.134V102.071H44.502C44.5605 105.206 46.2891 107.037 48.999 107.037C50.9326 107.037 52.2949 106.07 52.7344 104.767L52.7783 104.635H55.2832L55.2539 104.781C54.7559 107.301 52.2656 109.293 48.9404 109.293ZM48.7646 95.7285C46.5527 95.7285 44.8242 97.2373 44.5459 100.079H52.8809C52.6318 97.1201 50.9912 95.7285 48.7646 95.7285ZM58.0518 109V93.7656H60.6006V96.3438H60.6592C61.1719 94.5859 62.4902 93.4727 64.2041 93.4727C64.6436 93.4727 65.0244 93.5459 65.2295 93.5752V96.0508C65.0244 95.9775 64.4824 95.9043 63.8672 95.9043C61.8896 95.9043 60.6006 97.2812 60.6006 99.5957V109H58.0518ZM67.3096 114.127V93.7656H69.8584V96.3438H69.917C70.8691 94.5713 72.5684 93.4727 74.751 93.4727C78.6475 93.4727 81.2256 96.5781 81.2256 101.383V101.397C81.2256 106.202 78.6182 109.293 74.7949 109.293C72.6416 109.293 70.8691 108.209 69.917 106.451H69.8584V114.127H67.3096ZM74.2529 107.037C76.9482 107.037 78.6182 104.869 78.6182 101.397V101.383C78.6182 97.8818 76.9482 95.7285 74.2529 95.7285C71.6748 95.7285 69.8438 97.9697 69.8438 101.383V101.397C69.8438 104.796 71.6895 107.037 74.2529 107.037ZM83.8037 109V93.7656H86.3525V96.3438H86.4111C86.9238 94.5859 88.2422 93.4727 89.9561 93.4727C90.3955 93.4727 90.7764 93.5459 90.9814 93.5752V96.0508C90.7764 95.9775 90.2344 95.9043 89.6191 95.9043C87.6416 95.9043 86.3525 97.2812 86.3525 99.5957V109H83.8037ZM94.4971 91.1875C93.6182 91.1875 92.9004 90.4697 92.9004 89.5908C92.9004 88.6973 93.6182 87.9941 94.4971 87.9941C95.3906 87.9941 96.0938 88.6973 96.0938 89.5908C96.0938 90.4697 95.3906 91.1875 94.4971 91.1875ZM93.2227 109V93.7656H95.7715V109H93.2227ZM104.648 109.293C101.06 109.293 98.8916 107.462 98.584 104.737L98.5693 104.605H101.118L101.147 104.752C101.455 106.275 102.583 107.169 104.663 107.169C106.729 107.169 107.959 106.305 107.959 104.928V104.913C107.959 103.814 107.388 103.199 105.659 102.774L103.242 102.188C100.371 101.5 98.9795 100.167 98.9795 97.9697V97.9551C98.9795 95.333 101.279 93.4727 104.575 93.4727C107.915 93.4727 110.039 95.4209 110.229 97.9697L110.244 98.1602H107.812L107.798 98.0576C107.593 96.5781 106.465 95.5967 104.575 95.5967C102.729 95.5967 101.587 96.4902 101.587 97.8379V97.8525C101.587 98.8926 102.275 99.6104 103.96 100.021L106.377 100.606C109.453 101.354 110.566 102.569 110.566 104.737V104.752C110.566 107.418 108.047 109.293 104.648 109.293ZM119.487 109.293C115.107 109.293 112.471 106.231 112.471 101.441V101.427C112.471 96.71 115.166 93.4727 119.326 93.4727C123.486 93.4727 126.021 96.5635 126.021 101.134V102.071H115.049C115.107 105.206 116.836 107.037 119.546 107.037C121.479 107.037 122.842 106.07 123.281 104.767L123.325 104.635H125.83L125.801 104.781C125.303 107.301 122.812 109.293 119.487 109.293ZM119.312 95.7285C117.1 95.7285 115.371 97.2373 115.093 100.079H123.428C123.179 97.1201 121.538 95.7285 119.312 95.7285ZM133.462 109L141.328 87.8623H143.936L151.787 109H149.019L146.88 102.95H138.369L136.23 109H133.462ZM142.603 91.0264L139.175 100.709H146.089L142.661 91.0264H142.603ZM153.823 114.127V93.7656H156.372V96.3438H156.431C157.383 94.5713 159.082 93.4727 161.265 93.4727C165.161 93.4727 167.739 96.5781 167.739 101.383V101.397C167.739 106.202 165.132 109.293 161.309 109.293C159.155 109.293 157.383 108.209 156.431 106.451H156.372V114.127H153.823ZM160.767 107.037C163.462 107.037 165.132 104.869 165.132 101.397V101.383C165.132 97.8818 163.462 95.7285 160.767 95.7285C158.188 95.7285 156.357 97.9697 156.357 101.383V101.397C156.357 104.796 158.203 107.037 160.767 107.037ZM170.317 114.127V93.7656H172.866V96.3438H172.925C173.877 94.5713 175.576 93.4727 177.759 93.4727C181.655 93.4727 184.233 96.5781 184.233 101.383V101.397C184.233 106.202 181.626 109.293 177.803 109.293C175.649 109.293 173.877 108.209 172.925 106.451H172.866V114.127H170.317ZM177.261 107.037C179.956 107.037 181.626 104.869 181.626 101.397V101.383C181.626 97.8818 179.956 95.7285 177.261 95.7285C174.683 95.7285 172.852 97.9697 172.852 101.383V101.397C172.852 104.796 174.697 107.037 177.261 107.037ZM192.217 109.293C188.628 109.293 186.46 107.462 186.152 104.737L186.138 104.605H188.687L188.716 104.752C189.023 106.275 190.151 107.169 192.231 107.169C194.297 107.169 195.527 106.305 195.527 104.928V104.913C195.527 103.814 194.956 103.199 193.228 102.774L190.811 102.188C187.939 101.5 186.548 100.167 186.548 97.9697V97.9551C186.548 95.333 188.848 93.4727 192.144 93.4727C195.483 93.4727 197.607 95.4209 197.798 97.9697L197.812 98.1602H195.381L195.366 98.0576C195.161 96.5781 194.033 95.5967 192.144 95.5967C190.298 95.5967 189.155 96.4902 189.155 97.8379V97.8525C189.155 98.8926 189.844 99.6104 191.528 100.021L193.945 100.606C197.021 101.354 198.135 102.569 198.135 104.737V104.752C198.135 107.418 195.615 109.293 192.217 109.293Z" fill="white" fill-opacity="0.7"/>
<defs>
<clipPath id="clip0_58_10">
<rect width="80" height="60" fill="white" transform="translate(60)"/>
</clipPath>
</defs>
</svg>
