<svg width="143" height="116" viewBox="0 0 143 116" fill="none" xmlns="http://www.w3.org/2000/svg">
<g clip-path="url(#clip0_58_12)">
<path d="M72 20.1257C49.9082 20.1257 32 -1.89738 32 20.1257C32 30.7013 36.2143 40.8438 43.7157 48.3219C51.2172 55.8 61.3913 60.0012 72 60.0012C82.6087 60.0012 92.7828 55.8 100.284 48.3219C107.786 40.8438 112 30.7013 112 20.1257C112 -1.89738 94.0908 20.1257 72 20.1257Z" fill="#A596EA"/>
<path d="M77.2012 32.0537L77.2502 32.0341C77.3993 31.9667 77.6287 31.8787 77.7523 31.8308L77.8504 31.7907C78.2776 31.6312 78.657 31.3656 78.9527 31.0192C79.2483 30.6728 79.4505 30.257 79.5401 29.811C79.6851 28.7471 79.5196 27.664 79.0635 26.6914C81.5762 26.5469 84.0922 26.9128 86.4588 27.7668C86.843 27.8955 87.2451 27.9631 87.6503 27.9672C88.3269 27.9795 88.9829 27.7349 89.4852 27.2829C89.8393 26.9478 90.0984 26.5254 90.2362 26.0585C90.3739 25.5915 90.3855 25.0966 90.2697 24.6237C90.1319 24.0718 89.8464 23.5674 89.4437 23.1645C89.0409 22.7617 88.536 22.4753 87.9828 22.3361C85.8586 21.7006 81.5103 20.4013 76.7422 22.7349C76.2744 22.1014 75.7723 21.4748 75.2535 20.8696L83.7011 13.8845C83.7155 13.8727 83.7292 13.86 83.7423 13.8463C84.0144 13.5745 84.1672 13.2062 84.1672 12.8223C84.1672 12.4383 84.0144 12.07 83.7423 11.7982L81.117 9.18501C80.8444 8.91409 80.4752 8.76196 80.0903 8.76196C79.7053 8.76196 79.3361 8.91409 79.0635 9.18501C79.0497 9.19869 79.038 9.21238 79.0252 9.22607L76.4519 12.3134C76.3479 12.4379 76.2977 12.5984 76.3124 12.7598C76.3271 12.9211 76.4055 13.07 76.5304 13.1737C76.6552 13.2774 76.8163 13.3275 76.9781 13.3128C77.14 13.2981 77.2893 13.22 77.3934 13.0955L79.9431 10.0375C79.9872 10.0015 80.0431 9.98288 80.1 9.98522C80.157 9.98756 80.2111 10.0107 80.2521 10.0502L82.8773 12.6634C82.9171 12.704 82.9404 12.7578 82.9428 12.8145C82.9451 12.8711 82.9264 12.9267 82.8901 12.9704L74.4504 19.9575C74.215 19.7007 73.9786 19.4498 73.7413 19.2047L73.7266 19.1901C73.4684 18.9417 73.2033 18.6937 72.9313 18.4461L75.5311 15.3245C75.5826 15.2629 75.6214 15.1918 75.6453 15.1152C75.6693 15.0386 75.6779 14.958 75.6706 14.8782C75.6633 14.7983 75.6403 14.7206 75.6029 14.6496C75.5655 14.5785 75.5144 14.5156 75.4526 14.4642C75.3908 14.4128 75.3194 14.3741 75.2426 14.3503C75.1658 14.3264 75.085 14.3179 75.0049 14.3251C74.9247 14.3324 74.8468 14.3553 74.7756 14.3926C74.7043 14.4299 74.6411 14.4808 74.5896 14.5424L72.0114 17.6317C71.4455 17.1517 70.862 16.6864 70.2717 16.2503C72.9332 11.5773 71.8408 7.14274 71.3034 4.97338C71.1916 4.4159 70.9302 3.89911 70.547 3.47814C70.1637 3.05717 69.673 2.74782 69.1272 2.58308C68.6584 2.44433 68.1612 2.43157 67.6859 2.54608C67.2106 2.66059 66.774 2.89831 66.4205 3.23516C66.0468 3.6248 65.7893 4.11051 65.6768 4.63786C65.5644 5.16521 65.6016 5.71334 65.7841 6.22083C66.5511 8.72915 66.7777 11.3707 66.449 13.9725C65.4081 13.4521 64.2354 13.2527 63.0803 13.3996C62.6331 13.4888 62.216 13.6902 61.8685 13.9847C61.5211 14.2793 61.2546 14.6573 61.0945 15.083L61.0543 15.1808C61.0072 15.304 60.9179 15.5337 60.8503 15.6813C60.8424 15.697 60.8365 15.7136 60.8297 15.7302L60.054 17.9015V17.9084L58.7448 21.5813V21.595L56.8618 26.8684L56.856 26.882L56.2852 28.4834L53.7109 35.6944C53.2382 37.023 53.3795 38.1385 54.0973 38.7671C54.3064 38.9888 54.5613 39.1624 54.8445 39.2761C55.1276 39.3897 55.4322 39.4405 55.737 39.425C56.2299 39.4157 56.7177 39.3232 57.1796 39.1513L64.4023 36.5918L66.0243 36.018L66.0381 36.0121L71.3338 34.137H71.3494L75.025 32.8338H75.0319L77.2012 32.0537ZM87.6405 23.5053C87.9871 23.5807 88.3057 23.7508 88.5609 23.9965C88.816 24.2422 88.9975 24.5538 89.0851 24.8965C89.1498 25.1596 89.1449 25.435 89.0708 25.6956C88.9967 25.9563 88.856 26.1933 88.6624 26.3834C88.4067 26.5806 88.1024 26.7053 87.7816 26.7445C87.4607 26.7838 87.1352 26.736 86.8393 26.6063C84.1741 25.6529 81.3358 25.2767 78.5133 25.5026C78.1937 24.9002 77.8428 24.3147 77.462 23.7487C81.7427 21.7426 85.6939 22.9236 87.6385 23.5053H87.6405ZM66.9668 5.90799C66.8519 5.60743 66.8204 5.28154 66.8756 4.96463C66.9308 4.64773 67.0707 4.35152 67.2806 4.1072C67.4811 3.92346 67.7262 3.79494 67.9917 3.73425C68.2572 3.67357 68.534 3.68283 68.7948 3.76112C69.1337 3.86531 69.4368 4.06153 69.6701 4.3278C69.9034 4.59406 70.0577 4.91984 70.1157 5.26862C70.6061 7.26396 71.6103 11.3299 69.2675 15.5455C68.7134 15.174 68.1593 14.8357 67.613 14.5414C68.0416 11.6525 67.8212 8.70464 66.9678 5.91093L66.9668 5.90799ZM61.9751 16.1731C62.0565 15.9932 62.1467 15.7576 62.1968 15.6276L62.2232 15.5591C62.3061 15.3167 62.4519 15.1005 62.6459 14.9325C62.8399 14.7646 63.0751 14.6509 63.3275 14.603C64.482 14.5219 65.6332 14.8018 66.6206 15.4037C66.6518 15.4226 66.6846 15.4386 66.7187 15.4516C67.5364 15.8752 68.3229 16.3561 69.0723 16.8907C69.0943 16.9096 69.1175 16.9269 69.1419 16.9425H69.1508C70.4678 17.8884 71.7133 18.9294 72.8773 20.0572C73.2408 20.4326 73.5893 20.8074 73.9228 21.1815V21.1874L73.9384 21.204C74.6852 22.0408 75.3857 22.9173 76.0371 23.8299C76.0558 23.8621 76.0775 23.8925 76.1018 23.9208C76.6561 24.6953 77.1505 25.5107 77.5807 26.36C77.5949 26.3982 77.613 26.4349 77.6346 26.4695C78.1847 27.4048 78.4336 28.4858 78.3476 29.5666C78.2995 29.8183 78.1853 30.0529 78.0166 30.2462C77.848 30.4396 77.6309 30.585 77.3875 30.6674L77.3188 30.6938C77.1884 30.7437 76.9521 30.8346 76.7716 30.9148L75.2349 31.4593C74.4239 28.8696 72.1614 26.0481 70.813 24.524C70.7056 24.4027 70.5542 24.3288 70.3922 24.3187C70.2302 24.3086 70.0708 24.3631 69.949 24.4702C69.8273 24.5773 69.7532 24.7282 69.7431 24.8897C69.733 25.0513 69.7877 25.2102 69.8951 25.3315C71.7045 27.2174 73.1264 29.4379 74.0806 31.8679L71.4514 32.7996C70.1503 30.4236 68.5146 28.2455 66.5941 26.3316L66.5784 26.316C64.6574 24.4024 62.4715 22.7728 60.0873 21.4767L61.0219 18.8577C63.5905 19.8765 65.9313 21.3923 67.9092 23.3176C67.9688 23.3713 68.0385 23.4128 68.1142 23.4397C68.1899 23.4666 68.2702 23.4784 68.3505 23.4743C68.4308 23.4703 68.5095 23.4505 68.5821 23.4162C68.6547 23.3818 68.7198 23.3335 68.7737 23.2741C68.8276 23.2147 68.8692 23.1452 68.8962 23.0697C68.9232 22.9943 68.935 22.9142 68.9309 22.8342C68.9268 22.7542 68.907 22.6757 68.8726 22.6033C68.8381 22.531 68.7897 22.466 68.73 22.4123C66.6353 20.376 64.1542 18.7766 61.4318 17.708L61.9751 16.1731ZM66.0587 34.708C64.9947 33.1783 63.8049 31.7395 62.5017 30.4064L62.4861 30.3907C61.1487 29.0923 59.7054 27.9069 58.1711 26.8468L59.6735 22.643C64.1275 25.1145 67.8016 28.7758 70.2825 33.2151L66.0587 34.708ZM64.013 35.4334L61.8417 36.2018C61.0865 35.2478 60.2833 34.3325 59.4352 33.4595L59.4204 33.4449C58.5441 32.5996 57.6253 31.7992 56.6677 31.0467L57.4316 28.9038L57.7415 28.0356C59.1183 29.0102 60.4179 30.0888 61.6289 31.2618C62.8056 32.4681 63.8875 33.7627 64.8652 35.1342L64.013 35.4334ZM56.7667 38.0055C55.9341 38.2988 55.2731 38.2783 55.0015 37.9488C54.9767 37.9189 54.9491 37.8914 54.9191 37.8667C54.5886 37.5949 54.568 36.937 54.8632 36.1069L56.2362 32.2649C57.0207 32.8984 57.8053 33.5866 58.5663 34.3179C59.2998 35.0755 59.9902 35.8537 60.6257 36.6378L56.7667 38.0055Z" fill="white"/>
<path d="M83.0451 4.9922L84.5906 6.0803C84.6063 6.122 84.6175 6.16527 84.624 6.20934L84.9535 7.99058C84.9607 8.15247 85.011 8.30954 85.0992 8.44562C85.1875 8.58171 85.3105 8.6919 85.4556 8.76486C85.5402 8.79962 85.6309 8.81756 85.7224 8.81766C85.9653 8.79934 86.1957 8.70333 86.3794 8.54392L87.8112 7.44507C87.8569 7.42161 87.907 7.40795 87.9583 7.40498L89.7549 7.64353C89.9161 7.68271 90.0847 7.67875 90.2439 7.63206C90.403 7.58536 90.5469 7.49758 90.6611 7.37761C90.7513 7.24168 90.8035 7.08422 90.8123 6.92148C90.8211 6.75873 90.7861 6.5966 90.7111 6.4518L90.1011 4.74388C90.0851 4.70353 90.0736 4.66157 90.0668 4.61874L90.8582 2.90203C90.9465 2.76585 90.9974 2.609 91.006 2.4471C91.0146 2.28519 90.9806 2.12386 90.9072 1.97914C90.8082 1.84935 90.6764 1.74798 90.5254 1.68531C90.3743 1.62264 90.2093 1.60091 90.0472 1.62231L88.1525 1.65946L86.7884 0.34455C86.6809 0.218128 86.5419 0.122125 86.3855 0.066182C86.229 0.0102393 86.0605 -0.00367303 85.8969 0.0258427C85.7405 0.0815525 85.6016 0.177262 85.494 0.303377C85.3865 0.429492 85.314 0.581582 85.284 0.7444L84.7672 2.55692L83.1 3.47101C82.9494 3.53359 82.818 3.63471 82.7192 3.76415C82.6203 3.89358 82.5575 4.04674 82.5371 4.20814C82.5451 4.37121 82.5959 4.52932 82.6846 4.6666C82.7732 4.80387 82.8966 4.91549 83.0422 4.99024L83.0451 4.9922ZM85.4154 3.60005C85.5482 3.53492 85.6644 3.44051 85.7551 3.32397C85.8458 3.20743 85.9087 3.07183 85.9391 2.92744L86.3216 1.58809L87.2846 2.5188L87.3209 2.55399C87.4181 2.66295 87.5387 2.74883 87.6736 2.80533C87.8085 2.86183 87.9544 2.88752 88.1005 2.88052H88.1192L89.5411 2.85314L88.9527 4.12406C88.8829 4.28743 88.847 4.46317 88.847 4.64074C88.847 4.81831 88.8829 4.99404 88.9527 5.15742L89.3842 6.36479L88.1309 6.19859C87.7556 6.15774 87.3785 6.25739 87.0728 6.47819L86.0666 7.25052L85.8332 5.99036C85.8104 5.81396 85.7526 5.64384 85.6632 5.48993C85.5738 5.33602 85.4546 5.20138 85.3125 5.09387L84.169 4.2883L85.4154 3.60005Z" fill="white"/>
<path d="M74.3938 5.90488L75.6912 6.65374C75.8599 6.74997 76.0509 6.80053 76.2453 6.80039C76.4377 6.79633 76.6267 6.74976 76.7989 6.66405C76.971 6.57834 77.1219 6.45561 77.2407 6.30473L79.6345 3.43246C79.7321 3.314 79.8023 3.17564 79.8402 3.02715C79.8782 2.87865 79.883 2.72366 79.8542 2.57312C79.8221 2.40011 79.7529 2.23604 79.6513 2.09213C79.5498 1.94821 79.4183 1.82783 79.2658 1.73921L76.8798 0.365638C76.7256 0.278257 76.5543 0.225074 76.3777 0.20972C76.201 0.194367 76.023 0.217204 75.856 0.276673C75.712 0.327208 75.5809 0.408524 75.4718 0.51492C75.3627 0.621315 75.2783 0.750215 75.2244 0.892579L73.9201 4.3876C73.803 4.65458 73.7864 4.95473 73.8734 5.23292C73.9604 5.51111 74.1452 5.74866 74.3938 5.90195V5.90488ZM75.0665 4.8158L76.3169 1.45472L78.597 2.76767L76.2973 5.52752C76.2846 5.54313 76.2701 5.55723 76.2541 5.56955L75.0518 4.87544C75.0547 4.85502 75.06 4.835 75.0675 4.8158H75.0665Z" fill="white"/>
<path d="M92.9068 11.2507C92.7735 11.0953 92.6081 10.9705 92.4219 10.8848C92.2357 10.7991 92.0331 10.7545 91.828 10.7541H88.2142C88.0091 10.7546 87.8065 10.7993 87.6203 10.8852C87.4341 10.9711 87.2687 11.0961 87.1355 11.2517C87.0219 11.3814 86.9386 11.5346 86.8917 11.7003C86.8447 11.866 86.8352 12.04 86.8638 12.2098L87.6915 17.0344C87.7259 17.37 87.8816 17.6818 88.1295 17.9115C88.3774 18.1412 88.7007 18.2732 89.039 18.2828H91.0004C91.3389 18.2731 91.6625 18.1411 91.9106 17.9112C92.1587 17.6813 92.3144 17.3693 92.3488 17.0334L93.1745 12.2098C93.2039 12.0401 93.1951 11.8661 93.1488 11.7003C93.1025 11.5344 93.0198 11.3809 92.9068 11.2507ZM91.1416 16.8232C91.1219 16.9366 91.0621 17.0578 91.0004 17.0578H89.039C88.9694 17.0578 88.9144 16.92 88.8978 16.8232L88.075 12.0328C88.1118 11.9974 88.1602 11.9766 88.2113 11.9742H91.8241C91.8751 11.9763 91.9235 11.9968 91.9604 12.0318L91.1416 16.8232Z" fill="white"/>
<path d="M54.8524 19.0942C54.966 19.0941 55.0791 19.0793 55.1888 19.0502L57.0796 18.5438C57.405 18.4484 57.6842 18.2378 57.8648 17.9515C58.0454 17.6653 58.1149 17.3231 58.0602 16.9894L57.6042 12.114C57.5874 11.9423 57.5326 11.7766 57.4438 11.6286C57.3549 11.4807 57.2342 11.3543 57.0903 11.2585C56.9215 11.1443 56.73 11.0677 56.5287 11.0339C56.3275 11.0002 56.1213 11.0101 55.9243 11.063L52.436 11.9947C52.2383 12.0479 52.0544 12.143 51.897 12.2736C51.7396 12.4042 51.6123 12.5672 51.524 12.7514C51.4476 12.9062 51.4068 13.0759 51.4044 13.2484C51.402 13.4209 51.4382 13.5917 51.5103 13.7486L53.5609 18.1909C53.665 18.4498 53.8423 18.673 54.0712 18.8334C54.3001 18.9937 54.5708 19.0843 54.8505 19.0942H54.8524ZM52.7498 13.1698L56.2401 12.2372C56.2894 12.226 56.341 12.2333 56.3852 12.2577L56.8383 17.1028C56.8491 17.2162 56.8236 17.3482 56.7618 17.3648L54.8711 17.8712C54.8034 17.8898 54.7141 17.7735 54.6749 17.6757L52.6351 13.2558C52.6616 13.2129 52.7027 13.181 52.7508 13.1659L52.7498 13.1698Z" fill="white"/>
<path d="M82.3079 36.6212L78.6176 34.0158C78.3668 33.811 78.0495 33.7047 77.7255 33.7167C77.4015 33.7288 77.0931 33.8585 76.8583 34.0813L75.5834 35.3522C75.3601 35.586 75.23 35.893 75.2178 36.2156C75.2055 36.5382 75.3118 36.8542 75.5167 37.1041L78.1312 40.782C78.2273 40.9171 78.3523 41.0292 78.4971 41.1104C78.6419 41.1915 78.803 41.2397 78.9687 41.2512C79.0053 41.2512 79.0419 41.2512 79.0786 41.2512C79.4357 41.2505 79.7784 41.1101 80.0327 40.8602L82.3864 38.5139C82.5246 38.3757 82.6312 38.2094 82.6989 38.0263C82.7666 37.8432 82.7938 37.6477 82.7787 37.4531C82.7668 37.2884 82.7184 37.1284 82.637 36.9845C82.5556 36.8406 82.4432 36.7165 82.3079 36.6212ZM81.5234 37.6526L79.1697 39.9989C79.1504 40.0163 79.1267 40.0281 79.1011 40.0331L76.516 36.3973C76.4716 36.3473 76.4481 36.2822 76.4503 36.2155L77.7252 34.9445H77.736C77.7988 34.9512 77.8583 34.9756 77.9076 35.0149L81.5548 37.589C81.5494 37.6115 81.5387 37.6323 81.5234 37.6496V37.6526Z" fill="white"/>
<path d="M55.3744 5.02486C55.371 5.08126 55.3574 5.13658 55.3342 5.18812L54.6712 7.04562C54.594 7.19393 54.5576 7.36002 54.5656 7.52694C54.5737 7.69387 54.6261 7.85568 54.7173 7.99587C54.8357 8.12035 54.9854 8.21094 55.1508 8.25822C55.3162 8.3055 55.4913 8.30775 55.6578 8.26472L57.5996 8.00565C57.668 8.00716 57.7352 8.02457 57.7957 8.05648L59.355 9.25701C59.5431 9.42122 59.7794 9.52033 60.0287 9.53955C60.1219 9.53935 60.2142 9.52108 60.3004 9.48578C60.4493 9.40954 60.5755 9.29545 60.6661 9.15503C60.7566 9.01461 60.8084 8.85284 60.8162 8.68608L61.1722 6.75428C61.1769 6.69568 61.194 6.63873 61.2222 6.58711L62.9119 5.39636C63.0626 5.3203 63.1904 5.20576 63.2822 5.06441C63.3741 4.92307 63.4266 4.75998 63.4346 4.59177C63.4115 4.4257 63.345 4.26862 63.2417 4.13631C63.1384 4.004 63.002 3.90112 62.8462 3.83802L61.03 2.83399L60.4612 0.846473C60.4316 0.677892 60.3582 0.520001 60.2482 0.388585C60.1382 0.257169 59.9956 0.156834 59.8345 0.0976097C59.6653 0.0681132 59.4912 0.0834744 59.3297 0.142154C59.1683 0.200834 59.0252 0.300772 58.9147 0.431959L57.4574 1.8417L57.423 1.87592L55.344 1.83681C55.1769 1.81372 55.0067 1.835 54.8505 1.89852C54.6943 1.96203 54.5577 2.06552 54.4545 2.19853C54.3773 2.34861 54.3416 2.51648 54.3511 2.68487C54.3606 2.85326 54.4149 3.01609 54.5085 3.15661L55.3744 5.02486ZM57.4417 3.09306C57.5962 3.10501 57.7513 3.08073 57.8947 3.02216C58.0381 2.96359 58.1657 2.87236 58.2674 2.75578L59.4158 1.64617L59.8551 3.18301C59.886 3.33358 59.9513 3.47504 60.0458 3.59642C60.1404 3.71781 60.2617 3.81586 60.4004 3.88299L61.8263 4.66509L60.519 5.58602C60.3685 5.69781 60.2421 5.83888 60.1478 6.00069C60.0534 6.1625 59.9929 6.3417 59.9699 6.52747L59.7021 7.97827L58.542 7.0857C58.2669 6.8898 57.9377 6.7836 57.5996 6.78166C57.5455 6.78144 57.4914 6.78471 57.4377 6.79143L55.9883 6.98696L56.4855 5.59775C56.559 5.4264 56.5968 5.24199 56.5968 5.05565C56.5968 4.86931 56.559 4.68491 56.4855 4.51356L55.8157 3.06276L57.4417 3.09306Z" fill="white"/>
<path d="M92.3623 31.7399L90.3372 31.2404L89.2712 29.466C89.199 29.3107 89.0872 29.1771 88.9469 29.0785C88.8066 28.9798 88.6429 28.9196 88.4719 28.9038C88.301 28.919 88.137 28.9786 87.9964 29.0767C87.8558 29.1749 87.7435 29.3081 87.6707 29.463L86.6283 31.1983L86.6038 31.2384L84.5767 31.738C84.4047 31.744 84.239 31.8033 84.1023 31.9076C83.9657 32.0118 83.865 32.1559 83.8143 32.3198C83.7635 32.4837 83.7651 32.6592 83.819 32.8221C83.8728 32.985 83.9762 33.1272 84.1148 33.2288L85.4387 34.8175C85.4488 34.8737 85.4488 34.9314 85.4387 34.9876L85.2818 36.9517C85.2452 37.1144 85.2526 37.2839 85.303 37.4429C85.3535 37.6019 85.4453 37.7448 85.5691 37.857C85.7159 37.9472 85.8843 37.9966 86.0567 38.0002C86.2291 38.0038 86.3993 37.9615 86.5498 37.8775L88.3611 37.1247C88.4291 37.108 88.5001 37.108 88.568 37.1247L90.3892 37.8804C90.5543 37.9558 90.7324 37.9987 90.9138 38.0065C91.0754 38.0086 91.2331 37.957 91.362 37.8599C91.4868 37.7483 91.5797 37.6057 91.6314 37.4467C91.6831 37.2877 91.6916 37.118 91.6562 36.9546L91.4973 34.9896C91.4863 34.9334 91.4863 34.8756 91.4973 34.8195L92.8232 33.2308C92.9485 33.1185 93.0417 32.9751 93.0934 32.8152C93.1451 32.6554 93.1534 32.4847 93.1174 32.3206C93.0522 32.1656 92.9473 32.0303 92.8133 31.9282C92.6793 31.8261 92.5207 31.7609 92.3535 31.739L92.3623 31.7399ZM90.5618 34.0383C90.4457 34.1849 90.3607 34.3535 90.3119 34.5338C90.2632 34.7141 90.2518 34.9025 90.2784 35.0873L90.398 36.5616L89.0437 35.9995C88.6748 35.8574 88.2661 35.8574 87.8973 35.9995L86.5439 36.5616L86.6616 35.0863C86.6881 34.9018 86.6768 34.7139 86.6283 34.5339C86.5797 34.3539 86.495 34.1857 86.3792 34.0393L85.3514 32.8056L86.9342 32.4145C87.0872 32.3862 87.2314 32.3227 87.3554 32.229C87.4793 32.1353 87.5796 32.014 87.6482 31.8748L88.47 30.5061L89.2634 31.8269L89.2918 31.8748C89.3603 32.0136 89.4604 32.1345 89.584 32.228C89.7075 32.3215 89.8513 32.3851 90.0038 32.4135L91.5895 32.8046L90.5618 34.0383Z" fill="white"/>
</g>
<path d="M2.05078 109V87.8623H15.1465V90.2354H4.6875V97.0176H14.6045V99.3613H4.6875V106.627H15.1465V109H2.05078ZM22.5293 109L16.9189 93.7656H19.5996L23.8037 106.29H23.8623L28.0811 93.7656H30.7324L25.1367 109H22.5293ZM38.4229 109.293C34.043 109.293 31.4062 106.231 31.4062 101.441V101.427C31.4062 96.71 34.1016 93.4727 38.2617 93.4727C42.4219 93.4727 44.9561 96.5635 44.9561 101.134V102.071H33.9844C34.043 105.206 35.7715 107.037 38.4814 107.037C40.415 107.037 41.7773 106.07 42.2168 104.767L42.2607 104.635H44.7656L44.7363 104.781C44.2383 107.301 41.748 109.293 38.4229 109.293ZM38.2471 95.7285C36.0352 95.7285 34.3066 97.2373 34.0283 100.079H42.3633C42.1143 97.1201 40.4736 95.7285 38.2471 95.7285ZM47.5342 109V93.7656H50.083V95.9336H50.1416C50.9619 94.5127 52.5146 93.4727 54.8291 93.4727C58.1689 93.4727 60.1025 95.6406 60.1025 99.1123V109H57.5537V99.5664C57.5537 97.0908 56.3965 95.7285 54.0527 95.7285C51.6504 95.7285 50.083 97.4424 50.083 100.035V109H47.5342ZM68.3057 109.293C65.5078 109.293 64.1309 108.033 64.1309 105.118V95.875H61.9043V93.7656H64.1309V89.6494H66.7676V93.7656H69.668V95.875H66.7676V105.104C66.7676 106.729 67.4854 107.184 68.8477 107.184C69.1553 107.184 69.4482 107.14 69.668 107.125V109.19C69.3457 109.234 68.8037 109.293 68.3057 109.293ZM77.2705 109L85.1367 87.8623H87.7441L95.5957 109H92.8271L90.6885 102.95H82.1777L80.0391 109H77.2705ZM86.4111 91.0264L82.9834 100.709H89.8975L86.4697 91.0264H86.4111ZM97.6318 114.127V93.7656H100.181V96.3438H100.239C101.191 94.5713 102.891 93.4727 105.073 93.4727C108.97 93.4727 111.548 96.5781 111.548 101.383V101.397C111.548 106.202 108.94 109.293 105.117 109.293C102.964 109.293 101.191 108.209 100.239 106.451H100.181V114.127H97.6318ZM104.575 107.037C107.271 107.037 108.94 104.869 108.94 101.397V101.383C108.94 97.8818 107.271 95.7285 104.575 95.7285C101.997 95.7285 100.166 97.9697 100.166 101.383V101.397C100.166 104.796 102.012 107.037 104.575 107.037ZM114.126 114.127V93.7656H116.675V96.3438H116.733C117.686 94.5713 119.385 93.4727 121.567 93.4727C125.464 93.4727 128.042 96.5781 128.042 101.383V101.397C128.042 106.202 125.435 109.293 121.611 109.293C119.458 109.293 117.686 108.209 116.733 106.451H116.675V114.127H114.126ZM121.069 107.037C123.765 107.037 125.435 104.869 125.435 101.397V101.383C125.435 97.8818 123.765 95.7285 121.069 95.7285C118.491 95.7285 116.66 97.9697 116.66 101.383V101.397C116.66 104.796 118.506 107.037 121.069 107.037ZM136.025 109.293C132.437 109.293 130.269 107.462 129.961 104.737L129.946 104.605H132.495L132.524 104.752C132.832 106.275 133.96 107.169 136.04 107.169C138.105 107.169 139.336 106.305 139.336 104.928V104.913C139.336 103.814 138.765 103.199 137.036 102.774L134.619 102.188C131.748 101.5 130.356 100.167 130.356 97.9697V97.9551C130.356 95.333 132.656 93.4727 135.952 93.4727C139.292 93.4727 141.416 95.4209 141.606 97.9697L141.621 98.1602H139.189L139.175 98.0576C138.97 96.5781 137.842 95.5967 135.952 95.5967C134.106 95.5967 132.964 96.4902 132.964 97.8379V97.8525C132.964 98.8926 133.652 99.6104 135.337 100.021L137.754 100.606C140.83 101.354 141.943 102.569 141.943 104.737V104.752C141.943 107.418 139.424 109.293 136.025 109.293Z" fill="white" fill-opacity="0.7"/>
<defs>
<clipPath id="clip0_58_12">
<rect width="80" height="60" fill="white" transform="translate(32)"/>
</clipPath>
</defs>
</svg>
