<svg width="146" height="116" viewBox="0 0 146 116" fill="none" xmlns="http://www.w3.org/2000/svg">
<g clip-path="url(#clip0_58_6)">
<path d="M73 23.9044C50.9082 23.9044 33 3.96903 33 23.9044C33 33.4776 37.2143 42.6586 44.7157 49.4278C52.2172 56.1971 62.3913 60 73 60C83.6087 60 93.7828 56.1971 101.284 49.4278C108.786 42.6586 113 33.4776 113 23.9044C113 3.96903 95.0908 23.9044 73 23.9044Z" fill="#D6A1D5"/>
<path d="M98.1711 22.454H87.9721V20.8327C87.971 20.5412 87.8419 20.2618 87.6131 20.056C87.3842 19.8501 87.0743 19.7345 86.7511 19.7345H78.5134C78.1903 19.735 77.8805 19.851 77.652 20.0572C77.4235 20.2634 77.2949 20.5429 77.2944 20.8345V22.4558H75.9587V16.4204C75.9582 15.8515 75.7076 15.3061 75.262 14.9037C74.8163 14.5014 74.212 14.275 73.5816 14.2743H70.6738V2.58938C70.6733 2.2485 70.523 1.92171 70.2559 1.68067C69.9888 1.43963 69.6267 1.30401 69.2489 1.30354H68.1378V1.01151C68.1375 0.743312 68.0194 0.486168 67.8092 0.296525C67.599 0.106882 67.3141 0.000237817 67.0169 3.48235e-06H61.4417C61.2942 -0.000345602 61.1481 0.0255537 61.0117 0.0762194C60.8753 0.126885 60.7513 0.201323 60.6469 0.295273C60.5424 0.389223 60.4595 0.500841 60.4028 0.623741C60.3462 0.746641 60.317 0.87841 60.3169 1.01151V1.30354H59.2097C58.8319 1.30401 58.4698 1.43963 58.2027 1.68067C57.9356 1.92171 57.7853 2.2485 57.7848 2.58938V14.2708H54.0091C53.3786 14.2713 52.774 14.4975 52.3281 14.8999C51.8822 15.3022 51.6315 15.8478 51.631 16.4168V23.0973C51.631 23.2696 51.7068 23.4348 51.8418 23.5567C51.9768 23.6785 52.1599 23.7469 52.3508 23.7469C52.5417 23.7469 52.7248 23.6785 52.8598 23.5567C52.9948 23.4348 53.0706 23.2696 53.0706 23.0973V16.4186C53.0711 16.1942 53.1702 15.9791 53.3461 15.8206C53.5221 15.662 53.7605 15.5728 54.0091 15.5726H73.5806C73.8291 15.5728 74.0675 15.662 74.2432 15.8206C74.419 15.9792 74.5178 16.1943 74.5181 16.4186V39.1053C74.5176 39.3295 74.4186 39.5445 74.2429 39.703C74.0672 39.8616 73.8291 39.9509 73.5806 39.9513H54.0091C53.7605 39.9511 53.5221 39.8619 53.3461 39.7033C53.1702 39.5447 53.0711 39.3297 53.0706 39.1053V25.6947C53.0706 25.5224 52.9948 25.3572 52.8598 25.2354C52.7248 25.1136 52.5417 25.0451 52.3508 25.0451C52.1599 25.0451 51.9768 25.1136 51.8418 25.2354C51.7068 25.3572 51.631 25.5224 51.631 25.6947V39.1053C51.6315 39.6743 51.8822 40.2199 52.3281 40.6223C52.774 41.0246 53.3786 41.2509 54.0091 41.2513H55.4723V43.5973C55.4723 43.7696 55.5481 43.9348 55.6831 44.0567C55.8181 44.1785 56.0012 44.2469 56.1921 44.2469C56.383 44.2469 56.5661 44.1785 56.7011 44.0567C56.8361 43.9348 56.9119 43.7696 56.9119 43.5973V41.2504H65.0094V42.3646C65.0102 42.8638 65.2303 43.3424 65.6215 43.6954C66.0127 44.0485 66.5431 44.2471 67.0963 44.2478H98.1711C98.7244 44.2471 99.2547 44.0485 99.6459 43.6954C100.037 43.3424 100.257 42.8638 100.258 42.3646V24.3363C100.257 23.8372 100.037 23.3588 99.6456 23.006C99.2544 22.6532 98.7242 22.4547 98.1711 22.454ZM61.7604 1.29912H66.6982V2.60708H61.7604V1.29912ZM59.2244 2.60266H60.3169V2.89469C60.3171 3.16289 60.4353 3.42003 60.6455 3.60968C60.8556 3.79932 61.1406 3.90596 61.4378 3.9062H67.013C67.3102 3.90596 67.5951 3.79932 67.8053 3.60968C68.0154 3.42003 68.1336 3.16289 68.1339 2.89469V2.60266H69.2303V14.2735H59.2244V2.60266ZM92.9735 23.7531V42.8566H91.531V23.7531H92.9735ZM75.9587 39.1053V23.7531H82.6274C82.8183 23.7531 83.0014 23.6847 83.1363 23.5628C83.2713 23.441 83.3472 23.2758 83.3472 23.1035C83.3472 22.9313 83.2713 22.7661 83.1363 22.6442C83.0014 22.5224 82.8183 22.454 82.6274 22.454H78.7331V21.0319H86.5305V22.454H85.5115C85.3206 22.454 85.1375 22.5224 85.0025 22.6442C84.8675 22.7661 84.7917 22.9313 84.7917 23.1035C84.7917 23.2758 84.8675 23.441 85.0025 23.5628C85.1375 23.6847 85.3206 23.7531 85.5115 23.7531H90.0913V42.9487H72.1174V41.2504H73.5816C74.2118 41.2497 74.816 41.0235 75.2616 40.6214C75.7072 40.2192 75.9579 39.674 75.9587 39.1053ZM66.4461 42.3646V41.2504H70.6738V42.9487H67.0973C66.9255 42.9487 66.7608 42.8872 66.6393 42.7777C66.5177 42.6681 66.4493 42.5196 66.4491 42.3646H66.4461ZM98.8086 42.3646C98.8083 42.5194 98.74 42.6679 98.6187 42.7773C98.4974 42.8868 98.3329 42.9484 98.1613 42.9487H94.4053V23.7531H98.1711C98.3427 23.7533 98.5072 23.8149 98.6285 23.9244C98.7499 24.0339 98.8181 24.1823 98.8184 24.3372L98.8086 42.3646Z" fill="white"/>
<path d="M79.2491 38.1141H84.5683C84.9963 38.1136 85.4065 37.96 85.7091 37.6869C86.0117 37.4139 86.182 37.0436 86.1825 36.6575V34.7672C86.182 34.381 86.0117 34.0108 85.7091 33.7377C85.4065 33.4646 84.9963 33.311 84.5683 33.3105H79.2491C78.8211 33.311 78.4108 33.4646 78.1082 33.7377C77.8056 34.0108 77.6354 34.381 77.6349 34.7672V36.6575C77.6354 37.0436 77.8056 37.4139 78.1082 37.6869C78.4108 37.96 78.8211 38.1136 79.2491 38.1141ZM79.0745 34.7672C79.0745 34.7254 79.0929 34.6853 79.1257 34.6558C79.1584 34.6263 79.2028 34.6097 79.2491 34.6097H84.5683C84.6146 34.6097 84.659 34.6263 84.6917 34.6558C84.7245 34.6853 84.7428 34.7254 84.7428 34.7672V36.6575C84.7428 36.6992 84.7245 36.7393 84.6917 36.7688C84.659 36.7984 84.6146 36.815 84.5683 36.815H79.2491C79.2028 36.815 79.1584 36.7984 79.1257 36.7688C79.0929 36.7393 79.0745 36.6992 79.0745 36.6575V34.7672Z" fill="white"/>
<path d="M57.7386 36.601V18.924C57.7386 18.7517 57.6628 18.5865 57.5278 18.4647C57.3928 18.3428 57.2097 18.2744 57.0188 18.2744C56.8279 18.2744 56.6448 18.3428 56.5098 18.4647C56.3748 18.5865 56.299 18.7517 56.299 18.924V36.601C56.299 36.7732 56.3748 36.9385 56.5098 37.0603C56.6448 37.1821 56.8279 37.2505 57.0188 37.2505C57.2097 37.2505 57.3928 37.1821 57.5278 37.0603C57.6628 36.9385 57.7386 36.7732 57.7386 36.601Z" fill="white"/>
<path d="M62.2523 36.601V18.924C62.2523 18.7517 62.1764 18.5865 62.0414 18.4647C61.9064 18.3428 61.7234 18.2744 61.5324 18.2744C61.3415 18.2744 61.1584 18.3428 61.0234 18.4647C60.8885 18.5865 60.8126 18.7517 60.8126 18.924V36.601C60.8126 36.7732 60.8885 36.9385 61.0234 37.0603C61.1584 37.1821 61.3415 37.2505 61.5324 37.2505C61.7234 37.2505 61.9064 37.1821 62.0414 37.0603C62.1764 36.9385 62.2523 36.7732 62.2523 36.601Z" fill="white"/>
<path d="M66.7737 36.6009V18.9239C66.7737 18.8386 66.7551 18.7541 66.7189 18.6753C66.6827 18.5965 66.6297 18.5249 66.5628 18.4646C66.496 18.4043 66.4166 18.3564 66.3293 18.3238C66.242 18.2912 66.1484 18.2744 66.0539 18.2744C65.9593 18.2744 65.8657 18.2912 65.7784 18.3238C65.6911 18.3564 65.6117 18.4043 65.5449 18.4646C65.478 18.5249 65.425 18.5965 65.3888 18.6753C65.3527 18.7541 65.334 18.8386 65.334 18.9239V36.6009C65.334 36.6862 65.3527 36.7707 65.3888 36.8495C65.425 36.9283 65.478 36.9999 65.5449 37.0602C65.6117 37.1205 65.6911 37.1684 65.7784 37.201C65.8657 37.2337 65.9593 37.2505 66.0539 37.2505C66.1484 37.2505 66.242 37.2337 66.3293 37.201C66.4166 37.1684 66.496 37.1205 66.5628 37.0602C66.6297 36.9999 66.6827 36.9283 66.7189 36.8495C66.7551 36.7707 66.7737 36.6862 66.7737 36.6009Z" fill="white"/>
<path d="M71.2913 36.601V18.924C71.2913 18.7517 71.2155 18.5865 71.0805 18.4647C70.9455 18.3428 70.7624 18.2744 70.5715 18.2744C70.3806 18.2744 70.1975 18.3428 70.0625 18.4647C69.9275 18.5865 69.8517 18.7517 69.8517 18.924V36.601C69.8517 36.7732 69.9275 36.9385 70.0625 37.0603C70.1975 37.1821 70.3806 37.2505 70.5715 37.2505C70.7624 37.2505 70.9455 37.1821 71.0805 37.0603C71.2155 36.9385 71.2913 36.7732 71.2913 36.601Z" fill="white"/>
</g>
<path d="M7.39746 109V90.2354H0.732422V87.8623H16.6992V90.2354H10.0342V109H7.39746ZM15.7178 109V93.7656H18.2666V96.3438H18.3252C18.8379 94.5859 20.1562 93.4727 21.8701 93.4727C22.3096 93.4727 22.6904 93.5459 22.8955 93.5752V96.0508C22.6904 95.9775 22.1484 95.9043 21.5332 95.9043C19.5557 95.9043 18.2666 97.2812 18.2666 99.5957V109H15.7178ZM29.1357 109.293C26.1035 109.293 24.0674 107.462 24.0674 104.693V104.664C24.0674 102.071 26.0889 100.445 29.5898 100.24L33.9551 99.9912V98.7168C33.9551 96.8564 32.7393 95.7285 30.6152 95.7285C28.6523 95.7285 27.4219 96.666 27.1289 98.0283L27.0996 98.1602H24.6387L24.6533 97.999C24.873 95.4941 27.0557 93.4727 30.6445 93.4727C34.248 93.4727 36.5039 95.4209 36.5039 98.4678V109H33.9551V106.524H33.8965C33.0029 108.194 31.1719 109.293 29.1357 109.293ZM26.6748 104.693C26.6748 106.158 27.876 107.081 29.707 107.081C32.1094 107.081 33.9551 105.426 33.9551 103.214V101.969L29.8828 102.218C27.8467 102.335 26.6748 103.243 26.6748 104.664V104.693ZM44.0332 109L38.4229 93.7656H41.1035L45.3076 106.29H45.3662L49.585 93.7656H52.2363L46.6406 109H44.0332ZM59.9268 109.293C55.5469 109.293 52.9102 106.231 52.9102 101.441V101.427C52.9102 96.71 55.6055 93.4727 59.7656 93.4727C63.9258 93.4727 66.46 96.5635 66.46 101.134V102.071H55.4883C55.5469 105.206 57.2754 107.037 59.9854 107.037C61.9189 107.037 63.2812 106.07 63.7207 104.767L63.7646 104.635H66.2695L66.2402 104.781C65.7422 107.301 63.252 109.293 59.9268 109.293ZM59.751 95.7285C57.5391 95.7285 55.8105 97.2373 55.5322 100.079H63.8672C63.6182 97.1201 61.9775 95.7285 59.751 95.7285ZM69.1699 109V87.8623H71.7188V109H69.1699ZM80.0244 109L87.8906 87.8623H90.498L98.3496 109H95.5811L93.4424 102.95H84.9316L82.793 109H80.0244ZM89.165 91.0264L85.7373 100.709H92.6514L89.2236 91.0264H89.165ZM100.386 114.127V93.7656H102.935V96.3438H102.993C103.945 94.5713 105.645 93.4727 107.827 93.4727C111.724 93.4727 114.302 96.5781 114.302 101.383V101.397C114.302 106.202 111.694 109.293 107.871 109.293C105.718 109.293 103.945 108.209 102.993 106.451H102.935V114.127H100.386ZM107.329 107.037C110.024 107.037 111.694 104.869 111.694 101.397V101.383C111.694 97.8818 110.024 95.7285 107.329 95.7285C104.751 95.7285 102.92 97.9697 102.92 101.383V101.397C102.92 104.796 104.766 107.037 107.329 107.037ZM116.88 114.127V93.7656H119.429V96.3438H119.487C120.439 94.5713 122.139 93.4727 124.321 93.4727C128.218 93.4727 130.796 96.5781 130.796 101.383V101.397C130.796 106.202 128.188 109.293 124.365 109.293C122.212 109.293 120.439 108.209 119.487 106.451H119.429V114.127H116.88ZM123.823 107.037C126.519 107.037 128.188 104.869 128.188 101.397V101.383C128.188 97.8818 126.519 95.7285 123.823 95.7285C121.245 95.7285 119.414 97.9697 119.414 101.383V101.397C119.414 104.796 121.26 107.037 123.823 107.037ZM138.779 109.293C135.19 109.293 133.022 107.462 132.715 104.737L132.7 104.605H135.249L135.278 104.752C135.586 106.275 136.714 107.169 138.794 107.169C140.859 107.169 142.09 106.305 142.09 104.928V104.913C142.09 103.814 141.519 103.199 139.79 102.774L137.373 102.188C134.502 101.5 133.11 100.167 133.11 97.9697V97.9551C133.11 95.333 135.41 93.4727 138.706 93.4727C142.046 93.4727 144.17 95.4209 144.36 97.9697L144.375 98.1602H141.943L141.929 98.0576C141.724 96.5781 140.596 95.5967 138.706 95.5967C136.86 95.5967 135.718 96.4902 135.718 97.8379V97.8525C135.718 98.8926 136.406 99.6104 138.091 100.021L140.508 100.606C143.584 101.354 144.697 102.569 144.697 104.737V104.752C144.697 107.418 142.178 109.293 138.779 109.293Z" fill="white" fill-opacity="0.7"/>
<defs>
<clipPath id="clip0_58_6">
<rect width="80" height="60" fill="white" transform="translate(33)"/>
</clipPath>
</defs>
</svg>
