<svg width="172" height="116" viewBox="0 0 172 116" fill="none" xmlns="http://www.w3.org/2000/svg">
<g clip-path="url(#clip0_58_8)">
<path d="M84 21.1381C61.9082 21.1381 44 -0.325032 44 21.1381C44 31.4449 48.2143 41.3295 55.7157 48.6175C63.2172 55.9055 73.3913 59.9999 84 59.9999C94.6087 59.9999 104.783 55.9055 112.284 48.6175C119.786 41.3295 124 31.4449 124 21.1381C124 -0.325032 106.091 21.1381 84 21.1381Z" fill="#68C98E"/>
<path d="M108.841 12.9425L104.683 8.3063C104.624 8.24111 104.553 8.18775 104.473 8.14926C104.394 8.11077 104.307 8.08791 104.218 8.08199C104.129 8.07606 104.04 8.08718 103.956 8.11471C103.871 8.14225 103.793 8.18566 103.726 8.24246C103.659 8.29926 103.604 8.36835 103.565 8.44578C103.525 8.52321 103.502 8.60746 103.496 8.69372C103.489 8.77998 103.501 8.86656 103.529 8.94853C103.558 9.03049 103.602 9.10623 103.661 9.17142L106.841 12.7167H103.747C103.658 12.7167 103.57 12.7337 103.488 12.7668C103.405 12.7999 103.331 12.8484 103.268 12.9095C103.205 12.9707 103.155 13.0432 103.121 13.1231C103.087 13.203 103.069 13.2886 103.069 13.3751V43.6285H94.6963C95.1745 43.1863 95.5551 42.6541 95.8149 42.0645C96.0747 41.4748 96.2083 40.8399 96.2075 40.1985V26.2804C96.2059 25.1262 95.7716 24.0122 94.986 23.1464C94.2003 22.2807 93.117 21.7227 91.9386 21.5765V13.3751C91.9386 13.2886 91.9211 13.203 91.887 13.1231C91.853 13.0432 91.8031 12.9707 91.7401 12.9095C91.6772 12.8484 91.6025 12.7999 91.5203 12.7668C91.4381 12.7337 91.35 12.7167 91.261 12.7167H88.1699L97.505 2.30954L101.641 6.92096C101.7 6.98646 101.771 7.04012 101.851 7.07887C101.931 7.11763 102.018 7.14071 102.107 7.14682C102.196 7.15292 102.285 7.14192 102.37 7.11445C102.455 7.08698 102.533 7.04357 102.601 6.9867C102.668 6.92984 102.723 6.86063 102.763 6.78302C102.803 6.70542 102.827 6.62094 102.833 6.53441C102.839 6.44789 102.828 6.361 102.8 6.27873C102.771 6.19645 102.727 6.12039 102.668 6.05489L98.0159 0.874658C97.9523 0.803726 97.8738 0.746862 97.7856 0.707897C97.6975 0.668932 97.6018 0.64877 97.505 0.64877C97.4081 0.64877 97.3124 0.668932 97.2243 0.707897C97.1362 0.746862 97.0576 0.803726 96.994 0.874658L86.1702 12.9425C86.0848 13.0378 86.0293 13.1549 86.0106 13.28C85.9918 13.405 86.0104 13.5327 86.0643 13.6477C86.1182 13.7628 86.205 13.8603 86.3144 13.9287C86.4238 13.9971 86.5511 14.0334 86.6812 14.0334H90.5843V21.5375H86.3968V18.5686H88.2601C88.3902 18.5686 88.5175 18.5323 88.6269 18.4639C88.7363 18.3955 88.8231 18.298 88.8769 18.1829C88.9308 18.0679 88.9495 17.9402 88.9307 17.8152C88.9119 17.6901 88.8565 17.573 88.771 17.4777L82.7604 10.7778C82.6968 10.7069 82.6183 10.65 82.5302 10.611C82.442 10.5721 82.3463 10.5519 82.2495 10.5519C82.1527 10.5519 82.0569 10.5721 81.9688 10.611C81.8807 10.65 81.8022 10.7069 81.7386 10.7778L75.7289 17.4767C75.6435 17.572 75.588 17.6892 75.5693 17.8142C75.5505 17.9393 75.5691 18.0669 75.623 18.182C75.6769 18.297 75.7637 18.3945 75.8731 18.4629C75.9825 18.5313 76.1098 18.5677 76.2399 18.5677H78.1032V21.5375H74.7267V10.4462H76.59C76.7118 10.4466 76.8315 10.4151 76.9364 10.355C77.0414 10.2949 77.1277 10.2084 77.1863 10.1046C77.2449 10.0009 77.2737 9.8837 77.2695 9.76541C77.2654 9.64712 77.2285 9.53211 77.1627 9.43248L71.1541 0.303946C71.0928 0.210906 71.0084 0.134345 70.9086 0.081314C70.8089 0.0282835 70.697 0.000488281 70.5833 0.000488281C70.4696 0.000488281 70.3577 0.0282835 70.258 0.081314C70.1583 0.134345 70.0738 0.210906 70.0126 0.303946L64.0029 9.43248C63.9375 9.53196 63.9009 9.6467 63.8967 9.76468C63.8926 9.88266 63.9213 9.99954 63.9796 10.1031C64.038 10.2066 64.1239 10.293 64.2284 10.3532C64.3329 10.4134 64.4522 10.4452 64.5737 10.4453H66.437V23.4383C65.8036 24.2572 65.4618 25.2541 65.4632 26.2785V40.2023C65.4645 41.4598 65.9792 42.6655 66.8945 43.5547C67.8097 44.4439 69.0507 44.944 70.345 44.9452H103.747C103.836 44.9452 103.924 44.9282 104.006 44.8951C104.089 44.862 104.163 44.8135 104.226 44.7524C104.289 44.6913 104.339 44.6187 104.373 44.5388C104.407 44.4589 104.425 44.3733 104.425 44.2869V14.0334H108.327C108.457 14.0334 108.584 13.9971 108.694 13.9287C108.803 13.8603 108.89 13.7628 108.944 13.6477C108.998 13.5327 109.016 13.405 108.997 13.28C108.979 13.1549 108.923 13.0378 108.838 12.9425H108.841ZM78.7867 17.2519H77.7325L82.2524 12.2127L86.7724 17.2519H85.7191C85.5394 17.2519 85.367 17.3213 85.24 17.4447C85.1129 17.5682 85.0415 17.7356 85.0415 17.9103V21.5384H79.4644V17.9122C79.4644 17.7376 79.393 17.5701 79.2659 17.4466C79.1388 17.3232 78.9664 17.2538 78.7867 17.2538V17.2519ZM65.8113 9.12949L70.5823 1.88079L75.3543 9.12949H74.049C73.8693 9.12949 73.6969 9.19886 73.5699 9.32232C73.4428 9.44579 73.3714 9.61325 73.3714 9.78786V21.5375H70.347C69.4465 21.5368 68.5637 21.7796 67.7972 22.2387V9.78786C67.7972 9.7014 67.7797 9.61579 67.7456 9.53591C67.7116 9.45604 67.6616 9.38346 67.5987 9.32232C67.5358 9.26119 67.4611 9.2127 67.3789 9.17961C67.2967 9.14652 67.2085 9.12949 67.1195 9.12949H65.8113ZM91.261 43.6285H70.346C69.4097 43.6285 68.5117 43.2671 67.8496 42.6239C67.1875 41.9806 66.8155 41.1082 66.8155 40.1985V26.2804C66.8155 25.3707 67.1875 24.4983 67.8496 23.855C68.5117 23.2118 69.4097 22.8504 70.346 22.8504H91.3257C92.262 22.8504 93.16 23.2118 93.8221 23.855C94.4842 24.4983 94.8561 25.3707 94.8561 26.2804V40.2071C94.8561 41.1168 94.4842 41.9892 93.8221 42.6324C93.16 43.2757 92.262 43.6371 91.3257 43.6371H91.261V43.6285Z" fill="white"/>
<path d="M81.3409 36.959V36.5778C81.7514 36.4725 82.1222 36.2549 82.4092 35.9509C82.6962 35.6469 82.8874 35.2693 82.96 34.8628C83.0499 34.4092 82.9642 33.9392 82.7193 33.5432C82.4744 33.1472 82.0876 32.8531 81.6331 32.7172L81.3389 32.6143V30.9117C81.4534 30.9514 81.5603 31.0091 81.6557 31.0822C81.7626 31.1724 81.9015 31.2184 82.0428 31.2104C82.1841 31.2024 82.3166 31.141 82.412 31.0394C82.5074 30.9378 82.5581 30.804 82.5533 30.6665C82.5485 30.5291 82.4886 30.3989 82.3863 30.3038C82.0853 30.0588 81.7247 29.8928 81.3389 29.8217V29.5245C81.3389 29.3847 81.2818 29.2507 81.1801 29.1519C81.0784 29.0531 80.9405 28.9976 80.7966 28.9976C80.6528 28.9976 80.5148 29.0531 80.4131 29.1519C80.3114 29.2507 80.2543 29.3847 80.2543 29.5245V29.8589L80.1494 29.8875C79.8275 29.9858 79.5397 30.1683 79.3176 30.415C79.0955 30.6617 78.9476 30.9631 78.8902 31.2861C78.8242 31.5692 78.8395 31.8645 78.9344 32.1397C79.0294 32.4149 79.2003 32.6595 79.4286 32.8468C79.6837 33.0343 79.9609 33.1916 80.2543 33.3155V35.565C79.9878 35.5227 79.7359 35.4184 79.5198 35.2611C79.3995 35.1906 79.2558 35.1681 79.1189 35.1984C78.982 35.2288 78.8625 35.3096 78.7856 35.4238C78.7087 35.538 78.6804 35.6767 78.7067 35.8107C78.733 35.9447 78.8118 36.0637 78.9265 36.1424C79.3156 36.4176 79.7747 36.5843 80.2543 36.6245V36.958C80.2543 37.0977 80.3114 37.2317 80.4131 37.3306C80.5148 37.4294 80.6528 37.4849 80.7966 37.4849C80.9405 37.4849 81.0784 37.4294 81.1801 37.3306C81.2818 37.2317 81.3389 37.0977 81.3389 36.958L81.3409 36.959ZM81.8901 34.6828C81.8621 34.8421 81.7984 34.9934 81.7035 35.1262C81.6086 35.2589 81.4848 35.3697 81.3409 35.4507V33.7357C81.536 33.8026 81.6993 33.9362 81.8004 34.1115C81.9014 34.2869 81.9333 34.4919 81.8901 34.6885V34.6828ZM80.0994 32.015C80.0293 31.9455 79.9793 31.8594 79.9544 31.7653C79.9294 31.6711 79.9304 31.5723 79.9572 31.4786C79.9926 31.2874 80.099 31.1155 80.2563 30.9955V32.1227C80.2004 32.0893 80.1474 32.0541 80.0994 32.0169V32.015Z" fill="white"/>
<path d="M87.2589 33.2416C87.2589 32.0073 86.8822 30.8008 86.1764 29.7745C85.4705 28.7482 84.4673 27.9484 83.2936 27.476C82.1199 27.0037 80.8283 26.8801 79.5823 27.1209C78.3363 27.3617 77.1917 27.9561 76.2934 28.8288C75.395 29.7016 74.7833 30.8136 74.5354 32.0242C74.2876 33.2347 74.4148 34.4895 74.9009 35.6299C75.3871 36.7702 76.2104 37.7448 77.2668 38.4306C78.3231 39.1163 79.565 39.4823 80.8355 39.4823C82.5385 39.4806 84.1713 38.8225 85.3755 37.6525C86.5798 36.4826 87.2571 34.8962 87.2589 33.2416ZM75.7673 33.2416C75.7673 32.2678 76.0645 31.3158 76.6214 30.506C77.1783 29.6963 77.9699 29.0652 78.8959 28.6925C79.822 28.3198 80.8411 28.2223 81.8242 28.4123C82.8073 28.6023 83.7104 29.0713 84.4192 29.7599C85.128 30.4485 85.6107 31.3259 85.8062 32.281C86.0018 33.2362 85.9014 34.2262 85.5178 35.126C85.1342 36.0257 84.4846 36.7947 83.6512 37.3358C82.8177 37.8768 81.8378 38.1656 80.8355 38.1656C79.4918 38.1641 78.2036 37.6448 77.2534 36.7217C76.3033 35.7986 75.7688 34.5471 75.7673 33.2416Z" fill="white"/>
<path d="M90.6018 33.8998C90.7815 33.8998 90.9539 33.8304 91.0809 33.7069C91.208 33.5835 91.2794 33.416 91.2794 33.2414C91.2794 33.0668 91.208 32.8993 91.0809 32.7758C90.9539 32.6524 90.7815 32.583 90.6018 32.583H88.6404C88.4607 32.583 88.2883 32.6524 88.1612 32.7758C88.0341 32.8993 87.9628 33.0668 87.9628 33.2414C87.9628 33.416 88.0341 33.5835 88.1612 33.7069C88.2883 33.8304 88.4607 33.8998 88.6404 33.8998H90.6018Z" fill="white"/>
<path d="M70.4999 32.5829C70.3202 32.5829 70.1478 32.6523 70.0207 32.7758C69.8937 32.8992 69.8223 33.0667 69.8223 33.2413C69.8223 33.4159 69.8937 33.5834 70.0207 33.7069C70.1478 33.8303 70.3202 33.8997 70.4999 33.8997H72.4613C72.641 33.8997 72.8134 33.8303 72.9404 33.7069C73.0675 33.5834 73.1389 33.4159 73.1389 33.2413C73.1389 33.0667 73.0675 32.8992 72.9404 32.7758C72.8134 32.6523 72.641 32.5829 72.4613 32.5829H70.4999Z" fill="white"/>
<path d="M93.7391 38.4987V27.9839C93.7391 27.8093 93.6677 27.6418 93.5406 27.5184C93.4135 27.3949 93.2412 27.3255 93.0614 27.3255C92.3163 27.3248 91.6018 27.0369 91.0749 26.5249C90.548 26.013 90.2516 25.3189 90.2508 24.5949C90.2508 24.4203 90.1794 24.2528 90.0523 24.1294C89.9253 24.0059 89.7529 23.9365 89.5732 23.9365H72.1014C71.9216 23.9365 71.7493 24.0059 71.6222 24.1294C71.4951 24.2528 71.4237 24.4203 71.4237 24.5949C71.4229 25.3189 71.1266 26.013 70.5996 26.5249C70.0727 27.0369 69.3583 27.3248 68.6131 27.3255C68.4334 27.3255 68.261 27.3949 68.1339 27.5184C68.0068 27.6418 67.9354 27.8093 67.9354 27.9839V38.4997C67.9354 38.6743 68.0068 38.8418 68.1339 38.9652C68.261 39.0887 68.4334 39.1581 68.6131 39.1581C69.3583 39.1588 70.0727 39.4467 70.5996 39.9587C71.1266 40.4706 71.4229 41.1647 71.4237 41.8887C71.4237 42.0633 71.4951 42.2308 71.6222 42.3542C71.7493 42.4777 71.9216 42.5471 72.1014 42.5471H76.7645C76.9442 42.5471 77.1166 42.4777 77.2437 42.3542C77.3707 42.2308 77.4421 42.0633 77.4421 41.8887C77.4421 41.7141 77.3707 41.5466 77.2437 41.4232C77.1166 41.2997 76.9442 41.2303 76.7645 41.2303H72.7241C72.5809 40.3964 72.1731 39.6267 71.5577 39.0288C70.9423 38.431 70.1501 38.0348 69.2917 37.8956V28.5899C70.1501 28.4507 70.9423 28.0545 71.5577 27.4567C72.1731 26.8588 72.5809 26.0891 72.7241 25.2552H88.9504C89.0937 26.0891 89.5014 26.8588 90.1168 27.4567C90.7322 28.0545 91.5244 28.4507 92.3828 28.5899V37.8956C91.5244 38.0348 90.7322 38.431 90.1168 39.0288C89.5014 39.6267 89.0937 40.3964 88.9504 41.2303H79.4378C79.2581 41.2303 79.0857 41.2997 78.9587 41.4232C78.8316 41.5466 78.7602 41.7141 78.7602 41.8887C78.7602 42.0633 78.8316 42.2308 78.9587 42.3542C79.0857 42.4777 79.2581 42.5471 79.4378 42.5471H89.5781C89.7578 42.5471 89.9302 42.4777 90.0572 42.3542C90.1843 42.2308 90.2557 42.0633 90.2557 41.8887C90.2565 41.1647 90.5529 40.4706 91.0798 39.9587C91.6067 39.4467 92.3212 39.1588 93.0664 39.1581C93.2454 39.1568 93.4166 39.0868 93.5427 38.9632C93.6688 38.8397 93.7394 38.6727 93.7391 38.4987Z" fill="white"/>
</g>
<path d="M2.05078 109V87.8623H14.8828V90.2354H4.6875V97.501H14.0479V99.8447H4.6875V109H2.05078ZM18.9404 91.1875C18.0615 91.1875 17.3438 90.4697 17.3438 89.5908C17.3438 88.6973 18.0615 87.9941 18.9404 87.9941C19.834 87.9941 20.5371 88.6973 20.5371 89.5908C20.5371 90.4697 19.834 91.1875 18.9404 91.1875ZM17.666 109V93.7656H20.2148V109H17.666ZM23.6865 109V93.7656H26.2354V95.9336H26.2939C27.1143 94.5127 28.667 93.4727 30.9814 93.4727C34.3213 93.4727 36.2549 95.6406 36.2549 99.1123V109H33.7061V99.5664C33.7061 97.0908 32.5488 95.7285 30.2051 95.7285C27.8027 95.7285 26.2354 97.4424 26.2354 100.035V109H23.6865ZM43.96 109.293C40.9277 109.293 38.8916 107.462 38.8916 104.693V104.664C38.8916 102.071 40.9131 100.445 44.4141 100.24L48.7793 99.9912V98.7168C48.7793 96.8564 47.5635 95.7285 45.4395 95.7285C43.4766 95.7285 42.2461 96.666 41.9531 98.0283L41.9238 98.1602H39.4629L39.4775 97.999C39.6973 95.4941 41.8799 93.4727 45.4688 93.4727C49.0723 93.4727 51.3281 95.4209 51.3281 98.4678V109H48.7793V106.524H48.7207C47.8271 108.194 45.9961 109.293 43.96 109.293ZM41.499 104.693C41.499 106.158 42.7002 107.081 44.5312 107.081C46.9336 107.081 48.7793 105.426 48.7793 103.214V101.969L44.707 102.218C42.6709 102.335 41.499 103.243 41.499 104.664V104.693ZM54.5654 109V93.7656H57.1143V95.9336H57.1729C57.9932 94.5127 59.5459 93.4727 61.8604 93.4727C65.2002 93.4727 67.1338 95.6406 67.1338 99.1123V109H64.585V99.5664C64.585 97.0908 63.4277 95.7285 61.084 95.7285C58.6816 95.7285 57.1143 97.4424 57.1143 100.035V109H54.5654ZM76.6992 109.293C72.3779 109.293 69.6387 106.217 69.6387 101.368V101.354C69.6387 96.5488 72.4365 93.4727 76.6699 93.4727C80.4639 93.4727 82.7051 95.9922 83.0273 98.5996L83.042 98.7168H80.5518L80.5225 98.5996C80.1416 97.0762 78.9111 95.7285 76.6699 95.7285C74.0186 95.7285 72.2461 97.9258 72.2461 101.383V101.397C72.2461 104.942 74.0625 107.037 76.6992 107.037C78.7793 107.037 80.1123 105.865 80.5371 104.166L80.5664 104.049H83.0713L83.0566 104.151C82.6465 107.052 80.1416 109.293 76.6992 109.293ZM91.6846 109.293C87.3047 109.293 84.668 106.231 84.668 101.441V101.427C84.668 96.71 87.3633 93.4727 91.5234 93.4727C95.6836 93.4727 98.2178 96.5635 98.2178 101.134V102.071H87.2461C87.3047 105.206 89.0332 107.037 91.7432 107.037C93.6768 107.037 95.0391 106.07 95.4785 104.767L95.5225 104.635H98.0273L97.998 104.781C97.5 107.301 95.0098 109.293 91.6846 109.293ZM91.5088 95.7285C89.2969 95.7285 87.5684 97.2373 87.29 100.079H95.625C95.376 97.1201 93.7354 95.7285 91.5088 95.7285ZM105.659 109L113.525 87.8623H116.133L123.984 109H121.216L119.077 102.95H110.566L108.428 109H105.659ZM114.8 91.0264L111.372 100.709H118.286L114.858 91.0264H114.8ZM126.021 114.127V93.7656H128.569V96.3438H128.628C129.58 94.5713 131.279 93.4727 133.462 93.4727C137.358 93.4727 139.937 96.5781 139.937 101.383V101.397C139.937 106.202 137.329 109.293 133.506 109.293C131.353 109.293 129.58 108.209 128.628 106.451H128.569V114.127H126.021ZM132.964 107.037C135.659 107.037 137.329 104.869 137.329 101.397V101.383C137.329 97.8818 135.659 95.7285 132.964 95.7285C130.386 95.7285 128.555 97.9697 128.555 101.383V101.397C128.555 104.796 130.4 107.037 132.964 107.037ZM142.515 114.127V93.7656H145.063V96.3438H145.122C146.074 94.5713 147.773 93.4727 149.956 93.4727C153.853 93.4727 156.431 96.5781 156.431 101.383V101.397C156.431 106.202 153.823 109.293 150 109.293C147.847 109.293 146.074 108.209 145.122 106.451H145.063V114.127H142.515ZM149.458 107.037C152.153 107.037 153.823 104.869 153.823 101.397V101.383C153.823 97.8818 152.153 95.7285 149.458 95.7285C146.88 95.7285 145.049 97.9697 145.049 101.383V101.397C145.049 104.796 146.895 107.037 149.458 107.037ZM164.414 109.293C160.825 109.293 158.657 107.462 158.35 104.737L158.335 104.605H160.884L160.913 104.752C161.221 106.275 162.349 107.169 164.429 107.169C166.494 107.169 167.725 106.305 167.725 104.928V104.913C167.725 103.814 167.153 103.199 165.425 102.774L163.008 102.188C160.137 101.5 158.745 100.167 158.745 97.9697V97.9551C158.745 95.333 161.045 93.4727 164.341 93.4727C167.681 93.4727 169.805 95.4209 169.995 97.9697L170.01 98.1602H167.578L167.563 98.0576C167.358 96.5781 166.23 95.5967 164.341 95.5967C162.495 95.5967 161.353 96.4902 161.353 97.8379V97.8525C161.353 98.8926 162.041 99.6104 163.726 100.021L166.143 100.606C169.219 101.354 170.332 102.569 170.332 104.737V104.752C170.332 107.418 167.812 109.293 164.414 109.293Z" fill="white" fill-opacity="0.7"/>
<defs>
<clipPath id="clip0_58_8">
<rect width="80" height="60" fill="white" transform="translate(44)"/>
</clipPath>
</defs>
</svg>
