<svg width="149" height="116" viewBox="0 0 149 116" fill="none" xmlns="http://www.w3.org/2000/svg">
<g clip-path="url(#clip0_58_5)">
<path d="M73 20.4C50.9082 20.4 33 -1.47086 33 20.4C33 30.9026 37.2143 40.975 44.7157 48.4014C52.2172 55.8279 62.3913 60 73 60C83.6087 60 93.7828 55.8279 101.284 48.4014C108.786 40.975 113 30.9026 113 20.4C113 -1.47086 95.0908 20.4 73 20.4Z" fill="#FFB07D"/>
<path d="M80.355 3.88477H64.6641V5.82651H80.355V3.88477Z" fill="white"/>
<path d="M88.4446 30.3399C88.4438 29.589 88.1422 28.8691 87.6059 28.3382C87.0696 27.8072 86.3424 27.5086 85.584 27.5079H83.9492V16.1816H82.3144V27.5088H80.2716C79.7029 27.5078 79.1469 27.6749 78.6747 27.9887C78.2026 28.3025 77.8358 28.7488 77.6214 29.2702C77.407 29.7917 77.3548 30.3647 77.4714 30.9157C77.588 31.4667 77.8681 31.9708 78.2759 32.3632C77.8082 32.8097 77.5101 33.402 77.4319 34.0405C77.3537 34.6791 77.5 35.3248 77.8464 35.869C77.3516 36.0949 76.9323 36.456 76.6379 36.91C76.3436 37.3639 76.1865 37.8917 76.1851 38.4312C76.1875 38.8519 76.2857 39.2668 76.4724 39.6448H70.0559C70.0554 38.4694 69.7676 37.3117 69.2171 36.2704C68.6665 35.2291 67.8695 34.3352 66.8941 33.6651C67.8233 33.3144 68.6231 32.6927 69.1877 31.8823C69.7522 31.0718 70.055 30.1108 70.0559 29.1263C70.0559 28.9118 69.9698 28.7061 69.8166 28.5544C69.6634 28.4028 69.4556 28.3176 69.2389 28.3176H62.7008V20.2273H61.0669V28.3176C60.4167 28.3176 59.7931 28.5733 59.3333 29.0285C58.8735 29.4837 58.6152 30.101 58.6152 30.7447V48.5448H60.25V30.7447C60.2503 30.5303 60.3364 30.3248 60.4896 30.1732C60.6427 30.0216 60.8504 29.9363 61.0669 29.936H68.3181C68.136 30.6303 67.7265 31.2452 67.1537 31.6844C66.5808 32.1236 65.877 32.3624 65.1525 32.3632H62.7008C62.484 32.3632 62.2761 32.4485 62.1228 32.6002C61.9695 32.752 61.8833 32.9578 61.8833 33.1724C61.8833 33.387 61.9695 33.5929 62.1228 33.7446C62.2761 33.8964 62.484 33.9816 62.7008 33.9816C64.2175 33.9832 65.6717 34.5803 66.7442 35.642C67.8168 36.7037 68.4202 38.1432 68.422 39.6448V40.4535C68.422 40.668 68.5081 40.8737 68.6613 41.0254C68.8145 41.177 69.0223 41.2622 69.2389 41.2622H74.0207C73.834 41.6402 73.7358 42.055 73.7334 42.4758C73.7342 43.2268 74.036 43.9469 74.5725 44.4779C75.109 45.0088 75.8364 45.3073 76.595 45.3079V48.5438H78.2288V45.3079H81.9064C82.6649 45.3071 83.392 45.0085 83.9283 44.4775C84.4646 43.9466 84.7663 43.2267 84.7671 42.4758C84.7643 42.0506 84.6637 41.6315 84.4728 41.2506C84.972 41.2344 85.4579 41.0881 85.8816 40.8265C86.3054 40.5648 86.6519 40.1971 86.8862 39.7605C87.1204 39.3239 87.2342 38.8339 87.216 38.3398C87.1978 37.8458 87.0482 37.3652 86.7823 36.9467C87.2036 36.7563 87.5715 36.4669 87.854 36.1037C88.1366 35.7405 88.3253 35.3145 88.4038 34.8627C88.4823 34.4109 88.4482 33.947 88.3043 33.5112C88.1605 33.0754 87.9114 32.681 87.5787 32.3622C87.8525 32.0998 88.0703 31.7855 88.2191 31.4381C88.3678 31.0907 88.4445 30.7172 88.4446 30.3399ZM81.9064 43.6894H76.5941C76.2689 43.6894 75.9571 43.5616 75.7272 43.334C75.4974 43.1064 75.3682 42.7977 75.3682 42.4758C75.3682 42.1539 75.4974 41.8453 75.7272 41.6177C75.9571 41.3901 76.2689 41.2622 76.5941 41.2622H81.9064C82.2315 41.2622 82.5433 41.3901 82.7732 41.6177C83.0031 41.8453 83.1322 42.1539 83.1322 42.4758C83.1322 42.7977 83.0031 43.1064 82.7732 43.334C82.5433 43.5616 82.2315 43.6894 81.9064 43.6894ZM84.3581 39.6438H79.0458C78.7206 39.6438 78.4088 39.5159 78.1789 39.2883C77.9491 39.0607 77.8199 38.7521 77.8199 38.4302C77.8199 38.1083 77.9491 37.7996 78.1789 37.5721C78.4088 37.3445 78.7206 37.2166 79.0458 37.2166H84.3581C84.6832 37.2166 84.995 37.3445 85.2249 37.5721C85.4548 37.7996 85.584 38.1083 85.584 38.4302C85.584 38.7521 85.4548 39.0607 85.2249 39.2883C84.995 39.5159 84.6832 39.6438 84.3581 39.6438ZM85.584 35.5991H80.2716C79.9465 35.5991 79.6347 35.4713 79.4048 35.2437C79.1749 35.0161 79.0458 34.7074 79.0458 34.3855C79.0458 34.0637 79.1749 33.755 79.4048 33.5274C79.6347 33.2998 79.9465 33.1719 80.2716 33.1719H85.584C85.9091 33.1719 86.2209 33.2998 86.4508 33.5274C86.6806 33.755 86.8098 34.0637 86.8098 34.3855C86.8098 34.7074 86.6806 35.0161 86.4508 35.2437C86.2209 35.4713 85.9091 35.5991 85.584 35.5991ZM85.584 31.5535H80.2716C79.9465 31.5535 79.6347 31.4256 79.4048 31.198C79.1749 30.9704 79.0458 30.6618 79.0458 30.3399C79.0458 30.018 79.1749 29.7093 79.4048 29.4818C79.6347 29.2542 79.9465 29.1263 80.2716 29.1263H85.584C85.9091 29.1263 86.2209 29.2542 86.4508 29.4818C86.6806 29.7093 86.8098 30.018 86.8098 30.3399C86.8098 30.6618 86.6806 30.9704 86.4508 31.198C86.2209 31.4256 85.9091 31.5535 85.584 31.5535Z" fill="white"/>
<path d="M60.2487 10.2982C60.2399 10.1842 60.2067 10.0733 60.1515 9.97288C60.0962 9.87246 60.02 9.7848 59.928 9.71567L59.0768 9.07683C58.9733 8.5375 58.6705 8.0557 58.2275 7.72544C57.7846 7.39518 57.2332 7.24015 56.681 7.2906C56.1288 7.34104 55.6154 7.59335 55.241 7.99828C54.8666 8.40322 54.658 8.93173 54.6559 9.48071C53.9986 9.36661 53.373 9.11651 52.82 8.74674L52.5347 8.55256C52.4118 8.47069 52.2687 8.42345 52.1207 8.41589C51.9728 8.40834 51.8255 8.44076 51.6948 8.50968C51.564 8.5786 51.4546 8.68142 51.3784 8.80715C51.3021 8.93287 51.2618 9.07677 51.2617 9.22343V9.88751C51.2586 10.8479 51.5545 11.7859 52.109 12.5739L51.4981 13.1865C51.3847 13.3 51.3077 13.4441 51.2769 13.6007C51.246 13.7574 51.2627 13.9196 51.3247 14.0669C51.3868 14.2142 51.4915 14.34 51.6257 14.4285C51.7598 14.517 51.9174 14.5642 52.0787 14.5642H56.0386C56.7966 14.5609 57.5269 14.2822 58.0911 13.7812C58.6553 13.2801 59.0141 12.5914 59.0993 11.8458L60.0143 10.9293C60.0968 10.8468 60.1604 10.7478 60.2008 10.6389C60.2412 10.5301 60.2576 10.4139 60.2487 10.2982ZM57.7215 10.9205C57.57 11.0719 57.485 11.2764 57.4851 11.4895C57.488 11.8724 57.3373 12.2408 57.0661 12.5138C56.7949 12.7868 56.4254 12.9422 56.0386 12.9458H53.9596C54.0246 12.7974 54.0433 12.6331 54.0132 12.4741C53.9832 12.3151 53.9057 12.1686 53.7909 12.0535C53.4097 11.6689 53.1365 11.1923 52.9985 10.671C53.7834 10.9986 54.6269 11.1666 55.4787 11.1652C55.6953 11.1652 55.9031 11.08 56.0563 10.9283C56.2095 10.7766 56.2956 10.5709 56.2956 10.3564V9.50693C56.2956 9.35011 56.3585 9.19973 56.4705 9.08884C56.5825 8.97796 56.7344 8.91566 56.8928 8.91566C57.0512 8.91566 57.2031 8.97796 57.3151 9.08884C57.4271 9.19973 57.49 9.35011 57.49 9.50693C57.4901 9.63181 57.5194 9.75499 57.5755 9.86682C57.6317 9.97865 57.7132 10.0761 57.8137 10.1516L58.2059 10.4428L57.7215 10.9205Z" fill="white"/>
<path d="M74.96 13.7542V12.1357H72.5083C72.2917 12.1357 72.0839 12.2209 71.9307 12.3726C71.7775 12.5243 71.6914 12.73 71.6914 12.9445V15.3717H70.0566V16.9901H71.6914V20.226H73.3262V16.9901H74.96V15.3717H73.3252V13.7532L74.96 13.7542Z" fill="white"/>
<path d="M77.4126 8.90002H67.6058C66.9556 8.90002 66.332 9.15574 65.8722 9.61093C65.4124 10.0661 65.1541 10.6835 65.1541 11.3272V21.0359C65.1541 21.6797 65.4124 22.297 65.8722 22.7522C66.332 23.2074 66.9556 23.4631 67.6058 23.4631H77.4126C78.0629 23.4631 78.6864 23.2074 79.1462 22.7522C79.606 22.297 79.8643 21.6797 79.8643 21.0359V11.3272C79.8643 10.6835 79.606 10.0661 79.1462 9.61093C78.6864 9.15574 78.0629 8.90002 77.4126 8.90002ZM78.2295 21.0359C78.2293 21.2504 78.1431 21.4559 77.99 21.6075C77.8368 21.7591 77.6292 21.8444 77.4126 21.8447H67.6058C67.3892 21.8444 67.1816 21.7591 67.0285 21.6075C66.8753 21.4559 66.7892 21.2504 66.7889 21.0359V11.3272C66.7892 11.1128 66.8753 10.9072 67.0285 10.7556C67.1816 10.604 67.3892 10.5187 67.6058 10.5185H77.4126C77.6292 10.5187 77.8368 10.604 77.99 10.7556C78.1431 10.9072 78.2293 11.1128 78.2295 11.3272V21.0359Z" fill="white"/>
<path d="M60.2507 4.04565H50.4439C49.7937 4.04565 49.1701 4.30137 48.7103 4.75656C48.2505 5.21174 47.9922 5.82911 47.9922 6.47284V16.1816C47.9922 16.8253 48.2505 17.4427 48.7103 17.8979C49.1701 18.353 49.7937 18.6088 50.4439 18.6088H60.2507C60.9009 18.6088 61.5245 18.353 61.9843 17.8979C62.4441 17.4427 62.7024 16.8253 62.7024 16.1816V6.47284C62.7024 5.82911 62.4441 5.21174 61.9843 4.75656C61.5245 4.30137 60.9009 4.04565 60.2507 4.04565ZM61.0676 16.1816C61.0673 16.396 60.9812 16.6015 60.828 16.7532C60.6749 16.9048 60.4673 16.9901 60.2507 16.9903H50.4439C50.2273 16.9901 50.0197 16.9048 49.8665 16.7532C49.7134 16.6015 49.6272 16.396 49.627 16.1816V6.47284C49.6272 6.25843 49.7134 6.05287 49.8665 5.90126C50.0197 5.74965 50.2273 5.66436 50.4439 5.6641H60.2507C60.4673 5.66436 60.6749 5.74965 60.828 5.90126C60.9812 6.05287 61.0673 6.25843 61.0676 6.47284V16.1816Z" fill="white"/>
<path d="M94.5749 0H84.7681C84.1179 0 83.4943 0.25572 83.0345 0.710906C82.5747 1.16609 82.3164 1.78346 82.3164 2.42718V12.1359C82.3164 12.7797 82.5747 13.397 83.0345 13.8522C83.4943 14.3074 84.1179 14.5631 84.7681 14.5631H94.5749C95.2251 14.5631 95.8487 14.3074 96.3085 13.8522C96.7683 13.397 97.0266 12.7797 97.0266 12.1359V2.42718C97.0266 1.78346 96.7683 1.16609 96.3085 0.710906C95.8487 0.25572 95.2251 0 94.5749 0ZM95.3918 12.1359C95.3916 12.3503 95.3054 12.5559 95.1523 12.7075C94.9991 12.8591 94.7915 12.9444 94.5749 12.9447H84.7681C84.5515 12.9444 84.3439 12.8591 84.1908 12.7075C84.0376 12.5559 83.9515 12.3503 83.9512 12.1359V8.09029H85.6684C85.857 9.00363 86.3586 9.82443 87.0881 10.4139C87.8176 11.0034 88.7303 11.3253 89.672 11.3253C90.6136 11.3253 91.5264 11.0034 92.2559 10.4139C92.9855 9.82443 93.487 9.00363 93.6756 8.09029H95.3928L95.3918 12.1359ZM87.2198 7.28155C87.2198 6.8015 87.3636 6.33223 87.633 5.93308C87.9024 5.53393 88.2853 5.22284 88.7333 5.03913C89.1813 4.85542 89.6742 4.80735 90.1498 4.90101C90.6254 4.99466 91.0622 5.22583 91.4051 5.56527C91.748 5.90472 91.9815 6.33721 92.0761 6.80803C92.1707 7.27886 92.1221 7.76689 91.9366 8.2104C91.751 8.65391 91.4368 9.03298 91.0336 9.29968C90.6304 9.56639 90.1564 9.70874 89.6715 9.70874C89.0213 9.70874 88.3977 9.45302 87.9379 8.99783C87.4781 8.54265 87.2198 7.92528 87.2198 7.28155ZM95.3918 6.47282H93.6747C93.486 5.55948 92.9845 4.73867 92.255 4.14921C91.5254 3.55974 90.6127 3.23778 89.671 3.23778C88.7294 3.23778 87.8166 3.55974 87.0871 4.14921C86.3576 4.73867 85.8561 5.55948 85.6674 6.47282H83.9502V2.42718C83.9505 2.21277 84.0366 2.00722 84.1898 1.8556C84.3429 1.70399 84.5505 1.6187 84.7671 1.61845H94.5739C94.7905 1.6187 94.9982 1.70399 95.1513 1.8556C95.3044 2.00722 95.3906 2.21277 95.3908 2.42718L95.3918 6.47282Z" fill="white"/>
<path d="M73.4907 33.0098H71.5293V34.9515H73.4907V33.0098Z" fill="white"/>
</g>
<path d="M8.96484 109.352C4.39453 109.352 1.30371 107.11 1.04004 103.492L1.02539 103.287H3.66211L3.69141 103.492C3.99902 105.616 6.0498 106.92 9.11133 106.92C12.1582 106.92 14.0771 105.543 14.0771 103.36V103.346C14.0771 101.485 12.8613 100.445 9.96094 99.8008L7.61719 99.2881C3.48633 98.3799 1.55273 96.5195 1.55273 93.4287V93.4141C1.56738 89.9424 4.64355 87.5107 8.99414 87.5107C13.125 87.5107 16.1426 89.8984 16.377 93.3555L16.3916 93.5752H13.7549L13.7256 93.3701C13.4033 91.2168 11.6016 89.9424 8.9209 89.9424C6.09375 89.957 4.24805 91.3047 4.24805 93.3408V93.3555C4.24805 95.084 5.52246 96.168 8.27637 96.7686L10.6201 97.2812C14.9561 98.2334 16.7725 99.9912 16.7725 103.214V103.229C16.7725 106.979 13.7988 109.352 8.96484 109.352ZM25.7812 109.293C21.5479 109.293 18.7207 106.231 18.7207 101.383V101.354C18.7207 96.5049 21.5625 93.4727 25.7666 93.4727C29.9707 93.4727 32.8271 96.4902 32.8271 101.354V101.383C32.8271 106.246 29.9854 109.293 25.7812 109.293ZM25.7959 107.037C28.4766 107.037 30.2197 104.957 30.2197 101.383V101.354C30.2197 97.7793 28.4619 95.7285 25.7666 95.7285C23.1152 95.7285 21.3281 97.7939 21.3281 101.354V101.383C21.3281 104.972 23.1006 107.037 25.7959 107.037ZM41.7188 109.293C37.3975 109.293 34.6582 106.217 34.6582 101.368V101.354C34.6582 96.5488 37.4561 93.4727 41.6895 93.4727C45.4834 93.4727 47.7246 95.9922 48.0469 98.5996L48.0615 98.7168H45.5713L45.542 98.5996C45.1611 97.0762 43.9307 95.7285 41.6895 95.7285C39.0381 95.7285 37.2656 97.9258 37.2656 101.383V101.397C37.2656 104.942 39.082 107.037 41.7188 107.037C43.7988 107.037 45.1318 105.865 45.5566 104.166L45.5859 104.049H48.0908L48.0762 104.151C47.666 107.052 45.1611 109.293 41.7188 109.293ZM51.8701 91.1875C50.9912 91.1875 50.2734 90.4697 50.2734 89.5908C50.2734 88.6973 50.9912 87.9941 51.8701 87.9941C52.7637 87.9941 53.4668 88.6973 53.4668 89.5908C53.4668 90.4697 52.7637 91.1875 51.8701 91.1875ZM50.5957 109V93.7656H53.1445V109H50.5957ZM61.0693 109.293C58.0371 109.293 56.001 107.462 56.001 104.693V104.664C56.001 102.071 58.0225 100.445 61.5234 100.24L65.8887 99.9912V98.7168C65.8887 96.8564 64.6729 95.7285 62.5488 95.7285C60.5859 95.7285 59.3555 96.666 59.0625 98.0283L59.0332 98.1602H56.5723L56.5869 97.999C56.8066 95.4941 58.9893 93.4727 62.5781 93.4727C66.1816 93.4727 68.4375 95.4209 68.4375 98.4678V109H65.8887V106.524H65.8301C64.9365 108.194 63.1055 109.293 61.0693 109.293ZM58.6084 104.693C58.6084 106.158 59.8096 107.081 61.6406 107.081C64.043 107.081 65.8887 105.426 65.8887 103.214V101.969L61.8164 102.218C59.7803 102.335 58.6084 103.243 58.6084 104.664V104.693ZM71.8066 109V87.8623H74.3555V109H71.8066ZM82.6611 109L90.5273 87.8623H93.1348L100.986 109H98.2178L96.0791 102.95H87.5684L85.4297 109H82.6611ZM91.8018 91.0264L88.374 100.709H95.2881L91.8604 91.0264H91.8018ZM103.022 114.127V93.7656H105.571V96.3438H105.63C106.582 94.5713 108.281 93.4727 110.464 93.4727C114.36 93.4727 116.938 96.5781 116.938 101.383V101.397C116.938 106.202 114.331 109.293 110.508 109.293C108.354 109.293 106.582 108.209 105.63 106.451H105.571V114.127H103.022ZM109.966 107.037C112.661 107.037 114.331 104.869 114.331 101.397V101.383C114.331 97.8818 112.661 95.7285 109.966 95.7285C107.388 95.7285 105.557 97.9697 105.557 101.383V101.397C105.557 104.796 107.402 107.037 109.966 107.037ZM119.517 114.127V93.7656H122.065V96.3438H122.124C123.076 94.5713 124.775 93.4727 126.958 93.4727C130.854 93.4727 133.433 96.5781 133.433 101.383V101.397C133.433 106.202 130.825 109.293 127.002 109.293C124.849 109.293 123.076 108.209 122.124 106.451H122.065V114.127H119.517ZM126.46 107.037C129.155 107.037 130.825 104.869 130.825 101.397V101.383C130.825 97.8818 129.155 95.7285 126.46 95.7285C123.882 95.7285 122.051 97.9697 122.051 101.383V101.397C122.051 104.796 123.896 107.037 126.46 107.037ZM141.416 109.293C137.827 109.293 135.659 107.462 135.352 104.737L135.337 104.605H137.886L137.915 104.752C138.223 106.275 139.351 107.169 141.431 107.169C143.496 107.169 144.727 106.305 144.727 104.928V104.913C144.727 103.814 144.155 103.199 142.427 102.774L140.01 102.188C137.139 101.5 135.747 100.167 135.747 97.9697V97.9551C135.747 95.333 138.047 93.4727 141.343 93.4727C144.683 93.4727 146.807 95.4209 146.997 97.9697L147.012 98.1602H144.58L144.565 98.0576C144.36 96.5781 143.232 95.5967 141.343 95.5967C139.497 95.5967 138.354 96.4902 138.354 97.8379V97.8525C138.354 98.8926 139.043 99.6104 140.728 100.021L143.145 100.606C146.221 101.354 147.334 102.569 147.334 104.737V104.752C147.334 107.418 144.814 109.293 141.416 109.293Z" fill="white" fill-opacity="0.7"/>
<defs>
<clipPath id="clip0_58_5">
<rect width="80" height="60" fill="white" transform="translate(33)"/>
</clipPath>
</defs>
</svg>
