<svg width="134" height="116" viewBox="0 0 134 116" fill="none" xmlns="http://www.w3.org/2000/svg">
<g clip-path="url(#clip0_58_13)">
<path d="M67 20.071C44.9082 20.071 27 -1.9822 27 20.071C27 30.6612 31.2143 40.8176 38.7157 48.3059C46.2172 55.7943 56.3913 60.0012 67 60.0012C77.6087 60.0012 87.7828 55.7943 95.2843 48.3059C102.786 40.8176 107 30.6612 107 20.071C107 -1.9822 89.0908 20.071 67 20.071Z" fill="#7CCCD4"/>
<path d="M86.8525 31.1841L86.1935 29.4141C86.1202 29.2169 85.9714 29.0569 85.7798 28.9692C85.5883 28.8815 85.3697 28.8734 85.1721 28.9466C84.9746 29.0198 84.8143 29.1684 84.7265 29.3596C84.6386 29.5508 84.6305 29.769 84.7039 29.9662L85.3629 31.7362C85.8312 32.9935 85.8145 34.3798 85.3159 35.6255C84.8172 36.8712 83.8724 37.8873 82.665 38.4762C81.4576 39.0651 80.0739 39.1848 78.7831 38.8119C77.4922 38.439 76.3864 37.6003 75.6806 36.4587L74.8765 35.1577C75.1167 34.7456 75.2655 34.2868 75.3127 33.8123C75.3599 33.3378 75.3044 32.8588 75.15 32.4076C74.9956 31.9564 74.7459 31.5435 74.4178 31.197C74.0897 30.8505 73.6909 30.5784 73.2483 30.3991C72.8057 30.2199 72.3297 30.1376 71.8525 30.158C71.3753 30.1783 70.908 30.3007 70.4823 30.517C70.0566 30.7333 69.6825 31.0383 69.3851 31.4115C69.0878 31.7846 68.8743 32.2172 68.759 32.6799H65.1569C65.0415 32.2174 64.8279 31.7851 64.5306 31.4121C64.2333 31.0391 63.8592 30.7343 63.4336 30.5181C63.0081 30.302 62.541 30.1796 62.0639 30.1592C61.5869 30.1389 61.111 30.221 60.6685 30.4001C60.2261 30.5793 59.8273 30.8512 59.4992 31.1974C59.1711 31.5437 58.9213 31.9563 58.7667 32.4073C58.6122 32.8583 58.5565 33.3371 58.6033 33.8115C58.6502 34.2858 58.7986 34.7446 59.0385 35.1567L58.2343 36.4578C57.7624 37.2209 57.1077 37.8549 56.3292 38.3025C55.5507 38.7501 54.6728 38.9973 53.7747 39.0218C52.8766 39.0462 51.9866 38.8472 51.1848 38.4427C50.3829 38.0382 49.6945 37.4408 49.1816 36.7045C48.6776 35.9909 48.3565 35.1648 48.2468 34.2986C48.137 33.4324 48.2418 32.5526 48.552 31.7362L52.361 21.5001C52.8421 20.2189 53.7025 19.1143 54.8279 18.3333C55.9533 17.5523 57.2903 17.1319 58.6609 17.128H75.254C76.6247 17.1319 77.9616 17.5523 79.087 18.3333C80.2124 19.1143 81.0729 20.2189 81.5539 21.5001L82.2129 23.2701C82.2863 23.4673 82.4351 23.6273 82.6266 23.715C82.8182 23.8026 83.0368 23.8108 83.2343 23.7375C83.4319 23.6643 83.5922 23.5158 83.68 23.3246C83.7678 23.1333 83.7759 22.9151 83.7026 22.7179L83.0436 20.948C82.4487 19.364 81.3849 17.9984 79.9936 17.0328C78.6024 16.0671 76.9495 15.5472 75.255 15.5421H73.4025C73.2143 14.4765 72.6564 13.511 71.8265 12.8148C70.9967 12.1187 69.9479 11.7364 68.8639 11.7349H67.7518V11.1397C67.7492 10.0154 67.3003 8.93797 66.5035 8.14343C65.7066 7.3489 64.6268 6.90204 63.5006 6.90075H55.1579C54.452 6.90075 53.775 6.62082 53.2759 6.12255C52.7768 5.62428 52.4963 4.94849 52.4963 4.24383C52.4963 3.53917 52.7768 2.86337 53.2759 2.3651C53.775 1.86683 54.452 1.58691 55.1579 1.58691H66.9673C67.1779 1.58691 67.38 1.50336 67.529 1.35465C67.6779 1.20594 67.7616 1.00425 67.7616 0.793941C67.7616 0.583634 67.6779 0.38194 67.529 0.23323C67.38 0.0845208 67.1779 0.000976563 66.9673 0.000976562H55.1579C54.0417 0.0179013 52.977 0.472411 52.1937 1.26635C51.4103 2.06029 50.9712 3.12995 50.9712 4.24432C50.9712 5.35869 51.4103 6.42834 52.1937 7.22228C52.977 8.01622 54.0417 8.47073 55.1579 8.48765H63.5006C64.2062 8.48843 64.8827 8.76861 65.3817 9.26671C65.8807 9.76481 66.1614 10.4402 66.1621 11.1446V11.7398H65.05C63.9661 11.7413 62.9173 12.1236 62.0874 12.8197C61.2576 13.5159 60.6996 14.4814 60.5114 15.547H58.6599C56.9655 15.552 55.3128 16.0718 53.9215 17.0373C52.5302 18.0027 51.4664 19.3681 50.8714 20.9519L47.0614 31.1841C46.668 32.2413 46.5366 33.3779 46.6785 34.4968C46.8204 35.6157 47.2313 36.6837 47.8762 37.6097C48.5211 38.5358 49.3808 39.2923 50.3821 39.8149C51.3833 40.3374 52.4963 40.6104 53.6261 40.6105C54.8213 40.6145 55.9973 40.3112 57.0411 39.73C58.0849 39.1488 58.9612 38.3091 59.5857 37.2918L60.1859 36.3207C60.6337 36.5922 61.1394 36.7546 61.6619 36.7946C62.1844 36.8345 62.709 36.751 63.1931 36.5508C63.6772 36.3505 64.1072 36.0392 64.4482 35.642C64.7893 35.2449 65.0317 34.7731 65.156 34.2649H68.757C68.8812 34.7731 69.1237 35.2449 69.4647 35.642C69.8058 36.0392 70.2358 36.3505 70.7199 36.5508C71.204 36.751 71.7286 36.8345 72.251 36.7946C72.7735 36.7546 73.2792 36.5922 73.7271 36.3207L74.3273 37.2918C75.241 38.7668 76.6712 39.8502 78.3402 40.3316C80.0092 40.813 81.7978 40.658 83.3587 39.8968C84.9197 39.1355 86.1415 37.8224 86.787 36.2123C87.4324 34.6022 87.4555 32.8101 86.8516 31.1841H86.8525ZM65.05 13.3257H68.8639C69.5262 13.3264 70.1699 13.5442 70.6963 13.9454C71.2226 14.3467 71.6025 14.9094 71.7775 15.547H62.1374C62.3124 14.9095 62.6921 14.347 63.2182 13.9457C63.7444 13.5445 64.3879 13.3267 65.05 13.3257ZM61.9119 35.2174C61.5662 35.2174 61.2283 35.1151 60.941 34.9234C60.6536 34.7317 60.4296 34.4593 60.2973 34.1405C60.165 33.8217 60.1304 33.471 60.1979 33.1325C60.2653 32.7941 60.4317 32.4833 60.6761 32.2393C60.9205 31.9953 61.2319 31.8292 61.5709 31.7619C61.9099 31.6946 62.2613 31.7291 62.5806 31.8612C62.9 31.9932 63.1729 32.2168 63.3649 32.5037C63.5569 32.7906 63.6594 33.1279 63.6594 33.4729C63.6589 33.9354 63.4746 34.3788 63.147 34.7059C62.8194 35.0329 62.3752 35.2169 61.9119 35.2174ZM70.2476 33.4729C70.2476 33.1279 70.3501 32.7906 70.5422 32.5037C70.7342 32.2168 71.0071 31.9932 71.3265 31.8612C71.6458 31.7291 71.9972 31.6946 72.3362 31.7619C72.6751 31.8292 72.9865 31.9953 73.2309 32.2393C73.4753 32.4833 73.6418 32.7941 73.7092 33.1325C73.7766 33.471 73.742 33.8217 73.6098 34.1405C73.4775 34.4593 73.2535 34.7317 72.9661 34.9234C72.6787 35.1151 72.3409 35.2174 71.9952 35.2174C71.5317 35.2169 71.0874 35.0328 70.7597 34.7055C70.4321 34.3783 70.2479 33.9356 70.2476 33.4729Z" fill="white"/>
<path d="M74.3341 24.3381C74.3341 24.8401 74.4833 25.3309 74.7627 25.7484C75.0421 26.1658 75.4392 26.4912 75.9039 26.6833C76.3685 26.8755 76.8798 26.9257 77.3731 26.8278C77.8664 26.7298 78.3195 26.488 78.6751 26.133C79.0308 25.778 79.273 25.3257 79.3711 24.8333C79.4692 24.3409 79.4188 23.8305 79.2264 23.3667C79.0339 22.9028 78.708 22.5064 78.2898 22.2274C77.8716 21.9485 77.38 21.7996 76.877 21.7996C76.2032 21.8014 75.5574 22.0694 75.0809 22.5451C74.6044 23.0208 74.3359 23.6654 74.3341 24.3381ZM77.8302 24.3381C77.8302 24.5263 77.7744 24.7103 77.6696 24.8668C77.5649 25.0232 77.416 25.1452 77.2418 25.2172C77.0676 25.2892 76.876 25.3081 76.6911 25.2714C76.5061 25.2346 76.3363 25.144 76.203 25.0109C76.0697 24.8779 75.9789 24.7083 75.9421 24.5237C75.9053 24.3391 75.9242 24.1478 75.9964 23.9739C76.0685 23.8001 76.1907 23.6515 76.3475 23.5469C76.5042 23.4423 76.6885 23.3865 76.877 23.3865C77.1298 23.3868 77.3721 23.4871 77.5508 23.6655C77.7295 23.8439 77.83 24.0858 77.8302 24.3381Z" fill="white"/>
<path d="M67.3438 24.3383C67.3438 24.8403 67.4929 25.3311 67.7723 25.7486C68.0517 26.166 68.4489 26.4914 68.9135 26.6835C69.3782 26.8756 69.8895 26.9259 70.3828 26.828C70.876 26.73 71.3291 26.4882 71.6848 26.1332C72.0404 25.7782 72.2826 25.3259 72.3807 24.8335C72.4788 24.3411 72.4285 23.8307 72.236 23.3668C72.0436 22.903 71.7176 22.5066 71.2994 22.2276C70.8812 21.9487 70.3896 21.7998 69.8867 21.7998C69.2128 21.8016 68.5671 22.0696 68.0906 22.5453C67.6141 23.021 67.3456 23.6656 67.3438 24.3383ZM70.8399 24.3383C70.8399 24.5265 70.784 24.7105 70.6793 24.8669C70.5745 25.0234 70.4256 25.1454 70.2515 25.2174C70.0773 25.2894 69.8856 25.3083 69.7007 25.2715C69.5158 25.2348 69.3459 25.1442 69.2126 25.0111C69.0793 24.878 68.9885 24.7085 68.9518 24.5239C68.915 24.3393 68.9339 24.148 69.006 23.9741C69.0782 23.8003 69.2003 23.6516 69.3571 23.5471C69.5139 23.4425 69.6981 23.3867 69.8867 23.3867C70.1394 23.387 70.3817 23.4873 70.5604 23.6657C70.7391 23.8441 70.8396 24.086 70.8399 24.3383Z" fill="white"/>
<path d="M59.1029 19.7373C58.4974 19.738 57.9149 19.9683 57.4732 20.3816C57.0314 20.795 56.7636 21.3604 56.7238 21.9635C56.1206 22.0041 55.5554 22.2719 55.1425 22.7127C54.7297 23.1535 54.5 23.7345 54.5 24.338C54.5 24.9415 54.7297 25.5224 55.1425 25.9632C55.5554 26.4041 56.1206 26.6719 56.7238 26.7125C56.7644 27.3146 57.0327 27.8788 57.4743 28.2909C57.9159 28.7031 58.4979 28.9323 59.1024 28.9323C59.7069 28.9323 60.2889 28.7031 60.7305 28.2909C61.1721 27.8788 61.4404 27.3146 61.481 26.7125C62.0842 26.6719 62.6494 26.4041 63.0623 25.9632C63.4751 25.5224 63.7048 24.9415 63.7048 24.338C63.7048 23.7345 63.4751 23.1535 63.0623 22.7127C62.6494 22.2719 62.0842 22.0041 61.481 21.9635C61.4413 21.3606 61.1735 20.7953 60.732 20.382C60.2905 19.9687 59.7082 19.7382 59.1029 19.7373ZM62.1224 24.3385C62.1221 24.5487 62.0384 24.7502 61.8895 24.8989C61.7405 25.0475 61.5387 25.1312 61.3281 25.1314H60.6926C60.4819 25.1314 60.2799 25.215 60.1309 25.3637C59.9819 25.5124 59.8982 25.7141 59.8982 25.9244V26.5588C59.8982 26.7691 59.8145 26.9708 59.6656 27.1195C59.5166 27.2682 59.3145 27.3517 59.1039 27.3517C58.8932 27.3517 58.6911 27.2682 58.5422 27.1195C58.3932 26.9708 58.3095 26.7691 58.3095 26.5588V25.9244C58.3095 25.7141 58.2258 25.5124 58.0769 25.3637C57.9279 25.215 57.7258 25.1314 57.5152 25.1314H56.8797C56.669 25.1314 56.467 25.0479 56.318 24.8992C56.169 24.7505 56.0853 24.5488 56.0853 24.3385C56.0853 24.1282 56.169 23.9265 56.318 23.7777C56.467 23.629 56.669 23.5455 56.8797 23.5455H57.5152C57.7258 23.5455 57.9279 23.4619 58.0769 23.3132C58.2258 23.1645 58.3095 22.9628 58.3095 22.7525V22.1142C58.3095 21.9039 58.3932 21.7023 58.5422 21.5535C58.6911 21.4048 58.8932 21.3213 59.1039 21.3213C59.3145 21.3213 59.5166 21.4048 59.6656 21.5535C59.8145 21.7023 59.8982 21.9039 59.8982 22.1142V22.7486C59.8982 22.9589 59.9819 23.1606 60.1309 23.3093C60.2799 23.458 60.4819 23.5416 60.6926 23.5416H61.3281C61.4326 23.5417 61.5361 23.5624 61.6326 23.6025C61.7291 23.6426 61.8167 23.7012 61.8905 23.7752C61.9643 23.8491 62.0227 23.9368 62.0625 24.0333C62.1023 24.1298 62.1227 24.2331 62.1224 24.3375V24.3385Z" fill="white"/>
<path d="M83.4084 26.344C83.4085 26.5277 83.4723 26.7057 83.5891 26.8477C83.7058 26.9897 83.8683 27.0869 84.0488 27.1227C84.2294 27.1584 84.4167 27.1307 84.579 27.044C84.7412 26.9573 84.8684 26.8172 84.9387 26.6474C85.0091 26.4776 85.0182 26.2888 84.9647 26.113C84.9112 25.9372 84.7983 25.7854 84.6452 25.6835C84.4921 25.5815 84.3083 25.5357 84.1252 25.5539C83.942 25.572 83.7709 25.653 83.6409 25.7831C83.4927 25.9323 83.4092 26.1338 83.4084 26.344Z" fill="white"/>
</g>
<path d="M10.9131 109.352C5.00977 109.352 1.23047 105.06 1.23047 98.3213V98.3066C1.23047 91.7002 5.00977 87.5107 10.9131 87.5107C15.7764 87.5107 18.6914 90.3086 19.6729 94.0439L19.7461 94.3223H16.9775L16.9189 94.1611C15.9375 91.4805 13.8867 89.9424 10.9131 89.9424C6.5625 89.9424 3.92578 93.0918 3.92578 98.3066V98.3213C3.92578 103.639 6.60645 106.92 10.9131 106.92C14.6631 106.92 17.2412 104.488 17.2412 100.943V100.562H11.2793V98.248H19.8779V100.255C19.8779 105.968 16.5527 109.352 10.9131 109.352ZM27.3193 109.293C24.2871 109.293 22.251 107.462 22.251 104.693V104.664C22.251 102.071 24.2725 100.445 27.7734 100.24L32.1387 99.9912V98.7168C32.1387 96.8564 30.9229 95.7285 28.7988 95.7285C26.8359 95.7285 25.6055 96.666 25.3125 98.0283L25.2832 98.1602H22.8223L22.8369 97.999C23.0566 95.4941 25.2393 93.4727 28.8281 93.4727C32.4316 93.4727 34.6875 95.4209 34.6875 98.4678V109H32.1387V106.524H32.0801C31.1865 108.194 29.3555 109.293 27.3193 109.293ZM24.8584 104.693C24.8584 106.158 26.0596 107.081 27.8906 107.081C30.293 107.081 32.1387 105.426 32.1387 103.214V101.969L28.0664 102.218C26.0303 102.335 24.8584 103.243 24.8584 104.664V104.693ZM37.9248 109V93.7656H40.4736V95.9922H40.5322C41.2207 94.4834 42.7441 93.4727 44.707 93.4727C46.7871 93.4727 48.3252 94.542 48.9844 96.4023H49.043C49.8926 94.5713 51.6797 93.4727 53.8184 93.4727C56.8359 93.4727 58.7842 95.4502 58.7842 98.4824V109H56.2354V99.0684C56.2354 96.9736 55.0781 95.7285 53.0713 95.7285C51.0498 95.7285 49.6289 97.2373 49.6289 99.3174V109H47.0801V98.79C47.0801 96.9443 45.8496 95.7285 43.96 95.7285C41.9385 95.7285 40.4736 97.3252 40.4736 99.4492V109H37.9248ZM68.3057 109.293C63.9258 109.293 61.2891 106.231 61.2891 101.441V101.427C61.2891 96.71 63.9844 93.4727 68.1445 93.4727C72.3047 93.4727 74.8389 96.5635 74.8389 101.134V102.071H63.8672C63.9258 105.206 65.6543 107.037 68.3643 107.037C70.2979 107.037 71.6602 106.07 72.0996 104.767L72.1436 104.635H74.6484L74.6191 104.781C74.1211 107.301 71.6309 109.293 68.3057 109.293ZM68.1299 95.7285C65.918 95.7285 64.1895 97.2373 63.9111 100.079H72.2461C71.9971 97.1201 70.3564 95.7285 68.1299 95.7285ZM82.2803 109L90.1465 87.8623H92.7539L100.605 109H97.8369L95.6982 102.95H87.1875L85.0488 109H82.2803ZM91.4209 91.0264L87.9932 100.709H94.9072L91.4795 91.0264H91.4209ZM102.642 114.127V93.7656H105.19V96.3438H105.249C106.201 94.5713 107.9 93.4727 110.083 93.4727C113.979 93.4727 116.558 96.5781 116.558 101.383V101.397C116.558 106.202 113.95 109.293 110.127 109.293C107.974 109.293 106.201 108.209 105.249 106.451H105.19V114.127H102.642ZM109.585 107.037C112.28 107.037 113.95 104.869 113.95 101.397V101.383C113.95 97.8818 112.28 95.7285 109.585 95.7285C107.007 95.7285 105.176 97.9697 105.176 101.383V101.397C105.176 104.796 107.021 107.037 109.585 107.037ZM119.136 114.127V93.7656H121.685V96.3438H121.743C122.695 94.5713 124.395 93.4727 126.577 93.4727C130.474 93.4727 133.052 96.5781 133.052 101.383V101.397C133.052 106.202 130.444 109.293 126.621 109.293C124.468 109.293 122.695 108.209 121.743 106.451H121.685V114.127H119.136ZM126.079 107.037C128.774 107.037 130.444 104.869 130.444 101.397V101.383C130.444 97.8818 128.774 95.7285 126.079 95.7285C123.501 95.7285 121.67 97.9697 121.67 101.383V101.397C121.67 104.796 123.516 107.037 126.079 107.037Z" fill="white" fill-opacity="0.7"/>
<defs>
<clipPath id="clip0_58_13">
<rect width="80" height="60" fill="white" transform="translate(27)"/>
</clipPath>
</defs>
</svg>
