<svg width="110" height="116" viewBox="0 0 110 116" fill="none" xmlns="http://www.w3.org/2000/svg">
<g clip-path="url(#clip0_58_7)">
<path d="M54 19.9555C31.9082 19.9555 14 -2.1609 14 19.9555C14 30.5759 18.2143 40.7614 25.7157 48.2712C33.2172 55.781 43.3913 60 54 60C64.6087 60 74.7828 55.781 82.2843 48.2712C89.7857 40.7614 94 30.5759 94 19.9555C94 -2.1609 76.0908 19.9555 54 19.9555Z" fill="#2A89A0"/>
<path d="M48.5518 22.4292C48.6633 22.4293 48.7729 22.4005 48.87 22.3457C48.9671 22.2908 49.0483 22.2117 49.1059 22.1161L50.2719 20.1771L51.8175 22.6315C51.8769 22.7261 51.9598 22.8036 52.058 22.8566C52.1563 22.9096 52.2666 22.9362 52.3782 22.9338C52.4898 22.9314 52.5989 22.9002 52.6948 22.8431C52.7907 22.786 52.8702 22.705 52.9256 22.6079L55.4136 18.2557L58.7548 24.3516C58.8095 24.4515 58.8897 24.5352 58.9872 24.5942C59.0847 24.6532 59.196 24.6853 59.3099 24.6873H59.3216C59.4336 24.6873 59.5436 24.6581 59.6409 24.6027C59.7382 24.5473 59.8194 24.4675 59.8767 24.3712L61.9587 20.8722H66.9788C67.1502 20.8722 67.3146 20.804 67.4358 20.6827C67.557 20.5613 67.625 20.3968 67.625 20.2252C67.625 20.0536 67.557 19.889 67.4358 19.7677C67.3146 19.6463 67.1502 19.5782 66.9788 19.5782H61.5919C61.4799 19.5782 61.3699 19.6074 61.2726 19.6628C61.1753 19.7182 61.0941 19.798 61.0368 19.8943L59.3452 22.7415L55.9922 16.625C55.937 16.5242 55.8558 16.4399 55.7572 16.3809C55.6587 16.3219 55.5461 16.2903 55.4313 16.2892H55.4254C55.3115 16.2893 55.1996 16.3194 55.1011 16.3767C55.0026 16.4339 54.9209 16.5162 54.8644 16.6152L52.3382 21.0332L50.8074 18.5974C50.7491 18.5048 50.6684 18.4285 50.5727 18.3756C50.477 18.3227 50.3694 18.295 50.2601 18.295H50.2533C50.1429 18.2961 50.0347 18.3255 49.9389 18.3803C49.8431 18.4351 49.763 18.5136 49.706 18.6082L48.187 21.1353H44.5133C44.3419 21.1353 44.1776 21.2034 44.0564 21.3248C43.9352 21.4461 43.8671 21.6107 43.8671 21.7823C43.8671 21.9539 43.9352 22.1184 44.0564 22.2398C44.1776 22.3611 44.3419 22.4292 44.5133 22.4292H48.5518Z" fill="white"/>
<path d="M68.1207 4.46748C67.9493 4.46748 67.785 4.53565 67.6638 4.65698C67.5426 4.77832 67.4745 4.94288 67.4745 5.11447V7.025H65.568C65.3966 7.025 65.2322 7.09316 65.111 7.2145C64.9898 7.33583 64.9218 7.50039 64.9218 7.67198C64.9218 7.84358 64.9898 8.00814 65.111 8.12947C65.2322 8.25081 65.3966 8.31897 65.568 8.31897H67.4745V10.2285C67.4745 10.4001 67.5426 10.5647 67.6638 10.686C67.785 10.8073 67.9493 10.8755 68.1207 10.8755C68.2921 10.8755 68.4565 10.8073 68.5777 10.686C68.6989 10.5647 68.767 10.4001 68.767 10.2285V8.31799H70.6734C70.8448 8.31799 71.0092 8.24983 71.1304 8.12849C71.2516 8.00716 71.3197 7.84259 71.3197 7.671C71.3197 7.49941 71.2516 7.33485 71.1304 7.21352C71.0092 7.09218 70.8448 7.02401 70.6734 7.02401H68.7709V5.11447C68.7709 5.02917 68.7541 4.94472 68.7214 4.86597C68.6886 4.78722 68.6407 4.71571 68.5802 4.65558C68.5198 4.59545 68.4481 4.54788 68.3692 4.5156C68.2904 4.48332 68.2059 4.46696 68.1207 4.46748Z" fill="white"/>
<path d="M70.4009 26.6409C71.95 24.9335 72.989 22.8248 73.3994 20.5551C73.8098 18.2854 73.5751 15.946 72.7221 13.8032C73.5365 13.193 74.2214 12.4266 74.7368 11.5487C75.2522 10.6708 75.5879 9.69889 75.7242 8.68974C75.8606 7.68059 75.7948 6.65436 75.5309 5.6709C75.267 4.68744 74.8101 3.76643 74.1869 2.96157C73.5637 2.15672 72.7867 1.48413 71.9012 0.983022C71.0156 0.481916 70.0393 0.162323 69.0291 0.0428816C68.0189 -0.0765601 66.9951 0.00653926 66.0173 0.287334C65.0396 0.568128 64.1274 1.041 63.3341 1.67837C63.2003 1.78565 63.1145 1.94175 63.0957 2.11233C63.0768 2.28292 63.1264 2.45401 63.2336 2.58798C63.3407 2.72195 63.4967 2.80781 63.6671 2.82668C63.8374 2.84555 64.0084 2.79589 64.1422 2.68861C65.2687 1.78005 66.6732 1.28742 68.1198 1.29351C69.3502 1.29278 70.5545 1.64853 71.5873 2.31783C72.6202 2.98713 73.4376 3.94138 73.9407 5.06543C74.4438 6.18947 74.6113 7.43526 74.4228 8.65247C74.2344 9.86967 73.6981 11.0063 72.8787 11.9251C72.0592 12.8439 70.9917 13.5057 69.8049 13.8306C68.6181 14.1554 67.3627 14.1295 66.1903 13.756C65.0179 13.3824 63.9785 12.6771 63.1976 11.7253C62.4167 10.7734 61.9277 9.61567 61.7895 8.39172C61.7895 8.38485 61.7895 8.377 61.7895 8.36914C61.7638 8.13735 61.7507 7.90432 61.7503 7.6711C61.7471 6.68553 61.9752 5.71299 62.4162 4.83182C62.4542 4.75582 62.4768 4.67307 62.4829 4.58829C62.4889 4.50352 62.4782 4.41839 62.4514 4.33775C62.4246 4.25711 62.3822 4.18255 62.3266 4.11833C62.271 4.05411 62.2033 4.00147 62.1274 3.96344C62.0514 3.92541 61.9688 3.90272 61.8841 3.89666C61.7994 3.89061 61.7144 3.90131 61.6338 3.92816C61.5533 3.95501 61.4788 3.99748 61.4147 4.05314C61.3505 4.1088 61.2979 4.17657 61.26 4.25257C60.7288 5.31345 60.454 6.48442 60.4578 7.6711C60.4578 7.78008 60.4578 7.88807 60.4646 7.99509C58.802 8.59715 57.2897 9.55313 56.0319 10.7971L55.317 11.5L55.3072 11.4902L54.6051 10.7971C53.5397 9.71106 52.2693 8.84799 50.8677 8.25807C49.4661 7.66816 47.9613 7.36317 46.4409 7.36086C45.2734 7.37072 44.1203 7.61969 43.0525 8.09245C41.9848 8.56521 41.025 9.25176 40.2322 10.1098C40.1152 10.2352 40.0527 10.402 40.0584 10.5735C40.0642 10.745 40.1379 10.9072 40.2631 11.0243C40.3883 11.1415 40.5549 11.2041 40.7262 11.1983C40.8976 11.1925 41.0596 11.1188 41.1766 10.9934C41.8516 10.2637 42.6685 9.67991 43.5772 9.27792C44.4859 8.87592 45.4671 8.66422 46.4605 8.65582C47.8082 8.66181 49.1413 8.93576 50.3824 9.46176C51.6234 9.98777 52.7478 10.7553 53.6901 11.7199L54.3932 12.414C54.6211 12.696 54.951 12.8763 55.3111 12.9157C55.6656 12.8775 55.9908 12.7012 56.2163 12.4248L56.9312 11.7219C57.9892 10.6776 59.248 9.85926 60.6313 9.31655C60.8817 10.4633 61.3916 11.5372 62.1218 12.4556C62.8519 13.374 63.7829 14.1124 64.843 14.6139C65.9031 15.1154 67.064 15.3667 68.2364 15.3484C69.4087 15.33 70.5612 15.0426 71.6052 14.5082C72.3134 16.3986 72.4879 18.4478 72.1098 20.4311C71.7317 22.4143 70.8154 24.255 69.4614 25.7514L60.1812 35.2618L59.4133 35.412L58.9122 35.5102C58.1469 35.722 57.3417 35.7452 56.5654 35.578L51.0364 34.5658C50.9253 34.541 50.8204 34.494 50.7278 34.4277C50.6353 34.3615 50.557 34.2772 50.4977 34.18C50.4384 34.0828 50.3993 33.9746 50.3826 33.8619C50.366 33.7492 50.3722 33.6343 50.4009 33.5241C50.4344 33.3221 50.5455 33.1412 50.7104 33.02C50.8752 32.8987 51.0809 32.8468 51.2835 32.8751H51.2992L52.0945 32.9733C53.1419 33.1088 54.3275 33.262 55.3808 33.366C57.5383 33.584 58.7543 32.452 59.0093 31.2317C59.2672 29.9878 58.5592 28.3354 56.3958 27.6443C56.3693 27.6363 56.3425 27.6297 56.3154 27.6246L52.7545 26.9708C50.8473 26.7064 48.9067 26.8195 47.043 27.3036C46.4419 27.4136 45.7583 27.5363 44.9983 27.6619L43.3106 27.9398L42.7908 27.4077L41.1648 25.7524C39.6725 24.0894 38.7181 22.013 38.4273 19.7965C38.1366 17.58 38.5231 15.3273 39.5359 13.3349C39.6087 13.1828 39.6192 13.0083 39.5653 12.8485C39.5114 12.6887 39.3973 12.5563 39.2473 12.4795C39.0973 12.4027 38.9233 12.3876 38.7624 12.4373C38.6014 12.4871 38.4662 12.5978 38.3856 12.7459C37.2543 14.9773 36.8251 17.4994 37.1544 19.9799C37.4837 22.4604 38.5561 24.7828 40.2302 26.6409L40.24 26.6517L41.7532 28.2068L38.9279 28.6722V28.5986C38.9172 28.3484 38.808 28.1127 38.6243 27.9429C38.4405 27.7731 38.1971 27.6831 37.9472 27.6924H32.6329C32.3829 27.6828 32.1394 27.7728 31.9556 27.9426C31.7718 28.1125 31.6627 28.3483 31.6522 28.5986V39.9871C31.6627 40.2373 31.7718 40.4732 31.9556 40.643C32.1394 40.8129 32.3829 40.9028 32.6329 40.8933H37.9502C38.2 40.9026 38.4435 40.8125 38.6272 40.6427C38.811 40.4729 38.9201 40.2372 38.9308 39.9871V39.9086L44.7443 41.4922L50.1106 42.952C51.1161 43.2887 52.1671 43.4691 53.2272 43.4871C54.6793 43.4162 56.1102 43.1092 57.4637 42.578L57.9011 42.4366L68.4758 39.0417C69.0384 38.8891 69.5506 38.5901 69.9602 38.175C70.3698 37.7599 70.6623 37.2436 70.8079 36.6785C70.9021 36.2806 70.8889 35.8648 70.7697 35.4737C70.6504 35.0826 70.4294 34.7302 70.1292 34.4529C69.6389 34.0071 68.4827 33.366 66.2565 34.0719L62.4172 34.824L70.3891 26.6517L70.3989 26.6409H70.4009ZM32.9448 39.5964V28.9854H37.6344V29.4301V39.5964H32.9448ZM66.6115 35.3158C67.804 34.9329 68.769 34.9673 69.2594 35.414C69.391 35.5389 69.4867 35.6969 69.5364 35.8716C69.5861 36.0462 69.588 36.231 69.5418 36.4066C69.4421 36.7485 69.2545 37.0582 68.9977 37.3048C68.741 37.5513 68.424 37.7261 68.0786 37.8115L57.502 41.2045L57.0617 41.3469C54.5315 42.1647 53.2625 42.576 50.4833 41.7111L50.4607 41.7042L38.9308 38.5626V29.9828L45.2072 28.95C45.978 28.8234 46.6664 28.6967 47.2745 28.5868C48.9848 28.1354 50.7667 28.0227 52.5201 28.2549L56.0398 28.9009C57.4127 29.3526 57.8854 30.2921 57.7423 30.9793C57.5775 31.7736 56.7017 32.2095 55.5122 32.0887C54.4766 31.9827 53.2988 31.8305 52.2602 31.696L51.4688 31.5979C50.9452 31.5199 50.4117 31.6459 49.9782 31.95C49.5447 32.2542 49.2442 32.7132 49.1387 33.2325C49.0902 33.4408 49.0723 33.6552 49.0858 33.8687C49.1135 34.3189 49.2822 34.749 49.5679 35.0977C49.8536 35.4465 50.2418 35.6963 50.6774 35.8116C50.7039 35.8205 51.0609 35.8862 51.0609 35.8862L56.3399 36.8523H56.3575C57.0912 37.0081 57.8481 37.0208 58.5866 36.8896C58.7612 36.8582 59.4751 36.7139 59.6585 36.6785L60.8226 36.4508C60.8226 36.4508 66.586 35.3207 66.6086 35.3129L66.6115 35.3158Z" fill="white"/>
</g>
<path d="M0.366211 109L8.23242 87.8623H10.8398L18.6914 109H15.9229L13.7842 102.95H5.27344L3.13477 109H0.366211ZM9.50684 91.0264L6.0791 100.709H12.9932L9.56543 91.0264H9.50684ZM21.123 109V87.8623H29.0479C33.1201 87.8623 35.7861 90.3525 35.7861 94.1611V94.1904C35.7861 97.1201 34.1748 99.3906 31.5381 100.226L36.4307 109H33.3398L28.8135 100.636H23.7598V109H21.123ZM23.7598 98.3066H28.8135C31.5234 98.3066 33.0615 96.8418 33.0615 94.249V94.2197C33.0615 91.7002 31.4062 90.2061 28.6963 90.2061H23.7598V98.3066ZM43.5791 109L51.4453 87.8623H54.0527L61.9043 109H59.1357L56.9971 102.95H48.4863L46.3477 109H43.5791ZM52.7197 91.0264L49.292 100.709H56.2061L52.7783 91.0264H52.7197ZM63.9404 114.127V93.7656H66.4893V96.3438H66.5479C67.5 94.5713 69.1992 93.4727 71.3818 93.4727C75.2783 93.4727 77.8564 96.5781 77.8564 101.383V101.397C77.8564 106.202 75.249 109.293 71.4258 109.293C69.2725 109.293 67.5 108.209 66.5479 106.451H66.4893V114.127H63.9404ZM70.8838 107.037C73.5791 107.037 75.249 104.869 75.249 101.397V101.383C75.249 97.8818 73.5791 95.7285 70.8838 95.7285C68.3057 95.7285 66.4746 97.9697 66.4746 101.383V101.397C66.4746 104.796 68.3203 107.037 70.8838 107.037ZM80.4346 114.127V93.7656H82.9834V96.3438H83.042C83.9941 94.5713 85.6934 93.4727 87.876 93.4727C91.7725 93.4727 94.3506 96.5781 94.3506 101.383V101.397C94.3506 106.202 91.7432 109.293 87.9199 109.293C85.7666 109.293 83.9941 108.209 83.042 106.451H82.9834V114.127H80.4346ZM87.3779 107.037C90.0732 107.037 91.7432 104.869 91.7432 101.397V101.383C91.7432 97.8818 90.0732 95.7285 87.3779 95.7285C84.7998 95.7285 82.9688 97.9697 82.9688 101.383V101.397C82.9688 104.796 84.8145 107.037 87.3779 107.037ZM102.334 109.293C98.7451 109.293 96.5771 107.462 96.2695 104.737L96.2549 104.605H98.8037L98.833 104.752C99.1406 106.275 100.269 107.169 102.349 107.169C104.414 107.169 105.645 106.305 105.645 104.928V104.913C105.645 103.814 105.073 103.199 103.345 102.774L100.928 102.188C98.0566 101.5 96.665 100.167 96.665 97.9697V97.9551C96.665 95.333 98.9648 93.4727 102.261 93.4727C105.601 93.4727 107.725 95.4209 107.915 97.9697L107.93 98.1602H105.498L105.483 98.0576C105.278 96.5781 104.15 95.5967 102.261 95.5967C100.415 95.5967 99.2725 96.4902 99.2725 97.8379V97.8525C99.2725 98.8926 99.9609 99.6104 101.646 100.021L104.062 100.606C107.139 101.354 108.252 102.569 108.252 104.737V104.752C108.252 107.418 105.732 109.293 102.334 109.293Z" fill="white" fill-opacity="0.7"/>
<defs>
<clipPath id="clip0_58_7">
<rect width="80" height="60" fill="white" transform="translate(14)"/>
</clipPath>
</defs>
</svg>
