<svg width="163" height="116" viewBox="0 0 163 116" fill="none" xmlns="http://www.w3.org/2000/svg">
<g clip-path="url(#clip0_58_11)">
<path d="M82 20.071C59.9082 20.071 42 -1.9822 42 20.071C42 30.6612 46.2143 40.8176 53.7157 48.3059C61.2172 55.7943 71.3913 60.0012 82 60.0012C92.6087 60.0012 102.783 55.7943 110.284 48.3059C117.786 40.8176 122 30.6612 122 20.071C122 -1.9822 104.091 20.071 82 20.071Z" fill="#DFA539"/>
<path d="M106.644 5.15426H104.094V3.04067C104.092 2.23643 103.771 1.46572 103.201 0.897027C102.631 0.328339 101.859 0.00793059 101.054 0.00586311H98.6216C97.816 0.00793059 97.0439 0.328339 96.4742 0.897027C95.9046 1.46572 95.5836 2.23643 95.5815 3.04067V11.7437H91.5107V9.40689C91.5113 8.84175 91.3558 8.28739 91.0612 7.80481C90.7665 7.32223 90.3443 6.93014 89.8408 6.67167C89.3374 6.41319 88.7722 6.29837 88.2076 6.33982C87.643 6.38127 87.1008 6.57739 86.6407 6.90661C86.3973 6.39662 86.0178 5.96345 85.5439 5.65466C85.07 5.34588 84.5201 5.17341 83.9544 5.15622C83.3888 5.13902 82.8294 5.27775 82.3375 5.55718C81.8457 5.83661 81.4405 6.24593 81.1665 6.74019C80.8317 6.48207 80.4471 6.29575 80.0369 6.19289C79.6266 6.09003 79.1995 6.07285 78.7823 6.14242C78.365 6.21199 77.9667 6.3668 77.6122 6.59719C77.2577 6.82757 76.9546 7.12855 76.7221 7.48127C76.275 7.0984 75.7274 6.85159 75.1441 6.77012C74.5608 6.68865 73.9663 6.77596 73.4312 7.02166C72.8961 7.26736 72.4428 7.66115 72.1252 8.1563C71.8075 8.65144 71.6389 9.22716 71.6392 9.81513V11.7437H67.8322V9.50284C67.8322 9.29227 67.7484 9.09032 67.5992 8.94143C67.4501 8.79254 67.2478 8.70889 67.0369 8.70889C66.8259 8.70889 66.6236 8.79254 66.4745 8.94143C66.3253 9.09032 66.2415 9.29227 66.2415 9.50284V27.9466C66.2413 28.3316 66.088 28.7007 65.8153 28.9729C65.5426 29.2451 65.1728 29.3982 64.7872 29.3984H62.358C61.9724 29.3982 61.6026 29.2451 61.3299 28.9729C61.0572 28.7007 60.9039 28.3316 60.9037 27.9466V3.04164C60.9034 2.65625 61.0565 2.28653 61.3292 2.01374C61.6019 1.74095 61.972 1.58742 62.358 1.5869H64.7872C65.1728 1.58716 65.5426 1.7402 65.8153 2.01241C66.088 2.28462 66.2413 2.65374 66.2415 3.0387V6.11659C66.2415 6.32716 66.3253 6.52909 66.4745 6.67798C66.6236 6.82688 66.8259 6.91052 67.0369 6.91052C67.2478 6.91052 67.4501 6.82688 67.5992 6.67798C67.7484 6.52909 67.8322 6.32716 67.8322 6.11659V3.0387C67.8301 2.23446 67.5092 1.46374 66.9395 0.895055C66.3698 0.326367 65.5977 0.00597373 64.7921 0.00390625H62.358C61.5524 0.00597373 60.7803 0.326367 60.2106 0.895055C59.641 1.46374 59.32 2.23446 59.3179 3.0387V5.1523H56.7681C56.4756 5.15218 56.1858 5.20958 55.9154 5.32124C55.645 5.4329 55.3993 5.59663 55.1924 5.80307C54.9854 6.00952 54.8211 6.25463 54.709 6.52444C54.597 6.79424 54.5392 7.08345 54.5391 7.37554V23.6137C54.5398 24.2026 54.7745 24.7671 55.1917 25.1835C55.6088 25.5999 56.1743 25.8342 56.7642 25.835H59.314V27.9486C59.3161 28.7528 59.637 29.5235 60.2067 30.0922C60.7764 30.6609 61.5485 30.9813 62.3541 30.9834H64.7872C65.5928 30.9813 66.3649 30.6609 66.9346 30.0922C67.5043 29.5235 67.8252 28.7528 67.8273 27.9486V19.2455H70.5526V20.6954C70.5532 21.4424 70.8131 22.1661 71.2881 22.7434L73.7604 25.7381V40.031C73.7604 40.2416 73.8442 40.4435 73.9933 40.5924C74.1425 40.7413 74.3448 40.8249 74.5557 40.8249C74.7667 40.8249 74.969 40.7413 75.1181 40.5924C75.2673 40.4435 75.3511 40.2416 75.3511 40.031V25.4532C75.3509 25.2692 75.2868 25.091 75.1696 24.949L72.5218 21.7311C72.2808 21.4384 72.1487 21.0714 72.1482 20.6924V19.2426L87.1889 19.3346C87.3998 19.3346 87.6021 19.251 87.7512 19.1021C87.9004 18.9532 87.9842 18.7512 87.9842 18.5407C87.9842 18.3301 87.9004 18.1282 87.7512 17.9793C87.6021 17.8304 87.3998 17.7467 87.1889 17.7467H83.5672C83.3864 17.7516 83.2064 17.7202 83.0379 17.6545C82.8693 17.5888 82.7157 17.49 82.5861 17.364C82.4565 17.238 82.3534 17.0874 82.2831 16.921C82.2127 16.7546 82.1764 16.5759 82.1764 16.3953C82.1764 16.2147 82.2127 16.0359 82.2831 15.8695C82.3534 15.7031 82.4565 15.5525 82.5861 15.4265C82.7157 15.3005 82.8693 15.2018 83.0379 15.136C83.2064 15.0703 83.3864 15.0389 83.5672 15.0438H90.4055C90.6314 15.0441 90.848 15.1338 91.0078 15.2933C91.1676 15.4527 91.2575 15.669 91.2577 15.8945V20.6915C91.2572 21.0704 91.1252 21.4375 90.8841 21.7301L88.2362 24.948C88.1191 25.09 88.0549 25.2682 88.0548 25.4522V27.5462C88.0548 27.7568 88.1386 27.9587 88.2878 28.1076C88.4369 28.2565 88.6392 28.3401 88.8501 28.3401C89.0611 28.3401 89.2634 28.2565 89.4125 28.1076C89.5617 27.9587 89.6455 27.7568 89.6455 27.5462V25.7371L92.1158 22.7395C92.5908 22.1622 92.8507 21.4385 92.8513 20.6915V19.2416H95.5766V27.9446C95.5787 28.7489 95.8997 29.5196 96.4693 30.0883C97.039 30.657 97.8111 30.9774 98.6167 30.9794H101.046C101.852 30.9774 102.624 30.657 103.193 30.0883C103.763 29.5196 104.084 28.7489 104.086 27.9446V25.8311H106.636C107.226 25.8324 107.793 25.5995 108.212 25.1838C108.631 24.768 108.867 24.2033 108.869 23.6137V7.37554C108.868 6.78658 108.634 6.22189 108.216 5.80543C107.799 5.38897 107.234 5.15478 106.644 5.15426ZM56.7652 24.2441C56.597 24.2439 56.4358 24.1771 56.3168 24.0583C56.1979 23.9396 56.131 23.7787 56.1307 23.6108V7.37554C56.131 7.20763 56.1979 7.04668 56.3168 6.92795C56.4358 6.80923 56.597 6.7424 56.7652 6.74214H59.315V24.2432L56.7652 24.2441ZM88.4265 7.91984C88.8214 7.92036 89.2 8.07721 89.4793 8.35597C89.7585 8.63474 89.9156 9.01266 89.9161 9.40689V12.3624C89.9158 12.5681 89.8726 12.7716 89.7894 12.9598C89.7062 13.1481 89.5847 13.317 89.4327 13.4559H87.4183C87.2663 13.317 87.1448 13.1481 87.0616 12.9598C86.9784 12.7716 86.9352 12.5681 86.9349 12.3624V9.40689C86.9351 9.01232 87.0923 8.63399 87.3717 8.35498C87.6512 8.07598 88.0302 7.91912 88.4255 7.91886L88.4265 7.91984ZM82.3659 8.23018C82.3659 7.83579 82.5228 7.45755 82.8022 7.17867C83.0815 6.8998 83.4604 6.74313 83.8555 6.74313C84.2506 6.74313 84.6295 6.8998 84.9089 7.17867C85.1882 7.45755 85.3452 7.83579 85.3452 8.23018V12.3634C85.3448 12.5691 85.3017 12.7726 85.2184 12.9608C85.1352 13.149 85.0137 13.318 84.8617 13.4569H83.5672C83.3521 13.457 83.1377 13.4806 82.9278 13.5274C82.7513 13.3888 82.6087 13.2121 82.5106 13.0104C82.4126 12.8088 82.3618 12.5875 82.362 12.3634V8.23018H82.3659ZM77.7949 9.17587C77.7949 8.78134 77.9519 8.40298 78.2314 8.12401C78.5108 7.84505 78.8899 7.68832 79.2851 7.68832C79.6803 7.68832 80.0593 7.84505 80.3388 8.12401C80.6182 8.40298 80.7752 8.78134 80.7752 9.17587V12.3624C80.7752 12.5577 80.7367 12.7512 80.6618 12.9317C80.5869 13.1121 80.4771 13.2761 80.3388 13.4142C80.2004 13.5524 80.0361 13.662 79.8553 13.7367C79.6745 13.8115 79.4808 13.8499 79.2851 13.8499C79.0894 13.8499 78.8956 13.8115 78.7148 13.7367C78.534 13.662 78.3697 13.5524 78.2314 13.4142C78.093 13.2761 77.9832 13.1121 77.9084 12.9317C77.8335 12.7512 77.7949 12.5577 77.7949 12.3624V9.17587ZM73.224 9.81513C73.224 9.42074 73.3809 9.0425 73.6603 8.76363C73.9396 8.48475 74.3185 8.32807 74.7136 8.32807C75.1087 8.32807 75.4876 8.48475 75.767 8.76363C76.0463 9.0425 76.2033 9.42074 76.2033 9.81513V12.3604C76.2033 12.7548 76.0463 13.1331 75.767 13.4119C75.4876 13.6908 75.1087 13.8475 74.7136 13.8475C74.3185 13.8475 73.9396 13.6908 73.6603 13.4119C73.3809 13.1331 73.224 12.7548 73.224 12.3604V9.81513ZM67.8302 13.3316H71.7892C71.9589 13.8417 72.2597 14.2985 72.6615 14.6563C73.0634 15.0141 73.5522 15.2604 74.0792 15.3707C74.6062 15.4809 75.1529 15.4513 75.6649 15.2847C76.1768 15.1181 76.636 14.8203 76.9966 14.4212C77.4986 14.9786 78.1878 15.3329 78.9338 15.4172C79.6798 15.5014 80.4309 15.3097 81.0449 14.8784C80.7941 15.2936 80.6503 15.7644 80.6261 16.2487C80.602 16.733 80.6984 17.2157 80.9066 17.6537H67.8312L67.8302 13.3316ZM92.8493 17.6557V15.8935C92.8481 15.3934 92.6934 14.9055 92.406 14.4958C92.1187 14.086 91.7124 13.774 91.242 13.6018C91.2812 13.513 91.3162 13.4223 91.347 13.3296H95.5747V17.6537L92.8493 17.6557ZM107.278 23.6137C107.278 23.7816 107.211 23.9425 107.092 24.0613C106.973 24.18 106.812 24.2468 106.644 24.2471H104.094V21.9494C104.094 21.7389 104.01 21.5369 103.861 21.388C103.712 21.2391 103.509 21.1555 103.299 21.1555C103.088 21.1555 102.885 21.2391 102.736 21.388C102.587 21.5369 102.503 21.7389 102.503 21.9494V27.9456C102.503 28.3306 102.35 28.6997 102.077 28.9719C101.804 29.2441 101.434 29.3972 101.049 29.3974H98.6216C98.236 29.3972 97.8662 29.2441 97.5935 28.9719C97.3209 28.6997 97.1675 28.3306 97.1673 27.9456V3.04067C97.1678 2.65579 97.3212 2.2868 97.5938 2.01465C97.8665 1.74249 98.2361 1.58938 98.6216 1.58886H101.051C101.436 1.58912 101.806 1.74215 102.079 2.01436C102.352 2.28658 102.505 2.65571 102.505 3.04067V18.5661C102.505 18.7767 102.589 18.9786 102.738 19.1275C102.887 19.2764 103.09 19.3601 103.3 19.3601C103.511 19.3601 103.714 19.2764 103.863 19.1275C104.012 18.9786 104.096 18.7767 104.096 18.5661V6.74214H106.646C106.814 6.7424 106.975 6.80923 107.094 6.92795C107.213 7.04668 107.28 7.20763 107.28 7.37554L107.278 23.6137Z" fill="white"/>
<path d="M88.8501 30.1365C88.6392 30.1365 88.4369 30.2201 88.2877 30.369C88.1386 30.5179 88.0547 30.7198 88.0547 30.9304V40.0289C88.0547 40.2395 88.1386 40.4415 88.2877 40.5904C88.4369 40.7393 88.6392 40.8229 88.8501 40.8229C89.0611 40.8229 89.2634 40.7393 89.4125 40.5904C89.5617 40.4415 89.6454 40.2395 89.6454 40.0289V30.9304C89.6454 30.7198 89.5617 30.5179 89.4125 30.369C89.2634 30.2201 89.0611 30.1365 88.8501 30.1365Z" fill="white"/>
</g>
<path d="M2.05078 109V87.8623H14.8828V90.2354H4.6875V97.501H14.0479V99.8447H4.6875V109H2.05078ZM18.9404 91.1875C18.0615 91.1875 17.3438 90.4697 17.3438 89.5908C17.3438 88.6973 18.0615 87.9941 18.9404 87.9941C19.834 87.9941 20.5371 88.6973 20.5371 89.5908C20.5371 90.4697 19.834 91.1875 18.9404 91.1875ZM17.666 109V93.7656H20.2148V109H17.666ZM28.6377 109.293C25.8398 109.293 24.4629 108.033 24.4629 105.118V95.875H22.2363V93.7656H24.4629V89.6494H27.0996V93.7656H30V95.875H27.0996V105.104C27.0996 106.729 27.8174 107.184 29.1797 107.184C29.4873 107.184 29.7803 107.14 30 107.125V109.19C29.6777 109.234 29.1357 109.293 28.6377 109.293ZM32.7393 109V93.7656H35.2881V95.9336H35.3467C36.167 94.5127 37.7197 93.4727 40.0342 93.4727C43.374 93.4727 45.3076 95.6406 45.3076 99.1123V109H42.7588V99.5664C42.7588 97.0908 41.6016 95.7285 39.2578 95.7285C36.8555 95.7285 35.2881 97.4424 35.2881 100.035V109H32.7393ZM54.8291 109.293C50.4492 109.293 47.8125 106.231 47.8125 101.441V101.427C47.8125 96.71 50.5078 93.4727 54.668 93.4727C58.8281 93.4727 61.3623 96.5635 61.3623 101.134V102.071H50.3906C50.4492 105.206 52.1777 107.037 54.8877 107.037C56.8213 107.037 58.1836 106.07 58.623 104.767L58.667 104.635H61.1719L61.1426 104.781C60.6445 107.301 58.1543 109.293 54.8291 109.293ZM54.6533 95.7285C52.4414 95.7285 50.7129 97.2373 50.4346 100.079H58.7695C58.5205 97.1201 56.8799 95.7285 54.6533 95.7285ZM69.3457 109.293C65.7568 109.293 63.5889 107.462 63.2812 104.737L63.2666 104.605H65.8154L65.8447 104.752C66.1523 106.275 67.2803 107.169 69.3604 107.169C71.4258 107.169 72.6562 106.305 72.6562 104.928V104.913C72.6562 103.814 72.085 103.199 70.3564 102.774L67.9395 102.188C65.0684 101.5 63.6768 100.167 63.6768 97.9697V97.9551C63.6768 95.333 65.9766 93.4727 69.2725 93.4727C72.6123 93.4727 74.7363 95.4209 74.9268 97.9697L74.9414 98.1602H72.5098L72.4951 98.0576C72.29 96.5781 71.1621 95.5967 69.2725 95.5967C67.4268 95.5967 66.2842 96.4902 66.2842 97.8379V97.8525C66.2842 98.8926 66.9727 99.6104 68.6572 100.021L71.0742 100.606C74.1504 101.354 75.2637 102.569 75.2637 104.737V104.752C75.2637 107.418 72.7441 109.293 69.3457 109.293ZM83.3203 109.293C79.7314 109.293 77.5635 107.462 77.2559 104.737L77.2412 104.605H79.79L79.8193 104.752C80.127 106.275 81.2549 107.169 83.335 107.169C85.4004 107.169 86.6309 106.305 86.6309 104.928V104.913C86.6309 103.814 86.0596 103.199 84.3311 102.774L81.9141 102.188C79.043 101.5 77.6514 100.167 77.6514 97.9697V97.9551C77.6514 95.333 79.9512 93.4727 83.2471 93.4727C86.5869 93.4727 88.7109 95.4209 88.9014 97.9697L88.916 98.1602H86.4844L86.4697 98.0576C86.2646 96.5781 85.1367 95.5967 83.2471 95.5967C81.4014 95.5967 80.2588 96.4902 80.2588 97.8379V97.8525C80.2588 98.8926 80.9473 99.6104 82.6318 100.021L85.0488 100.606C88.125 101.354 89.2383 102.569 89.2383 104.737V104.752C89.2383 107.418 86.7188 109.293 83.3203 109.293ZM96.7529 109L104.619 87.8623H107.227L115.078 109H112.31L110.171 102.95H101.66L99.5215 109H96.7529ZM105.894 91.0264L102.466 100.709H109.38L105.952 91.0264H105.894ZM117.114 114.127V93.7656H119.663V96.3438H119.722C120.674 94.5713 122.373 93.4727 124.556 93.4727C128.452 93.4727 131.03 96.5781 131.03 101.383V101.397C131.03 106.202 128.423 109.293 124.6 109.293C122.446 109.293 120.674 108.209 119.722 106.451H119.663V114.127H117.114ZM124.058 107.037C126.753 107.037 128.423 104.869 128.423 101.397V101.383C128.423 97.8818 126.753 95.7285 124.058 95.7285C121.479 95.7285 119.648 97.9697 119.648 101.383V101.397C119.648 104.796 121.494 107.037 124.058 107.037ZM133.608 114.127V93.7656H136.157V96.3438H136.216C137.168 94.5713 138.867 93.4727 141.05 93.4727C144.946 93.4727 147.524 96.5781 147.524 101.383V101.397C147.524 106.202 144.917 109.293 141.094 109.293C138.94 109.293 137.168 108.209 136.216 106.451H136.157V114.127H133.608ZM140.552 107.037C143.247 107.037 144.917 104.869 144.917 101.397V101.383C144.917 97.8818 143.247 95.7285 140.552 95.7285C137.974 95.7285 136.143 97.9697 136.143 101.383V101.397C136.143 104.796 137.988 107.037 140.552 107.037ZM155.508 109.293C151.919 109.293 149.751 107.462 149.443 104.737L149.429 104.605H151.978L152.007 104.752C152.314 106.275 153.442 107.169 155.522 107.169C157.588 107.169 158.818 106.305 158.818 104.928V104.913C158.818 103.814 158.247 103.199 156.519 102.774L154.102 102.188C151.23 101.5 149.839 100.167 149.839 97.9697V97.9551C149.839 95.333 152.139 93.4727 155.435 93.4727C158.774 93.4727 160.898 95.4209 161.089 97.9697L161.104 98.1602H158.672L158.657 98.0576C158.452 96.5781 157.324 95.5967 155.435 95.5967C153.589 95.5967 152.446 96.4902 152.446 97.8379V97.8525C152.446 98.8926 153.135 99.6104 154.819 100.021L157.236 100.606C160.312 101.354 161.426 102.569 161.426 104.737V104.752C161.426 107.418 158.906 109.293 155.508 109.293Z" fill="white" fill-opacity="0.7"/>
<defs>
<clipPath id="clip0_58_11">
<rect width="80" height="60" fill="white" transform="translate(42)"/>
</clipPath>
</defs>
</svg>
