<svg width="148" height="116" viewBox="0 0 148 116" fill="none" xmlns="http://www.w3.org/2000/svg">
<g clip-path="url(#clip0_58_9)">
<path d="M74 17.8057C51.9082 17.8057 34 -5.49806 34 17.8057C34 28.9964 38.2143 39.7287 45.7157 47.6417C53.2172 55.5547 63.3913 60.0002 74 60.0002C84.6087 60.0002 94.7828 55.5547 102.284 47.6417C109.786 39.7287 114 28.9964 114 17.8057C114 -5.49806 96.0908 17.8057 74 17.8057Z" fill="#EF8282"/>
<path d="M62.2426 22.8899H60.495C59.9609 22.891 59.4481 22.6686 59.0692 22.2714C58.6903 21.8743 58.4762 21.3348 58.4739 20.7713C58.4739 20.6009 58.4097 20.4375 58.2955 20.3171C58.1813 20.1966 58.0264 20.1289 57.8649 20.1289C57.7033 20.1289 57.5484 20.1966 57.4342 20.3171C57.32 20.4375 57.2559 20.6009 57.2559 20.7713C57.2585 21.6749 57.6006 22.5406 58.2072 23.1785C58.8138 23.8165 59.6355 24.1748 60.4921 24.1748H62.2387C62.3187 24.1748 62.3979 24.1581 62.4718 24.1259C62.5456 24.0936 62.6128 24.0463 62.6693 23.9866C62.7259 23.927 62.7707 23.8561 62.8013 23.7782C62.8319 23.7003 62.8477 23.6167 62.8477 23.5323C62.8477 23.448 62.8319 23.3645 62.8013 23.2865C62.7707 23.2086 62.7259 23.1378 62.6693 23.0781C62.6128 23.0185 62.5456 22.9711 62.4718 22.9388C62.3979 22.9065 62.3187 22.8899 62.2387 22.8899H62.2426Z" fill="white"/>
<path d="M67.9665 27.6466H62.763C61.9383 27.6461 61.147 27.9905 60.5628 28.6045C59.9785 29.2185 59.649 30.0518 59.6464 30.9218C59.6464 31.0921 59.7105 31.2555 59.8247 31.376C59.9389 31.4965 60.0938 31.5642 60.2554 31.5642C60.4169 31.5642 60.5718 31.4965 60.686 31.376C60.8002 31.2555 60.8644 31.0921 60.8644 30.9218C60.8667 30.3926 61.0679 29.886 61.4238 29.5131C61.7797 29.1402 62.2613 28.9313 62.763 28.9324H67.9665C68.128 28.9324 68.2829 28.8648 68.3971 28.7443C68.5113 28.6238 68.5755 28.4604 68.5755 28.29C68.5755 28.1197 68.5113 27.9563 68.3971 27.8358C68.2829 27.7153 68.128 27.6476 67.9665 27.6476V27.6466Z" fill="white"/>
<path d="M72.9301 27.6465H70.4039C70.2424 27.6465 70.0875 27.7142 69.9733 27.8346C69.8591 27.9551 69.7949 28.1185 69.7949 28.2889C69.7949 28.4593 69.8591 28.6227 69.9733 28.7432C70.0875 28.8636 70.2424 28.9313 70.4039 28.9313H72.9301C73.0917 28.9313 73.2466 28.8636 73.3608 28.7432C73.475 28.6227 73.5392 28.4593 73.5392 28.2889C73.5392 28.1185 73.475 27.9551 73.3608 27.8346C73.2466 27.7142 73.0917 27.6465 72.9301 27.6465Z" fill="white"/>
<path d="M68.6474 15.1611C68.4858 15.1611 68.3309 15.2288 68.2167 15.3493C68.1025 15.4698 68.0384 15.6332 68.0384 15.8035C68.035 16.6896 67.6985 17.538 67.1029 18.1627C66.5072 18.7874 65.7009 19.1373 64.861 19.1356C64.6994 19.1356 64.5445 19.2033 64.4303 19.3238C64.3161 19.4442 64.252 19.6076 64.252 19.778C64.252 19.9484 64.3161 20.1118 64.4303 20.2323C64.5445 20.3528 64.6994 20.4204 64.861 20.4204C66.0238 20.4215 67.1396 19.9361 67.9635 19.0706C68.7875 18.2051 69.2525 17.0302 69.2564 15.8035C69.2564 15.6332 69.1922 15.4698 69.078 15.3493C68.9638 15.2288 68.8089 15.1611 68.6474 15.1611Z" fill="white"/>
<path d="M67.5248 5.44907C66.8264 5.40191 66.1387 5.64836 65.612 6.13453C65.0853 6.6207 64.7625 7.30706 64.7142 8.04355C64.7037 8.2135 64.7576 8.3809 64.8641 8.50893C64.9706 8.63696 65.1209 8.71515 65.282 8.72631H65.3222C65.4768 8.72613 65.6256 8.66391 65.7383 8.5523C65.851 8.44068 65.9193 8.28803 65.9292 8.12528C65.9559 7.72837 66.1305 7.35874 66.4148 7.09723C66.6991 6.83572 67.07 6.7036 67.4464 6.72976C67.6076 6.74073 67.7664 6.68368 67.8878 6.57116C68.0092 6.45864 68.0832 6.29986 68.0936 6.12976C68.104 5.95965 68.0499 5.79216 67.9433 5.66411C67.8366 5.53607 67.6861 5.45797 67.5248 5.447V5.44907Z" fill="white"/>
<path d="M65.4762 30.5029C65.3147 30.5029 65.1598 30.5706 65.0456 30.6911C64.9314 30.8116 64.8672 30.975 64.8672 31.1453C64.8672 31.3157 64.9314 31.4791 65.0456 31.5996C65.1598 31.7201 65.3147 31.7878 65.4762 31.7878C65.9574 31.7878 66.4188 31.9894 66.7591 32.3483C67.0993 32.7072 67.2905 33.194 67.2905 33.7015C67.2905 34.2091 67.0993 34.6959 66.7591 35.0548C66.4188 35.4137 65.9574 35.6153 65.4762 35.6153C65.3147 35.6153 65.1598 35.683 65.0456 35.8035C64.9314 35.924 64.8672 36.0874 64.8672 36.2577C64.8672 36.4281 64.9314 36.5915 65.0456 36.712C65.1598 36.8325 65.3147 36.9002 65.4762 36.9002C66.2799 36.9002 67.0507 36.5634 67.6189 35.9639C68.1872 35.3645 68.5065 34.5514 68.5065 33.7036C68.5065 32.8558 68.1872 32.0428 67.6189 31.4433C67.0507 30.8438 66.2799 30.5071 65.4762 30.5071V30.5029Z" fill="white"/>
<path d="M71.7106 15.377C71.549 15.377 71.3941 15.4446 71.2799 15.5651C71.1657 15.6856 71.1016 15.849 71.1016 16.0194C71.1016 16.1897 71.1657 16.3532 71.2799 16.4736C71.3941 16.5941 71.549 16.6618 71.7106 16.6618C71.9017 16.6618 72.0909 16.7015 72.2675 16.7786C72.4441 16.8558 72.6045 16.9689 72.7396 17.1114C72.8748 17.254 72.982 17.4232 73.0551 17.6095C73.1282 17.7957 73.1659 17.9953 73.1659 18.197C73.1659 18.3986 73.1282 18.5982 73.0551 18.7844C72.982 18.9707 72.8748 19.1399 72.7396 19.2825C72.6045 19.425 72.4441 19.5381 72.2675 19.6153C72.0909 19.6924 71.9017 19.7321 71.7106 19.7321C71.549 19.7321 71.3941 19.7998 71.2799 19.9203C71.1657 20.0408 71.1016 20.2042 71.1016 20.3745C71.1016 20.5449 71.1657 20.7083 71.2799 20.8288C71.3941 20.9493 71.549 21.017 71.7106 21.017C72.4196 21.017 73.0995 20.7199 73.6009 20.191C74.1022 19.6621 74.3839 18.9449 74.3839 18.197C74.3839 17.449 74.1022 16.7318 73.6009 16.2029C73.0995 15.6741 72.4196 15.377 71.7106 15.377Z" fill="white"/>
<path d="M60.9781 11.2917C60.8982 11.2917 60.819 11.3083 60.7451 11.3406C60.6712 11.3729 60.6041 11.4202 60.5475 11.4799C60.491 11.5395 60.4461 11.6103 60.4155 11.6883C60.3849 11.7662 60.3691 11.8498 60.3691 11.9341C60.3691 12.0185 60.3849 12.102 60.4155 12.18C60.4461 12.2579 60.491 12.3287 60.5475 12.3884C60.6041 12.448 60.6712 12.4953 60.7451 12.5276C60.819 12.5599 60.8982 12.5765 60.9781 12.5765C61.3124 12.5667 61.6452 12.6276 61.9568 12.7557C62.2684 12.8838 62.5525 13.0766 62.7922 13.3225C63.032 13.5684 63.2226 13.8626 63.3527 14.1875C63.4829 14.5125 63.5499 14.8617 63.5499 15.2145C63.5499 15.5672 63.4829 15.9164 63.3527 16.2414C63.2226 16.5664 63.032 16.8605 62.7922 17.1064C62.5525 17.3524 62.2684 17.5451 61.9568 17.6732C61.6452 17.8013 61.3124 17.8623 60.9781 17.8524C60.8982 17.8524 60.819 17.869 60.7451 17.9013C60.6712 17.9336 60.6041 17.9809 60.5475 18.0406C60.491 18.1002 60.4461 18.171 60.4155 18.249C60.3849 18.3269 60.3691 18.4105 60.3691 18.4948C60.3691 18.5792 60.3849 18.6627 60.4155 18.7406C60.4461 18.8186 60.491 18.8894 60.5475 18.9491C60.6041 19.0087 60.6712 19.056 60.7451 19.0883C60.819 19.1206 60.8982 19.1372 60.9781 19.1372C61.4718 19.1457 61.9621 19.0504 62.4204 18.857C62.8788 18.6636 63.2961 18.3759 63.648 18.0106C64 17.6454 64.2794 17.2099 64.4702 16.7296C64.661 16.2493 64.7593 15.7337 64.7593 15.2129C64.7593 14.6921 64.661 14.1766 64.4702 13.6962C64.2794 13.2159 64 12.7805 63.648 12.4152C63.2961 12.05 62.8788 11.7622 62.4204 11.5688C61.9621 11.3754 61.4718 11.2801 60.9781 11.2886V11.2917Z" fill="white"/>
<path d="M89.6132 11.2627C89.2042 11.2641 88.8048 11.3934 88.4654 11.6341C88.126 11.8748 87.8619 12.2162 87.7063 12.6152C87.5508 13.0141 87.5108 13.4528 87.5914 13.8757C87.672 14.2987 87.8696 14.6869 88.1593 14.9914C88.4489 15.296 88.8177 15.5032 89.2189 15.5868C89.6201 15.6704 90.0358 15.6268 90.4135 15.4614C90.7912 15.2959 91.1139 15.0162 91.341 14.6574C91.5681 14.2986 91.6893 13.8769 91.6893 13.4455C91.6877 12.8658 91.4682 12.3105 91.079 11.9013C90.6898 11.4921 90.1627 11.2624 89.6132 11.2627ZM89.6132 14.3434C89.4451 14.342 89.2812 14.2881 89.1421 14.1885C89.0031 14.089 88.895 13.9483 88.8316 13.7841C88.7683 13.6199 88.7524 13.4396 88.786 13.2659C88.8196 13.0922 88.9012 12.9329 89.0205 12.808C89.1398 12.6832 89.2915 12.5984 89.4565 12.5643C89.6214 12.5302 89.7922 12.5484 89.9473 12.6166C90.1025 12.6848 90.235 12.7999 90.3283 12.9474C90.4215 13.0949 90.4713 13.2682 90.4713 13.4455C90.4702 13.6845 90.3793 13.9134 90.2184 14.0817C90.0575 14.2501 89.8398 14.3442 89.6132 14.3434Z" fill="white"/>
<path d="M91.6483 27.7065C91.2394 27.708 90.84 27.8372 90.5006 28.0779C90.1612 28.3186 89.8971 28.66 89.7415 29.059C89.5859 29.458 89.5459 29.8966 89.6265 30.3196C89.7072 30.7425 89.9048 31.1308 90.1945 31.4353C90.4841 31.7398 90.8528 31.947 91.254 32.0306C91.6552 32.1143 92.0709 32.0706 92.4486 31.9052C92.8263 31.7398 93.1491 31.46 93.3762 31.1012C93.6032 30.7424 93.7244 30.3207 93.7244 29.8893C93.7229 29.3097 93.5034 28.7543 93.1142 28.3451C92.725 27.9359 92.1978 27.7063 91.6483 27.7065ZM91.6483 30.7872C91.4803 30.7858 91.3164 30.7319 91.1773 30.6324C91.0382 30.5329 90.9302 30.3921 90.8668 30.2279C90.8034 30.0637 90.7875 29.8834 90.8211 29.7097C90.8548 29.536 90.9364 29.3767 91.0557 29.2519C91.175 29.127 91.3267 29.0422 91.4916 29.0081C91.6566 28.9741 91.8274 28.9923 91.9825 29.0605C92.1376 29.1286 92.2702 29.2437 92.3634 29.3912C92.4567 29.5387 92.5064 29.712 92.5064 29.8893C92.5064 30.008 92.4842 30.1256 92.441 30.2352C92.3979 30.3449 92.3346 30.4445 92.2549 30.5283C92.1752 30.6121 92.0806 30.6784 91.9765 30.7236C91.8724 30.7687 91.7609 30.7918 91.6483 30.7914V30.7872Z" fill="white"/>
<path d="M90.3709 20.0056C90.0316 20.0054 89.6975 20.0931 89.398 20.2611L88.2104 19.0197C88.1542 18.958 88.0869 18.9087 88.0124 18.8748C87.9379 18.8409 87.8577 18.8231 87.7766 18.8223C87.6955 18.8215 87.615 18.8379 87.54 18.8703C87.4649 18.9028 87.3968 18.9508 87.3395 19.0115C87.2823 19.0721 87.2371 19.1442 87.2066 19.2235C87.1762 19.3029 87.1611 19.3878 87.1622 19.4734C87.1633 19.559 87.1806 19.6435 87.2131 19.7219C87.2456 19.8003 87.2926 19.8711 87.3513 19.9301L88.536 21.1715C88.3773 21.4854 88.2944 21.8357 88.2948 22.1915C88.2934 22.6249 88.414 23.049 88.6413 23.4101C88.8686 23.7712 89.1924 24.0531 89.5716 24.2199C89.9508 24.3868 90.3685 24.4312 90.7717 24.3475C91.1748 24.2638 91.5454 24.0558 91.8364 23.7498C92.1275 23.4438 92.3259 23.0536 92.4065 22.6286C92.4872 22.2036 92.4465 21.7629 92.2896 21.3623C92.1326 20.9617 91.8665 20.6193 91.525 20.3783C91.1834 20.1373 90.7818 20.0087 90.3709 20.0087V20.0056ZM90.3709 23.0863C90.2028 23.0849 90.0389 23.031 89.8998 22.9315C89.7608 22.8319 89.6527 22.6912 89.5893 22.527C89.5259 22.3628 89.5101 22.1825 89.5437 22.0088C89.5773 21.8351 89.6589 21.6758 89.7782 21.5509C89.8975 21.4261 90.0492 21.3413 90.2142 21.3072C90.3791 21.2731 90.5499 21.2913 90.705 21.3595C90.8602 21.4277 90.9927 21.5428 91.086 21.6903C91.1792 21.8378 91.229 22.0111 91.229 22.1884C91.229 22.3071 91.2067 22.4247 91.1636 22.5343C91.1204 22.6439 91.0572 22.7435 90.9774 22.8273C90.8977 22.9111 90.8031 22.9775 90.699 23.0227C90.5949 23.0678 90.4834 23.0908 90.3709 23.0904V23.0863Z" fill="white"/>
<path d="M88.9979 34.4141C88.5889 34.4155 88.1896 34.5447 87.8502 34.7855C87.5108 35.0262 87.2467 35.3675 87.0911 35.7665C86.9355 36.1655 86.8955 36.6041 86.9761 37.0271C87.0568 37.45 87.2544 37.8383 87.544 38.1428C87.8337 38.4474 88.2024 38.6545 88.6036 38.7382C89.0048 38.8218 89.4205 38.7782 89.7982 38.6127C90.1759 38.4473 90.4987 38.1675 90.7258 37.8087C90.9528 37.4499 91.074 37.0282 91.074 36.5968C91.0724 36.0172 90.853 35.4618 90.4638 35.0526C90.0746 34.6434 89.5474 34.4138 88.9979 34.4141ZM88.9979 37.4947C88.8298 37.4933 88.666 37.4395 88.5269 37.3399C88.3878 37.2404 88.2798 37.0997 88.2164 36.9355C88.153 36.7713 88.1371 36.591 88.1708 36.4173C88.2044 36.2436 88.286 36.0842 88.4053 35.9594C88.5246 35.8345 88.6763 35.7497 88.8412 35.7157C89.0062 35.6816 89.177 35.6998 89.3321 35.768C89.4873 35.8361 89.6198 35.9512 89.713 36.0987C89.8062 36.2462 89.856 36.4196 89.856 36.5968C89.855 36.8359 89.764 37.0647 89.6031 37.2331C89.4422 37.4015 89.2245 37.4956 88.9979 37.4947Z" fill="white"/>
<path d="M81.8716 12.0746C82.2901 12.0611 82.6897 11.8871 82.9954 11.5853L85.3491 9.11499C85.8102 9.30655 86.3213 9.31731 86.7893 9.14531C87.2574 8.97332 87.6514 8.62998 87.9 8.17762C88.1485 7.72527 88.235 7.1939 88.1438 6.68C88.0526 6.1661 87.7897 5.70375 87.4028 5.37688C87.016 5.05002 86.5309 4.88032 86.0355 4.8986C85.5402 4.91688 85.0675 5.12193 84.7033 5.47651C84.339 5.8311 84.1074 6.31171 84.0505 6.83107C83.9935 7.35044 84.115 7.87413 84.3929 8.30705L82.1373 10.674C82.0597 10.7351 81.9686 10.7746 81.8726 10.7888H76.8417V6.53602H78.2558C78.4016 7.03549 78.7125 7.4632 79.1319 7.7414C79.5513 8.0196 80.0514 8.12983 80.5413 8.05206C81.0312 7.97429 81.4785 7.71367 81.8017 7.31758C82.1249 6.92149 82.3026 6.41622 82.3026 5.89361C82.3026 5.37099 82.1249 4.86572 81.8017 4.46963C81.4785 4.07354 81.0312 3.81293 80.5413 3.73515C80.0514 3.65738 79.5513 3.76761 79.1319 4.04582C78.7125 4.32402 78.4016 4.75172 78.2558 5.25119H76.8417V5.15395C76.8364 3.97537 76.4503 2.83392 75.7471 1.91806C75.0439 1.00221 74.0655 0.366736 72.9737 0.116569C71.8819 -0.133599 70.7418 0.0165023 69.7418 0.542087C68.7417 1.06767 67.9415 1.93731 67.4732 3.0074C67.3516 2.99809 67.23 2.99395 67.1094 2.99395C65.7615 2.99235 64.4662 3.54612 63.4997 4.53724C62.5332 5.52835 61.9719 6.87845 61.9353 8.29981C61.2031 8.1894 60.457 8.24577 59.7472 8.46511C59.0374 8.68445 58.3805 9.06169 57.8205 9.5714C57.2605 10.0811 56.8106 10.7115 56.501 11.42C56.1914 12.1286 56.0294 12.8989 56.0257 13.6791C56.0254 14.3284 56.1371 14.9723 56.3553 15.5795C55.5471 16.0849 54.8436 16.7567 54.2869 17.5551C53.7301 18.3534 53.3315 19.2618 53.1147 20.2261C52.8979 21.1904 52.8673 22.1909 53.025 23.1679C53.1826 24.145 53.5251 25.0785 54.032 25.9129C54.6267 26.8877 55.4289 27.7024 56.3749 28.2922C56.0355 29.2185 55.9441 30.2254 56.1106 31.2027C56.2772 32.1801 56.6953 33.0904 57.3193 33.834C57.4263 33.9617 57.577 34.0393 57.7383 34.0498C57.8996 34.0603 58.0582 34.0027 58.1793 33.8898C58.3004 33.7769 58.374 33.6179 58.3839 33.4478C58.3939 33.2776 58.3393 33.1103 58.2323 32.9826C57.5996 32.2266 57.2508 31.2527 57.2516 30.2443C57.25 29.5735 57.4053 28.9126 57.7037 28.3202C58.0683 27.5898 58.6305 26.9903 59.3189 26.5977C59.4609 26.5165 59.5665 26.3791 59.6125 26.2158C59.6584 26.0524 59.641 25.8765 59.564 25.7267C59.4871 25.5769 59.3568 25.4655 59.202 25.417C59.0471 25.3685 58.8803 25.3869 58.7383 25.4681C58.025 25.8754 57.4125 26.4541 56.9505 27.1574C56.0653 26.5946 55.3392 25.7919 54.8477 24.8328C54.3561 23.8737 54.1171 22.7932 54.1554 21.7037C54.1938 20.6142 54.5081 19.5554 55.0657 18.6374C55.6233 17.7194 56.4038 16.9757 57.3261 16.4836C58.1483 16.0492 59.0544 15.8208 59.974 15.8164C60.1355 15.8164 60.2904 15.7487 60.4046 15.6282C60.5188 15.5077 60.583 15.3443 60.583 15.174C60.583 15.0036 60.5188 14.8402 60.4046 14.7197C60.2904 14.5992 60.1355 14.5315 59.974 14.5315C59.1153 14.5309 58.2638 14.6961 57.4615 15.0188C57.3207 14.5885 57.2491 14.1364 57.2496 13.6812C57.2534 13.0263 57.403 12.3814 57.6865 11.7987C57.97 11.216 58.3793 10.7118 58.8816 10.3267C59.3838 9.9416 59.9648 9.68643 60.5777 9.58179C61.1906 9.47715 61.8182 9.52597 62.41 9.7243C62.5082 9.75668 62.6125 9.7623 62.7134 9.74062C62.8142 9.71894 62.9081 9.67068 62.9865 9.60033C63.0648 9.52998 63.125 9.43985 63.1614 9.33833C63.1977 9.23682 63.2091 9.12724 63.1945 9.01981C63.1129 8.42877 63.1532 7.82609 63.3128 7.25303C63.4724 6.67996 63.7475 6.15004 64.1193 5.69952C64.4911 5.24901 64.9507 4.88854 65.4668 4.64279C65.9829 4.39704 66.5432 4.27181 67.1094 4.27568C67.3276 4.276 67.5453 4.29503 67.7606 4.33257C68.6812 4.49252 69.5182 4.99136 70.1233 5.74055C70.7283 6.48974 71.0621 7.44082 71.0655 8.42499C71.0655 8.59537 71.1296 8.75877 71.2438 8.87924C71.358 8.99972 71.5129 9.0674 71.6745 9.0674C71.836 9.0674 71.9909 8.99972 72.1051 8.87924C72.2193 8.75877 72.2835 8.59537 72.2835 8.42499C72.2806 7.27742 71.9341 6.16016 71.2933 5.23273C70.6526 4.30531 69.7505 3.61517 68.7158 3.26085C69.1154 2.51177 69.7388 1.9232 70.4887 1.58686C71.2386 1.25052 72.0729 1.18531 72.8616 1.40139C73.6503 1.61747 74.349 2.1027 74.849 2.78147C75.349 3.46023 75.622 4.29439 75.6256 5.15395V5.22533H74.4547C74.2932 5.22533 74.1383 5.29301 74.0241 5.41349C73.9099 5.53397 73.8457 5.69737 73.8457 5.86774C73.8457 6.03812 73.9099 6.20152 74.0241 6.322C74.1383 6.44248 74.2932 6.51016 74.4547 6.51016H75.6256V10.7898H70.6997C70.1655 10.7909 69.6527 10.5685 69.2738 10.1713C68.8949 9.77414 68.6808 9.23466 68.6785 8.67119C68.6785 8.50081 68.6143 8.33741 68.5001 8.21694C68.3859 8.09646 68.231 8.02878 68.0695 8.02878C67.908 8.02878 67.7531 8.09646 67.6389 8.21694C67.5246 8.33741 67.4605 8.50081 67.4605 8.67119C67.4631 9.57479 67.8052 10.4405 68.4118 11.0784C69.0184 11.7164 69.8401 12.0746 70.6967 12.0746H75.6256V22.8912H65.7453C65.5838 22.8912 65.4289 22.9589 65.3146 23.0794C65.2004 23.1998 65.1363 23.3632 65.1363 23.5336C65.1363 23.704 65.2004 23.8674 65.3146 23.9879C65.4289 24.1083 65.5838 24.176 65.7453 24.176H75.6256V33.0002H73.7437C72.9189 32.9993 72.1275 33.3437 71.5432 33.9578C70.9589 34.5718 70.6294 35.4053 70.6271 36.2753C70.6271 36.4457 70.6913 36.6091 70.8055 36.7296C70.9197 36.8501 71.0746 36.9177 71.2361 36.9177C71.3976 36.9177 71.5525 36.8501 71.6667 36.7296C71.7809 36.6091 71.8451 36.4457 71.8451 36.2753C71.8474 35.7462 72.0486 35.2396 72.4045 34.8666C72.7605 34.4937 73.2421 34.2849 73.7437 34.286H75.6256V38.7115C75.6256 38.815 75.6256 38.9122 75.6139 39.0115H74.4547C74.2932 39.0115 74.1383 39.0792 74.0241 39.1997C73.9099 39.3202 73.8457 39.4836 73.8457 39.654C73.8457 39.8243 73.9099 39.9877 74.0241 40.1082C74.1383 40.2287 74.2932 40.2964 74.4547 40.2964H75.301C75.0191 40.949 74.5721 41.5069 74.0091 41.9089C73.4461 42.3109 72.7889 42.5414 72.1098 42.5749C71.4306 42.6085 70.7559 42.4439 70.1597 42.0992C69.5635 41.7545 69.069 41.2431 68.7305 40.6212C69.4734 40.3651 70.1514 39.9342 70.7134 39.3612C70.8271 39.2423 70.8919 39.081 70.8937 38.9122C70.8956 38.7433 70.8343 38.5805 70.7232 38.4589C70.6121 38.3374 70.46 38.2668 70.3 38.2626C70.14 38.2584 69.9848 38.3208 69.8681 38.4364C69.2933 39.0226 68.563 39.4105 67.7743 39.5484C67.5559 39.5873 67.3348 39.607 67.1133 39.6074C66.0675 39.6093 65.0636 39.1735 64.3219 38.3957C63.5803 37.6178 63.1614 36.5613 63.1573 35.4581C63.1573 35.3991 63.1573 35.3391 63.1631 35.2791C63.6577 35.0676 64.1181 34.7765 64.5282 34.4164C64.5897 34.3623 64.6405 34.296 64.6776 34.2213C64.7148 34.1465 64.7376 34.0648 64.7448 33.9807C64.752 33.8967 64.7434 33.8119 64.7195 33.7314C64.6957 33.6508 64.657 33.576 64.6057 33.5112C64.5012 33.3819 64.3529 33.301 64.1925 33.2857C64.0321 33.2704 63.8724 33.322 63.7476 33.4295C62.9407 34.1265 61.9103 34.4689 60.8703 34.3853C60.7906 34.3785 60.7104 34.3884 60.6343 34.4143C60.5582 34.4402 60.4876 34.4817 60.4267 34.5363C60.3037 34.6467 60.2272 34.8041 60.2142 34.9739C60.2012 35.1438 60.2527 35.3121 60.3574 35.4419C60.462 35.5717 60.6112 35.6523 60.7722 35.666C61.1601 35.6982 61.5502 35.6851 61.9353 35.6267C61.9824 37.0401 62.5481 38.3789 63.513 39.3607C64.478 40.3425 65.7668 40.8905 67.1074 40.8891C67.231 40.8891 67.3546 40.8891 67.4801 40.8746C67.9513 41.9421 68.7532 42.8083 69.7536 43.3305C70.754 43.8527 71.8932 43.9998 72.9835 43.7476C74.0738 43.4953 75.0501 42.8587 75.7514 41.9426C76.4528 41.0266 76.8373 39.8859 76.8417 38.7084V37.2891H80.0701C80.1661 37.3032 80.2572 37.3427 80.3349 37.404L81.7872 38.9277C81.5843 39.2717 81.4769 39.6688 81.4773 40.074C81.4757 40.5466 81.6192 41.0071 81.8862 41.3867C82.1531 41.7663 82.5294 42.0446 82.9587 42.18C83.388 42.3154 83.8473 42.3007 84.268 42.138C84.6887 41.9753 85.0482 41.6734 85.2929 41.2774C85.5375 40.8814 85.6541 40.4125 85.6252 39.9408C85.5964 39.4691 85.4237 39.02 85.1328 38.6604C84.842 38.3008 84.4487 38.0501 84.0117 37.9458C83.5747 37.8415 83.1174 37.8891 82.7081 38.0815L81.1949 36.4926C80.8913 36.1912 80.4945 36.0163 80.0779 36.0002H76.8417V32.5657H82.1373C82.2832 33.0651 82.594 33.4929 83.0134 33.7711C83.4328 34.0493 83.9329 34.1595 84.4229 34.0817C84.9128 34.0039 85.36 33.7433 85.6832 33.3472C86.0064 32.9512 86.1842 32.4459 86.1842 31.9233C86.1842 31.4006 86.0064 30.8954 85.6832 30.4993C85.36 30.1032 84.9128 29.8426 84.4229 29.7648C83.9329 29.687 83.4328 29.7973 83.0134 30.0755C82.594 30.3537 82.2832 30.7814 82.1373 31.2808H76.8417V26.9805H83.1778C83.3237 27.48 83.6345 27.9077 84.0539 28.1859C84.4733 28.4641 84.9734 28.5743 85.4634 28.4965C85.9533 28.4188 86.4005 28.1582 86.7237 27.7621C87.0469 27.366 87.2247 26.8607 87.2247 26.3381C87.2247 25.8155 87.0469 25.3102 86.7237 24.9141C86.4005 24.518 85.9533 24.2574 85.4634 24.1796C84.9734 24.1019 84.4733 24.2121 84.0539 24.4903C83.6345 24.7685 83.3237 25.1962 83.1778 25.6957H76.8417V21.0188H78.3509C78.4968 21.5182 78.8076 21.946 79.227 22.2242C79.6464 22.5024 80.1465 22.6126 80.6365 22.5348C81.1264 22.457 81.5736 22.1964 81.8968 21.8003C82.22 21.4043 82.3978 20.899 82.3978 20.3764C82.3978 19.8537 82.22 19.3485 81.8968 18.9524C81.5736 18.5563 81.1264 18.2957 80.6365 18.2179C80.1465 18.1401 79.6464 18.2504 79.227 18.5286C78.8076 18.8068 78.4968 19.2345 78.3509 19.734H76.8417V16.0253H83.4809C83.5769 16.0395 83.668 16.079 83.7457 16.1402L84.997 17.454C85.0537 17.5135 85.121 17.5606 85.195 17.5927C85.269 17.6247 85.3483 17.6411 85.4283 17.6409C85.5083 17.6406 85.5875 17.6238 85.6613 17.5913C85.7351 17.5587 85.8021 17.5112 85.8585 17.4514C85.915 17.3915 85.9596 17.3205 85.99 17.2425C86.0204 17.1644 86.036 17.0808 86.0357 16.9964C86.0355 16.912 86.0195 16.8285 85.9887 16.7507C85.9579 16.6728 85.9128 16.6021 85.8561 16.5426L84.6047 15.2288C84.299 14.927 83.8994 14.753 83.4809 14.7395H76.8417V12.0746H81.8716ZM86.1111 6.18843C86.2791 6.18986 86.443 6.24374 86.5821 6.34327C86.7212 6.4428 86.8292 6.58353 86.8926 6.74773C86.956 6.91193 86.9718 7.09224 86.9382 7.26594C86.9046 7.43964 86.823 7.59896 86.7037 7.72381C86.5844 7.84867 86.4327 7.93347 86.2678 7.96754C86.1028 8.0016 85.932 7.9834 85.7769 7.91523C85.6217 7.84706 85.4892 7.73197 85.396 7.58447C85.3027 7.43697 85.253 7.26365 85.253 7.08637C85.254 6.8473 85.345 6.61845 85.5059 6.45008C85.6668 6.28172 85.8844 6.18761 86.1111 6.18843ZM80.2427 4.99671C80.4107 4.99814 80.5746 5.05202 80.7137 5.15155C80.8528 5.25108 80.9608 5.39181 81.0242 5.55601C81.0876 5.7202 81.1035 5.90051 81.0698 6.07422C81.0362 6.24792 80.9546 6.40724 80.8353 6.53209C80.716 6.65694 80.5643 6.74175 80.3994 6.77581C80.2344 6.80988 80.0636 6.79168 79.9085 6.72351C79.7533 6.65534 79.6208 6.54025 79.5276 6.39274C79.4343 6.24524 79.3846 6.07193 79.3846 5.89464C79.3856 5.65558 79.4766 5.42672 79.6375 5.25836C79.7984 5.08999 80.016 4.99589 80.2427 4.99671ZM83.5554 39.176C83.7235 39.1774 83.8874 39.2313 84.0264 39.3309C84.1655 39.4304 84.2736 39.5711 84.3369 39.7353C84.4003 39.8995 84.4162 40.0798 84.3826 40.2535C84.349 40.4272 84.2674 40.5865 84.148 40.7114C84.0287 40.8363 83.877 40.9211 83.7121 40.9551C83.5472 40.9892 83.3764 40.971 83.2212 40.9028C83.0661 40.8346 82.9335 40.7196 82.8403 40.5721C82.7471 40.4245 82.6973 40.2512 82.6973 40.074C82.6984 39.8349 82.7893 39.606 82.9502 39.4377C83.1111 39.2693 83.3288 39.1752 83.5554 39.176ZM84.1232 31.0284C84.2913 31.0299 84.4552 31.0837 84.5943 31.1833C84.7333 31.2828 84.8414 31.4235 84.9048 31.5877C84.9681 31.7519 84.984 31.9322 84.9504 32.1059C84.9168 32.2796 84.8352 32.439 84.7159 32.5638C84.5965 32.6887 84.4449 32.7735 84.2799 32.8075C84.115 32.8416 83.9442 32.8234 83.789 32.7552C83.6339 32.6871 83.5014 32.572 83.4081 32.4245C83.3149 32.277 83.2651 32.1036 83.2651 31.9264C83.2662 31.6873 83.3571 31.4584 83.518 31.2901C83.6789 31.1217 83.8966 31.0276 84.1232 31.0284ZM85.1647 25.4422C85.3328 25.4437 85.4967 25.4975 85.6357 25.5971C85.7748 25.6966 85.8829 25.8373 85.9462 26.0015C86.0096 26.1657 86.0255 26.346 85.9919 26.5197C85.9583 26.6934 85.8766 26.8528 85.7573 26.9776C85.638 27.1025 85.4863 27.1873 85.3214 27.2213C85.1565 27.2554 84.9857 27.2372 84.8305 27.169C84.6754 27.1009 84.5428 26.9858 84.4496 26.8383C84.3564 26.6908 84.3066 26.5174 84.3066 26.3402C84.3069 26.2216 84.3293 26.1043 84.3726 25.9949C84.4158 25.8855 84.4791 25.7861 84.5588 25.7025C84.6385 25.6189 84.733 25.5528 84.837 25.5077C84.941 25.4627 85.0523 25.4397 85.1647 25.4402V25.4422ZM80.3368 19.4805C80.5049 19.4819 80.6688 19.5358 80.8079 19.6353C80.9469 19.7349 81.055 19.8756 81.1183 20.0398C81.1817 20.204 81.1976 20.3843 81.164 20.558C81.1304 20.7317 81.0488 20.891 80.9294 21.0159C80.8101 21.1407 80.6584 21.2255 80.4935 21.2596C80.3286 21.2937 80.1578 21.2755 80.0026 21.2073C79.8475 21.1391 79.715 21.024 79.6217 20.8765C79.5285 20.729 79.4787 20.5557 79.4787 20.3784C79.479 20.2598 79.5014 20.1424 79.5448 20.0329C79.5881 19.9234 79.6515 19.824 79.7313 19.7404C79.8111 19.6568 79.9057 19.5907 80.0098 19.5457C80.1139 19.5008 80.2253 19.4779 80.3378 19.4784L80.3368 19.4805Z" fill="white"/>
</g>
<path d="M0.366211 109L8.23242 87.8623H10.8398L18.6914 109H15.9229L13.7842 102.95H5.27344L3.13477 109H0.366211ZM9.50684 91.0264L6.0791 100.709H12.9932L9.56543 91.0264H9.50684ZM21.123 109V87.8623H23.7598V109H21.123ZM34.2041 87.8623L28.2422 114.127H25.8105L31.7725 87.8623H34.2041ZM36.2402 109V87.8623H39.2871L46.6113 105.675H46.6992L54.0234 87.8623H57.0703V109H54.6094V92.667H54.5215L47.7686 109H45.542L38.7891 92.667H38.7012V109H36.2402ZM61.1719 109V87.8623H63.8086V106.627H74.0039V109H61.1719ZM81.3721 109L89.2383 87.8623H91.8457L99.6973 109H96.9287L94.79 102.95H86.2793L84.1406 109H81.3721ZM90.5127 91.0264L87.085 100.709H93.999L90.5713 91.0264H90.5127ZM101.733 114.127V93.7656H104.282V96.3438H104.341C105.293 94.5713 106.992 93.4727 109.175 93.4727C113.071 93.4727 115.649 96.5781 115.649 101.383V101.397C115.649 106.202 113.042 109.293 109.219 109.293C107.065 109.293 105.293 108.209 104.341 106.451H104.282V114.127H101.733ZM108.677 107.037C111.372 107.037 113.042 104.869 113.042 101.397V101.383C113.042 97.8818 111.372 95.7285 108.677 95.7285C106.099 95.7285 104.268 97.9697 104.268 101.383V101.397C104.268 104.796 106.113 107.037 108.677 107.037ZM118.228 114.127V93.7656H120.776V96.3438H120.835C121.787 94.5713 123.486 93.4727 125.669 93.4727C129.565 93.4727 132.144 96.5781 132.144 101.383V101.397C132.144 106.202 129.536 109.293 125.713 109.293C123.56 109.293 121.787 108.209 120.835 106.451H120.776V114.127H118.228ZM125.171 107.037C127.866 107.037 129.536 104.869 129.536 101.397V101.383C129.536 97.8818 127.866 95.7285 125.171 95.7285C122.593 95.7285 120.762 97.9697 120.762 101.383V101.397C120.762 104.796 122.607 107.037 125.171 107.037ZM140.127 109.293C136.538 109.293 134.37 107.462 134.062 104.737L134.048 104.605H136.597L136.626 104.752C136.934 106.275 138.062 107.169 140.142 107.169C142.207 107.169 143.438 106.305 143.438 104.928V104.913C143.438 103.814 142.866 103.199 141.138 102.774L138.721 102.188C135.85 101.5 134.458 100.167 134.458 97.9697V97.9551C134.458 95.333 136.758 93.4727 140.054 93.4727C143.394 93.4727 145.518 95.4209 145.708 97.9697L145.723 98.1602H143.291L143.276 98.0576C143.071 96.5781 141.943 95.5967 140.054 95.5967C138.208 95.5967 137.065 96.4902 137.065 97.8379V97.8525C137.065 98.8926 137.754 99.6104 139.438 100.021L141.855 100.606C144.932 101.354 146.045 102.569 146.045 104.737V104.752C146.045 107.418 143.525 109.293 140.127 109.293Z" fill="white" fill-opacity="0.7"/>
<defs>
<clipPath id="clip0_58_9">
<rect width="80" height="60" fill="white" transform="translate(34)"/>
</clipPath>
</defs>
</svg>
