<svg width="160" height="160" viewBox="0 0 160 160" fill="none" xmlns="http://www.w3.org/2000/svg">
<circle cx="80" cy="80" r="75" fill="#DDA72A" stroke="#0B0B0B" stroke-width="10"/>
<path d="M94.7775 56H69.7933C65.6722 56 62.3294 59.3407 62.3294 63.464V97.9469C62.3294 101.343 59.5676 104.105 56.1541 104.105H85.3623C85.1329 103.348 85.0643 102.544 85.1929 101.744L85.9284 97.4366C86.0721 96.4203 86.5781 95.4039 87.3757 94.5977L98.3948 83.6001L100.597 81.398C100.608 81.3873 100.623 81.3787 100.633 81.3659L100.655 81.3444L100.657 81.3466C101.133 80.8748 101.673 80.4953 102.244 80.1651V63.4618C102.241 59.3407 98.9008 56 94.7775 56ZM82.2854 90.6116H71.8153C70.7496 90.6116 69.8855 89.7475 69.8855 88.6819C69.8855 87.6162 70.7496 86.7521 71.8153 86.7521H82.2854C83.3511 86.7521 84.2152 87.6162 84.2152 88.6819C84.2152 89.7475 83.3511 90.6116 82.2854 90.6116ZM92.7555 81.9812H71.8153C70.7496 81.9812 69.8855 81.1171 69.8855 80.0515C69.8855 78.9858 70.7496 78.1217 71.8153 78.1217H92.7555C93.8212 78.1217 94.6853 78.9858 94.6853 80.0515C94.6853 81.1171 93.8212 81.9812 92.7555 81.9812ZM92.7555 73.353H71.8153C70.7496 73.353 69.8855 72.4889 69.8855 71.4232C69.8855 70.3575 70.7496 69.4934 71.8153 69.4934H92.7555C93.8212 69.4934 94.6853 70.3575 94.6853 71.4232C94.6853 72.4889 93.8212 73.353 92.7555 73.353Z" fill="#0B0B0B"/>
<path d="M58.4696 84.7258V97.9555C58.4696 99.2227 57.4425 100.25 56.1753 100.25H56.1538C52.7553 100.25 50 97.4945 50 94.096V92.1876C50 88.0493 53.3449 84.7258 57.4618 84.7258H58.4696Z" fill="#0B0B0B"/>
<path d="M107.527 90.9785L108.858 89.6577C110.381 88.1138 110.381 85.648 108.858 84.1256C107.336 82.5818 104.849 82.5818 103.326 84.1256L102.01 85.4422L107.527 90.9785Z" fill="#0B0B0B"/>
<path d="M99.2804 88.1694L90.1183 97.3123C89.9038 97.5267 89.7752 97.784 89.7323 98.0842L89.0033 102.351C88.8532 103.295 89.668 104.131 90.6114 103.959L94.8998 103.23C95.1786 103.187 95.4359 103.059 95.6503 102.844L104.791 93.7036L99.2804 88.1694Z" fill="#0B0B0B"/>
</svg>
