<svg width="160" height="160" viewBox="0 0 160 160" fill="none" xmlns="http://www.w3.org/2000/svg">
<circle cx="80" cy="80" r="75" fill="#DDA72A" stroke="#0B0B0B" stroke-width="10"/>
<path d="M105 58.125H55C53.975 58.125 53.125 57.275 53.125 56.25C53.125 55.225 53.975 54.375 55 54.375H105C106.025 54.375 106.875 55.225 106.875 56.25C106.875 57.275 106.025 58.125 105 58.125Z" fill="#0B0B0B"/>
<path d="M59.175 56.25V86.175C59.175 88.625 60.325 90.95 62.3 92.425L75.325 102.175C78.1 104.25 81.925 104.25 84.7 102.175L97.725 92.425C99.7001 90.95 100.85 88.625 100.85 86.175V56.25H59.175ZM90 84.375H70C68.975 84.375 68.125 83.525 68.125 82.5C68.125 81.475 68.975 80.625 70 80.625H90C91.025 80.625 91.875 81.475 91.875 82.5C91.875 83.525 91.025 84.375 90 84.375ZM90 71.875H70C68.975 71.875 68.125 71.025 68.125 70C68.125 68.975 68.975 68.125 70 68.125H90C91.025 68.125 91.875 68.975 91.875 70C91.875 71.025 91.025 71.875 90 71.875Z" fill="#0B0B0B"/>
</svg>
