<svg width="160" height="160" viewBox="0 0 160 160" fill="none" xmlns="http://www.w3.org/2000/svg">
<circle cx="80" cy="80" r="75" fill="#DDA72A" stroke="#0B0B0B" stroke-width="10"/>
<path d="M105 62.125V91.8499C105 94.2749 103.025 96.5 100.6 96.7999L99.825 96.9C95.725 97.45 89.95 99.15 85.3 101.1C83.675 101.775 81.875 100.55 81.875 98.775V64C81.875 63.075 82.4 62.225 83.225 61.775C87.8 59.3 94.725 57.1 99.425 56.7H99.575C102.575 56.7 105 59.125 105 62.125Z" fill="#0B0B0B"/>
<path d="M76.7746 61.7752C72.1996 59.3002 65.2746 57.1002 60.5746 56.7002H60.3996C57.3996 56.7002 54.9746 59.1252 54.9746 62.1252V91.8502C54.9746 94.2752 56.9496 96.5002 59.3746 96.8002L60.1496 96.9002C64.2496 97.4502 70.0246 99.1502 74.6746 101.1C76.2996 101.775 78.0996 100.55 78.0996 98.7752V64.0002C78.0996 63.0502 77.5996 62.2252 76.7746 61.7752ZM62.4996 69.3502H68.1246C69.1496 69.3502 69.9996 70.2002 69.9996 71.2252C69.9996 72.2752 69.1496 73.1002 68.1246 73.1002H62.4996C61.4746 73.1002 60.6246 72.2752 60.6246 71.2252C60.6246 70.2002 61.4746 69.3502 62.4996 69.3502ZM69.9996 80.6002H62.4996C61.4746 80.6002 60.6246 79.7752 60.6246 78.7252C60.6246 77.7002 61.4746 76.8502 62.4996 76.8502H69.9996C71.0246 76.8502 71.8746 77.7002 71.8746 78.7252C71.8746 79.7752 71.0246 80.6002 69.9996 80.6002Z" fill="#0B0B0B"/>
</svg>
