<svg width="160" height="160" viewBox="0 0 160 160" fill="none" xmlns="http://www.w3.org/2000/svg">
<circle cx="80" cy="80" r="75" fill="#DDA72A" stroke="#0B0B0B" stroke-width="10"/>
<path d="M100.525 69.5501L81.2746 80.7001C80.4996 81.1501 79.5246 81.1501 78.7246 80.7001L59.4746 69.5501C58.0996 68.7501 57.7496 66.8751 58.7996 65.7001C59.5246 64.8751 60.3496 64.2001 61.2246 63.7251L74.7746 56.2251C77.6746 54.6001 82.3746 54.6001 85.2746 56.2251L98.8246 63.7251C99.6996 64.2001 100.525 64.9001 101.25 65.7001C102.25 66.8751 101.9 68.7501 100.525 69.5501Z" fill="#0B0B0B"/>
<path d="M78.575 85.3499V102.4C78.575 104.3 76.65 105.55 74.95 104.725C69.8 102.2 61.125 97.4749 61.125 97.4749C58.075 95.7499 55.575 91.3999 55.575 87.8249V74.9249C55.575 72.9499 57.65 71.6999 59.35 72.6749L77.325 83.0999C78.075 83.5749 78.575 84.4249 78.575 85.3499Z" fill="#0B0B0B"/>
<path d="M81.425 85.3499V102.4C81.425 104.3 83.35 105.55 85.05 104.725C90.2 102.2 98.875 97.4749 98.875 97.4749C101.925 95.7499 104.425 91.3999 104.425 87.8249V74.9249C104.425 72.9499 102.35 71.6999 100.65 72.6749L82.675 83.0999C81.925 83.5749 81.425 84.4249 81.425 85.3499Z" fill="#0B0B0B"/>
</svg>
