<svg width="28" height="30" viewBox="0 0 28 30" fill="none" xmlns="http://www.w3.org/2000/svg">
<path d="M20.0224 9.39145C20.0037 9.20043 20.1408 9.02817 20.333 9.00825C20.5287 8.9895 20.701 9.12661 20.7197 9.32233C20.865 10.7661 20.7115 12.2368 20.2604 13.6232C19.8549 14.876 19.2033 16.0631 18.315 17.1084L19.3064 18.2416C19.7658 18.1724 20.2334 18.2111 20.6694 18.3494C21.1639 18.5064 21.6198 18.7935 21.9866 19.2037C22.4155 19.7018 27.1721 25.1054 27.1721 25.1054C27.7089 25.7218 27.9456 26.4918 27.8964 27.243C27.8472 27.9976 27.5097 28.7289 26.8968 29.2657L26.8815 29.2774C26.2686 29.8059 25.5022 30.0438 24.7557 29.9934C24.0045 29.9442 23.2698 29.6067 22.733 28.9938L17.5438 23.1074L17.5251 23.0839C17.1653 22.6585 16.9391 22.1534 16.8548 21.6214C16.7786 21.1585 16.8126 20.6757 16.9661 20.2198L16.0122 19.1288C13.9672 20.4425 11.5811 20.9628 9.27494 20.7144C6.88075 20.4542 4.57206 19.3737 2.81433 17.5046C2.68073 17.3628 2.68776 17.1413 2.82956 17.0065C2.97136 16.8765 3.19284 16.8835 3.32763 17.0218C4.9671 18.7679 7.12 19.7757 9.34874 20.0172C11.5964 20.2586 13.9178 19.7218 15.8751 18.3777C16.0169 18.2781 16.2161 18.2968 16.3344 18.4351L17.6212 19.8976C17.7173 19.9972 17.7513 20.1461 17.6938 20.2808C17.5251 20.6793 17.4794 21.1047 17.545 21.5102C17.6106 21.9156 17.7864 22.3035 18.0618 22.6328L23.2627 28.5309V28.5345C23.6729 29.0021 24.2284 29.254 24.8026 29.2927C25.3733 29.3313 25.9592 29.1509 26.4268 28.7454L26.4386 28.7372C26.9061 28.327 27.1628 27.7715 27.1968 27.2008C27.2354 26.6266 27.0514 26.0407 26.6448 25.5696L26.6413 25.566L21.4626 19.6679C21.1825 19.3574 20.8345 19.1394 20.4594 19.0164C20.0727 18.8933 19.6555 18.8746 19.2536 18.9671C19.1352 18.9941 19.0004 18.9554 18.9126 18.8558L17.5836 17.3394C17.4688 17.2093 17.4688 17.0065 17.5871 16.8765C18.5141 15.8499 19.1844 14.6663 19.5946 13.4066C20.0165 12.1117 20.1618 10.7452 20.0235 9.39283L20.0224 9.39145ZM0.175269 15.8182L4.76325 11.1153C5.17342 10.6934 5.83904 10.6746 6.27264 11.0614L7.84298 12.4559L11.627 8.57565C12.0371 8.15378 12.7027 8.135 13.1363 8.52174V8.51822L14.7032 9.91277L18.3875 6.1099L17.0434 4.76573C16.8828 4.60518 16.8254 4.37899 16.8945 4.15636C16.9637 3.93839 17.1359 3.78486 17.3621 3.74268L22.2945 2.81572C22.4972 2.77705 22.6894 2.83447 22.8348 2.98096C22.9801 3.12628 23.041 3.32198 23.0035 3.52472L22.0766 8.45711C22.0344 8.68328 21.8809 8.85555 21.6594 8.9247C21.4414 8.99384 21.2152 8.93641 21.05 8.77118L19.9355 7.65672L15.5891 12.1415L15.5773 12.1532C15.1754 12.6056 14.4863 12.6477 14.034 12.2446L12.4636 10.8465L8.72165 14.6845L8.71345 14.6962C8.3115 15.1486 7.61774 15.1861 7.17007 14.7841L5.59973 13.3896L1.74316 17.3424C1.5744 17.5147 1.29549 17.5182 1.12323 17.3506L0.18454 16.4389C0.0966478 16.3545 0.0544611 16.2514 0.0509451 16.133C0.0509451 16.01 0.0931348 15.9069 0.177511 15.819L0.175269 15.8182ZM4.33094 15.9412C4.20086 15.7994 4.21258 15.5779 4.35438 15.4467C4.49618 15.3166 4.71766 15.3236 4.84891 15.4654C6.22353 16.9666 8.07757 17.7823 9.9736 17.8819C11.8697 17.985 13.8035 17.3803 15.3398 16.0362C16.1285 15.3471 16.7379 14.5232 17.1633 13.6268C17.6074 12.6963 17.8523 11.6885 17.891 10.6771C17.8992 10.4814 18.0598 10.3326 18.2543 10.3396C18.4453 10.3431 18.5953 10.5084 18.5918 10.6994C18.5496 11.8138 18.2812 12.9131 17.7984 13.928C17.3355 14.9042 16.6652 15.8042 15.7992 16.5636C14.1222 18.0308 12.0068 18.6965 9.93976 18.5816C7.86786 18.4703 5.83809 17.5785 4.33236 15.939L4.33094 15.9412ZM16.3921 4.78012C16.5221 4.92192 16.5151 5.14339 16.3733 5.27819C16.2315 5.40826 16.01 5.40124 15.8788 5.25944C14.4994 3.78518 12.6468 2.9848 10.7577 2.8887C8.8768 2.79729 6.95842 3.39847 5.43019 4.73443C4.4036 5.63795 3.67939 6.76414 3.2739 7.97808C2.8485 9.23787 2.76413 10.5938 3.02898 11.8959C3.06765 12.0834 2.9446 12.2673 2.75358 12.306C2.56608 12.3447 2.38208 12.2216 2.34341 12.0341C2.05278 10.6091 2.14771 9.13135 2.60826 7.75546C3.05593 6.42653 3.84578 5.19369 4.9708 4.2046C6.64075 2.74559 8.73617 2.0823 10.7927 2.18659C12.8576 2.2944 14.8827 3.16759 16.3921 4.78012ZM1.25949 13.6468C1.32511 13.8308 1.22902 14.03 1.04503 14.0944C0.864561 14.1601 0.661836 14.064 0.597364 13.88C-0.103418 11.9042 -0.184299 9.76661 0.337203 7.75928C0.842292 5.81392 1.91574 3.99061 3.53886 2.57009C5.51937 0.834495 7.97804 -0.0116099 10.4213 0.000120291C12.8952 0.0118391 15.3585 0.900136 17.3004 2.63102C17.4422 2.75758 17.4574 2.97908 17.3274 3.12555C17.1973 3.26735 16.9746 3.28258 16.8328 3.1525C15.0246 1.53997 12.7264 0.712616 10.4214 0.700886C8.13855 0.689166 5.84393 1.47784 3.9983 3.09859C2.48537 4.42401 1.48576 6.12084 1.01466 7.93617C0.52832 9.80536 0.604394 11.8011 1.25949 13.6468ZM24.7571 25.3047C24.7723 25.3047 24.7876 25.3047 24.8028 25.3082C25.213 25.3351 25.5727 25.5191 25.8294 25.798C26.0896 26.0852 26.2431 26.4649 26.2278 26.8785C26.2278 26.8973 26.2278 26.9125 26.2243 26.9278C26.1974 27.3332 26.0134 27.6942 25.7345 27.9508C25.4474 28.2157 25.0571 28.368 24.6388 28.3493C24.2169 28.3305 23.8454 28.143 23.5817 27.8547C23.3216 27.5711 23.168 27.1879 23.1833 26.7742C23.1833 26.759 23.1833 26.7438 23.1868 26.7285C23.2137 26.3231 23.3977 25.9621 23.6766 25.7055C23.9602 25.4453 24.3435 25.2918 24.7571 25.3035L24.7571 25.3047ZM24.7571 26.009C24.7571 26.0055 24.7454 26.0055 24.7419 26.0055C24.5157 25.9973 24.3048 26.0781 24.1477 26.2199C23.9989 26.3582 23.8993 26.5528 23.8829 26.7672V26.7906C23.8711 27.0203 23.9555 27.2278 24.0973 27.3848C24.2391 27.5383 24.4418 27.6415 24.668 27.6497C24.8942 27.6614 25.1051 27.577 25.2575 27.4352C25.411 27.2969 25.5059 27.1059 25.5223 26.8879L25.5258 26.8645C25.534 26.6383 25.4532 26.4274 25.3114 26.275C25.1731 26.1262 24.9821 26.0266 24.7641 26.0102H24.7559L24.7571 26.009Z" fill="#DCA629"/>
</svg>
