<svg width="30" height="30" viewBox="0 0 30 30" fill="none" xmlns="http://www.w3.org/2000/svg">
<path d="M12.0064 18.4685C11.9792 18.4685 11.9453 18.4617 11.9182 18.4549C11.8299 18.4346 11.7553 18.3735 11.7145 18.2988L10.262 15.7875C10.2145 15.7129 10.2077 15.6178 10.2281 15.5296C10.2485 15.4414 10.3096 15.3667 10.3842 15.326L11.701 14.5658C11.8639 14.4708 12.0675 14.5251 12.1625 14.688L13.615 17.1993C13.71 17.3622 13.6557 17.5658 13.4928 17.6608L12.1761 18.421C12.1218 18.4549 12.0675 18.4685 12.0064 18.4685ZM11.0222 15.74L12.1286 17.6676L12.8616 17.2468L11.7485 15.326L11.0222 15.74Z" fill="#DCA629"/>
<path d="M13.3297 17.7078C13.16 17.7078 13.0175 17.5857 12.9903 17.4092C12.9632 17.2259 13.0989 17.0563 13.2822 17.0291L18.5559 16.3572C18.7392 16.33 18.9089 16.4658 18.936 16.649C18.9632 16.8323 18.8274 17.002 18.6442 17.0291L13.3704 17.7011C13.3568 17.7078 13.3433 17.7078 13.3297 17.7078ZM11.8772 15.1965C11.8025 15.1965 11.7347 15.1762 11.6736 15.1287C11.5242 15.0133 11.4971 14.8029 11.6125 14.6535L14.8297 10.425C14.9451 10.2757 15.1555 10.2486 15.3048 10.3639C15.4541 10.4793 15.4813 10.6897 15.3659 10.8391L12.1487 15.0676C12.0808 15.149 11.979 15.1965 11.8772 15.1965Z" fill="#DCA629"/>
<path d="M13.6495 20.4639C13.5885 20.4639 13.5274 20.4571 13.4663 20.4435C13.2219 20.396 13.0115 20.2467 12.8894 20.0431L11.8441 18.2241C11.7491 18.0612 11.8034 17.8576 11.9663 17.7625C12.1292 17.6675 12.3328 17.7218 12.4278 17.8847L13.4731 19.7037C13.5002 19.758 13.5613 19.7716 13.5953 19.7784C13.6631 19.792 13.7446 19.7784 13.8192 19.7377C13.9618 19.6562 14.0093 19.5069 13.9618 19.4254L12.9165 17.6064C12.8215 17.4435 12.8758 17.2399 13.0387 17.1449C13.2016 17.0499 13.4052 17.1042 13.5002 17.2671L14.5455 19.0861C14.7898 19.5069 14.6134 20.0635 14.1586 20.3282C13.9957 20.4164 13.826 20.4639 13.6495 20.4639Z" fill="#DCA629"/>
<path d="M11.0356 18.1901C10.9338 18.1901 10.832 18.1697 10.7302 18.129C10.5198 18.0476 10.3365 17.8915 10.2211 17.681L10.0514 17.3892C9.92926 17.1788 9.88175 16.9412 9.92247 16.724C9.9632 16.4797 10.0989 16.2693 10.3026 16.1539L10.7302 15.9096C10.8931 15.8145 11.0967 15.8688 11.1917 16.0317C11.2867 16.1946 11.2324 16.3982 11.0695 16.4933L10.6419 16.7376C10.608 16.758 10.6012 16.8055 10.5944 16.8258C10.5808 16.8937 10.6012 16.9752 10.6419 17.0498L10.8116 17.3417C10.8523 17.4163 10.9134 17.4706 10.9813 17.4978C11.0017 17.5046 11.0492 17.5181 11.0763 17.5046L11.5039 17.2602C11.6668 17.1652 11.8772 17.2195 11.9655 17.3824C12.0605 17.5453 12.0062 17.7489 11.8433 17.8439L11.4157 18.0883C11.3003 18.1562 11.1713 18.1901 11.0356 18.1901Z" fill="#DCA629"/>
<path d="M18.7263 17.2466C18.6109 17.2466 18.4955 17.1855 18.4344 17.0769L14.681 10.5815C14.586 10.4186 14.6403 10.2149 14.8032 10.1199L15.638 9.63803C15.9774 9.44119 16.4118 9.55658 16.6086 9.89595L19.9887 15.7466C20.0837 15.9095 20.1109 16.0996 20.0566 16.2828C20.0091 16.4661 19.8869 16.6222 19.724 16.7172L18.8892 17.1991C18.8417 17.233 18.7806 17.2466 18.7263 17.2466ZM15.4344 10.5407L18.8485 16.4457L19.3914 16.1335C19.405 16.1267 19.4118 16.1064 19.405 16.0928L16.0249 10.2421C16.0181 10.2285 15.9978 10.2217 15.9842 10.2285L15.4344 10.5407Z" fill="#DCA629"/>
<path d="M14.9998 24.2985C9.87538 24.2985 5.70117 20.1242 5.70117 14.9998C5.70117 9.87538 9.87538 5.70117 14.9998 5.70117C20.1242 5.70117 24.2985 9.87538 24.2985 14.9998C24.2985 20.1242 20.1242 24.2985 14.9998 24.2985ZM14.9998 6.3799C10.2487 6.3799 6.3799 10.2487 6.3799 14.9998C6.3799 19.7509 10.2487 23.6197 14.9998 23.6197C19.7509 23.6197 23.6197 19.7509 23.6197 14.9998C23.6197 10.2487 19.7509 6.3799 14.9998 6.3799Z" fill="#DCA629"/>
<path d="M14.9998 21.9772C11.1514 21.9772 8.02246 18.8483 8.02246 14.9998C8.02246 11.1514 11.1514 8.02246 14.9998 8.02246C18.8483 8.02246 21.9704 11.1582 21.9704 14.9998C21.9704 18.8483 18.8415 21.9772 14.9998 21.9772ZM14.9998 8.70798C11.5247 8.70798 8.70119 11.5315 8.70119 15.0066C8.70119 18.4817 11.5247 21.3053 14.9998 21.3053C18.4749 21.3053 21.2985 18.4817 21.2985 15.0066C21.2985 11.5315 18.4682 8.70798 14.9998 8.70798Z" fill="#DCA629"/>
<path d="M21.3325 9.00685C21.2443 9.00685 21.1561 8.97291 21.095 8.90504C20.9592 8.76929 20.9592 8.55888 21.095 8.42314L25.2488 4.26929C25.3846 4.13354 25.595 4.13354 25.7307 4.26929C25.8665 4.40504 25.8665 4.61544 25.7307 4.75119L21.5769 8.90504C21.509 8.97291 21.4208 9.00685 21.3325 9.00685Z" fill="#DCA629"/>
<path d="M26.8026 5.39626C26.2393 5.39626 25.6759 5.17907 25.2483 4.75146C24.8343 4.33744 24.6035 3.78766 24.6035 3.19717C24.6035 2.60667 24.8343 2.05689 25.2483 1.64287C26.1035 0.787664 27.4949 0.787664 28.3501 1.64287C28.7642 2.05689 28.9949 2.60667 28.9949 3.19717C28.9949 3.78766 28.7642 4.33744 28.3501 4.75146C27.9225 5.17907 27.3592 5.38947 26.8026 5.39626ZM26.8026 1.68359C26.4157 1.68359 26.0289 1.83291 25.7302 2.12477C25.4451 2.40984 25.289 2.78993 25.289 3.19717C25.289 3.60441 25.4451 3.9845 25.7302 4.26956C26.3207 4.86006 27.2845 4.86006 27.875 4.26956C28.1601 3.9845 28.3162 3.60441 28.3162 3.19717C28.3162 2.78993 28.1601 2.40984 27.875 2.12477C27.5764 1.83291 27.1895 1.68359 26.8026 1.68359Z" fill="#DCA629"/>
<path d="M25.4864 25.8325C25.3981 25.8325 25.3099 25.7986 25.2488 25.7307L21.095 21.5769C20.9592 21.4411 20.9592 21.2307 21.095 21.095C21.2307 20.9592 21.4411 20.9592 21.5769 21.095L25.7307 25.2488C25.8665 25.3846 25.8665 25.595 25.7307 25.7307C25.6628 25.7986 25.5746 25.8325 25.4864 25.8325Z" fill="#DCA629"/>
<path d="M26.8026 29.0022C26.2393 29.0022 25.6759 28.785 25.2483 28.3574C24.8343 27.9434 24.6035 27.3936 24.6035 26.8031C24.6035 26.2194 24.8343 25.6629 25.2483 25.2488C26.1035 24.3936 27.4949 24.3936 28.3501 25.2488C28.7642 25.6629 28.9949 26.2126 28.9949 26.8031C28.9949 27.3936 28.7642 27.9434 28.3501 28.3574C27.9225 28.785 27.3592 29.0022 26.8026 29.0022ZM26.8026 25.2895C26.4157 25.2895 26.0289 25.4389 25.7302 25.7307C25.4451 26.0158 25.289 26.3959 25.289 26.8031C25.289 27.2104 25.4451 27.5905 25.7302 27.8755C26.3207 28.466 27.2845 28.466 27.875 27.8755C28.1601 27.5905 28.3162 27.2104 28.3162 26.8031C28.3162 26.3959 28.1601 26.0158 27.875 25.7307C27.5764 25.4389 27.1895 25.2895 26.8026 25.2895Z" fill="#DCA629"/>
<path d="M4.50734 25.8325C4.4191 25.8325 4.33086 25.7986 4.26978 25.7307C4.13403 25.595 4.13403 25.3846 4.26978 25.2488L8.42362 21.095C8.55937 20.9592 8.76978 20.9592 8.90553 21.095C9.04127 21.2307 9.04127 21.4411 8.90553 21.5769L4.75168 25.7307C4.67702 25.7986 4.59557 25.8325 4.50734 25.8325Z" fill="#DCA629"/>
<path d="M3.19668 29.0023C2.63333 29.0023 2.06998 28.7851 1.64238 28.3575C0.787176 27.5023 0.787176 26.1109 1.64238 25.2557C2.49758 24.4005 3.88899 24.4005 4.74419 25.2557C5.15822 25.6697 5.38899 26.2195 5.38899 26.81C5.38899 27.4005 5.15822 27.9502 4.74419 28.3643C4.31659 28.7851 3.75324 29.0023 3.19668 29.0023ZM2.12428 27.8756C2.71478 28.4661 3.67858 28.4661 4.26908 27.8756C4.55414 27.5905 4.71025 27.2104 4.71025 26.8032C4.71025 26.3959 4.55414 26.0158 4.26908 25.7308C3.67858 25.1403 2.71478 25.1403 2.12428 25.7308C1.53378 26.3281 1.53378 27.2851 2.12428 27.8756Z" fill="#DCA629"/>
<path d="M8.66113 9.00685C8.5729 9.00685 8.48466 8.97291 8.42358 8.90504L4.26294 4.75119C4.1272 4.61544 4.1272 4.40504 4.26294 4.26929C4.39869 4.13354 4.6091 4.13354 4.74484 4.26929L8.89869 8.42314C9.03444 8.55888 9.03444 8.76929 8.89869 8.90504C8.8376 8.97291 8.74937 9.00685 8.66113 9.00685Z" fill="#DCA629"/>
<path d="M3.19668 5.39582C2.63333 5.39582 2.06998 5.17863 1.64238 4.75102C0.787176 3.89582 0.787176 2.50442 1.64238 1.64922C2.49758 0.794012 3.88899 0.794012 4.74419 1.64922C5.59939 2.50442 5.59939 3.89582 4.74419 4.75102C4.31659 5.17863 3.75324 5.39582 3.19668 5.39582ZM2.12428 2.13112C1.53378 2.72161 1.53378 3.68541 2.12428 4.27591C2.71478 4.86641 3.67858 4.86641 4.26908 4.27591C4.85957 3.68541 4.85957 2.72161 4.26908 2.13112C3.67179 1.53383 2.71478 1.53383 2.12428 2.13112Z" fill="#DCA629"/>
<path d="M15 6.37977C14.81 6.37977 14.6606 6.23045 14.6606 6.04041V2.54493C14.6606 2.35489 14.81 2.20557 15 2.20557C15.1901 2.20557 15.3394 2.35489 15.3394 2.54493V6.04041C15.3394 6.23045 15.1833 6.37977 15 6.37977Z" fill="#DCA629"/>
<path d="M14.9994 2.88462C14.2053 2.88462 13.5537 2.23982 13.5537 1.43891C13.5537 0.638009 14.1985 0 14.9994 0C15.7935 0 16.4383 0.644796 16.4383 1.43891C16.4383 2.23303 15.7935 2.88462 14.9994 2.88462ZM14.9994 0.678733C14.5786 0.678733 14.2324 1.0181 14.2324 1.43891C14.2324 1.85973 14.5718 2.20588 14.9994 2.20588C15.4202 2.20588 15.7596 1.86652 15.7596 1.43891C15.7596 1.02489 15.4202 0.678733 14.9994 0.678733Z" fill="#DCA629"/>
<path d="M27.455 15.3394H23.9595C23.7694 15.3394 23.6201 15.1901 23.6201 15C23.6201 14.81 23.7694 14.6606 23.9595 14.6606H27.455C27.645 14.6606 27.7943 14.81 27.7943 15C27.7943 15.1901 27.6382 15.3394 27.455 15.3394Z" fill="#DCA629"/>
<path d="M28.5541 16.4457C27.76 16.4457 27.1152 15.8009 27.1152 14.9999C27.1152 14.2058 27.76 13.561 28.5541 13.561C29.3483 13.561 29.9931 14.2058 29.9931 14.9999C29.9999 15.8009 29.3483 16.4457 28.5541 16.4457ZM28.5541 14.2398C28.1333 14.2398 27.794 14.5791 27.794 14.9999C27.794 15.4208 28.1333 15.7669 28.5541 15.7669C28.975 15.7669 29.3143 15.4276 29.3143 14.9999C29.3143 14.5723 28.975 14.2398 28.5541 14.2398Z" fill="#DCA629"/>
<path d="M15 27.7938C14.81 27.7938 14.6606 27.6445 14.6606 27.4545V23.959C14.6606 23.769 14.81 23.6196 15 23.6196C15.1901 23.6196 15.3394 23.769 15.3394 23.959V27.4545C15.3394 27.6445 15.1833 27.7938 15 27.7938Z" fill="#DCA629"/>
<path d="M14.999 29.9998C14.2049 29.9998 13.5601 29.3551 13.5601 28.5609C13.5601 27.7668 14.2049 27.1152 14.999 27.1152C15.7931 27.1152 16.4447 27.76 16.4447 28.5609C16.4379 29.3551 15.7931 29.9998 14.999 29.9998ZM14.999 27.794C14.5782 27.794 14.2388 28.1333 14.2388 28.5609C14.2388 28.9885 14.5782 29.3211 14.999 29.3211C15.4198 29.3211 15.7659 28.9817 15.7659 28.5609C15.7659 28.1401 15.4198 27.794 14.999 27.794Z" fill="#DCA629"/>
<path d="M6.0409 15.3394H2.54542C2.35538 15.3394 2.20605 15.1901 2.20605 15C2.20605 14.81 2.35538 14.6606 2.54542 14.6606H6.0409C6.23094 14.6606 6.38026 14.81 6.38026 15C6.38026 15.1901 6.22415 15.3394 6.0409 15.3394Z" fill="#DCA629"/>
<path d="M1.43891 16.4457C0.644796 16.4457 0 15.8009 0 14.9999C0 14.2058 0.644796 13.561 1.43891 13.561C2.23303 13.561 2.87783 14.2058 2.87783 14.9999C2.88462 15.8009 2.23303 16.4457 1.43891 16.4457ZM1.43891 14.2398C1.0181 14.2398 0.678733 14.5791 0.678733 14.9999C0.678733 15.4208 1.0181 15.7669 1.43891 15.7669C1.85973 15.7669 2.1991 15.4276 2.1991 14.9999C2.1991 14.5723 1.85973 14.2398 1.43891 14.2398Z" fill="#DCA629"/>
</svg>
