<svg width="33" height="30" viewBox="0 0 33 30" fill="none" xmlns="http://www.w3.org/2000/svg">
<path d="M31.2155 5.89379H28.7307C28.4474 5.89379 28.2178 6.12336 28.2178 6.40671C28.2178 6.69005 28.4474 6.91963 28.7307 6.91963H31.2155C31.6258 6.91963 31.9596 7.2541 31.9596 7.66542V21.0864H6.62371V16.2933C6.62371 16.01 6.39414 15.7804 6.11079 15.7804C5.82745 15.7804 5.59787 16.01 5.59787 16.2933V23.8661C5.59787 24.8421 6.39282 25.6361 7.36951 25.6361H16.4757V26.6639C16.4757 27.6396 15.9466 28.5513 15.095 29.0428C14.8938 29.1589 14.7958 29.3954 14.8558 29.6197C14.9159 29.844 15.119 30 15.3513 30H23.2314C23.4636 30 23.6668 29.844 23.7268 29.6197C23.7869 29.3954 23.6889 29.1589 23.4877 29.0428C22.636 28.5513 22.1069 27.6396 22.1069 26.6639V25.6361H31.2151C32.1912 25.6361 32.9851 24.8421 32.9851 23.8661V7.66542C32.9855 6.6884 32.1915 5.89379 31.2155 5.89379ZM21.8777 28.9738H16.7056C17.2126 28.3211 17.5016 27.5103 17.5016 26.6636V25.6357H21.0814V26.6636C21.0814 27.5103 21.3707 28.3214 21.8777 28.9738ZM31.2155 24.6102H7.36951C6.95818 24.6102 6.62371 24.2764 6.62371 23.8664V22.1129H31.9596V23.8664C31.9596 24.2764 31.6258 24.6102 31.2155 24.6102ZM6.71409 14.4673L9.19919 18.7728C9.53894 19.3606 10.1571 19.6895 10.7927 19.6895C11.1041 19.6895 11.4198 19.6103 11.7084 19.4441L12.2048 19.1568C13.0812 18.6501 13.3824 17.5253 12.876 16.6496L10.5773 12.6696H15.8061C15.9895 12.6696 16.1587 12.5716 16.2504 12.413C16.3421 12.2543 16.3421 12.0587 16.2504 11.9001L14.2334 8.40693L15.7253 6.74975C15.8741 6.5845 15.8995 6.34239 15.7883 6.15008L14.4877 3.89621C14.3765 3.70357 14.1542 3.60462 13.9365 3.6508L11.7552 4.11523L9.73817 0.6221C9.64647 0.463441 9.47726 0.365475 9.29386 0.365475C9.11046 0.365475 8.94125 0.463441 8.84955 0.6221L5.86044 5.80011L1.98105 8.0398C0.087703 9.13293 -0.562764 11.5633 0.531024 13.4573C1.26461 14.7279 2.60084 15.439 3.9727 15.439C4.64493 15.439 5.32575 15.2682 5.94851 14.909L6.71409 14.4673ZM11.6912 18.2688L11.1955 18.5558C10.8079 18.7791 10.3111 18.6462 10.0878 18.2599L7.60238 13.9544L9.50101 12.8576L11.9878 17.1632C12.2111 17.5491 12.0778 18.0452 11.6912 18.2688ZM13.7858 4.73238L14.7137 6.34041L13.6941 7.47312L12.2949 5.0497L13.7858 4.73238ZM9.29419 1.90456L14.9178 11.6438H9.9849L6.82855 6.17581L9.29419 1.90456ZM1.41964 12.9444C0.608868 11.5402 1.09111 9.73854 2.4943 8.92842L6.04845 6.87642L8.98809 11.969L5.43592 14.0207C4.03174 14.8311 2.23009 14.3479 1.41964 12.9444ZM18.5366 8.526C18.2533 8.526 18.0237 8.75558 18.0237 9.03892C18.0237 9.32226 18.2533 9.55184 18.5366 9.55184H25.5783C26.6444 9.55184 27.5119 8.68433 27.5119 7.61825V5.19351C27.5119 4.12842 26.6444 3.26157 25.5783 3.26157H24.7741V1.33689C24.7741 0.59967 24.1751 0 23.4389 0C22.5951 0 22.2748 0.803848 22.1386 1.14656L21.2925 3.26157H18.5366C18.2533 3.26157 18.0237 3.49115 18.0237 3.77449C18.0237 4.05783 18.2533 4.28741 18.5366 4.28741H19.9138V8.52567L18.5366 8.526ZM20.9396 4.28774H21.6399C21.8497 4.28774 22.0383 4.16009 22.1162 3.96515L23.0916 1.52688C23.2756 1.06476 23.3673 1.02617 23.4389 1.02617C23.6094 1.02617 23.7483 1.1657 23.7483 1.33722V3.77482C23.7483 4.05816 23.9779 4.28774 24.2612 4.28774H25.5783C26.0787 4.28774 26.4861 4.69412 26.4861 5.19351V7.61825C26.4861 8.11864 26.0787 8.526 25.5783 8.526H20.9396V4.28774ZM24.9763 11.7299C24.9757 11.7299 24.9753 11.7299 24.9747 11.7299C24.3209 11.7299 23.7074 11.9832 23.2469 12.4437L22.767 12.9236L22.2864 12.4443C21.8269 11.9838 21.2137 11.7302 20.5599 11.7302C19.9058 11.7302 19.2927 11.9838 18.8342 12.4433C18.374 12.9021 18.1204 13.515 18.12 14.1684C18.1197 14.8229 18.373 15.4371 18.8338 15.8975L22.4048 19.4682C22.5051 19.5684 22.6364 19.6186 22.7676 19.6186C22.8989 19.6186 23.0302 19.5684 23.1305 19.4682L26.7014 15.8975C27.1623 15.4371 27.4156 14.8229 27.4152 14.1684C27.4149 13.515 27.1613 12.9021 26.7021 12.444C26.2426 11.9838 25.6301 11.7302 24.9763 11.7299ZM25.9758 15.1722L22.7676 18.3803L19.5595 15.1722C19.2927 14.9053 19.1462 14.5491 19.1462 14.1691C19.1465 13.7898 19.293 13.4349 19.5598 13.1687C19.8254 12.9025 20.1806 12.756 20.5599 12.756C20.9393 12.756 21.2945 12.9025 21.561 13.1697L22.4051 14.0118C22.6054 14.2117 22.9299 14.2117 23.1301 14.0114L23.9723 13.1693C24.2388 12.9028 24.5947 12.756 24.9743 12.756C24.9747 12.756 24.975 12.756 24.9753 12.756C25.3547 12.7563 25.7096 12.9028 25.9758 13.1697C26.2416 13.4349 26.3884 13.7901 26.3884 14.1691C26.3894 14.5491 26.2426 14.9053 25.9758 15.1722Z" fill="#DCA629"/>
</svg>
