<svg width="30" height="30" viewBox="0 0 30 30" fill="none" xmlns="http://www.w3.org/2000/svg">
<path d="M6.60666 22.8936L9.71781 19.7824C9.85492 19.6453 10.0776 19.6453 10.2147 19.7824C10.3518 19.9195 10.3518 20.1422 10.2147 20.2792L7.1035 23.3904C7.29802 23.6834 7.39528 24.0232 7.39528 24.3618C7.39528 24.8107 7.22302 25.2618 6.87966 25.6051V25.6063C6.53633 25.9496 6.08518 26.1219 5.6352 26.1219C5.18522 26.1219 4.73524 25.9497 4.39191 25.6063L4.39074 25.6051C4.0474 25.2618 3.87512 24.8118 3.87512 24.3618C3.87512 23.9119 4.04738 23.4607 4.39074 23.1174L4.41183 23.0975C4.75282 22.767 5.19461 22.6018 5.6352 22.6018C5.97386 22.6018 6.31252 22.699 6.60666 22.8936ZM14.9982 12.8464C16.1876 12.8464 17.1508 13.8108 17.1508 14.9991C17.1508 16.1885 16.1876 17.1517 14.9982 17.1517C13.8088 17.1517 12.8455 16.1885 12.8455 14.9991C12.8455 13.8097 13.8099 12.8464 14.9982 12.8464ZM18.7996 8.25874C18.2617 7.95525 17.684 7.71385 17.0758 7.5451C16.6915 8.30209 15.9052 8.82239 14.9982 8.82239C14.0901 8.82239 13.3038 8.30326 12.9206 7.5451C12.3124 7.71385 11.7347 7.95525 11.1968 8.25874C11.4605 9.06612 11.2706 9.98834 10.6297 10.6305C9.9875 11.2726 9.06528 11.4613 8.2579 11.1976C7.95441 11.7355 7.71301 12.3132 7.54309 12.9214C8.30008 13.3057 8.81921 14.092 8.81921 14.999C8.81921 15.9072 8.30008 16.6935 7.54309 17.0767C7.71184 17.6848 7.95324 18.2626 8.2579 18.8004C9.06528 18.5368 9.9875 18.7254 10.6297 19.3676C11.2706 20.0097 11.4593 20.932 11.1968 21.7393C11.7347 22.0428 12.3124 22.2842 12.9206 22.4541C13.3049 21.6972 14.0912 21.178 14.9982 21.178C15.9052 21.178 16.6915 21.6972 17.0758 22.4541C17.684 22.2854 18.2617 22.044 18.7996 21.7393C18.5359 20.932 18.7246 20.0097 19.3667 19.3676C20.0077 18.7254 20.9311 18.5368 21.7373 18.8004C22.042 18.2626 22.2834 17.6848 22.4521 17.0767C21.6952 16.6923 21.1749 15.906 21.1749 14.999C21.1749 14.0909 21.694 13.3058 22.4521 12.9214C22.2834 12.3132 22.042 11.7355 21.7373 11.1976C20.9299 11.4613 20.0077 11.2726 19.3667 10.6305C18.7246 9.98834 18.5359 9.06612 18.7996 8.25874ZM11.4568 14.9991C11.4568 13.0434 13.0423 11.4578 14.9982 11.4578C16.954 11.4578 18.5395 13.0433 18.5395 14.9991C18.5395 16.955 16.954 18.5405 14.9982 18.5405C13.0423 18.5405 11.4568 16.955 11.4568 14.9991ZM23.3894 7.1059L20.2782 10.2171C20.1411 10.3542 19.9185 10.3542 19.7814 10.2171C19.6443 10.0799 19.6443 9.85731 19.7814 9.72021L22.8925 6.60906C22.698 6.3161 22.6008 5.97744 22.6008 5.63761C22.6008 5.18763 22.773 4.73648 23.1164 4.39315C23.4597 4.04982 23.9109 3.87753 24.3608 3.87753C24.8108 3.87753 25.262 4.04979 25.6053 4.39315C25.9486 4.73651 26.1209 5.18763 26.1209 5.63761C26.1209 6.08759 25.9487 6.53874 25.6053 6.88208C25.262 7.22541 24.8108 7.39769 24.3608 7.39769C24.0222 7.39769 23.6835 7.30042 23.3894 7.1059ZM7.10464 6.60906L10.2158 9.72021C10.3529 9.85732 10.3529 10.08 10.2158 10.2171C10.0787 10.3542 9.85605 10.3542 9.71895 10.2171L6.6078 7.1059C6.31484 7.30042 5.97501 7.39768 5.63635 7.39768C5.18637 7.39768 4.73639 7.22542 4.39306 6.88206H4.39189C4.04855 6.53873 3.87627 6.08758 3.87627 5.6376C3.87627 5.18762 4.04853 4.73647 4.39189 4.39314L4.41298 4.37322C4.75398 4.04275 5.19577 3.87755 5.63635 3.87755C6.08633 3.87755 6.53748 4.04981 6.88082 4.39317C7.22415 4.7365 7.39643 5.18765 7.39643 5.63763C7.39643 5.97628 7.29916 6.31492 7.10464 6.60906ZM15.3507 3.485V7.8864C15.3507 8.08092 15.1936 8.23795 14.9991 8.23795C14.8046 8.23795 14.6475 8.08093 14.6475 7.8864V3.485C14.303 3.41469 13.996 3.24478 13.7558 3.00454L13.7546 3.00337C13.4359 2.68464 13.239 2.24522 13.239 1.76008C13.239 1.27494 13.4359 0.835523 13.7546 0.516788L13.7558 0.515616C14.0745 0.196881 14.5139 0 14.9991 0C15.4842 0 15.9236 0.196866 16.2424 0.515616L16.2435 0.516788C16.5623 0.835523 16.7591 1.27494 16.7591 1.76008C16.7591 2.24522 16.5623 2.68464 16.2435 3.00337L16.2424 3.00454C16.0033 3.2436 15.6952 3.41469 15.3507 3.485ZM26.5146 15.3522H22.1132C21.9187 15.3522 21.7617 15.1951 21.7617 15.0006C21.7617 14.8061 21.9187 14.649 22.1132 14.649H26.5146C26.5849 14.3045 26.756 13.9975 26.9951 13.7573L26.9963 13.7561C27.315 13.4374 27.7544 13.2405 28.2396 13.2405C28.7259 13.2405 29.1653 13.4374 29.484 13.7561L29.5039 13.7772C29.8098 14.0936 29.9984 14.5248 29.9984 15.0006C29.9984 15.4869 29.8016 15.9263 29.484 16.2439V16.245C29.1653 16.5638 28.7259 16.7607 28.2396 16.7607C27.7544 16.7607 27.315 16.5638 26.9963 16.245L26.9951 16.2439C26.756 16.0048 26.585 15.6967 26.5146 15.3522ZM3.4838 14.649H7.884C8.07852 14.649 8.23555 14.8061 8.23555 15.0006C8.23555 15.1951 8.07853 15.3522 7.884 15.3522H3.4838C3.41349 15.6967 3.24358 16.0037 3.00334 16.2439L3.00217 16.2451C2.68344 16.5638 2.24402 16.7607 1.75888 16.7607C1.27374 16.7607 0.834323 16.5638 0.515588 16.2451L0.514416 16.2439C0.196851 15.9264 0 15.4869 0 15.0006C0 14.5143 0.196866 14.0749 0.514416 13.7573L0.515588 13.7562C0.834323 13.4374 1.27374 13.2406 1.75888 13.2406C2.24402 13.2406 2.68344 13.4374 3.00217 13.7562L3.00334 13.7573C3.2424 13.9964 3.41349 14.3045 3.4838 14.649ZM22.8926 23.3921L19.7814 20.281C19.6443 20.1439 19.6443 19.9212 19.7814 19.7841C19.9186 19.647 20.1412 19.647 20.2783 19.7841L23.3894 22.8953C23.6824 22.7008 24.0222 22.6035 24.3609 22.6035C24.8109 22.6035 25.262 22.7758 25.6053 23.1191C25.9487 23.4625 26.121 23.9136 26.121 24.3636C26.121 24.8124 25.9487 25.2636 25.6053 25.6069V25.6081C25.262 25.9514 24.8109 26.1237 24.3609 26.1237C23.9109 26.1237 23.4598 25.9514 23.1164 25.6081L23.0965 25.587C22.766 25.246 22.6008 24.8042 22.6008 24.3636C22.6008 24.0249 22.6981 23.6863 22.8926 23.3921ZM14.6466 26.5162V22.116C14.6466 21.9215 14.8036 21.7644 14.9981 21.7644C15.1927 21.7644 15.3497 21.9215 15.3497 22.116V26.5162C15.6942 26.5865 16.0012 26.7576 16.2415 26.9967L16.2426 26.9978C16.5614 27.3166 16.7583 27.756 16.7583 28.2411C16.7583 28.7274 16.5614 29.1668 16.2426 29.4856L16.2215 29.5055C15.9051 29.8113 15.4739 30 14.9982 30C14.5119 30 14.0724 29.8031 13.7549 29.4856H13.7537C13.435 29.1668 13.2381 28.7274 13.2381 28.2411C13.2381 27.756 13.435 27.3166 13.7537 26.9978L13.7549 26.9967C13.9939 26.7576 14.3021 26.5865 14.6466 26.5162ZM4.57935 24.3636C4.57935 24.6342 4.68247 24.9049 4.88753 25.1112C5.09377 25.3174 5.36445 25.4194 5.63515 25.4194C5.90584 25.4194 6.17654 25.3162 6.38278 25.11L6.38395 25.1112C6.59019 24.9049 6.6933 24.6343 6.6933 24.3636C6.6933 24.0929 6.59018 23.8222 6.38395 23.6159C6.17772 23.4097 5.90703 23.3066 5.63632 23.3066C5.37149 23.3066 5.10784 23.405 4.90394 23.6007L4.8887 23.6159C4.68246 23.8222 4.57935 24.0928 4.57935 24.3636ZM25.4167 5.63902C25.4167 5.36833 25.3136 5.09764 25.1073 4.8914C24.9011 4.68516 24.6304 4.58205 24.3597 4.58205C24.089 4.58205 23.8183 4.68517 23.6121 4.8914C23.4058 5.09762 23.3027 5.36832 23.3027 5.63902C23.3027 5.90973 23.4059 6.18041 23.6121 6.38665C23.8183 6.59289 24.089 6.69599 24.3597 6.69599C24.6304 6.69599 24.9011 6.59287 25.1073 6.38665C25.3136 6.18042 25.4167 5.90973 25.4167 5.63902ZM5.6353 4.58205C5.37047 4.58205 5.10682 4.68048 4.90292 4.87618L4.88768 4.89141C4.68144 5.09765 4.57834 5.36833 4.57834 5.63904C4.57834 5.90975 4.68146 6.18042 4.88768 6.38666L4.88651 6.38784C5.09275 6.59408 5.36343 6.69601 5.63414 6.69601C5.90484 6.69601 6.17552 6.59289 6.38176 6.38667C6.588 6.18044 6.69111 5.90975 6.69111 5.63904C6.69111 5.36833 6.58799 5.09766 6.38176 4.89142C6.17554 4.68517 5.90484 4.58207 5.63414 4.58207L5.6353 4.58205ZM15.7457 1.01282C15.5547 0.82181 15.2899 0.703471 14.9981 0.703471C14.7052 0.703471 14.4415 0.821825 14.2505 1.01282C14.0595 1.20382 13.9411 1.46865 13.9411 1.76044C13.9411 2.0534 14.0595 2.31707 14.2505 2.50807C14.4415 2.69907 14.7063 2.81624 14.9981 2.81624C15.2911 2.81624 15.5547 2.69789 15.7457 2.50807C15.9367 2.31706 16.0539 2.05224 16.0539 1.76044C16.0539 1.46749 15.9356 1.20382 15.7457 1.01282ZM28.9862 15.7484C29.1784 15.5563 29.2968 15.2914 29.2968 15.0008C29.2968 14.7172 29.1843 14.4594 29.0015 14.2684L28.9862 14.2532C28.7952 14.0622 28.5304 13.9438 28.2386 13.9438C27.9457 13.9438 27.682 14.0622 27.491 14.252C27.3 14.443 27.1828 14.7078 27.1828 14.9996C27.1828 15.2926 27.3012 15.5563 27.491 15.7473C27.682 15.9383 27.9468 16.0554 28.2386 16.0554C28.5304 16.0554 28.7952 15.9371 28.9862 15.7461L28.9874 15.7473L28.9862 15.7484ZM1.01012 14.252C0.81794 14.4442 0.699571 14.709 0.699571 14.9996C0.699571 15.2914 0.817925 15.5563 1.01012 15.7473C1.20112 15.9383 1.46595 16.0554 1.75774 16.0554C2.0507 16.0554 2.31437 15.9371 2.50537 15.7473C2.69637 15.5563 2.81354 15.2914 2.81354 14.9996C2.81354 14.7067 2.69519 14.443 2.50537 14.252C2.31436 14.061 2.04954 13.9438 1.75774 13.9438C1.46596 13.9438 1.20112 14.0622 1.01012 14.252ZM24.3598 25.4184C24.6305 25.4184 24.9012 25.3153 25.1075 25.1091L25.1086 25.1102C25.3149 24.904 25.4168 24.6333 25.4168 24.3626C25.4168 24.0919 25.3137 23.8212 25.1075 23.615C24.9012 23.4087 24.6305 23.3056 24.3598 23.3056C24.0891 23.3056 23.8185 23.4087 23.6122 23.615C23.406 23.8212 23.3029 24.0919 23.3029 24.3626C23.3029 24.6274 23.4013 24.8911 23.597 25.095L23.6122 25.1102C23.8185 25.3165 24.0891 25.4196 24.3599 25.4196L24.3598 25.4184ZM14.2494 28.9876C14.4416 29.1798 14.7064 29.2982 14.997 29.2982C15.2806 29.2982 15.5384 29.1857 15.7294 29.0029L15.7446 28.9876C15.9357 28.7966 16.054 28.5318 16.054 28.24C16.054 27.9471 15.9356 27.6834 15.7458 27.4924C15.5548 27.3014 15.29 27.1842 14.9982 27.1842C14.7052 27.1842 14.4416 27.3026 14.2506 27.4924C14.0596 27.6834 13.9412 27.9482 13.9412 28.24C13.9412 28.5318 14.0596 28.7966 14.2506 28.9876L14.2494 28.9888L14.2494 28.9876Z" fill="#DCA629"/>
</svg>
