<svg width="160" height="160" viewBox="0 0 160 160" fill="none" xmlns="http://www.w3.org/2000/svg">
<circle cx="80" cy="80" r="75" fill="#DDA72A" stroke="#222222" stroke-width="10"/>
<path d="M92.5 106.875H67.5C66.475 106.875 65.625 106.025 65.625 105C65.625 103.975 66.475 103.125 67.5 103.125H92.5C93.525 103.125 94.375 103.975 94.375 105C94.375 106.025 93.525 106.875 92.5 106.875Z" fill="#0B0B0B"/>
<path d="M95 55H65C59.475 55 55 59.475 55 65V87.5C55 93.025 59.475 97.5 65 97.5H95C100.525 97.5 105 93.025 105 87.5V65C105 59.475 100.525 55 95 55ZM74.975 68.3C76.375 68.3 77.5 69.425 77.5 70.8C77.5 72.175 76.375 73.3 75 73.3C73.625 73.3 72.5 72.175 72.5 70.8C72.5 69.425 73.6 68.3 74.975 68.3ZM67.1 68.3C68.5 68.3 69.625 69.425 69.625 70.8C69.625 72.175 68.5 73.3 67.125 73.3C65.75 73.3 64.625 72.175 64.625 70.8C64.625 69.425 65.7 68.3 67.1 68.3ZM93.15 87.15H66.9C65.85 87.15 65 86.3 65 85.275C65 84.25 65.825 83.4 66.85 83.4H93.175C94.2 83.4 95.05 84.25 95.05 85.275C95.05 86.3 94.2 87.15 93.15 87.15ZM93.15 72.675H83.95C82.925 72.675 82.075 71.825 82.075 70.8C82.075 69.775 82.925 68.925 83.95 68.925H93.15C94.175 68.925 95.025 69.775 95.025 70.8C95.025 71.825 94.2 72.675 93.15 72.675Z" fill="#0B0B0B"/>
</svg>
