<svg width="160" height="160" viewBox="0 0 160 160" fill="none" xmlns="http://www.w3.org/2000/svg">
<circle cx="80" cy="80" r="75" fill="#DDA72A" stroke="#222222" stroke-width="10"/>
<path d="M104.4 89.8L88.4 61C86.25 57.125 83.275 55 80 55C76.725 55 73.75 57.125 71.6 61L55.6 89.8C53.575 93.475 53.35 97 54.975 99.775C56.6 102.55 59.8 104.075 64 104.075H96C100.2 104.075 103.4 102.55 105.025 99.775C106.65 97 106.425 93.45 104.4 89.8ZM78.125 72.5C78.125 71.475 78.975 70.625 80 70.625C81.025 70.625 81.875 71.475 81.875 72.5V85C81.875 86.025 81.025 86.875 80 86.875C78.975 86.875 78.125 86.025 78.125 85V72.5ZM81.775 94.275C81.65 94.375 81.525 94.475 81.4 94.575C81.25 94.675 81.1 94.75 80.95 94.8C80.8 94.875 80.65 94.925 80.475 94.95C80.325 94.975 80.15 95 80 95C79.85 95 79.675 94.975 79.5 94.95C79.35 94.925 79.2 94.875 79.05 94.8C78.9 94.75 78.75 94.675 78.6 94.575C78.475 94.475 78.35 94.375 78.225 94.275C77.775 93.8 77.5 93.15 77.5 92.5C77.5 91.85 77.775 91.2 78.225 90.725C78.35 90.625 78.475 90.525 78.6 90.425C78.75 90.325 78.9 90.25 79.05 90.2C79.2 90.125 79.35 90.075 79.5 90.05C79.825 89.975 80.175 89.975 80.475 90.05C80.65 90.075 80.8 90.125 80.95 90.2C81.1 90.25 81.25 90.325 81.4 90.425C81.525 90.525 81.65 90.625 81.775 90.725C82.225 91.2 82.5 91.85 82.5 92.5C82.5 93.15 82.225 93.8 81.775 94.275Z" fill="#0B0B0B"/>
</svg>
