<svg width="160" height="160" viewBox="0 0 160 160" fill="none" xmlns="http://www.w3.org/2000/svg">
<circle cx="80" cy="80" r="75" fill="#DDA72A" stroke="#222222" stroke-width="10"/>
<g clip-path="url(#clip0_86_38)">
<path d="M54.2646 80.0011C54.2646 90.188 60.1847 98.9914 68.7692 103.163L56.4928 69.5273C55.0648 72.728 54.2646 76.2701 54.2646 80.0011Z" fill="#0B0B0B"/>
<path d="M97.3737 78.7019C97.3737 75.5212 96.2312 73.3185 95.2513 71.6041C93.9467 69.4842 92.724 67.6889 92.724 65.569C92.724 63.2032 94.5182 61.001 97.0456 61.001C97.1597 61.001 97.2679 61.0152 97.3791 61.0216C92.8003 56.8268 86.7001 54.2656 80 54.2656C71.009 54.2656 63.0988 58.8786 58.4971 65.8657C59.1009 65.8839 59.6699 65.8966 60.1532 65.8966C62.8452 65.8966 67.012 65.57 67.012 65.57C68.3994 65.4882 68.5629 67.5258 67.1771 67.6899C67.1771 67.6899 65.7829 67.8539 64.2315 67.9352L73.6035 95.8116L79.2355 78.9203L75.2258 67.9342C73.84 67.853 72.5271 67.6889 72.5271 67.6889C71.1402 67.6076 71.3028 65.4872 72.6897 65.569C72.6897 65.569 76.9398 65.8956 79.4686 65.8956C82.1601 65.8956 86.3274 65.569 86.3274 65.569C87.7157 65.4872 87.8788 67.5248 86.4925 67.6889C86.4925 67.6889 85.0953 67.853 83.5469 67.9342L92.8474 95.5996L95.4144 87.0214C96.527 83.4618 97.3737 80.905 97.3737 78.7019Z" fill="#0B0B0B"/>
<path d="M80.4521 82.25L72.7305 104.688C75.036 105.365 77.4742 105.736 80.0006 105.736C82.9976 105.736 85.8717 105.218 88.5469 104.277C88.4779 104.167 88.4152 104.05 88.3638 103.923L80.4521 82.25Z" fill="#0B0B0B"/>
<path d="M102.582 67.6523C102.693 68.4721 102.756 69.3521 102.756 70.2987C102.756 72.9103 102.268 75.8461 100.799 79.5169L92.9375 102.246C100.589 97.7838 105.735 89.4946 105.735 80.0002C105.735 75.5258 104.592 71.3183 102.582 67.6523Z" fill="#0B0B0B"/>
<path d="M80.0002 50C63.4585 50 50 63.4576 50 79.9993C50 96.5429 63.4585 110 80.0002 110C96.5415 110 110.002 96.5429 110.002 79.9993C110.001 63.4576 96.5415 50 80.0002 50ZM80.0002 108.625C64.2171 108.625 51.3756 95.7834 51.3756 79.9993C51.3756 64.2161 64.2166 51.3756 80.0002 51.3756C95.7829 51.3756 108.623 64.2161 108.623 79.9993C108.623 95.7834 95.7829 108.625 80.0002 108.625Z" fill="#0B0B0B"/>
</g>
<defs>
<clipPath id="clip0_86_38">
<rect width="59.9985" height="60" fill="white" transform="translate(50 50)"/>
</clipPath>
</defs>
</svg>
