<svg width="160" height="160" viewBox="0 0 160 160" fill="none" xmlns="http://www.w3.org/2000/svg">
<circle cx="80" cy="80" r="75" fill="#DDA72A" stroke="#222222" stroke-width="10"/>
<path d="M95.825 64.175L66.475 93.525C65.375 94.625 63.525 94.475 62.625 93.175C59.525 88.65 57.7 83.3 57.7 77.8V66.825C57.7 64.775 59.25 62.45 61.15 61.675L75.075 55.975C78.225 54.675 81.725 54.675 84.875 55.975L95 60.1C96.65 60.775 97.075 62.925 95.825 64.175Z" fill="#0B0B0B"/>
<path d="M98.175 67.6001C99.8 66.2251 102.275 67.4001 102.275 69.5251V77.8001C102.275 90.0251 93.4 101.475 81.275 104.825C80.45 105.05 79.55 105.05 78.7 104.825C75.15 103.825 71.85 102.15 69.025 99.9501C67.825 99.0251 67.7 97.2751 68.75 96.2001C74.2 90.6251 90.15 74.3751 98.175 67.6001Z" fill="#0B0B0B"/>
</svg>
