<svg width="160" height="160" viewBox="0 0 160 160" fill="none" xmlns="http://www.w3.org/2000/svg">
<circle cx="80" cy="80" r="75" fill="#DDA72A" stroke="#222222" stroke-width="10"/>
<path d="M59.775 92.9496C59.3 92.9496 58.825 92.7746 58.45 92.3996C55.025 88.9496 53.125 84.3996 53.125 79.5746C53.125 69.5496 61.25 61.3996 71.25 61.3996L86.425 61.4496L83.7 58.8496C82.95 58.1246 82.925 56.9496 83.65 56.1996C84.375 55.4496 85.55 55.4246 86.3 56.1496L92.4 61.9996C92.95 62.5246 93.125 63.3496 92.85 64.0496C92.575 64.7496 91.875 65.2246 91.1 65.2246L71.25 65.1746C63.325 65.1746 56.875 71.6496 56.875 79.5996C56.875 83.4246 58.375 87.0496 61.1 89.7746C61.825 90.4996 61.825 91.6996 61.1 92.4246C60.725 92.7746 60.25 92.9496 59.775 92.9496Z" fill="#0B0B0B"/>
<path d="M74.9998 104.375C74.5248 104.375 74.0748 104.2 73.6998 103.85L67.5998 98C67.0498 97.475 66.8748 96.65 67.1498 95.95C67.4248 95.25 68.1248 94.775 68.8998 94.775L88.7748 94.825C96.6998 94.825 103.15 88.35 103.15 80.4C103.15 76.575 101.65 72.95 98.9248 70.225C98.1998 69.5 98.1998 68.3 98.9248 67.575C99.6497 66.85 100.85 66.85 101.575 67.575C105 71.025 106.9 75.575 106.9 80.4C106.9 90.425 98.7748 98.575 88.7748 98.575L73.5998 98.525L76.3248 101.125C77.0748 101.85 77.0998 103.025 76.3748 103.775C75.9748 104.175 75.4998 104.375 74.9998 104.375Z" fill="#0B0B0B"/>
<path d="M72.5 88.75H87.5C92.3 88.75 96.25 84.825 96.25 80C96.25 75.2 92.325 71.25 87.5 71.25H72.5C67.7 71.25 63.75 75.175 63.75 80C63.75 84.825 67.675 88.75 72.5 88.75Z" fill="#0B0B0B"/>
</svg>
