<svg width="160" height="160" viewBox="0 0 160 160" fill="none" xmlns="http://www.w3.org/2000/svg">
<circle cx="80" cy="80" r="75" fill="#DDA72A" stroke="#222222" stroke-width="10"/>
<path d="M98.75 59.175C98.75 59.15 98.75 59.125 98.7 59.1C98.15 58.4 97.425 58.025 96.575 58.025C95.25 58.025 93.65 58.9 91.925 60.75C89.875 62.95 86.725 62.775 84.925 60.375L82.4 57.025C81.4 55.675 80.075 55 78.75 55C77.425 55 76.1 55.675 75.1 57.025L72.55 60.4C70.775 62.775 67.65 62.95 65.6 60.775L65.575 60.75C62.75 57.725 60.225 57.275 58.8 59.1C58.75 59.125 58.75 59.15 58.75 59.175C57.85 61.1 57.5 63.8 57.5 67.6V92.4C57.5 96.2 57.85 98.9 58.75 100.825C58.75 100.85 58.775 100.9 58.8 100.925C60.25 102.725 62.75 102.275 65.575 99.25L65.6 99.225C67.65 97.05 70.775 97.225 72.55 99.6L75.1 102.975C76.1 104.325 77.425 105 78.75 105C80.075 105 81.4 104.325 82.4 102.975L84.925 99.625C86.725 97.225 89.875 97.05 91.925 99.25C93.65 101.1 95.25 101.975 96.575 101.975C97.425 101.975 98.15 101.625 98.7 100.925C98.725 100.9 98.75 100.85 98.75 100.825C99.65 98.9 100 96.2 100 92.4V67.6C100 63.8 99.65 61.1 98.75 59.175ZM85 86.25H70C68.975 86.25 68.125 85.4 68.125 84.375C68.125 83.35 68.975 82.5 70 82.5H85C86.025 82.5 86.875 83.35 86.875 84.375C86.875 85.4 86.025 86.25 85 86.25ZM90 77.5H70C68.975 77.5 68.125 76.65 68.125 75.625C68.125 74.6 68.975 73.75 70 73.75H90C91.025 73.75 91.875 74.6 91.875 75.625C91.875 76.65 91.025 77.5 90 77.5Z" fill="#0B0B0B"/>
</svg>
