<svg width="63" height="62" viewBox="0 0 63 62" fill="none" xmlns="http://www.w3.org/2000/svg">
<g clip-path="url(#clip0_1_105)">
<path d="M48.7639 22.3707C48.644 22.1709 48.5141 22.0211 48.3743 21.9212C48.2344 21.8213 48.0446 21.7713 47.8048 21.7713H35.7566L47.7449 2.82986C47.8248 2.70998 47.8648 2.55014 47.8648 2.35033C47.8648 2.15053 47.8248 1.9707 47.7449 1.81086C47.625 1.65102 47.4852 1.53113 47.3253 1.45121C47.1655 1.37129 46.9856 1.33133 46.7858 1.33133H30.4219C30.2221 1.33133 30.0422 1.37129 29.8824 1.45121C29.7226 1.53113 29.6027 1.65102 29.5228 1.81086L14.1778 32.5008C14.0579 32.6606 13.998 32.8405 13.998 33.0403C13.998 33.2401 14.0579 33.3999 14.1778 33.5198C14.2577 33.6796 14.3876 33.8095 14.5674 33.9094C14.7472 34.0093 14.9171 34.0593 15.0769 34.0593H25.6266L14.1778 61.3925C14.0579 61.5923 14.0479 61.8021 14.1478 62.0219C14.2477 62.2416 14.3976 62.4315 14.5974 62.5913C14.6373 62.6313 14.7073 62.6612 14.8072 62.6812C14.9071 62.7012 14.997 62.7112 15.0769 62.7112C15.2368 62.7112 15.3866 62.6812 15.5265 62.6213C15.6663 62.5613 15.7962 62.4914 15.9161 62.4115L48.644 23.5096C48.7639 23.3498 48.8338 23.1699 48.8538 22.9701C48.8738 22.7703 48.8438 22.5705 48.7639 22.3707ZM18.6734 55.8179L28.0842 33.34C28.1241 33.1801 28.1441 33.0203 28.1441 32.8604C28.1441 32.7006 28.0842 32.5607 27.9643 32.4408C27.8844 32.321 27.7745 32.2211 27.6346 32.1411C27.4947 32.0612 27.3449 32.0213 27.185 32.0213H16.7553L31.0812 3.36933H44.9876L32.8795 22.3108C32.7995 22.4706 32.7596 22.6404 32.7596 22.8203C32.7596 23.0001 32.7995 23.1699 32.8795 23.3298C32.9994 23.4896 33.1292 23.6095 33.2691 23.6894C33.4089 23.7693 33.5988 23.8093 33.8385 23.8093H45.7069L18.6734 55.8179Z" fill="#DCA629"/>
</g>
<defs>
<clipPath id="clip0_1_105">
<rect width="61.3799" height="61.3799" fill="white" transform="matrix(1 0 0 -1 0.75 61.9321)"/>
</clipPath>
</defs>
</svg>
