<svg width="63" height="62" viewBox="0 0 63 62" fill="none" xmlns="http://www.w3.org/2000/svg">
<g clip-path="url(#clip0_1_110)">
<path d="M16.0506 48.0729C16.0506 48.6324 15.8508 49.1219 15.4512 49.5415C15.0516 49.9611 14.5521 50.1709 13.9527 50.1709C13.3933 50.1709 12.9137 49.9611 12.5141 49.5415C12.1145 49.1219 11.9147 48.6324 11.9147 48.0729C11.9147 47.5135 12.1145 47.024 12.5141 46.6044C12.9137 46.1848 13.3933 45.975 13.9527 45.975C14.5521 45.975 15.0516 46.1848 15.4512 46.6044C15.8508 47.024 16.0506 47.5135 16.0506 48.0729ZM60.8867 36.8639C60.8867 36.3844 60.8168 35.9049 60.6769 35.4253C60.5371 34.9458 60.3273 34.5062 60.0475 34.1066C60.6869 33.6671 61.1964 33.0976 61.576 32.3983C61.9557 31.699 62.1455 30.9497 62.1455 30.1505C62.1455 28.7918 61.6659 27.643 60.7069 26.7039C59.7478 25.7648 58.6089 25.2953 57.2902 25.2953H44.4628L45.302 23.4371C45.9014 22.1184 46.351 20.7597 46.6507 19.3611C46.9504 17.9625 47.1002 16.5239 47.1002 15.0453C47.1002 15.0453 47.1002 14.4559 47.1002 13.277C47.1002 12.0982 47.1002 11.5088 47.1002 11.5088C47.1002 10.1102 46.6107 8.92132 45.6317 7.94227C44.6526 6.96323 43.4838 6.47371 42.1251 6.47371C41.0861 6.47371 40.147 6.76343 39.3079 7.34286C38.4687 7.92229 37.8493 8.69154 37.4497 9.6506C37.4497 9.69056 37.2499 10.28 36.8503 11.4189C36.4507 12.5578 36.2509 13.1272 36.2509 13.1272C35.7314 14.6457 35.0121 16.0743 34.093 17.413C33.1739 18.7517 32.0949 19.9405 30.8561 20.9795L24.922 25.9546H21.5053V24.3362C21.5053 23.537 21.2156 22.8477 20.6362 22.2682C20.0567 21.6888 19.3474 21.3991 18.5082 21.3991H3.76269C2.92351 21.3991 2.21421 21.6888 1.63477 22.2682C1.05534 22.8477 0.765625 23.537 0.765625 24.3362V53.4077C0.765625 54.2469 1.05534 54.9562 1.63477 55.5356C2.21421 56.1151 2.92351 56.4048 3.76269 56.4048H18.5082C19.3474 56.4048 20.0567 56.1151 20.6362 55.5356C21.2156 54.9562 21.5053 54.2469 21.5053 53.4077V51.07H23.3635L25.2217 51.9691C27.4595 53.0481 29.7772 53.8673 32.1748 54.4267C34.5725 54.9862 36.9901 55.2659 39.4277 55.2659H53.5739C54.8926 55.2659 56.0315 54.7864 56.9905 53.8273C57.9496 52.8683 58.4291 51.7094 58.4291 50.3507C58.4291 49.8712 58.3492 49.3917 58.1894 48.9121C58.0295 48.4326 57.8097 48.013 57.53 47.6534C58.1694 47.2138 58.6789 46.6443 59.0585 45.945C59.4381 45.2457 59.6279 44.4765 59.6279 43.6373C59.6279 43.1178 59.558 42.6283 59.4181 42.1687C59.2783 41.7092 59.0685 41.2796 58.7888 40.88C59.4281 40.4404 59.9376 39.871 60.3173 39.1717C60.6969 38.4724 60.8867 37.7031 60.8867 36.8639ZM18.5082 53.4077H3.76269V24.3362H18.5082V53.4077ZM57.2902 32.0087H55.1323C54.7327 32.0087 54.3931 32.1585 54.1133 32.4583C53.8336 32.758 53.6938 33.1076 53.6938 33.5072C53.6938 33.9068 53.8336 34.2565 54.1133 34.5562C54.3931 34.8559 54.7327 35.0058 55.1323 35.0058H56.0315C56.551 35.0058 56.9905 35.1856 57.3502 35.5452C57.7098 35.9049 57.8896 36.3444 57.8896 36.8639C57.8896 37.3834 57.7098 37.833 57.3502 38.2126C56.9905 38.5922 56.551 38.7821 56.0315 38.7821H53.9335C53.494 38.7821 53.1343 38.9219 52.8546 39.2016C52.5749 39.4814 52.435 39.841 52.435 40.2806C52.435 40.6802 52.5749 41.0299 52.8546 41.3296C53.1343 41.6293 53.494 41.7791 53.9335 41.7791H54.7727C55.2922 41.7791 55.7418 41.9589 56.1214 42.3186C56.501 42.6782 56.6908 43.1178 56.6908 43.6373C56.6908 44.1568 56.501 44.5964 56.1214 44.956C55.7418 45.3157 55.2922 45.4955 54.7727 45.4955H52.6748C52.2751 45.4955 51.9255 45.6453 51.6258 45.945C51.3261 46.2447 51.1762 46.5944 51.1762 46.994C51.1762 47.4336 51.3261 47.7932 51.6258 48.0729C51.9255 48.3527 52.2751 48.4925 52.6748 48.4925H53.5739C54.0934 48.4925 54.5329 48.6724 54.8926 49.032C55.2522 49.3917 55.4321 49.8312 55.4321 50.3507C55.4321 50.8702 55.2522 51.3198 54.8926 51.6994C54.5329 52.079 54.0934 52.2688 53.5739 52.2688H39.4277C37.2299 52.2688 35.032 52.0191 32.8342 51.5196C30.6364 51.0201 28.5384 50.2908 26.5404 49.3317L24.3825 48.2528C24.2626 48.2128 24.1527 48.1828 24.0528 48.1629C23.9529 48.1429 23.843 48.1329 23.7231 48.1329H21.5053V28.8917H25.4614C25.6612 28.8917 25.8411 28.8618 26.0009 28.8018C26.1607 28.7419 26.3006 28.652 26.4205 28.5321L32.7743 23.2573C34.2528 22.0584 35.5216 20.6798 36.5805 19.1213C37.6395 17.5628 38.4687 15.8845 39.0681 14.0863C39.0681 14.0863 39.2679 13.5168 39.6675 12.3779C40.0671 11.239 40.2669 10.6496 40.2669 10.6097C40.4268 10.29 40.6765 10.0202 41.0162 9.80045C41.3558 9.58067 41.7255 9.47078 42.1251 9.47078C42.6845 9.47078 43.1541 9.67058 43.5337 10.0702C43.9133 10.4698 44.1032 10.9493 44.1032 11.5088C44.1032 11.5088 44.1032 12.0982 44.1032 13.277C44.1032 14.4559 44.1032 15.0453 44.1032 15.0453C44.1032 16.2841 43.9733 17.5129 43.7135 18.7317C43.4538 19.9505 43.0842 21.1194 42.6046 22.2383L40.8663 26.1344C40.7864 26.2943 40.7365 26.4641 40.7165 26.6439C40.6965 26.8238 40.7065 26.9936 40.7464 27.1534C40.7864 27.1934 40.9063 27.3832 41.1061 27.7229C41.3059 28.0626 41.6655 28.2324 42.185 28.2324H57.2902C57.8097 28.2324 58.2493 28.4222 58.6089 28.8018C58.9686 29.1815 59.1484 29.631 59.1484 30.1505C59.1484 30.67 58.9686 31.1096 58.6089 31.4692C58.2493 31.8289 57.8097 32.0087 57.2902 32.0087Z" fill="#DCA629"/>
</g>
<defs>
<clipPath id="clip0_1_110">
<rect width="61.3799" height="61.3799" fill="white" transform="matrix(1 0 0 -1 0.765625 61.3799)"/>
</clipPath>
</defs>
</svg>
