<svg width="62" height="59" viewBox="0 0 62 59" fill="none" xmlns="http://www.w3.org/2000/svg">
<path d="M52.8276 22.9154C52.8276 19.8783 52.2482 17.0211 51.0894 14.3438C49.9305 11.6664 48.362 9.33866 46.384 7.3606C44.4059 5.38254 42.0782 3.81408 39.4008 2.65521C36.7634 1.49635 33.9262 0.916917 30.8891 0.916917C27.8521 0.916917 25.0149 1.49635 22.3775 2.65521C19.7001 3.81408 17.3724 5.38254 15.3943 7.3606C13.4163 9.33866 11.8478 11.6664 10.6889 14.3438C9.53008 16.9812 8.95064 19.8184 8.95064 22.8554C8.95064 22.8554 8.95064 22.8754 8.95064 22.9154C6.51303 23.0352 4.44506 23.9943 2.74672 25.7925C1.04839 27.5908 0.199219 29.7087 0.199219 32.1463V33.2852C0.199219 35.8427 1.10833 38.0305 2.92655 39.8488C4.74476 41.667 6.93262 42.5761 9.49011 42.5761H10.0296L13.9258 48.75C15.2844 50.9479 17.0627 52.6662 19.2605 53.905C21.4584 55.1438 23.856 55.7632 26.4535 55.7632H27.2327C27.4725 56.6823 27.982 57.4515 28.7612 58.0709C29.5405 58.6903 30.4296 59 31.4286 59C32.6274 59 33.6564 58.5704 34.5156 57.7113C35.3747 56.8521 35.8043 55.8231 35.8043 54.6243C35.8043 53.4255 35.3747 52.3965 34.5156 51.5373C33.6564 50.6782 32.6274 50.2486 31.4286 50.2486C30.4296 50.2486 29.5405 50.5683 28.7612 51.2076C27.982 51.847 27.4725 52.6262 27.2327 53.5453H26.4535C24.2556 53.5453 22.2077 53.0159 20.3095 51.9569C18.4114 50.8979 16.9029 49.4294 15.7839 47.5512L12.6071 42.5761H13.3264C13.9657 42.5761 14.4952 42.3663 14.9148 41.9467C15.3344 41.5271 15.5442 41.0176 15.5442 40.4182V25.0732C15.5442 24.4339 15.3344 23.9044 14.9148 23.4848C14.4952 23.0652 13.9657 22.8554 13.3264 22.8554H11.1685C11.1685 20.1381 11.688 17.5806 12.7269 15.1829C13.7659 12.7853 15.1745 10.6873 16.9528 8.8891C18.7311 7.09087 20.819 5.69224 23.2167 4.69322C25.6143 3.65423 28.1718 3.13474 30.8891 3.13474C33.6065 3.13474 36.164 3.65423 38.5616 4.69322C40.9593 5.69224 43.0472 7.09087 44.8255 8.8891C46.6037 10.6873 48.0124 12.7853 49.0513 15.1829C50.0903 17.5806 50.6098 20.1381 50.6098 22.8554H48.4519C47.8126 22.8554 47.2831 23.0652 46.8635 23.4848C46.4439 23.9044 46.2341 24.4339 46.2341 25.0732V40.4182C46.2341 41.0176 46.4439 41.5271 46.8635 41.9467C47.2831 42.3663 47.8126 42.5761 48.4519 42.5761H52.2882C54.8457 42.5761 57.0335 41.667 58.8517 39.8488C60.67 38.0305 61.5791 35.8427 61.5791 33.2852V32.1463C61.5791 29.7087 60.7299 27.5908 59.0316 25.7925C57.3332 23.9943 55.2653 23.0352 52.8276 22.9154ZM31.4286 52.4664C32.028 52.4664 32.5475 52.6762 32.9871 53.0958C33.4267 53.5154 33.6464 54.0249 33.6464 54.6243C33.6464 55.2237 33.4267 55.7432 32.9871 56.1828C32.5475 56.6223 32.028 56.8421 31.4286 56.8421C30.8292 56.8421 30.3197 56.6223 29.9001 56.1828C29.4805 55.7432 29.2707 55.2237 29.2707 54.6243C29.2707 54.0249 29.4805 53.5154 29.9001 53.0958C30.3197 52.6762 30.8292 52.4664 31.4286 52.4664ZM13.3264 25.0732V40.4182H9.49011C7.53203 40.4182 5.86367 39.7189 4.48502 38.3203C3.10637 36.9216 2.41705 35.2433 2.41705 33.2852V32.1463C2.41705 30.1882 3.10637 28.5199 4.48502 27.1412C5.86367 25.7626 7.53203 25.0732 9.49011 25.0732H13.3264ZM59.3612 33.2852C59.3612 35.2433 58.6719 36.9216 57.2933 38.3203C55.9146 39.7189 54.2463 40.4182 52.2882 40.4182H48.4519V25.0732H52.2882C54.2463 25.0732 55.9146 25.7626 57.2933 27.1412C58.6719 28.5199 59.3612 30.1882 59.3612 32.1463V33.2852ZM40.0002 9.18881C39.9203 9.18881 39.8504 9.15884 39.7904 9.0989C39.7305 9.03896 39.6406 8.98901 39.5207 8.94905C39.4408 8.86912 39.3708 8.80918 39.3109 8.76922C39.251 8.72926 39.181 8.6893 39.1011 8.64934C38.8613 8.4895 38.5916 8.44954 38.2919 8.52946C37.9922 8.60938 37.7624 8.7892 37.6026 9.06893C37.4827 9.30869 37.4527 9.56844 37.5127 9.84817C37.5726 10.1279 37.7424 10.3477 38.0222 10.5075C38.0621 10.5475 38.1221 10.5874 38.202 10.6274C38.2819 10.6674 38.3618 10.7273 38.4417 10.8072C38.5217 10.8472 38.6016 10.8971 38.6815 10.9571C38.7614 11.017 38.8414 11.047 38.9213 11.047C39.0012 11.1269 39.0911 11.1769 39.191 11.1968C39.2909 11.2168 39.4008 11.2268 39.5207 11.2268C39.6805 11.2268 39.8404 11.1869 40.0002 11.1069C40.1601 11.027 40.2999 10.8871 40.4198 10.6873C40.5796 10.4476 40.6196 10.1778 40.5397 9.87814C40.4598 9.57843 40.2799 9.34865 40.0002 9.18881ZM30.8891 6.43151C28.5714 6.43151 26.3636 6.91104 24.2656 7.8701C22.1677 8.82916 20.3595 10.1878 18.841 11.9461C18.6411 12.1459 18.5512 12.4057 18.5712 12.7253C18.5912 13.045 18.7211 13.3048 18.9608 13.5046C19.0408 13.5845 19.1407 13.6444 19.2605 13.6844C19.3804 13.7244 19.5203 13.7443 19.6801 13.7443C19.84 13.7443 19.9898 13.7144 20.1297 13.6544C20.2696 13.5945 20.3794 13.5046 20.4594 13.3847C21.7781 11.8662 23.3465 10.6873 25.1648 9.84817C26.983 9.00899 28.8911 8.5894 30.8891 8.5894C31.3687 8.5894 31.8582 8.61937 32.3577 8.67931C32.8572 8.73925 33.3467 8.82916 33.8263 8.94905C34.146 8.98901 34.4257 8.92907 34.6654 8.76922C34.9052 8.60938 35.0651 8.38959 35.145 8.10987C35.2249 7.83014 35.1749 7.56041 34.9951 7.30066C34.8153 7.04092 34.6055 6.87108 34.3657 6.79116C33.7663 6.67128 33.1769 6.58137 32.5975 6.52143C32.018 6.46148 31.4486 6.43151 30.8891 6.43151Z" fill="#DCA629"/>
</svg>
