<svg width="62" height="63" viewBox="0 0 62 63" fill="none" xmlns="http://www.w3.org/2000/svg">
<path d="M44.675 25.3737H43.1764V20.7582C43.1764 18.8401 42.8168 17.0418 42.0975 15.3635C41.3782 13.6851 40.3892 12.2266 39.1304 10.9878C37.8716 9.74899 36.4031 8.76995 34.7247 8.05065C33.0464 7.29139 31.2481 6.91177 29.33 6.91177C27.4518 6.91177 25.6736 7.29139 23.9952 8.05065C22.3169 8.76995 20.8483 9.74899 19.5895 10.9878C18.3308 12.2266 17.3418 13.6851 16.6225 15.3635C15.9032 17.0418 15.5435 18.8401 15.5435 20.7582V25.3737H13.985C12.7463 25.3737 11.6773 25.8232 10.7782 26.7224C9.87906 27.6215 9.4295 28.6904 9.4295 29.9292V54.5051C9.4295 55.7839 9.87906 56.8728 10.7782 57.7719C11.6773 58.671 12.7463 59.1206 13.985 59.1206H44.675C45.9537 59.1206 47.0426 58.671 47.9418 57.7719C48.8409 56.8728 49.2904 55.7839 49.2904 54.5051V29.9292C49.2904 28.6904 48.8409 27.6215 47.9418 26.7224C47.0426 25.8232 45.9537 25.3737 44.675 25.3737ZM18.6005 20.7582C18.6005 17.8011 19.6495 15.2736 21.7474 13.1756C23.8454 11.0777 26.3729 10.0287 29.33 10.0287C32.3271 10.0287 34.8746 11.0777 36.9725 13.1756C39.0705 15.2736 40.1194 17.8011 40.1194 20.7582V25.3737H18.6005V20.7582ZM46.2334 54.5051C46.2334 54.9447 46.0836 55.3143 45.7839 55.614C45.4842 55.9137 45.1145 56.0636 44.675 56.0636H13.985C13.5854 56.0636 13.2358 55.9137 12.9361 55.614C12.6364 55.3143 12.4865 54.9447 12.4865 54.5051V29.9292C12.4865 29.5296 12.6364 29.1799 12.9361 28.8802C13.2358 28.5805 13.5854 28.4307 13.985 28.4307H44.675C45.1145 28.4307 45.4842 28.5805 45.7839 28.8802C46.0836 29.1799 46.2334 29.5296 46.2334 29.9292V54.5051Z" fill="#DCA629"/>
</svg>
