<svg width="359" height="152" viewBox="0 0 359 152" fill="none" xmlns="http://www.w3.org/2000/svg">
<g clip-path="url(#clip0_1_31380)">
<g clip-path="url(#clip1_1_31380)">
<g clip-path="url(#clip2_1_31380)">
<path d="M343.067 20.0367H59.4332C51.1017 20.0367 44.3477 26.7907 44.3477 35.1222V70.4073C44.3477 78.7388 51.1017 85.4929 59.4332 85.4929H343.067C351.398 85.4929 358.152 78.7388 358.152 70.4073V35.1222C358.152 26.7907 351.398 20.0367 343.067 20.0367Z" fill="#EF4136"/>
<path d="M44.3477 47.1218V58.4072C44.3477 65.5906 47.2012 72.4798 52.2807 77.5593C57.3601 82.6387 64.2493 85.4923 71.4328 85.4923H111.619C116.011 81.1679 119.453 75.9751 121.726 70.2456C123.998 64.516 125.051 58.3755 124.817 52.2161C124.584 46.0568 123.068 40.0138 120.367 34.4731C117.667 28.9324 113.841 24.0156 109.133 20.0367H71.4328C64.2493 20.0367 57.3601 22.8903 52.2807 27.9697C47.2012 33.0492 44.3477 39.9384 44.3477 47.1218Z" fill="url(#paint0_linear_1_31380)"/>
<path d="M49.6129 14.0176C41.7261 14.0176 34.0163 16.3564 27.4587 20.7381C20.901 25.1198 15.7899 31.3476 12.7718 38.6341C9.75361 45.9206 8.96392 53.9384 10.5026 61.6737C12.0412 69.409 15.8391 76.5143 21.4159 82.0912C26.9927 87.668 34.0981 91.4659 41.8334 93.0045C49.5687 94.5432 57.5865 93.7535 64.873 90.7353C72.1595 87.7172 78.3873 82.6061 82.769 76.0484C87.1507 69.4908 89.4894 61.781 89.4894 53.8942C89.4771 43.3221 85.2719 33.1864 77.7963 25.7108C70.3206 18.2352 60.185 14.0299 49.6129 14.0176Z" fill="white"/>
<path d="M49.6118 4.98883C39.9398 4.98883 30.4849 7.85693 22.4429 13.2304C14.4009 18.604 8.13284 26.2416 4.4315 35.1774C0.730163 44.1132 -0.238263 53.9459 1.64866 63.4321C3.53559 72.9184 8.19313 81.632 15.0323 88.4712C21.8715 95.3104 30.5851 99.9679 40.0713 101.855C49.5576 103.742 59.3903 102.773 68.3261 99.072C77.262 95.3707 84.8996 89.1027 90.2731 81.0606C95.6466 73.0186 98.5147 63.5637 98.5147 53.8917C98.499 40.9266 93.3418 28.4971 84.1741 19.3294C75.0064 10.1617 62.5769 5.00447 49.6118 4.98883ZM49.6118 93.7707C41.725 93.7707 34.0153 91.432 27.4576 87.0503C20.8999 82.6686 15.7889 76.4408 12.7707 69.1543C9.75254 61.8678 8.96284 53.85 10.5015 46.1147C12.0401 38.3794 15.838 31.274 21.4149 25.6972C26.9917 20.1204 34.097 16.3225 41.8323 14.7839C49.5676 13.2452 57.5855 14.0349 64.8719 17.0531C72.1584 20.0712 78.3863 25.1823 82.768 31.74C87.1497 38.2976 89.4884 46.0074 89.4884 53.8942C89.4764 64.4664 85.2713 74.6022 77.7956 82.0779C70.3199 89.5536 60.1841 93.7588 49.6118 93.7707Z" fill="#EF4136"/>
<path d="M3.04883 38.962L11.1499 43.5468C12.7746 37.5213 15.7948 31.9627 19.9662 27.3209L14.211 20.2105C9.12747 25.5421 5.31206 31.9517 3.04883 38.962Z" fill="url(#paint1_linear_1_31380)"/>
<path d="M15.1786 73.9095L8.66406 80.5837C11.1809 84.4288 14.2229 87.9032 17.7017 90.9061L23.8478 84.2771C20.3945 81.3345 17.4634 77.8292 15.1786 73.9095Z" fill="url(#paint2_linear_1_31380)"/>
<path d="M73.972 85.3961C70.9297 87.755 67.5616 89.6605 63.9727 91.0532L69.3784 98.6174C73.0931 96.9666 76.5877 94.8594 79.7812 92.3443L73.972 85.3961Z" fill="url(#paint3_linear_1_31380)"/>
<path d="M86.1628 21.4522L80.5898 28.8379C84.319 33.4466 86.9697 38.8314 88.3477 44.5975L96.5002 40.029C94.4584 33.1536 90.9292 26.8115 86.1628 21.4522Z" fill="url(#paint4_linear_1_31380)"/>
<path d="M99.1411 24.9321L91.6095 6.73499L55.2253 36.958L25.382 0.261963L14.47 16.6576C21.9953 26.2546 31.7029 37.4797 41.4898 48.3678L7.36719 76.7126L15.174 87.6396C15.174 87.6396 32.4949 75.776 52.8883 60.8789C70.0081 79.4418 84.7066 94.4332 84.7066 94.4332L94.4821 85.2259L66.4918 50.8129C78.2071 42.023 89.8986 32.8986 99.1411 24.9321Z" fill="#EF4136"/>
<path d="M147.828 66H141.578L141.617 61.0781H147.828C149.247 61.0781 150.445 60.7526 151.422 60.1016C152.398 59.4375 153.141 58.4609 153.648 57.1719C154.156 55.8698 154.41 54.2878 154.41 52.4258V51.1172C154.41 49.7109 154.267 48.474 153.98 47.4062C153.694 46.3255 153.271 45.4206 152.711 44.6914C152.151 43.9622 151.454 43.4154 150.621 43.0508C149.801 42.6862 148.857 42.5039 147.789 42.5039H141.461V37.5625H147.789C149.716 37.5625 151.474 37.888 153.062 38.5391C154.664 39.1901 156.044 40.1211 157.203 41.332C158.375 42.543 159.28 43.9753 159.918 45.6289C160.556 47.2826 160.875 49.125 160.875 51.1562V52.4258C160.875 54.444 160.556 56.2865 159.918 57.9531C159.28 59.6068 158.375 61.0391 157.203 62.25C156.044 63.4479 154.671 64.3724 153.082 65.0234C151.493 65.6745 149.742 66 147.828 66ZM145.191 37.5625V66H138.824V37.5625H145.191ZM188.473 51.1562V52.4258C188.473 54.5872 188.173 56.5273 187.574 58.2461C186.988 59.9648 186.148 61.4297 185.055 62.6406C183.974 63.8516 182.685 64.7826 181.188 65.4336C179.703 66.0716 178.056 66.3906 176.246 66.3906C174.436 66.3906 172.783 66.0716 171.285 65.4336C169.788 64.7826 168.486 63.8516 167.379 62.6406C166.285 61.4297 165.439 59.9648 164.84 58.2461C164.241 56.5273 163.941 54.5872 163.941 52.4258V51.1562C163.941 48.9948 164.241 47.0547 164.84 45.3359C165.439 43.6042 166.279 42.1328 167.359 40.9219C168.453 39.7109 169.749 38.7865 171.246 38.1484C172.743 37.4974 174.397 37.1719 176.207 37.1719C178.017 37.1719 179.671 37.4974 181.168 38.1484C182.665 38.7865 183.954 39.7109 185.035 40.9219C186.129 42.1328 186.975 43.6042 187.574 45.3359C188.173 47.0547 188.473 48.9948 188.473 51.1562ZM182.047 52.4258V51.1172C182.047 49.6719 181.917 48.3958 181.656 47.2891C181.396 46.1693 181.018 45.2318 180.523 44.4766C180.029 43.7214 179.417 43.1549 178.688 42.7773C177.958 42.3867 177.132 42.1914 176.207 42.1914C175.243 42.1914 174.404 42.3867 173.688 42.7773C172.971 43.1549 172.366 43.7214 171.871 44.4766C171.389 45.2318 171.018 46.1693 170.758 47.2891C170.51 48.3958 170.387 49.6719 170.387 51.1172V52.4258C170.387 53.8581 170.51 55.1341 170.758 56.2539C171.018 57.3607 171.396 58.2982 171.891 59.0664C172.385 59.8346 172.991 60.4141 173.707 60.8047C174.436 61.1953 175.283 61.3906 176.246 61.3906C177.171 61.3906 177.991 61.1953 178.707 60.8047C179.436 60.4141 180.048 59.8346 180.543 59.0664C181.038 58.2982 181.409 57.3607 181.656 56.2539C181.917 55.1341 182.047 53.8581 182.047 52.4258ZM215.836 37.5625V66H209.488L198.746 47.6211V66H192.379V37.5625H198.746L209.508 55.9414V37.5625H215.836ZM223.648 36V39.0078L223.023 46.918H219.254V39.2617V36H223.648ZM240.113 37.5625V66H233.766V37.5625H240.113ZM248.766 37.5625V42.5039H225.289V37.5625H248.766ZM261.246 60.1211C261.246 59.7305 261.122 59.3854 260.875 59.0859C260.641 58.7865 260.211 58.513 259.586 58.2656C258.974 58.0182 258.108 57.7708 256.988 57.5234C255.934 57.3021 254.951 57.0156 254.039 56.6641C253.128 56.2995 252.333 55.8633 251.656 55.3555C250.979 54.8346 250.452 54.2227 250.074 53.5195C249.697 52.8034 249.508 51.9896 249.508 51.0781C249.508 50.1927 249.697 49.3529 250.074 48.5586C250.465 47.7643 251.025 47.0612 251.754 46.4492C252.496 45.8372 253.395 45.3555 254.449 45.0039C255.517 44.6523 256.728 44.4766 258.082 44.4766C259.944 44.4766 261.552 44.7695 262.906 45.3555C264.26 45.9284 265.302 46.7357 266.031 47.7773C266.76 48.806 267.125 49.9844 267.125 51.3125H261.031C261.031 50.7656 260.927 50.2904 260.719 49.8867C260.51 49.4831 260.191 49.1706 259.762 48.9492C259.332 48.7148 258.766 48.5977 258.062 48.5977C257.516 48.5977 257.034 48.6953 256.617 48.8906C256.214 49.0729 255.895 49.3268 255.66 49.6523C255.439 49.9779 255.328 50.3555 255.328 50.7852C255.328 51.0846 255.393 51.3581 255.523 51.6055C255.667 51.8398 255.882 52.0612 256.168 52.2695C256.467 52.4648 256.852 52.6406 257.32 52.7969C257.802 52.9531 258.388 53.1029 259.078 53.2461C260.549 53.5195 261.891 53.9036 263.102 54.3984C264.326 54.8932 265.302 55.5768 266.031 56.4492C266.773 57.3216 267.145 58.474 267.145 59.9062C267.145 60.8438 266.93 61.7031 266.5 62.4844C266.083 63.2656 265.478 63.9492 264.684 64.5352C263.889 65.1211 262.939 65.5768 261.832 65.9023C260.725 66.2279 259.475 66.3906 258.082 66.3906C256.09 66.3906 254.404 66.0326 253.023 65.3164C251.643 64.6003 250.602 63.7018 249.898 62.6211C249.208 61.5273 248.863 60.4076 248.863 59.2617H254.586C254.612 59.9648 254.788 60.5378 255.113 60.9805C255.452 61.4232 255.888 61.7487 256.422 61.957C256.956 62.1523 257.555 62.25 258.219 62.25C258.883 62.25 259.436 62.1589 259.879 61.9766C260.322 61.7943 260.66 61.5469 260.895 61.2344C261.129 60.9089 261.246 60.5378 261.246 60.1211Z" fill="white"/>
</g>
</g>
</g>
<defs>
<linearGradient id="paint0_linear_1_31380" x1="85.4036" y1="52.7645" x2="117.041" y2="52.7645" gradientUnits="userSpaceOnUse">
<stop stop-color="#A8191C"/>
<stop offset="1" stop-color="#EF4136"/>
</linearGradient>
<linearGradient id="paint1_linear_1_31380" x1="15.7876" y1="25.2512" x2="4.43655" y2="35.4597" gradientUnits="userSpaceOnUse">
<stop stop-color="#A8191C"/>
<stop offset="1" stop-color="#EF4136"/>
</linearGradient>
<linearGradient id="paint2_linear_1_31380" x1="14.8135" y1="79.6713" x2="19.5851" y2="86.9514" gradientUnits="userSpaceOnUse">
<stop stop-color="#A8191C"/>
<stop offset="1" stop-color="#EF4136"/>
</linearGradient>
<linearGradient id="paint3_linear_1_31380" x1="75.3548" y1="89.5476" x2="69.561" y2="94.9465" gradientUnits="userSpaceOnUse">
<stop stop-color="#A8191C"/>
<stop offset="1" stop-color="#EF4136"/>
</linearGradient>
<linearGradient id="paint4_linear_1_31380" x1="85.172" y1="25.8498" x2="95.1056" y2="37.3382" gradientUnits="userSpaceOnUse">
<stop stop-color="#A8191C"/>
<stop offset="1" stop-color="#EF4136"/>
</linearGradient>
<clipPath id="clip0_1_31380">
<rect width="357.443" height="150.857" fill="white" transform="translate(0.714844 0.26123)"/>
</clipPath>
<clipPath id="clip1_1_31380">
<rect width="357.443" height="150.857" fill="white" transform="translate(0.714844 0.260986)"/>
</clipPath>
<clipPath id="clip2_1_31380">
<rect width="357.443" height="150.855" fill="white" transform="translate(0.714844 0.261719)"/>
</clipPath>
</defs>
</svg>
