<svg width="314" height="148" viewBox="0 0 314 148" fill="none" xmlns="http://www.w3.org/2000/svg">
<g clip-path="url(#clip0_1_31313)">
<g clip-path="url(#clip1_1_31313)">
<g clip-path="url(#clip2_1_31313)">
<path d="M297.626 16.1362H59.242C50.9104 16.1362 44.1562 22.8903 44.1562 31.2219V66.8179C44.1562 75.1495 50.9104 81.9036 59.242 81.9036H297.626C305.958 81.9036 312.712 75.1495 312.712 66.8179V31.2219C312.712 22.8903 305.958 16.1362 297.626 16.1362Z" fill="#698137"/>
<path d="M44.1562 43.3508V54.6902C44.1566 61.9076 47.0238 68.8291 52.1273 73.9325C57.2307 79.036 64.1523 81.9032 71.3696 81.9036H111.747C115.962 77.7613 119.31 72.8198 121.593 67.3683C123.876 61.9168 125.049 56.0647 125.043 50.1544C125.047 43.6762 123.636 37.2754 120.908 31.3996C118.18 25.5239 114.201 20.315 109.25 16.1375H71.3696C64.1522 16.1375 57.2304 19.0045 52.1269 24.108C47.0234 29.2115 44.1562 36.1333 44.1562 43.3508Z" fill="#586B2A"/>
<path d="M49.4518 10.0891C38.8296 10.1017 28.646 14.3272 21.135 21.8384C13.6241 29.3496 9.39903 39.5333 9.38672 50.1555C9.39903 60.7777 13.6241 70.9612 21.1351 78.4722C28.6461 85.9832 38.8297 90.2084 49.4518 90.2207C60.074 90.2084 70.2575 85.9832 77.7685 78.4722C85.2795 70.9612 89.5046 60.7777 89.517 50.1555C89.5046 39.5333 85.2796 29.3496 77.7686 21.8384C70.2576 14.3272 60.0741 10.1017 49.4518 10.0891Z" fill="white"/>
<path d="M24.1308 39.5716L18.084 50.9111L48.6992 78.1244L88.0075 24.075L53.2349 62.2505L24.1308 39.5716Z" fill="#D3D3D1"/>
<path d="M49.4511 1.01752C36.4236 1.03249 23.934 6.21437 14.7223 15.4263C5.51062 24.6383 0.329093 37.128 0.314453 50.1555C0.329426 63.1827 5.51112 75.6722 14.7228 84.8839C23.9345 94.0956 36.4239 99.2773 49.4511 99.2922C62.4784 99.2773 74.9678 94.0956 84.1794 84.8839C93.3911 75.6722 98.5728 63.1827 98.5878 50.1555C98.5731 37.128 93.3916 24.6383 84.1799 15.4263C74.9682 6.21437 62.4786 1.03249 49.4511 1.01752ZM49.4511 90.2206C38.829 90.2083 28.6454 85.9832 21.1344 78.4722C13.6234 70.9612 9.39831 60.7776 9.386 50.1555C9.39831 39.5332 13.6233 29.3495 21.1343 21.8383C28.6453 14.3271 38.8288 10.1018 49.4511 10.0891C60.0734 10.1018 70.2569 14.3271 77.7679 21.8383C85.2789 29.3495 89.5039 39.5332 89.5162 50.1555C89.5049 60.7783 85.2803 70.9628 77.7692 78.4746C70.258 85.9865 60.0739 90.2121 49.4511 90.2244V90.2206Z" fill="#698137"/>
<path d="M88.1545 19.9413L80.4219 24.7738C84.5073 29.7432 87.3321 35.6256 88.6561 41.9211L97.079 38.0906C95.4002 31.4854 92.3605 25.3038 88.1545 19.9413Z" fill="#4D5B22"/>
<path d="M18.459 42.5951L26.7737 32.0126L46.4291 49.3988L109.172 0.263428L47.9402 72.0777L18.459 42.5951Z" fill="#698137"/>
<path d="M164.211 62H158.078L158.117 57.7812H164.211C165.865 57.7812 167.251 57.4167 168.371 56.6875C169.491 55.9453 170.337 54.8841 170.91 53.5039C171.483 52.1107 171.77 50.444 171.77 48.5039V47.0391C171.77 45.5417 171.607 44.2201 171.281 43.0742C170.956 41.9284 170.474 40.9648 169.836 40.1836C169.211 39.4023 168.436 38.8099 167.512 38.4062C166.587 38.0026 165.526 37.8008 164.328 37.8008H157.961V33.5625H164.328C166.229 33.5625 167.961 33.8815 169.523 34.5195C171.099 35.1576 172.46 36.0755 173.605 37.2734C174.764 38.4583 175.65 39.8776 176.262 41.5312C176.887 43.1849 177.199 45.0339 177.199 47.0781V48.5039C177.199 50.5352 176.887 52.3841 176.262 54.0508C175.65 55.7044 174.764 57.1237 173.605 58.3086C172.46 59.4935 171.092 60.4049 169.504 61.043C167.915 61.681 166.151 62 164.211 62ZM161.086 33.5625V62H155.715V33.5625H161.086ZM204.797 47.0586V48.5234C204.797 50.6719 204.51 52.6055 203.938 54.3242C203.365 56.0299 202.551 57.4818 201.496 58.6797C200.441 59.8776 199.185 60.7956 197.727 61.4336C196.268 62.0716 194.647 62.3906 192.863 62.3906C191.105 62.3906 189.491 62.0716 188.02 61.4336C186.561 60.7956 185.298 59.8776 184.23 58.6797C183.163 57.4818 182.336 56.0299 181.75 54.3242C181.164 52.6055 180.871 50.6719 180.871 48.5234V47.0586C180.871 44.8971 181.164 42.9635 181.75 41.2578C182.336 39.5521 183.156 38.1003 184.211 36.9023C185.266 35.6914 186.522 34.7669 187.98 34.1289C189.452 33.4909 191.066 33.1719 192.824 33.1719C194.608 33.1719 196.229 33.4909 197.688 34.1289C199.146 34.7669 200.402 35.6914 201.457 36.9023C202.525 38.1003 203.345 39.5521 203.918 41.2578C204.504 42.9635 204.797 44.8971 204.797 47.0586ZM199.367 48.5234V47.0195C199.367 45.4701 199.224 44.1094 198.938 42.9375C198.651 41.7526 198.228 40.7565 197.668 39.9492C197.108 39.1419 196.418 38.5365 195.598 38.1328C194.777 37.7161 193.853 37.5078 192.824 37.5078C191.783 37.5078 190.858 37.7161 190.051 38.1328C189.257 38.5365 188.579 39.1419 188.02 39.9492C187.46 40.7565 187.03 41.7526 186.73 42.9375C186.444 44.1094 186.301 45.4701 186.301 47.0195V48.5234C186.301 50.0599 186.444 51.4206 186.73 52.6055C187.03 53.7904 187.46 54.793 188.02 55.6133C188.592 56.4206 189.283 57.0326 190.09 57.4492C190.897 57.8659 191.822 58.0742 192.863 58.0742C193.905 58.0742 194.829 57.8659 195.637 57.4492C196.444 57.0326 197.121 56.4206 197.668 55.6133C198.228 54.793 198.651 53.7904 198.938 52.6055C199.224 51.4206 199.367 50.0599 199.367 48.5234ZM213.742 32V34.8711C213.742 35.6914 213.586 36.5508 213.273 37.4492C212.974 38.3346 212.557 39.181 212.023 39.9883C211.503 40.7826 210.91 41.4661 210.246 42.0391L207.746 40.5352C208.267 39.7409 208.69 38.8945 209.016 37.9961C209.354 37.0846 209.523 36.0495 209.523 34.8906V32H213.742ZM226.086 56.2188C226.086 55.776 225.969 55.3789 225.734 55.0273C225.5 54.6758 225.057 54.3568 224.406 54.0703C223.768 53.7708 222.831 53.4909 221.594 53.2305C220.5 52.9961 219.491 52.7031 218.566 52.3516C217.642 52 216.848 51.5768 216.184 51.082C215.52 50.5742 214.999 49.9818 214.621 49.3047C214.257 48.6146 214.074 47.8203 214.074 46.9219C214.074 46.0495 214.263 45.2292 214.641 44.4609C215.018 43.6797 215.565 42.9961 216.281 42.4102C216.997 41.8112 217.87 41.3424 218.898 41.0039C219.927 40.6523 221.086 40.4766 222.375 40.4766C224.172 40.4766 225.715 40.7695 227.004 41.3555C228.306 41.9414 229.302 42.7487 229.992 43.7773C230.682 44.793 231.027 45.9388 231.027 47.2148H225.871C225.871 46.6549 225.741 46.1471 225.48 45.6914C225.233 45.2357 224.849 44.8711 224.328 44.5977C223.807 44.3112 223.15 44.168 222.355 44.168C221.639 44.168 221.034 44.2852 220.539 44.5195C220.057 44.7539 219.693 45.0599 219.445 45.4375C219.198 45.8151 219.074 46.2318 219.074 46.6875C219.074 47.026 219.139 47.332 219.27 47.6055C219.413 47.8659 219.641 48.1068 219.953 48.3281C220.266 48.5495 220.689 48.7513 221.223 48.9336C221.77 49.1159 222.44 49.2917 223.234 49.4609C224.81 49.7734 226.184 50.1901 227.355 50.7109C228.54 51.2188 229.465 51.8958 230.129 52.7422C230.793 53.5885 231.125 54.6693 231.125 55.9844C231.125 56.9219 230.923 57.7812 230.52 58.5625C230.116 59.3307 229.53 60.0013 228.762 60.5742C227.993 61.1471 227.076 61.5964 226.008 61.9219C224.94 62.2344 223.736 62.3906 222.395 62.3906C220.454 62.3906 218.814 62.0456 217.473 61.3555C216.132 60.6523 215.116 59.7669 214.426 58.6992C213.736 57.6185 213.391 56.4987 213.391 55.3398H218.332C218.371 56.1602 218.592 56.8177 218.996 57.3125C219.4 57.8073 219.908 58.1654 220.52 58.3867C221.145 58.5951 221.802 58.6992 222.492 58.6992C223.273 58.6992 223.931 58.5951 224.465 58.3867C224.999 58.1654 225.402 57.8724 225.676 57.5078C225.949 57.1302 226.086 56.7005 226.086 56.2188Z" fill="white"/>
</g>
</g>
</g>
<defs>
<clipPath id="clip0_1_31313">
<rect width="313.028" height="147.086" fill="white" transform="translate(0 0.26123)"/>
</clipPath>
<clipPath id="clip1_1_31313">
<rect width="313.028" height="147.086" fill="white" transform="translate(0 0.26123)"/>
</clipPath>
<clipPath id="clip2_1_31313">
<rect width="312.4" height="147.086" fill="white" transform="translate(0.314453 0.260986)"/>
</clipPath>
</defs>
</svg>
