<svg width="1512" height="1756" viewBox="0 0 1512 1756" fill="none" xmlns="http://www.w3.org/2000/svg">
<g opacity="0.2">
<mask id="mask0_67_354" style="mask-type:luminance" maskUnits="userSpaceOnUse" x="-395" y="0" width="1908" height="1756">
<path d="M1230.29 7.15171e-05L-395 1436.23L-113.151 1755.18L1512.13 318.951L1230.29 7.15171e-05Z" fill="white"/>
</mask>
<g mask="url(#mask0_67_354)">
<path d="M790.928 853.047C770.934 870.715 745.985 885.478 715.171 897.921C682.28 911.204 646.65 920.243 612.976 928.362C593.493 933.06 573.511 937.448 554.185 941.691C495.999 954.468 435.831 967.68 380.089 991.298C314.336 1019.16 262.113 1062.98 224.859 1121.54C202.448 1156.77 185.038 1195.41 168.201 1232.77C156.48 1258.78 144.359 1285.68 130.649 1311.21C110.7 1348.36 87.2063 1380.34 60.8214 1406.24C46.947 1419.89 31.8297 1432.22 15.6659 1443.06C-0.97032 1454.17 -18.6657 1463.6 -37.1613 1471.22C-121.502 1505.99 -215.186 1510.72 -305.786 1515.29C-311.975 1515.6 -318.146 1515.91 -324.301 1516.23L-324.314 1515.97C-318.161 1515.65 -311.989 1515.33 -305.798 1515.02C-215.226 1510.46 -121.56 1505.72 -37.2653 1470.98C32.4616 1442.24 88.8765 1388.44 130.413 1311.09C144.118 1285.56 156.237 1258.67 167.959 1232.66C184.801 1195.29 202.214 1156.65 224.636 1121.4C261.919 1062.79 314.179 1018.94 379.982 991.055C435.748 967.426 495.927 954.212 554.125 941.433C573.449 937.19 593.429 932.803 612.912 928.106C672.106 913.834 753.17 894.289 803.598 840.374C876.523 762.403 847.313 651.671 821.542 553.974C813.215 522.409 805.351 492.593 800.917 464.729C796.603 437.566 796.598 415.769 800.907 398.104C803.284 387.759 807.775 378.017 814.098 369.491C821.154 360.372 830.306 353.092 840.778 348.267C885.151 327.149 941.689 330.969 991.573 334.339C1000.58 334.948 1009.09 335.523 1017.45 335.951L1017.44 336.217C1009.08 335.785 1000.57 335.206 991.557 334.606C941.707 331.237 885.206 327.42 840.894 348.51C792.419 371.578 795.017 425.865 801.188 464.693C805.615 492.539 813.479 522.348 821.802 553.906C834.988 603.898 848.624 655.591 849.986 705.098C850.723 731.902 847.814 755.34 841.1 776.746C837.495 788.285 832.638 799.395 826.616 809.877C820.206 820.938 812.551 831.229 803.802 840.55C799.763 844.869 795.474 849.034 790.936 853.047" fill="url(#paint0_linear_67_354)" fill-opacity="0.7"/>
<path d="M800.666 834.601C761.345 869.347 709.402 886.926 667.664 898.46C650.729 903.143 633.712 907.246 617.733 911.047C601.185 914.985 584.244 918.752 567.861 922.394C519.244 933.197 468.98 944.377 421.702 961.63C409.432 966.11 397.583 970.911 386.482 975.896C322.333 1004.74 271.548 1049.41 235.533 1108.65C213.868 1144.27 197.193 1183.25 181.067 1220.94C170.006 1246.79 158.569 1273.52 145.63 1298.91C134.243 1321.52 120.881 1343.08 105.701 1363.34C90.0153 1384.37 71.8386 1403.42 51.5685 1420.08C30.6956 1437.05 7.29196 1450.65 -17.7912 1460.39C-46.6415 1471.51 -76.1994 1477.45 -111.704 1482.96C-131.676 1486.01 -152.348 1488.41 -172.339 1490.72C-185.686 1492.27 -199.487 1493.87 -212.973 1495.65C-244.591 1499.78 -275.287 1504.36 -304.971 1508.78L-317.62 1510.67L-317.667 1510.35L-305.019 1508.46C-275.332 1504.04 -244.636 1499.47 -213.015 1495.33C-199.528 1493.55 -185.725 1491.95 -172.377 1490.4C-152.385 1488.09 -131.723 1485.69 -111.753 1482.64C-76.2693 1477.14 -46.7302 1471.2 -17.9069 1460.08C29.6198 1441.76 69.9668 1410.05 105.441 1363.15C120.613 1342.91 133.969 1321.36 145.351 1298.76C158.284 1273.38 169.719 1246.66 180.778 1220.81C196.911 1183.11 213.589 1144.13 235.264 1108.48C271.309 1049.19 322.142 1004.48 386.353 975.608C397.46 970.619 409.318 965.816 421.595 961.333C468.894 944.074 519.173 932.895 567.795 922.085C584.178 918.442 601.118 914.676 617.663 910.738C633.64 906.937 650.654 902.834 667.587 898.157C712.345 885.784 768.863 866.459 808.893 826.446C836.236 798.964 852.209 765.762 857.733 724.955C865.357 669.787 852.754 609.933 840.568 552.05C834.126 521.462 828.05 492.572 825.152 465.432C822.285 438.474 823.217 417.91 828.101 400.701C830.854 390.557 835.58 381.055 842.009 372.739C849.185 363.799 858.312 356.62 868.69 351.75C912.402 330.613 967.61 332.533 1016.32 334.225C1025.77 334.553 1034.7 334.862 1043.46 335.014L1043.46 335.334C1034.69 335.184 1025.76 334.872 1016.31 334.544C967.636 332.853 912.47 330.935 868.829 352.039C822.091 374.589 821.106 424.466 825.467 465.401C828.355 492.518 834.438 521.406 840.881 551.989C853.073 609.899 865.681 669.781 858.045 724.998C852.516 765.883 836.51 799.141 809.115 826.673C806.375 829.412 803.559 832.057 800.668 834.608" fill="url(#paint1_linear_67_354)" fill-opacity="0.7"/>
<path d="M810.217 816.614C793.349 831.52 773.119 844.21 748.545 855.294C727.335 864.865 703.118 873.174 672.349 881.43C656.103 885.794 640.16 889.582 622.495 893.729C608.854 896.932 594.908 900.057 581.424 903.081C530.101 914.584 477.029 926.48 427.577 945.6C415.505 950.275 403.83 955.284 392.88 960.493C331.258 989.441 280.049 1036.67 246.216 1095.75C225.299 1131.78 209.361 1171.12 193.944 1209.16C183.55 1234.83 172.79 1261.37 160.626 1286.6C149.842 1309.28 137.127 1330.98 122.622 1351.48C106.01 1374.74 88.9483 1393.65 70.4564 1409.3C50.0863 1426.7 26.7678 1440.33 1.6016 1449.53C-29.4492 1460.74 -62.4744 1464.51 -94.4125 1468.15L-97.8456 1468.54C-107.848 1469.65 -118.149 1470.66 -128.116 1471.64C-153.378 1474.12 -179.499 1476.69 -204.723 1481.16C-237.226 1486.86 -267.602 1494.37 -296.973 1501.63C-301.636 1502.78 -306.282 1503.93 -310.91 1505.07L-310.999 1504.7C-306.369 1503.57 -301.724 1502.42 -297.062 1501.26C-267.686 1494 -237.305 1486.48 -204.782 1480.79C-179.545 1476.31 -153.415 1473.74 -128.144 1471.25C-118.182 1470.27 -107.882 1469.26 -97.8834 1468.15L-94.4514 1467.76C-62.5344 1464.12 -29.5314 1460.36 1.47779 1449.16C47.6389 1432.49 87.1673 1400.46 122.319 1351.25C136.807 1330.78 149.507 1309.09 160.28 1286.44C172.44 1261.23 183.197 1234.68 193.595 1209.02C209.013 1170.97 224.955 1131.62 245.886 1095.56C279.757 1036.42 331.024 989.136 392.715 960.156C403.672 954.946 415.356 949.931 427.438 945.252C476.92 926.118 530 914.223 581.343 902.712C594.828 899.69 608.771 896.564 622.41 893.36C640.071 889.214 656.012 885.428 672.249 881.061C717.122 869.021 773.817 850.34 814.173 812.494C841.721 786.665 858.827 755.061 866.471 715.878C876.749 663.179 867.967 605.58 859.469 549.879C854.965 520.348 850.711 492.457 849.366 466.1C848.52 449.513 848.213 424.954 855.279 403.274C858.408 393.338 863.367 384.074 869.902 375.96C877.198 367.195 886.303 360.112 896.594 355.197C915.834 345.744 938.843 339.705 966.941 336.73C991.66 334.113 1016.79 334.145 1041.09 334.176C1050.97 334.188 1060.3 334.201 1069.46 334.038L1069.47 334.414C1060.3 334.575 1050.97 334.564 1041.09 334.551C993.583 334.49 939.734 334.424 896.765 355.529C851.232 377.804 847.721 426.306 849.749 466.073C851.092 492.411 855.341 520.297 859.847 549.814C868.348 605.547 877.139 663.179 866.847 715.942C859.188 755.207 842.045 786.877 814.435 812.762C813.054 814.057 811.649 815.337 810.219 816.6" fill="url(#paint2_linear_67_354)" fill-opacity="0.7"/>
<path d="M820.459 798.269L819.754 798.892C801.763 814.635 780.007 827.87 753.251 839.344C732.117 848.407 707.899 856.371 677.031 864.407C660.497 868.719 643.874 872.567 627.798 876.29L627.254 876.416C616.488 878.911 605.5 881.382 594.866 883.777C540.845 895.932 484.985 908.502 433.452 929.577C421.571 934.445 410.067 939.661 399.278 945.095C338.306 975.846 290.4 1022.2 256.892 1082.86C236.721 1119.33 221.522 1159.05 206.827 1197.46C197.084 1222.93 187.009 1249.26 175.606 1274.3C165.422 1297.05 153.355 1318.91 139.528 1339.65C123.347 1363.7 106.917 1382.95 89.317 1398.51L89.2424 1398.58C69.4367 1416.43 46.2118 1430.08 20.9753 1438.69C-8.99063 1448.84 -40.785 1451.08 -71.5307 1453.25C-75.6244 1453.55 -79.8585 1453.83 -84.0105 1454.15C-89.7148 1454.58 -95.5689 1454.99 -101.23 1455.39C-132.755 1457.61 -165.353 1459.9 -196.485 1466.71C-230.578 1474.06 -261.245 1484.67 -290.904 1494.92C-295.275 1496.43 -299.789 1498 -304.213 1499.51L-304.353 1499.1C-299.934 1497.59 -295.414 1496.02 -291.045 1494.51C-261.374 1484.25 -230.692 1473.65 -196.575 1466.29C-165.413 1459.47 -132.8 1457.18 -101.259 1454.96C-95.5962 1454.56 -89.7456 1454.15 -84.0423 1453.72C-79.8927 1453.41 -75.6603 1453.11 -71.5615 1452.82C-40.8423 1450.65 -9.07666 1448.41 20.8364 1438.29C66.5805 1422.8 104.181 1391.38 139.17 1339.4C152.984 1318.68 165.041 1296.85 175.215 1274.12C186.612 1249.09 196.684 1222.76 206.426 1197.3C221.128 1158.88 236.331 1119.14 256.517 1082.64C290.066 1021.91 338.033 975.496 399.086 944.704C409.892 939.27 421.405 934.04 433.29 929.175C484.858 908.087 540.736 895.513 594.773 883.353C605.402 880.96 616.392 878.488 627.158 875.993L627.702 875.866C643.775 872.145 660.393 868.296 676.922 863.986C724.635 851.567 778.883 834.082 819.468 798.566C847.289 774.226 865.529 744.21 875.221 706.825C888.278 656.49 883.246 601.027 878.381 547.391C875.811 519.044 873.382 492.265 873.588 466.787C873.918 425.651 880.219 380.636 924.501 358.671C943.454 349.213 965.996 342.815 993.413 339.11C1017.56 335.847 1042.13 335.04 1065.9 334.259C1076.19 333.924 1085.91 333.603 1095.46 333.094L1095.48 333.526C1085.93 334.034 1076.21 334.354 1065.92 334.691C1019.56 336.213 967.013 337.939 924.692 359.059C880.625 380.92 874.349 425.786 874.02 466.79C873.815 492.251 876.242 519.015 878.816 547.347C883.682 601.017 888.712 656.514 875.64 706.928C866.007 744.082 847.953 773.969 820.459 798.265" fill="url(#paint3_linear_67_354)" fill-opacity="0.7"/>
<path d="M831.116 779.875C829.146 781.616 827.131 783.327 825.071 785.009C784 818.465 729.555 835.313 681.711 847.377C666.353 851.259 650.871 854.793 635.892 858.214L632.008 859.101C624.088 860.913 616.012 862.728 608.201 864.485C551.498 877.247 492.855 890.433 439.318 913.553C427.627 918.613 416.305 924.043 405.661 929.701C346.265 961.369 299.799 1008.56 267.555 1069.97C248.131 1106.9 233.678 1147.03 219.7 1185.84C210.612 1211.08 201.216 1237.17 190.573 1262C180.987 1284.82 169.565 1306.82 156.421 1327.8C140.731 1352.59 124.943 1372.19 108.155 1387.7C87.498 1406.79 65.3193 1419.92 40.3341 1427.85C10.5911 1437.29 -20.9084 1438.22 -51.3719 1439.12C-57.5533 1439.3 -63.9444 1439.49 -70.1834 1439.75C-72.8232 1439.86 -75.4717 1439.96 -78.129 1440.07C-114.693 1441.54 -152.502 1443.06 -188.255 1452.24C-223.993 1461.29 -254.984 1475.05 -284.954 1488.36C-289.083 1490.19 -293.352 1492.09 -297.525 1493.93L-297.717 1493.47C-293.544 1491.64 -289.272 1489.75 -285.148 1487.91C-255.159 1474.59 -224.148 1460.82 -188.368 1451.77C-152.564 1442.57 -114.728 1441.05 -78.1407 1439.58C-75.4841 1439.47 -72.8355 1439.37 -70.195 1439.26C-63.9528 1439 -57.5595 1438.81 -51.3781 1438.63C-20.9488 1437.73 10.5155 1436.8 40.1943 1427.39C99.2297 1408.65 134.571 1361.43 156.013 1327.53C169.143 1306.58 180.552 1284.6 190.128 1261.8C200.766 1236.98 210.155 1210.9 219.236 1185.66C233.219 1146.84 247.677 1106.69 267.118 1069.73C282.563 1040.03 302.271 1012.75 325.616 988.755C349.033 964.964 375.956 944.899 405.447 929.256C416.096 923.598 427.43 918.16 439.134 913.096C492.709 889.963 551.368 876.766 608.093 863.999C615.904 862.242 623.979 860.426 631.899 858.614L635.782 857.728C650.752 854.311 666.233 850.778 681.585 846.897C729.375 834.841 783.76 818.019 824.753 784.62C852.848 761.737 872.213 733.322 883.965 697.75C899.854 649.651 898.572 596.208 897.333 544.525C896.683 517.494 896.074 491.957 897.808 467.46C899.102 449.202 901.517 427.92 909.64 408.47C918.468 387.331 932.457 372.175 952.404 362.137C971.074 352.674 993.15 345.93 1019.9 341.52C1043.48 337.633 1067.5 336.007 1090.73 334.433C1101.43 333.709 1111.52 333.025 1121.46 332.139L1121.5 332.625C1111.57 333.518 1101.46 334.196 1090.77 334.921C1045.55 337.983 994.292 341.454 952.625 362.574C909.885 384.081 901.255 425.712 898.296 467.495C896.562 491.97 897.174 517.493 897.822 544.515C899.062 596.239 900.34 649.729 884.43 697.905C873.513 730.955 856.034 757.853 831.111 779.877" fill="url(#paint4_linear_67_354)" fill-opacity="0.7"/>
<path d="M842.371 761.318C838.54 764.703 834.543 767.968 830.382 771.113C811.785 785.173 789.629 797.051 762.65 807.424C741.476 815.567 717.962 822.64 686.393 830.342C672.281 833.797 658.019 837 644.226 840.097L636.773 841.773C631.67 842.923 626.561 844.07 621.445 845.213C562.059 858.514 500.652 872.268 445.206 897.508C433.702 902.758 422.554 908.397 412.079 914.276C354.249 946.837 309.227 994.868 278.251 1057.05C259.572 1094.47 245.868 1135.04 232.617 1174.28C224.186 1199.25 215.46 1225.08 205.58 1249.68C196.588 1272.57 185.813 1294.72 173.354 1315.93C158.014 1341.79 143.292 1361.15 127.024 1376.86C106.768 1396.41 84.7528 1409.55 59.7282 1416.99C29.6396 1425.95 -2.17822 1425.66 -32.9482 1425.39C-40.6373 1425.32 -48.5907 1425.25 -56.3232 1425.33L-57.324 1425.34C-98.1697 1425.76 -140.406 1426.2 -179.991 1437.75C-217.389 1448.53 -248.685 1465.5 -278.95 1481.92C-282.841 1484.03 -286.864 1486.22 -290.801 1488.33L-291.059 1487.85C-287.121 1485.73 -283.101 1483.55 -279.21 1481.44C-248.917 1465.01 -217.598 1448.02 -180.143 1437.23C-140.487 1425.65 -98.2172 1425.21 -57.3288 1424.79L-56.3281 1424.78C-48.589 1424.7 -40.6345 1424.77 -32.9409 1424.84C-2.21062 1425.12 29.5654 1425.4 59.5744 1416.47C117.154 1399.34 150.377 1353.59 172.886 1315.65C185.329 1294.46 196.091 1272.34 205.072 1249.47C214.945 1224.89 223.665 1199.07 232.098 1174.11C245.356 1134.85 259.066 1094.26 277.759 1056.81C292.466 1026.94 311.399 999.351 333.976 974.887C356.622 950.639 382.879 930.036 411.818 913.807C422.31 907.924 433.468 902.275 444.987 897.019C500.484 871.754 561.925 858 621.334 844.687C626.447 843.542 631.556 842.395 636.661 841.247L644.114 839.572C657.905 836.475 672.162 833.277 686.271 829.819C734.164 818.124 788.706 801.956 830.061 770.685C858.421 749.247 878.913 722.428 892.732 688.684C911.56 642.691 914.038 591.116 916.434 541.241C917.664 515.673 918.824 491.519 922.045 468.136C924.503 450.296 928.181 429.567 936.829 411.076C946.443 390.514 960.671 375.642 980.325 365.61C998.707 356.146 1020.32 349.072 1046.41 343.982C1069.42 339.49 1092.89 337.065 1115.59 334.716C1126.68 333.57 1137.15 332.488 1147.46 331.186L1147.53 331.729C1137.21 333.03 1126.73 334.114 1115.64 335.259C1069.4 340.037 1021.58 344.979 980.567 366.093C939.05 387.285 928.158 427.699 922.578 468.211C919.36 491.57 918.199 515.71 916.972 541.268C914.573 591.189 912.094 642.808 893.229 688.89C882.179 716.68 864.759 741.488 842.371 761.318Z" fill="url(#paint5_linear_67_354)" fill-opacity="0.7"/>
<path d="M854.64 742.367C848.613 747.679 842.289 752.644 835.699 757.237C794.069 786.348 741.587 801.397 691.07 813.327C678.273 816.358 665.308 819.217 652.771 821.983C649.011 822.815 645.264 823.644 641.53 824.468L634.593 826.008C572.533 839.789 508.358 854.038 451.08 881.49C439.758 886.932 428.787 892.783 418.48 898.888C362.205 932.318 318.618 981.196 288.93 1044.17C271.002 1082.09 258.05 1123.14 245.528 1162.83C237.747 1187.52 229.698 1213.05 220.574 1237.37C212.196 1260.35 202.067 1282.66 190.275 1304.08C175.553 1330.62 161.45 1350.3 145.876 1366.01C126.047 1386.03 104.208 1399.16 79.1119 1406.16C48.3725 1414.73 15.9145 1413.29 -15.4734 1411.9C-24.3661 1411.5 -33.5631 1411.09 -42.4711 1410.93C-80.9549 1410.24 -128.85 1409.37 -171.735 1423.29C-210.797 1435.8 -242.376 1456.04 -272.91 1475.61C-276.579 1477.96 -280.374 1480.39 -284.083 1482.74L-284.405 1482.24C-280.698 1479.88 -276.905 1477.45 -273.235 1475.1C-242.666 1455.51 -211.054 1435.25 -171.923 1422.71C-128.943 1408.77 -80.9922 1409.63 -42.4646 1410.32C-33.5442 1410.48 -24.345 1410.89 -15.4457 1411.29C15.8951 1412.68 48.3047 1414.12 78.951 1405.57C135.938 1389.67 168.105 1342.82 189.75 1303.78C201.528 1282.38 211.645 1260.1 220.011 1237.15C229.129 1212.85 237.187 1187.33 244.963 1162.65C257.491 1122.93 270.445 1081.87 288.393 1043.89C302.364 1013.85 320.525 985.948 342.332 961.009C364.203 936.304 389.793 915.16 418.18 898.341C428.508 892.234 439.493 886.373 450.831 880.924C508.172 853.443 572.38 839.186 634.472 825.397L641.409 823.857C645.138 823.029 648.885 822.201 652.65 821.372C665.186 818.607 678.148 815.749 690.941 812.718C741.394 800.806 793.81 785.777 835.358 756.725C863.645 737.103 886.416 710.542 901.487 679.589C923.409 635.553 929.697 585.668 935.778 537.426C938.662 514.546 941.645 490.889 946.273 468.784C950.107 450.473 954.903 431.124 964 413.658C973.622 394.462 989.118 378.837 1008.23 369.057C1026.33 359.596 1047.48 352.206 1072.91 346.456C1095.37 341.383 1118.28 338.18 1140.44 335.083C1151.93 333.477 1162.78 331.962 1173.47 330.212L1173.57 330.805C1162.87 332.554 1152.02 334.076 1140.53 335.677C1095.47 341.973 1048.87 348.486 1008.52 369.584C966.232 391.482 954.524 432.331 946.869 468.901C942.246 490.982 939.398 513.576 936.386 537.501C930.301 585.789 924.004 635.729 902.038 679.855C894.852 694.493 885.97 708.234 875.575 720.796C869.164 728.505 862.171 735.709 854.656 742.346" fill="url(#paint6_linear_67_354)" fill-opacity="0.7"/>
<path d="M154.185 1365.33C138.281 1379.63 119.179 1389.91 98.4817 1395.31C66.912 1403.56 33.6247 1400.99 1.43369 1398.51C-8.48255 1397.75 -18.7375 1396.96 -28.6399 1396.52C-75.6022 1394.45 -121.26 1393.84 -163.497 1408.81C-204.222 1423.08 -236.057 1446.62 -266.843 1469.38C-270.305 1471.94 -273.885 1474.59 -277.384 1477.15L-277.771 1476.62C-274.273 1474.06 -270.698 1471.41 -267.232 1468.85C-236.407 1446.06 -204.532 1422.5 -163.715 1408.19C-144.217 1401.28 -122.282 1397.15 -96.6574 1395.57C-73.232 1394.11 -49.2524 1394.96 -28.6163 1395.87C-18.7018 1396.31 -8.44359 1397.1 1.47924 1397.86C33.6166 1400.34 66.8479 1402.9 98.3113 1394.68C154.87 1379.89 185.89 1332 206.597 1291.92C217.682 1270.29 227.152 1247.87 234.932 1224.85C243.302 1200.84 250.682 1175.66 257.827 1151.31C269.617 1111.1 281.808 1069.52 299.011 1030.98C312.249 1000.78 329.635 972.564 350.667 947.16C371.767 922.004 396.695 900.326 424.536 882.922C434.702 876.583 445.509 870.515 456.669 864.877C515.774 835.085 582.058 820.554 646.161 806.509C651.233 805.4 656.432 804.28 661.459 803.188C672.649 800.769 684.219 798.267 695.617 795.66C746.266 784.113 798.894 769.717 840.656 742.804C869.22 724.528 893.063 699.762 910.241 670.525C935.477 628.284 945.68 579.871 955.544 533.049C959.995 511.929 964.596 490.089 970.494 469.463C975.253 452.824 981.169 433.621 991.175 416.31C1001.61 397.675 1017.22 382.47 1036.13 372.543C1076.02 351.474 1121.51 343.391 1165.5 335.577C1177.3 333.482 1188.45 331.497 1199.45 329.281L1199.58 329.925C1188.57 332.147 1177.42 334.126 1165.62 336.223C1121.68 344.025 1076.24 352.097 1036.44 373.12C995.453 394.77 981.701 432.674 971.125 469.637C965.233 490.239 960.633 512.068 956.186 533.177C946.309 580.05 936.098 628.522 910.804 670.854C902.648 684.657 893.02 697.535 882.089 709.264C869.863 722.287 856.062 733.735 841.004 743.343C821.813 755.707 799.253 766.228 772.033 775.505C745.428 784.573 717.291 791.373 695.751 796.284C684.349 798.891 672.777 801.395 661.587 803.814C656.56 804.902 651.36 806.025 646.29 807.134C582.229 821.177 515.987 835.698 456.962 865.442C445.819 871.073 435.025 877.134 424.882 883.459C370.15 917.734 328 967.456 299.609 1031.24C282.427 1069.74 270.242 1111.29 258.458 1151.48C251.315 1175.84 243.929 1201.03 235.55 1225.04C227.76 1248.1 218.277 1270.55 207.178 1292.21C193.133 1319.39 179.637 1339.38 164.705 1355.13C161.268 1358.75 157.759 1362.15 154.178 1365.31" fill="url(#paint7_linear_67_354)" fill-opacity="0.7"/>
<path d="M171.479 1356.22C156.217 1369.92 137.793 1379.63 117.859 1384.47C85.3393 1392.43 51.1023 1388.76 17.9902 1385.21C7.16879 1384.05 -4.02357 1382.85 -14.7986 1382.12C-61.402 1378.95 -110.634 1377.28 -155.246 1394.34C-197.634 1410.38 -229.703 1437.25 -260.717 1463.24C-263.987 1465.98 -267.368 1468.82 -270.671 1471.56L-271.126 1471.01C-267.823 1468.27 -264.439 1465.43 -261.176 1462.7C-230.116 1436.67 -197.997 1409.76 -155.499 1393.67C-110.752 1376.56 -61.4303 1378.23 -14.748 1381.41C-3.95874 1382.14 7.24229 1383.34 18.0694 1384.5C51.1192 1388.04 85.2895 1391.7 117.692 1383.77C173.637 1370.07 202.552 1323.66 223.463 1280.05C233.851 1258.19 242.675 1235.63 249.871 1212.52C257.499 1188.86 264.224 1164.06 270.726 1140.07C281.77 1099.33 293.19 1057.2 309.638 1018.07C322.148 987.682 338.766 959.157 359.026 933.288C379.346 907.679 403.605 885.46 430.897 867.462C440.89 860.901 451.53 854.623 462.513 848.787C488.681 834.937 518.655 823.135 554.144 812.705C585.891 803.376 618.029 796.228 650.903 789.128C657.422 787.724 664.11 786.308 670.582 784.94C680.316 782.881 690.383 780.751 700.282 778.568C747.706 768.14 801.981 754.842 845.955 728.856C874.851 711.874 899.763 688.884 919.007 661.442C947.874 620.815 962.166 573.602 975.987 527.942C981.78 508.806 987.77 489.019 994.729 470.122C1001.26 452.39 1007.98 435.134 1018.33 418.913C1029.54 400.852 1045.3 386.057 1064.04 376.014C1103.25 354.989 1147.51 345.438 1190.31 336.202C1202.51 333.573 1214.04 331.08 1225.44 328.336L1225.6 329.023C1214.19 331.768 1202.66 334.257 1190.45 336.892C1147.7 346.118 1103.49 355.658 1064.37 376.636C1021.43 399.657 1006.38 440.527 995.392 470.37C988.44 489.246 982.454 509.024 976.664 528.15C962.827 573.864 948.518 621.133 919.583 661.857C910.466 674.801 900.095 686.814 888.621 697.724C875.766 709.873 861.571 720.521 846.31 729.463C802.247 755.502 747.904 768.819 700.429 779.258C690.531 781.44 680.459 783.573 670.722 785.631C664.249 786.994 657.563 788.415 651.046 789.819C581.149 804.918 518.742 819.825 462.835 849.415C451.869 855.236 441.252 861.506 431.277 868.055C378.071 903.153 337.362 953.718 310.279 1018.34C293.849 1057.43 282.438 1099.53 271.397 1140.25C264.897 1164.25 258.165 1189.06 250.533 1212.74C243.327 1235.88 234.489 1258.47 224.087 1280.36C215.701 1297.84 202.373 1323.49 183.537 1344.26C179.735 1348.46 175.704 1352.45 171.463 1356.21" fill="url(#paint8_linear_67_354)" fill-opacity="0.7"/>
<path d="M189.034 1346.91C174.33 1360.09 156.498 1369.29 137.235 1373.62C103.684 1381.31 68.4142 1376.55 34.3043 1371.95C22.6557 1370.38 10.6095 1368.76 -0.95583 1367.72C-47.0366 1363.55 -100.125 1360.72 -146.996 1379.87C-191.044 1397.7 -223.331 1427.94 -254.554 1457.18C-257.643 1460.08 -260.839 1463.07 -263.96 1465.97L-264.483 1465.4C-261.362 1462.5 -258.168 1459.51 -255.079 1456.62C-223.806 1427.33 -191.464 1397.04 -147.285 1379.16C-100.255 1359.94 -47.053 1362.78 -0.886469 1366.95C10.6954 1367.99 22.7503 1369.62 34.4018 1371.19C68.4442 1375.78 103.646 1380.53 137.06 1372.88C192.831 1360.11 220.55 1312.79 240.314 1268.19C250.003 1246.12 258.183 1223.4 264.798 1200.22C271.693 1176.94 277.768 1152.55 283.64 1128.97C293.928 1087.66 304.567 1044.93 320.259 1005.16C332.042 974.6 347.889 945.764 367.373 919.433C386.916 893.37 410.512 870.609 437.262 852.018C447.085 845.229 457.548 838.735 468.36 832.714C494.331 818.293 524.047 806.119 559.201 795.49C592.259 785.498 626.321 778.002 655.657 771.757C663.722 770.043 672.005 768.336 680.013 766.685C688.193 764.998 696.649 763.253 704.957 761.486C754.887 750.915 807.311 738.613 851.261 714.914C880.6 699.248 906.594 677.998 927.78 652.359C960.718 613.148 979.383 566.801 997.43 521.986C1004.23 505.101 1011.26 487.642 1018.96 470.785C1026.03 455.325 1034.03 437.805 1045.48 421.519C1057.45 404.049 1073.37 389.648 1091.95 379.484C1130.45 358.529 1173.46 347.564 1215.05 336.961C1227.68 333.741 1239.61 330.699 1251.43 327.387L1251.64 328.126C1239.81 331.442 1227.87 334.484 1215.24 337.704C1173.69 348.294 1130.73 359.244 1092.32 380.156C1050.92 402.689 1033.59 440.62 1019.66 471.099C1011.97 487.94 1004.94 505.388 998.148 522.27C989.11 544.709 979.766 567.913 968.75 589.934C956.391 614.638 943.184 635.219 928.369 652.854C918.308 664.924 907.197 676.079 895.169 686.188C881.699 697.451 867.111 707.302 851.632 715.589C807.592 739.335 755.107 751.655 705.123 762.237C696.813 764.002 688.354 765.748 680.175 767.436C672.166 769.088 663.883 770.797 655.82 772.509C589.636 786.596 525.526 801.855 468.739 833.385C457.948 839.394 447.507 845.876 437.706 852.649C385.282 889.055 347.101 939.033 320.984 1005.44C305.311 1045.16 294.679 1087.86 284.395 1129.15C278.519 1152.74 272.442 1177.13 265.545 1200.43C258.921 1223.65 250.73 1246.39 241.027 1268.5C232.447 1287.86 220.304 1312.73 202.398 1333.37C198.251 1338.17 193.79 1342.69 189.046 1346.9" fill="url(#paint9_linear_67_354)" fill-opacity="0.7"/>
<path d="M206.888 1337.35C192.646 1350.09 175.306 1358.86 156.606 1362.78C121.967 1370.19 85.5974 1364.37 50.4337 1358.73C38.0148 1356.74 25.1737 1354.68 12.8786 1353.33C-34.7706 1348.04 -89.7133 1344.18 -138.751 1365.41C-184.457 1385.03 -216.941 1418.67 -248.358 1451.2C-251.283 1454.23 -254.301 1457.35 -257.253 1460.39L-257.842 1459.81C-254.886 1456.78 -251.872 1453.65 -248.947 1450.62C-233.471 1434.6 -217.467 1418.03 -199.61 1403.01C-179.397 1386.01 -159.596 1373.46 -139.074 1364.65C-117.264 1355.21 -92.661 1350 -63.8629 1348.72C-36.92 1347.53 -9.90174 1349.97 12.9722 1352.5C25.2847 1353.86 38.1407 1355.93 50.5684 1357.92C85.6604 1363.54 121.948 1369.36 156.439 1361.98C212.133 1350.07 238.615 1301.89 257.176 1256.34C266.163 1234.04 273.698 1211.18 279.734 1187.91C285.908 1165.06 291.336 1141.14 296.59 1118.02C306.112 1076.08 315.958 1032.72 330.894 992.256C341.951 961.511 357.028 932.365 375.732 905.576C394.494 879.067 417.422 855.767 443.626 836.582C453.273 829.568 463.562 822.861 474.207 816.648C499.964 801.657 529.415 789.111 564.258 778.282C596.687 768.204 629.638 760.844 660.414 754.39C670.157 752.352 680.167 750.344 689.846 748.403C696.338 747.102 703.05 745.756 709.641 744.407C762.104 733.732 812.817 722.373 856.577 700.973C886.374 686.508 913.437 666.986 936.563 643.274C974.182 605.26 996.612 561.41 1020.36 514.98C1027.67 500.668 1035.24 485.87 1043.22 471.436L1044.11 469.82C1060.87 439.46 1079.88 405.05 1119.87 382.955C1157.61 362.095 1199.34 349.79 1239.69 337.891C1252.78 334.028 1265.15 330.381 1277.43 326.442L1277.69 327.226C1265.4 331.164 1253.02 334.816 1239.92 338.681C1199.61 350.568 1157.93 362.86 1120.27 383.677C1080.49 405.659 1061.54 439.958 1044.83 470.222L1043.94 471.838C1035.97 486.26 1028.41 501.053 1021.09 515.358C1009.7 537.638 997.917 560.676 984.555 582.352C969.586 606.636 954.081 626.753 937.153 643.857C926.162 655.034 914.312 665.331 901.712 674.655C887.646 685.018 872.662 694.075 856.949 701.713C813.101 723.155 762.332 734.524 709.816 745.215C703.224 746.563 696.512 747.909 690.019 749.211C680.341 751.151 670.334 753.158 660.595 755.198C597.996 768.322 532.071 783.932 474.633 817.361C464.011 823.56 453.747 830.25 444.124 837.248C393.192 874.444 356.41 925.242 331.664 992.546C316.75 1032.96 306.912 1076.29 297.396 1118.2C292.143 1141.34 286.71 1165.26 280.532 1188.13C274.487 1211.43 266.941 1234.32 257.941 1256.65C246.04 1285.86 230.884 1316.15 206.893 1337.35" fill="url(#paint10_linear_67_354)" fill-opacity="0.7"/>
<path d="M224.8 1327.74C211.004 1340.06 194.137 1348.42 175.983 1351.93C140.209 1359.06 102.711 1352.17 66.4447 1345.51C53.2998 1343.09 39.7051 1340.59 26.7233 1338.91C-26.1474 1332.03 -81.7874 1328.72 -130.5 1350.93C-177.864 1372.36 -210.533 1409.41 -242.122 1445.25C-244.887 1448.39 -247.747 1451.63 -250.543 1454.78L-251.201 1454.2C-248.408 1451.05 -245.548 1447.81 -242.782 1444.67C-227.232 1427.03 -211.153 1408.79 -193.008 1392.25C-172.463 1373.53 -152.133 1359.75 -130.86 1350.12C-81.9502 1327.83 -26.1639 1331.13 26.8379 1338.03C39.8468 1339.72 53.4513 1342.23 66.6083 1344.64C102.792 1351.29 140.208 1358.17 175.816 1351.07C231.519 1339.96 256.72 1290.95 274.035 1244.47C282.316 1221.95 289.205 1198.95 294.663 1175.59C300.128 1153.22 304.925 1129.83 309.566 1107.21C318.306 1064.6 327.346 1020.55 341.51 979.344C351.842 948.414 366.15 918.957 384.074 891.713C402.055 864.757 424.316 840.917 449.979 821.134C459.637 813.763 469.671 806.9 480.042 800.57C505.561 785.018 534.757 772.096 569.303 761.062C602.532 750.45 636.405 742.951 665.16 737.014C676.712 734.634 688.577 732.33 700.052 730.101C704.808 729.177 709.561 728.251 714.312 727.321C769.432 716.553 818.581 706.09 861.882 687.026C892.215 673.736 920.354 655.919 945.339 634.182C988.485 597.144 1016.11 553.214 1045.37 506.698C1052.51 495.352 1059.89 483.62 1067.46 472.082C1068.33 470.755 1069.21 469.417 1070.09 468.067C1088.54 439.875 1109.44 407.927 1147.77 386.422C1184.7 365.704 1225.07 352.135 1264.13 339.02C1277.75 334.45 1290.61 330.123 1303.42 325.489L1303.72 326.316C1290.91 330.951 1278.04 335.273 1264.41 339.85C1225.4 352.957 1185.06 366.505 1148.2 387.185C1110.06 408.586 1089.22 440.442 1070.83 468.547C1069.94 469.896 1069.07 471.234 1068.2 472.562C1060.63 484.093 1053.25 495.821 1046.12 507.164C1032.04 529.548 1017.48 552.7 1001.44 574.241C983.501 598.345 965.336 618.166 945.914 634.842C920.864 656.638 892.651 674.504 862.238 687.83C818.853 706.931 769.654 717.406 714.481 728.184C709.734 729.116 704.981 730.042 700.221 730.964C688.748 733.193 676.887 735.496 665.339 737.876C606.269 750.07 538.402 766.037 480.502 801.321C470.158 807.634 460.149 814.48 450.516 821.832C401.096 859.8 365.712 911.418 342.344 979.629C328.197 1020.78 319.164 1064.81 310.429 1107.39C305.788 1130.02 300.988 1153.42 295.52 1175.8C290.053 1199.19 283.152 1222.23 274.857 1244.78C263.586 1275.05 248.962 1306.39 224.8 1327.74Z" fill="url(#paint11_linear_67_354)" fill-opacity="0.7"/>
<path d="M242.89 1318.03C239.493 1321.04 235.895 1323.82 232.122 1326.34C220.998 1333.71 208.488 1338.72 195.359 1341.09C158.572 1347.91 120.06 1340 82.8176 1332.36C68.1803 1329.35 54.3543 1326.51 40.5624 1324.5C-11.2817 1316.73 -71.1646 1312.07 -122.247 1336.45C-171.265 1359.69 -204.095 1400.19 -235.851 1439.36C-238.471 1442.59 -241.18 1445.93 -243.829 1449.18L-244.557 1448.59C-241.909 1445.34 -239.2 1442 -236.581 1438.77C-220.963 1419.51 -204.815 1399.59 -186.39 1381.53C-165.516 1361.06 -144.669 1346.04 -122.654 1335.6C-99.3056 1324.46 -72.9253 1318.52 -41.997 1317.44C-11.9902 1316.39 17.9587 1320.17 40.6974 1323.58C54.5145 1325.6 68.3524 1328.44 83.0049 1331.45C120.157 1339.07 158.58 1346.97 195.189 1340.17C250.979 1329.82 274.872 1279.99 290.889 1232.62C298.466 1209.89 304.712 1186.74 309.596 1163.29C314.371 1141.46 318.546 1118.66 322.589 1096.6C330.531 1053.26 338.745 1008.44 352.136 966.442C374.158 897.12 408.244 844.538 456.334 805.692C465.794 798.1 475.657 791.025 485.88 784.498C541.425 749.08 607.153 732.394 669.907 719.642C683.42 716.9 697.283 714.303 710.69 711.792L718.982 710.238C769.328 700.812 821.394 691.074 867.189 673.08C898.117 660.905 927.338 644.777 954.123 625.097C1003.96 588.784 1037.68 544.127 1073.38 496.848C1079.34 488.958 1085.5 480.8 1091.7 472.735C1093.32 470.63 1094.95 468.504 1096.59 466.356C1116.49 440.296 1139.05 410.759 1175.67 389.895C1211.68 369.384 1250.63 354.664 1288.3 340.427C1301.91 335.284 1315.98 329.965 1329.4 324.549L1329.75 325.415C1316.32 330.835 1302.24 336.156 1288.63 341.3C1250.99 355.526 1212.08 370.231 1176.14 390.706C1139.68 411.476 1117.18 440.936 1097.33 466.922C1095.69 469.065 1094.06 471.194 1092.45 473.309C1086.25 481.37 1080.09 489.526 1074.14 497.416C1045.12 535.839 1017.41 572.537 981.291 604.456C972.912 611.86 964.085 619.005 954.679 625.858C927.832 645.586 898.542 661.755 867.542 673.961C821.664 691.988 769.557 701.738 719.165 711.168L710.871 712.723C697.466 715.233 683.61 717.83 670.103 720.57C607.437 733.305 541.808 749.961 486.392 785.298C476.199 791.807 466.365 798.861 456.932 806.43C408.99 845.151 374.999 897.588 353.035 966.731C339.663 1008.68 331.454 1053.46 323.517 1096.78C319.473 1118.84 315.292 1141.65 310.518 1163.49C305.628 1186.98 299.374 1210.16 291.787 1232.92C284.878 1253.34 274.906 1279.5 258.912 1300.64C254.169 1306.96 248.807 1312.79 242.908 1318.04" fill="url(#paint12_linear_67_354)" fill-opacity="0.7"/>
<path d="M261.124 1308.2C248.062 1319.8 231.969 1327.45 214.726 1330.25C176.729 1336.79 137 1327.83 98.5816 1319.16C83.2649 1315.71 68.7965 1312.45 54.3941 1310.1C0.849089 1301.19 -61.0334 1295.63 -114.004 1321.97C-164.675 1347.04 -197.661 1391.01 -229.562 1433.52C-232.046 1436.83 -234.61 1440.25 -237.126 1443.58L-237.918 1442.98C-235.407 1439.66 -232.839 1436.24 -230.354 1432.93C-214.674 1412.03 -198.458 1390.42 -179.763 1370.83C-158.572 1348.62 -137.207 1332.35 -114.444 1321.09C-90.3503 1309.1 -63.0789 1302.8 -31.0706 1301.82C0.214822 1300.86 31.1239 1305.22 54.5559 1309.12C68.9867 1311.47 83.4691 1314.74 98.801 1318.2C137.125 1326.84 176.754 1335.78 214.559 1329.27C270.497 1319.64 293.054 1269.01 307.74 1220.76C314.609 1197.82 320.212 1174.53 324.522 1150.98C328.618 1129.76 332.193 1107.61 335.652 1086.19C342.778 1042.05 350.148 996.406 362.749 953.527C383.346 883.251 416.033 829.835 462.685 790.246C471.946 782.434 481.637 775.148 491.714 768.422C516.725 751.748 545.401 738.082 579.395 726.626C606.229 717.586 635.607 710.073 674.653 702.264C690.301 699.14 706.332 696.263 721.829 693.477L730.501 691.925C778.576 683.341 828.291 674.464 872.497 659.129C904.131 648.13 934.45 633.665 962.902 615.998C1021.03 580.175 1062.11 533.931 1105.62 484.984C1109.04 481.126 1112.48 477.255 1115.94 473.368C1118.52 470.468 1121.18 467.467 1123.74 464.559C1144.84 440.621 1168.75 413.491 1203.57 393.351C1238.49 373.154 1275.85 357.426 1311.98 342.216C1326.34 336.172 1341.18 329.926 1355.37 323.588L1355.77 324.492C1341.57 330.83 1326.73 337.086 1312.37 343.125C1276.26 358.323 1238.92 374.038 1204.06 394.204C1169.38 414.266 1145.53 441.329 1124.48 465.209C1121.92 468.117 1119.27 471.126 1116.68 474.023C1113.22 477.905 1109.78 481.777 1106.36 485.637C1079.07 516.351 1052.72 546.002 1022.51 572.693C1004.12 589.081 984.354 603.851 963.423 616.836C934.91 634.544 904.526 649.043 872.825 660.068C828.543 675.428 778.792 684.313 730.678 692.904L722.006 694.455C706.511 697.239 690.487 700.108 674.85 703.24C615.814 715.047 547.953 732.123 492.265 769.25C482.22 775.956 472.558 783.22 463.326 791.007C416.825 830.467 384.237 883.719 363.701 953.811C351.115 996.62 343.747 1042.24 336.625 1086.34C333.166 1107.77 329.588 1129.93 325.492 1151.16C321.175 1174.75 315.564 1198.08 308.685 1221.05C298.866 1253.31 285.534 1286.63 261.122 1308.2" fill="url(#paint13_linear_67_354)" fill-opacity="0.7"/>
<path d="M279.504 1298.29C266.742 1309.59 250.966 1316.92 234.103 1319.4C194.869 1325.65 153.909 1315.64 114.295 1305.97C98.3204 1302.06 83.2306 1298.37 68.2354 1295.69C12.97 1285.64 -50.9168 1279.18 -105.75 1307.5C-158.073 1334.41 -191.2 1381.85 -223.239 1427.73C-225.595 1431.1 -228.032 1434.59 -230.414 1437.98L-231.27 1437.38C-228.889 1433.99 -226.453 1430.5 -224.097 1427.13C-208.361 1404.59 -192.088 1381.29 -173.12 1360.15C-151.615 1336.18 -129.734 1318.65 -106.227 1306.57C-51.1179 1278.11 12.9851 1284.57 68.4227 1294.65C83.4561 1297.35 98.5475 1301.04 114.541 1304.94C154.054 1314.59 194.915 1324.58 233.935 1318.36C290.078 1309.41 311.272 1258 324.595 1208.89C330.755 1185.76 335.713 1162.31 339.451 1138.66C342.892 1118.13 345.884 1096.71 348.776 1076C355.06 1030.99 361.564 984.442 373.376 940.621C392.518 869.365 423.812 815.126 469.046 774.805C478.107 766.775 487.627 759.277 497.558 752.35C522.299 735.118 550.722 721.072 584.452 709.411C611.171 700.174 641.345 692.383 679.411 684.893C695.739 681.685 712.533 678.773 728.336 676.066C733.65 675.159 738.965 674.258 744.282 673.363C789.211 665.771 835.669 657.921 877.826 645.189C910.243 635.384 941.673 622.57 971.706 606.914C1040.25 571.391 1091.07 521.894 1140.21 474.022C1144.14 470.196 1148 466.369 1152.07 462.321C1175.02 439.537 1198.74 415.977 1231.48 396.833C1264.97 377.078 1300.46 360.605 1334.78 344.675C1350.18 337.529 1366.1 330.138 1381.36 322.661L1381.82 323.601C1366.55 331.08 1350.63 338.475 1335.22 345.624C1300.92 361.544 1265.46 378.006 1232.01 397.736C1199.39 416.815 1175.71 440.327 1152.81 463.065C1148.73 467.118 1144.87 470.948 1140.94 474.778C1091.74 522.7 1040.86 572.256 972.185 607.848C942.095 623.533 910.605 636.372 878.126 646.196C835.909 658.951 789.419 666.807 744.457 674.404C739.142 675.302 733.828 676.203 728.513 677.107C712.717 679.812 695.927 682.726 679.614 685.929C621.137 697.435 553.851 714.427 498.158 753.219C488.26 760.121 478.773 767.593 469.743 775.597C424.667 815.777 393.482 869.845 374.389 940.903C362.593 984.661 356.097 1031.17 349.815 1076.16C346.921 1096.87 343.925 1118.29 340.483 1138.85C336.739 1162.53 331.773 1186.01 325.604 1209.18C316.595 1242.39 303.995 1276.65 279.5 1298.3" fill="url(#paint14_linear_67_354)" fill-opacity="0.7"/>
<path d="M1407.86 322.687C1391.06 331.664 1373.6 340.556 1356.71 349.156C1324.67 365.463 1291.55 382.328 1259.96 401.25C1229.66 419.252 1205.6 440.298 1182.33 460.652C1176.44 465.809 1170.86 470.683 1165.19 475.514C1138.66 498.09 1109.8 521.987 1078.5 543.803C1047.93 565.405 1015.24 583.846 980.937 598.843C949.354 612.526 916.749 623.718 883.42 632.318C843.901 642.535 801.202 649.291 759.916 655.819C751.157 657.205 742.099 658.637 733.189 660.087C717.726 662.606 701.11 665.384 684.37 668.618C629.787 679.182 559.963 696.52 504.043 737.188C494.292 744.286 484.978 751.967 476.153 760.189C432.471 801.072 402.68 855.966 385.07 927.997C374.084 972.789 368.482 1020.29 363.065 1066.23C360.716 1086.15 358.287 1106.75 355.473 1126.53C351.677 1153.69 347.446 1176.84 342.52 1197.31C337.422 1218.65 329.734 1245.95 315.405 1267.82C308.785 1278.2 300.228 1287.22 290.2 1294.37C279.23 1301.89 266.654 1306.75 253.474 1308.56C212.996 1314.51 170.779 1303.46 129.952 1292.77C113.336 1288.42 97.6401 1284.31 82.072 1281.29C25.0782 1270.1 -40.8248 1262.75 -97.4993 1293.03C-151.474 1321.77 -184.731 1372.71 -216.891 1421.98C-219.173 1425.47 -221.443 1428.94 -223.702 1432.39L-224.622 1431.78C-222.362 1428.34 -220.092 1424.87 -217.813 1421.37C-202.024 1397.19 -185.698 1372.18 -166.47 1349.5C-144.659 1323.76 -122.266 1304.97 -98.0142 1292.06C-72.4333 1278.39 -43.3785 1271.37 -9.20194 1270.59C24.9747 1269.82 59.3803 1275.71 82.283 1280.21C97.8797 1283.23 113.596 1287.35 130.231 1291.7C170.95 1302.36 213.058 1313.39 253.312 1307.47C309.719 1299.19 329.52 1247.01 341.452 1197.06C346.364 1176.62 350.592 1153.5 354.384 1126.37C357.197 1106.6 359.624 1086.01 361.971 1066.1C367.392 1020.13 372.997 972.59 384.001 927.733C392.482 893.047 403.427 863.138 417.463 836.301C424.851 822.121 433.358 808.552 442.903 795.723C452.647 782.678 463.522 770.517 475.402 759.382C484.261 751.131 493.611 743.423 503.4 736.3C527.861 718.511 556.027 704.09 589.505 692.215C616.415 682.67 646.495 674.829 684.167 667.539C700.919 664.302 717.546 661.522 733.017 659C741.928 657.558 750.983 656.122 759.746 654.734C801.007 648.208 843.674 641.461 883.147 631.255C916.421 622.671 948.973 611.498 980.505 597.838C1054.07 566.066 1111.73 519.576 1164.48 474.684C1170.15 469.854 1175.72 464.985 1181.61 459.832C1204.92 439.445 1229.01 418.361 1259.4 400.314C1291.03 381.377 1324.17 364.506 1356.22 348.188C1373.1 339.592 1390.56 330.704 1407.35 321.729L1407.86 322.687Z" fill="url(#paint15_linear_67_354)" fill-opacity="0.7"/>
<path d="M1433.9 321.778C1414.39 333.093 1394.16 344.312 1374.6 355.161C1346 371.021 1316.43 387.422 1287.89 404.761C1260.66 421.206 1237.17 439.439 1214.44 457.072C1205.85 463.745 1197.72 470.05 1189.42 476.246C1152.98 503.467 1123.8 523.211 1094.8 540.275C1061.43 560.132 1026.23 576.728 989.684 589.834C956.678 601.54 922.947 611.092 888.705 618.431C852.755 626.205 814.631 631.757 777.763 637.126C764.684 639.03 751.159 641 737.865 643.049C724.496 645.112 706.877 647.918 689.131 651.29C634.975 661.594 565.666 678.844 509.933 721.14C500.326 728.435 491.186 736.325 482.566 744.763C440.263 786.343 411.865 842.052 395.754 915.074C385.591 961.001 380.918 1009.6 376.405 1056.59C374.576 1075.61 372.684 1095.28 370.465 1114.2C367.299 1141.71 363.694 1165.02 359.443 1185.43C354.968 1207.05 348.057 1234.71 334.25 1256.87C327.901 1267.37 319.508 1276.5 309.568 1283.7C298.646 1291.28 286.045 1296.09 272.849 1297.72C231.111 1303.35 187.625 1291.26 145.571 1279.56C128.329 1274.77 112.043 1270.24 95.9137 1266.88C37.1828 1254.56 -30.7432 1246.3 -89.2453 1278.55C-144.869 1309.14 -179.749 1366.05 -210.525 1416.25C-212.692 1419.79 -214.846 1423.3 -216.989 1426.78L-217.976 1426.18C-215.829 1422.69 -213.674 1419.18 -211.511 1415.65C-195.674 1389.81 -179.301 1363.1 -159.813 1338.85C-137.699 1311.34 -114.799 1291.28 -89.8027 1277.54C-63.4791 1263.03 -33.5395 1255.65 1.72967 1254.98C37.1533 1254.3 72.5834 1260.8 96.1512 1265.75C112.316 1269.11 128.62 1273.65 145.879 1278.44C187.82 1290.1 231.189 1302.17 272.689 1296.57C329.41 1288.91 347.797 1235.98 358.305 1185.21C362.549 1164.82 366.148 1141.55 369.306 1114.07C371.52 1095.17 373.406 1075.51 375.239 1056.49C379.761 1009.46 384.439 960.831 394.615 914.835C402.355 879.761 412.554 849.543 425.801 822.453C432.81 808.055 440.958 794.24 450.168 781.14C459.566 767.823 470.136 755.373 481.751 743.938C490.405 735.466 499.582 727.544 509.227 720.22C533.401 701.875 561.308 687.081 594.547 674.989C621.599 665.148 651.585 657.256 688.911 650.154C706.675 646.778 724.311 643.976 737.688 641.907C750.99 639.858 764.515 637.888 777.597 635.983C814.446 630.615 852.55 625.067 888.46 617.301C922.653 609.973 956.335 600.434 989.294 588.745C1069.02 560.422 1132.26 517.493 1188.73 475.321C1197.02 469.13 1205.14 462.829 1213.73 456.16C1236.48 438.506 1260.01 420.248 1287.29 403.772C1315.85 386.423 1345.43 370.016 1374.03 354.151C1393.59 343.301 1413.82 332.088 1433.32 320.778L1433.9 321.778Z" fill="url(#paint16_linear_67_354)" fill-opacity="0.7"/>
<path d="M1459.95 320.867C1433.75 337.272 1406.67 353.492 1380.48 369.179C1359.24 381.902 1337.28 395.058 1315.84 408.278C1293.41 422.045 1272.54 436.553 1252.35 450.582C1239.07 459.814 1226.52 468.539 1213.67 476.984C1176.74 501.257 1143.19 520.8 1111.1 536.744C1074.97 554.86 1037.26 569.617 998.434 580.83C964.069 590.593 929.207 598.512 893.997 604.553C862.909 609.99 830.483 614.237 799.127 618.343C780.577 620.77 761.396 623.28 742.539 626.024C723.503 628.804 708.043 631.331 693.885 633.977C640.115 644.033 571.284 661.195 515.817 705.103C506.355 712.595 497.388 720.693 488.974 729.347C448.015 771.612 421.016 828.139 406.433 902.16C397.116 949.34 393.412 999.144 389.826 1047.3C388.486 1065.32 387.102 1083.94 385.45 1101.87C382.886 1130.16 379.996 1152.94 376.355 1173.56C372.51 1195.44 366.387 1223.45 353.08 1245.9C347.001 1256.52 338.773 1265.75 328.92 1273.01C318.045 1280.65 305.416 1285.42 292.205 1286.87C249.194 1292.18 204.427 1279.05 161.135 1266.35C143.278 1261.11 126.408 1256.16 109.736 1252.47C52.7967 1239.8 -20.3403 1229.66 -81.0085 1264.08C-138.281 1296.52 -173.281 1357.11 -204.154 1410.56C-206.213 1414.13 -208.261 1417.67 -210.3 1421.18L-211.351 1420.57C-209.311 1417.06 -207.263 1413.52 -205.207 1409.95C-189.328 1382.46 -172.913 1354.03 -153.166 1328.22C-130.755 1298.93 -107.349 1277.6 -81.6096 1263.02C-67.2207 1254.92 -51.7588 1248.89 -35.6827 1245.11C-19.8308 1241.45 -3.62737 1239.52 12.6419 1239.36C40.5501 1238.92 71.4851 1242.71 109.996 1251.29C126.708 1254.98 143.597 1259.94 161.474 1265.18C204.649 1277.85 249.293 1290.94 292.055 1285.67C349.119 1278.63 366.088 1224.94 375.153 1173.35C378.788 1152.76 381.673 1130.02 384.234 1101.76C385.885 1083.84 387.269 1065.22 388.609 1047.22C392.2 999.021 395.904 949.178 405.239 901.922C412.227 866.454 421.684 835.925 434.148 808.591C440.779 793.977 448.569 779.917 457.442 766.545C466.494 752.964 476.756 740.23 488.103 728.499C496.553 719.807 505.558 711.673 515.062 704.148C538.94 685.25 566.59 670.079 599.598 657.768C626.383 647.779 657.153 639.603 693.666 632.776C707.841 630.128 723.32 627.594 742.368 624.817C761.232 622.068 780.417 619.557 798.968 617.125C830.306 613.023 862.713 608.782 893.783 603.346C928.95 597.312 963.77 589.402 998.093 579.651C1068.21 559.545 1134.49 527.565 1212.99 475.958C1225.84 467.514 1238.38 458.8 1251.65 449.573C1271.85 435.534 1292.74 421.015 1315.19 407.232C1336.64 394.008 1358.61 380.85 1379.85 368.126C1406.03 352.442 1433.11 336.224 1459.3 319.826L1459.95 320.867Z" fill="url(#paint17_linear_67_354)" fill-opacity="0.7"/>
<path d="M1485.99 319.95C1444.96 347.576 1399.77 376.758 1343.78 411.788C1331.99 419.145 1320.26 426.615 1308.92 433.838C1284.6 449.331 1261.62 463.965 1237.9 477.716C1156.46 524.927 1083.14 554.829 1007.18 571.819C975.99 578.892 941.705 584.881 899.287 590.67C875.469 593.842 851.008 596.61 827.345 599.286C801.075 602.258 773.909 605.33 747.224 608.997C728.613 611.557 713.179 613.992 698.652 616.659C649.403 625.706 577.481 643.054 521.715 689.063C512.396 696.753 503.603 705.059 495.398 713.927C455.206 757.465 430.335 813.173 417.123 889.244C408.677 937.811 405.986 988.956 403.382 1038.42C402.494 1055.28 401.576 1072.73 400.446 1089.54C398.539 1118.26 396.262 1141.18 393.279 1161.68C390.064 1183.82 384.74 1212.16 371.928 1234.94C366.122 1245.67 358.058 1255.02 348.291 1262.33C337.463 1270.03 324.808 1274.75 311.586 1276.03C267.293 1280.99 221.235 1266.83 176.694 1253.14C158.232 1247.46 140.798 1242.1 123.582 1238.07C64.9949 1224.32 -10.2639 1213.2 -72.7483 1249.6C-131.667 1283.9 -166.77 1348.19 -197.74 1404.91C-199.694 1408.49 -201.641 1412.05 -203.58 1415.58L-204.694 1414.97C-202.755 1411.44 -200.809 1407.88 -198.856 1404.3C-182.937 1375.14 -166.476 1345 -146.483 1317.62C-123.779 1286.53 -99.8692 1263.92 -73.3864 1248.5C-58.6433 1239.97 -42.7391 1233.63 -26.172 1229.67C-9.85998 1225.84 6.83053 1223.85 23.5862 1223.74C52.4336 1223.38 84.2997 1227.54 123.873 1236.83C141.136 1240.87 158.587 1246.24 177.068 1251.92C221.484 1265.58 267.416 1279.7 311.446 1274.77C337.75 1271.82 357.167 1258.58 370.822 1234.31C383.529 1211.72 388.828 1183.53 392.023 1161.5C394.998 1141.03 397.275 1118.14 399.179 1089.46C400.305 1072.65 401.225 1055.21 402.113 1038.35C404.719 988.849 407.412 937.666 415.871 889.022C422.1 853.156 430.81 822.315 442.502 794.741C455.899 763.142 472.896 736.425 494.463 713.062C502.708 704.151 511.542 695.805 520.906 688.079C544.481 668.628 571.874 653.083 604.648 640.555C631.506 630.289 662.181 622.062 698.421 615.405C712.967 612.733 728.419 610.295 747.05 607.734C773.745 604.062 800.927 600.996 827.201 598.019C850.854 595.344 875.312 592.578 899.116 589.409C941.494 583.626 975.744 577.642 1006.9 570.577C1082.74 553.617 1155.94 523.76 1237.27 476.613C1260.96 462.876 1283.92 448.246 1308.24 432.764C1319.58 425.54 1331.31 418.068 1343.11 410.706C1399.09 375.682 1444.27 346.51 1485.29 318.891L1485.99 319.95Z" fill="url(#paint18_linear_67_354)" fill-opacity="0.7"/>
<path d="M1512.04 319.035C1480.55 341.748 1438.97 371.391 1396.57 399.242C1354.04 427.181 1315.18 450.42 1277.75 470.303C1237.24 492.05 1195.23 510.888 1152.04 526.673C1107.85 542.81 1062.29 554.904 1015.92 562.807C964.603 571.509 911.977 576.214 861.083 580.766C825.243 583.972 788.184 587.286 751.893 591.968C676.253 601.725 590.454 618.986 527.6 673.021C425.352 760.921 421.141 897.706 417.065 1029.99C415.766 1072.14 414.54 1111.95 410.191 1149.8C407.62 1172.19 403.088 1200.85 390.767 1223.96C385.235 1234.8 377.335 1244.26 367.653 1251.64C356.872 1259.39 344.189 1264.08 330.956 1265.19C285.375 1269.8 238.016 1254.6 192.215 1239.91C173.161 1233.8 155.16 1228.03 137.418 1223.66C77.1829 1208.84 -0.205054 1196.75 -64.4959 1235.13C-125.063 1271.28 -160.264 1339.28 -191.321 1399.28C-193.18 1402.87 -195.029 1406.44 -196.869 1409.99L-198.049 1409.37C-196.203 1405.82 -194.355 1402.25 -192.504 1398.66C-176.55 1367.84 -160.051 1335.97 -139.81 1307.01C-116.818 1274.12 -92.407 1250.24 -65.1819 1233.98C-50.0851 1225.03 -33.7386 1218.37 -16.6801 1214.23C0.0915449 1210.23 17.269 1208.18 34.5108 1208.12C64.2929 1207.84 97.0903 1212.37 137.73 1222.37C155.52 1226.75 173.538 1232.53 192.614 1238.64C238.284 1253.29 285.51 1268.44 330.817 1263.86C357.256 1261.19 376.483 1247.93 389.592 1223.33C401.808 1200.42 406.311 1171.92 408.874 1149.66C413.217 1111.86 414.443 1072.07 415.74 1029.95C417.749 964.732 419.831 897.291 434.227 835.191C442.009 801.621 452.605 772.73 466.621 746.87C474.126 732.982 482.833 719.779 492.641 707.409C502.872 694.569 514.289 682.72 526.742 672.022C555.275 647.493 590.016 628.872 632.942 615.105C675.086 601.586 718.563 594.941 751.732 590.661C788.049 585.976 825.119 582.658 860.975 579.453C911.843 574.903 964.444 570.199 1015.71 561.506C1206.42 529.169 1358.94 427.854 1511.27 317.967L1512.04 319.035Z" fill="url(#paint19_linear_67_354)" fill-opacity="0.7"/>
</g>
</g>
<defs>
<linearGradient id="paint0_linear_67_354" x1="274.549" y1="844.584" x2="505.174" y2="1105.57" gradientUnits="userSpaceOnUse">
<stop stop-color="#FEDC00"/>
<stop offset="1" stop-color="#373737"/>
</linearGradient>
<linearGradient id="paint1_linear_67_354" x1="299.308" y1="850.854" x2="511.084" y2="1090.51" gradientUnits="userSpaceOnUse">
<stop stop-color="#FEDC00"/>
<stop offset="1" stop-color="#373737"/>
</linearGradient>
<linearGradient id="paint2_linear_67_354" x1="324.063" y1="857.074" x2="517.156" y2="1075.59" gradientUnits="userSpaceOnUse">
<stop stop-color="#FEDC00"/>
<stop offset="1" stop-color="#373737"/>
</linearGradient>
<linearGradient id="paint3_linear_67_354" x1="348.785" y1="863.297" x2="523.338" y2="1060.83" gradientUnits="userSpaceOnUse">
<stop stop-color="#FEDC00"/>
<stop offset="1" stop-color="#373737"/>
</linearGradient>
<linearGradient id="paint4_linear_67_354" x1="373.523" y1="869.529" x2="529.683" y2="1046.24" gradientUnits="userSpaceOnUse">
<stop stop-color="#FEDC00"/>
<stop offset="1" stop-color="#373737"/>
</linearGradient>
<linearGradient id="paint5_linear_67_354" x1="398.29" y1="875.76" x2="536.225" y2="1031.85" gradientUnits="userSpaceOnUse">
<stop stop-color="#FEDC00"/>
<stop offset="1" stop-color="#373737"/>
</linearGradient>
<linearGradient id="paint6_linear_67_354" x1="410.688" y1="867.997" x2="543.015" y2="1017.74" gradientUnits="userSpaceOnUse">
<stop stop-color="#FEDC00"/>
<stop offset="1" stop-color="#373737"/>
</linearGradient>
<linearGradient id="paint7_linear_67_354" x1="421.606" y1="858.597" x2="555.79" y2="1010.44" gradientUnits="userSpaceOnUse">
<stop stop-color="#FEDC00"/>
<stop offset="1" stop-color="#373737"/>
</linearGradient>
<linearGradient id="paint8_linear_67_354" x1="432.538" y1="849.198" x2="569.656" y2="1004.36" gradientUnits="userSpaceOnUse">
<stop stop-color="#FEDC00"/>
<stop offset="1" stop-color="#373737"/>
</linearGradient>
<linearGradient id="paint9_linear_67_354" x1="442.784" y1="839.031" x2="583.533" y2="998.307" gradientUnits="userSpaceOnUse">
<stop stop-color="#FEDC00"/>
<stop offset="1" stop-color="#373737"/>
</linearGradient>
<linearGradient id="paint10_linear_67_354" x1="451.67" y1="827.348" x2="597.405" y2="992.266" gradientUnits="userSpaceOnUse">
<stop stop-color="#FEDC00"/>
<stop offset="1" stop-color="#373737"/>
</linearGradient>
<linearGradient id="paint11_linear_67_354" x1="458.192" y1="812.985" x2="611.279" y2="986.223" gradientUnits="userSpaceOnUse">
<stop stop-color="#FEDC00"/>
<stop offset="1" stop-color="#373737"/>
</linearGradient>
<linearGradient id="paint12_linear_67_354" x1="464.353" y1="798.223" x2="625.187" y2="980.228" gradientUnits="userSpaceOnUse">
<stop stop-color="#FEDC00"/>
<stop offset="1" stop-color="#373737"/>
</linearGradient>
<linearGradient id="paint13_linear_67_354" x1="470.409" y1="783.344" x2="639.078" y2="974.215" gradientUnits="userSpaceOnUse">
<stop stop-color="#FEDC00"/>
<stop offset="1" stop-color="#373737"/>
</linearGradient>
<linearGradient id="paint14_linear_67_354" x1="476.359" y1="768.342" x2="653.003" y2="968.239" gradientUnits="userSpaceOnUse">
<stop stop-color="#FEDC00"/>
<stop offset="1" stop-color="#373737"/>
</linearGradient>
<linearGradient id="paint15_linear_67_354" x1="482.209" y1="753.23" x2="674.455" y2="970.783" gradientUnits="userSpaceOnUse">
<stop stop-color="#FEDC00"/>
<stop offset="1" stop-color="#373737"/>
</linearGradient>
<linearGradient id="paint16_linear_67_354" x1="487.931" y1="737.973" x2="696.207" y2="973.664" gradientUnits="userSpaceOnUse">
<stop stop-color="#FEDC00"/>
<stop offset="1" stop-color="#373737"/>
</linearGradient>
<linearGradient id="paint17_linear_67_354" x1="493.554" y1="722.609" x2="717.956" y2="976.551" gradientUnits="userSpaceOnUse">
<stop stop-color="#FEDC00"/>
<stop offset="1" stop-color="#373737"/>
</linearGradient>
<linearGradient id="paint18_linear_67_354" x1="499.097" y1="707.144" x2="739.707" y2="979.427" gradientUnits="userSpaceOnUse">
<stop stop-color="#FEDC00"/>
<stop offset="1" stop-color="#373737"/>
</linearGradient>
<linearGradient id="paint19_linear_67_354" x1="504.553" y1="691.596" x2="761.45" y2="982.31" gradientUnits="userSpaceOnUse">
<stop stop-color="#FEDC00"/>
<stop offset="1" stop-color="#373737"/>
</linearGradient>
</defs>
</svg>
