<svg width="160" height="161" viewBox="0 0 160 161" fill="none" xmlns="http://www.w3.org/2000/svg">
<circle cx="80" cy="80.2275" r="75" fill="#DDA72A" stroke="#222222" stroke-width="10"/>
<path d="M103.251 69.1768H89.3008C88.3258 69.1768 87.5508 68.4018 87.5508 67.4268C87.5508 66.4518 88.3258 65.6768 89.3008 65.6768H103.251C104.226 65.6768 105.001 66.4518 105.001 67.4268C105.001 68.4018 104.226 69.1768 103.251 69.1768Z" fill="#0B0B0B"/>
<path d="M66.05 69.1768H56.75C55.775 69.1768 55 68.4018 55 67.4268C55 66.4518 55.775 65.6768 56.75 65.6768H66.05C67.025 65.6768 67.8 66.4518 67.8 67.4268C67.8 68.4018 67 69.1768 66.05 69.1768Z" fill="#0B0B0B"/>
<path d="M75.3496 77.3018C80.8034 77.3018 85.2246 72.8806 85.2246 67.4268C85.2246 61.9729 80.8034 57.5518 75.3496 57.5518C69.8958 57.5518 65.4746 61.9729 65.4746 67.4268C65.4746 72.8806 69.8958 77.3018 75.3496 77.3018Z" fill="#0B0B0B"/>
<path d="M103.249 94.751H93.9492C92.9742 94.751 92.1992 93.976 92.1992 93.001C92.1992 92.026 92.9742 91.251 93.9492 91.251H103.249C104.224 91.251 104.999 92.026 104.999 93.001C104.999 93.976 104.224 94.751 103.249 94.751Z" fill="#0B0B0B"/>
<path d="M70.7 94.751H56.75C55.775 94.751 55 93.976 55 93.001C55 92.026 55.775 91.251 56.75 91.251H70.7C71.675 91.251 72.45 92.026 72.45 93.001C72.45 93.976 71.65 94.751 70.7 94.751Z" fill="#0B0B0B"/>
<path d="M84.6504 102.903C90.1042 102.903 94.5254 98.4821 94.5254 93.0283C94.5254 87.5745 90.1042 83.1533 84.6504 83.1533C79.1966 83.1533 74.7754 87.5745 74.7754 93.0283C74.7754 98.4821 79.1966 102.903 84.6504 102.903Z" fill="#0B0B0B"/>
</svg>
