<svg width="160" height="161" viewBox="0 0 160 161" fill="none" xmlns="http://www.w3.org/2000/svg">
<circle cx="80" cy="80.2275" r="75" fill="#DDA72A" stroke="#222222" stroke-width="10"/>
<path d="M100 65.2275V65.8275H87.175C79.75 65.8275 76.3 69.2775 76.3 76.7025V89.4775H74.375V98.3525H76.3V102.103H62.375C61.35 102.103 60.5 101.253 60.5 100.228C60.5 99.2025 61.35 98.3525 62.375 98.3525H70.625V89.4775H65C57.175 89.4775 55.075 87.5525 55 79.9775V65.2275C55 57.2275 57 55.2275 65 55.2275H90C98 55.2275 100 57.2275 100 65.2275Z" fill="#0B0B0B"/>
<path d="M100.001 69.7041C99.3758 69.6291 98.6508 69.5791 97.8758 69.5791H87.1758C81.8258 69.5791 80.0508 71.3541 80.0508 76.7041V98.3541C80.0758 99.9041 80.2508 101.129 80.6258 102.104C81.5008 104.379 83.4758 105.229 87.1758 105.229H97.8758C103.226 105.229 105.001 103.454 105.001 98.1041V76.7041C105.001 72.1291 103.701 70.1791 100.001 69.7041ZM92.5258 75.4541C94.7008 75.4541 96.4508 77.2041 96.4508 79.3791C96.4508 81.5541 94.7008 83.3041 92.5258 83.3041C90.3508 83.3041 88.6008 81.5541 88.6008 79.3791C88.6008 77.2041 90.3508 75.4541 92.5258 75.4541ZM92.5258 98.1041C89.5758 98.1041 87.1758 95.7041 87.1758 92.7541C87.1758 91.5291 87.6008 90.3791 88.3008 89.4791C89.2758 88.2291 90.8008 87.4041 92.5258 87.4041C93.8758 87.4041 95.1008 87.9041 96.0258 88.7041C97.1508 89.7041 97.8758 91.1541 97.8758 92.7541C97.8758 95.7041 95.4758 98.1041 92.5258 98.1041Z" fill="#0B0B0B"/>
<path d="M100.001 69.7041C99.3758 69.6291 98.6508 69.5791 97.8758 69.5791H87.1758C81.8258 69.5791 80.0508 71.3541 80.0508 76.7041V98.3541C80.0758 99.9041 80.2508 101.129 80.6258 102.104C81.5008 104.379 83.4758 105.229 87.1758 105.229H97.8758C103.226 105.229 105.001 103.454 105.001 98.1041V76.7041C105.001 72.1291 103.701 70.1791 100.001 69.7041ZM92.5258 75.4541C94.7008 75.4541 96.4508 77.2041 96.4508 79.3791C96.4508 81.5541 94.7008 83.3041 92.5258 83.3041C90.3508 83.3041 88.6008 81.5541 88.6008 79.3791C88.6008 77.2041 90.3508 75.4541 92.5258 75.4541ZM92.5258 98.1041C89.5758 98.1041 87.1758 95.7041 87.1758 92.7541C87.1758 91.5291 87.6008 90.3791 88.3008 89.4791C89.2758 88.2291 90.8008 87.4041 92.5258 87.4041C93.8758 87.4041 95.1008 87.9041 96.0258 88.7041C97.1508 89.7041 97.8758 91.1541 97.8758 92.7541C97.8758 95.7041 95.4758 98.1041 92.5258 98.1041Z" fill="#0B0B0B"/>
</svg>
