<svg width="160" height="161" viewBox="0 0 160 161" fill="none" xmlns="http://www.w3.org/2000/svg">
<circle cx="80" cy="80.2275" r="75" fill="#DDA72A" stroke="#222222" stroke-width="10"/>
<path d="M105 74.6025C103.975 74.6025 103.125 73.7525 103.125 72.7275V67.7275C103.125 61.2775 98.95 57.1025 92.5 57.1025H67.5C61.05 57.1025 56.875 61.2775 56.875 67.7275V72.7275C56.875 73.7525 56.025 74.6025 55 74.6025C53.975 74.6025 53.125 73.7525 53.125 72.7275V67.7275C53.125 59.1275 58.9 53.3525 67.5 53.3525H92.5C101.1 53.3525 106.875 59.1275 106.875 67.7275V72.7275C106.875 73.7525 106.025 74.6025 105 74.6025Z" fill="#0B0B0B"/>
<path d="M92.5 107.103H67.5C58.9 107.103 53.125 101.328 53.125 92.7275V87.7275C53.125 86.7025 53.975 85.8525 55 85.8525C56.025 85.8525 56.875 86.7025 56.875 87.7275V92.7275C56.875 99.1775 61.05 103.353 67.5 103.353H92.5C98.95 103.353 103.125 99.1775 103.125 92.7275V87.7275C103.125 86.7025 103.975 85.8525 105 85.8525C106.025 85.8525 106.875 86.7025 106.875 87.7275V92.7275C106.875 101.328 101.1 107.103 92.5 107.103Z" fill="#0B0B0B"/>
<path d="M91.0004 70.751L81.6004 65.676C80.6004 65.151 79.4254 65.151 78.4254 65.676L69.0004 70.751C68.3254 71.126 67.9004 71.851 67.9004 72.651C67.9004 73.476 68.3254 74.201 69.0004 74.576L78.4004 79.651C78.9004 79.926 79.4504 80.051 80.0004 80.051C80.5504 80.051 81.1004 79.926 81.6004 79.651L91.0004 74.576C91.6754 74.201 92.1004 73.476 92.1004 72.651C92.1004 71.851 91.6754 71.126 91.0004 70.751Z" fill="#0B0B0B"/>
<path d="M76.85 81.4007L68.1 77.0257C67.425 76.7007 66.65 76.7257 66 77.1257C65.375 77.5257 65 78.2007 65 78.9507V87.2257C65 88.6507 65.8 89.9507 67.075 90.5757L75.825 94.9507C76.125 95.1007 76.45 95.1757 76.8 95.1757C77.2 95.1757 77.575 95.0757 77.925 94.8507C78.575 94.4507 78.95 93.7757 78.95 93.0257V84.7507C78.925 83.3257 78.15 82.0507 76.85 81.4007Z" fill="#0B0B0B"/>
<path d="M93.9758 77.1257C93.3258 76.7257 92.5508 76.7007 91.8758 77.0257L83.1258 81.4007C81.8508 82.0507 81.0508 83.3257 81.0508 84.7507V93.0257C81.0508 93.7757 81.4258 94.4507 82.0758 94.8507C82.4258 95.0757 82.8008 95.1757 83.2008 95.1757C83.5258 95.1757 83.8508 95.1007 84.1758 94.9507L92.9258 90.5757C94.2008 89.9257 95.0008 88.6507 95.0008 87.2257V78.9507C95.0008 78.2007 94.6258 77.5257 93.9758 77.1257Z" fill="#0B0B0B"/>
</svg>
