<svg width="15" height="14" viewBox="0 0 15 14" fill="none" xmlns="http://www.w3.org/2000/svg">
<path d="M6.63747 1.09375L7.32497 0.40625C7.63747 0.125 8.10622 0.125 8.38747 0.40625L14.4812 6.46875C14.7625 6.78125 14.7625 7.25 14.4812 7.53125L8.38747 13.625C8.10622 13.9062 7.63747 13.9062 7.32497 13.625L6.63747 12.9375C6.35622 12.625 6.35622 12.1562 6.63747 11.8438L10.4187 8.25H1.44997C1.01247 8.25 0.69997 7.9375 0.69997 7.5V6.5C0.69997 6.09375 1.01247 5.75 1.44997 5.75H10.4187L6.63747 2.1875C6.35622 1.875 6.32497 1.40625 6.63747 1.09375Z" fill="#B7AB98"/>
</svg>
