<svg width="111" height="64" viewBox="0 0 111 64" fill="none" xmlns="http://www.w3.org/2000/svg">
<g filter="url(#filter0_d_1_319)">
<rect x="10.5293" y="10.5" width="89.73" height="43.19" rx="21.595" fill="white" shape-rendering="crispEdges"/>
<g clip-path="url(#clip0_1_319)">
<g clip-path="url(#clip1_1_319)">
<g clip-path="url(#clip2_1_319)">
<mask id="mask0_1_319" style="mask-type:luminance" maskUnits="userSpaceOnUse" x="30" y="20" width="25" height="25">
<path d="M54.5293 20.09H30.5293V44.0898H54.5293V20.09Z" fill="white"/>
</mask>
<g mask="url(#mask0_1_319)">
<mask id="mask1_1_319" style="mask-type:luminance" maskUnits="userSpaceOnUse" x="30" y="20" width="25" height="25">
<path d="M30.5273 20.1173H54.4979V44.0877H30.5273V20.1173Z" fill="white"/>
</mask>
<g mask="url(#mask1_1_319)">
<path d="M54.0466 31.0351L43.5806 20.5699C43.4372 20.4264 43.2669 20.3126 43.0796 20.235C42.8922 20.1573 42.6914 20.1173 42.4886 20.1173C42.2857 20.1173 42.0849 20.1573 41.8975 20.235C41.7102 20.3126 41.5399 20.4264 41.3966 20.5699L39.224 22.7434L41.9804 25.4997C42.3044 25.3897 42.6528 25.3725 42.9861 25.4501C43.3195 25.5278 43.6244 25.6971 43.8665 25.939C44.1099 26.1827 44.2798 26.49 44.3568 26.8257C44.4338 27.1614 44.4148 27.512 44.3019 27.8374L46.9593 30.494C47.2848 30.381 47.6356 30.362 47.9714 30.4391C48.3072 30.5163 48.6144 30.6865 48.8579 30.9302C49.0285 31.1008 49.1638 31.3032 49.2561 31.5261C49.3485 31.7489 49.396 31.9877 49.396 32.2289C49.396 32.4702 49.3485 32.709 49.2561 32.9318C49.1638 33.1547 49.0285 33.3571 48.8579 33.5277C48.5131 33.8722 48.0456 34.0657 47.5582 34.0657C47.0707 34.0657 46.6032 33.8722 46.2584 33.5277C46.0022 33.2711 45.8277 32.9444 45.7567 32.5889C45.6858 32.2333 45.7217 31.8647 45.8598 31.5294L43.3815 29.052V35.5729C43.6431 35.7021 43.8701 35.8918 44.0438 36.1262C44.2175 36.3606 44.3328 36.633 44.3802 36.9209C44.4277 37.2088 44.4058 37.5038 44.3165 37.7816C44.2272 38.0593 44.073 38.3118 43.8667 38.5181C43.6962 38.6886 43.4937 38.824 43.2709 38.9163C43.048 39.0086 42.8092 39.0561 42.568 39.0561C42.3268 39.0561 42.0879 39.0086 41.8651 38.9163C41.6423 38.824 41.4398 38.6886 41.2692 38.5181C41.0986 38.3475 40.9633 38.145 40.871 37.9222C40.7786 37.6993 40.7311 37.4604 40.7311 37.2192C40.7311 36.978 40.7786 36.7391 40.871 36.5162C40.9633 36.2934 41.0986 36.0909 41.2692 35.9204C41.4411 35.7481 41.6454 35.6117 41.8703 35.5189V28.938C41.6463 28.8457 41.4428 28.7101 41.2714 28.539C41.0999 28.3678 40.964 28.1645 40.8714 27.9406C40.7788 27.7168 40.7314 27.4769 40.7318 27.2347C40.7322 26.9924 40.7804 26.7526 40.8738 26.5291L38.156 23.8109L30.979 30.986C30.6898 31.2758 30.5273 31.6685 30.5273 32.0779C30.5273 32.4873 30.6898 32.88 30.979 33.1698L41.4456 43.6363C41.7354 43.9254 42.128 44.0878 42.5373 44.0878C42.9467 44.0878 43.3393 43.9254 43.6291 43.6363L54.0466 33.2188C54.3359 32.929 54.4983 32.5364 54.4983 32.1269C54.4983 31.7175 54.3359 31.3249 54.0466 31.0351Z" fill="#F03C2E"/>
</g>
</g>
</g>
</g>
</g>
<path d="M71.1954 32.1484C71.1954 34.8213 69.6163 36.4141 66.9435 36.4141C64.1202 36.4141 62.3429 34.4385 62.3429 31.2734C62.3429 28.1631 64.1134 26.2217 66.9229 26.2217C69.1173 26.2217 70.7784 27.5205 71.1202 29.4893H69.5479C69.1788 28.2656 68.2149 27.5615 66.9298 27.5615C65.0431 27.5615 63.9083 28.9424 63.9083 31.2598C63.9083 33.6182 65.0772 35.0742 66.9571 35.0742C68.5567 35.0742 69.6642 34.0488 69.6847 32.5518V32.3809H67.1349V31.1436H71.1954V32.1484ZM72.5626 36.25V29.0586H74.0392V36.25H72.5626ZM73.3009 28.0059C72.8292 28.0059 72.4464 27.6299 72.4464 27.165C72.4464 26.6934 72.8292 26.3174 73.3009 26.3174C73.7794 26.3174 74.1622 26.6934 74.1622 27.165C74.1622 27.6299 73.7794 28.0059 73.3009 28.0059ZM75.9806 27.3564H77.464V29.0586H78.8311V30.2275H77.464V34.1924C77.464 34.8145 77.7374 35.0947 78.339 35.0947C78.4894 35.0947 78.7286 35.0811 78.8243 35.0605V36.2295C78.6602 36.2705 78.3321 36.2979 78.004 36.2979C76.5479 36.2979 75.9806 35.7441 75.9806 34.3564V30.2275H74.9347V29.0586H75.9806V27.3564Z" fill="black"/>
</g>
<defs>
<filter id="filter0_d_1_319" x="0.529297" y="0.5" width="109.73" height="63.19" filterUnits="userSpaceOnUse" color-interpolation-filters="sRGB">
<feFlood flood-opacity="0" result="BackgroundImageFix"/>
<feColorMatrix in="SourceAlpha" type="matrix" values="0 0 0 0 0 0 0 0 0 0 0 0 0 0 0 0 0 0 127 0" result="hardAlpha"/>
<feOffset/>
<feGaussianBlur stdDeviation="5"/>
<feComposite in2="hardAlpha" operator="out"/>
<feColorMatrix type="matrix" values="0 0 0 0 0 0 0 0 0 0 0 0 0 0 0 0 0 0 0.05 0"/>
<feBlend mode="normal" in2="BackgroundImageFix" result="effect1_dropShadow_1_319"/>
<feBlend mode="normal" in="SourceGraphic" in2="effect1_dropShadow_1_319" result="shape"/>
</filter>
<clipPath id="clip0_1_319">
<rect width="24" height="24" fill="white" transform="translate(30.5293 20.09)"/>
</clipPath>
<clipPath id="clip1_1_319">
<rect width="24" height="24" fill="white" transform="translate(30.5293 20.09)"/>
</clipPath>
<clipPath id="clip2_1_319">
<rect width="24" height="24" fill="white" transform="translate(30.5293 20.09)"/>
</clipPath>
</defs>
</svg>
