<svg width="139" height="65" viewBox="0 0 139 65" fill="none" xmlns="http://www.w3.org/2000/svg">
<g filter="url(#filter0_d_1_333)">
<rect x="10.2598" y="10" width="118.19" height="44.19" rx="22.095" fill="white" shape-rendering="crispEdges"/>
<g clip-path="url(#clip0_1_333)">
<g clip-path="url(#clip1_1_333)">
<g clip-path="url(#clip2_1_333)">
<mask id="mask0_1_333" style="mask-type:luminance" maskUnits="userSpaceOnUse" x="30" y="20" width="25" height="25">
<path d="M54.2598 20.1316H30.2598V44.1316H54.2598V20.1316Z" fill="white"/>
</mask>
<g mask="url(#mask0_1_333)">
<path fill-rule="evenodd" clip-rule="evenodd" d="M42.2677 20.3267C35.6258 20.3267 30.2577 25.7348 30.2577 32.43C30.2577 37.7781 33.6986 42.3061 38.4733 43.9132C39.0668 44.0332 39.2868 43.6531 39.2868 43.333C39.2868 43.0529 39.2668 42.0927 39.2668 41.0857C35.9259 41.8059 35.2324 39.6453 35.2324 39.6453C34.6922 38.2449 33.8987 37.8848 33.8987 37.8848C32.8051 37.1446 33.9787 37.1446 33.9787 37.1446C35.1924 37.2247 35.8259 38.385 35.8259 38.385C36.8995 40.2255 38.6333 39.7053 39.3269 39.3852C39.4269 38.605 39.747 38.0649 40.0804 37.7648C37.413 37.4847 34.6122 36.4444 34.6122 31.7965C34.6122 30.4761 35.0924 29.3892 35.8459 28.5489C35.7259 28.2489 35.3057 27.0085 35.9659 25.3414C35.9659 25.3414 36.9795 25.0213 39.2668 26.5817C40.2471 26.315 41.2541 26.1816 42.2677 26.1816C43.2813 26.1816 44.3149 26.3217 45.2685 26.5817C47.5558 25.0213 48.5694 25.3414 48.5694 25.3414C49.2229 27.0018 48.8095 28.2489 48.6895 28.5489C49.463 29.3892 49.9231 30.4695 49.9231 31.7965C49.9231 36.4444 47.1157 37.4647 44.435 37.7648C44.8751 38.1449 45.2485 38.8651 45.2485 40.0121C45.2485 41.6325 45.2285 42.9396 45.2285 43.3397C45.2285 43.6598 45.4486 44.0399 46.0421 43.9198C50.8167 42.3194 54.2577 37.7915 54.2577 32.4367C54.2777 25.7415 48.8895 20.3333 42.261 20.3333L42.2677 20.3267Z" fill="#24292F"/>
</g>
</g>
</g>
</g>
<path d="M72.3947 32.1484C72.3947 34.8213 70.8156 36.4141 68.1428 36.4141C65.3195 36.4141 63.5422 34.4385 63.5422 31.2734C63.5422 28.1631 65.3127 26.2217 68.1222 26.2217C70.3166 26.2217 71.9777 27.5205 72.3195 29.4893H70.7472C70.3781 28.2656 69.4142 27.5615 68.1291 27.5615C66.2424 27.5615 65.1076 28.9424 65.1076 31.2598C65.1076 33.6182 66.2765 35.0742 68.1564 35.0742C69.756 35.0742 70.8635 34.0488 70.884 32.5518V32.3809H68.3342V31.1436H72.3947V32.1484ZM73.7619 36.25V29.0586H75.2385V36.25H73.7619ZM74.5002 28.0059C74.0285 28.0059 73.6457 27.6299 73.6457 27.165C73.6457 26.6934 74.0285 26.3174 74.5002 26.3174C74.9787 26.3174 75.3615 26.6934 75.3615 27.165C75.3615 27.6299 74.9787 28.0059 74.5002 28.0059ZM77.1799 27.3564H78.6633V29.0586H80.0305V30.2275H78.6633V34.1924C78.6633 34.8145 78.9367 35.0947 79.5383 35.0947C79.6887 35.0947 79.9279 35.0811 80.0236 35.0605V36.2295C79.8596 36.2705 79.5314 36.2979 79.2033 36.2979C77.7472 36.2979 77.1799 35.7441 77.1799 34.3564V30.2275H76.134V29.0586H77.1799V27.3564ZM89.5529 36.25H88.0217V31.8818H82.9562V36.25H81.425V26.3857H82.9562V30.5557H88.0217V26.3857H89.5529V36.25ZM97.3527 29.0586V36.25H95.9377V35.0332H95.9035C95.507 35.8945 94.7756 36.3799 93.675 36.3799C92.1096 36.3799 91.1525 35.3613 91.1525 33.7139V29.0586H92.6291V33.4268C92.6291 34.5205 93.1486 35.1084 94.1672 35.1084C95.2336 35.1084 95.8762 34.3701 95.8762 33.249V29.0586H97.3527ZM102.644 36.373C101.591 36.373 100.778 35.8604 100.333 35.0264H100.306V36.25H98.8703V26.3857H100.347V30.2822H100.381C100.812 29.4482 101.632 28.9424 102.651 28.9424C104.462 28.9424 105.645 30.3779 105.645 32.6543C105.645 34.9375 104.469 36.373 102.644 36.373ZM102.247 30.1865C101.126 30.1865 100.34 31.1709 100.34 32.6543C100.34 34.1514 101.126 35.1221 102.247 35.1221C103.409 35.1221 104.127 34.1787 104.127 32.6543C104.127 31.1436 103.409 30.1865 102.247 30.1865Z" fill="black"/>
</g>
<defs>
<filter id="filter0_d_1_333" x="0.259766" y="0" width="138.19" height="64.19" filterUnits="userSpaceOnUse" color-interpolation-filters="sRGB">
<feFlood flood-opacity="0" result="BackgroundImageFix"/>
<feColorMatrix in="SourceAlpha" type="matrix" values="0 0 0 0 0 0 0 0 0 0 0 0 0 0 0 0 0 0 127 0" result="hardAlpha"/>
<feOffset/>
<feGaussianBlur stdDeviation="5"/>
<feComposite in2="hardAlpha" operator="out"/>
<feColorMatrix type="matrix" values="0 0 0 0 0 0 0 0 0 0 0 0 0 0 0 0 0 0 0.05 0"/>
<feBlend mode="normal" in2="BackgroundImageFix" result="effect1_dropShadow_1_333"/>
<feBlend mode="normal" in="SourceGraphic" in2="effect1_dropShadow_1_333" result="shape"/>
</filter>
<clipPath id="clip0_1_333">
<rect width="24" height="25" fill="white" transform="translate(30.2598 19.59)"/>
</clipPath>
<clipPath id="clip1_1_333">
<rect width="24" height="25" fill="white" transform="translate(30.2598 19.59)"/>
</clipPath>
<clipPath id="clip2_1_333">
<rect width="24" height="25" fill="white" transform="translate(30.2598 19.59)"/>
</clipPath>
</defs>
</svg>
