<svg width="152" height="65" viewBox="0 0 152 65" fill="none" xmlns="http://www.w3.org/2000/svg">
<g filter="url(#filter0_d_1_287)">
<rect x="10.3887" y="10" width="131.52" height="44.19" rx="22.095" fill="white" shape-rendering="crispEdges"/>
<g clip-path="url(#clip0_1_287)">
<g clip-path="url(#clip1_1_287)">
<g clip-path="url(#clip2_1_287)">
<mask id="mask0_1_287" style="mask-type:luminance" maskUnits="userSpaceOnUse" x="30" y="20" width="25" height="25">
<path d="M54.3887 20.2526H30.3887V44.2526H54.3887V20.2526Z" fill="white"/>
</mask>
<g mask="url(#mask0_1_287)">
<path fill-rule="evenodd" clip-rule="evenodd" d="M42.0679 21.8048L51.1161 27.0288V37.4768L42.0679 42.7008L33.0195 37.4768V27.0288L42.0679 21.8048ZM34.0348 27.615V35.2893L40.681 23.7778L34.0348 27.615ZM42.0679 23.4062L34.4064 36.6761H49.7293L42.0679 23.4062ZM48.7141 37.6913H35.4216L42.0679 41.5285L48.7141 37.6913ZM50.1009 35.2893L43.4547 23.7778L50.1009 27.615V35.2893Z" fill="#E10098"/>
<path d="M42.0699 24.529C43.2508 24.529 44.2082 23.5717 44.2082 22.3908C44.2082 21.2099 43.2508 20.2526 42.0699 20.2526C40.889 20.2526 39.9316 21.2099 39.9316 22.3908C39.9316 23.5717 40.889 24.529 42.0699 24.529Z" fill="#E10098"/>
<path d="M50.609 29.4602C51.7899 29.4602 52.7472 28.5029 52.7472 27.322C52.7472 26.1411 51.7899 25.1837 50.609 25.1837C49.4281 25.1837 48.4707 26.1411 48.4707 27.322C48.4707 28.5029 49.4281 29.4602 50.609 29.4602Z" fill="#E10098"/>
<path d="M50.609 39.322C51.7899 39.322 52.7472 38.3647 52.7472 37.1838C52.7472 36.0029 51.7899 35.0456 50.609 35.0456C49.4281 35.0456 48.4707 36.0029 48.4707 37.1838C48.4707 38.3647 49.4281 39.322 50.609 39.322Z" fill="#E10098"/>
<path d="M42.0699 44.2527C43.2508 44.2527 44.2082 43.2954 44.2082 42.1145C44.2082 40.9335 43.2508 39.9762 42.0699 39.9762C40.889 39.9762 39.9316 40.9335 39.9316 42.1145C39.9316 43.2954 40.889 44.2527 42.0699 44.2527Z" fill="#E10098"/>
<path d="M33.5269 39.322C34.7078 39.322 35.6652 38.3647 35.6652 37.1838C35.6652 36.0029 34.7078 35.0456 33.5269 35.0456C32.346 35.0456 31.3887 36.0029 31.3887 37.1838C31.3887 38.3647 32.346 39.322 33.5269 39.322Z" fill="#E10098"/>
<path d="M33.5269 29.4602C34.7078 29.4602 35.6652 28.5029 35.6652 27.322C35.6652 26.1411 34.7078 25.1837 33.5269 25.1837C32.346 25.1837 31.3887 26.1411 31.3887 27.322C31.3887 28.5029 32.346 29.4602 33.5269 29.4602Z" fill="#E10098"/>
</g>
</g>
</g>
</g>
<path d="M73.1596 32.1484C73.1596 34.8213 71.5805 36.4141 68.9077 36.4141C66.0844 36.4141 64.3071 34.4385 64.3071 31.2734C64.3071 28.1631 66.0776 26.2217 68.8872 26.2217C71.0815 26.2217 72.7426 27.5205 73.0844 29.4893H71.5122C71.143 28.2656 70.1792 27.5615 68.894 27.5615C67.0073 27.5615 65.8725 28.9424 65.8725 31.2598C65.8725 33.6182 67.0415 35.0742 68.9214 35.0742C70.521 35.0742 71.6284 34.0488 71.6489 32.5518V32.3809H69.0991V31.1436H73.1596V32.1484ZM74.479 36.25V29.0586H75.8872V30.2822H75.9214C76.1606 29.4414 76.8032 28.9424 77.6509 28.9424C77.8628 28.9424 78.0473 28.9766 78.1567 28.9971V30.3711C78.0405 30.3232 77.7807 30.2891 77.4936 30.2891C76.5434 30.2891 75.9555 30.9248 75.9555 31.9434V36.25H74.479ZM81.438 35.2041C82.4702 35.2041 83.2768 34.4932 83.2768 33.5566V32.9893L81.5063 33.0986C80.6245 33.1602 80.1255 33.5498 80.1255 34.165C80.1255 34.7939 80.645 35.2041 81.438 35.2041ZM81.0278 36.373C79.6196 36.373 78.6352 35.498 78.6352 34.2061C78.6352 32.9482 79.5991 32.1758 81.3081 32.0801L83.2768 31.9639V31.4102C83.2768 30.6104 82.7368 30.1318 81.8344 30.1318C80.98 30.1318 80.4468 30.542 80.3169 31.1846H78.9223C79.0044 29.8857 80.1118 28.9287 81.8891 28.9287C83.6323 28.9287 84.7466 29.8516 84.7466 31.2939V36.25H83.3315V35.0674H83.2973C82.8803 35.8672 81.9712 36.373 81.0278 36.373ZM89.9282 28.9424C91.7534 28.9424 92.9565 30.3779 92.9565 32.6543C92.9565 34.9307 91.7602 36.373 89.9555 36.373C88.9233 36.373 88.103 35.8672 87.6928 35.0674H87.6587V38.6289H86.1821V29.0586H87.6108V30.2959H87.6382C88.062 29.4688 88.8891 28.9424 89.9282 28.9424ZM89.5385 35.1221C90.7075 35.1221 91.4389 34.165 91.4389 32.6543C91.4389 31.1504 90.7075 30.1865 89.5385 30.1865C88.4106 30.1865 87.6518 31.1709 87.6518 32.6543C87.6518 34.1514 88.4038 35.1221 89.5385 35.1221ZM94.1528 36.25V26.3857H95.6157V30.2617H95.6499C96.0464 29.4209 96.8325 28.9355 97.9262 28.9355C99.5053 28.9355 100.449 29.9883 100.449 31.6152V36.25H98.9653V31.9023C98.9653 30.8428 98.4321 30.207 97.393 30.207C96.2993 30.207 95.6294 30.959 95.6294 32.0938V36.25H94.1528ZM106.321 36.4141C103.477 36.4141 101.7 34.4658 101.7 31.3213C101.7 28.1904 103.477 26.2217 106.321 26.2217C109.158 26.2217 110.942 28.1904 110.942 31.3213C110.942 33.167 110.327 34.6162 109.226 35.4707L110.511 37.2959H108.912L108.071 36.1201C107.544 36.3184 106.957 36.4141 106.321 36.4141ZM106.321 35.0742C106.649 35.0742 106.957 35.0264 107.244 34.9375L106.068 33.2764H107.62L108.317 34.2197C108.987 33.5977 109.37 32.5928 109.37 31.3213C109.37 29.0176 108.194 27.5615 106.321 27.5615C104.448 27.5615 103.265 29.0176 103.265 31.3213C103.265 33.6182 104.448 35.0742 106.321 35.0742ZM118.53 34.9238V36.25H112.405V26.3857H113.936V34.9238H118.53Z" fill="black"/>
</g>
<defs>
<filter id="filter0_d_1_287" x="0.388672" y="0" width="151.52" height="64.19" filterUnits="userSpaceOnUse" color-interpolation-filters="sRGB">
<feFlood flood-opacity="0" result="BackgroundImageFix"/>
<feColorMatrix in="SourceAlpha" type="matrix" values="0 0 0 0 0 0 0 0 0 0 0 0 0 0 0 0 0 0 127 0" result="hardAlpha"/>
<feOffset/>
<feGaussianBlur stdDeviation="5"/>
<feComposite in2="hardAlpha" operator="out"/>
<feColorMatrix type="matrix" values="0 0 0 0 0 0 0 0 0 0 0 0 0 0 0 0 0 0 0.05 0"/>
<feBlend mode="normal" in2="BackgroundImageFix" result="effect1_dropShadow_1_287"/>
<feBlend mode="normal" in="SourceGraphic" in2="effect1_dropShadow_1_287" result="shape"/>
</filter>
<clipPath id="clip0_1_287">
<rect width="24" height="25" fill="white" transform="translate(30.3887 19.59)"/>
</clipPath>
<clipPath id="clip1_1_287">
<rect width="24" height="25" fill="white" transform="translate(30.3887 19.59)"/>
</clipPath>
<clipPath id="clip2_1_287">
<rect width="24" height="25" fill="white" transform="translate(30.3887 19.59)"/>
</clipPath>
</defs>
</svg>
