<svg width="30" height="30" viewBox="0 0 30 30" fill="none" xmlns="http://www.w3.org/2000/svg">
<path d="M12.5597 23.4981L12.5598 23.4984C12.8449 24.918 13.449 26.2543 14.3265 27.406C14.9148 28.1782 15.6157 28.8539 16.4034 29.4117C15.9358 29.4617 15.466 29.4911 14.9954 29.5C12.1292 29.4991 9.32747 28.6487 6.94424 27.0563C4.55973 25.463 2.70122 23.1984 1.60375 20.5489C0.506283 17.8994 0.219135 14.9839 0.77862 12.1712C1.33811 9.35847 2.7191 6.77482 4.74696 4.74696C6.77482 2.7191 9.35847 1.33811 12.1712 0.77862C14.9839 0.219135 17.8994 0.506283 20.5489 1.60375C23.1984 2.70122 25.463 4.55973 27.0563 6.94424C28.6483 9.32689 29.4987 12.1278 29.5 14.9933C29.487 15.4715 29.4548 15.9488 29.4035 16.4241C28.8375 15.6408 28.1579 14.9427 27.3851 14.3539C26.2466 13.4865 24.9332 12.8771 23.5359 12.5679C22.6851 12.2745 21.8064 12.0688 20.9137 11.9541L20.35 11.8816V12.4414C19.6225 12.5025 18.9085 12.6719 18.2316 12.9438C18.1959 12.6387 18.1851 12.3308 18.1995 12.0233L18.2208 11.5664L17.7676 11.5046C16.7984 11.3724 15.82 11.3207 14.8424 11.35C14.298 11.3504 13.7949 11.3893 13.3289 11.4266L13.2827 11.4303C12.8269 11.4668 12.4122 11.5 12 11.5H11.5661L11.505 11.9295C11.3671 12.8987 11.3096 13.8776 11.3333 14.8562C11.3336 15.4011 11.3726 15.9047 11.4099 16.3711L11.4136 16.4173C11.4501 16.8731 11.4833 17.2878 11.4833 17.7V18.098L11.8712 18.1873C12.2308 18.27 12.5962 18.3226 12.9637 18.3447C12.7637 19.0033 12.6015 19.6728 12.478 20.35H12.45H11.8579L11.9571 20.9337C12.036 21.3985 12.1534 21.8668 12.266 22.3006C12.2822 22.3629 12.2982 22.4243 12.314 22.4848C12.4104 22.8541 12.4983 23.1912 12.5597 23.4981ZM26.0566 11.2611L27.1105 11.7032L26.7199 10.6291C25.4678 7.1859 22.8076 4.53347 19.2322 3.13438L18.1318 2.70379L18.5889 3.79344C19.3347 5.57097 19.8276 7.44423 20.0534 9.35858L20.0997 9.75035L20.4914 9.79656C22.4058 10.0224 24.279 10.5153 26.0566 11.2611ZM17.4769 9.64464L18.169 9.74685L18.0416 9.05896C17.6614 7.00564 17.1638 5.42701 16.6739 4.34935C16.43 3.81278 16.1803 3.38309 15.9362 3.07864C15.8144 2.92673 15.6827 2.79177 15.5412 2.69093C15.404 2.59318 15.2186 2.50001 15 2.50001C14.7815 2.50001 14.596 2.59318 14.4588 2.69093C14.3173 2.79177 14.1856 2.92673 14.0638 3.07864C13.8197 3.38309 13.57 3.81278 13.3261 4.34935C12.8362 5.42701 12.3386 7.00564 11.9584 9.05896L11.831 9.74685L12.5231 9.64464C13.338 9.52428 14.162 9.47581 14.9854 9.49979L15 9.50022L15.0146 9.49979C15.838 9.47581 16.662 9.52428 17.4769 9.64464ZM9.64464 12.5231L9.74685 11.831L9.05896 11.9584C7.00564 12.3386 5.42701 12.8362 4.34935 13.3261C3.81278 13.57 3.38309 13.8197 3.07864 14.0638C2.92673 14.1856 2.79177 14.3173 2.69093 14.4588C2.59318 14.596 2.50001 14.7815 2.50001 15C2.50001 15.2186 2.59318 15.404 2.69093 15.5412C2.79177 15.6827 2.92673 15.8144 3.07864 15.9362C3.38309 16.1803 3.81278 16.43 4.34935 16.6739C5.42701 17.1638 7.00564 17.6614 9.05896 18.0416L9.74685 18.169L9.64464 17.4769C9.52428 16.662 9.47581 15.838 9.49979 15.0146L9.50022 15L9.49979 14.9854C9.47581 14.162 9.52428 13.338 9.64464 12.5231ZM3.94344 18.7389L2.88953 18.2968L3.28011 19.3709C4.53219 22.8141 7.19237 25.4665 10.7678 26.8656L11.8682 27.2962L11.4111 26.2066C10.6653 24.429 10.1724 22.5558 9.94656 20.6414L9.90035 20.2497L9.50858 20.2034C7.59423 19.9776 5.72097 19.4847 3.94344 18.7389ZM9.50858 9.94656L9.89486 9.901L9.94571 9.51537C10.1972 7.60813 10.6417 5.73136 11.2724 3.91392L11.6157 2.92454L10.6305 3.27962C8.91809 3.89678 7.36725 4.89284 6.09379 6.1934C4.82032 7.49395 3.85714 9.06541 3.27616 10.7904L2.92293 11.8392L3.94344 11.4111C5.72097 10.6653 7.59423 10.1724 9.50858 9.94656Z" fill="#DCA629" stroke="#1D1D1D"/>
<path d="M27.0228 25.0902L26.8187 25.4258L27.0964 25.7036L29.1964 27.8036L29.1963 27.8037L29.2052 27.8121C29.2983 27.9008 29.3725 28.0075 29.4232 28.1258C29.4739 28.244 29.5 28.3713 29.5 28.5C29.5 28.6287 29.4739 28.756 29.4232 28.8742C29.3725 28.9925 29.2983 29.0992 29.2052 29.1879L29.1963 29.1963L29.1879 29.2052C29.0992 29.2983 28.9925 29.3725 28.8742 29.4232C28.756 29.4739 28.6287 29.5 28.5 29.5C28.3713 29.5 28.244 29.4739 28.1258 29.4232C28.0075 29.3725 27.9008 29.2983 27.8121 29.2052L27.8122 29.2051L27.8036 29.1964L25.7036 27.0964L25.4258 26.8187L25.0902 27.0228C24.0803 27.6369 22.9264 27.974 21.7447 28C20.5104 27.999 19.304 27.6325 18.2777 26.9467C17.2499 26.2599 16.4488 25.2838 15.9758 24.1418C15.5027 22.9997 15.3789 21.7431 15.6201 20.5307C15.8613 19.3183 16.4565 18.2047 17.3306 17.3306C18.2047 16.4565 19.3183 15.8613 20.5307 15.6201C21.7431 15.3789 22.9997 15.5027 24.1418 15.9758C25.2838 16.4488 26.2599 17.2499 26.9467 18.2777C27.6325 19.304 27.999 20.5104 28 21.7447C27.974 22.9264 27.6369 24.0803 27.0228 25.0902ZM19.3888 25.2837C20.0871 25.7503 20.9078 25.9995 21.7475 26C22.307 26.0052 22.8619 25.899 23.3799 25.6874C23.8986 25.4756 24.3699 25.1623 24.7661 24.7661C25.1623 24.3699 25.4756 23.8986 25.6874 23.3799C25.899 22.8619 26.0052 22.307 26 21.7475C25.9995 20.9078 25.7503 20.0871 25.2837 19.3888C24.8168 18.6899 24.153 18.1452 23.3764 17.8235C22.5998 17.5018 21.7453 17.4177 20.9209 17.5817C20.0964 17.7457 19.3392 18.1504 18.7448 18.7448C18.1504 19.3392 17.7457 20.0964 17.5817 20.9209C17.4177 21.7453 17.5018 22.5998 17.8235 23.3764C18.1452 24.153 18.6899 24.8168 19.3888 25.2837Z" fill="#DCA629" stroke="#1D1D1D"/>
</svg>
