<svg width="34" height="28" viewBox="0 0 34 28" fill="none" xmlns="http://www.w3.org/2000/svg">
<path d="M32.0833 9.33333H30.1058C28.1283 3.73333 22.89 0 16.9167 0C10.9433 0 5.705 3.73333 3.7275 9.33333H1.75C0.7875 9.33333 0 10.1208 0 11.0833V16.9167C0 17.8792 0.7875 18.6667 1.75 18.6667H3.7275C5.705 24.2667 10.9433 28 16.9167 28C22.89 28 28.1283 24.2667 30.1058 18.6667H32.0833C33.0458 18.6667 33.8333 17.8792 33.8333 16.9167V11.0833C33.8333 10.1208 33.0458 9.33333 32.0833 9.33333ZM22.68 9.33333C22.5633 8.56917 22.4292 7.84 22.2658 7.15167C23.8408 6.83083 25.3458 6.36417 26.7692 5.76917C27.6442 6.81917 28.35 8.015 28.8633 9.33333H22.68ZM16.9167 1.16667C18.41 1.16667 19.8625 3.16167 20.8017 6.23C19.5358 6.4225 18.235 6.52167 16.9167 6.52167C15.5983 6.52167 14.3033 6.4225 13.0317 6.23C13.9708 3.16167 15.4233 1.16667 16.9167 1.16667ZM11.865 6.02583C10.4883 5.75167 9.16417 5.355 7.90417 4.85333C9.60167 3.17917 11.7483 2.00083 14.1225 1.48167C13.2125 2.52 12.4367 4.07167 11.865 6.02583ZM19.7167 1.48167C22.0908 2.00667 24.2375 3.185 25.9292 4.85333C24.675 5.34917 23.345 5.74583 21.9683 6.02583C21.3967 4.07167 20.6208 2.52 19.7108 1.48167H19.7167ZM16.9167 7.68833C18.3342 7.68833 19.74 7.5775 21.1108 7.36167C21.2625 7.98583 21.3908 8.645 21.5017 9.33333H12.3317C12.4425 8.645 12.5708 7.98583 12.7225 7.36167C14.0933 7.5775 15.4992 7.68833 16.9167 7.68833ZM7.06417 5.76917C8.48167 6.36417 9.9925 6.83083 11.5675 7.15167C11.4042 7.84 11.27 8.56917 11.1533 9.33333H4.97C5.48333 8.015 6.195 6.81917 7.06417 5.76917ZM1.16667 16.9167V11.0833C1.16667 10.7625 1.42917 10.5 1.75 10.5H23.3333V17.5H1.75C1.42917 17.5 1.16667 17.2375 1.16667 16.9167ZM16.9167 26.8333C15.4233 26.8333 13.9708 24.8383 13.0317 21.77C14.2975 21.5775 15.5983 21.4783 16.9167 21.4783C18.235 21.4783 19.53 21.5775 20.8017 21.77C19.8625 24.8383 18.41 26.8333 16.9167 26.8333ZM21.9683 21.9742C23.345 22.2483 24.675 22.645 25.9292 23.1467C24.2375 24.8208 22.0908 25.9933 19.7167 26.5183C20.6267 25.48 21.3967 23.9283 21.9683 21.9742ZM14.1167 26.5183C11.7425 25.9933 9.59583 24.815 7.90417 23.1467C9.15833 22.6508 10.4883 22.2542 11.865 21.9742C12.4367 23.9283 13.2125 25.48 14.1225 26.5183H14.1167ZM16.9167 20.3117C15.4992 20.3117 14.0933 20.4225 12.7225 20.6383C12.5708 20.0142 12.4425 19.355 12.3317 18.6667H21.5017C21.3908 19.355 21.2625 20.0142 21.1108 20.6383C19.74 20.4225 18.3342 20.3117 16.9167 20.3117ZM11.1533 18.6667C11.27 19.4308 11.4042 20.16 11.5675 20.8483C9.9925 21.1692 8.4875 21.6358 7.06417 22.2308C6.18917 21.1808 5.48333 19.985 4.97 18.6667H11.1533ZM26.7692 22.2308C25.3517 21.6358 23.8408 21.1692 22.2717 20.8483C22.435 20.16 22.5692 19.4308 22.68 18.6667H28.8633C28.35 19.985 27.6383 21.1808 26.7692 22.2308ZM32.6667 16.9167C32.6667 17.2375 32.4042 17.5 32.0833 17.5H24.5V10.5H32.0833C32.4042 10.5 32.6667 10.7625 32.6667 11.0833V16.9167ZM29.8433 14.4317C29.9775 14.1692 30.0592 13.8833 30.0592 13.5683C30.0592 12.5183 29.2075 11.6667 28.1575 11.6667C27.1075 11.6667 26.2558 12.5183 26.2558 13.5683C26.2558 14.6183 27.1075 15.47 28.1575 15.47C28.4725 15.47 28.7583 15.3883 29.0208 15.2542L29.925 16.1583C30.0417 16.275 30.1875 16.3275 30.3392 16.3275C30.4908 16.3275 30.6367 16.2692 30.7533 16.1583C30.9808 15.9308 30.9808 15.5633 30.7533 15.3358L29.8492 14.4317H29.8433ZM27.4167 13.5683C27.4167 13.16 27.7492 12.8333 28.1517 12.8333C28.5542 12.8333 28.8867 13.1658 28.8867 13.5683C28.8867 13.9708 28.5542 14.3033 28.1517 14.3033C27.7492 14.3033 27.4167 13.9708 27.4167 13.5683Z" fill="#DCA629"/>
</svg>
