<svg width="47" height="26" viewBox="0 0 47 26" fill="none" xmlns="http://www.w3.org/2000/svg">
<path fill-rule="evenodd" clip-rule="evenodd" d="M2.82945 16.6472H6.7144C7.16447 16.6472 7.52993 16.281 7.52993 15.8302C7.52993 15.3813 7.16447 15.0151 6.7144 15.0151H2.82945C2.37938 15.0151 2.01392 15.3813 2.01392 15.8302C2.01392 16.281 2.37938 16.6472 2.82945 16.6472Z" fill="#DCA629"/>
<path fill-rule="evenodd" clip-rule="evenodd" d="M0.815497 21.3229H6.71491C7.16459 21.3229 7.5304 20.9568 7.5304 20.506C7.5304 20.0571 7.16459 19.6909 6.71491 19.6909H0.815497C0.365815 19.6909 0 20.0571 0 20.506C0 20.9568 0.365815 21.3229 0.815497 21.3229Z" fill="#DCA629"/>
<path fill-rule="evenodd" clip-rule="evenodd" d="M26.7169 15.8301C26.7169 15.3809 26.3512 15.0151 25.9019 15.0151H11.1123C10.6613 15.0151 10.2974 15.3809 10.2974 15.8301V25.1828C10.2974 25.6333 10.6613 25.9978 11.1123 25.9978H25.9019C26.3512 25.9978 26.7169 25.6333 26.7169 25.1828V15.8301ZM25.0869 16.6451V24.3678H11.9273V16.6451H25.0869Z" fill="#DCA629"/>
<path fill-rule="evenodd" clip-rule="evenodd" d="M18.0717 21.1956C18.3368 21.3632 18.6759 21.3632 18.9427 21.1956L26.3375 16.5189C26.6444 16.325 26.7858 15.9518 26.6846 15.6034C26.5833 15.255 26.2652 15.0149 25.902 15.0149H11.1123C10.7492 15.0149 10.4294 15.255 10.3298 15.6034C10.2285 15.9518 10.3699 16.325 10.6768 16.5189L18.0717 21.1956ZM18.5072 19.5419L13.926 16.6451H23.0884L18.5072 19.5419Z" fill="#DCA629"/>
<path fill-rule="evenodd" clip-rule="evenodd" d="M2.82945 26.0002H6.7144C7.16447 26.0002 7.52993 25.634 7.52993 25.1833C7.52993 24.7343 7.16447 24.3682 6.7144 24.3682H2.82945C2.37938 24.3682 2.01392 24.7343 2.01392 25.1833C2.01392 25.634 2.37938 26.0002 2.82945 26.0002Z" fill="#DCA629"/>
<path fill-rule="evenodd" clip-rule="evenodd" d="M22.9239 15.6401C22.7216 14.7929 22.6146 13.9078 22.6146 12.9997C22.6146 6.72524 27.7079 1.63031 33.9824 1.63031C40.2569 1.63031 45.3518 6.72524 45.3518 12.9997C45.3518 19.2726 40.2569 24.3675 33.9824 24.3675C31.0903 24.3675 28.4499 23.285 26.4428 21.5034C26.1056 21.204 25.5907 21.2352 25.2912 21.5724C24.9935 21.9081 25.0231 22.4246 25.3603 22.7224C27.6553 24.7591 30.6757 25.9978 33.9824 25.9978C41.1568 25.9978 46.9821 20.1725 46.9821 12.9997C46.9821 5.82536 41.1568 0 33.9824 0C26.8097 0 20.9843 5.82536 20.9843 12.9997C20.9843 14.0378 21.1077 15.0496 21.338 16.0185C21.4417 16.4561 21.8826 16.7276 22.3202 16.6223C22.7578 16.5186 23.0276 16.0777 22.9239 15.6401Z" fill="#DCA629"/>
<path fill-rule="evenodd" clip-rule="evenodd" d="M25.4801 22.8299C27.7608 24.8041 30.7327 25.9991 33.9817 25.9991C37.3922 25.9991 40.4977 24.6835 42.8192 22.53C42.9854 22.3767 43.08 22.1599 43.08 21.9333C43.08 21.7067 42.9854 21.4899 42.8192 21.335C40.4977 19.1831 37.3922 17.8659 33.9817 17.8659C30.7327 17.8659 27.7608 19.0608 25.4801 21.035C25.41 21.0954 25.3269 21.1867 25.2633 21.3285C25.2291 21.4051 25.1704 21.6676 25.1704 21.9333C25.1704 22.199 25.2291 22.4599 25.2633 22.5365C25.3269 22.6783 25.41 22.7696 25.4801 22.8299ZM26.9522 21.9333C28.8889 20.4074 31.3294 19.4961 33.9817 19.4961C36.6357 19.4961 39.0762 20.4074 41.0113 21.9333C39.0762 23.4576 36.6357 24.3688 33.9817 24.3688C31.3294 24.3688 28.8889 23.4592 26.9522 21.9333ZM24.5868 4.02208C24.2852 4.33671 24.2852 4.83392 24.5868 5.14855C26.9539 7.62486 30.2893 9.16868 33.9817 9.16868C37.6758 9.16868 41.0112 7.62486 43.3783 5.14855C43.6799 4.83392 43.6799 4.33671 43.3783 4.02208C41.0112 1.54578 37.6758 0.00195312 33.9817 0.00195312C30.2893 0.00195312 26.9539 1.54578 24.5868 4.02208ZM26.3425 4.58448C28.3608 2.75049 31.0425 1.63217 33.9817 1.63217C36.9227 1.63217 39.6027 2.75049 41.6226 4.58448C39.6027 6.41848 36.9227 7.53846 33.9817 7.53846C31.0425 7.53846 28.3608 6.41848 26.3425 4.58448Z" fill="#DCA629"/>
<path fill-rule="evenodd" clip-rule="evenodd" d="M33.9824 0C32.4494 0 30.9885 0.968962 29.8387 2.72102C28.316 5.04064 27.3033 8.77835 27.3033 12.9997C27.3033 17.2195 28.316 20.9572 29.8387 23.2784C30.9885 25.0289 32.4494 25.9978 33.9824 25.9978C35.5154 25.9978 36.9771 25.0289 38.126 23.2784C39.6495 20.9572 40.6615 17.2195 40.6615 12.9997C40.6615 8.77835 39.6495 5.04064 38.126 2.72102C36.9771 0.968962 35.5154 0 33.9824 0ZM33.9824 1.63031C35.0395 1.63031 35.9715 2.40844 36.7633 3.61431C38.1522 5.72994 39.0319 9.15015 39.0319 12.9997C39.0319 16.8477 38.1522 20.2679 36.7633 22.3835C35.9715 23.5894 35.0395 24.3675 33.9824 24.3675C32.9261 24.3675 31.9941 23.5894 31.2015 22.3835C29.8126 20.2679 28.9337 16.8477 28.9337 12.9997C28.9337 9.15015 29.8126 5.72994 31.2015 3.61431C31.9941 2.40844 32.9261 1.63031 33.9824 1.63031Z" fill="#DCA629"/>
<path fill-rule="evenodd" clip-rule="evenodd" d="M33.168 0.816575V25.1835C33.168 25.6334 33.5331 25.9986 33.9831 25.9986C34.433 25.9986 34.7982 25.6334 34.7982 25.1835V0.816575C34.7982 0.366634 34.433 0.00146484 33.9831 0.00146484C33.5331 0.00146484 33.168 0.366634 33.168 0.816575Z" fill="#DCA629"/>
<path fill-rule="evenodd" clip-rule="evenodd" d="M46.1672 12.1846L21.8003 12.1846C21.3504 12.1846 20.9852 12.5497 20.9852 12.9997C20.9852 13.4496 21.3504 13.8148 21.8003 13.8148L46.1672 13.8148C46.6171 13.8148 46.9823 13.4496 46.9823 12.9997C46.9823 12.5497 46.6171 12.1846 46.1672 12.1846Z" fill="#DCA629"/>
</svg>
