<svg width="26" height="30" viewBox="0 0 26 30" fill="none" xmlns="http://www.w3.org/2000/svg">
<path d="M0.0142459 15.3739C0.0142459 23.9922 8.4188 28.3654 12.0228 29.8469L12.151 29.9038C12.4217 30.0321 12.735 30.0321 12.9915 29.9038L13.1197 29.8469C16.7379 28.3654 25.1282 23.9922 25.1282 15.3739V3.83547C25.1282 3.39387 24.8291 3.00926 24.4017 2.90954L12.792 0.0320513C12.6353 -0.0106838 12.4786 -0.0106838 12.3362 0.0320513L0.726497 2.90954C0.299146 3.00926 0 3.39387 0 3.83547M23.2336 15.3739C23.2336 22.7101 15.9259 26.6133 12.5926 28.0093C9.24501 26.6133 1.95157 22.7101 1.95157 15.3739V4.57621L12.5926 1.94088L23.2336 4.57621V15.3739Z" fill="#DCA629"/>
<path d="M12.5498 5.78711C10.4131 5.78711 8.6752 7.525 8.6752 9.66175V10.6162C7.92021 10.7444 7.37891 11.3854 7.37891 12.1404V18.921C7.37891 19.7757 8.07691 20.4737 8.93161 20.4737H16.2678C17.1225 20.4737 17.8205 19.7757 17.8205 18.921V12.1404C17.8205 11.3569 17.2222 10.7016 16.453 10.6019V9.64751C16.4102 7.51076 14.6866 5.78711 12.5498 5.78711ZM12.5498 7.46802C13.7607 7.46802 14.7436 8.45093 14.7436 9.66175V10.5877H10.3704V9.66175C10.3561 8.45093 11.339 7.46802 12.5498 7.46802ZM16.1111 18.7786H9.05982V12.2828H16.1111V18.7786ZM13.9174 13.4224L15.0855 14.5905L13.3191 16.3569L12.151 17.525L10.9829 16.3569L10.0855 15.4595L11.2535 14.2914L12.151 15.1888L13.9174 13.4224Z" fill="#DCA629"/>
</svg>
