<svg width="64" height="64" viewBox="0 0 64 64" fill="none" xmlns="http://www.w3.org/2000/svg">
<rect width="64" height="64" rx="10" fill="#DCA629"/>
<path d="M30.2246 29.0059V33.3125C30.2246 35.2812 30.0254 36.9629 29.627 38.3574C29.2285 39.752 28.6543 40.8945 27.9043 41.7852C27.1543 42.6641 26.2578 43.3145 25.2148 43.7363C24.1719 44.1465 23.0117 44.3516 21.7344 44.3516C20.7148 44.3516 19.7656 44.2227 18.8867 43.9648C18.0078 43.6953 17.2168 43.2852 16.5137 42.7344C15.8223 42.1719 15.2246 41.457 14.7207 40.5898C14.2285 39.7227 13.8477 38.6855 13.5781 37.4785C13.3203 36.2715 13.1914 34.8828 13.1914 33.3125V29.0059C13.1914 27.0371 13.3906 25.3613 13.7891 23.9785C14.1992 22.5957 14.7793 21.4648 15.5293 20.5859C16.2793 19.707 17.1758 19.0684 18.2188 18.6699C19.2617 18.2598 20.4219 18.0547 21.6992 18.0547C22.7305 18.0547 23.6797 18.1836 24.5469 18.4414C25.4258 18.6992 26.2109 19.1035 26.9023 19.6543C27.6055 20.1934 28.2031 20.8965 28.6953 21.7637C29.1875 22.6191 29.5625 23.6504 29.8203 24.8574C30.0898 26.0527 30.2246 27.4355 30.2246 29.0059ZM25.584 33.9453V28.3555C25.584 27.3711 25.5254 26.5156 25.4082 25.7891C25.3027 25.0508 25.1445 24.4238 24.9336 23.9082C24.7227 23.3926 24.459 22.9766 24.1426 22.6602C23.8262 22.332 23.4629 22.0918 23.0527 21.9395C22.6426 21.7871 22.1914 21.7109 21.6992 21.7109C21.0898 21.7109 20.5449 21.834 20.0645 22.0801C19.584 22.3145 19.1797 22.6895 18.8516 23.2051C18.5234 23.7207 18.2715 24.4062 18.0957 25.2617C17.9316 26.1055 17.8496 27.1367 17.8496 28.3555V33.9453C17.8496 34.9297 17.9023 35.791 18.0078 36.5293C18.125 37.2676 18.2891 37.9004 18.5 38.4277C18.7227 38.9551 18.9863 39.3887 19.291 39.7285C19.6074 40.0566 19.9707 40.3027 20.3809 40.4668C20.791 40.6191 21.2422 40.6953 21.7344 40.6953C22.3555 40.6953 22.9004 40.5723 23.3691 40.3262C23.8496 40.0801 24.2539 39.6934 24.582 39.166C24.9102 38.627 25.1562 37.9297 25.3203 37.0742C25.4961 36.207 25.584 35.1641 25.584 33.9453ZM45.7988 18.3359V44H41.1406V23.7676L34.9707 25.8066V22.0449L45.2715 18.3359H45.7988Z" fill="white"/>
</svg>
