<svg width="26" height="26" viewBox="0 0 26 26" fill="none" xmlns="http://www.w3.org/2000/svg">
<path d="M9.33985 13.9375L12.1523 16.75L16.8398 10.1875M24.3398 13C24.3398 14.585 23.5523 15.9875 22.3486 16.835C22.4783 17.576 22.4275 18.3373 22.2006 19.0544C21.9736 19.7716 21.5772 20.4235 21.0448 20.955C20.5134 21.4873 19.8615 21.8838 19.1443 22.1107C18.4271 22.3377 17.6658 22.3884 16.9248 22.2587C16.4926 22.8743 15.9184 23.3767 15.2508 23.7233C14.5833 24.07 13.842 24.2506 13.0898 24.25C11.5048 24.25 10.1023 23.4625 9.25485 22.2587C8.51389 22.3883 7.75261 22.3375 7.03545 22.1106C6.3183 21.8836 5.66637 21.4873 5.13485 20.955C4.6025 20.4235 4.20607 19.7716 3.97912 19.0544C3.75218 18.3373 3.7014 17.576 3.8311 16.835C3.2155 16.4028 2.71312 15.8286 2.3665 15.161C2.01988 14.4934 1.83923 13.7522 1.83985 13C1.83985 11.415 2.62735 10.0125 3.8311 9.165C3.7014 8.42404 3.75218 7.66274 3.97912 6.94556C4.20607 6.22839 4.6025 5.57646 5.13485 5.045C5.66637 4.51274 6.3183 4.11637 7.03545 3.88943C7.75261 3.66249 8.51389 3.61166 9.25485 3.74125C9.68715 3.12573 10.2614 2.62341 10.9289 2.2768C11.5965 1.93019 12.3377 1.74949 13.0898 1.75C14.6748 1.75 16.0773 2.5375 16.9248 3.74125C17.6658 3.61166 18.4271 3.66249 19.1442 3.88943C19.8614 4.11637 20.5133 4.51274 21.0448 5.045C21.5771 5.57652 21.9735 6.22845 22.2004 6.94561C22.4274 7.66277 22.4782 8.42404 22.3486 9.165C22.9642 9.59723 23.4666 10.1714 23.8132 10.839C24.1598 11.5066 24.3405 12.2478 24.3398 13Z" stroke="#521212" stroke-width="2.5" stroke-linecap="round" stroke-linejoin="round"/>
</svg>
