<svg width="72" height="72" viewBox="0 0 72 72" fill="none" xmlns="http://www.w3.org/2000/svg">
<g clip-path="url(#clip0_106_713)">
<path d="M12.5859 7.80421C11.0859 7.80421 9.80859 8.33155 8.75391 9.38624C7.69922 10.4409 7.17188 11.7183 7.17188 13.2183C7.17188 14.6714 7.69922 15.937 8.75391 17.0151C9.80859 18.0933 11.0859 18.6323 12.5859 18.6323C14.0859 18.6323 15.3633 18.0933 16.418 17.0151C17.4727 15.937 18 14.6714 18 13.2183C18 11.7183 17.4727 10.4409 16.418 9.38624C15.3633 8.33155 14.0859 7.80421 12.5859 7.80421ZM12.5859 16.1714C11.7891 16.1714 11.0977 15.8784 10.5117 15.2925C9.92578 14.7066 9.63281 14.0151 9.63281 13.2183C9.63281 12.3745 9.92578 11.6597 10.5117 11.0737C11.0977 10.4878 11.7891 10.1948 12.5859 10.1948C13.4297 10.1948 14.1445 10.4878 14.7305 11.0737C15.3164 11.6597 15.6094 12.3745 15.6094 13.2183C15.6094 14.0151 15.3164 14.7066 14.7305 15.2925C14.1445 15.8784 13.4297 16.1714 12.5859 16.1714ZM61.1719 11.3901C61.1719 11.7183 61.0547 11.9995 60.8203 12.2339C60.5859 12.4683 60.3047 12.5855 59.9766 12.5855C59.6484 12.5855 59.3672 12.4683 59.1328 12.2339C58.8984 11.9995 58.7812 11.7183 58.7812 11.3901C58.7812 11.062 58.8984 10.7808 59.1328 10.5464C59.3672 10.312 59.6484 10.1948 59.9766 10.1948C60.3047 10.1948 60.5859 10.312 60.8203 10.5464C61.0547 10.7808 61.1719 11.062 61.1719 11.3901ZM56.3906 11.3901C56.3906 11.7183 56.2734 11.9995 56.0391 12.2339C55.8047 12.4683 55.5234 12.5855 55.1953 12.5855C54.8672 12.5855 54.5859 12.4683 54.3516 12.2339C54.1172 11.9995 54 11.7183 54 11.3901C54 11.062 54.1172 10.7808 54.3516 10.5464C54.5859 10.312 54.8672 10.1948 55.1953 10.1948C55.5234 10.1948 55.8047 10.312 56.0391 10.5464C56.2734 10.7808 56.3906 11.062 56.3906 11.3901ZM63.6328 14.9761C63.6328 15.3042 63.5156 15.5855 63.2812 15.8198C63.0469 16.0542 62.7422 16.1714 62.3672 16.1714C62.0391 16.1714 61.7578 16.0542 61.5234 15.8198C61.2891 15.5855 61.1719 15.3042 61.1719 14.9761C61.1719 14.648 61.2891 14.3667 61.5234 14.1323C61.7578 13.898 62.0391 13.7808 62.3672 13.7808C62.7422 13.7808 63.0469 13.898 63.2812 14.1323C63.5156 14.3667 63.6328 14.648 63.6328 14.9761ZM58.7812 14.9761C58.7812 15.3042 58.6641 15.5855 58.4297 15.8198C58.1953 16.0542 57.9141 16.1714 57.5859 16.1714C57.2578 16.1714 56.9766 16.0542 56.7422 15.8198C56.5078 15.5855 56.3906 15.3042 56.3906 14.9761C56.3906 14.648 56.5078 14.3667 56.7422 14.1323C56.9766 13.898 57.2578 13.7808 57.5859 13.7808C57.9141 13.7808 58.1953 13.898 58.4297 14.1323C58.6641 14.3667 58.7812 14.648 58.7812 14.9761ZM51.6094 11.3901C51.6094 11.7183 51.4922 11.9995 51.2578 12.2339C51.0234 12.4683 50.7422 12.5855 50.4141 12.5855C50.0859 12.5855 49.8047 12.4683 49.5703 12.2339C49.3359 11.9995 49.2188 11.7183 49.2188 11.3901C49.2188 11.062 49.3359 10.7808 49.5703 10.5464C49.8047 10.312 50.0859 10.1948 50.4141 10.1948C50.7422 10.1948 51.0234 10.312 51.2578 10.5464C51.4922 10.7808 51.6094 11.062 51.6094 11.3901ZM54 14.9761C54 15.3042 53.8828 15.5855 53.6484 15.8198C53.4141 16.0542 53.1328 16.1714 52.8047 16.1714C52.4766 16.1714 52.1953 16.0542 51.9609 15.8198C51.7266 15.5855 51.6094 15.3042 51.6094 14.9761C51.6094 14.648 51.7266 14.3667 51.9609 14.1323C52.1953 13.898 52.4766 13.7808 52.8047 13.7808C53.1328 13.7808 53.4141 13.898 53.6484 14.1323C53.8828 14.3667 54 14.648 54 14.9761ZM46.8281 11.3901C46.8281 11.7183 46.7109 11.9995 46.4766 12.2339C46.2422 12.4683 45.9609 12.5855 45.6328 12.5855C45.2578 12.5855 44.9531 12.4683 44.7188 12.2339C44.4844 11.9995 44.3672 11.7183 44.3672 11.3901C44.3672 11.062 44.4844 10.7808 44.7188 10.5464C44.9531 10.312 45.2578 10.1948 45.6328 10.1948C45.9609 10.1948 46.2422 10.312 46.4766 10.5464C46.7109 10.7808 46.8281 11.062 46.8281 11.3901ZM49.2188 14.9761C49.2188 15.3042 49.1016 15.5855 48.8672 15.8198C48.6328 16.0542 48.3516 16.1714 48.0234 16.1714C47.6953 16.1714 47.4141 16.0542 47.1797 15.8198C46.9453 15.5855 46.8281 15.3042 46.8281 14.9761C46.8281 14.648 46.9453 14.3667 47.1797 14.1323C47.4141 13.898 47.6953 13.7808 48.0234 13.7808C48.3516 13.7808 48.6328 13.898 48.8672 14.1323C49.1016 14.3667 49.2188 14.648 49.2188 14.9761ZM41.9766 11.3901C41.9766 11.7183 41.8594 11.9995 41.625 12.2339C41.3906 12.4683 41.1094 12.5855 40.7812 12.5855C40.4531 12.5855 40.1719 12.4683 39.9375 12.2339C39.7031 11.9995 39.5859 11.7183 39.5859 11.3901C39.5859 11.062 39.7031 10.7808 39.9375 10.5464C40.1719 10.312 40.4531 10.1948 40.7812 10.1948C41.1094 10.1948 41.3906 10.312 41.625 10.5464C41.8594 10.7808 41.9766 11.062 41.9766 11.3901ZM44.3672 14.9761C44.3672 15.3042 44.25 15.5855 44.0156 15.8198C43.7812 16.0542 43.5 16.1714 43.1719 16.1714C42.8438 16.1714 42.5625 16.0542 42.3281 15.8198C42.0938 15.5855 41.9766 15.3042 41.9766 14.9761C41.9766 14.648 42.0938 14.3667 42.3281 14.1323C42.5625 13.898 42.8438 13.7808 43.1719 13.7808C43.5 13.7808 43.7812 13.898 44.0156 14.1323C44.25 14.3667 44.3672 14.648 44.3672 14.9761ZM72 20.2495V6.11671C72 4.61671 71.4609 3.32764 70.3828 2.24952C69.3047 1.17139 67.9922 0.632332 66.4453 0.632332H5.55469C4.00781 0.632332 2.69531 1.17139 1.61719 2.24952C0.539062 3.32764 0 4.61671 0 6.11671V20.2495C0 21.1401 0.199219 21.9605 0.597656 22.7105C0.996094 23.4605 1.5 24.0933 2.10938 24.6089C1.5 25.1245 0.996094 25.7573 0.597656 26.5073C0.199219 27.2573 0 28.0542 0 28.898V43.1011C0 43.9448 0.199219 44.7417 0.597656 45.4917C0.996094 46.2417 1.5 46.8745 2.10938 47.3901C1.5 47.9058 0.996094 48.5386 0.597656 49.2886C0.199219 50.0386 0 50.8589 0 51.7495V65.8823C0 67.3823 0.539062 68.6714 1.61719 69.7495C2.69531 70.8276 4.00781 71.3667 5.55469 71.3667H66.4453C67.9922 71.3667 69.3047 70.8276 70.3828 69.7495C71.4609 68.6714 72 67.3823 72 65.8823V51.7495C72 50.8589 71.8008 50.0386 71.4023 49.2886C71.0039 48.5386 70.5 47.9058 69.8906 47.3901C70.5 46.8745 71.0039 46.2417 71.4023 45.4917C71.8008 44.7417 72 43.9448 72 43.1011V28.898C72 28.0542 71.8008 27.2573 71.4023 26.5073C71.0039 25.7573 70.5 25.1245 69.8906 24.6089C70.5 24.0933 71.0039 23.4605 71.4023 22.7105C71.8008 21.9605 72 21.1401 72 20.2495ZM69.6094 51.7495V65.8823C69.6094 66.7261 69.3047 67.4526 68.6953 68.062C68.0859 68.6714 67.3359 68.9761 66.4453 68.9761H5.55469C4.66406 68.9761 3.91406 68.6714 3.30469 68.062C2.69531 67.4526 2.39062 66.7261 2.39062 65.8823V51.7495C2.39062 50.8589 2.69531 50.1089 3.30469 49.4995C3.91406 48.8901 4.66406 48.5855 5.55469 48.5855H66.4453C67.3359 48.5855 68.0859 48.8901 68.6953 49.4995C69.3047 50.1089 69.6094 50.8589 69.6094 51.7495ZM69.6094 28.898V43.1011C69.6094 43.9448 69.3047 44.6714 68.6953 45.2808C68.0859 45.8901 67.3359 46.1948 66.4453 46.1948H5.55469C4.66406 46.1948 3.91406 45.8901 3.30469 45.2808C2.69531 44.6714 2.39062 43.9448 2.39062 43.1011V28.898C2.39062 28.0542 2.69531 27.3276 3.30469 26.7183C3.91406 26.1089 4.66406 25.8042 5.55469 25.8042H66.4453C67.3359 25.8042 68.0859 26.1089 68.6953 26.7183C69.3047 27.3276 69.6094 28.0542 69.6094 28.898ZM5.55469 23.4136C4.66406 23.4136 3.91406 23.1089 3.30469 22.4995C2.69531 21.8901 2.39062 21.1401 2.39062 20.2495V6.11671C2.39062 5.27296 2.69531 4.54639 3.30469 3.93702C3.91406 3.32764 4.66406 3.02296 5.55469 3.02296H66.4453C67.3359 3.02296 68.0859 3.32764 68.6953 3.93702C69.3047 4.54639 69.6094 5.27296 69.6094 6.11671V20.2495C69.6094 21.1401 69.3047 21.8901 68.6953 22.4995C68.0859 23.1089 67.3359 23.4136 66.4453 23.4136H5.55469ZM12.5859 41.4136C14.0859 41.4136 15.3633 40.8862 16.418 39.8315C17.4727 38.7769 18 37.4995 18 35.9995C18 34.4995 17.4727 33.2222 16.418 32.1675C15.3633 31.1128 14.0859 30.5855 12.5859 30.5855C11.0859 30.5855 9.80859 31.1128 8.75391 32.1675C7.69922 33.2222 7.17188 34.4995 7.17188 35.9995C7.17188 37.4995 7.69922 38.7769 8.75391 39.8315C9.80859 40.8862 11.0859 41.4136 12.5859 41.4136ZM12.5859 32.9761C13.4297 32.9761 14.1445 33.269 14.7305 33.855C15.3164 34.4409 15.6094 35.1558 15.6094 35.9995C15.6094 36.8433 15.3164 37.5581 14.7305 38.144C14.1445 38.73 13.4297 39.023 12.5859 39.023C11.7891 39.023 11.0977 38.73 10.5117 38.144C9.92578 37.5581 9.63281 36.8433 9.63281 35.9995C9.63281 35.1558 9.92578 34.4409 10.5117 33.855C11.0977 33.269 11.7891 32.9761 12.5859 32.9761ZM61.1719 34.1714C61.1719 34.4995 61.0547 34.7808 60.8203 35.0151C60.5859 35.2495 60.3047 35.3667 59.9766 35.3667C59.6484 35.3667 59.3672 35.2495 59.1328 35.0151C58.8984 34.7808 58.7812 34.4995 58.7812 34.1714C58.7812 33.8433 58.8984 33.562 59.1328 33.3276C59.3672 33.0933 59.6484 32.9761 59.9766 32.9761C60.3047 32.9761 60.5859 33.0933 60.8203 33.3276C61.0547 33.562 61.1719 33.8433 61.1719 34.1714ZM56.3906 34.1714C56.3906 34.4995 56.2734 34.7808 56.0391 35.0151C55.8047 35.2495 55.5234 35.3667 55.1953 35.3667C54.8672 35.3667 54.5859 35.2495 54.3516 35.0151C54.1172 34.7808 54 34.4995 54 34.1714C54 33.8433 54.1172 33.562 54.3516 33.3276C54.5859 33.0933 54.8672 32.9761 55.1953 32.9761C55.5234 32.9761 55.8047 33.0933 56.0391 33.3276C56.2734 33.562 56.3906 33.8433 56.3906 34.1714ZM63.6328 37.8276C63.6328 38.1558 63.5156 38.437 63.2812 38.6714C63.0469 38.9058 62.7422 39.023 62.3672 39.023C62.0391 39.023 61.7578 38.9058 61.5234 38.6714C61.2891 38.437 61.1719 38.1558 61.1719 37.8276C61.1719 37.4995 61.2891 37.2183 61.5234 36.9839C61.7578 36.7495 62.0391 36.6323 62.3672 36.6323C62.7422 36.6323 63.0469 36.7495 63.2812 36.9839C63.5156 37.2183 63.6328 37.4995 63.6328 37.8276ZM58.7812 37.8276C58.7812 38.1558 58.6641 38.437 58.4297 38.6714C58.1953 38.9058 57.9141 39.023 57.5859 39.023C57.2578 39.023 56.9766 38.9058 56.7422 38.6714C56.5078 38.437 56.3906 38.1558 56.3906 37.8276C56.3906 37.4995 56.5078 37.2183 56.7422 36.9839C56.9766 36.7495 57.2578 36.6323 57.5859 36.6323C57.9141 36.6323 58.1953 36.7495 58.4297 36.9839C58.6641 37.2183 58.7812 37.4995 58.7812 37.8276ZM51.6094 34.1714C51.6094 34.4995 51.4922 34.7808 51.2578 35.0151C51.0234 35.2495 50.7422 35.3667 50.4141 35.3667C50.0859 35.3667 49.8047 35.2495 49.5703 35.0151C49.3359 34.7808 49.2188 34.4995 49.2188 34.1714C49.2188 33.8433 49.3359 33.562 49.5703 33.3276C49.8047 33.0933 50.0859 32.9761 50.4141 32.9761C50.7422 32.9761 51.0234 33.0933 51.2578 33.3276C51.4922 33.562 51.6094 33.8433 51.6094 34.1714ZM54 37.8276C54 38.1558 53.8828 38.437 53.6484 38.6714C53.4141 38.9058 53.1328 39.023 52.8047 39.023C52.4766 39.023 52.1953 38.9058 51.9609 38.6714C51.7266 38.437 51.6094 38.1558 51.6094 37.8276C51.6094 37.4995 51.7266 37.2183 51.9609 36.9839C52.1953 36.7495 52.4766 36.6323 52.8047 36.6323C53.1328 36.6323 53.4141 36.7495 53.6484 36.9839C53.8828 37.2183 54 37.4995 54 37.8276ZM46.8281 34.1714C46.8281 34.4995 46.7109 34.7808 46.4766 35.0151C46.2422 35.2495 45.9609 35.3667 45.6328 35.3667C45.2578 35.3667 44.9531 35.2495 44.7188 35.0151C44.4844 34.7808 44.3672 34.4995 44.3672 34.1714C44.3672 33.8433 44.4844 33.562 44.7188 33.3276C44.9531 33.0933 45.2578 32.9761 45.6328 32.9761C45.9609 32.9761 46.2422 33.0933 46.4766 33.3276C46.7109 33.562 46.8281 33.8433 46.8281 34.1714ZM49.2188 37.8276C49.2188 38.1558 49.1016 38.437 48.8672 38.6714C48.6328 38.9058 48.3516 39.023 48.0234 39.023C47.6953 39.023 47.4141 38.9058 47.1797 38.6714C46.9453 38.437 46.8281 38.1558 46.8281 37.8276C46.8281 37.4995 46.9453 37.2183 47.1797 36.9839C47.4141 36.7495 47.6953 36.6323 48.0234 36.6323C48.3516 36.6323 48.6328 36.7495 48.8672 36.9839C49.1016 37.2183 49.2188 37.4995 49.2188 37.8276ZM41.9766 34.1714C41.9766 34.4995 41.8594 34.7808 41.625 35.0151C41.3906 35.2495 41.1094 35.3667 40.7812 35.3667C40.4531 35.3667 40.1719 35.2495 39.9375 35.0151C39.7031 34.7808 39.5859 34.4995 39.5859 34.1714C39.5859 33.8433 39.7031 33.562 39.9375 33.3276C40.1719 33.0933 40.4531 32.9761 40.7812 32.9761C41.1094 32.9761 41.3906 33.0933 41.625 33.3276C41.8594 33.562 41.9766 33.8433 41.9766 34.1714ZM44.3672 37.8276C44.3672 38.1558 44.25 38.437 44.0156 38.6714C43.7812 38.9058 43.5 39.023 43.1719 39.023C42.8438 39.023 42.5625 38.9058 42.3281 38.6714C42.0938 38.437 41.9766 38.1558 41.9766 37.8276C41.9766 37.4995 42.0938 37.2183 42.3281 36.9839C42.5625 36.7495 42.8438 36.6323 43.1719 36.6323C43.5 36.6323 43.7812 36.7495 44.0156 36.9839C44.25 37.2183 44.3672 37.4995 44.3672 37.8276ZM12.5859 64.1948C14.0859 64.1948 15.3633 63.6675 16.418 62.6128C17.4727 61.5581 18 60.2808 18 58.7808C18 57.3276 17.4727 56.062 16.418 54.9839C15.3633 53.9058 14.0859 53.3667 12.5859 53.3667C11.0859 53.3667 9.80859 53.9058 8.75391 54.9839C7.69922 56.062 7.17188 57.3276 7.17188 58.7808C7.17188 60.2808 7.69922 61.5581 8.75391 62.6128C9.80859 63.6675 11.0859 64.1948 12.5859 64.1948ZM12.5859 55.8276C13.4297 55.8276 14.1445 56.1206 14.7305 56.7065C15.3164 57.2925 15.6094 57.9839 15.6094 58.7808C15.6094 59.6245 15.3164 60.3394 14.7305 60.9253C14.1445 61.5112 13.4297 61.8042 12.5859 61.8042C11.7891 61.8042 11.0977 61.5112 10.5117 60.9253C9.92578 60.3394 9.63281 59.6245 9.63281 58.7808C9.63281 57.9839 9.92578 57.2925 10.5117 56.7065C11.0977 56.1206 11.7891 55.8276 12.5859 55.8276ZM61.1719 57.023C61.1719 57.3511 61.0547 57.6323 60.8203 57.8667C60.5859 58.1011 60.3047 58.2183 59.9766 58.2183C59.6484 58.2183 59.3672 58.1011 59.1328 57.8667C58.8984 57.6323 58.7812 57.3511 58.7812 57.023C58.7812 56.6948 58.8984 56.4136 59.1328 56.1792C59.3672 55.9448 59.6484 55.8276 59.9766 55.8276C60.3047 55.8276 60.5859 55.9448 60.8203 56.1792C61.0547 56.4136 61.1719 56.6948 61.1719 57.023ZM56.3906 57.023C56.3906 57.3511 56.2734 57.6323 56.0391 57.8667C55.8047 58.1011 55.5234 58.2183 55.1953 58.2183C54.8672 58.2183 54.5859 58.1011 54.3516 57.8667C54.1172 57.6323 54 57.3511 54 57.023C54 56.6948 54.1172 56.4136 54.3516 56.1792C54.5859 55.9448 54.8672 55.8276 55.1953 55.8276C55.5234 55.8276 55.8047 55.9448 56.0391 56.1792C56.2734 56.4136 56.3906 56.6948 56.3906 57.023ZM63.6328 60.6089C63.6328 60.937 63.5156 61.2183 63.2812 61.4526C63.0469 61.687 62.7422 61.8042 62.3672 61.8042C62.0391 61.8042 61.7578 61.687 61.5234 61.4526C61.2891 61.2183 61.1719 60.937 61.1719 60.6089C61.1719 60.2808 61.2891 59.9995 61.5234 59.7651C61.7578 59.5308 62.0391 59.4136 62.3672 59.4136C62.7422 59.4136 63.0469 59.5308 63.2812 59.7651C63.5156 59.9995 63.6328 60.2808 63.6328 60.6089ZM58.7812 60.6089C58.7812 60.937 58.6641 61.2183 58.4297 61.4526C58.1953 61.687 57.9141 61.8042 57.5859 61.8042C57.2578 61.8042 56.9766 61.687 56.7422 61.4526C56.5078 61.2183 56.3906 60.937 56.3906 60.6089C56.3906 60.2808 56.5078 59.9995 56.7422 59.7651C56.9766 59.5308 57.2578 59.4136 57.5859 59.4136C57.9141 59.4136 58.1953 59.5308 58.4297 59.7651C58.6641 59.9995 58.7812 60.2808 58.7812 60.6089ZM51.6094 57.023C51.6094 57.3511 51.4922 57.6323 51.2578 57.8667C51.0234 58.1011 50.7422 58.2183 50.4141 58.2183C50.0859 58.2183 49.8047 58.1011 49.5703 57.8667C49.3359 57.6323 49.2188 57.3511 49.2188 57.023C49.2188 56.6948 49.3359 56.4136 49.5703 56.1792C49.8047 55.9448 50.0859 55.8276 50.4141 55.8276C50.7422 55.8276 51.0234 55.9448 51.2578 56.1792C51.4922 56.4136 51.6094 56.6948 51.6094 57.023ZM54 60.6089C54 60.937 53.8828 61.2183 53.6484 61.4526C53.4141 61.687 53.1328 61.8042 52.8047 61.8042C52.4766 61.8042 52.1953 61.687 51.9609 61.4526C51.7266 61.2183 51.6094 60.937 51.6094 60.6089C51.6094 60.2808 51.7266 59.9995 51.9609 59.7651C52.1953 59.5308 52.4766 59.4136 52.8047 59.4136C53.1328 59.4136 53.4141 59.5308 53.6484 59.7651C53.8828 59.9995 54 60.2808 54 60.6089ZM46.8281 57.023C46.8281 57.3511 46.7109 57.6323 46.4766 57.8667C46.2422 58.1011 45.9609 58.2183 45.6328 58.2183C45.2578 58.2183 44.9531 58.1011 44.7188 57.8667C44.4844 57.6323 44.3672 57.3511 44.3672 57.023C44.3672 56.6948 44.4844 56.4136 44.7188 56.1792C44.9531 55.9448 45.2578 55.8276 45.6328 55.8276C45.9609 55.8276 46.2422 55.9448 46.4766 56.1792C46.7109 56.4136 46.8281 56.6948 46.8281 57.023ZM49.2188 60.6089C49.2188 60.937 49.1016 61.2183 48.8672 61.4526C48.6328 61.687 48.3516 61.8042 48.0234 61.8042C47.6953 61.8042 47.4141 61.687 47.1797 61.4526C46.9453 61.2183 46.8281 60.937 46.8281 60.6089C46.8281 60.2808 46.9453 59.9995 47.1797 59.7651C47.4141 59.5308 47.6953 59.4136 48.0234 59.4136C48.3516 59.4136 48.6328 59.5308 48.8672 59.7651C49.1016 59.9995 49.2188 60.2808 49.2188 60.6089ZM41.9766 57.023C41.9766 57.3511 41.8594 57.6323 41.625 57.8667C41.3906 58.1011 41.1094 58.2183 40.7812 58.2183C40.4531 58.2183 40.1719 58.1011 39.9375 57.8667C39.7031 57.6323 39.5859 57.3511 39.5859 57.023C39.5859 56.6948 39.7031 56.4136 39.9375 56.1792C40.1719 55.9448 40.4531 55.8276 40.7812 55.8276C41.1094 55.8276 41.3906 55.9448 41.625 56.1792C41.8594 56.4136 41.9766 56.6948 41.9766 57.023ZM44.3672 60.6089C44.3672 60.937 44.25 61.2183 44.0156 61.4526C43.7812 61.687 43.5 61.8042 43.1719 61.8042C42.8438 61.8042 42.5625 61.687 42.3281 61.4526C42.0938 61.2183 41.9766 60.937 41.9766 60.6089C41.9766 60.2808 42.0938 59.9995 42.3281 59.7651C42.5625 59.5308 42.8438 59.4136 43.1719 59.4136C43.5 59.4136 43.7812 59.5308 44.0156 59.7651C44.25 59.9995 44.3672 60.2808 44.3672 60.6089Z" fill="#DCA629"/>
</g>
<defs>
<clipPath id="clip0_106_713">
<rect width="72" height="72" fill="white" transform="matrix(1 0 0 -1 0 72)"/>
</clipPath>
</defs>
</svg>
