<svg width="72" height="72" viewBox="0 0 72 72" fill="none" xmlns="http://www.w3.org/2000/svg">
<g clip-path="url(#clip0_106_706)">
<path d="M45.2109 9.35156L46.8984 7.73438C44.8359 5.67188 42.3633 4.64062 39.4805 4.64062C36.5977 4.64062 34.125 5.67188 32.0625 7.73438L33.75 9.35156C35.3438 7.75781 37.2539 6.96094 39.4805 6.96094C41.707 6.96094 43.6172 7.75781 45.2109 9.35156ZM60.3984 20.8828C60.3984 19.6172 59.9414 18.5273 59.0273 17.6133C58.1133 16.6992 57.0234 16.2422 55.7578 16.2422V18.5625C56.3672 18.5625 56.9062 18.7969 57.375 19.2656C57.8438 19.7344 58.0781 20.2734 58.0781 20.8828C58.0781 21.5391 57.8438 22.0898 57.375 22.5352C56.9062 22.9805 56.3672 23.2031 55.7578 23.2031V25.5234C57.0234 25.5234 58.1133 25.0781 59.0273 24.1875C59.9414 23.2969 60.3984 22.1953 60.3984 20.8828ZM66.1641 18.5625H64.7578C64.2422 16.5938 63.1523 14.9414 61.4883 13.6055C59.8242 12.2695 57.9141 11.6016 55.7578 11.6016C55.4766 11.6016 55.207 11.6133 54.9492 11.6367C54.6914 11.6602 54.4453 11.6953 54.2109 11.7422C53.4141 8.36719 51.6445 5.56641 48.9023 3.33984C46.1602 1.11328 43.0312 0 39.5156 0C37.0312 0 34.7227 0.550781 32.5898 1.65234C30.457 2.75391 28.6875 4.28906 27.2812 6.25781C26.8125 6.11719 26.332 6.01172 25.8398 5.94141C25.3477 5.87109 24.8672 5.83594 24.3984 5.83594C22.4766 5.83594 20.7305 6.36328 19.1602 7.41797C17.5898 8.47266 16.4531 9.86719 15.75 11.6016C13.7344 11.7422 11.9414 12.457 10.3711 13.7461C8.80078 15.0352 7.75781 16.6406 7.24219 18.5625H5.83594C4.19531 18.5625 2.8125 19.1367 1.6875 20.2852C0.5625 21.4336 0 22.8047 0 24.3984V59.2031C0 60.7969 0.5625 62.168 1.6875 63.3164C2.8125 64.4648 4.19531 65.0391 5.83594 65.0391H20.8828V69.6797H16.2422V72H55.7578V69.6797H51.1172V65.0391H66.1641C67.8047 65.0391 69.1875 64.4648 70.3125 63.3164C71.4375 62.168 72 60.7969 72 59.2031V24.3984C72 22.8047 71.4375 21.4336 70.3125 20.2852C69.1875 19.1367 67.8047 18.5625 66.1641 18.5625ZM5.83594 20.8828H6.96094C6.96094 23.4609 7.875 25.6523 9.70312 27.457C11.5312 29.2617 13.7109 30.1641 16.2422 30.1641H23.2031V27.8438H16.2422C14.3203 27.8438 12.6797 27.1641 11.3203 25.8047C9.96094 24.4453 9.28125 22.8047 9.28125 20.8828C9.28125 18.9609 9.96094 17.3203 11.3203 15.9609C12.6797 14.6016 14.3203 13.9219 16.2422 13.9219L17.4375 13.9922L17.7188 13.1484C18.1406 11.6484 18.9727 10.4414 20.2148 9.52734C21.457 8.61328 22.8516 8.15625 24.3984 8.15625C24.8672 8.15625 25.3477 8.20312 25.8398 8.29688C26.332 8.39062 26.7891 8.53125 27.2109 8.71875L28.125 9.14062L28.6875 8.29688C29.8594 6.42188 31.4062 4.95703 33.3281 3.90234C35.25 2.84766 37.3125 2.32031 39.5156 2.32031C42.6562 2.32031 45.4336 3.375 47.8477 5.48438C50.2617 7.59375 51.6797 10.1953 52.1016 13.2891L52.3125 14.6953L53.6484 14.2734C53.9766 14.1797 54.3164 14.0977 54.668 14.0273C55.0195 13.957 55.3828 13.9219 55.7578 13.9219C57.6797 13.9219 59.3203 14.6016 60.6797 15.9609C62.0391 17.3203 62.7188 18.9609 62.7188 20.8828C62.7188 22.8047 62.0391 24.4453 60.6797 25.8047C59.3203 27.1641 57.6797 27.8438 55.7578 27.8438H48.7969V30.1641H55.7578C58.2891 30.1641 60.4688 29.2617 62.2969 27.457C64.125 25.6523 65.0391 23.4609 65.0391 20.8828H66.1641C67.1484 20.8828 67.9805 21.2227 68.6602 21.9023C69.3398 22.582 69.6797 23.4141 69.6797 24.3984V55.7578H2.32031V24.3984C2.32031 23.4141 2.66016 22.582 3.33984 21.9023C4.01953 21.2227 4.85156 20.8828 5.83594 20.8828ZM48.7969 69.6797H23.2031V65.0391H48.7969V69.6797ZM66.1641 62.7188H5.83594C4.85156 62.7188 4.01953 62.3789 3.33984 61.6992C2.66016 61.0195 2.32031 60.1875 2.32031 59.2031V58.0781H69.6797V59.2031C69.6797 60.1875 69.3398 61.0195 68.6602 61.6992C67.9805 62.3789 67.1484 62.7188 66.1641 62.7188ZM37.1953 46.6875V40.6406H34.8047V46.6875C34.1484 46.9219 33.5977 47.332 33.1523 47.918C32.707 48.5039 32.4844 49.1719 32.4844 49.9219C32.4844 50.9062 32.8359 51.7383 33.5391 52.418C34.2422 53.0977 35.0625 53.4375 36 53.4375C36.9375 53.4375 37.7578 53.0977 38.4609 52.418C39.1641 51.7383 39.5156 50.9062 39.5156 49.9219C39.5156 49.1719 39.293 48.5039 38.8477 47.918C38.4023 47.332 37.8516 46.9219 37.1953 46.6875ZM36 51.1172C35.6719 51.1172 35.3906 51 35.1562 50.7656C34.9219 50.5312 34.8047 50.25 34.8047 49.9219C34.8047 49.5938 34.9219 49.3242 35.1562 49.1133C35.3906 48.9023 35.6719 48.7969 36 48.7969C36.3281 48.7969 36.6094 48.9023 36.8438 49.1133C37.0781 49.3242 37.1953 49.5938 37.1953 49.9219C37.1953 50.25 37.0781 50.5312 36.8438 50.7656C36.6094 51 36.3281 51.1172 36 51.1172ZM34.8047 22.0781H37.1953V38.3203H34.8047V22.0781ZM46.4766 26.7188H44.1562V45.2812H55.9688C56.2031 45.9844 56.6133 46.5469 57.1992 46.9688C57.7852 47.3906 58.4531 47.6016 59.2031 47.6016C60.1875 47.6016 61.0195 47.2617 61.6992 46.582C62.3789 45.9023 62.7188 45.0938 62.7188 44.1562C62.7188 43.1719 62.3789 42.3398 61.6992 41.6602C61.0195 40.9805 60.1875 40.6406 59.2031 40.6406C58.4531 40.6406 57.7852 40.8633 57.1992 41.3086C56.6133 41.7539 56.2031 42.3047 55.9688 42.9609H46.4766V26.7188ZM59.2031 42.9609C59.5312 42.9609 59.8125 43.0781 60.0469 43.3125C60.2812 43.5469 60.3984 43.8281 60.3984 44.1562C60.3984 44.4375 60.2812 44.6953 60.0469 44.9297C59.8125 45.1641 59.5312 45.2812 59.2031 45.2812C58.9219 45.2812 58.6641 45.1641 58.4297 44.9297C58.1953 44.6953 58.0781 44.4375 58.0781 44.1562C58.0781 43.8281 58.1953 43.5469 58.4297 43.3125C58.6641 43.0781 58.9219 42.9609 59.2031 42.9609ZM44.1562 22.0781H46.4766V24.3984H44.1562V22.0781ZM12.7969 47.6016C13.5469 47.6016 14.2148 47.3906 14.8008 46.9688C15.3867 46.5469 15.7969 45.9844 16.0312 45.2812H27.8438V32.4844H25.5234V42.9609H16.0312C15.7969 42.3047 15.3867 41.7539 14.8008 41.3086C14.2148 40.8633 13.5469 40.6406 12.7969 40.6406C11.8125 40.6406 10.9805 40.9805 10.3008 41.6602C9.62109 42.3398 9.28125 43.1719 9.28125 44.1562C9.28125 45.0938 9.62109 45.9023 10.3008 46.582C10.9805 47.2617 11.8125 47.6016 12.7969 47.6016ZM12.7969 42.9609C13.0781 42.9609 13.3359 43.0781 13.5703 43.3125C13.8047 43.5469 13.9219 43.8281 13.9219 44.1562C13.9219 44.4375 13.8047 44.6953 13.5703 44.9297C13.3359 45.1641 13.0781 45.2812 12.7969 45.2812C12.4688 45.2812 12.1875 45.1641 11.9531 44.9297C11.7188 44.6953 11.6016 44.4375 11.6016 44.1562C11.6016 43.8281 11.7188 43.5469 11.9531 43.3125C12.1875 43.0781 12.4688 42.9609 12.7969 42.9609ZM25.5234 22.0781H27.8438V30.1641H25.5234V22.0781Z" fill="#521212"/>
</g>
<defs>
<clipPath id="clip0_106_706">
<rect width="72" height="72" fill="white" transform="matrix(1 0 0 -1 0 72)"/>
</clipPath>
</defs>
</svg>
