<svg width="64" height="64" viewBox="0 0 64 64" fill="none" xmlns="http://www.w3.org/2000/svg">
<rect width="64" height="64" rx="10" fill="#DCA629"/>
<path d="M30.2246 29.0059V33.3125C30.2246 35.2812 30.0254 36.9629 29.627 38.3574C29.2285 39.752 28.6543 40.8945 27.9043 41.7852C27.1543 42.6641 26.2578 43.3145 25.2148 43.7363C24.1719 44.1465 23.0117 44.3516 21.7344 44.3516C20.7148 44.3516 19.7656 44.2227 18.8867 43.9648C18.0078 43.6953 17.2168 43.2852 16.5137 42.7344C15.8223 42.1719 15.2246 41.457 14.7207 40.5898C14.2285 39.7227 13.8477 38.6855 13.5781 37.4785C13.3203 36.2715 13.1914 34.8828 13.1914 33.3125V29.0059C13.1914 27.0371 13.3906 25.3613 13.7891 23.9785C14.1992 22.5957 14.7793 21.4648 15.5293 20.5859C16.2793 19.707 17.1758 19.0684 18.2188 18.6699C19.2617 18.2598 20.4219 18.0547 21.6992 18.0547C22.7305 18.0547 23.6797 18.1836 24.5469 18.4414C25.4258 18.6992 26.2109 19.1035 26.9023 19.6543C27.6055 20.1934 28.2031 20.8965 28.6953 21.7637C29.1875 22.6191 29.5625 23.6504 29.8203 24.8574C30.0898 26.0527 30.2246 27.4355 30.2246 29.0059ZM25.584 33.9453V28.3555C25.584 27.3711 25.5254 26.5156 25.4082 25.7891C25.3027 25.0508 25.1445 24.4238 24.9336 23.9082C24.7227 23.3926 24.459 22.9766 24.1426 22.6602C23.8262 22.332 23.4629 22.0918 23.0527 21.9395C22.6426 21.7871 22.1914 21.7109 21.6992 21.7109C21.0898 21.7109 20.5449 21.834 20.0645 22.0801C19.584 22.3145 19.1797 22.6895 18.8516 23.2051C18.5234 23.7207 18.2715 24.4062 18.0957 25.2617C17.9316 26.1055 17.8496 27.1367 17.8496 28.3555V33.9453C17.8496 34.9297 17.9023 35.791 18.0078 36.5293C18.125 37.2676 18.2891 37.9004 18.5 38.4277C18.7227 38.9551 18.9863 39.3887 19.291 39.7285C19.6074 40.0566 19.9707 40.3027 20.3809 40.4668C20.791 40.6191 21.2422 40.6953 21.7344 40.6953C22.3555 40.6953 22.9004 40.5723 23.3691 40.3262C23.8496 40.0801 24.2539 39.6934 24.582 39.166C24.9102 38.627 25.1562 37.9297 25.3203 37.0742C25.4961 36.207 25.584 35.1641 25.584 33.9453ZM38.9258 29.1465H41.5449C42.4707 29.1465 43.2324 28.9883 43.8301 28.6719C44.4395 28.3438 44.8906 27.8984 45.1836 27.3359C45.4883 26.7617 45.6406 26.0996 45.6406 25.3496C45.6406 24.6113 45.5059 23.9727 45.2363 23.4336C44.9668 22.8828 44.5566 22.4609 44.0059 22.168C43.4668 21.8633 42.7754 21.7109 41.9316 21.7109C41.252 21.7109 40.625 21.8457 40.0508 22.1152C39.4883 22.3848 39.0371 22.7715 38.6973 23.2754C38.3691 23.7676 38.2051 24.3594 38.2051 25.0508H33.5469C33.5469 23.668 33.9102 22.4551 34.6367 21.4121C35.375 20.3574 36.3711 19.5312 37.625 18.9336C38.8789 18.3359 40.2793 18.0371 41.8262 18.0371C43.5137 18.0371 44.9902 18.3184 46.2559 18.8809C47.5332 19.4316 48.5234 20.2461 49.2266 21.3242C49.9414 22.4023 50.2988 23.7383 50.2988 25.332C50.2988 26.0938 50.1172 26.8555 49.7539 27.6172C49.4023 28.3672 48.8809 29.0469 48.1895 29.6562C47.5098 30.2539 46.6719 30.7402 45.6758 31.1152C44.6914 31.4785 43.5605 31.6602 42.2832 31.6602H38.9258V29.1465ZM38.9258 32.7324V30.2539H42.2832C43.7246 30.2539 44.9727 30.4238 46.0273 30.7637C47.0938 31.0918 47.9727 31.5605 48.6641 32.1699C49.3555 32.7676 49.8652 33.4648 50.1934 34.2617C50.5332 35.0586 50.7031 35.9141 50.7031 36.8281C50.7031 38.0234 50.4805 39.0898 50.0352 40.0273C49.5898 40.9531 48.9629 41.7383 48.1543 42.3828C47.3574 43.0273 46.4199 43.5195 45.3418 43.8594C44.2637 44.1875 43.0977 44.3516 41.8438 44.3516C40.7539 44.3516 39.6934 44.2051 38.6621 43.9121C37.6426 43.6074 36.7227 43.1562 35.9023 42.5586C35.082 41.9492 34.4316 41.1875 33.9512 40.2734C33.4707 39.3477 33.2305 38.2754 33.2305 37.0566H37.8887C37.8887 37.7598 38.0586 38.3867 38.3984 38.9375C38.75 39.4883 39.2305 39.9219 39.8398 40.2383C40.4609 40.543 41.1582 40.6953 41.9316 40.6953C42.7871 40.6953 43.5195 40.543 44.1289 40.2383C44.75 39.9219 45.2246 39.4766 45.5527 38.9023C45.8809 38.3164 46.0449 37.6191 46.0449 36.8105C46.0449 35.8496 45.8633 35.0703 45.5 34.4727C45.1367 33.875 44.6152 33.4355 43.9355 33.1543C43.2676 32.873 42.4707 32.7324 41.5449 32.7324H38.9258Z" fill="white"/>
</svg>
