<svg width="72" height="72" viewBox="0 0 72 72" fill="none" xmlns="http://www.w3.org/2000/svg">
<g clip-path="url(#clip0_106_698)">
<path d="M4.71094 63.562H25.875V59.9761H4.71094V63.562ZM21.5859 61.2417H24.4688V62.2261H21.5859V61.2417ZM14.5547 33.1167C14.5547 32.8354 14.6719 32.5776 14.9062 32.3433C15.1406 32.1089 15.4219 31.9917 15.75 31.9917C16.0781 31.9917 16.3477 32.1089 16.5586 32.3433C16.7695 32.5776 16.875 32.8354 16.875 33.1167C16.875 33.4448 16.7695 33.7261 16.5586 33.9604C16.3477 34.1948 16.0781 34.312 15.75 34.312C15.4219 34.312 15.1406 34.1948 14.9062 33.9604C14.6719 33.7261 14.5547 33.4448 14.5547 33.1167ZM22.1484 33.1167C22.1484 32.8354 22.2539 32.5776 22.4648 32.3433C22.6758 32.1089 22.9453 31.9917 23.2734 31.9917C23.6016 31.9917 23.8828 32.1089 24.1172 32.3433C24.3516 32.5776 24.4688 32.8354 24.4688 33.1167C24.4688 33.4448 24.3516 33.7261 24.1172 33.9604C23.8828 34.1948 23.6016 34.312 23.2734 34.312C22.9453 34.312 22.6758 34.1948 22.4648 33.9604C22.2539 33.7261 22.1484 33.4448 22.1484 33.1167ZM4.71094 54.0698H25.875V50.4839H4.71094V54.0698ZM21.5859 51.7495H24.4688V52.8042H21.5859V51.7495ZM0 69.4683H30.3047V26.9292H0V69.4683ZM23.2734 30.0933C24.1172 30.0933 24.8438 30.3862 25.4531 30.9722C26.0625 31.5581 26.3672 32.2729 26.3672 33.1167C26.3672 33.9604 26.0625 34.687 25.4531 35.2964C24.8438 35.9058 24.1172 36.2104 23.2734 36.2104C22.4297 36.2104 21.7148 35.9058 21.1289 35.2964C20.543 34.687 20.25 33.9604 20.25 33.1167C20.25 32.2729 20.543 31.5581 21.1289 30.9722C21.7148 30.3862 22.4297 30.0933 23.2734 30.0933ZM15.75 30.0933C16.5938 30.0933 17.3086 30.3862 17.8945 30.9722C18.4805 31.5581 18.7734 32.2729 18.7734 33.1167C18.7734 33.9604 18.4805 34.687 17.8945 35.2964C17.3086 35.9058 16.5938 36.2104 15.75 36.2104C14.9062 36.2104 14.1797 35.9058 13.5703 35.2964C12.9609 34.687 12.6562 33.9604 12.6562 33.1167C12.6562 32.2729 12.9609 31.5581 13.5703 30.9722C14.1797 30.3862 14.9062 30.0933 15.75 30.0933ZM2.8125 38.9526H27.8438V46.4058H2.8125V38.9526ZM2.8125 48.5854H27.8438V55.9683H2.8125V48.5854ZM2.8125 58.0073H27.8438V65.4604H2.8125V58.0073ZM4.71094 44.5073H25.875V40.8511H4.71094V44.5073ZM21.5859 42.0464H24.4688V43.0308H21.5859V42.0464ZM72 34.3823C72 35.3198 71.9531 36.2456 71.8594 37.1597C71.7656 38.0737 71.6484 38.9761 71.5078 39.8667L70.9453 42.4683C70.0547 45.8901 68.6484 49.0542 66.7266 51.9604C64.7578 54.8667 62.4258 57.3862 59.7305 59.519C57.0352 61.6519 54 63.3276 50.625 64.5464C47.2969 65.7183 43.7812 66.3042 40.0781 66.3042C39.1406 66.3042 38.2148 66.269 37.3008 66.1987C36.3867 66.1284 35.4844 65.9995 34.5938 65.812V46.8276C35.0156 47.0151 35.4023 47.2495 35.7539 47.5308C36.1055 47.812 36.4688 48.0933 36.8438 48.3745C37.4062 48.7964 38.0742 48.9253 38.8477 48.7612C39.6211 48.5972 40.3359 48.5386 40.9922 48.5854C42.6328 48.6323 43.6875 49.3589 44.1562 50.7651C44.625 52.1714 44.9062 53.5073 45 54.7729C45.0938 55.7104 45.4219 56.5894 45.9844 57.4097C46.5469 58.23 46.6875 59.1323 46.4062 60.1167C46.3125 60.5854 46.1484 61.019 45.9141 61.4175C45.6797 61.8159 45.3984 62.1558 45.0703 62.437C47.6484 61.9683 50.0977 61.1714 52.418 60.0464C54.7383 58.9214 56.8594 57.5386 58.7812 55.8979C58.0781 54.2104 57.0586 52.7104 55.7227 51.3979C54.3867 50.0854 53.7891 48.3511 53.9297 46.1948C54.3516 42.4917 56.2148 40.7573 59.5195 40.9917C62.8242 41.2261 65.6719 40.7104 68.0625 39.4448C68.25 38.6011 68.3789 37.769 68.4492 36.9487C68.5195 36.1284 68.5547 35.2729 68.5547 34.3823C68.5547 31.7573 68.2031 29.2026 67.5 26.7183C66.7969 24.2808 65.8008 21.9956 64.5117 19.8628C63.2227 17.73 61.6875 15.7729 59.9062 13.9917C58.125 12.2573 56.1562 10.7808 54 9.56201C54.0469 9.65576 54.1055 9.72607 54.1758 9.77295C54.2461 9.81982 54.3047 9.89014 54.3516 9.98389C57.1641 12.7964 58.3359 14.7769 57.8672 15.9253C57.3984 17.0737 57.3984 19.2651 57.8672 22.4995C57.8672 23.5776 58.582 24.3042 60.0117 24.6792C61.4414 25.0542 62.0625 26.2026 61.875 28.1245C61.4531 30.0933 61.0195 31.7339 60.5742 33.0464C60.1289 34.3589 58.9219 34.2183 56.9531 32.6245C55.0312 30.9839 53.4258 30.4448 52.1367 31.0073C50.8477 31.5698 49.875 31.7339 49.2188 31.4995C48.3281 31.0776 47.5781 30.187 46.9688 28.8276C46.3594 27.4683 45.5156 26.7886 44.4375 26.7886C42.9375 26.8823 41.9531 27.5854 41.4844 28.8979C40.9688 30.1636 40.5352 31.4526 40.1836 32.7651C39.832 34.0776 39.3281 35.1323 38.6719 35.9292C38.0625 36.7261 36.8438 36.7026 35.0156 35.8589C34.9219 35.812 34.8398 35.7651 34.7695 35.7183C34.6992 35.6714 34.6406 35.6245 34.5938 35.5776V22.8511H30.5156C30.4219 20.3667 30.1289 17.9644 29.6367 15.644C29.1445 13.3237 27.8438 11.3901 25.7344 9.84326C23.2031 11.3433 20.9414 13.2065 18.9492 15.4331C16.957 17.6597 15.3516 20.1323 14.1328 22.8511H10.3359C11.5078 19.8511 13.0781 17.1089 15.0469 14.6245C17.0156 12.1401 19.3008 9.99561 21.9023 8.19092C24.5039 6.38623 27.3281 4.9917 30.375 4.00732C33.4688 3.02295 36.7031 2.53076 40.0781 2.53076C44.4844 2.53076 48.6328 3.35107 52.5234 4.9917C56.3672 6.6792 59.7422 8.96436 62.6484 11.8472C65.5547 14.73 67.8281 18.1167 69.4688 22.0073C71.1562 25.8979 72 30.0229 72 34.3823Z" fill="#DCA629"/>
</g>
<defs>
<clipPath id="clip0_106_698">
<rect width="72" height="72" fill="white" transform="matrix(1 0 0 -1 0 72)"/>
</clipPath>
</defs>
</svg>
