<svg width="534" height="480" viewBox="0 0 534 480" fill="none" xmlns="http://www.w3.org/2000/svg">
<g clip-path="url(#clip0_1_31305)">
<g clip-path="url(#clip1_1_31305)">
<g clip-path="url(#clip2_1_31305)">
<path d="M439.553 1.34933e-10H418.914C417.092 0.063812 415.366 0.832465 414.099 2.14397C412.833 3.45547 412.125 5.20739 412.125 7.0305C412.125 8.85361 412.833 10.6055 414.099 11.917C415.366 13.2285 417.092 13.9972 418.914 14.061H439.544C449.775 14.0541 459.591 18.1072 466.837 25.3306C474.083 32.5539 478.167 42.3573 478.192 52.5886V215.286C478.16 225.513 474.074 235.309 466.828 242.527C459.583 249.745 449.771 253.795 439.544 253.788H416.146C414.589 253.78 413.073 254.289 411.836 255.236L368.894 288.082V260.822C368.895 259.898 368.714 258.983 368.361 258.129C368.008 257.275 367.49 256.499 366.836 255.846C366.183 255.192 365.407 254.674 364.553 254.321C363.699 253.968 362.784 253.786 361.859 253.788H276.338C269.414 253.805 262.614 251.952 256.656 248.425V169.499C256.651 162.47 254.919 155.55 251.611 149.347C248.304 143.145 243.524 137.85 237.69 133.929V52.5886C237.722 42.3618 241.809 32.5651 249.054 25.3473C256.299 18.1295 266.111 14.08 276.338 14.0869H374.86C376.682 14.023 378.408 13.2544 379.674 11.9429C380.941 10.6314 381.649 8.87947 381.649 7.05636C381.649 5.23325 380.941 3.48133 379.674 2.16983C378.408 0.858329 376.682 0.0896752 374.86 0.0258633H276.338C262.379 0.0235482 248.989 5.55953 239.107 15.4189C229.225 25.2782 223.659 38.6553 223.629 52.6145V127.79C220.345 127.002 216.98 126.603 213.603 126.601H84.8897C73.4898 126.598 62.5546 131.118 54.4831 139.169C46.4117 147.219 41.8633 158.143 41.8359 169.542V184.724C41.8997 186.546 42.6684 188.272 43.9799 189.539C45.2914 190.805 47.0433 191.513 48.8664 191.513C50.6896 191.513 52.4415 190.805 53.753 189.539C55.0645 188.272 55.8331 186.546 55.8969 184.724V169.499C55.9198 161.829 58.9841 154.48 64.4177 149.066C69.8513 143.652 77.2105 140.614 84.881 140.619H213.594C221.266 140.612 228.627 143.649 234.063 149.063C239.498 154.478 242.564 161.827 242.587 169.499V251.227C242.504 251.845 242.504 252.471 242.587 253.089V297.815C242.587 298.678 242.535 299.54 242.457 300.454H227.957C220.332 300.459 212.949 303.135 207.092 308.017C201.235 312.9 197.273 319.679 195.895 327.179C195.241 327.426 194.628 327.769 194.076 328.196L162.626 352.473V333.722C162.627 332.798 162.446 331.883 162.093 331.029C161.74 330.175 161.222 329.399 160.568 328.745C159.915 328.092 159.139 327.574 158.285 327.221C157.431 326.868 156.515 326.686 155.591 326.688H84.8983C77.2277 326.692 69.8685 323.654 64.4349 318.24C59.0013 312.826 55.937 305.477 55.9142 297.807V226.864C55.8504 225.042 55.0817 223.316 53.7702 222.05C52.4587 220.783 50.7068 220.075 48.8837 220.075C47.0606 220.075 45.3087 220.783 43.9972 222.05C42.6857 223.316 41.917 225.042 41.8532 226.864V297.815C41.8806 309.215 46.4289 320.139 54.5004 328.189C62.5718 336.24 73.507 340.759 84.9069 340.757H148.582V366.75C148.62 368.048 149.011 369.311 149.714 370.403C150.416 371.495 151.403 372.375 152.568 372.948C153.733 373.521 155.033 373.765 156.327 373.654C157.62 373.543 158.859 373.082 159.91 372.319L195.378 344.93V424.028C195.398 432.659 198.842 440.929 204.953 447.024C211.064 453.119 219.343 456.541 227.974 456.538H271.079V472.918C271.117 474.216 271.508 475.479 272.211 476.572C272.913 477.664 273.9 478.544 275.065 479.117C276.23 479.689 277.53 479.934 278.824 479.823C280.117 479.712 281.357 479.25 282.407 478.488L310.857 456.513H319.263C327.893 456.515 336.173 453.093 342.284 446.998C348.395 440.903 351.838 432.633 351.859 424.002V411.545C351.795 409.723 351.026 407.997 349.715 406.73C348.403 405.464 346.652 404.756 344.828 404.756C343.005 404.756 341.253 405.464 339.942 406.73C338.63 407.997 337.862 409.723 337.798 411.545V424.028C337.782 428.93 335.822 433.625 332.349 437.084C328.876 440.542 324.173 442.482 319.271 442.477H308.495C306.935 442.475 305.419 442.99 304.184 443.943L285.158 458.599V449.504C285.159 448.579 284.978 447.664 284.624 446.81C284.271 445.956 283.753 445.18 283.1 444.527C282.446 443.873 281.67 443.355 280.816 443.002C279.962 442.649 279.047 442.468 278.123 442.469H227.948C223.046 442.473 218.343 440.534 214.87 437.075C211.397 433.616 209.437 428.921 209.421 424.02V332.964C209.437 328.062 211.397 323.367 214.87 319.908C218.343 316.45 223.046 314.51 227.948 314.515H319.297C324.199 314.51 328.902 316.45 332.375 319.908C335.848 323.367 337.808 328.062 337.824 332.964V367.448C337.888 369.27 338.656 370.996 339.968 372.263C341.279 373.529 343.031 374.237 344.854 374.237C346.677 374.237 348.429 373.529 349.741 372.263C351.052 370.996 351.821 369.27 351.885 367.448V332.964C351.864 324.333 348.421 316.063 342.31 309.968C336.199 303.873 327.919 300.451 319.288 300.454H256.57C256.622 299.591 256.648 264.064 256.648 264.064C262.905 266.576 269.587 267.86 276.33 267.849H354.868V302.333C354.906 303.628 355.295 304.888 355.995 305.979C356.695 307.069 357.678 307.949 358.84 308.523C360.001 309.097 361.297 309.344 362.589 309.238C363.88 309.132 365.118 308.676 366.17 307.919L418.526 267.874H439.544C453.503 267.877 466.893 262.341 476.775 252.481C486.657 242.622 492.224 229.245 492.253 215.286V52.5886C492.224 38.631 486.658 25.2551 476.778 15.396C466.898 5.53696 453.51 -3.15617e-05 439.553 1.34933e-10Z" fill="#521212"/>
<path d="M375.507 51.9423C373.376 51.4384 371.16 51.4182 369.021 51.8833C366.881 52.3484 364.873 53.2869 363.144 54.6298C361.415 55.9728 360.009 57.686 359.029 59.6437C358.049 61.6015 357.52 63.7539 357.481 65.943C357.482 76.0148 353.802 85.7399 347.135 93.2891L327.738 115.204C327.101 114.222 326.228 113.415 325.2 112.856C324.172 112.298 323.02 112.005 321.849 112.005H284.029C283.105 112.004 282.189 112.185 281.335 112.539C280.481 112.892 279.706 113.41 279.052 114.063C278.399 114.717 277.88 115.493 277.527 116.347C277.174 117.201 276.993 118.116 276.994 119.04V204.13C276.993 205.055 277.174 205.97 277.527 206.824C277.88 207.678 278.399 208.454 279.052 209.107C279.706 209.761 280.481 210.279 281.335 210.632C282.189 210.985 283.105 211.166 284.029 211.165H321.849C323.196 211.164 324.515 210.776 325.647 210.047C326.78 209.318 327.679 208.279 328.238 207.053C335.933 211.754 344.773 214.248 353.791 214.26H420.621C423.072 214.23 425.492 213.709 427.74 212.73C429.987 211.751 432.016 210.333 433.707 208.559C435.398 206.785 436.718 204.691 437.589 202.399C438.46 200.108 438.864 197.666 438.777 195.216C438.562 190.707 438.777 130.136 438.777 128.791C438.773 123.974 436.859 119.356 433.456 115.948C430.053 112.54 425.438 110.62 420.621 110.609L385.87 110.505L387.31 107.057C390.545 99.3228 391.966 90.9503 391.464 82.5817C390.962 74.2131 388.55 66.0706 384.413 58.7788C383.458 57.0938 382.17 55.6199 380.629 54.4464C379.088 53.2728 377.325 52.4239 375.447 51.9509L375.507 51.9423ZM314.849 197.096H291.098V126.075H314.849V197.096ZM420.656 124.678C421.749 124.678 422.797 125.113 423.57 125.885C424.343 126.658 424.777 127.706 424.777 128.799C424.777 130.136 424.777 133.765 424.777 138.688C424.673 165.87 424.604 191.604 424.777 195.889C424.804 196.445 424.717 197.001 424.522 197.523C424.328 198.045 424.029 198.522 423.645 198.925C423.26 199.329 422.798 199.649 422.285 199.868C421.773 200.087 421.222 200.2 420.664 200.199H353.834C345.843 200.195 338.095 197.457 331.876 192.44L328.919 190.044V135.153L357.687 102.6C366.618 92.4807 371.545 79.4479 371.541 65.9516C371.542 65.8665 371.571 65.784 371.624 65.7169C371.676 65.6497 371.749 65.6017 371.831 65.5801C371.913 65.5585 372.001 65.5647 372.079 65.5975C372.158 65.6304 372.223 65.6881 372.266 65.7619C375.34 71.1783 377.132 77.2274 377.505 83.4444C377.877 89.6615 376.819 95.8812 374.412 101.626L368.86 114.764C368.41 115.832 368.231 116.994 368.338 118.147C368.445 119.301 368.835 120.41 369.474 121.377C370.113 122.343 370.981 123.137 372 123.687C373.019 124.238 374.159 124.528 375.318 124.532L420.656 124.678Z" fill="#521212"/>
<path d="M102.054 244.201C101.11 244.168 100.17 244.325 99.2877 244.664C98.4058 245.002 97.6012 245.515 96.9217 246.171C96.2423 246.827 95.7018 247.613 95.3327 248.482C94.9636 249.352 94.7734 250.287 94.7734 251.231C94.7734 252.176 94.9636 253.111 95.3327 253.98C95.7018 254.85 96.2423 255.636 96.9217 256.292C97.6012 256.948 98.4058 257.461 99.2877 257.799C100.17 258.137 101.11 258.295 102.054 258.262H122.745L118.874 281.677C118.685 282.604 118.684 283.559 118.873 284.486C119.061 285.414 119.435 286.293 119.971 287.073C120.508 287.852 121.196 288.516 121.994 289.023C122.793 289.53 123.686 289.871 124.619 290.026C125.553 290.18 126.508 290.144 127.427 289.921C128.347 289.698 129.211 289.291 129.97 288.726C130.729 288.16 131.366 287.448 131.842 286.631C132.319 285.813 132.627 284.909 132.746 283.97L136.996 258.262H153.953L150.083 281.677C149.893 282.604 149.893 283.559 150.081 284.486C150.27 285.414 150.643 286.293 151.18 287.073C151.716 287.852 152.404 288.516 153.203 289.023C154.001 289.53 154.894 289.871 155.828 290.026C156.761 290.18 157.716 290.144 158.635 289.921C159.555 289.698 160.42 289.291 161.178 288.726C161.937 288.16 162.574 287.448 163.051 286.631C163.528 285.813 163.835 284.909 163.954 283.97L168.204 258.262H196.412C197.356 258.295 198.297 258.137 199.179 257.799C200.061 257.461 200.866 256.948 201.545 256.292C202.225 255.636 202.765 254.85 203.134 253.98C203.503 253.111 203.693 252.176 203.693 251.231C203.693 250.287 203.503 249.352 203.134 248.482C202.765 247.613 202.225 246.827 201.545 246.171C200.866 245.515 200.061 245.002 199.179 244.664C198.297 244.325 197.356 244.168 196.412 244.201H170.549L173.385 227.045H196.438C198.26 226.981 199.986 226.212 201.253 224.901C202.519 223.589 203.227 221.837 203.227 220.014C203.227 218.191 202.519 216.439 201.253 215.128C199.986 213.816 198.26 213.048 196.438 212.984H175.748L179.618 189.569C179.808 188.642 179.808 187.686 179.62 186.759C179.431 185.832 179.058 184.952 178.521 184.173C177.985 183.393 177.297 182.73 176.498 182.223C175.7 181.715 174.807 181.374 173.873 181.22C172.94 181.066 171.985 181.101 171.066 181.325C170.146 181.548 169.281 181.954 168.523 182.52C167.764 183.085 167.127 183.798 166.65 184.615C166.173 185.432 165.866 186.337 165.747 187.276L161.497 212.984H144.513L148.384 189.569C148.613 187.764 148.133 185.94 147.046 184.48C145.959 183.021 144.348 182.04 142.553 181.743C140.757 181.447 138.917 181.857 137.417 182.889C135.918 183.92 134.877 185.493 134.513 187.276L130.263 212.984H102.054C100.232 213.048 98.5064 213.816 97.24 215.128C95.9736 216.439 95.2659 218.191 95.2659 220.014C95.2659 221.837 95.9736 223.589 97.24 224.901C98.5064 226.212 100.232 226.981 102.054 227.045H127.918L125.081 244.192L102.054 244.201ZM142.194 227.045H159.152L156.316 244.201H139.349L142.194 227.045Z" fill="#521212"/>
<path d="M273.544 350.792C270.685 348.439 267.313 346.79 263.699 345.978C260.086 345.167 256.333 345.215 252.741 346.12C246.965 347.632 241.879 351.075 238.33 355.877C234.781 360.679 232.982 366.551 233.232 372.518C233.227 377.121 234.143 381.678 235.927 385.922C237.712 390.165 240.327 394.009 243.62 397.226C251.501 404.739 260.521 410.957 270.346 415.649C271.36 416.187 272.491 416.468 273.639 416.468C274.787 416.468 275.918 416.187 276.932 415.649C299.2 403.838 314.003 391.984 314.003 372.543C314.216 366.5 312.316 360.571 308.629 355.778C304.942 350.985 299.699 347.628 293.804 346.284C290.307 345.44 286.663 345.407 283.151 346.189C279.64 346.97 276.353 348.545 273.544 350.792ZM299.968 372.509C299.968 383.018 293.002 390.785 273.63 401.441C254.259 390.777 247.293 383.009 247.293 372.509C247.033 369.697 247.767 366.883 249.367 364.556C250.967 362.23 253.333 360.538 256.052 359.775C256.862 359.58 257.693 359.482 258.526 359.482C260.389 359.476 262.214 360.006 263.784 361.009C265.354 362.012 266.603 363.445 267.38 365.138C267.984 366.305 268.902 367.28 270.031 367.952C271.16 368.624 272.455 368.967 273.768 368.941C275.082 368.915 276.362 368.521 277.464 367.805C278.566 367.088 279.445 366.078 280.001 364.888C280.923 362.924 282.513 361.353 284.488 360.454C286.462 359.555 288.691 359.388 290.778 359.982C293.557 360.621 296.015 362.237 297.702 364.537C299.389 366.836 300.193 369.666 299.968 372.509Z" fill="#521212"/>
</g>
</g>
</g>
<defs>
<clipPath id="clip0_1_31305">
<rect width="533.9" height="479.91" fill="white" transform="translate(0.0976562)"/>
</clipPath>
<clipPath id="clip1_1_31305">
<rect width="533.9" height="479.91" fill="white" transform="translate(0.0976562)"/>
</clipPath>
<clipPath id="clip2_1_31305">
<rect width="450.409" height="479.91" fill="white" transform="translate(41.8457)"/>
</clipPath>
</defs>
</svg>
