<svg width="80" height="80" viewBox="0 0 80 80" fill="none" xmlns="http://www.w3.org/2000/svg">
<rect width="80" height="80" rx="24" fill="#DCA629"/>
<path d="M49.0841 37.7663L44.6887 34.3882V28.1253L49.0841 31.5034V37.7663ZM44.1498 34.7803H34.5339V40.8989H44.1498V34.7803ZM45.8983 46.6783L49.0917 48.356V45.117L44.6862 41.7313V46.6378H45.754C45.8071 46.6378 45.8553 46.653 45.8983 46.6783ZM49.0841 24.198L44.6887 20.3289V27.4676L49.0841 30.8457V24.198ZM44.1498 20H34.5339V27.3304H44.1498V20ZM44.1498 27.8467H34.5339V34.2639H44.1498V27.8467ZM49.0917 38.7426C49.0866 38.7223 49.0841 38.6995 49.0841 38.6768V38.4237L44.6887 35.0456V41.0731L49.0942 44.4589V38.7426L49.0917 38.7426ZM64.8181 46.7538V44.1955L56.2802 41.1464V44.0463C56.3258 44.0362 56.3739 44.0387 56.4219 44.0539L64.818 46.7564L64.8181 46.7538ZM64.8181 40.291V37.085L56.2802 34.1446V37.2824C56.3283 37.2723 56.3789 37.2748 56.4295 37.2925L64.8178 40.2885L64.8181 40.291ZM64.8181 53.4671V50.4559L56.2802 48.1077V51.5491C56.3157 51.5415 56.3536 51.544 56.3916 51.5516L64.8181 53.4671ZM64.8181 49.9194V47.2928L56.2802 44.5448V47.6016C56.3207 47.594 56.3663 47.594 56.4093 47.6066L64.8181 49.9194ZM64.8181 56.5541V53.9933L56.2802 52.0525V55.2383C56.3131 55.2307 56.346 55.2307 56.3789 55.2358L64.8177 56.5516L64.8181 56.5541ZM64.8181 43.6462V40.8349L56.2802 37.7858V40.6401C56.3283 40.63 56.3789 40.6325 56.4295 40.6502L64.8181 43.6462ZM44.1497 41.4119H34.5339V46.6372H44.1497V41.4119ZM22.7875 47.6013V44.5471L14.4089 47.2901V49.9142L22.6605 47.6039C22.7035 47.5913 22.744 47.5913 22.7845 47.5988L22.7875 47.6013ZM22.7875 40.6375V37.7883L14.4089 40.8349V43.6437L22.6404 40.6502C22.6885 40.6325 22.7391 40.6299 22.7846 40.6375L22.7875 40.6375ZM22.7875 51.5464V48.105L14.4089 50.4507V53.4644L22.6786 51.5489C22.714 51.5413 22.752 51.5388 22.7849 51.5464L22.7875 51.5464ZM22.7875 55.2383V52.0524L14.4089 53.9907V56.5515L22.6935 55.2357C22.7264 55.2307 22.7568 55.2307 22.7871 55.2357L22.7875 55.2383ZM22.7875 44.0412V41.1463L14.4089 44.193V46.7487L22.6508 44.0487C22.6963 44.0335 22.7419 44.031 22.7874 44.0386L22.7875 44.0412ZM33.9975 28.1424L29.8602 31.4978V37.7707L33.9975 34.4154V28.1424ZM22.7875 37.2795V34.1443L14.4089 37.0822V40.2857L22.6404 37.2922C22.6885 37.2745 22.7391 37.272 22.7846 37.2796L22.7875 37.2795ZM33.9975 20.3482L29.8602 24.1919V30.824L33.9975 27.4687V20.3482ZM33.9975 35.088L29.8602 38.4434V44.3495L33.9975 40.9941V35.088ZM32.965 46.6369H33.9975V41.6671L29.8602 45.0225V48.231L32.8208 46.6774C32.8613 46.6521 32.9119 46.6369 32.965 46.6369ZM65.2309 59.5875C65.2309 59.8153 65.0462 60 64.8184 60H14.4125C14.1847 60 14 59.8153 14 59.5875C14 59.3598 14.1847 59.1751 14.4125 59.1751V57.0723L22.7832 55.7438H22.7908V59.1776H23.3298V34.0374H29.3244V48.5169L27.4443 49.5037C27.3558 49.5493 27.3051 49.6378 27.3051 49.7289V59.1776H27.8441V49.8805L29.7091 48.9013C29.7192 48.8962 29.7293 48.8911 29.7394 48.8861L32.7 47.3324V59.1799H33.239V47.1556H45.4913V59.1799H46.0303V47.3324L49.2238 49.0101C49.2339 49.0151 49.244 49.0202 49.2541 49.0253L50.8862 49.8831V59.1802H51.4252V49.7315C51.4252 49.6404 51.3746 49.5543 51.286 49.5063L49.6387 48.6409V38.3721C49.6463 38.3367 49.6463 38.2987 49.6387 38.2607V34.04H55.7522V59.1801H56.2912V55.7463C56.2963 55.7463 56.2988 55.7489 56.3039 55.7489L64.8288 57.0799V59.1827C65.0566 59.1827 65.2413 59.3674 65.2413 59.5951L65.2309 59.5875ZM37.153 59.1751H41.5661V52.4516C41.5661 52.3099 41.4446 52.1935 41.2979 52.1935H37.4238C37.2745 52.1935 37.1555 52.3099 37.1555 52.4516V59.1751H37.153Z" fill="#0B0B0B"/>
</svg>
