<svg width="80" height="80" viewBox="0 0 80 80" fill="none" xmlns="http://www.w3.org/2000/svg">
<rect width="80" height="80" rx="24" fill="#DCA629"/>
<path fill-rule="evenodd" clip-rule="evenodd" d="M53.2499 27.8987L51.1436 20.8481C50.9919 20.3329 50.5428 20 50.0064 20H31.1967C30.6609 20 30.2112 20.3329 30.0595 20.8481L27.9532 27.8987C28.4513 29.8221 30.2271 31.203 32.2307 31.203C33.725 31.203 35.1113 30.4541 35.934 29.1994C36.1582 28.8507 36.6734 28.8507 36.8977 29.1994C38.6103 31.8611 42.5922 31.8611 44.3048 29.1994C44.5291 28.8507 45.0443 28.8507 45.2686 29.1994C46.0918 30.4541 47.4775 31.203 48.9718 31.203C50.9754 31.2025 52.7518 29.8215 53.2499 27.8987ZM60.7219 44.1931C60.6139 44.0951 60.4729 44.0414 60.3265 44.0414H58.0904V45.1981H60.1046L63.1528 47.9884C62.4393 49.3552 63.4308 51.095 65.0585 51.095C66.2388 51.095 67.2025 50.1337 67.2025 48.9539C67.2025 47.2838 65.3571 46.2522 63.9324 47.1356L60.7219 44.1931ZM65.059 47.9695C65.6061 47.9695 66.0446 48.411 66.0446 48.9539C66.0446 49.4963 65.6061 49.9383 65.059 49.9383C64.5179 49.9383 64.0788 49.4969 64.0788 48.9539C64.0788 48.4116 64.5173 47.9695 65.059 47.9695ZM63.0012 39.3178H58.0904V40.4745H63.0012C63.2555 41.3751 64.0788 42.0366 65.0585 42.0366C66.2388 42.0366 67.2025 41.0765 67.2025 39.8961C67.2025 38.7158 66.2388 37.7556 65.0585 37.7556C64.0788 37.7556 63.2555 38.4178 63.0012 39.3178ZM64.0788 39.8961C64.0788 39.3538 64.5173 38.9123 65.059 38.9123C65.6061 38.9123 66.0446 39.3538 66.0446 39.8961C66.0446 40.4385 65.6061 40.8799 65.059 40.8799C64.5173 40.8799 64.0788 40.4385 64.0788 39.8961ZM58.0904 34.5941V35.7508H60.3265C60.4729 35.7508 60.6134 35.6971 60.7219 35.5992L63.933 32.6566C65.3636 33.5413 67.2031 32.5044 67.2031 30.8389C67.2031 29.6586 66.2394 28.6984 65.059 28.6984C63.4302 28.6984 62.4399 30.4394 63.1534 31.8044L60.1052 34.5947L58.0904 34.5941ZM65.059 31.8227C64.5179 31.8227 64.0788 31.3813 64.0788 30.8389C64.0788 30.2966 64.5173 29.8551 65.059 29.8551C65.6061 29.8551 66.0446 30.2966 66.0446 30.8389C66.044 31.3813 65.6055 31.8227 65.059 31.8227ZM23.1127 44.0414H20.8766C20.7302 44.0414 20.5897 44.0957 20.4812 44.1931L17.2701 47.1356C15.849 46.2545 14 47.2755 14 48.9539C14 50.1337 14.9584 51.095 16.1441 51.095C17.7635 51.095 18.7661 49.36 18.0497 47.9884L21.0979 45.1981H23.1121L23.1127 44.0414ZM16.1441 47.9695C16.6852 47.9695 17.1243 48.411 17.1243 48.9539C17.1243 49.4963 16.6858 49.9383 16.1441 49.9383C15.597 49.9383 15.1585 49.4969 15.1585 48.9539C15.1591 48.4116 15.5976 47.9695 16.1441 47.9695ZM23.1127 39.3178H18.202C17.9476 38.4178 17.119 37.7556 16.1446 37.7556C14.959 37.7556 14.0006 38.7158 14.0006 39.8961C14.0006 41.0765 14.959 42.0366 16.1446 42.0366C17.119 42.0366 17.9476 41.3745 18.202 40.4745H23.1127V39.3178ZM17.1243 39.8961C17.1243 40.4385 16.6858 40.8799 16.1441 40.8799C15.597 40.8799 15.1585 40.4385 15.1585 39.8961C15.1585 39.3538 15.597 38.9123 16.1441 38.9123C16.6858 38.9123 17.1243 39.3538 17.1243 39.8961ZM23.1127 35.7502V34.5935H21.0985L18.0503 31.8032C18.7661 30.4347 17.7652 28.6972 16.1446 28.6972C14.959 28.6972 14.0006 29.6574 14.0006 30.8377C14.0006 32.5114 15.8443 33.5377 17.2707 32.6554L20.4817 35.598C20.5897 35.6959 20.7308 35.7497 20.8772 35.7497L23.1127 35.7502ZM16.1441 31.8227C15.597 31.8227 15.1585 31.3813 15.1585 30.8389C15.1585 30.2966 15.597 29.8551 16.1441 29.8551C16.6852 29.8551 17.1243 30.2966 17.1243 30.8389C17.1243 31.3813 16.6858 31.8227 16.1441 31.8227ZM44.8194 55.2988H36.3837V57.5597C36.3837 57.879 36.124 58.138 35.8041 58.138H29.3773C29.0686 58.138 28.8196 58.3877 28.8196 58.6952V59.4411C28.8196 59.7498 29.0686 60 29.3773 60H51.8258C52.1345 60 52.3835 59.7504 52.3835 59.4411V58.6952C52.3835 58.3877 52.1345 58.138 51.8258 58.138H45.399C45.0797 58.138 44.8194 57.879 44.8194 57.5597V55.2988ZM56.8074 51.2703H24.3957C24.8236 52.9192 26.3232 54.142 28.1102 54.142H53.0929C54.8793 54.142 56.3795 52.9198 56.8074 51.2703ZM41.2513 34.4802V38.4762H47.7756V34.4802H41.2513ZM33.4275 34.4802V44.0715H37.564V34.4802H33.4275ZM28.6354 41.5026C28.6354 43.5569 30.3085 45.2282 32.3605 45.2282H48.842C50.894 45.2282 52.5671 43.5569 52.5671 41.5026V31.0331C53.0705 30.607 53.5037 30.0924 53.8342 29.511C55.5993 29.861 56.9313 31.4456 56.9313 33.2751V50.1136H24.2712V33.2751C24.2712 31.4456 25.6032 29.861 27.3684 29.511C27.6988 30.0924 28.132 30.607 28.6354 31.0337V41.5026ZM32.2685 33.9019V44.0692C30.8987 44.0208 29.7939 42.8883 29.7939 41.5026V31.7891C32.0407 32.8956 34.7572 32.3574 36.4161 30.4683C38.6292 32.9883 42.5739 32.9883 44.787 30.4683C46.4459 32.3574 49.1619 32.8956 51.4092 31.7891V41.5026C51.4092 42.9189 50.256 44.0715 48.8426 44.0715H38.7225V33.9019C38.7225 33.5826 38.4628 33.3235 38.1429 33.3235H32.8474C32.5287 33.3235 32.2685 33.5826 32.2685 33.9019ZM40.0928 39.054V33.9013C40.0928 33.582 40.3525 33.3229 40.6724 33.3229H48.3557C48.675 33.3229 48.9352 33.582 48.9352 33.9013V39.054C48.9352 39.3732 48.6756 39.6323 48.3557 39.6323H40.6718C40.3525 39.6323 40.0928 39.3738 40.0928 39.054Z" fill="#0B0B0B"/>
</svg>
