<svg width="80" height="80" viewBox="0 0 80 80" fill="none" xmlns="http://www.w3.org/2000/svg">
<rect width="80" height="80" rx="24" fill="#DCA629"/>
<path fill-rule="evenodd" clip-rule="evenodd" d="M29.124 44.1362V49.7417C27.7802 49.9886 26.7608 51.1692 26.7608 52.5841C26.7608 54.177 28.0544 55.4706 29.6473 55.4706C31.2423 55.4706 32.5358 54.177 32.5358 52.5841C32.5358 51.1692 31.5144 49.9886 30.1705 49.7417V44.7558L31.5582 44.2953C32.0543 44.9148 32.6195 45.4758 33.239 45.9719L32.6027 47.8829C33.1134 48.2492 33.6513 48.5758 34.2102 48.8625V58.1144H25.7289C25.4819 56.7706 24.3035 55.7491 22.8885 55.7491C21.2956 55.7491 20 57.0427 20 58.6376C20 60.2326 21.2957 61.5261 22.8885 61.5261C24.3035 61.5261 25.4819 60.5047 25.7289 59.1609H34.7338C35.0226 59.1609 35.257 58.9264 35.257 58.6376V48.5257L36.0712 47.6089C36.8101 47.8957 37.5804 48.1029 38.3632 48.2222L38.7693 50.196C39.0037 50.219 39.2423 50.2358 39.4767 50.2442V59.5084C38.133 59.7553 37.1115 60.9317 37.1115 62.3467C37.1115 63.9417 38.4051 65.2352 40 65.2352C41.5949 65.2352 42.8885 63.9416 42.8885 62.3467C42.8885 60.9317 41.8671 59.7554 40.5233 59.5084V50.2442C40.7598 50.2358 40.9963 50.219 41.2307 50.196L41.6368 48.2222C42.4196 48.1029 43.1899 47.8957 43.9288 47.6089L44.743 48.5257V58.6376C44.743 58.9264 44.9774 59.1609 45.2662 59.1609H54.2711C54.5181 60.5047 55.6986 61.5261 57.1136 61.5261C58.7044 61.5261 60 60.2326 60 58.6376C60 57.0427 58.7043 55.7491 57.1136 55.7491C55.6986 55.7491 54.5181 56.7705 54.2711 58.1144H45.7898V48.8625C46.3486 48.5757 46.8866 48.2492 47.3973 47.8829L46.761 45.9719C47.3805 45.4758 47.9457 44.9148 48.4397 44.2953L49.8295 44.7558V49.7417C48.4858 49.9886 47.4643 51.1692 47.4643 52.5841C47.4643 54.177 48.7579 55.4706 50.3528 55.4706C51.9457 55.4706 53.2392 54.177 53.2392 52.5841C53.2392 51.1692 52.2199 49.9886 50.876 49.7417V44.1362C51.1356 43.705 51.3742 43.2571 51.5835 42.7987L50.0765 41.4612C50.3653 40.7202 50.5704 39.952 50.6918 39.1671L52.6636 38.7631C52.7431 37.9447 52.7431 37.12 52.6636 36.3016L50.6918 35.8976C50.5704 35.1106 50.3653 34.3445 50.0765 33.6036L51.5835 32.266C51.2423 31.5188 50.83 30.8029 50.3527 30.1331L48.4396 30.7694C47.9456 30.1499 47.3805 29.5889 46.7609 29.0907L47.3972 27.1797C46.7274 26.7025 46.0158 26.2901 45.2664 25.951L43.9289 27.456C43.19 27.1692 42.4197 26.962 41.6369 26.8427L41.2309 24.8689C40.4125 24.7893 39.5878 24.7893 38.7693 24.8689L38.3632 26.8427C37.5804 26.962 36.8102 27.1692 36.0713 27.456L34.7338 25.951C33.9844 26.2901 33.2727 26.7024 32.6029 27.1797L33.2392 29.0907C32.6197 29.5889 32.0545 30.1499 31.5585 30.7694L29.6474 30.1331C29.1702 30.8029 28.7578 31.5187 28.4167 32.266L29.9237 33.6036C29.6349 34.3445 29.4297 35.1106 29.3084 35.8976L27.3366 36.3016C27.2571 37.12 27.2571 37.9447 27.3366 38.7631L29.3084 39.1671C29.4298 39.952 29.6349 40.7202 29.9237 41.4612L28.4167 42.7987C28.626 43.2571 28.8624 43.705 29.124 44.1362ZM40 29.1203C35.3574 29.1203 31.59 32.89 31.59 37.5325C31.59 42.1751 35.3576 45.9447 40 45.9447C44.6425 45.9447 48.4101 42.1749 48.4101 37.5325C48.4101 32.8899 44.6425 29.1203 40 29.1203ZM40 30.1668C44.0649 30.1668 47.3636 33.4677 47.3636 37.5325C47.3636 41.5974 44.0648 44.8982 40 44.8982C35.9352 44.8982 32.6365 41.5973 32.6365 37.5325C32.6365 33.4677 35.9352 30.1668 40 30.1668ZM40.5233 33.6749V32.9047C40.5233 32.6158 40.2889 32.3814 40 32.3814C39.7112 32.3814 39.4767 32.6158 39.4767 32.9047V33.6749H38.6834C37.888 33.6749 37.2371 34.3322 37.2371 35.1485V36.5844C37.2371 37.4007 37.888 38.0559 38.6834 38.0559H41.3166C41.5406 38.0559 41.7164 38.2505 41.7164 38.4808V39.9167C41.7164 40.1469 41.5406 40.3416 41.3166 40.3416H38.6834C38.4595 40.3416 38.2836 40.1469 38.2836 39.9167V39.0187C38.2836 38.7299 38.0492 38.4954 37.7603 38.4954C37.4715 38.4954 37.2371 38.7299 37.2371 39.0187V39.9167C37.2371 40.733 37.888 41.3882 38.6834 41.3882H39.4767V42.1605C39.4767 42.4494 39.7112 42.6838 40 42.6838C40.2889 42.6838 40.5233 42.4494 40.5233 42.1605V41.3882H41.3166C42.112 41.3882 42.763 40.733 42.763 39.9167V38.4808C42.763 37.6645 42.112 37.0093 41.3166 37.0093H38.6834C38.4595 37.0093 38.2836 36.8147 38.2836 36.5844V35.1485C38.2836 34.9183 38.4595 34.7215 38.6834 34.7215H41.3166C41.5406 34.7215 41.7164 34.9183 41.7164 35.1485V36.0465C41.7164 36.3353 41.9508 36.5698 42.2397 36.5698C42.5285 36.5698 42.763 36.3353 42.763 36.0465V35.1485C42.763 34.3322 42.112 33.6749 41.3166 33.6749H40.5233ZM26.6498 37.5326H26.0344C23.0538 37.5326 20.6342 35.1129 20.6342 32.1324C20.6342 29.1518 23.0539 26.7321 26.0344 26.7321C26.3128 26.7321 26.587 26.7531 26.8549 26.7928C27.5666 20.1661 33.1843 15 39.9997 15C46.8151 15 52.4328 20.1658 53.1444 26.7928C53.4124 26.7531 53.6865 26.7321 53.9649 26.7321C56.9455 26.7321 59.3651 29.1518 59.3651 32.1324C59.3651 35.1129 56.9455 37.5326 53.9649 37.5326H53.3496C53.3496 37.1014 53.3286 36.6702 53.2868 36.2411C53.2616 35.9669 53.0607 35.7429 52.7886 35.6864L51.2355 35.3661C51.1329 34.8324 50.9927 34.3028 50.8127 33.7879L51.9974 32.7372C52.2046 32.553 52.2674 32.2558 52.1523 32.0067C51.7964 31.2218 51.3652 30.4724 50.8629 29.7691C50.7018 29.5451 50.415 29.4509 50.1534 29.5388L48.6484 30.0391C48.2905 29.6268 47.9033 29.2416 47.493 28.8837L47.9933 27.3788C48.0791 27.1171 47.987 26.8304 47.7609 26.6692C47.0597 26.1689 46.3125 25.7356 45.5255 25.3777C45.2743 25.2647 44.9792 25.3275 44.797 25.5326L43.7421 26.7194C43.2271 26.5415 42.6997 26.3991 42.1638 26.2966L41.8457 24.7414C41.7913 24.4735 41.5652 24.2704 41.291 24.2432C40.4307 24.1595 39.5684 24.1595 38.7081 24.2432C38.4339 24.2704 38.2078 24.4735 38.1534 24.7414L37.8352 26.2966C37.2994 26.3991 36.7719 26.5415 36.257 26.7194L35.202 25.5326C35.0199 25.3275 34.7248 25.2647 34.4736 25.3777C33.6865 25.7356 32.9393 26.1689 32.2381 26.6692C32.012 26.8304 31.9199 27.1171 32.0058 27.3788L32.5081 28.8837C32.0958 29.2416 31.7085 29.6268 31.3506 30.0391L29.8456 29.5388C29.584 29.4509 29.2972 29.5451 29.1361 29.7691C28.6358 30.4724 28.2025 31.2217 27.8446 32.0067C27.7315 32.2557 27.7943 32.553 27.9995 32.7372L29.1862 33.7879C29.0083 34.3028 28.866 34.8324 28.7634 35.3661L27.2103 35.6864C26.9382 35.7429 26.7373 35.9669 26.7122 36.2411C26.6703 36.6702 26.6498 37.1014 26.6498 37.5326Z" fill="#0B0B0B"/>
</svg>
