<svg width="80" height="80" viewBox="0 0 80 80" fill="none" xmlns="http://www.w3.org/2000/svg">
<rect width="80" height="80" rx="24" fill="#DCA629"/>
<path fill-rule="evenodd" clip-rule="evenodd" d="M42.0388 52.1179V55.0649H30.5484V52.1179H42.0388ZM33.8953 26.0177L47.8654 20L61.8355 26.0177L47.8654 32.0354L33.8953 26.0177ZM62.174 35.178V27.3522L60.8144 27.9379V35.178C59.9777 35.4613 59.3754 36.2528 59.3754 37.1853C59.3754 38.3554 60.3239 39.304 61.4942 39.304C62.6644 39.304 63.6129 38.3554 63.6129 37.1853C63.6129 36.2528 63.0106 35.4612 62.174 35.178ZM56.4418 29.8213L47.8655 33.5156L39.2892 29.8214V35.16C39.2892 36.2739 40.2005 37.1853 41.3144 37.1853H54.4167C55.5306 37.1853 56.4418 36.2739 56.4418 35.16V29.8213ZM25.3938 56.4244H47.1935C48.1769 56.4244 48.9813 57.2288 48.9813 58.2122C48.9813 59.1956 48.1769 60 47.1935 60H25.3937C24.4102 60 23.6061 59.1955 23.6061 58.2121C23.6061 57.2288 24.4104 56.4244 25.3938 56.4244ZM21.355 47.0786C20.9797 47.0786 20.6752 46.7743 20.6752 46.3988C20.6752 46.0234 20.9796 45.719 21.355 45.719H51.2323C51.6077 45.719 51.9121 46.0234 51.9121 46.3988C51.9121 46.7743 51.6077 47.0786 51.2323 47.0786H21.355ZM21.355 42.4561C20.9797 42.4561 20.6752 42.1517 20.6752 41.7763C20.6752 41.4008 20.9796 41.0964 21.355 41.0964H51.2323C51.6077 41.0964 51.9121 41.4008 51.9121 41.7763C51.9121 42.1517 51.6077 42.4561 51.2323 42.4561H21.355ZM21.355 37.8338C20.9797 37.8338 20.6752 37.5294 20.6752 37.154C20.6752 36.7785 20.9796 36.4741 21.355 36.4741H34.9342C35.3096 36.4741 35.614 36.7785 35.614 37.154C35.614 37.5294 35.3096 37.8338 34.9342 37.8338H21.355ZM21.355 33.2114H34.9342C35.3096 33.2114 35.614 32.907 35.614 32.5316C35.614 32.1561 35.3096 31.8518 34.9342 31.8518H21.355C20.9797 31.8518 20.6752 32.1561 20.6752 32.5316C20.6752 32.907 20.9796 33.2114 21.355 33.2114ZM19.0933 26.0177C17.9419 26.0177 17 26.9595 17 28.111V48.6649C17 49.8164 17.9419 50.7584 19.0933 50.7584H53.494C54.6454 50.7584 55.5873 49.8164 55.5873 48.6649V38.3355C55.2222 38.4708 54.8278 38.5449 54.4166 38.5449H41.3144C39.4501 38.5449 37.9297 37.0243 37.9297 35.1601V29.2358L30.4589 26.0178L19.0933 26.0177Z" fill="#0B0B0B"/>
</svg>
