<svg width="80" height="80" viewBox="0 0 80 80" fill="none" xmlns="http://www.w3.org/2000/svg">
<rect width="80" height="80" rx="24" fill="#DCA629"/>
<path d="M34.5888 34.1073L40.6538 28.0422L38.5116 26.0898L36.2518 27.771C36.0891 27.8885 35.9083 27.9518 35.7095 27.9518H33.4768C32.9706 27.9518 32.5729 27.545 32.5729 27.0479C32.5729 26.5417 32.9706 26.144 33.4768 26.144H35.4112L38.0325 24.2006C38.385 23.9384 38.8641 23.9655 39.1805 24.2548L41.7928 26.6321C42.6967 24.9146 42.4346 22.7543 40.9883 21.299C39.3884 19.6991 36.5049 19.1206 35.0043 22.2662C34.8416 22.6097 34.3354 22.6097 34.1727 22.2662C32.6812 19.1206 29.7977 19.6991 28.1979 21.299C26.4262 23.0797 26.4262 25.936 28.1979 27.7076L34.5888 34.1073Z" fill="#0B0B0B"/>
<path d="M60.3306 53.6138L59.133 50.7959L55.4382 52.3664L54.6428 50.4885C54.5072 50.6332 54.3355 50.7416 54.1547 50.8139L51.7051 51.8534L52.4621 53.6296L48.7402 55.2115L49.9379 58.0294L51.1605 57.5097L52.218 60L60.1632 56.6239L59.1056 54.1336L60.3306 53.6138Z" fill="#0B0B0B"/>
<path d="M53.8 49.9803C54.1661 49.8267 54.3378 49.4018 54.1842 49.038C54.1096 48.8617 53.9718 48.7239 53.7887 48.6471C53.7006 48.6132 53.6102 48.5951 53.5221 48.5951C53.4249 48.5951 53.3322 48.6154 53.2373 48.6538L51.1968 49.5216C51.1425 49.5442 51.0838 49.5578 51.0228 49.5578C50.842 49.5578 50.6793 49.4493 50.607 49.2821C50.5595 49.1713 50.5595 49.0493 50.6024 48.9386C50.6476 48.8256 50.7335 48.7397 50.8442 48.6923L53.382 47.6143C53.556 47.5398 53.6938 47.3997 53.7661 47.2189C53.8362 47.0404 53.8339 46.8483 53.7594 46.6698C53.6464 46.4031 53.3842 46.2314 53.0927 46.2314C52.9978 46.2314 52.9074 46.2494 52.8148 46.2878L50.2771 47.3658C50.2228 47.3884 50.1641 47.4019 50.1031 47.4019C49.9223 47.4019 49.7573 47.2935 49.6873 47.1262C49.5901 46.8957 49.6986 46.6313 49.9268 46.5342L53.0001 45.2303C53.1786 45.1557 53.3142 45.0156 53.3865 44.8371C53.4588 44.6586 53.4566 44.4642 53.382 44.2835C53.2668 44.0191 53.0069 43.8473 52.7154 43.8473C52.6205 43.8473 52.5301 43.8654 52.4374 43.9038L49.3641 45.21C49.3076 45.2348 49.2511 45.2461 49.1901 45.2461C49.0048 45.2461 48.8421 45.1376 48.7698 44.9727C48.7224 44.8619 48.7224 44.7377 48.7676 44.6269C48.8128 44.5139 48.8986 44.4281 49.0094 44.3806L51.5403 43.3072C51.7166 43.2326 51.8544 43.0948 51.9312 42.9095C52.0013 42.731 51.999 42.5389 51.9267 42.3626C51.8522 42.1863 51.7121 42.0485 51.529 41.9717C51.4431 41.9378 51.3527 41.9197 51.2623 41.9197C51.1674 41.9197 51.0748 41.9378 50.9821 41.9762L48.4444 43.0451C48.3879 43.07 48.3314 43.0813 48.2704 43.0813C48.2117 43.0813 48.1529 43.07 48.0987 43.0451C47.9857 42.9999 47.8975 42.9072 47.8523 42.7965L47.6783 42.3717L48.2026 42.1502L50.6319 41.1288C50.6409 41.1198 50.659 41.1198 50.668 41.1198L49.1721 37.6645L53.2465 35.9335L52.0488 33.1156L50.8105 33.6421L49.7529 31.1518L41.7105 34.5686L42.7681 37.0589L41.5297 37.5854L42.7274 40.4034L46.1962 38.93L47.0866 40.9683L47.2244 41.2914L45.5318 42.01L44.246 45.4065C44.1782 45.5466 44.0471 45.6438 43.8912 45.6619C39.4869 46.2065 33.6951 47.847 30.6556 50.8096C30.572 50.891 30.459 50.9384 30.3392 50.9384C30.2443 50.9384 30.1517 50.909 30.0748 50.8525C29.8963 50.7237 29.8376 50.4865 29.9347 50.2831C30.0364 50.0684 32.3414 45.002 27.458 40.3467C27.3699 40.2631 27.3202 40.1524 27.3179 40.0303C27.3157 39.9106 27.3586 39.7953 27.4422 39.7072C27.5281 39.6168 27.6433 39.5671 27.7676 39.5671C27.8851 39.5671 27.9959 39.6123 28.0795 39.6914C28.3371 39.9354 28.5698 40.184 28.7913 40.4303L29.2727 40.9659L29.5461 40.2992C30.2512 38.5773 30.8251 35.1153 26.7304 31.2966L26.5541 31.1316L21.4154 32.3225L21.3295 32.3971C17.7342 35.5562 19.0878 39.3866 20.2132 41.3888L20.5996 42.078L20.9973 41.3933C21.386 40.7244 21.8628 40.0916 22.4119 39.5177C22.4978 39.4295 22.6153 39.3775 22.7396 39.3775C22.8571 39.3775 22.9679 39.4227 23.0515 39.5018C23.1373 39.5854 23.1871 39.6984 23.1916 39.8182C23.1938 39.9402 23.1509 40.0532 23.0673 40.1413C20.0798 43.2598 19.9149 47.3593 22.5747 52.3218C24.265 55.4764 26.64 58.0141 27.3293 58.7171L27.4694 58.8595L27.6682 58.8527C36.9445 58.5205 44.969 51.3663 45.308 51.0585C45.3893 50.9862 45.4888 50.9433 45.6447 50.9433C45.6515 50.9433 50.2614 51.4743 50.2614 51.4743L53.8 49.9803Z" fill="#0B0B0B"/>
<path d="M40.6523 28.0422L42.4602 29.6873C42.6229 29.841 42.8398 29.9224 43.0658 29.9224C43.111 29.9224 43.1652 29.9224 43.2104 29.9133C43.4816 29.8681 43.7166 29.7054 43.8522 29.4704L46.1482 25.4299H52.3671C52.8733 25.4299 53.271 25.0231 53.271 24.526C53.271 24.0198 52.8733 23.6221 52.3671 23.6221H45.6148C45.2894 23.6221 44.9911 23.7938 44.8284 24.074L42.8398 27.5902L41.7912 26.6321C41.5833 27.0208 41.3122 27.3824 40.9868 27.7078L40.6523 28.0422Z" fill="#0B0B0B"/>
</svg>
