<svg width="80" height="80" viewBox="0 0 80 80" fill="none" xmlns="http://www.w3.org/2000/svg">
<rect width="80" height="80" rx="24" fill="#DCA629"/>
<path fill-rule="evenodd" clip-rule="evenodd" d="M42.1634 55.5673C42.1366 55.5692 42.1099 55.5692 42.0812 55.5673L41.4889 55.5635L41.4583 59.9026L53.2947 60L53.3253 55.6609L42.1634 55.5673ZM52.4712 54.5184C52.9928 52.8542 54.0532 51.8989 55.2932 50.7831C57.007 49.2393 59.0935 47.3611 60.364 42.5961L63.0656 28.5049V28.4877C63.228 27.8877 63.2146 27.2534 63.0274 26.6611C62.993 26.5694 62.9223 26.4948 62.8325 26.4547C62.6911 26.428 62.5459 26.4452 62.416 26.5063C61.6498 26.9075 61.004 27.5094 60.5531 28.2469L56.4395 39.3916C56.0898 40.368 55.2911 41.1169 54.2919 41.3997L51.8214 42.1296L50.8891 43.8053V43.8033C50.7362 44.0785 50.3904 44.1759 50.1172 44.025C49.842 43.8721 49.7446 43.5263 49.8974 43.2531L50.9273 41.3997V41.3978C50.9617 41.3271 51.0095 41.266 51.0706 41.2144L53.9366 38.7802V38.7821C54.269 38.4917 54.4486 38.0637 54.4219 37.6224C54.4047 37.3912 54.3283 37.1657 54.2002 36.9709C54.0703 36.7722 53.8907 36.6117 53.6806 36.5028C53.2086 36.2888 52.666 36.2945 52.1998 36.52L47.962 39.3592C47.9295 39.3821 47.8951 39.4031 47.8588 39.4184C41.0624 42.3914 41.7751 46.9729 42.3884 50.9207C42.6082 52.0804 42.7228 53.2574 42.7343 54.4382L52.4712 54.5184ZM27.5297 54.5184L37.2662 54.4381C37.2777 53.2573 37.3923 52.0804 37.6121 50.9206C38.2254 46.9732 38.938 42.3912 32.1436 39.4183V39.4203C32.1073 39.4031 32.0729 39.384 32.0405 39.361L27.8026 36.5218C27.3364 36.2963 26.7938 36.2887 26.3219 36.5046C26.1098 36.6116 25.9321 36.7721 25.8022 36.9708C25.6742 37.1657 25.5978 37.3911 25.5806 37.6242C25.5538 38.0637 25.7334 38.4916 26.0659 38.7821L28.93 41.2144C28.9911 41.2659 29.0389 41.3271 29.0733 41.3978L30.1031 43.2511C30.256 43.5243 30.1566 43.8702 29.8834 44.023C29.6082 44.1759 29.2624 44.0765 29.1115 43.8033L28.1791 42.1276L25.7086 41.3978H25.7067C24.7094 41.115 23.9088 40.3679 23.5592 39.3897L19.4475 28.2489C18.9966 27.5094 18.3508 26.9076 17.5846 26.5082C17.4547 26.4471 17.3095 26.428 17.1681 26.4567C17.0783 26.4949 17.0076 26.5694 16.9732 26.663C16.786 27.2553 16.7726 27.8877 16.935 28.4877V28.5049L19.6366 42.5961C20.9072 47.3632 22.9936 49.2375 24.7074 50.7831C25.9474 51.8989 27.0081 52.8542 27.5297 54.5184ZM38.5429 59.9007L38.5123 55.5616L37.92 55.5654L37.9219 55.5674C37.8952 55.5693 37.8665 55.5693 37.8398 55.5674L26.6779 55.6591L26.7085 59.9981L38.5429 59.9007ZM25.0019 36.1419C24.9503 36.2069 24.8987 36.2776 24.851 36.3483H24.8529C24.6179 36.7036 24.4765 37.1144 24.444 37.5386C24.3886 38.3296 24.7058 39.0996 25.3 39.625L25.3248 39.646L26.1483 40.3453L26.0279 40.309C25.3745 40.1313 24.849 39.6422 24.6293 39.0002L20.4928 27.7924C20.4699 27.7313 20.4374 27.6759 20.3973 27.6262C20.1909 27.332 19.9693 27.0511 19.7323 26.7817C19.8432 26.7893 19.9502 26.8141 20.0533 26.8562C20.4259 27.0205 20.7698 27.244 21.0717 27.5173C21.3296 27.7294 21.5302 28.0007 21.6563 28.3083L25.0038 36.1421L25.0019 36.1419ZM27.8812 26.222H27.8831C27.736 23.1114 30.0193 20.4175 33.1124 20.0507C35.3899 19.7564 37.9177 20.727 39.5933 23.4001C39.6965 23.5663 39.8799 23.6675 40.0767 23.6675C40.2735 23.6656 40.455 23.5625 40.5582 23.3943C41.8956 21.0862 44.4826 19.8004 47.131 20.1252C48.5908 20.3067 49.9378 21.006 50.9237 22.097C51.9612 23.2968 52.456 24.8712 52.2879 26.4475C51.9879 30.1771 48.6997 35.1808 39.8803 40.6625C31.9222 35.712 28.6225 31.0326 27.996 27.3607H30.8276L31.8211 31.0673V31.0692C31.8803 31.2947 32.0752 31.4609 32.3083 31.4877C32.5414 31.5125 32.7668 31.3921 32.8738 31.1839L34.8781 27.7122V32.1124H34.88C34.88 32.3723 35.0577 32.5997 35.3099 32.6646C35.5621 32.7277 35.8258 32.6111 35.95 32.3818L38.3497 28.6866H43.0213C43.3289 28.679 43.5734 28.4249 43.5734 28.1173C43.5734 27.8096 43.3289 27.5575 43.0213 27.5479H38.0439C37.851 27.5479 37.6733 27.6434 37.5682 27.8058L36.0205 30.1903L36.0186 25.5875C36.0224 25.3277 35.8505 25.1003 35.6002 25.0334C35.3499 24.9666 35.0862 25.0774 34.9601 25.3028L32.5661 29.4451L31.8229 26.6747C31.7675 26.411 31.5363 26.2219 31.2669 26.2219L27.8812 26.222ZM53.8509 40.3455L54.6744 39.6443C54.6839 39.6366 54.6916 39.6309 54.6992 39.6232C55.7195 38.7329 55.8513 37.1948 54.9973 36.142L58.3447 28.3082H58.3428C58.4059 28.1553 58.488 28.012 58.5855 27.8783C58.6848 27.7446 58.7995 27.6242 58.9275 27.5172C59.2294 27.244 59.5733 27.0204 59.9458 26.8561C60.049 26.8141 60.156 26.7873 60.2668 26.7816C60.0299 27.0491 59.8083 27.3318 59.6019 27.6242C59.5618 27.6739 59.5293 27.7312 59.5064 27.7904L55.3698 38.9982V39.0001C55.1501 39.6402 54.6266 40.1293 53.9732 40.3089L53.8528 40.3452L53.8509 40.3455ZM26.8438 27.3606H25.2293C25.0764 27.3664 24.9274 27.3091 24.8166 27.2002C24.7058 27.0932 24.6427 26.946 24.6427 26.7913C24.6427 26.6384 24.7058 26.4894 24.8166 26.3824C24.9274 26.2754 25.0764 26.2181 25.2293 26.2219H26.7464C26.7368 26.604 26.7693 26.9862 26.8438 27.3606Z" fill="#0B0B0B"/>
</svg>
