<svg width="100" height="100" viewBox="0 0 100 100" fill="none" xmlns="http://www.w3.org/2000/svg">
<circle cx="50" cy="50" r="50" fill="#521212"/>
<path d="M47.5 65V72.5C47.5 73.875 46.375 75 45 75C43.625 75 42.5 73.875 42.5 72.5V65H47.5Z" fill="white"/>
<path d="M57.5 65V72.5C57.5 73.875 56.375 75 55 75C53.625 75 52.5 73.875 52.5 72.5V65H57.5Z" fill="white"/>
<path d="M62.5 47.5V60C62.5 62.75 60.25 65 57.5 65H42.5C39.75 65 37.5 62.75 37.5 60V47.5C37.5 44.75 39.75 42.5 42.5 42.5H57.5C60.25 42.5 62.5 44.75 62.5 47.5Z" fill="white"/>
<path d="M32.5 47.5V57.5C32.5 58.875 31.375 60 30 60C28.625 60 27.5 58.875 27.5 57.5V47.5C27.5 46.125 28.625 45 30 45C31.375 45 32.5 46.125 32.5 47.5Z" fill="white"/>
<path d="M72.5 47.5V57.5C72.5 58.875 71.375 60 70 60C68.625 60 67.5 58.875 67.5 57.5V47.5C67.5 46.125 68.625 45 70 45C71.375 45 72.5 46.125 72.5 47.5Z" fill="white"/>
<path d="M43.9999 39H56.0001C58.2001 39 60 37.2 60 35C60 29.475 55.525 25 50 25C44.475 25 40 29.475 40 35C40 37.2 41.7999 39 43.9999 39Z" fill="white"/>
</svg>
