<svg width="100" height="100" viewBox="0 0 100 100" fill="none" xmlns="http://www.w3.org/2000/svg">
<circle cx="50" cy="50" r="50" fill="#521212"/>
<path d="M57.5008 24.0498H42.5008C34.5258 24.0498 31.5508 27.0248 31.5508 34.9998V64.9998C31.5508 72.9748 34.5258 75.9498 42.5008 75.9498H57.5008C65.4758 75.9498 68.4508 72.9748 68.4508 64.9998V34.9998C68.4508 27.0248 65.4758 24.0498 57.5008 24.0498ZM50.0008 34.9998C52.0758 34.9998 53.7508 36.6748 53.7508 38.7498C53.7508 40.8248 52.0758 42.4998 50.0008 42.4998C47.9258 42.4998 46.2508 40.8248 46.2508 38.7498C46.2508 36.6748 47.9258 34.9998 50.0008 34.9998ZM50.0008 64.9998C45.8508 64.9998 42.5008 61.6498 42.5008 57.4998C42.5008 53.3498 45.8508 49.9998 50.0008 49.9998C54.1508 49.9998 57.5008 53.3498 57.5008 57.4998C57.5008 61.6498 54.1508 64.9998 50.0008 64.9998Z" fill="white"/>
</svg>
