<svg width="100" height="100" viewBox="0 0 100 100" fill="none" xmlns="http://www.w3.org/2000/svg">
<circle cx="50" cy="50" r="50" fill="#521212"/>
<g filter="url(#filter0_d_57_2)">
<path fill-rule="evenodd" clip-rule="evenodd" d="M67.75 67.9C69.225 65.65 69.775 64.5 70.9 61.975C62.6 58.825 61.275 47 69.475 42.475C66.975 39.325 63.45 37.5 60.125 37.5C57.725 37.5 56.075 38.125 54.6 38.7C53.35 39.175 52.225 39.6 50.825 39.6C49.325 39.6 48 39.125 46.6 38.625C45.075 38.075 43.475 37.5 41.475 37.5C37.75 37.5 33.775 39.775 31.25 43.675C27.7 49.175 28.325 59.475 34.05 68.275C36.1 71.425 38.85 74.95 42.425 75C43.925 75.025 44.9 74.575 45.975 74.1C47.2 73.55 48.525 72.95 50.85 72.95C53.175 72.925 54.475 73.55 55.7 74.1C56.75 74.575 57.7 75.025 59.175 75C62.8 74.95 65.7 71.05 67.75 67.9Z" fill="white"/>
<path fill-rule="evenodd" clip-rule="evenodd" d="M59.5991 25C59.9991 27.75 58.8741 30.475 57.3991 32.375C55.8241 34.425 53.0741 36.025 50.4241 35.925C49.9491 33.275 51.1741 30.55 52.6741 28.725C54.3491 26.725 57.1741 25.175 59.5991 25Z" fill="white"/>
</g>
<defs>
<filter id="filter0_d_57_2" x="16" y="20" width="68" height="68" filterUnits="userSpaceOnUse" color-interpolation-filters="sRGB">
<feFlood flood-opacity="0" result="BackgroundImageFix"/>
<feColorMatrix in="SourceAlpha" type="matrix" values="0 0 0 0 0 0 0 0 0 0 0 0 0 0 0 0 0 0 127 0" result="hardAlpha"/>
<feOffset dy="4"/>
<feGaussianBlur stdDeviation="2"/>
<feComposite in2="hardAlpha" operator="out"/>
<feColorMatrix type="matrix" values="0 0 0 0 0 0 0 0 0 0 0 0 0 0 0 0 0 0 0.25 0"/>
<feBlend mode="normal" in2="BackgroundImageFix" result="effect1_dropShadow_57_2"/>
<feBlend mode="normal" in="SourceGraphic" in2="effect1_dropShadow_57_2" result="shape"/>
</filter>
</defs>
</svg>
