<svg width="30" height="30" viewBox="0 0 30 30" fill="none" xmlns="http://www.w3.org/2000/svg">
<mask id="path-1-inside-1_170_42966" fill="white">
<path fill-rule="evenodd" clip-rule="evenodd" d="M16 24.171V23H14V24.171C13.148 24.473 12.472 25.148 12.171 26H1C0.448 26 0 26.448 0 27C0 27.552 0.448 28 1 28H12.171C12.583 29.165 13.695 30 15 30C16.305 30 17.417 29.165 17.829 28H29C29.552 28 30 27.552 30 27C30 26.448 29.552 26 29 26H17.829C17.527 25.148 16.852 24.472 16 24.171ZM15 26C15.552 26 16 26.448 16 27C16 27.552 15.552 28 15 28C14.448 28 14 27.552 14 27C14 26.448 14.448 26 15 26ZM16 12V11H14V12H3C2.204 12 1.441 12.316 0.879 12.879C0.316 13.441 0 14.204 0 15V19C0 19.796 0.316 20.559 0.879 21.121C1.441 21.684 2.204 22 3 22C8.154 22 21.846 22 27 22C27.796 22 28.559 21.684 29.121 21.121C29.684 20.559 30 19.796 30 19V15C30 14.204 29.684 13.441 29.121 12.879C28.559 12.316 27.796 12 27 12H16ZM28 15V19C28 19.265 27.895 19.52 27.707 19.707C27.52 19.895 27.265 20 27 20H3C2.735 20 2.48 19.895 2.293 19.707C2.105 19.52 2 19.265 2 19V15C2 14.735 2.105 14.48 2.293 14.293C2.48 14.105 2.735 14 3 14H27C27.265 14 27.52 14.105 27.707 14.293C27.895 14.48 28 14.735 28 15ZM9 16V18C9 18.552 9.448 19 10 19C10.552 19 11 18.552 11 18V16C11 15.448 10.552 15 10 15C9.448 15 9 15.448 9 16ZM5 16V18C5 18.552 5.448 19 6 19C6.552 19 7 18.552 7 18V16C7 15.448 6.552 15 6 15C5.448 15 5 15.448 5 16ZM23 18H25C25.552 18 26 17.552 26 17C26 16.448 25.552 16 25 16H23C22.448 16 22 16.448 22 17C22 17.552 22.448 18 23 18ZM30 3C30 2.204 29.684 1.441 29.121 0.879C28.559 0.316 27.796 0 27 0C21.846 0 8.154 0 3 0C2.204 0 1.441 0.316 0.879 0.879C0.316 1.441 0 2.204 0 3V7C0 7.796 0.316 8.559 0.879 9.121C1.441 9.684 2.204 10 3 10C8.154 10 21.846 10 27 10C27.796 10 28.559 9.684 29.121 9.121C29.684 8.559 30 7.796 30 7V3ZM28 3V7C28 7.265 27.895 7.52 27.707 7.707C27.52 7.895 27.265 8 27 8H3C2.735 8 2.48 7.895 2.293 7.707C2.105 7.52 2 7.265 2 7V3C2 2.735 2.105 2.48 2.293 2.293C2.48 2.105 2.735 2 3 2H27C27.265 2 27.52 2.105 27.707 2.293C27.895 2.48 28 2.735 28 3ZM5 4V6C5 6.552 5.448 7 6 7C6.552 7 7 6.552 7 6V4C7 3.448 6.552 3 6 3C5.448 3 5 3.448 5 4ZM9 4V6C9 6.552 9.448 7 10 7C10.552 7 11 6.552 11 6V4C11 3.448 10.552 3 10 3C9.448 3 9 3.448 9 4ZM23 6H25C25.552 6 26 5.552 26 5C26 4.448 25.552 4 25 4H23C22.448 4 22 4.448 22 5C22 5.552 22.448 6 23 6Z"/>
</mask>
<path fill-rule="evenodd" clip-rule="evenodd" d="M16 24.171V23H14V24.171C13.148 24.473 12.472 25.148 12.171 26H1C0.448 26 0 26.448 0 27C0 27.552 0.448 28 1 28H12.171C12.583 29.165 13.695 30 15 30C16.305 30 17.417 29.165 17.829 28H29C29.552 28 30 27.552 30 27C30 26.448 29.552 26 29 26H17.829C17.527 25.148 16.852 24.472 16 24.171ZM15 26C15.552 26 16 26.448 16 27C16 27.552 15.552 28 15 28C14.448 28 14 27.552 14 27C14 26.448 14.448 26 15 26ZM16 12V11H14V12H3C2.204 12 1.441 12.316 0.879 12.879C0.316 13.441 0 14.204 0 15V19C0 19.796 0.316 20.559 0.879 21.121C1.441 21.684 2.204 22 3 22C8.154 22 21.846 22 27 22C27.796 22 28.559 21.684 29.121 21.121C29.684 20.559 30 19.796 30 19V15C30 14.204 29.684 13.441 29.121 12.879C28.559 12.316 27.796 12 27 12H16ZM28 15V19C28 19.265 27.895 19.52 27.707 19.707C27.52 19.895 27.265 20 27 20H3C2.735 20 2.48 19.895 2.293 19.707C2.105 19.52 2 19.265 2 19V15C2 14.735 2.105 14.48 2.293 14.293C2.48 14.105 2.735 14 3 14H27C27.265 14 27.52 14.105 27.707 14.293C27.895 14.48 28 14.735 28 15ZM9 16V18C9 18.552 9.448 19 10 19C10.552 19 11 18.552 11 18V16C11 15.448 10.552 15 10 15C9.448 15 9 15.448 9 16ZM5 16V18C5 18.552 5.448 19 6 19C6.552 19 7 18.552 7 18V16C7 15.448 6.552 15 6 15C5.448 15 5 15.448 5 16ZM23 18H25C25.552 18 26 17.552 26 17C26 16.448 25.552 16 25 16H23C22.448 16 22 16.448 22 17C22 17.552 22.448 18 23 18ZM30 3C30 2.204 29.684 1.441 29.121 0.879C28.559 0.316 27.796 0 27 0C21.846 0 8.154 0 3 0C2.204 0 1.441 0.316 0.879 0.879C0.316 1.441 0 2.204 0 3V7C0 7.796 0.316 8.559 0.879 9.121C1.441 9.684 2.204 10 3 10C8.154 10 21.846 10 27 10C27.796 10 28.559 9.684 29.121 9.121C29.684 8.559 30 7.796 30 7V3ZM28 3V7C28 7.265 27.895 7.52 27.707 7.707C27.52 7.895 27.265 8 27 8H3C2.735 8 2.48 7.895 2.293 7.707C2.105 7.52 2 7.265 2 7V3C2 2.735 2.105 2.48 2.293 2.293C2.48 2.105 2.735 2 3 2H27C27.265 2 27.52 2.105 27.707 2.293C27.895 2.48 28 2.735 28 3ZM5 4V6C5 6.552 5.448 7 6 7C6.552 7 7 6.552 7 6V4C7 3.448 6.552 3 6 3C5.448 3 5 3.448 5 4ZM9 4V6C9 6.552 9.448 7 10 7C10.552 7 11 6.552 11 6V4C11 3.448 10.552 3 10 3C9.448 3 9 3.448 9 4ZM23 6H25C25.552 6 26 5.552 26 5C26 4.448 25.552 4 25 4H23C22.448 4 22 4.448 22 5C22 5.552 22.448 6 23 6Z" fill="#DCA629" stroke="#1D1D1D" stroke-width="0.8" mask="url(#path-1-inside-1_170_42966)"/>
</svg>
