<svg width="30" height="30" viewBox="0 0 30 30" fill="none" xmlns="http://www.w3.org/2000/svg">
<path d="M29.0455 4.78847H28.2634C28.1639 4.78847 28.0877 4.73545 28.0546 4.64266C28.0247 4.56644 27.9916 4.48691 27.9585 4.41401C27.9187 4.32453 27.9353 4.23175 28.0049 4.16216L28.5583 3.60875C28.9328 3.23429 28.9328 2.62786 28.5583 2.25671L27.7464 1.44814C27.3719 1.07368 26.7654 1.07368 26.3942 1.44814L25.8407 2.00155C25.7711 2.07114 25.6783 2.08771 25.5888 2.04794C25.5126 2.0148 25.4364 1.98166 25.3568 1.95184C25.264 1.91539 25.211 1.83917 25.211 1.74307V0.957694C25.211 0.430796 24.7802 0 24.2532 0H23.1098C22.5829 0 22.152 0.430796 22.152 0.957694V1.73975C22.152 1.83917 22.099 1.91539 22.0062 1.94853C21.9266 1.97835 21.8504 2.01149 21.7775 2.04463C21.688 2.08439 21.5952 2.06782 21.5256 1.99823L20.9788 1.44814C20.6043 1.07368 19.9978 1.07368 19.6266 1.44814L18.8179 2.25671C18.5893 2.48536 18.5031 2.80018 18.5528 3.09511L2.28679 3.08185C1.02408 3.08185 0 4.10914 0 5.36839V20.8704C0 22.1297 1.0274 23.157 2.28679 23.157L10.1381 23.1636L9.29629 27.2396H7.90102C7.13875 27.2396 6.519 27.8593 6.519 28.6214V29.6355C6.519 29.8376 6.6814 30 6.88356 30H20.0376C20.2397 30 20.4021 29.8376 20.4021 29.6355V28.6214C20.4021 27.8593 19.7824 27.2396 19.0201 27.2396H17.6248L16.783 23.1669L24.631 23.1735C24.631 23.1735 24.631 23.1735 24.6343 23.1735C25.2441 23.1735 25.8175 22.9349 26.2517 22.5041C26.6825 22.07 26.9211 21.4967 26.9211 20.887V11.4492C26.9708 11.4559 27.0205 11.4625 27.0703 11.4625C27.3255 11.4625 27.5674 11.3631 27.7464 11.1841L28.555 10.3756C28.9295 10.0011 28.9295 9.39468 28.555 9.02353L28.0015 8.47012C27.9319 8.40053 27.9154 8.30774 27.9551 8.21827C27.9883 8.14205 28.0214 8.06583 28.0513 7.9863C28.0877 7.89352 28.1639 7.84049 28.2601 7.84049H29.0422C29.5692 7.84049 30 7.4097 30 6.8828V5.73953C30 5.21595 29.5725 4.78847 29.0455 4.78847ZM2.28679 3.81089L19.0367 3.82415L19.3714 4.15884C19.441 4.22843 19.4576 4.32122 19.4178 4.41069C19.3847 4.48691 19.3515 4.56313 19.3217 4.64266C19.2852 4.73545 19.209 4.78847 19.1129 4.78847H18.3308C17.8038 4.78847 17.373 5.21926 17.373 5.74616V6.88943C17.373 7.41633 17.8038 7.84712 18.3308 7.84712H19.1129C19.2123 7.84712 19.2886 7.90014 19.3217 7.99293C19.3515 8.06915 19.3847 8.14537 19.4178 8.2249C19.4576 8.31437 19.441 8.40716 19.3714 8.47675L18.8179 9.03016C18.4434 9.40462 18.4434 10.011 18.8179 10.3822L19.6266 11.1908C20.0011 11.5652 20.6076 11.5652 20.9788 11.1908L21.5323 10.6374C21.6019 10.5678 21.6947 10.5512 21.7841 10.591C21.8604 10.6241 21.9366 10.6572 22.0161 10.6871C22.1089 10.7235 22.162 10.7997 22.162 10.8958V11.6779C22.162 12.2048 22.5928 12.6356 23.1198 12.6356H24.2631C24.7901 12.6356 25.2209 12.2048 25.2209 11.6779V10.8958C25.2209 10.7964 25.274 10.7202 25.3668 10.6871C25.443 10.6572 25.5225 10.6241 25.5954 10.591C25.6849 10.5512 25.7777 10.5678 25.8473 10.6374L26.1953 10.9853V19.3527H0.729121V5.36839C0.729121 4.51011 1.42841 3.81089 2.28679 3.81089ZM19.673 28.6214V29.271H7.24812V28.6214C7.24812 28.2636 7.53977 27.9719 7.8977 27.9719H9.59125H17.3266H19.0201C19.3814 27.9719 19.673 28.2636 19.673 28.6214ZM16.8791 27.2396H10.042L10.8838 23.1636L16.0373 23.1669L16.8791 27.2396ZM25.7346 21.9872C25.4397 22.2821 25.0519 22.4445 24.6376 22.4445L16.4185 22.4379C16.3688 22.4279 16.3157 22.4246 16.2627 22.4346C16.2594 22.4346 16.2561 22.4379 16.2561 22.4379L2.28679 22.4246C1.42841 22.4246 0.729121 21.7254 0.729121 20.8704V20.0817H26.1887V20.8903C26.1887 21.3012 26.0296 21.6923 25.7346 21.9872ZM29.2709 6.88612C29.2709 7.01204 29.1715 7.11145 29.0455 7.11145H28.2634C27.8623 7.11145 27.5144 7.35336 27.3685 7.72451C27.342 7.79079 27.3155 7.85706 27.289 7.92003C27.1266 8.28455 27.2028 8.7054 27.4878 8.98708L28.0413 9.54048C28.1308 9.62996 28.1308 9.77245 28.0413 9.85861L27.2327 10.6672C27.1465 10.7533 26.9973 10.7533 26.9145 10.6672L26.361 10.1138C26.0793 9.8321 25.6584 9.75257 25.2939 9.91495C25.2309 9.94477 25.1646 9.97128 25.0983 9.99448C24.7238 10.137 24.4852 10.4882 24.4852 10.8892V11.6713C24.4852 11.7972 24.3858 11.8966 24.2598 11.8966H23.1164C22.9905 11.8966 22.8911 11.7972 22.8911 11.6713V10.8892C22.8911 10.4882 22.6491 10.1403 22.2779 9.99448C22.2117 9.96797 22.1487 9.94146 22.0824 9.91495C21.9565 9.85861 21.8206 9.8321 21.6913 9.8321C21.4428 9.8321 21.2008 9.9282 21.0186 10.1138L20.4651 10.6672C20.3756 10.7533 20.2331 10.7567 20.1469 10.6672L19.3383 9.85861C19.2488 9.76914 19.2521 9.62664 19.3383 9.54048L19.8917 8.98708C20.1734 8.7054 20.253 8.28455 20.0906 7.92003C20.0608 7.85706 20.0342 7.79079 20.011 7.72451C19.8685 7.35005 19.5172 7.11145 19.1162 7.11145H18.3341C18.2081 7.11145 18.1087 7.01204 18.1087 6.88612V5.74285C18.1087 5.61692 18.2081 5.51751 18.3341 5.51751H19.1162C19.5172 5.51751 19.8652 5.2756 20.011 4.90445C20.0376 4.83818 20.0641 4.77521 20.0906 4.70894C20.253 4.34442 20.1768 3.92356 19.8951 3.64189L19.3416 3.08848C19.2521 2.99901 19.2521 2.85651 19.3416 2.77035L20.1502 1.96178C20.2397 1.87562 20.3822 1.87562 20.4684 1.96178L21.0219 2.51519C21.3036 2.79686 21.7245 2.87639 22.089 2.7107C22.152 2.68088 22.2183 2.65437 22.2813 2.63117C22.6558 2.48868 22.8944 2.13741 22.8944 1.73644V0.957694C22.8944 0.835082 22.9938 0.732354 23.1198 0.732354H24.2631C24.3858 0.732354 24.4885 0.831768 24.4885 0.957694V1.73975C24.4885 2.14073 24.7304 2.48868 25.1016 2.63449C25.1646 2.65768 25.2309 2.68751 25.2972 2.71402C25.6617 2.87639 26.0826 2.80018 26.3643 2.5185L26.9178 1.96509C27.0073 1.87894 27.1498 1.87562 27.236 1.96509L28.0446 2.77367C28.1341 2.86314 28.1341 3.00563 28.0446 3.09179L27.4912 3.6452C27.2095 3.92688 27.1299 4.34773 27.2956 4.71225C27.3255 4.77521 27.352 4.84149 27.3752 4.90445C27.5177 5.27891 27.869 5.51751 28.27 5.51751H29.0521C29.1781 5.51751 29.2775 5.61692 29.2775 5.74285V6.88612H29.2709ZM23.6865 3.65846C22.2216 3.65846 21.0285 4.85143 21.0285 6.31614C21.0285 7.78085 22.2216 8.97382 23.6865 8.97382C25.1513 8.97382 26.3445 7.78085 26.3445 6.31614C26.3445 4.85143 25.1513 3.65846 23.6865 3.65846ZM23.6865 8.24147C22.6259 8.24147 21.7609 7.37656 21.7609 6.31614C21.7609 5.25572 22.6259 4.39081 23.6865 4.39081C24.747 4.39081 25.612 5.25572 25.612 6.31614C25.612 7.37656 24.7503 8.24147 23.6865 8.24147ZM4.05988 8.06583C3.91737 7.92334 3.91737 7.69137 4.05988 7.54888L5.69377 5.91517C5.83628 5.77267 6.06827 5.77267 6.21078 5.91517C6.35329 6.05766 6.35329 6.28963 6.21078 6.43212L4.8354 7.80736L6.21078 9.18259C6.35329 9.32509 6.35329 9.55705 6.21078 9.69955C6.13787 9.77245 6.04507 9.80559 5.95228 9.80559C5.85948 9.80559 5.76337 9.76914 5.69377 9.69955L4.05988 8.06583ZM9.79342 9.18259L11.1688 7.80736L9.79342 6.43212C9.65091 6.28963 9.65091 6.05766 9.79342 5.91517C9.93593 5.77267 10.1679 5.77267 10.3104 5.91517L11.9443 7.54888C12.0868 7.69137 12.0868 7.92334 11.9443 8.06583L10.3104 9.69955C10.2375 9.77245 10.1447 9.80559 10.0519 9.80559C9.95912 9.80559 9.86301 9.76914 9.79342 9.69955C9.65091 9.55705 9.65091 9.32509 9.79342 9.18259ZM7.04596 9.95802L8.24901 5.46449C8.30203 5.26897 8.50088 5.15299 8.69642 5.20601C8.89196 5.25903 9.00795 5.45786 8.95493 5.65338L7.75188 10.1469C7.70879 10.3093 7.55965 10.4186 7.39726 10.4186C7.36743 10.4186 7.33429 10.4153 7.30115 10.4054C7.10893 10.3557 6.99293 10.1535 7.04596 9.95802ZM3.30756 12.6621C3.30756 12.46 3.46995 12.2976 3.67212 12.2976H5.67057C5.87274 12.2976 6.03513 12.46 6.03513 12.6621C6.03513 12.8642 5.87274 13.0266 5.67057 13.0266H3.67212C3.46995 13.0299 3.30756 12.8642 3.30756 12.6621ZM7.92753 12.2976H16.846C17.0482 12.2976 17.2106 12.46 17.2106 12.6621C17.2106 12.8642 17.0482 13.0266 16.846 13.0266H7.92753C7.72536 13.0266 7.56297 12.8642 7.56297 12.6621C7.56297 12.46 7.72536 12.2976 7.92753 12.2976ZM14.3902 14.7664H23.249C23.4512 14.7664 23.6136 14.9288 23.6136 15.1309C23.6136 15.333 23.4512 15.4954 23.249 15.4954H14.3902C14.188 15.4954 14.0256 15.333 14.0256 15.1309C14.0256 14.9288 14.188 14.7664 14.3902 14.7664ZM3.30756 15.1309C3.30756 14.9288 3.46995 14.7664 3.67212 14.7664H12.1332C12.3354 14.7664 12.4978 14.9288 12.4978 15.1309C12.4978 15.333 12.3354 15.4954 12.1332 15.4954H3.67212C3.46995 15.4987 3.30756 15.333 3.30756 15.1309ZM17.8668 17.603C17.8668 17.8051 17.7044 17.9675 17.5022 17.9675H9.05435C8.85219 17.9675 8.68979 17.8051 8.68979 17.603C8.68979 17.4009 8.85219 17.2385 9.05435 17.2385H17.4989C17.7011 17.2352 17.8668 17.4009 17.8668 17.603ZM3.30756 17.603C3.30756 17.4009 3.46995 17.2385 3.67212 17.2385H6.79739C6.99956 17.2385 7.16195 17.4009 7.16195 17.603C7.16195 17.8051 6.99956 17.9675 6.79739 17.9675H3.67212C3.46995 17.9675 3.30756 17.8018 3.30756 17.603ZM23.6136 17.603C23.6136 17.8051 23.4512 17.9675 23.249 17.9675H19.7559C19.5537 17.9675 19.3913 17.8051 19.3913 17.603C19.3913 17.4009 19.5537 17.2385 19.7559 17.2385H23.2457C23.4512 17.2352 23.6136 17.4009 23.6136 17.603Z" fill="#DCA629"/>
</svg>
