<svg width="30" height="30" viewBox="0 0 30 30" fill="none" xmlns="http://www.w3.org/2000/svg">
<path d="M26.8246 5.76318H26.4978C26.1151 5.76318 25.8042 6.07409 25.8042 6.45675C25.8042 6.8394 26.1151 7.15031 26.4978 7.15031H26.8246C27.7893 7.15031 28.5721 7.93318 28.5721 8.89776V20.5224H1.38716V8.89776C1.38716 7.93314 2.17003 7.15031 3.13462 7.15031H6.06516C6.44782 7.15031 6.75872 6.8394 6.75872 6.45675C6.75872 6.07409 6.44781 5.76318 6.06516 5.76318H3.13462C1.40308 5.76318 0 7.16627 0 8.8978V22.8568C0 24.5883 1.40308 25.9914 3.13462 25.9914H10.898V28.6127H8.60365C8.22099 28.6127 7.91009 28.9236 7.91009 29.3062C7.91009 29.6889 8.221 29.9998 8.60365 29.9998H20.93C21.3142 29.9998 21.6251 29.6889 21.6251 29.3062C21.6251 28.9236 21.3142 28.6127 20.93 28.6127H18.6611V25.9914H26.8245C27.6568 25.9914 28.454 25.6614 29.0408 25.073C29.6291 24.4863 29.9591 23.6891 29.9591 22.8568V8.8978C29.9591 8.0671 29.6291 7.26831 29.0408 6.68157C28.454 6.09323 27.6569 5.76318 26.8246 5.76318ZM17.2743 28.6207H12.2615V25.9915H17.2743V28.6207ZM28.5724 22.9063C28.5724 23.8709 27.7895 24.6538 26.825 24.6538H3.15111C2.67596 24.6586 2.21999 24.4688 1.88832 24.1308C1.55508 23.7912 1.37492 23.332 1.38765 22.8569V21.9098H28.5726L28.5724 22.9063Z" fill="#DCA629"/>
<path d="M18.8728 14.4086C19.1359 14.4517 19.399 14.3401 19.552 14.1233C19.7051 13.9064 19.7194 13.621 19.5919 13.3882L13.5012 2.83335C13.3704 2.59579 13.1121 2.45707 12.8427 2.47939C12.5732 2.50331 12.342 2.68348 12.2527 2.93858L10.8975 6.72689L7.69753 8.57961C5.84321 9.63192 5.1305 11.947 6.07281 13.8589C7.01511 15.7722 9.28396 16.6172 11.2484 15.7881L14.3336 18.7266H14.3352C14.4627 18.8542 14.6349 18.9259 14.8167 18.9227C14.9363 18.9212 15.0543 18.8909 15.1595 18.8335C15.8132 18.454 16.2501 17.7859 16.333 17.035C16.4175 16.2824 16.1385 15.5346 15.5836 15.0212L14.4484 13.9354L14.8981 13.6739L18.8728 14.4086ZM14.6286 16.0413C14.8487 16.2534 14.9603 16.5531 14.93 16.8577C14.9124 16.9932 14.8678 17.1239 14.7992 17.2419L12.5304 15.0943L13.216 14.6941L14.6286 16.0413ZM14.4245 12.3598L11.0045 14.3353C9.74174 15.064 8.1282 14.6303 7.39958 13.3675C6.67091 12.1047 7.10461 10.4912 8.36739 9.76413L11.7874 7.78867C11.9277 7.70416 12.0345 7.57501 12.0903 7.42036L13.0454 4.79117L17.6499 12.7664L14.89 12.2769V12.2785C14.7274 12.2562 14.5632 12.2913 14.4245 12.3758L14.4245 12.3598Z" fill="#DCA629"/>
<path d="M23.036 11.9595C23.0966 11.9675 23.1572 11.9675 23.2162 11.9595C23.5303 11.9627 23.8077 11.7506 23.8858 11.4445C24.5316 9.05605 24.1999 6.50809 22.9643 4.36356C21.727 2.21908 19.6894 0.654972 17.2977 0.0157369C16.9357 -0.0623909 16.577 0.157641 16.4797 0.514806C16.3841 0.871955 16.5866 1.24184 16.9389 1.35506C18.9654 1.90515 20.6938 3.2333 21.7443 5.05251C22.795 6.87013 23.0836 9.03058 22.5463 11.062C22.4841 11.2454 22.5016 11.4478 22.5941 11.6185C22.6866 11.7891 22.8479 11.9132 23.036 11.9595Z" fill="#DCA629"/>
<path d="M20.694 10.7267H20.8741C21.1866 10.7235 21.4593 10.5131 21.5422 10.2117C21.9599 8.64121 21.7367 6.9671 20.922 5.56063C20.1088 4.15277 18.7695 3.12435 17.2006 2.70185C16.8387 2.62373 16.4784 2.84216 16.3827 3.19933C16.287 3.55807 16.4879 3.92799 16.8403 4.04118C18.0568 4.36644 19.0932 5.16046 19.723 6.25105C20.3528 7.34164 20.5218 8.63791 20.1965 9.85282C20.1439 10.0346 20.1678 10.2307 20.2603 10.3949C20.3544 10.5591 20.5106 10.6789 20.694 10.7267Z" fill="#DCA629"/>
<path d="M18.3424 9.47849C18.403 9.48646 18.4636 9.48646 18.5226 9.47849C18.8367 9.48008 19.1141 9.26803 19.1922 8.9635C19.6131 7.38821 18.6772 5.7699 17.1019 5.34736C16.74 5.26923 16.3813 5.48767 16.2856 5.84484C16.1883 6.20358 16.3908 6.5735 16.7432 6.6851C17.5771 6.9131 18.0713 7.76928 17.8529 8.60476C17.7987 8.78493 17.8194 8.98104 17.9119 9.14526C18.0044 9.31108 18.1606 9.43066 18.3424 9.47849Z" fill="#DCA629"/>
</svg>
