<svg width="30" height="30" viewBox="0 0 30 30" fill="none" xmlns="http://www.w3.org/2000/svg">
<path d="M26.4546 7.72185C28.6809 11.2098 29.1915 15.5237 27.8404 19.435C26.4892 23.346 23.4258 26.4263 19.5219 27.7964C15.6179 29.1666 11.3016 28.6788 7.80168 26.4703C7.58167 26.9151 7.26124 27.3013 6.86426 27.5991C9.2963 29.1678 12.1288 30.0012 15.0236 30C15.5796 30.0012 16.1356 29.9701 16.688 29.9044C21.8571 29.3197 26.354 26.0996 28.5719 21.3946C30.79 16.6895 30.4121 11.1715 27.5735 6.81299C27.2758 7.19919 26.8934 7.51019 26.4546 7.72185Z" fill="#DCA629"/>
<path d="M3.57396 22.3187C1.04627 18.3706 0.736586 13.3965 2.7549 9.16472C4.77325 4.93323 8.8337 2.04305 13.4934 1.52299C16.5688 1.17624 19.6692 1.89845 22.2748 3.57002C22.484 3.12165 22.7985 2.73064 23.193 2.4317C19.3117 -0.0959895 14.48 -0.690186 10.1025 0.823498C5.72374 2.33724 2.29086 5.7881 0.798632 10.1739C-0.6924 14.5584 -0.0742358 19.388 2.47381 23.2559C2.76078 22.8601 3.13752 22.5386 3.57396 22.3187Z" fill="#DCA629"/>
<path d="M24.5989 12.179C23.6711 9.0296 21.2582 6.53522 18.1421 5.50244C19.1393 6.99944 19.8161 8.68647 20.1317 10.4576C21.7172 10.7421 23.2334 11.3268 24.5989 12.1794V12.179Z" fill="#DCA629"/>
<path d="M24.5989 17.8232C23.2334 18.6758 21.7173 19.2605 20.1317 19.545C19.8161 21.3159 19.1393 23.003 18.1421 24.5001C21.2582 23.4671 23.6708 20.9727 24.5989 17.8232Z" fill="#DCA629"/>
<path d="M11.8675 24.4997C10.8703 23.0027 10.1935 21.3156 9.87783 19.5446C8.29234 19.26 6.77615 18.6753 5.41064 17.8228C6.33849 20.9722 8.75139 23.4669 11.8675 24.4997Z" fill="#DCA629"/>
<path d="M11.8675 5.50226C8.75139 6.53534 6.33873 9.02942 5.41064 12.1789C6.77612 11.3263 8.29228 10.7416 9.87783 10.4571C10.1935 8.68623 10.8703 6.99938 11.8675 5.50226Z" fill="#DCA629"/>
<path d="M20.3711 11.9878C20.5074 12.9862 20.5756 13.993 20.572 15.001C20.5756 16.0089 20.5074 17.0157 20.3711 18.0141C23.2503 17.3254 25.0103 16.1201 25.0103 15.001C25.0103 13.8818 23.2502 12.6765 20.3711 11.9878Z" fill="#DCA629"/>
<path d="M9.63873 18.0142C9.37089 16.0138 9.37089 13.9884 9.63873 11.9878C6.75951 12.6765 4.99951 13.8818 4.99951 15.001C4.99951 16.1201 6.75957 17.3255 9.63873 18.0142Z" fill="#DCA629"/>
<path d="M15.7222 5.17732V9.96959C16.6859 9.98633 17.6472 10.0605 18.6014 10.1896C17.9701 7.5495 16.8605 5.73228 15.7222 5.17732Z" fill="#DCA629"/>
<path d="M14.2874 5.17725C13.1491 5.73205 12.0395 7.5495 11.4082 10.1896C12.3624 10.0605 13.3237 9.98633 14.2874 9.96959V5.17725Z" fill="#DCA629"/>
<path d="M14.2872 11.395C13.2267 11.4213 12.1685 11.517 11.121 11.682C10.9512 12.7796 10.8675 13.8904 10.8723 15.0013C10.8675 16.1121 10.9512 17.2229 11.121 18.3206C12.1684 18.4856 13.2266 18.5813 14.2872 18.6076V11.395Z" fill="#DCA629"/>
<path d="M15.7222 18.6071C16.7827 18.5808 17.8409 18.4851 18.8884 18.3201C19.0582 17.2225 19.1419 16.1117 19.1371 15.0008C19.1419 13.89 19.0582 12.7792 18.8884 11.6815C17.841 11.5165 16.7828 11.4208 15.7222 11.3945V18.6071Z" fill="#DCA629"/>
<path d="M15.7222 24.8248C16.8605 24.27 17.9701 22.4526 18.6014 19.8125C17.6472 19.9416 16.6859 20.0158 15.7222 20.0325V24.8248Z" fill="#DCA629"/>
<path d="M14.2874 24.8248V20.0325C13.3237 20.0158 12.3623 19.9416 11.4082 19.8125C12.0395 22.4526 13.1491 24.2698 14.2874 24.8248Z" fill="#DCA629"/>
<path d="M7.17043 25.0928C7.17043 26.2921 6.19832 27.2642 4.99903 27.2642C3.79974 27.2642 2.82764 26.2921 2.82764 25.0928C2.82764 23.8935 3.79974 22.9214 4.99903 22.9214C6.19832 22.9214 7.17043 23.8935 7.17043 25.0928Z" fill="#DCA629"/>
<path d="M27.2676 4.90919C27.2676 6.10848 26.2955 7.08058 25.0962 7.08058C23.8969 7.08058 22.9248 6.10848 22.9248 4.90919C22.9248 3.7099 23.8969 2.73779 25.0962 2.73779C26.2955 2.73779 27.2676 3.7099 27.2676 4.90919Z" fill="#DCA629"/>
</svg>
