<svg width="28" height="30" viewBox="0 0 28 30" fill="none" xmlns="http://www.w3.org/2000/svg">
<path d="M11.184 11.7004V10.272C11.1775 10.1627 11.2152 10.0533 11.2921 9.97255C11.3676 9.89313 11.4731 9.84625 11.5837 9.84625C11.6944 9.84625 11.7999 9.89313 11.8754 9.97255C11.9509 10.0533 11.99 10.1627 11.9822 10.272V11.7004H13.1801V10.2642C13.1801 10.0442 13.3585 9.8645 13.5798 9.8645C13.8012 9.8645 13.9796 10.0442 13.9796 10.2642V11.7004H15.1762V10.2642C15.1762 10.0442 15.3559 9.8645 15.5759 9.8645C15.7973 9.8645 15.9756 10.0442 15.9756 10.2642V11.7004C16.2204 11.6835 16.46 11.7733 16.6345 11.9465C16.8077 12.1197 16.8975 12.3593 16.8819 12.6041H18.3064C18.5277 12.6041 18.7061 12.7825 18.7061 13.0038C18.7061 13.2239 18.5277 13.4036 18.3064 13.4036H16.878V14.6002H18.3129C18.5342 14.6002 18.7126 14.7785 18.7126 14.9999C18.7126 15.2212 18.5342 15.3996 18.3129 15.3996H16.878V16.6002H18.3129C18.5342 16.6002 18.7126 16.7785 18.7126 16.9999C18.7126 17.2212 18.5342 17.3996 18.3129 17.3996H16.878C16.8936 17.6444 16.8024 17.8827 16.6293 18.0559C16.4561 18.2278 16.2165 18.3176 15.9717 18.2994V19.7382C15.9717 19.9595 15.7933 20.1379 15.572 20.1379C15.3506 20.1379 15.1722 19.9595 15.1722 19.7382V18.2994H13.9769V19.7382C13.9769 19.9595 13.7985 20.1379 13.5772 20.1379C13.3558 20.1379 13.1775 19.9595 13.1775 19.7382V18.2994H11.9822V19.7382C11.99 19.8489 11.9509 19.9569 11.8754 20.0377C11.7999 20.1184 11.6944 20.164 11.5837 20.164C11.4731 20.164 11.3676 20.1184 11.2921 20.0377C11.2152 19.9569 11.1775 19.8489 11.184 19.7382V18.2994C10.9392 18.3176 10.6996 18.2278 10.5264 18.0546C10.3532 17.8814 10.2634 17.6405 10.2803 17.397H8.84153C8.62147 17.397 8.44179 17.2173 8.44179 16.996C8.44179 16.7759 8.62148 16.5963 8.84153 16.5963H10.2803V15.3997H8.84153C8.62147 15.3997 8.44179 15.2213 8.44179 14.9999C8.44179 14.7786 8.62148 14.6002 8.84153 14.6002H10.2803V13.4036H8.84153C8.62147 13.4036 8.44179 13.2252 8.44179 13.0039C8.44179 12.7825 8.62148 12.6041 8.84153 12.6041H10.2803C10.2647 12.3593 10.3558 12.1211 10.529 11.9492C10.7022 11.776 10.9405 11.6848 11.184 11.7004ZM1.28432 22.1041C2.45748 24.1314 5.30765 24.4492 7.41065 24.3176V24.3163C6.76742 22.7161 6.31429 21.0455 6.05909 19.3397C4.71012 18.2654 3.49009 17.0376 2.42642 15.682C0.846985 18.0596 0.305151 20.3904 1.28432 22.1041ZM8.24665 24.2447C9.69459 24.0611 11.1178 23.7226 12.4927 23.2356C10.5487 22.3841 8.70499 21.3203 6.99532 20.0625C7.26095 21.4974 7.68025 22.8996 8.24665 24.2447ZM13.58 22.8294C14.7961 22.3424 15.9745 21.7669 17.1073 21.1093C18.2414 20.4557 19.3274 19.7239 20.3586 18.9166C20.5435 17.6184 20.6347 16.3098 20.6321 14.9999C20.6347 13.69 20.5422 12.3827 20.3586 11.0859C18.2935 9.47003 16.0123 8.15233 13.58 7.17193C11.1477 8.1524 8.86629 9.47009 6.80129 11.0859C6.43539 13.6836 6.43539 16.3189 6.80129 18.9166C8.86639 20.5325 11.1477 21.8503 13.58 22.8294ZM21.257 18.1743C22.3664 17.2264 23.3703 16.1626 24.2518 14.9999C23.3703 13.8371 22.3664 12.7733 21.257 11.8254C21.4888 13.9348 21.4888 16.0637 21.257 18.1731V18.1743ZM24.7337 14.3177C26.3053 11.9544 26.8574 9.59766 25.8782 7.89966C24.9303 6.25903 22.7167 5.52856 19.9055 5.6731C19.8534 5.6731 19.8014 5.67831 19.748 5.68091V5.68221C20.3912 7.28248 20.8456 8.95305 21.0995 10.6589C22.4498 11.7331 23.6687 12.9607 24.7337 14.3177ZM18.916 5.75766C17.4681 5.94126 16.0436 6.2798 14.6673 6.76676C16.6113 7.61963 18.455 8.68343 20.166 9.93993C19.9004 8.50503 19.4811 7.104 18.916 5.75893V5.75766ZM5.90299 11.8267C4.79362 12.7733 3.78972 13.8371 2.90819 14.9998C3.78969 16.1626 4.79359 17.2264 5.90299 18.173C5.66991 16.0636 5.66991 13.9347 5.90299 11.8253V11.8267ZM0.595651 22.5037C-0.591849 20.419 0.119084 17.613 1.92638 14.9997C0.111284 12.376 -0.611383 9.58833 0.593051 7.49966C1.00192 6.80436 1.58785 6.23013 2.29098 5.833C2.12301 4.8356 2.74672 3.87726 3.72589 3.62466C4.70505 3.37336 5.71415 3.91242 6.04882 4.86686C6.61782 4.84473 7.18685 4.85775 7.75325 4.90593C10.847 -1.63574 16.3133 -1.63574 19.4069 4.90853C19.5606 4.89551 19.7129 4.88509 19.864 4.87728C22.9759 4.71582 25.4576 5.57781 26.5656 7.49968C27.7727 9.58692 27.0422 12.3813 25.2323 14.9997C27.0448 17.6182 27.7701 20.406 26.5695 22.4907C26.6945 22.5597 25.6359 23.6222 25.5175 23.7173V23.7186C25.8156 24.7029 25.2961 25.7498 24.3326 26.1079C23.3677 26.4673 22.2909 26.0141 21.8729 25.074C21.0526 25.1574 20.2271 25.1639 19.4068 25.0922C16.3131 31.6353 10.8468 31.6366 7.75179 25.0922C5.24005 25.298 1.99012 24.9113 0.595451 22.5024L0.595651 22.5037ZM2.42508 14.3173H2.42639C3.49019 12.9606 4.71025 11.7327 6.05905 10.6583C6.31426 8.9526 6.76739 7.282 7.41062 5.68166C6.97702 5.65562 6.55515 5.64781 6.15152 5.66213C6.08511 6.49027 5.50179 7.18557 4.69709 7.3939C3.89369 7.60223 3.04475 7.27801 2.58512 6.5866C2.04605 6.90691 1.59815 7.35743 1.28042 7.8978C0.302553 9.59573 0.852151 11.9487 2.42508 14.3173ZM6.99142 9.93833L6.99272 9.93703C8.70366 8.68183 10.5474 7.61803 12.4914 6.76646C11.1164 6.27819 9.69192 5.94093 8.24406 5.75736C7.67896 7.10243 7.25969 8.50346 6.99405 9.93836L6.99142 9.93833ZM13.5801 6.316C15.1843 5.6845 16.8574 5.24306 18.5644 4.9996C15.7884 -0.595405 11.3718 -0.596739 8.59442 4.9996C10.3028 5.24309 11.9761 5.6845 13.5801 6.316ZM24.7324 15.6833C23.6686 17.0401 22.4486 18.268 21.0998 19.341C20.8446 21.048 20.3914 22.7187 19.7482 24.319C20.4005 24.3633 21.0555 24.3542 21.7052 24.2917C21.7026 23.4766 22.2065 22.7461 22.9696 22.4596C23.7326 22.1732 24.5933 22.3932 25.1271 23.0091C25.2 22.944 25.8758 22.1055 25.8758 22.1055C26.8589 20.4075 26.3094 18.0535 24.7339 15.6835L24.7324 15.6833ZM20.1661 20.0623C18.4552 21.3188 16.6114 22.3826 14.6688 23.2355C16.0438 23.7225 17.4669 24.061 18.9134 24.2446C19.4798 22.8995 19.8991 21.4972 20.1647 20.0623L20.1661 20.0623ZM13.5801 23.6833C11.9759 24.3161 10.3028 24.7589 8.59575 25.0023C11.3731 30.5947 15.7884 30.596 18.5644 24.9997C16.8574 24.7575 15.1841 24.3161 13.5801 23.6833Z" fill="#DCA629"/>
</svg>
