<svg width="100" height="100" viewBox="0 0 100 100" fill="none" xmlns="http://www.w3.org/2000/svg">
<rect width="100" height="100" rx="24" fill="#DCA629"/>
<path d="M60.3508 27.4001L37.7758 34.9001C22.6008 39.9751 22.6008 48.2501 37.7758 53.3001L44.4758 55.5251L46.7008 62.2251C51.7508 77.4001 60.0508 77.4001 65.1008 62.2251L72.6258 39.6751C75.9758 29.5501 70.4758 24.0251 60.3508 27.4001ZM61.1508 40.8501L51.6508 50.4001C51.2758 50.7751 50.8008 50.9501 50.3258 50.9501C49.8508 50.9501 49.3758 50.7751 49.0008 50.4001C48.2758 49.6751 48.2758 48.4751 49.0008 47.7501L58.5008 38.2001C59.2258 37.4751 60.4258 37.4751 61.1508 38.2001C61.8758 38.9251 61.8758 40.1251 61.1508 40.8501Z" fill="#0B0B0B"/>
</svg>
