<svg width="100" height="100" viewBox="0 0 100 100" fill="none" xmlns="http://www.w3.org/2000/svg">
<rect width="100" height="100" rx="24" fill="#DCA629"/>
<path d="M65.8242 34.175L36.4742 63.525C35.3742 64.625 33.5242 64.475 32.6242 63.175C29.5242 58.65 27.6992 53.3 27.6992 47.8V36.825C27.6992 34.775 29.2492 32.45 31.1492 31.675L45.0742 25.975C48.2242 24.675 51.7242 24.675 54.8742 25.975L64.9992 30.1C66.6492 30.775 67.0742 32.925 65.8242 34.175Z" fill="#0B0B0B"/>
<path d="M68.175 37.6001C69.8 36.2251 72.275 37.4001 72.275 39.5251V47.8001C72.275 60.0251 63.4 71.4751 51.275 74.8251C50.45 75.0501 49.55 75.0501 48.7 74.8251C45.15 73.8251 41.85 72.1501 39.025 69.9501C37.825 69.0251 37.7 67.2751 38.75 66.2001C44.2 60.6251 60.15 44.3751 68.175 37.6001Z" fill="#0B0B0B"/>
</svg>
