<svg width="518" height="34" viewBox="0 0 518 34" fill="none" xmlns="http://www.w3.org/2000/svg">
<g clip-path="url(#clip0_1_28377)">
<path d="M504.981 33.0059C506.69 29.5888 511.022 27.56 514.421 25.9497C519.472 23.5572 516.583 23.9351 512.896 22.517C510.953 21.7698 503.026 17.9618 504.123 18.6076C507.156 20.3917 509.64 23.0171 513.039 24.3764C514.382 24.9135 510.242 25.2823 508.796 25.2823C503.639 25.2823 498.596 26.1404 493.444 26.1404C483.768 26.1404 481.288 27.9025 471.647 25.7114C462.705 23.6791 455.089 14.6825 461.54 5.54416C462.571 4.08357 467.909 -1.66471 468.214 3.82779C468.477 8.5592 462.605 13.7626 458.774 15.8423C452.385 19.3109 437.368 26.9995 432.648 17.5587C430.815 13.894 430.97 10.3706 432.6 6.78374C434.109 3.46339 437.193 -1.54923 439.465 2.54052C441.681 6.5288 437.817 11.5515 435.604 14.555C429.288 23.1258 418.746 23.3395 409 22.7077H1" stroke="white" stroke-width="1.5" stroke-linecap="round"/>
</g>
<defs>
<clipPath id="clip0_1_28377">
<rect width="518" height="34" fill="white"/>
</clipPath>
</defs>
</svg>
