<svg width="131" height="64" viewBox="0 0 131 64" fill="none" xmlns="http://www.w3.org/2000/svg">
<g filter="url(#filter0_d_1_403)">
<rect x="10.8691" y="10.5" width="109.36" height="43.19" rx="21.595" fill="white" shape-rendering="crispEdges"/>
<g clip-path="url(#clip0_1_403)">
<g clip-path="url(#clip1_1_403)">
<g clip-path="url(#clip2_1_403)">
<path d="M31.9783 38.1003C32.0867 38.2892 32.2441 38.4453 32.4337 38.5523L41.7514 43.9319C41.9391 44.0421 42.1532 44.1 42.3709 44.1C42.5886 44.1 42.8024 44.0418 42.9901 43.9316L52.308 38.552C52.4973 38.4447 52.6545 38.2887 52.7633 38.1002C52.8721 37.9117 52.9286 37.6976 52.927 37.48V26.7209C52.9286 26.5032 52.8718 26.2887 52.7629 26.1002C52.6541 25.9117 52.4968 25.7556 52.3075 25.6482L42.9895 20.2687C42.802 20.1584 42.5883 20.1 42.3708 20.1C42.1532 20.1 41.9396 20.1581 41.752 20.2684L32.4343 25.6482C32.2449 25.7556 32.0875 25.9116 31.9786 26.1001C31.8697 26.2886 31.8131 26.5029 31.8148 26.7206L31.8145 37.48C31.8124 37.6977 31.8692 37.9119 31.9783 38.1003Z" fill="#009639"/>
<path d="M39.3868 36.1962C39.3868 36.514 39.2606 36.8188 39.0359 37.0435C38.8111 37.2682 38.5063 37.3944 38.1885 37.3944C37.8707 37.3944 37.5659 37.2682 37.3412 37.0435C37.1165 36.8188 36.9902 36.514 36.9902 36.1962L36.9917 27.9706C37.0023 27.804 37.0463 27.6413 37.1209 27.492C37.1955 27.3426 37.2993 27.2098 37.4262 27.1012C37.553 26.9927 37.7003 26.9107 37.8594 26.86C38.0184 26.8094 38.186 26.7912 38.3523 26.8064C38.6612 26.8024 38.9673 26.8657 39.2493 26.9918C39.5314 27.1179 39.7826 27.3038 39.9857 27.5367L40.3478 27.9701L45.3539 33.961V28.0041C45.3539 27.8467 45.3843 27.6909 45.4446 27.5455C45.5048 27.4001 45.593 27.268 45.7043 27.1568C45.8156 27.0455 45.9477 26.9572 46.0931 26.897C46.2385 26.8368 46.3943 26.8058 46.5516 26.8058C46.709 26.8058 46.8648 26.8368 47.0102 26.897C47.1556 26.9572 47.2877 27.0455 47.399 27.1568C47.5102 27.268 47.5985 27.4001 47.6587 27.5455C47.7189 27.6909 47.7499 27.8467 47.7499 28.0041L47.7485 36.2293C47.7378 36.3959 47.6938 36.5586 47.6192 36.7079C47.5446 36.8573 47.4408 36.9901 47.3139 37.0986C47.1871 37.2072 47.0398 37.2892 46.8808 37.3398C46.7217 37.3905 46.5541 37.4088 46.3879 37.3936C46.0789 37.3976 45.7728 37.3344 45.4908 37.2083C45.2087 37.0822 44.9575 36.8962 44.7545 36.6632L39.3862 30.239L39.3868 36.1962Z" fill="white"/>
</g>
</g>
</g>
<path d="M65.4513 36.25H63.961V26.3857H65.3487L70.462 33.6592H70.5167V26.3857H72.0069V36.25H70.6261L65.5128 28.9834H65.4513V36.25ZM76.7169 35.0537C77.8722 35.0537 78.631 34.1172 78.631 32.6338C78.631 31.1572 77.8722 30.1865 76.7169 30.1865C75.5821 30.1865 74.8438 31.1367 74.8438 32.6338C74.8438 34.1377 75.5821 35.0537 76.7169 35.0537ZM76.7306 38.957C75.0353 38.957 73.7774 38.0547 73.5929 36.8105H75.0763C75.2882 37.4121 75.9444 37.8086 76.7853 37.8086C77.9405 37.8086 78.6241 37.1523 78.6241 36.168V34.9854H78.5968C78.1935 35.7646 77.3458 36.2773 76.3204 36.2773C74.5157 36.2773 73.3331 34.8691 73.3331 32.627C73.3331 30.3643 74.5089 28.9424 76.3546 28.9424C77.3731 28.9424 78.2071 29.4551 78.6446 30.2891H78.672V29.0586H80.1075V36.1201C80.1075 37.8359 78.7813 38.957 76.7306 38.957ZM81.6183 36.25V29.0586H83.0948V36.25H81.6183ZM82.3565 28.0059C81.8849 28.0059 81.502 27.6299 81.502 27.165C81.502 26.6934 81.8849 26.3174 82.3565 26.3174C82.8351 26.3174 83.2179 26.6934 83.2179 27.165C83.2179 27.6299 82.8351 28.0059 82.3565 28.0059ZM84.6056 36.25V29.0586H86.0138V30.2617H86.0479C86.4376 29.4414 87.2032 28.9355 88.3106 28.9355C89.8966 28.9355 90.8058 29.9473 90.8058 31.5947V36.25H89.3224V31.8818C89.3224 30.8018 88.8165 30.207 87.7911 30.207C86.752 30.207 86.0821 30.9453 86.0821 32.0596V36.25H84.6056ZM94.9278 33.6045H94.8937L93.3009 36.25H91.7013L94.0733 32.6611L91.7354 29.0586H93.3897L94.962 31.6631H94.9894L96.5411 29.0586H98.1681L95.8097 32.6133L98.1407 36.25H96.5138L94.9278 33.6045Z" fill="black"/>
</g>
<defs>
<filter id="filter0_d_1_403" x="0.869141" y="0.5" width="129.36" height="63.19" filterUnits="userSpaceOnUse" color-interpolation-filters="sRGB">
<feFlood flood-opacity="0" result="BackgroundImageFix"/>
<feColorMatrix in="SourceAlpha" type="matrix" values="0 0 0 0 0 0 0 0 0 0 0 0 0 0 0 0 0 0 127 0" result="hardAlpha"/>
<feOffset/>
<feGaussianBlur stdDeviation="5"/>
<feComposite in2="hardAlpha" operator="out"/>
<feColorMatrix type="matrix" values="0 0 0 0 0 0 0 0 0 0 0 0 0 0 0 0 0 0 0.05 0"/>
<feBlend mode="normal" in2="BackgroundImageFix" result="effect1_dropShadow_1_403"/>
<feBlend mode="normal" in="SourceGraphic" in2="effect1_dropShadow_1_403" result="shape"/>
</filter>
<clipPath id="clip0_1_403">
<rect width="24" height="24" fill="white" transform="translate(30.8691 20.1)"/>
</clipPath>
<clipPath id="clip1_1_403">
<rect width="24" height="24" fill="white" transform="translate(30.8691 20.1)"/>
</clipPath>
<clipPath id="clip2_1_403">
<rect width="24" height="24" fill="white" transform="translate(30.8691 20.1)"/>
</clipPath>
</defs>
</svg>
