<svg width="142" height="65" viewBox="0 0 142 65" fill="none" xmlns="http://www.w3.org/2000/svg">
<g filter="url(#filter0_d_3_77)">
<rect x="10" y="10.3228" width="121.7" height="44.19" rx="22.095" fill="white" shape-rendering="crispEdges"/>
<g clip-path="url(#clip0_3_77)">
<g clip-path="url(#clip1_3_77)">
<g clip-path="url(#clip2_3_77)">
<path d="M43.0277 20.5596C42.6726 20.3587 42.251 20.3587 41.896 20.5596L32.5547 25.9849C32.1997 26.1859 32 26.5654 32 26.9673V37.8401C32 38.2421 32.2219 38.6215 32.5547 38.8225L41.896 44.2479C42.251 44.4487 42.6726 44.4487 43.0277 44.2479L52.3688 38.8225C52.724 38.6215 52.9235 38.2421 52.9235 37.8401V26.9673C52.9235 26.5654 52.7017 26.1859 52.3688 25.9849L43.0277 20.5596Z" fill="url(#paint0_linear_3_77)"/>
<path d="M52.3944 25.9849L43.0088 20.5596C42.9201 20.5149 42.8091 20.4703 42.7204 20.448L32.2031 38.5546C32.2918 38.6662 32.4028 38.7555 32.5137 38.8225L41.8994 44.2478C42.1657 44.4041 42.4762 44.4487 42.7647 44.3594L52.6385 26.1859C52.5719 26.0966 52.4832 26.0296 52.3944 25.9849Z" fill="url(#paint1_linear_3_77)"/>
<path d="M52.3911 38.8222C52.6574 38.6659 52.8571 38.398 52.9458 38.1077L42.6725 20.4254C42.4064 20.3807 42.1178 20.403 41.8738 20.5593L32.5547 25.9623L42.606 44.4038C42.7391 44.3814 42.8945 44.3368 43.0277 44.2698L52.3911 38.8222Z" fill="url(#paint2_linear_3_77)"/>
</g>
</g>
</g>
<path d="M65.248 36.5728H63.7577V26.7085H65.1454L70.2587 33.9819H70.3134V26.7085H71.8036V36.5728H70.4228L65.3095 29.3062H65.248V36.5728ZM76.5409 36.7095C74.4833 36.7095 73.1298 35.2944 73.1298 32.9771C73.1298 30.6665 74.4902 29.2515 76.5409 29.2515C78.5917 29.2515 79.9521 30.6665 79.9521 32.9771C79.9521 35.2944 78.5986 36.7095 76.5409 36.7095ZM76.5409 35.4927C77.703 35.4927 78.4482 34.5767 78.4482 32.9771C78.4482 31.3843 77.6962 30.4683 76.5409 30.4683C75.3857 30.4683 74.6337 31.3843 74.6337 32.9771C74.6337 34.5767 75.3857 35.4927 76.5409 35.4927ZM83.7939 36.6958C81.9755 36.6958 80.7724 35.2466 80.7724 32.9771C80.7724 30.7075 81.9755 29.2651 83.7802 29.2651C84.8124 29.2651 85.6327 29.7847 86.0361 30.5776H86.0634V26.7085H87.5468V36.5728H86.1112V35.3491H86.0839C85.6601 36.1694 84.8398 36.6958 83.7939 36.6958ZM84.1835 30.5093C83.0146 30.5093 82.2831 31.4663 82.2831 32.9771C82.2831 34.4946 83.0146 35.4448 84.1835 35.4448C85.3183 35.4448 86.0771 34.481 86.0771 32.9771C86.0771 31.4868 85.3183 30.5093 84.1835 30.5093ZM92.0722 30.4409C91.04 30.4409 90.3154 31.2271 90.2402 32.314H93.8359C93.8017 31.2134 93.1044 30.4409 92.0722 30.4409ZM93.829 34.4604H95.2304C95.0253 35.7729 93.7812 36.7095 92.1337 36.7095C90.0214 36.7095 88.7431 35.2808 88.7431 33.0112C88.7431 30.7554 90.0419 29.2515 92.0722 29.2515C94.0683 29.2515 95.3124 30.6597 95.3124 32.8403V33.3462H90.2333V33.4351C90.2333 34.686 90.9853 35.5132 92.1679 35.5132C93.0087 35.5132 93.6308 35.0894 93.829 34.4604ZM97.5683 36.6479C97.0693 36.6479 96.6728 36.2515 96.6728 35.7524C96.6728 35.2534 97.0693 34.8569 97.5683 34.8569C98.0673 34.8569 98.4638 35.2534 98.4638 35.7524C98.4638 36.2515 98.0673 36.6479 97.5683 36.6479ZM101.663 29.3813V36.9146C101.663 38.3774 100.904 39.0747 99.3114 39.0747C99.2431 39.0747 99.0107 39.0747 98.9697 39.061V37.8989C98.997 37.8989 99.1542 37.9058 99.1816 37.9058C99.913 37.9058 100.186 37.6323 100.186 36.9077V29.3813H101.663ZM100.925 28.3286C100.453 28.3286 100.07 27.9526 100.07 27.4878C100.07 27.0161 100.453 26.6401 100.925 26.6401C101.403 26.6401 101.786 27.0161 101.786 27.4878C101.786 27.9526 101.403 28.3286 100.925 28.3286ZM103.044 31.4185C103.044 30.1333 104.179 29.2515 105.86 29.2515C107.46 29.2515 108.581 30.147 108.629 31.4253H107.241C107.173 30.7759 106.646 30.3726 105.819 30.3726C105.019 30.3726 104.486 30.7622 104.486 31.3296C104.486 31.7739 104.842 32.0747 105.587 32.2593L106.797 32.5396C108.246 32.8882 108.793 33.4351 108.793 34.4946C108.793 35.8071 107.569 36.7095 105.806 36.7095C104.103 36.7095 102.976 35.8276 102.859 34.5083H104.322C104.438 35.1987 104.972 35.5815 105.874 35.5815C106.763 35.5815 107.309 35.2124 107.309 34.6313C107.309 34.1733 107.036 33.9204 106.284 33.729L104.999 33.4146C103.7 33.1001 103.044 32.4233 103.044 31.4185Z" fill="black"/>
</g>
<defs>
<filter id="filter0_d_3_77" x="0" y="0.322754" width="141.7" height="64.1899" filterUnits="userSpaceOnUse" color-interpolation-filters="sRGB">
<feFlood flood-opacity="0" result="BackgroundImageFix"/>
<feColorMatrix in="SourceAlpha" type="matrix" values="0 0 0 0 0 0 0 0 0 0 0 0 0 0 0 0 0 0 127 0" result="hardAlpha"/>
<feOffset/>
<feGaussianBlur stdDeviation="5"/>
<feComposite in2="hardAlpha" operator="out"/>
<feColorMatrix type="matrix" values="0 0 0 0 0 0 0 0 0 0 0 0 0 0 0 0 0 0 0.05 0"/>
<feBlend mode="normal" in2="BackgroundImageFix" result="effect1_dropShadow_3_77"/>
<feBlend mode="normal" in="SourceGraphic" in2="effect1_dropShadow_3_77" result="shape"/>
</filter>
<linearGradient id="paint0_linear_3_77" x1="46.2662" y1="24.6002" x2="37.7355" y2="41.8952" gradientUnits="userSpaceOnUse">
<stop stop-color="#3F873F"/>
<stop offset="0.3296" stop-color="#3F8B3D"/>
<stop offset="0.6367" stop-color="#3E9638"/>
<stop offset="0.9341" stop-color="#3DA92E"/>
<stop offset="1" stop-color="#3DAE2B"/>
</linearGradient>
<linearGradient id="paint1_linear_3_77" x1="41.0455" y1="33.6733" x2="64.8478" y2="16.1956" gradientUnits="userSpaceOnUse">
<stop offset="0.1376" stop-color="#3F873F"/>
<stop offset="0.4016" stop-color="#52A044"/>
<stop offset="0.7129" stop-color="#64B749"/>
<stop offset="0.9081" stop-color="#6ABF4B"/>
</linearGradient>
<linearGradient id="paint2_linear_3_77" x1="31.6575" y1="32.3999" x2="53.2727" y2="32.3999" gradientUnits="userSpaceOnUse">
<stop offset="0.0919165" stop-color="#6ABF4B"/>
<stop offset="0.2871" stop-color="#64B749"/>
<stop offset="0.5984" stop-color="#52A044"/>
<stop offset="0.8624" stop-color="#3F873F"/>
</linearGradient>
<clipPath id="clip0_3_77">
<rect width="24" height="25" fill="white" transform="translate(30 19.9128)"/>
</clipPath>
<clipPath id="clip1_3_77">
<rect width="24" height="25" fill="white" transform="translate(30 19.9128)"/>
</clipPath>
<clipPath id="clip2_3_77">
<rect width="24" height="25" fill="white" transform="translate(30 19.9128)"/>
</clipPath>
</defs>
</svg>
