<svg width="176" height="64" viewBox="0 0 176 64" fill="none" xmlns="http://www.w3.org/2000/svg">
<g filter="url(#filter0_d_3_125)">
<rect x="10.1875" y="10.3228" width="155.82" height="43.2" rx="21.6" fill="white" shape-rendering="crispEdges"/>
<g clip-path="url(#clip0_3_125)">
<g clip-path="url(#clip1_3_125)">
<g clip-path="url(#clip2_3_125)">
<mask id="mask0_3_125" style="mask-type:luminance" maskUnits="userSpaceOnUse" x="30" y="19" width="25" height="25">
<path d="M54.1875 19.9329H30.1875V43.9329H54.1875V19.9329Z" fill="white"/>
</mask>
<g mask="url(#mask0_3_125)">
<path d="M42.1544 43.9329C35.7063 43.9329 30.2381 38.4864 30.1878 31.9967C30.1765 30.4313 30.4761 28.8793 31.0692 27.4306C31.6622 25.9819 32.537 24.6653 33.6427 23.5572C34.7557 22.4174 36.084 21.51 37.5506 20.8878C39.0172 20.2656 40.5928 19.941 42.1859 19.9329C43.7502 19.9315 45.2994 20.2397 46.744 20.8396C48.1887 21.4396 49.5004 22.3195 50.6036 23.4286C51.7246 24.5222 52.6184 25.8267 53.2335 27.267C53.8485 28.7073 54.1727 30.2551 54.1874 31.8212C54.2174 38.4579 48.8842 43.8654 42.2519 43.9329H42.1544ZM42.1919 20.561C40.6823 20.5698 39.1894 20.8784 37.7999 21.4688C36.4105 22.0593 35.1521 22.9198 34.0979 24.0005C33.0493 25.0489 32.2192 26.2951 31.6558 27.6667C31.0923 29.0383 30.8067 30.5082 30.8156 31.991C30.8628 38.141 36.0453 43.2984 42.1511 43.2984H42.2328C48.5216 43.2414 53.5833 38.114 53.5589 31.8245C53.5304 28.8275 52.3072 25.9662 50.1603 23.8745C49.1175 22.8223 47.8762 21.9876 46.5083 21.4188C45.1405 20.8499 43.6733 20.5586 42.1919 20.561ZM32.8799 35.4429V28.4322H34.5854V29.0604H33.6806V34.8272H34.5851V35.4553L32.8799 35.4429ZM38.6681 31.8684C38.6681 33.1434 37.8918 33.8754 36.8399 33.8754C35.7881 33.8754 35.0872 33.0557 35.0872 31.9344C35.0872 30.7629 35.8222 29.9368 36.8962 29.9368C37.9702 29.9368 38.6681 30.7978 38.6681 31.8684ZM35.8226 31.9247C35.8226 32.7009 36.2126 33.3122 36.8812 33.3122C37.5498 33.3122 37.9334 32.684 37.9334 31.8924C37.9334 31.1732 37.5787 30.4948 36.8812 30.4948C36.1837 30.4948 35.8124 31.1555 35.8124 31.9404L35.8226 31.9247ZM39.2624 30.0692C39.5964 30.0115 39.9349 29.9831 40.2738 29.9844C40.6544 29.9469 41.0373 30.032 41.3669 30.2263C41.6182 30.3744 41.7701 30.6474 41.7626 30.9388C41.7582 31.1251 41.6951 31.3052 41.5823 31.4536C41.4695 31.6019 41.3128 31.7109 41.1344 31.7649C41.5826 31.856 41.9043 32.2502 41.9039 32.7073C41.9063 32.8575 41.8744 33.0062 41.8107 33.1423C41.747 33.2783 41.6532 33.3981 41.5364 33.4925C41.2664 33.7314 40.8172 33.8473 40.1227 33.8473C39.8371 33.8487 39.5518 33.8319 39.2684 33.797L39.2624 30.0692ZM39.9536 31.5737H40.3083C40.7883 31.5737 41.0591 31.3475 41.0591 31.0239C41.0591 30.7003 40.7891 30.4989 40.3466 30.4989C40.2141 30.4944 40.0814 30.5038 39.9509 30.527L39.9536 31.5737ZM39.9536 33.3264C40.0758 33.3392 40.1984 33.3444 40.3211 33.3422C40.7711 33.3422 41.1629 33.1727 41.1629 32.714C41.1629 32.2554 40.7797 32.0859 40.2993 32.0859H39.9543L39.9536 33.3264ZM43.2723 30.0189H43.9661V32.4939C43.9661 33.5462 43.4572 33.8979 42.7098 33.8979C42.5099 33.8962 42.3116 33.8623 42.1226 33.7974L42.2073 33.2349C42.3466 33.2784 42.4915 33.3016 42.6374 33.3039C43.0331 33.3039 43.2656 33.1217 43.2656 32.462L43.2723 30.0189ZM45.9423 32.0825V32.5633H44.4974V32.0829L45.9423 32.0825ZM49.3124 33.7153C49.0001 33.8398 48.6652 33.8975 48.3292 33.8848C47.1198 33.8848 46.3848 33.1273 46.3848 31.9723C46.3706 31.7023 46.4136 31.4323 46.5111 31.1801C46.6087 30.9279 46.7585 30.6992 46.9507 30.509C47.1429 30.3189 47.3732 30.1715 47.6264 30.0767C47.8797 29.9819 48.1501 29.9418 48.4199 29.9589C48.7427 29.9457 49.0644 30.0036 49.3623 30.1284L49.2123 30.6812C48.9761 30.5808 48.7216 30.5305 48.4649 30.5334C47.6887 30.5334 47.1299 31.0202 47.1299 31.9374C47.1299 32.7729 47.6231 33.3137 48.4586 33.3137C48.718 33.3177 48.9756 33.2696 49.2161 33.1723L49.3124 33.7153ZM51.4919 28.4135V35.4429H49.7864V34.8148H50.6909V29.0454H49.7864V28.4172L51.4919 28.4135Z" fill="#F1592A"/>
</g>
</g>
</g>
</g>
<path d="M65.8476 36.9808C64.9423 36.9808 64.1069 36.7708 63.3416 36.3508C62.5856 35.9215 61.9836 35.3288 61.5356 34.5728C61.0969 33.8075 60.8776 32.9488 60.8776 31.9968C60.8776 31.0448 61.0969 30.1908 61.5356 29.4348C61.9836 28.6788 62.5856 28.0908 63.3416 27.6708C64.1069 27.2415 64.9423 27.0268 65.8476 27.0268C66.7623 27.0268 67.5976 27.2415 68.3536 27.6708C69.1189 28.0908 69.7209 28.6788 70.1596 29.4348C70.5983 30.1908 70.8176 31.0448 70.8176 31.9968C70.8176 32.9488 70.5983 33.8075 70.1596 34.5728C69.7209 35.3288 69.1189 35.9215 68.3536 36.3508C67.5976 36.7708 66.7623 36.9808 65.8476 36.9808ZM65.8476 35.5948C66.4916 35.5948 67.0656 35.4501 67.5696 35.1608C68.0736 34.8621 68.4656 34.4421 68.7456 33.9008C69.0349 33.3501 69.1796 32.7155 69.1796 31.9968C69.1796 31.2781 69.0349 30.6481 68.7456 30.1068C68.4656 29.5655 68.0736 29.1501 67.5696 28.8608C67.0656 28.5715 66.4916 28.4268 65.8476 28.4268C65.2036 28.4268 64.6296 28.5715 64.1256 28.8608C63.6216 29.1501 63.2249 29.5655 62.9356 30.1068C62.6556 30.6481 62.5156 31.2781 62.5156 31.9968C62.5156 32.7155 62.6556 33.3501 62.9356 33.9008C63.2249 34.4421 63.6216 34.8621 64.1256 35.1608C64.6296 35.4501 65.2036 35.5948 65.8476 35.5948ZM73.9841 30.3168C74.2548 29.9435 74.6234 29.6401 75.0901 29.4068C75.5661 29.1641 76.0934 29.0428 76.6721 29.0428C77.3534 29.0428 77.9694 29.2061 78.5201 29.5328C79.0708 29.8595 79.5048 30.3261 79.8221 30.9328C80.1394 31.5301 80.2981 32.2161 80.2981 32.9908C80.2981 33.7655 80.1394 34.4608 79.8221 35.0768C79.5048 35.6835 79.0661 36.1595 78.5061 36.5048C77.9554 36.8408 77.3441 37.0088 76.6721 37.0088C76.0748 37.0088 75.5428 36.8921 75.0761 36.6588C74.6188 36.4255 74.2548 36.1268 73.9841 35.7628V36.8828H72.3881V26.5228H73.9841V30.3168ZM78.6741 32.9908C78.6741 32.4588 78.5621 32.0015 78.3381 31.6188C78.1234 31.2268 77.8341 30.9328 77.4701 30.7368C77.1154 30.5315 76.7328 30.4288 76.3221 30.4288C75.9208 30.4288 75.5381 30.5315 75.1741 30.7368C74.8194 30.9421 74.5301 31.2408 74.3061 31.6328C74.0914 32.0248 73.9841 32.4868 73.9841 33.0188C73.9841 33.5508 74.0914 34.0175 74.3061 34.4188C74.5301 34.8108 74.8194 35.1095 75.1741 35.3148C75.5381 35.5201 75.9208 35.6228 76.3221 35.6228C76.7328 35.6228 77.1154 35.5201 77.4701 35.3148C77.8341 35.1001 78.1234 34.7921 78.3381 34.3908C78.5621 33.9895 78.6741 33.5228 78.6741 32.9908ZM82.6884 28.1468C82.3991 28.1468 82.1564 28.0488 81.9604 27.8528C81.7644 27.6568 81.6664 27.4141 81.6664 27.1248C81.6664 26.8355 81.7644 26.5928 81.9604 26.3968C82.1564 26.2008 82.3991 26.1028 82.6884 26.1028C82.9684 26.1028 83.2064 26.2008 83.4024 26.3968C83.5984 26.5928 83.6964 26.8355 83.6964 27.1248C83.6964 27.4141 83.5984 27.6568 83.4024 27.8528C83.2064 28.0488 82.9684 28.1468 82.6884 28.1468ZM83.4724 38.3948C83.4724 39.1508 83.2811 39.6968 82.8984 40.0328C82.5251 40.3781 81.9791 40.5508 81.2604 40.5508H80.4344V39.2068H80.9804C81.3071 39.2068 81.5357 39.1415 81.6664 39.0108C81.8064 38.8895 81.8764 38.6841 81.8764 38.3948V29.1688H83.4724V38.3948ZM92.6378 32.8368C92.6378 33.1261 92.6191 33.3875 92.5818 33.6208H86.6878C86.7345 34.2368 86.9631 34.7315 87.3738 35.1048C87.7845 35.4781 88.2885 35.6648 88.8858 35.6648C89.7445 35.6648 90.3511 35.3055 90.7058 34.5868H92.4278C92.1945 35.2961 91.7698 35.8795 91.1538 36.3368C90.5471 36.7848 89.7911 37.0088 88.8858 37.0088C88.1485 37.0088 87.4858 36.8455 86.8978 36.5188C86.3191 36.1828 85.8618 35.7161 85.5258 35.1188C85.1991 34.5121 85.0358 33.8121 85.0358 33.0188C85.0358 32.2255 85.1945 31.5301 85.5118 30.9328C85.8385 30.3261 86.2911 29.8595 86.8698 29.5328C87.4578 29.2061 88.1298 29.0428 88.8858 29.0428C89.6138 29.0428 90.2625 29.2015 90.8318 29.5188C91.4011 29.8361 91.8445 30.2841 92.1618 30.8628C92.4791 31.4321 92.6378 32.0901 92.6378 32.8368ZM90.9718 32.3328C90.9625 31.7448 90.7525 31.2735 90.3418 30.9188C89.9311 30.5641 89.4225 30.3868 88.8158 30.3868C88.2651 30.3868 87.7938 30.5641 87.4018 30.9188C87.0098 31.2641 86.7765 31.7355 86.7018 32.3328H90.9718ZM93.6764 33.0188C93.6764 32.2255 93.8351 31.5301 94.1524 30.9328C94.4791 30.3261 94.9271 29.8595 95.4964 29.5328C96.0658 29.2061 96.7191 29.0428 97.4564 29.0428C98.3898 29.0428 99.1598 29.2668 99.7664 29.7148C100.382 30.1535 100.798 30.7835 101.012 31.6048H99.2904C99.1504 31.2221 98.9264 30.9235 98.6184 30.7088C98.3104 30.4941 97.9231 30.3868 97.4564 30.3868C96.8031 30.3868 96.2804 30.6201 95.8884 31.0868C95.5058 31.5441 95.3144 32.1881 95.3144 33.0188C95.3144 33.8495 95.5058 34.4981 95.8884 34.9648C96.2804 35.4315 96.8031 35.6648 97.4564 35.6648C98.3804 35.6648 98.9918 35.2588 99.2904 34.4468H101.012C100.788 35.2308 100.368 35.8561 99.7524 36.3228C99.1364 36.7801 98.3711 37.0088 97.4564 37.0088C96.7191 37.0088 96.0658 36.8455 95.4964 36.5188C94.9271 36.1828 94.4791 35.7161 94.1524 35.1188C93.8351 34.5121 93.6764 33.8121 93.6764 33.0188ZM104.465 30.4708V34.7408C104.465 35.0301 104.53 35.2401 104.661 35.3708C104.801 35.4921 105.034 35.5528 105.361 35.5528H106.341V36.8828H105.081C104.362 36.8828 103.812 36.7148 103.429 36.3788C103.046 36.0428 102.855 35.4968 102.855 34.7408V30.4708H101.945V29.1688H102.855V27.2508H104.465V29.1688H106.341V30.4708H104.465ZM108.624 28.1468C108.335 28.1468 108.092 28.0488 107.896 27.8528C107.7 27.6568 107.602 27.4141 107.602 27.1248C107.602 26.8355 107.7 26.5928 107.896 26.3968C108.092 26.2008 108.335 26.1028 108.624 26.1028C108.904 26.1028 109.142 26.2008 109.338 26.3968C109.534 26.5928 109.632 26.8355 109.632 27.1248C109.632 27.4141 109.534 27.6568 109.338 27.8528C109.142 28.0488 108.904 28.1468 108.624 28.1468ZM109.408 29.1688V36.8828H107.812V29.1688H109.408ZM114.485 35.4548L116.669 29.1688H118.363L115.423 36.8828H113.519L110.593 29.1688H112.301L114.485 35.4548ZM126.64 32.8368C126.64 33.1261 126.621 33.3875 126.584 33.6208H120.69C120.736 34.2368 120.965 34.7315 121.376 35.1048C121.786 35.4781 122.29 35.6648 122.888 35.6648C123.746 35.6648 124.353 35.3055 124.708 34.5868H126.43C126.196 35.2961 125.772 35.8795 125.156 36.3368C124.549 36.7848 123.793 37.0088 122.888 37.0088C122.15 37.0088 121.488 36.8455 120.9 36.5188C120.321 36.1828 119.864 35.7161 119.528 35.1188C119.201 34.5121 119.038 33.8121 119.038 33.0188C119.038 32.2255 119.196 31.5301 119.514 30.9328C119.84 30.3261 120.293 29.8595 120.872 29.5328C121.46 29.2061 122.132 29.0428 122.888 29.0428C123.616 29.0428 124.264 29.2015 124.834 29.5188C125.403 29.8361 125.846 30.2841 126.164 30.8628C126.481 31.4321 126.64 32.0901 126.64 32.8368ZM124.974 32.3328C124.964 31.7448 124.754 31.2735 124.344 30.9188C123.933 30.5641 123.424 30.3868 122.818 30.3868C122.267 30.3868 121.796 30.5641 121.404 30.9188C121.012 31.2641 120.778 31.7355 120.704 32.3328H124.974ZM134.132 31.1428V32.4868H128.378V31.1428H134.132ZM135.868 31.9968C135.868 31.0448 136.087 30.1908 136.526 29.4348C136.974 28.6788 137.576 28.0908 138.332 27.6708C139.097 27.2415 139.932 27.0268 140.838 27.0268C141.874 27.0268 142.793 27.2835 143.596 27.7968C144.408 28.3008 144.996 29.0195 145.36 29.9528H143.442C143.19 29.4395 142.84 29.0568 142.392 28.8048C141.944 28.5528 141.426 28.4268 140.838 28.4268C140.194 28.4268 139.62 28.5715 139.116 28.8608C138.612 29.1501 138.215 29.5655 137.926 30.1068C137.646 30.6481 137.506 31.2781 137.506 31.9968C137.506 32.7155 137.646 33.3455 137.926 33.8868C138.215 34.4281 138.612 34.8481 139.116 35.1468C139.62 35.4361 140.194 35.5808 140.838 35.5808C141.426 35.5808 141.944 35.4548 142.392 35.2028C142.84 34.9508 143.19 34.5681 143.442 34.0548H145.36C144.996 34.9881 144.408 35.7068 143.596 36.2108C142.793 36.7148 141.874 36.9668 140.838 36.9668C139.923 36.9668 139.088 36.7568 138.332 36.3368C137.576 35.9075 136.974 35.3148 136.526 34.5588C136.087 33.8028 135.868 32.9488 135.868 31.9968Z" fill="black"/>
</g>
<defs>
<filter id="filter0_d_3_125" x="0.1875" y="0.322754" width="175.82" height="63.2" filterUnits="userSpaceOnUse" color-interpolation-filters="sRGB">
<feFlood flood-opacity="0" result="BackgroundImageFix"/>
<feColorMatrix in="SourceAlpha" type="matrix" values="0 0 0 0 0 0 0 0 0 0 0 0 0 0 0 0 0 0 127 0" result="hardAlpha"/>
<feOffset/>
<feGaussianBlur stdDeviation="5"/>
<feComposite in2="hardAlpha" operator="out"/>
<feColorMatrix type="matrix" values="0 0 0 0 0 0 0 0 0 0 0 0 0 0 0 0 0 0 0.05 0"/>
<feBlend mode="normal" in2="BackgroundImageFix" result="effect1_dropShadow_3_125"/>
<feBlend mode="normal" in="SourceGraphic" in2="effect1_dropShadow_3_125" result="shape"/>
</filter>
<clipPath id="clip0_3_125">
<rect width="24" height="24" fill="white" transform="translate(30.1875 19.9329)"/>
</clipPath>
<clipPath id="clip1_3_125">
<rect width="24" height="24" fill="white" transform="translate(30.1875 19.9329)"/>
</clipPath>
<clipPath id="clip2_3_125">
<rect width="24" height="24" fill="white" transform="translate(30.1875 19.9329)"/>
</clipPath>
</defs>
</svg>
