<svg width="100" height="100" viewBox="0 0 100 100" fill="none" xmlns="http://www.w3.org/2000/svg">
<circle cx="50" cy="50" r="50" fill="#521212"/>
<path d="M50 80C66.5685 80 80 66.5685 80 50C80 33.4315 66.5685 20 50 20C33.4315 20 20 33.4315 20 50C20 66.5685 33.4315 80 50 80Z" fill="#1DA1F2"/>
<path fill-rule="evenodd" clip-rule="evenodd" d="M68.0001 38.4629C66.6766 39.0509 65.2522 39.4469 63.7584 39.6257C65.2834 38.7113 66.4546 37.2642 67.0053 35.54C65.5798 36.387 63.9972 37.0003 62.3161 37.3327C60.9685 35.8976 59.0475 35 56.9248 35C52.8463 35 49.5393 38.3071 49.5393 42.3856C49.5393 42.9638 49.6053 43.5278 49.7313 44.069C43.5925 43.7618 38.1508 40.8208 34.5079 36.3522C33.8719 37.443 33.5083 38.7113 33.5083 40.0649C33.5083 42.6268 34.8103 44.8874 36.7938 46.2121C35.5818 46.1737 34.4443 45.8413 33.4471 45.2881V45.3805C33.4471 48.9599 35.9946 51.944 39.3712 52.6244C38.752 52.7924 38.0992 52.8836 37.4262 52.8836C36.9498 52.8836 36.4866 52.8368 36.0354 52.7504C36.975 55.6842 39.7036 57.8201 42.9349 57.8801C40.4079 59.86 37.2234 61.0418 33.7627 61.0418C33.1651 61.0418 32.5773 61.007 32.0001 60.9374C35.2687 63.0326 39.1504 64.2565 43.3213 64.2565C56.9056 64.2565 64.3344 53.0024 64.3344 43.2434C64.3344 42.923 64.3284 42.604 64.3128 42.2884C65.7574 41.2444 67.0101 39.9437 68.0001 38.4629Z" fill="white"/>
</svg>
