<svg width="100" height="100" viewBox="0 0 100 100" fill="none" xmlns="http://www.w3.org/2000/svg">
<circle cx="50" cy="50" r="50" fill="#521212"/>
<g clip-path="url(#clip0_33_29)">
<path d="M49.9999 20C66.5694 20 80 33.4325 80 50.0001C80 66.5696 66.5694 80 49.9999 80C33.4304 80 20 66.5694 20 50.0001C20 33.4325 33.4306 20 49.9999 20Z" fill="#3B5998"/>
<path d="M53.6535 40.653H57.5198V34.9418H52.9748V34.9624C47.4679 35.1574 46.3392 38.253 46.2398 41.5043H46.2284V44.3562H42.4785V49.9492H46.2284V64.9417H51.8798V49.9492H56.5091L57.4034 44.3562H51.8816V42.6331C51.8816 41.5343 52.6128 40.653 53.6535 40.653Z" fill="white"/>
</g>
<defs>
<clipPath id="clip0_33_29">
<rect width="60" height="60" fill="white" transform="translate(20 20)"/>
</clipPath>
</defs>
</svg>
