<svg width="100" height="100" viewBox="0 0 100 100" fill="none" xmlns="http://www.w3.org/2000/svg">
<circle cx="50" cy="50" r="50" fill="#521212"/>
<g clip-path="url(#clip0_33_33)">
<path fill-rule="evenodd" clip-rule="evenodd" d="M50.0018 20C33.4345 20 20 33.4309 20 50.0018C20 62.2826 27.3876 72.8382 37.9609 77.4775C37.8762 75.3854 37.9467 72.8664 38.4795 70.5874C39.058 68.1531 42.339 54.2424 42.339 54.2424C42.339 54.2424 41.3829 52.3267 41.3829 49.4938C41.3829 45.0485 43.9619 41.7287 47.1688 41.7287C49.8959 41.7287 51.2154 43.7784 51.2154 46.2339C51.2154 48.9751 49.4655 53.0781 48.5659 56.8777C47.8144 60.0635 50.1605 62.6566 53.3004 62.6566C58.9839 62.6566 62.8118 55.3572 62.8118 46.7067C62.8118 40.1341 58.3842 35.2126 50.3299 35.2126C41.2313 35.2126 35.5618 41.9968 35.5618 49.5749C35.5618 52.1926 36.3309 54.0342 37.5375 55.4595C38.0949 56.1192 38.169 56.3803 37.9679 57.1353C37.8268 57.6821 37.4951 59.0157 37.3576 59.5414C37.1565 60.2999 36.5426 60.5751 35.8582 60.2928C31.6634 58.5818 29.7125 53.9919 29.7125 48.8305C29.7125 40.3105 36.8989 30.0864 51.1519 30.0864C62.6072 30.0864 70.1464 38.3807 70.1464 47.2747C70.1464 59.0439 63.6056 67.8356 53.9566 67.8356C50.7215 67.8356 47.6733 66.0857 46.629 64.0995C46.629 64.0995 44.8862 71.0108 44.5193 72.3443C43.8843 74.6551 42.6389 76.9695 41.4994 78.7687C44.1983 79.566 47.0489 80 50.0018 80C66.569 80 80 66.569 80 50.0018C80 33.4309 66.569 20 50.0018 20Z" fill="#CC2127"/>
</g>
<defs>
<clipPath id="clip0_33_33">
<rect width="60" height="60" fill="white" transform="translate(20 20)"/>
</clipPath>
</defs>
</svg>
