<svg width="100" height="100" viewBox="0 0 100 100" fill="none" xmlns="http://www.w3.org/2000/svg">
<circle cx="50" cy="50" r="50" fill="#521212"/>
<path d="M50 80C66.5685 80 80 66.5685 80 50C80 33.4315 66.5685 20 50 20C33.4315 20 20 33.4315 20 50C20 66.5685 33.4315 80 50 80Z" fill="#0077B5"/>
<path fill-rule="evenodd" clip-rule="evenodd" d="M42.1621 35.3958C42.1621 37.2635 40.7401 38.7749 38.5164 38.7749C36.3792 38.7749 34.957 37.2635 35.0011 35.3958C34.957 33.4374 36.379 31.97 38.559 31.97C40.7401 31.97 42.1195 33.4374 42.1621 35.3958ZM35.1799 63.1986V41.4443H41.9407V63.1971L35.1799 63.1986Z" fill="white"/>
<path fill-rule="evenodd" clip-rule="evenodd" d="M47.3585 48.3868C47.3585 45.6735 47.2691 43.3602 47.1797 41.4472H53.0522L53.3643 44.4274H53.4978C54.3876 43.048 56.6114 40.959 60.2147 40.959C64.6623 40.959 67.9988 43.8952 67.9988 50.2984V63.2014H61.2378V51.1456C61.2378 48.3415 60.2601 46.4298 57.8135 46.4298C55.9445 46.4298 54.8331 47.7198 54.389 48.9645C54.2102 49.4101 54.1221 50.0317 54.1221 50.656V63.2014H47.3612V48.3868H47.3585Z" fill="white"/>
</svg>
