<svg width="100" height="100" viewBox="0 0 100 100" fill="none" xmlns="http://www.w3.org/2000/svg">
<circle cx="50" cy="50" r="50" fill="#521212"/>
<path d="M50 80C66.5685 80 80 66.5685 80 50C80 33.4315 66.5685 20 50 20C33.4315 20 20 33.4315 20 50C20 66.5685 33.4315 80 50 80Z" fill="#C13584"/>
<path d="M50.0001 35.2433C54.8062 35.2433 55.3756 35.2616 57.2736 35.3481C59.0286 35.4282 59.9817 35.7215 60.616 35.9679C61.4562 36.2945 62.0557 36.6845 62.6856 37.3144C63.3156 37.9444 63.7056 38.5439 64.0321 39.3841C64.2786 40.0184 64.5718 40.9715 64.6519 42.7263C64.7385 44.6244 64.7568 45.1937 64.7568 49.9999C64.7568 54.8062 64.7385 55.3754 64.6519 57.2735C64.5718 59.0285 64.2786 59.9814 64.0321 60.6158C63.7056 61.4559 63.3156 62.0557 62.6857 62.6855C62.0557 63.3154 61.4562 63.7053 60.616 64.0319C59.9817 64.2785 59.0286 64.5716 57.2736 64.6517C55.3759 64.7383 54.8067 64.7567 50.0001 64.7567C45.1935 64.7567 44.6244 64.7383 42.7266 64.6517C40.9716 64.5716 40.0185 64.2785 39.3841 64.0319C38.544 63.7053 37.9444 63.3154 37.3146 62.6855C36.6847 62.0557 36.2946 61.4559 35.968 60.6158C35.7216 59.9814 35.4283 59.0285 35.3482 57.2735C35.2617 55.3754 35.2434 54.8062 35.2434 49.9999C35.2434 45.1937 35.2617 44.6244 35.3482 42.7263C35.4283 40.9715 35.7216 40.0184 35.968 39.3841C36.2946 38.5439 36.6846 37.9444 37.3146 37.3145C37.9444 36.6845 38.544 36.2945 39.3841 35.9679C40.0185 35.7215 40.9716 35.4282 42.7266 35.3481C44.6245 35.2616 45.1939 35.2433 50.0001 35.2433ZM50.0001 32C45.1116 32 44.4985 32.0207 42.5787 32.1083C40.6629 32.1957 39.3543 32.5 38.2093 32.945C37.0257 33.4049 36.0219 34.0203 35.0212 35.0212C34.0204 36.0218 33.405 37.0256 32.9451 38.2092C32.5 39.3542 32.1958 40.6627 32.1084 42.5786C32.0208 44.4985 32.0001 45.1115 32.0001 49.9999C32.0001 54.8885 32.0208 55.5014 32.1084 57.4212C32.1958 59.3372 32.5 60.6456 32.9451 61.7906C33.405 62.9742 34.0204 63.9781 35.0212 64.9789C36.0219 65.9795 37.0257 66.5949 38.2093 67.0548C39.3543 67.4999 40.6629 67.8041 42.5787 67.8915C44.4985 67.9791 45.1116 67.9999 50.0001 67.9999C54.8886 67.9999 55.5016 67.9791 57.4215 67.8915C59.3373 67.8041 60.6459 67.4999 61.7908 67.0548C62.9745 66.5949 63.9783 65.9795 64.9789 64.9789C65.9796 63.9781 66.5952 62.9742 67.0551 61.7906C67.5001 60.6456 67.8043 59.3372 67.8918 57.4212C67.9794 55.5014 68.0001 54.8885 68.0001 49.9999C68.0001 45.1115 67.9794 44.4985 67.8918 42.5786C67.8043 40.6627 67.5001 39.3542 67.0551 38.2092C66.5952 37.0256 65.9796 36.0218 64.9789 35.0212C63.9783 34.0203 62.9745 33.4049 61.7908 32.945C60.6459 32.5 59.3373 32.1957 57.4215 32.1083C55.5016 32.0207 54.8886 32 50.0001 32Z" fill="white"/>
<path d="M50.0089 40.765C44.9039 40.765 40.7657 44.9032 40.7657 50.0081C40.7657 55.1131 44.9039 59.2513 50.0089 59.2513C55.1138 59.2513 59.2522 55.1131 59.2522 50.0081C59.2522 44.9032 55.1138 40.765 50.0089 40.765ZM50.0089 56.0081C46.6952 56.0081 44.0089 53.3218 44.0089 50.0081C44.0089 46.6945 46.6952 44.0081 50.0089 44.0081C53.3227 44.0081 56.0089 46.6945 56.0089 50.0081C56.0089 53.3218 53.3227 56.0081 50.0089 56.0081Z" fill="white"/>
<path d="M61.777 40.3944C61.777 41.5872 60.81 42.5544 59.617 42.5544C58.4241 42.5544 57.457 41.5872 57.457 40.3944C57.457 39.2015 58.4241 38.2343 59.617 38.2343C60.81 38.2343 61.777 39.2015 61.777 40.3944Z" fill="white"/>
</svg>
