<svg width="100" height="100" viewBox="0 0 100 100" fill="none" xmlns="http://www.w3.org/2000/svg">
<circle cx="50" cy="50" r="50" fill="#521212"/>
<path d="M50 80C66.5685 80 80 66.5685 80 50C80 33.4315 66.5685 20 50 20C33.4315 20 20 33.4315 20 50C20 66.5685 33.4315 80 50 80Z" fill="#FF0000"/>
<path fill-rule="evenodd" clip-rule="evenodd" d="M66.9509 38.5671C67.5495 39.1658 67.9809 39.9109 68.202 40.7281C69.4754 45.8536 69.1811 53.9486 68.2268 59.2719C68.0057 60.0892 67.5743 60.8342 66.9756 61.4329C66.377 62.0315 65.6319 62.4629 64.8147 62.684C61.823 63.5 49.7817 63.5 49.7817 63.5C49.7817 63.5 37.7405 63.5 34.7487 62.684C33.9315 62.4629 33.1865 62.0315 32.5878 61.4329C31.9892 60.8342 31.5578 60.0892 31.3367 59.2719C30.0558 54.1686 30.407 46.0687 31.3119 40.7528C31.533 39.9354 31.9644 39.1904 32.5631 38.5918C33.1617 37.9931 33.9068 37.5619 34.724 37.3406C37.7157 36.5247 49.757 36.5 49.757 36.5C49.757 36.5 61.7982 36.5 64.79 37.316C65.6072 37.5371 66.3522 37.9685 66.9509 38.5671ZM55.9136 50L45.9246 55.7857V44.2142L55.9136 50Z" fill="white"/>
</svg>
