<svg width="120" height="120" viewBox="0 0 120 120" fill="none" xmlns="http://www.w3.org/2000/svg">
<path d="M95.35 95.35C114.9 75.8 114.9 44.1499 95.35 24.6499" stroke="white" stroke-width="7.5" stroke-linecap="round" stroke-linejoin="round"/>
<path d="M24.65 24.6499C5.09999 44.1999 5.09999 75.85 24.65 95.35" stroke="white" stroke-width="7.5" stroke-linecap="round" stroke-linejoin="round"/>
<path d="M43.5001 107.049C48.8501 108.899 54.4 109.8 60 109.8C65.6 109.75 71.1499 108.899 76.4999 107.049" stroke="white" stroke-width="7.5" stroke-linecap="round" stroke-linejoin="round"/>
<path d="M43.5001 12.9509C48.8501 11.1009 54.4 10.2007 60 10.2007C65.6 10.2007 71.1499 11.1009 76.4999 12.9509" stroke="white" stroke-width="7.5" stroke-linecap="round" stroke-linejoin="round"/>
<path d="M43.7 60.0007V51.6508C43.7 41.2508 51.05 37.0007 60.05 42.2007L67.3 46.4008L74.55 50.6007C83.55 55.8007 83.55 64.3008 74.55 69.5008L67.3 73.7006L60.05 77.9008C51.05 83.1008 43.7 78.8507 43.7 68.4507V60.0007Z" stroke="white" stroke-width="7.5" stroke-miterlimit="10" stroke-linecap="round" stroke-linejoin="round"/>
</svg>
