<svg width="100" height="100" viewBox="0 0 100 100" fill="none" xmlns="http://www.w3.org/2000/svg">
<path fill-rule="evenodd" clip-rule="evenodd" d="M92.0075 68.0318L91.7331 68.4765L91.4589 68.9151L91.1852 69.348L90.9122 69.7751L90.64 70.1966L90.3688 70.6127L90.0986 71.0235L89.8297 71.4292L89.562 71.8298L89.2957 72.2255L89.0308 72.6164L88.7674 73.0027L88.5055 73.3846L88.2452 73.7621L87.9864 74.1355L87.7291 74.5047L87.4734 74.87L87.2191 75.2315L86.9663 75.5892L86.7148 75.9434L86.4647 76.294L86.2159 76.6413L85.9682 76.9853L85.7217 77.326L85.4762 77.6636L85.2315 77.9982L84.9877 78.3298L84.7446 78.6584L84.5021 78.9842L84.26 79.3072L84.0183 79.6274L83.7769 79.9449L83.5355 80.2596L83.2942 80.5717L83.0527 80.8811L82.8111 81.1878L82.5691 81.4919L82.3266 81.7933L82.0835 82.0921L81.8398 82.3882L81.5953 82.6817L81.35 82.9724L81.1037 83.2604L80.8564 83.5457L80.6079 83.8283L80.3583 84.1081L80.1074 84.3851L79.8552 84.6592L79.6017 84.9306L79.3468 85.199L79.0904 85.4646L78.8327 85.7273L78.5735 85.9871L78.3128 86.2439L78.0507 86.4979L77.7872 86.7489L77.5222 86.9969L77.2558 87.2421L76.9879 87.4843L76.7187 87.7235L76.448 87.9598L76.176 88.1931L75.9026 88.4235L75.6278 88.6509L75.3517 88.8753L75.0743 89.0968L74.7956 89.3154L74.5157 89.531L74.2344 89.7437L73.952 89.9534L73.6684 90.1602L73.3836 90.3641L73.0977 90.5651L72.8106 90.7632L72.5225 90.9585L72.2333 91.1509L71.9431 91.3404L71.6519 91.5272L71.3597 91.7111L71.0666 91.8923L70.7726 92.0708L70.4778 92.2465L70.1821 92.4196L69.8855 92.59L69.5882 92.7579L69.2902 92.9232L68.9914 93.0859L68.692 93.2462L68.3919 93.4041L68.0912 93.5596L67.7898 93.7127L67.4879 93.8636L67.1854 94.0122L66.8823 94.1586L66.5787 94.3029L66.2746 94.445L65.9699 94.585L65.6647 94.723L65.359 94.859L65.0527 94.993L64.746 95.125L64.4387 95.2551L64.1308 95.3832L63.8224 95.5095L63.5135 95.6339L63.204 95.7565L62.8939 95.8773L62.5833 95.9962L62.272 96.1134L61.9602 96.2289L61.6477 96.3426L61.3346 96.4546L61.0208 96.565L60.7064 96.6736L60.3913 96.7807L60.0754 96.8861L59.7589 96.9899L59.4416 97.0921L59.1236 97.1927L58.8048 97.2918L58.4852 97.3894L58.1647 97.4855L57.8434 97.5801L57.5213 97.6732L57.1982 97.7648L56.8743 97.855L56.5493 97.9438L56.2234 98.0311L55.8965 98.117L55.5685 98.2016L55.2395 98.2846L54.9093 98.3663L54.5781 98.4466L54.2456 98.5255L53.912 98.6029L53.5771 98.6789L53.2409 98.7534L52.9035 98.8264L52.5647 98.8979L52.2245 98.9678L51.883 99.0362L51.54 99.1029L51.1956 99.1679L50.8496 99.2311L50.5022 99.2926L50.1532 99.3521L49.8027 99.4096L49.4506 99.4651L49.097 99.5184L48.7417 99.5695L48.3849 99.6181L48.0265 99.6644L47.6664 99.708L47.3048 99.7491L46.9416 99.7873L46.5769 99.8228L46.2106 99.8552L45.8427 99.8847L45.4733 99.911L45.1025 99.9341L44.7301 99.9538L44.3564 99.9702L43.9812 99.9831L43.6047 99.9924L43.2268 99.9981L42.8477 100L42.4673 99.9981L42.0857 99.9923L41.7029 99.9826L41.319 99.9688L40.9341 99.951L40.5482 99.929L40.1612 99.9027L39.7734 99.8722L39.3848 99.8374L38.9953 99.7982L38.6051 99.7546L38.2142 99.7065L37.8226 99.6539L37.4305 99.5969L37.0379 99.5352L36.6447 99.469L36.2512 99.3981L35.8572 99.3227L35.463 99.2426L35.0684 99.1578L34.6737 99.0684L34.2788 98.9743L33.8837 98.8755L33.4886 98.772L33.0935 98.6637L32.6984 98.5507L32.3035 98.4328L31.9087 98.3102L31.5142 98.1827L31.12 98.0504L30.7261 97.9132L30.3327 97.7711L29.9397 97.6241L29.5474 97.4722L29.1556 97.3154L28.7645 97.1536L28.3741 96.9869L27.9846 96.8152L27.5959 96.6386L27.2081 96.4571L26.8213 96.2706L26.4354 96.0792L26.0507 95.8828L25.6671 95.6816L25.2846 95.4754L24.9034 95.2644L24.5234 95.0485L24.1446 94.8277L23.7672 94.6021L23.3911 94.3718L23.0164 94.1366L22.6431 93.8967L22.2713 93.6521L21.9008 93.4028L21.5318 93.1489L21.1643 92.8903L20.7983 92.6271L20.4338 92.3593L20.0707 92.087L19.7092 91.8101L19.3492 91.5288L18.9907 91.2429L18.6338 90.9527L18.2784 90.6579L17.9245 90.3588L17.5722 90.0552L17.2214 89.7472L16.8722 89.4348L16.5246 89.1181L16.1786 88.7969L15.8342 88.4714L15.4914 88.1415L15.1503 87.8072L14.811 87.4684L14.4734 87.1253L14.1376 86.7777L13.8036 86.4256L13.4716 86.0691L13.1415 85.708L12.8136 85.3424L12.4877 84.9723L12.164 84.5976L11.8426 84.2184L11.5235 83.8345L11.2068 83.4461L10.8926 83.053L10.5809 82.6553L10.2718 82.2529L9.9655 81.8459L9.66194 81.4343L9.36124 81.0179L9.0635 80.5969L8.76879 80.1712L8.47721 79.7408L8.18885 79.3057L7.9038 78.866L7.62216 78.4215L7.34402 77.9724L7.06947 77.5186L6.79864 77.0601L6.5316 76.597L6.26848 76.1292L6.00937 75.6568L5.75438 75.1797L5.50363 74.6981L5.25722 74.2119L5.01526 73.7211L4.77788 73.2258L4.54518 72.726L4.31729 72.2218L4.09431 71.7131L3.87636 71.2L3.66357 70.6826L3.45604 70.1608L3.2539 69.6348L3.05723 69.1046L2.86615 68.5703L2.68073 68.0318L2.50107 67.4893L2.32724 66.9429L2.15931 66.3925L1.99735 65.8382L1.84141 65.2802L1.69157 64.7184L1.54785 64.153L1.41032 63.5839L1.27901 63.0114L1.15396 62.4353L1.03521 61.8558L0.922777 61.273L0.816702 60.6868L0.717005 60.0975L0.62371 59.5049L0.536838 58.9093L0.456407 58.3105L0.382437 57.7088L0.314944 57.1041L0.253944 56.4965L0.199454 55.8861L0.151491 55.2729L0.110069 54.6569L0.0752081 54.0383L0.0469253 53.417L0.0252406 52.7931L0.0101755 52.1667L0.00175343 51.5378L0 50.9064L0.00494348 50.2727L0.0166149 49.6366L0.0350485 48.9983L0.0602817 48.3577L0.0923555 47.7149L0.131315 47.07L0.177209 46.4231L0.23009 45.7741L0.290017 45.1232L0.35705 44.4705L0.431257 43.8159L0.512709 43.1597L0.601482 42.5018L0.697658 41.8423L0.801322 41.1814L0.912567 40.5192L1.03149 39.8557L1.15819 39.191L1.29277 38.5254L1.43534 37.8588L1.58603 37.1915L1.74494 36.5236L1.91221 35.8552L2.08797 35.1865L2.27234 34.5177L2.46546 33.8489L2.66745 33.1804L2.87845 32.5124L3.09856 31.845L3.32791 31.1784L3.56661 30.5129L3.81476 29.8487L4.07246 29.1859L4.3398 28.5249L4.61688 27.8658L4.90377 27.2089L5.20056 26.5545L5.5073 25.9026L5.82406 25.2537L6.15089 24.6079L6.48785 23.9655L6.83497 23.3268L7.19229 22.692L7.55983 22.0613L7.93761 21.435L8.32565 20.8134L8.72393 20.1967L9.13246 19.5853L9.55122 18.9793L9.98019 18.379L10.4193 17.7846L10.8686 17.1966L11.328 16.615L11.7975 16.0402L12.2769 15.4724L12.7662 14.9119L13.2654 14.3589L13.7743 13.8137L14.2929 13.2765L14.821 12.7476L15.3586 12.2273L15.9055 11.7157L16.4615 11.2131L17.0267 10.7197L17.6007 10.2358L18.1835 9.76155L18.7749 9.29713L19.3747 8.84273L19.9827 8.39855L20.5988 7.96476L21.2227 7.54151L21.8542 7.12896L22.4932 6.72725L23.1394 6.33652L23.7927 5.95689L24.4527 5.58848L25.1193 5.23139L25.7923 4.88574L26.4714 4.5516L27.1563 4.22907L27.8469 3.91821L28.543 3.61909L29.2442 3.33177L29.9503 3.0563L30.6612 2.79272L31.3765 2.54106L32.0961 2.30136L32.8197 2.07363L33.547 1.85789L34.2778 1.65413L35.0119 1.46237L35.749 1.28258L36.489 1.11476L37.2315 0.958886L37.9764 0.814931L38.7234 0.682862L39.4723 0.562641L40.2228 0.454224L40.9749 0.357563L41.7281 0.272603L42.4824 0.199284L43.2375 0.137545L43.9932 0.0873152L44.7493 0.0485241L45.5056 0.0210951L46.2619 0.00494817L47.018 0L47.7737 0.00616386L48.5288 0.0233501L49.2832 0.0514661L50.0366 0.090417L50.789 0.140106L51.54 0.200433L52.2896 0.271297L53.0376 0.352597L53.7838 0.444227L54.528 0.546085L55.2702 0.658065L56.0102 0.780061L56.7477 0.911968L57.4828 1.05368L58.2152 1.20508L58.9448 1.36607L59.6714 1.53653L60.395 1.71635L61.1154 1.90541L61.8325 2.10361L62.5462 2.31082L63.2564 2.52693L63.9629 2.75182L64.6656 2.98538L65.3645 3.22749L66.0595 3.47803L66.7504 3.7369L67.4371 4.00397L68.1196 4.27913L68.7977 4.56226L69.4714 4.85327L70.1406 5.15202L70.8052 5.45843L71.4652 5.77237L72.1204 6.09374L72.7707 6.42244L73.4162 6.75837L74.0567 7.10142L74.6921 7.45151L75.3225 7.80852L75.9476 8.17237L76.5675 8.54298L77.182 8.92024L77.7911 9.30407L78.3948 9.6944L78.9929 10.0911L79.5855 10.4942L80.1723 10.9035L80.7534 11.3191L81.3287 11.7407L81.898 12.1684L82.4614 12.6021L83.0187 13.0418L83.5698 13.4874L84.1147 13.939L84.6531 14.3964L85.1851 14.8598L85.7104 15.329L86.2289 15.8041L86.7406 16.285L87.2452 16.7718L87.7426 17.2644L88.2327 17.7629L88.7152 18.2673L89.1901 18.7775L89.6571 19.2936L90.1161 19.8155L90.5668 20.3432L91.0091 20.8768L91.4428 21.4161L91.8677 21.9613L92.2836 22.5122L92.6902 23.0688L93.0874 23.6311L93.475 24.199L93.8527 24.7725L94.2203 25.3515L94.5776 25.936L94.9245 26.5258L95.2606 27.1208L95.5858 27.721L95.9 28.3262L96.2028 28.9364L96.4941 29.5513L96.7737 30.1709L97.0414 30.7949L97.2971 31.4233L97.5406 32.0558L97.7717 32.6922L97.9902 33.3324L98.1962 33.9762L98.3893 34.6232L98.5696 35.2733L98.7369 35.9263L98.8911 36.5819L99.0322 37.2398L99.16 37.8998L99.2747 38.5616L99.3762 39.2249L99.4644 39.8894L99.5393 40.5549L99.6012 41.2209L99.6498 41.8873L99.6855 42.5537L99.7082 43.2198L99.7181 43.8853L99.7153 44.5498L99.7 45.2131L99.6723 45.8748L99.6325 46.5346L99.5807 47.1922L99.5173 47.8474L99.4423 48.4997L99.3561 49.149L99.2589 49.795L99.1509 50.4373L99.0326 51.0757L98.904 51.7101L98.7657 52.34L98.6177 52.9653L98.4606 53.5858L98.2945 54.2012L98.1199 54.8114L97.9371 55.4162L97.7464 56.0154L97.5482 56.6087L97.3427 57.1962L97.1305 57.7776L96.9119 58.3527L96.6871 58.9216L96.4567 59.4841L96.2209 60.0401L95.9801 60.5895L95.7346 61.1323L95.485 61.6684L95.2314 62.1978L94.9743 62.7204L94.7139 63.2364L94.4508 63.7456L94.1851 64.248L93.9172 64.7438L93.6475 65.233L93.3763 65.7155L93.1039 66.1915L92.8305 66.6611L92.5565 67.1242L92.2821 67.5811L92.0075 68.0318Z" fill="#DDA72A"/>
<path d="M37.8125 63.4395C31.3789 63.4395 27.4766 58.3945 27.4766 50.3262V50.291C27.4766 42.2227 31.3789 37.1953 37.8125 37.1953C44.2461 37.1953 48.1484 42.2227 48.1484 50.291V50.3262C48.1484 58.3945 44.2461 63.4395 37.8125 63.4395ZM37.8125 59.1855C40.9766 59.1855 42.7871 55.8984 42.7871 50.3262V50.291C42.7871 44.7188 40.9766 41.4492 37.8125 41.4492C34.6484 41.4492 32.8379 44.7188 32.8379 50.291V50.3262C32.8379 55.8984 34.6484 59.1855 37.8125 59.1855ZM60.8574 63.4395C55.1094 63.4395 51.3477 60.416 50.9961 56.0391L50.9785 55.8105H56.041L56.0762 56.0039C56.3047 57.8145 58.0977 59.168 60.8398 59.168C63.5645 59.168 65.3223 57.709 65.3223 55.6348V55.5996C65.3223 53.1738 63.5117 51.8379 60.4531 51.8379H57.5527V48.0586H60.3828C63.0371 48.0586 64.7598 46.6523 64.7598 44.5957V44.5605C64.7598 42.5039 63.3008 41.2734 60.8047 41.2734C58.3262 41.2734 56.6387 42.5566 56.4277 44.5254L56.4102 44.6836H51.541L51.5586 44.4727C51.9102 40.0781 55.4785 37.1953 60.8047 37.1953C66.2715 37.1953 69.7871 39.8672 69.7871 43.8574V43.8926C69.7871 47.0566 67.4668 49.1133 64.4961 49.7285V49.834C68.2578 50.1855 70.7188 52.3652 70.7188 55.8105V55.8457C70.7188 60.3809 66.7812 63.4395 60.8574 63.4395Z" fill="#121212"/>
</svg>
