<svg width="106" height="100" viewBox="0 0 106 100" fill="none" xmlns="http://www.w3.org/2000/svg">
<path fill-rule="evenodd" clip-rule="evenodd" d="M105.412 51.5451L105.351 52.2995L105.279 53.0522L105.199 53.8031L105.108 54.5522L105.009 55.2994L104.9 56.0444L104.782 56.7873L104.654 57.528L104.518 58.2662L104.372 59.0019L104.216 59.7349L104.05 60.4649L103.874 61.1919L103.686 61.9154L103.487 62.6351L103.275 63.3507L103.05 64.0617L102.81 64.7677L102.557 65.4681L102.287 66.1624L102.002 66.8499L101.7 67.53L101.38 68.2019L101.042 68.8649L100.685 69.5183L100.31 70.1613L99.9142 70.7931L99.4989 71.4129L99.0636 72.0199L98.6082 72.6134L98.1327 73.1926L97.6375 73.7569L97.1228 74.3056L96.5892 74.8383L96.0372 75.3543L95.4677 75.8534L94.8812 76.3352L94.2787 76.7992L93.661 77.2452L93.029 77.6731L92.3836 78.0828L91.726 78.4741L91.0572 78.847L90.3782 79.2018L89.6902 79.5385L88.9944 79.8573L88.2919 80.1587L87.584 80.443L86.8717 80.7106L86.1565 80.9622L85.4394 81.1984L84.7216 81.4199L84.0043 81.6274L83.2887 81.8218L82.5758 82.004L81.8669 82.175L81.1628 82.3357L80.4646 82.4874L79.7732 82.6309L79.0895 82.7676L78.4143 82.8986L77.7484 83.0251L77.0924 83.1484L76.4468 83.2696L75.8123 83.39L75.1891 83.5108L74.5778 83.6333L73.9784 83.7587L73.3912 83.888L72.8162 84.0225L72.2534 84.1633L71.7028 84.3113L71.1641 84.4675L70.637 84.6329L70.1212 84.8083L69.6163 84.9943L69.1217 85.1918L68.6369 85.4012L68.1612 85.6231L67.6939 85.8577L67.2342 86.1054L66.7814 86.3662L66.3346 86.6404L65.8928 86.9276L65.4552 87.2279L65.0209 87.5408L64.5888 87.8659L64.1582 88.2028L63.7279 88.5509L63.2972 88.9096L62.8652 89.2781L62.431 89.6557L61.9937 90.0414L61.5526 90.4344L61.107 90.8337L60.656 91.2381L60.1991 91.6465L59.7356 92.0577L59.265 92.4705L58.7867 92.8836L58.3003 93.2957L57.8054 93.7054L57.3017 94.1114L56.789 94.5124L56.2672 94.907L55.736 95.2938L55.1954 95.6717L54.6456 96.0393L54.0866 96.3955L53.5186 96.7392L52.9418 97.0694L52.3565 97.3851L51.763 97.6856L51.1617 97.9701L50.5531 98.2378L49.9375 98.4883L49.3154 98.7208L48.6874 98.9349L48.0539 99.1302L47.4155 99.3062L46.7728 99.4626L46.1262 99.5993L45.4764 99.716L44.824 99.8126L44.1695 99.8893L43.5134 99.946L42.8563 99.9828L42.1988 100L41.5413 99.9978L40.8844 99.9767L40.2284 99.9369L39.5739 99.8789L38.9212 99.8033L38.2707 99.7106L37.6227 99.6014L36.9775 99.4763L36.3354 99.3361L35.6965 99.1814L35.061 99.013L34.4291 98.8315L33.8008 98.6378L33.1763 98.4326L32.5554 98.2166L31.9381 97.9905L31.3244 97.7551L30.7143 97.5112L30.1075 97.2593L29.5039 97L28.9034 96.7341L28.3058 96.462L27.7109 96.1842L27.1184 95.9013L26.5282 95.6136L25.94 95.3215L25.3537 95.0252L24.7691 94.7251L24.1859 94.4212L23.6041 94.1137L23.0235 93.8027L22.444 93.4881L21.8656 93.1698L21.2882 92.8478L20.7119 92.5218L20.1367 92.1916L19.5628 91.857L18.9902 91.5176L18.4192 91.1732L17.8498 90.8235L17.2824 90.4681L16.7172 90.1068L16.1543 89.7394L15.5941 89.3654L15.0368 88.9847L14.4827 88.597L13.9323 88.202L13.3858 87.7993L12.8436 87.3889L12.3062 86.9704L11.774 86.5435L11.2474 86.1081L10.7269 85.664L10.2129 85.2109L9.70601 84.7487L9.20664 84.2773L8.71532 83.7966L8.23253 83.3064L7.75878 82.8067L7.29455 82.2976L6.8403 81.7789L6.39648 81.2509L5.96352 80.7135L5.54183 80.1669L5.13183 79.6111L4.73394 79.0465L4.34864 78.473L3.97637 77.8909L3.61761 77.3002L3.27285 76.7013L2.94258 76.0942L2.62729 75.4792L2.32749 74.8566L2.04366 74.2265L1.77632 73.5893L1.52594 72.9453L1.293 72.2947L1.07798 71.6379L0.881329 70.9753L0.70347 70.3073L0.544816 69.6342L0.405749 68.9566L0.286623 68.2749L0.187757 67.5896L0.109437 66.9012L0.051909 66.2102L0.0153764 65.5172L0 64.8227L0.00589403 64.1273L0.0331243 63.4317L0.0817067 62.7364L0.151605 62.042L0.242732 61.3491L0.354946 60.6584L0.48805 59.9705L0.641796 59.286L0.815881 58.6055L1.00995 57.9296L1.22359 57.259L1.45635 56.5941L1.70772 55.9356L1.97714 55.2839L2.26402 54.6396L2.56771 54.0032L2.88753 53.3752L3.22278 52.7559L3.57268 52.1457L3.93648 51.5451L4.31337 50.9544L4.70251 50.3738L5.10306 49.8036L5.51418 49.2441L5.93498 48.6954L6.3646 48.1576L6.80216 47.6308L7.24677 47.1152L7.69749 46.6106L8.15332 46.1172L8.61322 45.6348L9.07613 45.1632L9.54095 44.7022L10.0066 44.2517L10.472 43.8113L10.9359 43.3806L11.3975 42.9593L11.8555 42.5469L12.309 42.1428L12.757 41.7465L13.1986 41.3575L13.6328 40.9751L14.0587 40.5986L14.4756 40.2273L14.8827 39.8605L15.2793 39.4974L15.6647 39.1372L16.0384 38.7791L16.3997 38.4222L16.7481 38.0657L17.0832 37.7086L17.4044 37.3501L17.7114 36.9891L18.0038 36.6247L18.2814 36.2559L18.5438 35.8817L18.791 35.5012L19.0231 35.1134L19.2403 34.7176L19.4428 34.3129L19.6309 33.8985L19.8053 33.4738L19.9664 33.0381L20.115 32.5909L20.2517 32.1316L20.3776 31.6599L20.4934 31.1755L20.6002 30.678L20.699 30.1674L20.791 29.6436L20.8773 29.1066L20.9592 28.5566L21.0377 27.9936L21.1142 27.4182L21.19 26.8305L21.2663 26.2311L21.3443 25.6206L21.4254 24.9995L21.5108 24.3685L21.6016 23.7285L21.6992 23.0802L21.8045 22.4245L21.9188 21.7625L22.0432 21.0951L22.1785 20.4234L22.3258 19.7484L22.4859 19.0713L22.6597 18.3933L22.8479 17.7153L23.0512 17.0388L23.2702 16.3648L23.5054 15.6945L23.7572 15.0291L24.0261 14.3697L24.3123 13.7175L24.6161 13.0736L24.9375 12.4391L25.2767 11.815L25.6336 11.2024L26.0082 10.6021L26.4002 10.0152L26.8096 9.44237L27.2361 8.88451L27.6792 8.34234L28.1387 7.81654L28.6141 7.30771L29.1049 6.8164L29.6106 6.34303L30.1306 5.88792L30.6643 5.45131L31.211 5.03333L31.7701 4.63404L32.3409 4.25342L32.9227 3.89135L33.5148 3.54768L34.1166 3.22219L34.7273 2.91461L35.3462 2.62462L35.9729 2.35187L36.6066 2.09599L37.2469 1.85659L37.893 1.63327L38.5445 1.42563L39.2009 1.23328L39.8618 1.05583L40.5266 0.892937L41.195 0.744269L41.8666 0.609543L42.541 0.488518L43.218 0.381005L43.8971 0.286873L44.5782 0.206056L45.2608 0.138542L45.9447 0.0843252L46.6296 0.0433942L47.3152 0.015724L48.0012 0.0012769L48.6874 0L49.3734 0.0118238L50.0591 0.0366602L50.744 0.0744013L51.428 0.124918L52.1107 0.188058L52.792 0.263646L53.4716 0.351482L54.1493 0.451341L54.8248 0.562973L55.498 0.686103L56.1686 0.820429L56.8365 0.965627L57.5016 1.12135L58.1637 1.28722L58.8228 1.46286L59.4787 1.64784L60.1314 1.84175L60.7808 2.04413L61.427 2.25455L62.07 2.47252L62.7099 2.69759L63.3466 2.92927L63.9803 3.16711L64.6111 3.41064L65.2392 3.65938L65.8647 3.91291L66.4879 4.1708L67.1088 4.43262L67.7278 4.69799L68.3451 4.96657L68.9609 5.23801L69.5755 5.51203L70.1892 5.78837L70.8021 6.06681L71.4146 6.34719L72.0269 6.62938L72.6392 6.9133L73.2518 7.19892L73.8648 7.48627L74.4785 7.77542L75.0929 8.0665L75.7082 8.35968L76.3245 8.6552L76.9418 8.95334L77.56 9.25441L78.1792 9.55881L78.7992 9.86694L79.4199 10.1792L80.0411 10.496L80.6627 10.8177L81.2846 11.1446L81.9065 11.4771L82.5283 11.8156L83.1498 12.1603L83.7707 12.5116L84.3908 12.8698L85.0097 13.2354L85.6272 13.6085L86.2429 13.9896L86.8564 14.379L87.4674 14.777L88.0752 15.184L88.6796 15.6003L89.2799 16.0261L89.8757 16.4617L90.4665 16.9074L91.0517 17.3635L91.6308 17.8301L92.2033 18.3073L92.7687 18.7954L93.3264 19.2942L93.8761 19.804L94.4173 20.3245L94.9497 20.8559L95.4729 21.3979L95.9865 21.9505L96.4901 22.5136L96.9833 23.0871L97.4657 23.6708L97.937 24.2647L98.3965 24.8686L98.8441 25.4823L99.2793 26.1057L99.7017 26.7385L100.111 27.3805L100.507 28.0315L100.888 28.6912L101.256 29.3594L101.609 30.0357L101.948 30.7199L102.271 31.4116L102.579 32.1104L102.872 32.816L103.15 33.528L103.412 34.2461L103.658 34.9698L103.889 35.6987L104.104 36.4325L104.303 37.1707L104.487 37.9129L104.655 38.6588L104.809 39.4078L104.947 40.1597L105.07 40.9139L105.179 41.6702L105.274 42.4282L105.354 43.1876L105.421 43.9479L105.475 44.7089L105.515 45.4703L105.543 46.2318L105.558 46.9931L105.562 47.754L105.554 48.5143L105.534 49.2737L105.504 50.0321L105.463 50.7893L105.412 51.5451Z" fill="#DDA72A"/>
<path d="M44.7246 63.5625C38.3438 63.5625 34.459 58.4824 34.459 50.2734C34.459 42.082 38.3789 37.0547 44.7246 37.0547C51.0703 37.0547 54.9727 42.0645 54.9727 50.2559C54.9727 58.4473 51.1055 63.5625 44.7246 63.5625ZM44.7246 59.3086C47.748 59.3086 49.5762 56.0566 49.5762 50.2734C49.5762 44.543 47.7305 41.3086 44.7246 41.3086C41.7363 41.3086 39.8555 44.5605 39.8555 50.2734C39.8555 56.0391 41.7012 59.3086 44.7246 59.3086ZM70.3359 63V58.4824H57.7148V53.9648C59.9297 49.7461 62.6895 45.2988 67.8926 37.6348H75.3809V54.2285H78.6855V58.4824H75.3809V63H70.3359ZM62.373 54.2461V54.3867H70.4414V41.3965H70.3359C66.6445 46.8105 64.4297 50.2734 62.373 54.2461Z" fill="#121212"/>
</svg>
