<svg width="106" height="100" viewBox="0 0 106 100" fill="none" xmlns="http://www.w3.org/2000/svg">
<path fill-rule="evenodd" clip-rule="evenodd" d="M102.426 39.8231L102.674 40.4903L102.912 41.1637L103.141 41.843L103.36 42.528L103.569 43.2187L103.766 43.9148L103.952 44.6161L104.127 45.3223L104.289 46.0333L104.438 46.7486L104.575 47.4681L104.699 48.1914L104.808 48.9183L104.905 49.6484L104.986 50.3814L105.054 51.117L105.106 51.8547L105.144 52.5942L105.167 53.3352L105.174 54.0773L105.165 54.82L105.141 55.563L105.101 56.3059L105.044 57.0483L104.972 57.7898L104.883 58.5299L104.778 59.2683L104.657 60.0045L104.519 60.7382L104.365 61.4689L104.194 62.1963L104.008 62.9199L103.805 63.6394L103.586 64.3544L103.35 65.0644L103.099 65.7692L102.833 66.4684L102.55 67.1616L102.253 67.8486L101.94 68.5289L101.613 69.2023L101.27 69.8686L100.914 70.5274L100.543 71.1785L100.159 71.8216L99.7617 72.4566L99.3512 73.0833L98.928 73.7015L98.4926 74.311L98.0454 74.9118L97.5867 75.5038L97.117 76.0869L96.6368 76.661L96.1464 77.2262L95.6464 77.7824L95.1371 78.3297L94.619 78.8681L94.0926 79.3978L93.5583 79.9188L93.0165 80.4313L92.4677 80.9353L91.9123 81.4311L91.3507 81.9188L90.7833 82.3987L90.2105 82.8709L89.6326 83.3357L89.0501 83.7933L88.4632 84.2439L87.8724 84.6879L87.2778 85.1254L86.6797 85.5568L86.0785 85.9822L85.4742 86.402L84.8673 86.8164L84.2577 87.2256L83.6458 87.6299L83.0315 88.0296L82.4151 88.4248L81.7966 88.8157L81.176 89.2026L80.5535 89.5855L79.929 89.9647L79.3026 90.3402L78.6741 90.7122L78.0436 91.0807L77.4109 91.4458L76.7761 91.8074L76.139 92.1656L75.4995 92.5202L74.8575 92.8712L74.2129 93.2185L73.5654 93.5618L72.915 93.9009L72.2615 94.2357L71.6048 94.5658L70.9447 94.8908L70.281 95.2105L69.6137 95.5245L68.9426 95.8323L68.2675 96.1334L67.5885 96.4275L66.9053 96.714L66.218 96.9923L65.5265 97.262L64.8307 97.5224L64.1307 97.7731L63.4265 98.0133L62.7182 98.2427L62.0057 98.4604L61.2892 98.6661L60.5689 98.859L59.845 99.0386L59.1175 99.2044L58.3867 99.3559L57.6529 99.4925L56.9163 99.6137L56.1773 99.7191L55.4361 99.8083L54.6931 99.881L53.9487 99.9367L53.2032 99.9753L52.4571 99.9964L51.7107 100L50.9645 99.9859L50.2188 99.954L49.4742 99.9044L48.7311 99.8372L47.9898 99.7524L47.2508 99.6504L46.5145 99.5313L45.7814 99.3954L45.0517 99.243L44.3259 99.0744L43.6043 98.89L42.8872 98.6903L42.175 98.4755L41.4679 98.2462L40.7663 98.0029L40.0704 97.746L39.3803 97.4761L38.6964 97.1937L38.0187 96.8994L37.3474 96.5937L36.6827 96.2772L36.0247 95.9505L35.3733 95.6142L34.7287 95.2689L34.0908 94.9152L33.4597 94.5537L32.8354 94.185L32.2176 93.8095L31.6065 93.428L31.0018 93.041L30.4035 92.649L29.8114 92.2525L29.2253 91.852L28.645 91.448L28.0704 91.041L27.5013 90.6313L26.9375 90.2194L26.3786 89.8055L25.8246 89.3902L25.2751 88.9735L24.7299 88.5559L24.1889 88.1375L23.6517 87.7185L23.1182 87.2991L22.5881 86.8794L22.0613 86.4594L21.5376 86.0392L21.0168 85.6189L20.4987 85.1983L19.9832 84.7775L19.4702 84.3565L18.9596 83.935L18.4512 83.513L17.945 83.0904L17.441 82.6669L16.939 82.2426L16.4392 81.817L15.9415 81.3901L15.4459 80.9616L14.9525 80.5312L14.4615 80.0987L13.9729 79.6638L13.4869 79.2263L13.0037 78.7858L12.5235 78.3421L12.0465 77.8948L11.573 77.4436L11.1033 76.9884L10.6377 76.5286L10.1765 76.0642L9.72016 75.5947L9.26902 75.1199L8.8235 74.6396L8.38403 74.1535L7.95104 73.6614L7.525 73.163L7.10638 72.6582L6.69566 72.1469L6.29332 71.6289L5.89983 71.104L5.5157 70.5722L5.14139 70.0335L4.77737 69.4878L4.4241 68.9352L4.08203 68.3756L3.75158 67.8092L3.43314 67.2361L3.12708 66.6564L2.83375 66.0702L2.55346 65.4779L2.28649 64.8795L2.03314 64.2754L1.79368 63.6658L1.56835 63.051L1.35741 62.4312L1.16108 61.8067L0.979571 61.1779L0.813064 60.545L0.661732 59.9084L0.525727 59.2685L0.405175 58.6256L0.300184 57.98L0.210836 57.3322L0.137191 56.6824L0.0792862 56.0312L0.0371324 55.3788L0.0107164 54.7257L0 54.0723L0.00491937 53.419L0.0253855 52.7662L0.0612839 52.1143L0.112475 51.4636L0.178794 50.8146L0.260051 50.1677L0.356033 49.5233L0.466502 48.8817L0.591197 48.2433L0.729837 47.6084L0.882115 46.9776L1.04771 46.3509L1.22627 45.7289L1.41743 45.1118L1.62082 44.4998L1.83604 43.8934L2.06268 43.2928L2.3003 42.6982L2.54848 42.1098L2.80676 41.5279L3.07468 40.9527L3.35179 40.3844L3.63761 39.8231L3.93166 39.269L4.23346 38.7222L4.54249 38.1827L4.85825 37.6508L5.18018 37.1264L5.50773 36.6096L5.84035 36.1004L6.17745 35.5987L6.51847 35.1047L6.86283 34.6181L7.20997 34.1389L7.5593 33.6671L7.91028 33.2024L8.26235 32.7447L8.61499 32.2939L8.96766 31.8498L9.31987 31.412L9.67113 30.9805L10.021 30.555L10.369 30.1351L10.7148 29.7206L11.0579 29.3113L11.3981 28.9067L11.735 28.5067L12.0682 28.1109L12.3977 27.7188L12.723 27.3304L13.0441 26.9451L13.3607 26.5626L13.6727 26.1827L13.9801 25.805L14.2828 25.4292L14.5806 25.0549L14.8737 24.6819L15.1621 24.3098L15.4457 23.9384L15.7246 23.5673L15.9991 23.1963L16.2691 22.8251L16.5348 22.4535L16.7964 22.0812L17.054 21.7081L17.3079 21.3338L17.5582 20.9582L17.8052 20.5811L18.0492 20.2024L18.2904 19.822L18.5293 19.4397L18.7661 19.0555L19.0013 18.6695L19.2353 18.2815L19.4685 17.8918L19.7013 17.5002L19.9342 17.1071L20.1677 16.7125L20.4022 16.3165L20.6382 15.9195L20.8762 15.5217L21.1166 15.1234L21.3599 14.7248L21.6066 14.3263L21.8572 13.9283L22.112 13.5313L22.3715 13.1355L22.6361 12.7414L22.9061 12.3496L23.182 11.9604L23.464 11.5744L23.7525 11.192L24.0477 10.8138L24.35 10.4404L24.6594 10.0721L24.9763 9.70948L25.3007 9.35314L25.6328 9.00354L25.9726 8.66118L26.3202 8.32655L26.6757 8.00012L27.039 7.68235L27.41 7.37367L27.7887 7.07449L28.175 6.7852L28.5686 6.50617L28.9695 6.23772L29.3774 5.98015L29.7921 5.73373L30.2133 5.49867L30.6408 5.27513L31.0741 5.06321L31.513 4.86293L31.957 4.67428L32.4058 4.49717L32.859 4.33147L33.3161 4.17697L33.7767 4.03342L34.2404 3.90052L34.7067 3.77791L35.1753 3.66518L35.6458 3.5619L36.1178 3.46758L36.5908 3.38168L37.0646 3.30365L37.5388 3.2329L38.0131 3.16882L38.4873 3.11077L38.9611 3.05812L39.4343 3.01018L39.9066 2.96631L40.3781 2.92582L40.8484 2.88805L41.3177 2.85234L41.7858 2.81806L42.2526 2.78455L42.7184 2.75123L43.183 2.71752L43.6466 2.68285L44.1093 2.64672L44.5713 2.60866L45.0327 2.56823L45.4937 2.52506L45.9546 2.47879L46.4156 2.42917L46.8769 2.37595L47.3388 2.31899L47.8016 2.25816L48.2656 2.19343L48.7311 2.12482L49.1983 2.05242L49.6675 1.97636L50.139 1.89682L50.6131 1.81403L51.0899 1.72826L51.5699 1.6398L52.0531 1.54902L52.5398 1.45628L53.0302 1.36201L53.5244 1.26667L54.0225 1.17073L54.5248 1.0747L55.0312 0.979129L55.5418 0.884563L56.0567 0.791585L56.5759 0.700788L57.0993 0.61278L57.6269 0.52818L58.1585 0.447613L58.6942 0.371708L59.2337 0.301096L59.7768 0.236403L60.3234 0.17825L60.8733 0.127251L61.4261 0.0840062L61.9815 0.0491011L62.5394 0.0231039L63.0993 0.00656208L63.6609 0L64.2238 0.00391654L64.7876 0.0187826L65.352 0.0450393L65.9164 0.0830956L66.4806 0.133327L67.044 0.196073L67.6062 0.271638L68.1667 0.360287L68.7251 0.462247L69.281 0.577707L69.834 0.706815L70.3834 0.849678L70.929 1.00636L71.4704 1.1769L72.007 1.36128L72.5386 1.55944L73.0648 1.77127L73.5851 1.99662L74.0994 2.23529L74.6073 2.48706L75.1086 2.75164L75.6031 3.02873L76.0905 3.318L76.5707 3.61907L77.0437 3.93156L77.5092 4.25505L77.9674 4.58911L78.418 4.93329L78.8612 5.28713L79.2971 5.65015L79.7256 6.02188L80.1469 6.40184L80.5611 6.78955L80.9684 7.18452L81.3691 7.58628L81.7633 7.99437L82.1513 8.40834L82.5333 8.82773L82.9096 9.25212L83.2806 9.68111L83.6466 10.1143L84.0078 10.5513L84.3647 10.9918L84.7177 11.4355L85.0669 11.8821L85.4129 12.3313L85.7559 12.7828L86.0964 13.2365L86.4346 13.6922L86.771 14.1497L87.1057 14.6089L87.4393 15.0697L87.7718 15.532L88.1037 15.9959L88.4352 16.4613L88.7664 16.9282L89.0977 17.3967L89.4291 17.8669L89.7609 18.3387L90.0932 18.8124L90.4262 19.2881L90.7598 19.7658L91.0944 20.2457L91.4298 20.728L91.7662 21.2128L92.1035 21.7003L92.4419 22.1908L92.7811 22.6843L93.1213 23.1811L93.4624 23.6813L93.8042 24.1853L94.1466 24.6932L94.4895 25.2052L94.8328 25.7215L95.1762 26.2423L95.5196 26.7678L95.8627 27.2983L96.2053 27.8339L96.5472 28.3748L96.8879 28.9211L97.2273 29.4731L97.565 30.0309L97.9007 30.5947L98.2341 31.1645L98.5647 31.7406L98.8921 32.323L99.216 32.9118L99.5361 33.5071L99.8518 34.1089L100.163 34.7174L100.468 35.3325L100.768 35.9543L101.063 36.5827L101.35 37.2177L101.631 37.8594L101.904 38.5075L102.169 39.1621L102.426 39.8231Z" fill="#DDA72A"/>
<path d="M41.8125 63.4395C35.3789 63.4395 31.4766 58.3945 31.4766 50.3262V50.291C31.4766 42.2227 35.3789 37.1953 41.8125 37.1953C48.2461 37.1953 52.1484 42.2227 52.1484 50.291V50.3262C52.1484 58.3945 48.2461 63.4395 41.8125 63.4395ZM41.8125 59.1855C44.9766 59.1855 46.7871 55.8984 46.7871 50.3262V50.291C46.7871 44.7188 44.9766 41.4492 41.8125 41.4492C38.6484 41.4492 36.8379 44.7188 36.8379 50.291V50.3262C36.8379 55.8984 38.6484 59.1855 41.8125 59.1855ZM65.6484 63.4395C59.5312 63.4395 55.0664 59.1328 55.0664 50.5371V50.502C55.0664 42.1875 59.0918 37.1953 65.7012 37.1953C70.6055 37.1953 74.2969 40.0254 75.0527 43.9453L75.0879 44.1211H69.8496L69.7969 43.9629C69.1641 42.4336 67.7578 41.3965 65.6836 41.3965C61.9746 41.3965 60.3574 44.9297 60.1641 49.4121C60.1465 49.7637 60.1289 50.1152 60.1289 50.3789H60.2344C61.2363 48.0234 63.7324 46.3008 67.1602 46.3008C72.0645 46.3008 75.4219 49.7812 75.4219 54.5273V54.5625C75.4219 59.748 71.291 63.4395 65.6484 63.4395ZM60.9375 54.6855C60.9375 57.2344 62.9766 59.2207 65.5781 59.2207C68.1621 59.2207 70.2539 57.252 70.2539 54.7559V54.7207C70.2539 52.084 68.2676 50.2207 65.6309 50.2207C62.9766 50.2207 60.9375 52.0664 60.9375 54.6504V54.6855Z" fill="#121212"/>
</svg>
