<svg width="58" height="58" viewBox="0 0 58 58" fill="none" xmlns="http://www.w3.org/2000/svg">
<rect width="58" height="58" rx="18.1197" fill="#521212"/>
<g filter="url(#filter0_d_95_16)">
<path d="M36.9613 27.2292C36.3522 27.2292 35.8705 26.7333 35.8705 26.1383C35.8705 25.6142 35.3463 24.5234 34.468 23.5742C33.6038 22.6534 32.6547 22.115 31.8613 22.115C31.2522 22.115 30.7705 21.6192 30.7705 21.0242C30.7705 20.4292 31.2663 19.9333 31.8613 19.9333C33.278 19.9333 34.7655 20.6983 36.0688 22.0725C37.2872 23.3617 38.0663 24.9625 38.0663 26.1242C38.0663 26.7334 37.5705 27.2292 36.9613 27.2292Z" fill="#DCA629"/>
<path d="M42.0758 27.2292C41.4667 27.2292 40.985 26.7334 40.985 26.1384C40.985 21.1092 36.8908 17.0292 31.8758 17.0292C31.2667 17.0292 30.785 16.5334 30.785 15.9384C30.785 15.3434 31.2667 14.8334 31.8617 14.8334C38.095 14.8334 43.1667 19.905 43.1667 26.1384C43.1667 26.7334 42.6708 27.2292 42.0758 27.2292Z" fill="#DCA629"/>
<path d="M27.6538 33.1791L25.033 35.7999C24.4805 36.3524 23.6022 36.3524 23.0355 35.8141C22.8797 35.6583 22.7238 35.5166 22.568 35.3608C21.1088 33.8874 19.7913 32.3433 18.6155 30.7283C17.4538 29.1133 16.5188 27.4983 15.8388 25.8974C15.173 24.2824 14.833 22.7383 14.833 21.2649C14.833 20.3016 15.003 19.3808 15.343 18.5308C15.683 17.6666 16.2213 16.8733 16.9722 16.1649C17.8788 15.2724 18.8705 14.8333 19.9188 14.8333C20.3155 14.8333 20.7122 14.9183 21.0663 15.0883C21.4347 15.2583 21.7605 15.5133 22.0155 15.8816L25.3022 20.5141C25.5572 20.8683 25.7413 21.1941 25.8688 21.5058C25.9963 21.8033 26.0672 22.1008 26.0672 22.3699C26.0672 22.7099 25.968 23.0499 25.7697 23.3758C25.5855 23.7016 25.3163 24.0416 24.9763 24.3816L23.8997 25.5008C23.7438 25.6566 23.673 25.8408 23.673 26.0674C23.673 26.1808 23.6872 26.2799 23.7155 26.3933C23.758 26.5066 23.8005 26.5916 23.8288 26.6766C24.0838 27.1441 24.523 27.7533 25.1463 28.4899C25.7838 29.2266 26.4638 29.9774 27.2005 30.7283C27.3422 30.8699 27.498 31.0116 27.6397 31.1533C28.2063 31.7058 28.2205 32.6124 27.6538 33.1791Z" fill="#DCA629"/>
<path d="M43.1238 37.9674C43.1238 38.3641 43.0529 38.7749 42.9113 39.1716C42.8688 39.2849 42.8263 39.3982 42.7696 39.5116C42.5288 40.0216 42.2171 40.5032 41.8063 40.9566C41.1121 41.7216 40.3471 42.2741 39.4829 42.6282C39.4688 42.6282 39.4546 42.6424 39.4404 42.6424C38.6046 42.9824 37.6979 43.1666 36.7204 43.1666C35.2754 43.1666 33.7313 42.8266 32.1021 42.1324C30.4729 41.4382 28.8438 40.5032 27.2288 39.3274C26.6763 38.9166 26.1238 38.5057 25.5996 38.0666L30.2321 33.4341C30.6288 33.7316 30.9829 33.9582 31.2804 34.1141C31.3513 34.1424 31.4363 34.1849 31.5354 34.2274C31.6488 34.2699 31.7621 34.2841 31.8896 34.2841C32.1304 34.2841 32.3146 34.1991 32.4704 34.0432L33.5471 32.9807C33.9013 32.6266 34.2413 32.3574 34.5671 32.1874C34.8929 31.9891 35.2188 31.8899 35.5729 31.8899C35.8421 31.8899 36.1254 31.9466 36.4371 32.0741C36.7488 32.2016 37.0746 32.3857 37.4288 32.6266L42.1179 35.9557C42.4863 36.2107 42.7413 36.5082 42.8971 36.8624C43.0388 37.2166 43.1238 37.5707 43.1238 37.9674Z" fill="#DCA629"/>
</g>
<defs>
<filter id="filter0_d_95_16" x="8" y="12" width="42" height="42" filterUnits="userSpaceOnUse" color-interpolation-filters="sRGB">
<feFlood flood-opacity="0" result="BackgroundImageFix"/>
<feColorMatrix in="SourceAlpha" type="matrix" values="0 0 0 0 0 0 0 0 0 0 0 0 0 0 0 0 0 0 127 0" result="hardAlpha"/>
<feOffset dy="4"/>
<feGaussianBlur stdDeviation="2"/>
<feComposite in2="hardAlpha" operator="out"/>
<feColorMatrix type="matrix" values="0 0 0 0 0 0 0 0 0 0 0 0 0 0 0 0 0 0 0.25 0"/>
<feBlend mode="normal" in2="BackgroundImageFix" result="effect1_dropShadow_95_16"/>
<feBlend mode="normal" in="SourceGraphic" in2="effect1_dropShadow_95_16" result="shape"/>
</filter>
</defs>
</svg>
