<svg width="58" height="58" viewBox="0 0 58 58" fill="none" xmlns="http://www.w3.org/2000/svg">
<rect width="58" height="58" rx="18.1197" fill="#521212"/>
<g filter="url(#filter0_d_95_17)">
<path d="M24.2647 39.8711L22.8474 44.8559C22.6545 45.5308 22.0374 45.9984 21.3336 46C21.189 46 21.0443 45.9807 20.9061 45.9389C20.0705 45.7027 19.5836 44.8349 19.8166 43.9977L21.377 38.5131C22.2865 39.0708 23.2555 39.5256 24.2647 39.8711ZM36.6494 38.5132C35.7399 39.0709 34.7709 39.5256 33.7617 39.8711L35.179 44.8559C35.3719 45.5308 35.989 45.9984 36.6928 46C36.8374 46 36.9821 45.9807 37.1203 45.9389C37.9559 45.7027 38.4428 44.8349 38.2098 43.9977L36.6494 38.5132ZM28.4649 26.3309H26.4417C26.588 27.5152 27.52 28.4489 28.7044 28.5967V26.5575C28.6063 26.5045 28.5228 26.4257 28.4649 26.3309ZM29.5625 25.6881H31.5841C31.4362 24.5102 30.5106 23.5814 29.3343 23.4287V25.4696C29.4259 25.5226 29.5046 25.5981 29.5609 25.6881L29.5625 25.6881ZM28.706 25.4648L28.7044 23.4287C27.5233 23.5766 26.5912 24.507 26.4418 25.6881H28.4778C28.5308 25.5981 28.6031 25.521 28.6915 25.4648L28.706 25.4648ZM29.3488 26.5575V28.5967H29.3472C30.5219 28.4376 31.441 27.5072 31.5841 26.3309H29.5609C29.5063 26.4241 29.4275 26.5028 29.3343 26.5575L29.3488 26.5575ZM43.0257 25.9998C43.0289 29.7168 41.5553 33.2842 38.9295 35.915C36.3021 38.544 32.7378 40.024 29.0209 40.0256C25.304 40.0289 21.7382 38.5537 19.109 35.9263C16.4784 33.2989 15.0016 29.7346 15 26.0177C14.9984 22.3008 16.4752 18.735 19.1026 16.1058C21.73 13.4768 25.296 12 29.0128 12C32.7249 12.0048 36.2861 13.4816 38.9116 16.1058C41.5389 18.73 43.0176 22.2875 43.0257 25.9998ZM30.2983 16.7532C30.2693 16.9267 30.3866 17.0906 30.5602 17.1212C32.3889 17.441 34.0763 18.3167 35.389 19.6297C36.7035 20.9426 37.5793 22.6283 37.9007 24.4568C37.9248 24.6127 38.0598 24.7252 38.2173 24.7236H38.2735C38.3571 24.7091 38.4326 24.6609 38.4808 24.5902C38.5307 24.5211 38.5499 24.4343 38.5339 24.3508C38.1916 22.3903 37.2531 20.5841 35.847 19.178C34.4393 17.7703 32.6347 16.8319 30.6759 16.4864C30.4992 16.459 30.3304 16.5764 30.2983 16.7532ZM19.4912 24.3461C19.4751 24.4296 19.4944 24.5164 19.5442 24.5871C19.5924 24.6562 19.668 24.7044 19.7515 24.7189H19.8078C19.9653 24.7205 20.1002 24.608 20.1244 24.4537C20.4457 22.625 21.3232 20.9409 22.6345 19.6282C23.9473 18.3169 25.6331 17.4411 27.4616 17.1213C27.6352 17.0908 27.7509 16.9269 27.722 16.7533C27.6898 16.5782 27.5259 16.4609 27.3491 16.4866C25.3919 16.8305 23.5856 17.7705 22.1797 19.1767C20.7736 20.5828 19.8351 22.3874 19.4912 24.3461ZM27.7271 35.2687C27.7416 35.1852 27.7223 35.1 27.6741 35.0309C27.6243 34.9618 27.5503 34.9136 27.4652 34.9007C25.6364 34.581 23.9491 33.7052 22.6363 32.3922C21.3219 31.0794 20.4461 29.3936 20.1246 27.5651C20.0957 27.3899 19.9302 27.271 19.755 27.3015C19.5799 27.3304 19.461 27.496 19.4915 27.6711C19.8338 29.6316 20.7723 31.4378 22.1783 32.8439C23.5844 34.2499 25.3907 35.1884 27.3494 35.5307H27.4057C27.5615 35.5339 27.6982 35.423 27.7271 35.2687ZM38.5342 27.6709C38.5647 27.4957 38.4458 27.3302 38.2706 27.3013C38.0955 27.2707 37.9299 27.3897 37.901 27.5648C37.5796 29.3935 36.7038 31.0793 35.3909 32.392C34.078 33.7033 32.3923 34.5807 30.5637 34.9005C30.4802 34.9134 30.4063 34.9616 30.3564 35.0307C30.3066 35.0998 30.2873 35.1849 30.3034 35.2685C30.3307 35.4228 30.4641 35.5352 30.62 35.5352H30.6762C32.6351 35.1914 34.4413 34.2529 35.849 32.8452C37.2551 31.4391 38.1935 29.6313 38.5342 27.6709ZM39.9322 25.9996C39.9322 25.8229 39.7876 25.6782 39.6108 25.6782H32.2479C32.092 24.1404 30.8739 22.9239 29.3344 22.7696V20.1985C31.0892 20.3029 32.7027 21.1948 33.7264 22.6234C33.7874 22.707 33.8855 22.7568 33.9883 22.7568C34.0542 22.7552 34.1185 22.7343 34.1731 22.6957C34.3065 22.5945 34.3386 22.4081 34.2454 22.2682C33.1029 20.6693 31.2966 19.6778 29.3343 19.5717V15.4114C29.3343 15.2346 29.1897 15.09 29.0129 15.09C28.8362 15.09 28.6915 15.2346 28.6915 15.4114V19.5717C26.7327 19.6714 24.9232 20.6548 23.7759 22.2457C23.7197 22.3148 23.6924 22.4032 23.7036 22.4916C23.7132 22.58 23.7615 22.6603 23.8338 22.7134C23.9061 22.7664 23.9961 22.7857 24.0829 22.7696C24.1712 22.7519 24.2484 22.6989 24.295 22.6234C25.3234 21.1996 26.9384 20.3158 28.6918 20.2145V22.7857C27.1524 22.9415 25.9343 24.1564 25.7784 25.6959H18.4155C18.2387 25.6959 18.0941 25.8405 18.0941 26.0173C18.0941 26.194 18.2387 26.3387 18.4155 26.3387H25.7784C25.9343 27.8781 27.1524 29.0962 28.6918 29.2521V31.8232C26.937 31.7188 25.3236 30.8269 24.2999 29.3983C24.2517 29.3228 24.1762 29.2698 24.0878 29.2521C24.001 29.236 23.9094 29.2553 23.8371 29.3083C23.7648 29.3614 23.7182 29.4417 23.7069 29.5301C23.6973 29.6185 23.723 29.7069 23.7809 29.776C24.9282 31.3669 26.7361 32.3503 28.6965 32.45V36.6103C28.6965 36.7871 28.8395 36.9317 29.0179 36.9317C29.1946 36.9317 29.3393 36.7871 29.3393 36.6103V32.45C31.2982 32.3503 33.106 31.3669 34.2532 29.776C34.3577 29.6297 34.324 29.4273 34.1793 29.3228C34.0331 29.2199 33.8306 29.2521 33.7261 29.3983C32.6977 30.8221 31.0827 31.7059 29.3293 31.8072V29.236C30.8688 29.0785 32.0868 27.8604 32.2443 26.321H39.6105C39.6957 26.3226 39.7777 26.2889 39.8387 26.2294C39.8998 26.1683 39.9322 26.0864 39.9322 25.9996Z" fill="#DCA629"/>
</g>
<defs>
<filter id="filter0_d_95_17" x="11" y="12" width="36.0256" height="42" filterUnits="userSpaceOnUse" color-interpolation-filters="sRGB">
<feFlood flood-opacity="0" result="BackgroundImageFix"/>
<feColorMatrix in="SourceAlpha" type="matrix" values="0 0 0 0 0 0 0 0 0 0 0 0 0 0 0 0 0 0 127 0" result="hardAlpha"/>
<feOffset dy="4"/>
<feGaussianBlur stdDeviation="2"/>
<feComposite in2="hardAlpha" operator="out"/>
<feColorMatrix type="matrix" values="0 0 0 0 0 0 0 0 0 0 0 0 0 0 0 0 0 0 0.25 0"/>
<feBlend mode="normal" in2="BackgroundImageFix" result="effect1_dropShadow_95_17"/>
<feBlend mode="normal" in="SourceGraphic" in2="effect1_dropShadow_95_17" result="shape"/>
</filter>
</defs>
</svg>
