<svg width="59" height="59" viewBox="0 0 59 59" fill="none" xmlns="http://www.w3.org/2000/svg">
<rect x="0.854492" y="0.298828" width="58" height="58" rx="18.1197" fill="#521212"/>
<g filter="url(#filter0_d_95_18)">
<path d="M25.6042 15.1323C21.8925 15.1323 18.875 18.1498 18.875 21.8615C18.875 25.5023 21.7225 28.449 25.4342 28.5765C25.5475 28.5623 25.6608 28.5623 25.7458 28.5765C25.7742 28.5765 25.7883 28.5765 25.8167 28.5765C25.8308 28.5765 25.8308 28.5765 25.845 28.5765C29.4717 28.449 32.3192 25.5023 32.3333 21.8615C32.3333 18.1498 29.3158 15.1323 25.6042 15.1323Z" fill="#DCA629"/>
<path d="M32.8009 32.3449C28.8484 29.7099 22.4025 29.7099 18.4217 32.3449C16.6225 33.5491 15.6309 35.1782 15.6309 36.9207C15.6309 38.6632 16.6225 40.2782 18.4075 41.4682C20.3909 42.7999 22.9975 43.4657 25.6042 43.4657C28.2109 43.4657 30.8175 42.7999 32.8009 41.4682C34.5859 40.2641 35.5775 38.6491 35.5775 36.8924C35.5634 35.1499 34.5859 33.5349 32.8009 32.3449Z" fill="#DCA629"/>
<path d="M41.1736 22.6972C41.4003 25.4456 39.4453 27.8539 36.7395 28.1797C36.7253 28.1797 36.7253 28.1797 36.7111 28.1797H36.6686C36.5836 28.1797 36.4986 28.1797 36.4278 28.2081C35.0536 28.2789 33.7928 27.8397 32.8436 27.0322C34.3028 25.7289 35.1386 23.7739 34.9686 21.6489C34.8695 20.5014 34.4728 19.4531 33.8778 18.5606C34.4161 18.2914 35.0395 18.1214 35.677 18.0647C38.4536 17.8239 40.9328 19.8922 41.1736 22.6972Z" fill="#DCA629"/>
<path d="M44.007 35.8013C43.8937 37.1755 43.0154 38.3655 41.542 39.173C40.1254 39.9522 38.3404 40.3205 36.5695 40.278C37.5895 39.3572 38.1845 38.2097 38.2979 36.9913C38.4395 35.2347 37.6037 33.5488 35.932 32.203C34.9829 31.4522 33.8779 30.8572 32.6737 30.418C35.8045 29.5113 39.7429 30.1205 42.1654 32.0755C43.4687 33.1238 44.1345 34.4413 44.007 35.8013Z" fill="#DCA629"/>
</g>
<defs>
<filter id="filter0_d_95_18" x="8.85449" y="12.2988" width="42" height="42" filterUnits="userSpaceOnUse" color-interpolation-filters="sRGB">
<feFlood flood-opacity="0" result="BackgroundImageFix"/>
<feColorMatrix in="SourceAlpha" type="matrix" values="0 0 0 0 0 0 0 0 0 0 0 0 0 0 0 0 0 0 127 0" result="hardAlpha"/>
<feOffset dy="4"/>
<feGaussianBlur stdDeviation="2"/>
<feComposite in2="hardAlpha" operator="out"/>
<feColorMatrix type="matrix" values="0 0 0 0 0 0 0 0 0 0 0 0 0 0 0 0 0 0 0.25 0"/>
<feBlend mode="normal" in2="BackgroundImageFix" result="effect1_dropShadow_95_18"/>
<feBlend mode="normal" in="SourceGraphic" in2="effect1_dropShadow_95_18" result="shape"/>
</filter>
</defs>
</svg>
