<svg width="140" height="65" viewBox="0 0 140 65" fill="none" xmlns="http://www.w3.org/2000/svg">
<g filter="url(#filter0_d_3_85)">
<rect x="10.6992" y="10.3228" width="118.8" height="44.19" rx="22.095" fill="white" shape-rendering="crispEdges"/>
<g clip-path="url(#clip0_3_85)">
<g clip-path="url(#clip1_3_85)">
<g clip-path="url(#clip2_3_85)">
<path d="M42.5563 19.913C41.5667 19.9176 40.6216 20.002 39.7901 20.1492C37.3404 20.582 36.8956 21.4878 36.8956 23.1583V25.3646H42.6845V26.1H36.8956H34.7231C33.0407 26.1 31.5675 27.1112 31.1067 29.0349C30.5752 31.2399 30.5517 32.6159 31.1067 34.9182C31.5182 36.632 32.5009 37.8532 34.1834 37.8532H36.1737V35.2084C36.1737 33.2976 37.8269 31.6122 39.7901 31.6122H45.5722C47.1817 31.6122 48.4666 30.287 48.4666 28.6706V23.1583C48.4666 21.5895 47.1432 20.411 45.5722 20.1492C44.5777 19.9836 43.5459 19.9084 42.5563 19.913ZM39.4257 21.6875C40.0237 21.6875 40.512 22.1838 40.512 22.794C40.512 23.4021 40.0237 23.8938 39.4257 23.8938C38.8257 23.8938 38.3395 23.4021 38.3395 22.794C38.3395 22.1838 38.8257 21.6875 39.4257 21.6875Z" fill="url(#paint0_linear_3_85)"/>
<path d="M49.1914 26.1003V28.6709C49.1914 30.6638 47.5018 32.3412 45.5751 32.3412H39.7929C38.2091 32.3412 36.8984 33.6968 36.8984 35.2829V40.7952C36.8984 42.364 38.2626 43.2868 39.7929 43.7369C41.6254 44.2757 43.3826 44.373 45.5751 43.7369C47.0324 43.3149 48.4695 42.4657 48.4695 40.7952V38.5889H42.6874V37.8535H48.4695H51.364C53.0464 37.8535 53.6733 36.68 54.2584 34.9186C54.8628 33.1052 54.8371 31.3614 54.2584 29.0353C53.8426 27.3604 53.0485 26.1003 51.364 26.1003H49.1914ZM45.9394 40.0598C46.5395 40.0598 47.0257 40.5515 47.0257 41.1595C47.0257 41.7697 46.5395 42.266 45.9394 42.266C45.3414 42.266 44.8531 41.7697 44.8531 41.1595C44.8531 40.5515 45.3414 40.0598 45.9394 40.0598Z" fill="url(#paint1_linear_3_85)"/>
</g>
</g>
</g>
<path d="M64.7182 26.7085H68.4165C70.3305 26.7085 71.6636 28.0278 71.6636 29.9487C71.6636 31.8765 70.3032 33.2026 68.3686 33.2026H66.2495V36.5728H64.7182V26.7085ZM66.2495 28.0005V31.9175H68.0063C69.3393 31.9175 70.0981 31.1997 70.0981 29.9556C70.0981 28.7114 69.3393 28.0005 68.0132 28.0005H66.2495ZM73.5366 39.2524C73.4204 39.2524 73.0444 39.2388 72.935 39.2183V38.022C73.0444 38.0493 73.2905 38.0493 73.4136 38.0493C74.104 38.0493 74.4663 37.7622 74.6919 37.0239C74.6919 37.0103 74.8218 36.5864 74.8218 36.5796L72.2241 29.3813H73.8237L75.6489 35.2329H75.6694L77.4946 29.3813H79.0532L76.353 36.9487C75.7378 38.6919 75.0337 39.2524 73.5366 39.2524ZM80.352 27.6792H81.8354V29.3813H83.2026V30.5503H81.8354V34.5151C81.8354 35.1372 82.1089 35.4175 82.7104 35.4175C82.8608 35.4175 83.1001 35.4038 83.1958 35.3833V36.5522C83.0317 36.5933 82.7036 36.6206 82.3755 36.6206C80.9194 36.6206 80.352 36.0669 80.352 34.6792V30.5503H79.3061V29.3813H80.352V27.6792ZM84.4741 36.5728V26.7085H85.937V30.5845H85.9712C86.3677 29.7437 87.1538 29.2583 88.2475 29.2583C89.8266 29.2583 90.77 30.311 90.77 31.938V36.5728H89.2866V32.2251C89.2866 31.1655 88.7534 30.5298 87.7143 30.5298C86.6206 30.5298 85.9507 31.2817 85.9507 32.4165V36.5728H84.4741ZM95.2886 36.7095C93.2309 36.7095 91.8774 35.2944 91.8774 32.9771C91.8774 30.6665 93.2378 29.2515 95.2886 29.2515C97.3393 29.2515 98.6997 30.6665 98.6997 32.9771C98.6997 35.2944 97.3462 36.7095 95.2886 36.7095ZM95.2886 35.4927C96.4507 35.4927 97.1958 34.5767 97.1958 32.9771C97.1958 31.3843 96.4438 30.4683 95.2886 30.4683C94.1333 30.4683 93.3813 31.3843 93.3813 32.9771C93.3813 34.5767 94.1333 35.4927 95.2886 35.4927ZM99.8413 36.5728V29.3813H101.249V30.5845H101.284C101.673 29.7642 102.439 29.2583 103.546 29.2583C105.132 29.2583 106.041 30.27 106.041 31.9175V36.5728H104.558V32.2046C104.558 31.1245 104.052 30.5298 103.027 30.5298C101.988 30.5298 101.318 31.2681 101.318 32.3823V36.5728H99.8413Z" fill="black"/>
</g>
<defs>
<filter id="filter0_d_3_85" x="0.699219" y="0.322754" width="138.8" height="64.1899" filterUnits="userSpaceOnUse" color-interpolation-filters="sRGB">
<feFlood flood-opacity="0" result="BackgroundImageFix"/>
<feColorMatrix in="SourceAlpha" type="matrix" values="0 0 0 0 0 0 0 0 0 0 0 0 0 0 0 0 0 0 127 0" result="hardAlpha"/>
<feOffset/>
<feGaussianBlur stdDeviation="5"/>
<feComposite in2="hardAlpha" operator="out"/>
<feColorMatrix type="matrix" values="0 0 0 0 0 0 0 0 0 0 0 0 0 0 0 0 0 0 0.05 0"/>
<feBlend mode="normal" in2="BackgroundImageFix" result="effect1_dropShadow_3_85"/>
<feBlend mode="normal" in="SourceGraphic" in2="effect1_dropShadow_3_85" result="shape"/>
</filter>
<linearGradient id="paint0_linear_3_85" x1="30.6992" y1="19.9128" x2="44.0477" y2="31.2876" gradientUnits="userSpaceOnUse">
<stop stop-color="#5A9FD4"/>
<stop offset="1" stop-color="#306998"/>
</linearGradient>
<linearGradient id="paint1_linear_3_85" x1="45.8003" y1="40.974" x2="41.0113" y2="34.2633" gradientUnits="userSpaceOnUse">
<stop stop-color="#FFD43B"/>
<stop offset="1" stop-color="#FFE873"/>
</linearGradient>
<clipPath id="clip0_3_85">
<rect width="24" height="25" fill="white" transform="translate(30.6992 19.9128)"/>
</clipPath>
<clipPath id="clip1_3_85">
<rect width="24" height="25" fill="white" transform="translate(30.6992 19.9128)"/>
</clipPath>
<clipPath id="clip2_3_85">
<rect width="24" height="25" fill="white" transform="translate(30.6992 19.9128)"/>
</clipPath>
</defs>
</svg>
