<svg width="180" height="64" viewBox="0 0 180 64" fill="none" xmlns="http://www.w3.org/2000/svg">
<g filter="url(#filter0_d_3_41)">
<rect x="10" y="10.3228" width="159.43" height="43.2" rx="21.6" fill="white" shape-rendering="crispEdges"/>
<g clip-path="url(#clip0_3_41)">
<g clip-path="url(#clip1_3_41)">
<g clip-path="url(#clip2_3_41)">
<mask id="mask0_3_41" style="mask-type:luminance" maskUnits="userSpaceOnUse" x="30" y="19" width="24" height="25">
<path d="M54 19.9329H30V43.9329H54V19.9329Z" fill="white"/>
</mask>
<g mask="url(#mask0_3_41)">
<path d="M49.7344 28.1792C49.4859 28.0948 49.2281 28.0105 48.9609 27.9355C49.0031 27.7573 49.0453 27.5792 49.0781 27.4105C49.6641 24.5698 49.2797 22.2823 47.9766 21.5323C46.725 20.8105 44.6766 21.5651 42.6094 23.3651C42.4125 23.5386 42.2109 23.7214 42.0141 23.9136C41.8828 23.787 41.7469 23.6651 41.6156 23.548C39.45 21.6214 37.275 20.8105 35.9719 21.5698C34.7203 22.2823 34.35 24.4339 34.875 27.1245C34.9266 27.3823 34.9875 27.6495 35.0531 27.9214C34.7438 28.0105 34.4484 28.0995 34.1672 28.2026C31.6219 29.0839 30 30.4714 30 31.9152C30 33.4011 31.7437 34.8964 34.3875 35.8011C34.5984 35.8714 34.8141 35.9418 35.0344 36.0027C34.9641 36.2933 34.8984 36.5793 34.8469 36.8605C34.3453 39.5043 34.7391 41.6043 35.9859 42.3214C37.275 43.0668 39.4359 42.3027 41.5406 40.4605C41.7047 40.3152 41.8734 40.1605 42.0422 40.0011C42.2578 40.2121 42.4734 40.4089 42.6891 40.5918C44.7281 42.3449 46.7438 43.0574 47.9906 42.3355C49.2797 41.5902 49.6969 39.3355 49.1531 36.5933C49.1109 36.3824 49.0641 36.1714 49.0078 35.9511C49.1578 35.9043 49.3078 35.8621 49.4531 35.8105C52.2047 34.9011 53.9953 33.4246 53.9953 31.9199C54 30.4668 52.3266 29.0698 49.7344 28.1792ZM49.1344 34.8308C49.0031 34.873 48.8672 34.9152 48.7313 34.9574C48.4266 33.9964 48.0188 32.9746 47.5172 31.9152C47.9953 30.8839 48.3891 29.8761 48.6844 28.9198C48.9281 28.9901 49.1672 29.0651 49.3969 29.1448C51.6188 29.9089 52.9734 31.0386 52.9734 31.9105C52.9734 32.8433 51.5109 34.048 49.1344 34.8308ZM48.15 36.7855C48.3891 37.9996 48.4266 39.0964 48.2672 39.9543C48.1266 40.723 47.8359 41.2386 47.4797 41.4449C46.725 41.8808 45.1078 41.3136 43.3594 39.8136C43.1578 39.6402 42.9563 39.4574 42.7547 39.2652C43.4297 38.5246 44.1047 37.6668 44.7656 36.7105C45.9281 36.6074 47.0203 36.4386 48.0141 36.2089C48.0703 36.4011 48.1125 36.598 48.15 36.7855ZM38.1844 41.3699C37.4437 41.6324 36.8578 41.6371 36.5016 41.4355C35.7422 40.9996 35.4281 39.3121 35.8594 37.0527C35.9062 36.7949 35.9672 36.5277 36.0328 36.2558C37.0172 36.4714 38.1047 36.6308 39.2672 36.7246C39.9328 37.6574 40.6266 38.5199 41.3297 39.2699C41.175 39.4199 41.025 39.5605 40.8703 39.6918C39.9375 40.498 39.0047 41.0793 38.1844 41.3699ZM34.7203 34.8261C33.5484 34.4277 32.5828 33.9074 31.9219 33.3402C31.3266 32.8293 31.0266 32.323 31.0266 31.9152C31.0266 31.0433 32.3297 29.9276 34.5047 29.1683C34.7672 29.0745 35.0437 28.9901 35.3297 28.9105C35.6297 29.8855 36.0234 30.9074 36.5016 31.9433C36.0188 32.9933 35.6203 34.0293 35.3156 35.0183C35.1094 34.9527 34.9125 34.8918 34.7203 34.8261ZM35.8828 26.9276C35.4328 24.6214 35.7328 22.8823 36.4828 22.4464C37.2844 21.9823 39.0609 22.6433 40.9313 24.3073C41.0531 24.4151 41.1703 24.523 41.2922 24.6401C40.5938 25.3901 39.9047 26.2433 39.2484 27.1714C38.1187 27.2745 37.0406 27.4433 36.0469 27.6683C35.9812 27.4151 35.9297 27.1714 35.8828 26.9276ZM46.2328 29.4823C45.9938 29.0698 45.75 28.6714 45.5016 28.2823C46.2656 28.3808 47.0016 28.5073 47.6906 28.6667C47.4844 29.3276 47.2266 30.0214 46.9219 30.7339C46.7063 30.3214 46.4766 29.9042 46.2328 29.4823ZM42.0094 25.3714C42.4828 25.8823 42.9563 26.4542 43.4203 27.0776C42.9516 27.0542 42.4734 27.0448 41.9953 27.0448C41.5219 27.0448 41.0484 27.0542 40.5844 27.0776C41.0531 26.4636 41.5313 25.8917 42.0094 25.3714ZM37.7625 29.4917C37.5234 29.9042 37.2984 30.3168 37.0828 30.7339C36.7828 30.0261 36.5297 29.3276 36.3187 28.6573C37.0031 28.5026 37.7344 28.3808 38.4937 28.2823C38.2453 28.6761 38.0016 29.0792 37.7625 29.4917ZM38.5219 35.6183C37.7344 35.5293 36.9938 35.4121 36.3094 35.2621C36.5203 34.5777 36.7828 33.8652 37.0875 33.1433C37.3031 33.5605 37.5281 33.973 37.7672 34.3855C38.0109 34.8074 38.2641 35.2152 38.5219 35.6183ZM42.0375 38.5293C41.55 38.0043 41.0672 37.423 40.5938 36.7996C41.0531 36.8183 41.5219 36.8277 42 36.8277C42.4875 36.8277 42.975 36.8183 43.4484 36.7949C42.9797 37.4277 42.5109 38.0089 42.0375 38.5293ZM46.9313 33.1058C47.25 33.8371 47.5219 34.5449 47.7375 35.2152C47.0438 35.3746 46.2891 35.5011 45.4969 35.5949C45.7453 35.2011 45.9938 34.7933 46.2328 34.3714C46.4813 33.9543 46.7156 33.5324 46.9313 33.1058ZM45.3469 33.8652C44.9719 34.5168 44.5875 35.1355 44.1938 35.7214C43.4813 35.773 42.7453 35.7964 41.9953 35.7964C41.25 35.7964 40.5234 35.773 39.8203 35.7261C39.4125 35.1308 39.0188 34.5074 38.6484 33.8652C38.2781 33.223 37.9359 32.5761 37.6266 31.9293C37.9359 31.2824 38.2781 30.6355 38.6484 29.9933C39.0188 29.3511 39.4078 28.7323 39.8109 28.1417C40.5234 28.0855 41.2547 28.0573 41.9953 28.0573C42.7406 28.0573 43.4719 28.0855 44.1844 28.1417C44.5828 28.7276 44.9672 29.3464 45.3422 29.9886C45.7172 30.6402 46.0641 31.2824 46.3781 31.9152C46.0688 32.5668 45.7219 33.2183 45.3469 33.8652ZM47.4656 22.4183C48.2672 22.8823 48.5813 24.7526 48.075 27.2042C48.0422 27.3589 48.0047 27.5183 47.9672 27.6823C46.9734 27.4526 45.8906 27.2839 44.7563 27.1761C44.0953 26.2386 43.4156 25.3855 42.7266 24.6448C42.9094 24.4667 43.0969 24.298 43.2797 24.1386C45.0516 22.5917 46.7109 21.9823 47.4656 22.4183ZM42 29.7683C43.1859 29.7683 44.1422 30.7293 44.1422 31.9105C44.1422 33.0964 43.1813 34.0527 42 34.0527C40.8188 34.0527 39.8578 33.0918 39.8578 31.9105C39.8578 30.7293 40.8188 29.7683 42 29.7683Z" fill="#00D8FF"/>
</g>
</g>
</g>
</g>
<path d="M66.2879 36.8828L64.0479 32.9908H62.8299V36.8828H61.2339V27.1528H64.5939C65.3406 27.1528 65.9706 27.2835 66.4839 27.5448C67.0066 27.8061 67.3939 28.1561 67.6459 28.5948C67.9072 29.0335 68.0379 29.5235 68.0379 30.0648C68.0379 30.6995 67.8512 31.2781 67.4779 31.8008C67.1139 32.3141 66.5492 32.6641 65.7839 32.8508L68.1919 36.8828H66.2879ZM62.8299 31.7168H64.5939C65.1912 31.7168 65.6392 31.5675 65.9379 31.2688C66.2459 30.9701 66.3999 30.5688 66.3999 30.0648C66.3999 29.5608 66.2506 29.1688 65.9519 28.8888C65.6532 28.5995 65.2006 28.4548 64.5939 28.4548H62.8299V31.7168ZM77.1496 32.8368C77.1496 33.1261 77.1309 33.3875 77.0936 33.6208H71.1996C71.2463 34.2368 71.4749 34.7315 71.8856 35.1048C72.2963 35.4781 72.8003 35.6648 73.3976 35.6648C74.2563 35.6648 74.8629 35.3055 75.2176 34.5868H76.9396C76.7063 35.2961 76.2816 35.8795 75.6656 36.3368C75.0589 36.7848 74.3029 37.0088 73.3976 37.0088C72.6603 37.0088 71.9976 36.8455 71.4096 36.5188C70.8309 36.1828 70.3736 35.7161 70.0376 35.1188C69.7109 34.5121 69.5476 33.8121 69.5476 33.0188C69.5476 32.2255 69.7063 31.5301 70.0236 30.9328C70.3503 30.3261 70.8029 29.8595 71.3816 29.5328C71.9696 29.2061 72.6416 29.0428 73.3976 29.0428C74.1256 29.0428 74.7743 29.2015 75.3436 29.5188C75.9129 29.8361 76.3563 30.2841 76.6736 30.8628C76.9909 31.4321 77.1496 32.0901 77.1496 32.8368ZM75.4836 32.3328C75.4743 31.7448 75.2643 31.2735 74.8536 30.9188C74.4429 30.5641 73.9343 30.3868 73.3276 30.3868C72.7769 30.3868 72.3056 30.5641 71.9136 30.9188C71.5216 31.2641 71.2883 31.7355 71.2136 32.3328H75.4836ZM78.1882 32.9908C78.1882 32.2161 78.3469 31.5301 78.6642 30.9328C78.9909 30.3355 79.4295 29.8735 79.9802 29.5468C80.5402 29.2108 81.1562 29.0428 81.8282 29.0428C82.4349 29.0428 82.9622 29.1641 83.4102 29.4068C83.8675 29.6401 84.2315 29.9341 84.5022 30.2888V29.1688H86.1122V36.8828H84.5022V35.7348C84.2315 36.0988 83.8629 36.4021 83.3962 36.6448C82.9295 36.8875 82.3975 37.0088 81.8002 37.0088C81.1375 37.0088 80.5309 36.8408 79.9802 36.5048C79.4295 36.1595 78.9909 35.6835 78.6642 35.0768C78.3469 34.4608 78.1882 33.7655 78.1882 32.9908ZM84.5022 33.0188C84.5022 32.4868 84.3902 32.0248 84.1662 31.6328C83.9515 31.2408 83.6669 30.9421 83.3122 30.7368C82.9575 30.5315 82.5749 30.4288 82.1642 30.4288C81.7535 30.4288 81.3709 30.5315 81.0162 30.7368C80.6615 30.9328 80.3722 31.2268 80.1482 31.6188C79.9335 32.0015 79.8262 32.4588 79.8262 32.9908C79.8262 33.5228 79.9335 33.9895 80.1482 34.3908C80.3722 34.7921 80.6615 35.1001 81.0162 35.3148C81.3802 35.5201 81.7629 35.6228 82.1642 35.6228C82.5749 35.6228 82.9575 35.5201 83.3122 35.3148C83.6669 35.1095 83.9515 34.8108 84.1662 34.4188C84.3902 34.0175 84.5022 33.5508 84.5022 33.0188ZM87.6765 33.0188C87.6765 32.2255 87.8352 31.5301 88.1525 30.9328C88.4792 30.3261 88.9272 29.8595 89.4965 29.5328C90.0658 29.2061 90.7192 29.0428 91.4565 29.0428C92.3898 29.0428 93.1598 29.2668 93.7665 29.7148C94.3825 30.1535 94.7978 30.7835 95.0125 31.6048H93.2905C93.1505 31.2221 92.9265 30.9235 92.6185 30.7088C92.3105 30.4941 91.9232 30.3868 91.4565 30.3868C90.8032 30.3868 90.2805 30.6201 89.8885 31.0868C89.5058 31.5441 89.3145 32.1881 89.3145 33.0188C89.3145 33.8495 89.5058 34.4981 89.8885 34.9648C90.2805 35.4315 90.8032 35.6648 91.4565 35.6648C92.3805 35.6648 92.9918 35.2588 93.2905 34.4468H95.0125C94.7885 35.2308 94.3685 35.8561 93.7525 36.3228C93.1365 36.7801 92.3712 37.0088 91.4565 37.0088C90.7192 37.0088 90.0658 36.8455 89.4965 36.5188C88.9272 36.1828 88.4792 35.7161 88.1525 35.1188C87.8352 34.5121 87.6765 33.8121 87.6765 33.0188ZM98.465 30.4708V34.7408C98.465 35.0301 98.5304 35.2401 98.661 35.3708C98.801 35.4921 99.0344 35.5528 99.361 35.5528H100.341V36.8828H99.081C98.3624 36.8828 97.8117 36.7148 97.429 36.3788C97.0464 36.0428 96.855 35.4968 96.855 34.7408V30.4708H95.945V29.1688H96.855V27.2508H98.465V29.1688H100.341V30.4708H98.465ZM113.443 36.8828H111.847L107.045 29.6168V36.8828H105.449V27.1388H107.045L111.847 34.3908V27.1388H113.443V36.8828ZM115.007 32.9908C115.007 32.2161 115.165 31.5301 115.483 30.9328C115.809 30.3355 116.248 29.8735 116.799 29.5468C117.359 29.2108 117.975 29.0428 118.647 29.0428C119.253 29.0428 119.781 29.1641 120.229 29.4068C120.686 29.6401 121.05 29.9341 121.321 30.2888V29.1688H122.931V36.8828H121.321V35.7348C121.05 36.0988 120.681 36.4021 120.215 36.6448C119.748 36.8875 119.216 37.0088 118.619 37.0088C117.956 37.0088 117.349 36.8408 116.799 36.5048C116.248 36.1595 115.809 35.6835 115.483 35.0768C115.165 34.4608 115.007 33.7655 115.007 32.9908ZM121.321 33.0188C121.321 32.4868 121.209 32.0248 120.985 31.6328C120.77 31.2408 120.485 30.9421 120.131 30.7368C119.776 30.5315 119.393 30.4288 118.983 30.4288C118.572 30.4288 118.189 30.5315 117.835 30.7368C117.48 30.9328 117.191 31.2268 116.967 31.6188C116.752 32.0015 116.645 32.4588 116.645 32.9908C116.645 33.5228 116.752 33.9895 116.967 34.3908C117.191 34.7921 117.48 35.1001 117.835 35.3148C118.199 35.5201 118.581 35.6228 118.983 35.6228C119.393 35.6228 119.776 35.5201 120.131 35.3148C120.485 35.1095 120.77 34.8108 120.985 34.4188C121.209 34.0175 121.321 33.5508 121.321 33.0188ZM126.889 30.4708V34.7408C126.889 35.0301 126.954 35.2401 127.085 35.3708C127.225 35.4921 127.458 35.5528 127.785 35.5528H128.765V36.8828H127.505C126.786 36.8828 126.236 36.7148 125.853 36.3788C125.47 36.0428 125.279 35.4968 125.279 34.7408V30.4708H124.369V29.1688H125.279V27.2508H126.889V29.1688H128.765V30.4708H126.889ZM131.048 28.1468C130.759 28.1468 130.516 28.0488 130.32 27.8528C130.124 27.6568 130.026 27.4141 130.026 27.1248C130.026 26.8355 130.124 26.5928 130.32 26.3968C130.516 26.2008 130.759 26.1028 131.048 26.1028C131.328 26.1028 131.566 26.2008 131.762 26.3968C131.958 26.5928 132.056 26.8355 132.056 27.1248C132.056 27.4141 131.958 27.6568 131.762 27.8528C131.566 28.0488 131.328 28.1468 131.048 28.1468ZM131.832 29.1688V36.8828H130.236V29.1688H131.832ZM136.909 35.4548L139.093 29.1688H140.787L137.847 36.8828H135.943L133.017 29.1688H134.725L136.909 35.4548ZM149.064 32.8368C149.064 33.1261 149.045 33.3875 149.008 33.6208H143.114C143.16 34.2368 143.389 34.7315 143.8 35.1048C144.21 35.4781 144.714 35.6648 145.312 35.6648C146.17 35.6648 146.777 35.3055 147.132 34.5868H148.854C148.62 35.2961 148.196 35.8795 147.58 36.3368C146.973 36.7848 146.217 37.0088 145.312 37.0088C144.574 37.0088 143.912 36.8455 143.324 36.5188C142.745 36.1828 142.288 35.7161 141.952 35.1188C141.625 34.5121 141.462 33.8121 141.462 33.0188C141.462 32.2255 141.62 31.5301 141.938 30.9328C142.264 30.3261 142.717 29.8595 143.296 29.5328C143.884 29.2061 144.556 29.0428 145.312 29.0428C146.04 29.0428 146.688 29.2015 147.258 29.5188C147.827 29.8361 148.27 30.2841 148.588 30.8628C148.905 31.4321 149.064 32.0901 149.064 32.8368ZM147.398 32.3328C147.388 31.7448 147.178 31.2735 146.768 30.9188C146.357 30.5641 145.848 30.3868 145.242 30.3868C144.691 30.3868 144.22 30.5641 143.828 30.9188C143.436 31.2641 143.202 31.7355 143.128 32.3328H147.398Z" fill="black"/>
</g>
<defs>
<filter id="filter0_d_3_41" x="0" y="0.322754" width="179.43" height="63.2" filterUnits="userSpaceOnUse" color-interpolation-filters="sRGB">
<feFlood flood-opacity="0" result="BackgroundImageFix"/>
<feColorMatrix in="SourceAlpha" type="matrix" values="0 0 0 0 0 0 0 0 0 0 0 0 0 0 0 0 0 0 127 0" result="hardAlpha"/>
<feOffset/>
<feGaussianBlur stdDeviation="5"/>
<feComposite in2="hardAlpha" operator="out"/>
<feColorMatrix type="matrix" values="0 0 0 0 0 0 0 0 0 0 0 0 0 0 0 0 0 0 0.05 0"/>
<feBlend mode="normal" in2="BackgroundImageFix" result="effect1_dropShadow_3_41"/>
<feBlend mode="normal" in="SourceGraphic" in2="effect1_dropShadow_3_41" result="shape"/>
</filter>
<clipPath id="clip0_3_41">
<rect width="24" height="24" fill="white" transform="translate(30 19.9329)"/>
</clipPath>
<clipPath id="clip1_3_41">
<rect width="24" height="24" fill="white" transform="translate(30 19.9329)"/>
</clipPath>
<clipPath id="clip2_3_41">
<rect width="24" height="24" fill="white" transform="translate(30 19.9329)"/>
</clipPath>
</defs>
</svg>
