<svg width="129" height="64" viewBox="0 0 129 64" fill="none" xmlns="http://www.w3.org/2000/svg">
<g filter="url(#filter0_d_3_146)">
<rect x="10.1094" y="10.3228" width="108.16" height="43.19" rx="21.595" fill="white" shape-rendering="crispEdges"/>
<g clip-path="url(#clip0_3_146)">
<g clip-path="url(#clip1_3_146)">
<g clip-path="url(#clip2_3_146)">
<mask id="mask0_3_146" style="mask-type:luminance" maskUnits="userSpaceOnUse" x="30" y="21" width="25" height="22">
<path d="M54.1094 21.7002H30.1094V42.2685H54.1094V21.7002Z" fill="white"/>
</mask>
<g mask="url(#mask0_3_146)">
<path d="M53.1653 37.5558C51.8868 38.2246 45.2516 40.9538 43.8223 41.7029C42.393 42.452 41.6275 42.4307 40.5096 41.8963C39.3917 41.362 32.355 38.5 31.0797 37.8902C30.4372 37.5886 30.1094 37.3313 30.1094 37.0903V34.6627C30.1094 34.6627 39.3016 32.6678 40.785 32.1302C42.2684 31.5925 42.7814 31.5794 44.0419 32.0417C45.3024 32.5039 52.8588 33.8677 54.1061 34.3201V36.7133C54.1061 36.9625 53.8193 37.205 53.1653 37.5542V37.5558Z" fill="#A32422"/>
<path d="M53.1669 35.1397C51.8883 35.8052 45.2532 38.5344 43.8239 39.2704C42.3946 40.0064 41.6291 39.9998 40.5112 39.4671C39.3933 38.9344 32.3566 36.0724 31.0814 35.4675C29.8061 34.8627 29.7815 34.4398 31.0322 33.9513C32.2828 33.4628 39.3032 30.7139 40.7866 30.173C42.27 29.632 42.783 29.6206 44.0435 30.0845C45.304 30.5484 51.9113 33.1727 53.1521 33.63C54.3929 34.0873 54.4503 34.4627 53.1669 35.1266V35.1397Z" fill="#DC382C"/>
<path d="M53.1653 33.6023C51.8868 34.2695 45.2516 36.997 43.8223 37.733C42.393 38.469 41.6341 38.4624 40.5162 37.9264C39.3983 37.3904 32.355 34.5448 31.0797 33.9367C30.4372 33.6318 30.1094 33.3761 30.1094 33.1335V30.7141C30.1094 30.7141 39.3016 28.7127 40.785 28.175C42.2684 27.6374 42.7814 27.6226 44.0419 28.0914C45.3024 28.5602 52.8588 29.9109 54.1061 30.3666V32.7598C54.1061 33.0089 53.8193 33.2581 53.1653 33.6023Z" fill="#A32422"/>
<path d="M53.1662 31.1757C51.8877 31.8445 45.2526 34.572 43.8232 35.308C42.3939 36.044 41.6285 36.0391 40.5106 35.5047C39.3927 34.9704 32.356 32.1199 31.0807 31.5101C29.8055 30.9003 29.7826 30.4855 31.0316 29.997C32.2806 29.5086 39.3026 26.7532 40.7859 26.227C42.2694 25.7008 42.7824 25.6681 44.0429 26.1254C45.3034 26.5827 51.9107 29.23 53.1515 29.6742C54.3923 30.1184 54.4497 30.5086 53.1662 31.1708V31.1757Z" fill="#DC382C"/>
<path d="M53.1653 29.4994C51.8868 30.1683 45.2516 32.8975 43.8223 33.6318C42.393 34.3662 41.6341 34.3613 40.5162 33.8285C39.3983 33.2958 32.355 30.442 31.0797 29.8338C30.4372 29.5322 30.1094 29.2749 30.1094 29.0323V26.6047C30.1094 26.6047 39.3016 24.6098 40.785 24.0738C42.2684 23.5378 42.7814 23.5214 44.0419 23.9837C45.3024 24.4459 52.8555 25.8097 54.1028 26.2654V28.6586C54.1061 28.911 53.8193 29.1569 53.1653 29.4994Z" fill="#A32422"/>
<path d="M53.1669 27.0754C51.8883 27.7311 45.2532 30.4767 43.8239 31.2062C42.3946 31.9356 41.6291 31.934 40.5112 31.4029C39.3933 30.8718 32.3566 28.0147 31.0814 27.4082C29.8061 26.8017 29.7815 26.3804 31.0322 25.892C32.2828 25.4035 39.3032 22.6497 40.7866 22.1153C42.27 21.5809 42.783 21.5646 44.0435 22.0268C45.304 22.489 51.9113 25.1166 53.1521 25.5723C54.3929 26.028 54.4503 26.4066 53.1669 27.0705V27.0754Z" fill="#DC382C"/>
</g>
<path d="M42.4854 23.6287L44.0688 23.109L43.6393 24.1352L45.2506 24.7384L43.1738 24.9547L42.7067 26.0759L41.9559 24.8253L39.5547 24.6089L41.3478 23.9631L40.8086 22.9697L42.4854 23.6287Z" fill="white"/>
<path d="M42.5846 30.1753L38.7031 28.564L44.263 27.71L42.5846 30.1753Z" fill="white"/>
<path d="M37.2038 25.3604C38.8429 25.3604 40.1755 25.8767 40.1755 26.5078C40.1755 27.1388 38.8397 27.6552 37.2038 27.6552C35.568 27.6552 34.2305 27.1388 34.2305 26.5078C34.2305 25.8767 35.5631 25.3604 37.2038 25.3604Z" fill="white"/>
<path d="M47.711 25.0479L51.0007 26.3477L47.7142 27.6476L47.711 25.0479Z" fill="#741113"/>
<path d="M47.7085 25.0479L47.7118 27.6476L47.3545 27.7869L44.0664 26.487L47.7085 25.0479Z" fill="#AC2724"/>
</g>
</g>
</g>
<path d="M64.9168 27.4937V31.0415H67.0633C68.2459 31.0415 68.9226 30.3921 68.9226 29.2642C68.9226 28.1636 68.2049 27.4937 67.0222 27.4937H64.9168ZM64.9168 32.2788V36.0728H63.3855V26.2085H67.2068C69.2371 26.2085 70.5017 27.3843 70.5017 29.2231C70.5017 30.5562 69.7908 31.6362 68.5877 32.0396L70.7957 36.0728H69.032L67.0222 32.2788H64.9168ZM74.7879 29.9409C73.7556 29.9409 73.031 30.7271 72.9558 31.814H76.5515C76.5174 30.7134 75.8201 29.9409 74.7879 29.9409ZM76.5447 33.9604H77.9461C77.741 35.2729 76.4969 36.2095 74.8494 36.2095C72.7371 36.2095 71.4588 34.7808 71.4588 32.5112C71.4588 30.2554 72.7576 28.7515 74.7879 28.7515C76.784 28.7515 78.0281 30.1597 78.0281 32.3403V32.8462H72.949V32.9351C72.949 34.186 73.701 35.0132 74.8836 35.0132C75.7244 35.0132 76.3465 34.5894 76.5447 33.9604ZM81.8767 36.1958C80.0584 36.1958 78.8552 34.7466 78.8552 32.4771C78.8552 30.2075 80.0584 28.7651 81.8631 28.7651C82.8953 28.7651 83.7156 29.2847 84.1189 30.0776H84.1463V26.2085H85.6297V36.0728H84.1941V34.8491H84.1668C83.7429 35.6694 82.9226 36.1958 81.8767 36.1958ZM82.2664 30.0093C81.0974 30.0093 80.366 30.9663 80.366 32.4771C80.366 33.9946 81.0974 34.9448 82.2664 34.9448C83.4011 34.9448 84.1599 33.981 84.1599 32.4771C84.1599 30.9868 83.4011 30.0093 82.2664 30.0093ZM87.1951 36.0728V28.8813H88.6717V36.0728H87.1951ZM87.9334 27.8286C87.4617 27.8286 87.0789 27.4526 87.0789 26.9878C87.0789 26.5161 87.4617 26.1401 87.9334 26.1401C88.4119 26.1401 88.7947 26.5161 88.7947 26.9878C88.7947 27.4526 88.4119 27.8286 87.9334 27.8286ZM90.0525 30.9185C90.0525 29.6333 91.1873 28.7515 92.8689 28.7515C94.4685 28.7515 95.5896 29.647 95.6375 30.9253H94.2498C94.1814 30.2759 93.6551 29.8726 92.8279 29.8726C92.0281 29.8726 91.4949 30.2622 91.4949 30.8296C91.4949 31.2739 91.8504 31.5747 92.5955 31.7593L93.8054 32.0396C95.2547 32.3882 95.8015 32.9351 95.8015 33.9946C95.8015 35.3071 94.5779 36.2095 92.8142 36.2095C91.1121 36.2095 89.9842 35.3276 89.8679 34.0083H91.3308C91.447 34.6987 91.9802 35.0815 92.8826 35.0815C93.7713 35.0815 94.3181 34.7124 94.3181 34.1313C94.3181 33.6733 94.0447 33.4204 93.2927 33.229L92.0076 32.9146C90.7088 32.6001 90.0525 31.9233 90.0525 30.9185Z" fill="black"/>
</g>
<defs>
<filter id="filter0_d_3_146" x="0.109375" y="0.322754" width="128.16" height="63.1899" filterUnits="userSpaceOnUse" color-interpolation-filters="sRGB">
<feFlood flood-opacity="0" result="BackgroundImageFix"/>
<feColorMatrix in="SourceAlpha" type="matrix" values="0 0 0 0 0 0 0 0 0 0 0 0 0 0 0 0 0 0 127 0" result="hardAlpha"/>
<feOffset/>
<feGaussianBlur stdDeviation="5"/>
<feComposite in2="hardAlpha" operator="out"/>
<feColorMatrix type="matrix" values="0 0 0 0 0 0 0 0 0 0 0 0 0 0 0 0 0 0 0.05 0"/>
<feBlend mode="normal" in2="BackgroundImageFix" result="effect1_dropShadow_3_146"/>
<feBlend mode="normal" in="SourceGraphic" in2="effect1_dropShadow_3_146" result="shape"/>
</filter>
<clipPath id="clip0_3_146">
<rect width="24" height="24" fill="white" transform="translate(30.1094 19.9229)"/>
</clipPath>
<clipPath id="clip1_3_146">
<rect width="24" height="24" fill="white" transform="translate(30.1094 19.9229)"/>
</clipPath>
<clipPath id="clip2_3_146">
<rect width="24" height="24" fill="white" transform="translate(30.1094 19.9229)"/>
</clipPath>
</defs>
</svg>
