<svg width="20" height="20" viewBox="0 0 20 20" fill="none" xmlns="http://www.w3.org/2000/svg">
<path fill-rule="evenodd" clip-rule="evenodd" d="M6.603 1.799C7.02496 1.31223 7.54673 0.921956 8.13287 0.654682C8.71901 0.387407 9.3558 0.24939 10 0.250002C11.357 0.250002 12.573 0.850002 13.397 1.799C14.0397 1.75311 14.6847 1.84609 15.2883 2.07161C15.8919 2.29713 16.4399 2.64992 16.895 3.106C17.3509 3.56106 17.7036 4.10888 17.9291 4.71226C18.1546 5.31564 18.2477 5.96047 18.202 6.603C18.6886 7.02505 19.0787 7.54686 19.3458 8.133C19.6129 8.71913 19.7507 9.35588 19.75 10C19.7506 10.6442 19.6126 11.281 19.3453 11.8671C19.078 12.4533 18.6878 12.975 18.201 13.397C18.2467 14.0395 18.1536 14.6844 17.9281 15.2877C17.7026 15.8911 17.3499 16.4389 16.894 16.894C16.4389 17.3499 15.8911 17.7026 15.2877 17.9281C14.6844 18.1536 14.0395 18.2467 13.397 18.201C12.975 18.6878 12.4533 19.078 11.8671 19.3453C11.281 19.6126 10.6442 19.7506 10 19.75C9.3558 19.7506 8.71901 19.6126 8.13287 19.3453C7.54673 19.078 7.02496 18.6878 6.603 18.201C5.96038 18.247 5.31538 18.1542 4.71181 17.9289C4.10824 17.7035 3.56023 17.3509 3.105 16.895C2.64897 16.4398 2.29622 15.8919 2.0707 15.2883C1.84518 14.6847 1.75218 14.0397 1.798 13.397C1.31141 12.9749 0.921328 12.4531 0.654228 11.867C0.387128 11.2809 0.249266 10.6441 0.250003 10C0.250003 8.643 0.850003 7.427 1.799 6.603C1.75326 5.96047 1.8463 5.31562 2.07182 4.71222C2.29734 4.10883 2.65005 3.56103 3.106 3.106C3.56103 2.65005 4.10883 2.29734 4.71222 2.07182C5.31562 1.8463 5.96047 1.75326 6.603 1.799ZM13.61 8.186C13.67 8.10605 13.7134 8.01492 13.7377 7.91795C13.762 7.82098 13.7666 7.72014 13.7514 7.62136C13.7361 7.52257 13.7013 7.42783 13.6489 7.3427C13.5965 7.25757 13.5276 7.18378 13.4463 7.12565C13.3649 7.06753 13.2728 7.02624 13.1753 7.00423C13.0778 6.98222 12.9769 6.97992 12.8785 6.99746C12.7801 7.01501 12.6862 7.05205 12.6023 7.10641C12.5184 7.16077 12.4462 7.23135 12.39 7.314L9.154 11.844L7.53 10.22C7.38783 10.0875 7.19978 10.0154 7.00548 10.0188C6.81118 10.0223 6.62579 10.101 6.48838 10.2384C6.35097 10.3758 6.27226 10.5612 6.26883 10.7555C6.2654 10.9498 6.33752 11.1378 6.47 11.28L8.72 13.53C8.79699 13.6069 8.8898 13.6662 8.99199 13.7036C9.09418 13.7411 9.2033 13.7559 9.31177 13.7469C9.42024 13.738 9.52546 13.7055 9.62013 13.6519C9.7148 13.5982 9.79665 13.5245 9.86 13.436L13.61 8.186Z" fill="#DCA629"/>
</svg>
