<svg width="185" height="65" viewBox="0 0 185 65" fill="none" xmlns="http://www.w3.org/2000/svg">
<g filter="url(#filter0_d_3_92)">
<rect x="10.832" y="10.8228" width="164.09" height="43.19" rx="21.595" fill="white" shape-rendering="crispEdges"/>
<g clip-path="url(#clip0_3_92)">
<g clip-path="url(#clip1_3_92)">
<g clip-path="url(#clip2_3_92)">
<path fill-rule="evenodd" clip-rule="evenodd" d="M31.5703 40.1421H39.9301C39.9301 40.1421 38.3322 32.8512 43.6232 29.8989C44.7767 29.338 48.4486 27.2428 54.4592 31.6872C54.6497 31.5284 54.8296 31.4014 54.8296 31.4014C54.8296 31.4014 49.3269 25.9095 43.2 26.5232C40.1206 26.7983 36.3322 29.6026 34.11 33.3062C31.8878 37.0099 31.5703 40.1421 31.5703 40.1421Z" fill="#CC0000"/>
<path fill-rule="evenodd" clip-rule="evenodd" d="M31.5703 40.1421H39.9301C39.9301 40.1421 38.3322 32.8512 43.6232 29.8989C44.7767 29.338 48.4486 27.2428 54.4592 31.6872C54.6497 31.5284 54.8296 31.4014 54.8296 31.4014C54.8296 31.4014 49.3269 25.9095 43.2 26.5232C40.1206 26.7983 36.3322 29.6026 34.11 33.3062C31.8878 37.0099 31.5703 40.1421 31.5703 40.1421Z" fill="#CC0000"/>
<path fill-rule="evenodd" clip-rule="evenodd" d="M31.5703 40.1436H39.9301C39.9301 40.1436 38.3322 32.8526 43.6232 29.9003C44.7767 29.3394 48.4486 27.2442 54.4592 31.6886C54.6497 31.5298 54.8296 31.4029 54.8296 31.4029C54.8296 31.4029 49.3269 25.9109 43.2 26.5246C40.11 26.7997 36.3216 29.604 34.0994 33.3076C31.8772 37.0113 31.5703 40.1436 31.5703 40.1436ZM48.9883 27.1172L49.0307 26.4082C48.9354 26.3553 48.6709 26.2283 48.0042 26.0378L47.9619 26.7363C48.3111 26.8527 48.6497 26.9796 48.9883 27.1172Z" fill="#CC0000"/>
<path fill-rule="evenodd" clip-rule="evenodd" d="M47.9855 29.3599L47.9431 30.0266C48.2923 30.0372 48.6415 30.0795 48.9908 30.1536L49.0331 29.4975C48.6733 29.4234 48.3241 29.3811 47.9855 29.3599ZM44.0701 26.0583H44.1759L43.9643 25.4128C43.6363 25.4128 43.2976 25.434 42.9484 25.4763L43.1495 26.1007C43.4564 26.0689 43.7632 26.0583 44.0701 26.0583ZM44.5781 29.9525L44.8214 30.6826C45.1283 30.5345 45.4352 30.4075 45.7421 30.3123L45.5093 29.6139C45.1495 29.7197 44.8426 29.8361 44.5781 29.9525ZM39.7738 27.1695L39.2976 26.4393C39.0331 26.5769 38.758 26.725 38.4722 26.8943L38.959 27.6351C39.2341 27.4657 39.4987 27.307 39.7738 27.1695ZM41.9431 31.9313L42.4511 32.6932C42.631 32.4286 42.8426 32.1853 43.0754 31.9419L42.5992 31.2223C42.3558 31.4445 42.1336 31.6879 41.9431 31.9313ZM40.4087 35.3387L41.2659 36.0159C41.3082 35.6032 41.3823 35.1905 41.4881 34.7778L40.7262 34.1747C40.5886 34.5662 40.4934 34.9577 40.4087 35.3387ZM35.7738 30.3123L35.0225 29.6562C34.7474 29.9208 34.4828 30.1853 34.2394 30.4498L35.0543 31.1482C35.2765 30.8625 35.5199 30.5768 35.7738 30.3123ZM32.5781 35.0424L31.3611 34.5979C31.1601 35.053 30.9379 35.5821 30.832 35.8678L32.049 36.3122C32.1865 35.9524 32.4087 35.4339 32.5781 35.0424ZM40.25 38.0265C40.2712 38.5873 40.3241 39.0424 40.377 39.3598L41.6468 39.8148C41.5516 39.4022 41.4564 38.9365 41.3929 38.4392L40.25 38.0265Z" fill="#CC0000"/>
</g>
</g>
</g>
<path d="M70.0966 27.9937V31.5415H72.2431C73.4257 31.5415 74.1025 30.8921 74.1025 29.7642C74.1025 28.6636 73.3847 27.9937 72.2021 27.9937H70.0966ZM70.0966 32.7788V36.5728H68.5654V26.7085H72.3867C74.4169 26.7085 75.6816 27.8843 75.6816 29.7231C75.6816 31.0562 74.9707 32.1362 73.7675 32.5396L75.9755 36.5728H74.2119L72.2021 32.7788H70.0966ZM83.1533 29.3813V36.5728H81.7382V35.356H81.7041C81.3076 36.2173 80.5761 36.7026 79.4755 36.7026C77.9101 36.7026 76.9531 35.6841 76.9531 34.0366V29.3813H78.4296V33.7495C78.4296 34.8433 78.9492 35.4312 79.9677 35.4312C81.0341 35.4312 81.6767 34.6929 81.6767 33.5718V29.3813H83.1533ZM88.4443 36.6958C87.3916 36.6958 86.5781 36.1831 86.1337 35.3491H86.1064V36.5728H84.6709V26.7085H86.1474V30.605H86.1816C86.6123 29.771 87.4326 29.2651 88.4511 29.2651C90.2626 29.2651 91.4453 30.7007 91.4453 32.9771C91.4453 35.2603 90.2695 36.6958 88.4443 36.6958ZM88.0478 30.5093C86.9267 30.5093 86.1406 31.4937 86.1406 32.9771C86.1406 34.4741 86.9267 35.4448 88.0478 35.4448C89.2099 35.4448 89.9277 34.5015 89.9277 32.9771C89.9277 31.4663 89.2099 30.5093 88.0478 30.5093ZM93.1201 39.2524C93.0039 39.2524 92.6279 39.2388 92.5185 39.2183V38.022C92.6279 38.0493 92.874 38.0493 92.997 38.0493C93.6875 38.0493 94.0498 37.7622 94.2753 37.0239C94.2753 37.0103 94.4052 36.5864 94.4052 36.5796L91.8076 29.3813H93.4072L95.2324 35.2329H95.2529L97.0781 29.3813H98.6367L95.9365 36.9487C95.3212 38.6919 94.6171 39.2524 93.1201 39.2524ZM105.438 36.7095C103.381 36.7095 102.027 35.2944 102.027 32.9771C102.027 30.6665 103.388 29.2515 105.438 29.2515C107.489 29.2515 108.85 30.6665 108.85 32.9771C108.85 35.2944 107.496 36.7095 105.438 36.7095ZM105.438 35.4927C106.601 35.4927 107.346 34.5767 107.346 32.9771C107.346 31.3843 106.594 30.4683 105.438 30.4683C104.283 30.4683 103.531 31.3843 103.531 32.9771C103.531 34.5767 104.283 35.4927 105.438 35.4927ZM109.991 36.5728V29.3813H111.399V30.5845H111.434C111.823 29.7642 112.589 29.2583 113.696 29.2583C115.282 29.2583 116.191 30.27 116.191 31.9175V36.5728H114.708V32.2046C114.708 31.1245 114.202 30.5298 113.177 30.5298C112.138 30.5298 111.468 31.2681 111.468 32.3823V36.5728H109.991ZM122.173 27.9937V31.5415H124.319C125.502 31.5415 126.179 30.8921 126.179 29.7642C126.179 28.6636 125.461 27.9937 124.278 27.9937H122.173ZM122.173 32.7788V36.5728H120.642V26.7085H124.463C126.493 26.7085 127.758 27.8843 127.758 29.7231C127.758 31.0562 127.047 32.1362 125.844 32.5396L128.052 36.5728H126.288L124.278 32.7788H122.173ZM131.579 35.5269C132.611 35.5269 133.418 34.8159 133.418 33.8794V33.312L131.647 33.4214C130.766 33.4829 130.267 33.8726 130.267 34.4878C130.267 35.1167 130.786 35.5269 131.579 35.5269ZM131.169 36.6958C129.761 36.6958 128.776 35.8208 128.776 34.5288C128.776 33.271 129.74 32.4985 131.449 32.4028L133.418 32.2866V31.7329C133.418 30.9331 132.878 30.4546 131.976 30.4546C131.121 30.4546 130.588 30.8647 130.458 31.5073H129.063C129.145 30.2085 130.253 29.2515 132.03 29.2515C133.773 29.2515 134.888 30.1743 134.888 31.6167V36.5728H133.473V35.3901H133.438C133.021 36.1899 132.112 36.6958 131.169 36.6958ZM136.371 36.5728V29.3813H137.848V36.5728H136.371ZM137.109 28.3286C136.638 28.3286 136.255 27.9526 136.255 27.4878C136.255 27.0161 136.638 26.6401 137.109 26.6401C137.588 26.6401 137.971 27.0161 137.971 27.4878C137.971 27.9526 137.588 28.3286 137.109 28.3286ZM139.413 36.5728V26.7085H140.89V36.5728H139.413ZM142.277 31.4185C142.277 30.1333 143.412 29.2515 145.094 29.2515C146.693 29.2515 147.814 30.147 147.862 31.4253H146.475C146.406 30.7759 145.88 30.3726 145.053 30.3726C144.253 30.3726 143.72 30.7622 143.72 31.3296C143.72 31.7739 144.075 32.0747 144.82 32.2593L146.03 32.5396C147.479 32.8882 148.026 33.4351 148.026 34.4946C148.026 35.8071 146.803 36.7095 145.039 36.7095C143.337 36.7095 142.209 35.8276 142.093 34.5083H143.556C143.672 35.1987 144.205 35.5815 145.107 35.5815C145.996 35.5815 146.543 35.2124 146.543 34.6313C146.543 34.1733 146.269 33.9204 145.518 33.729L144.232 33.4146C142.934 33.1001 142.277 32.4233 142.277 31.4185Z" fill="black"/>
</g>
<defs>
<filter id="filter0_d_3_92" x="0.832031" y="0.822754" width="184.09" height="63.1899" filterUnits="userSpaceOnUse" color-interpolation-filters="sRGB">
<feFlood flood-opacity="0" result="BackgroundImageFix"/>
<feColorMatrix in="SourceAlpha" type="matrix" values="0 0 0 0 0 0 0 0 0 0 0 0 0 0 0 0 0 0 127 0" result="hardAlpha"/>
<feOffset/>
<feGaussianBlur stdDeviation="5"/>
<feComposite in2="hardAlpha" operator="out"/>
<feColorMatrix type="matrix" values="0 0 0 0 0 0 0 0 0 0 0 0 0 0 0 0 0 0 0.05 0"/>
<feBlend mode="normal" in2="BackgroundImageFix" result="effect1_dropShadow_3_92"/>
<feBlend mode="normal" in="SourceGraphic" in2="effect1_dropShadow_3_92" result="shape"/>
</filter>
<clipPath id="clip0_3_92">
<rect width="24" height="24" fill="white" transform="translate(30.832 20.4128)"/>
</clipPath>
<clipPath id="clip1_3_92">
<rect width="24" height="24" fill="white" transform="translate(30.832 20.4128)"/>
</clipPath>
<clipPath id="clip2_3_92">
<rect width="24" height="24" fill="white" transform="translate(30.832 20.4128)"/>
</clipPath>
</defs>
</svg>
