<svg width="25" height="30" viewBox="0 0 25 30" fill="none" xmlns="http://www.w3.org/2000/svg">
<path fill-rule="evenodd" clip-rule="evenodd" d="M17.158 3.69241C17.0965 2.73794 16.6903 1.83555 16.0105 1.1558C15.2704 0.415664 14.2674 0 13.2217 0H3.94345C2.89779 0 1.89357 0.415664 1.15462 1.1558C0.414481 1.89594 0 2.89897 0 3.94464V26.0554C0 27.101 0.415664 28.1052 1.15462 28.8442C1.89475 29.5843 2.89779 30 3.94345 30H13.2217C14.2674 30 15.2716 29.5843 16.0105 28.8442C16.7507 28.1041 17.1651 27.101 17.1651 26.0554V19.8879C17.1651 19.6261 16.9532 19.4142 16.6915 19.4142C16.4297 19.4142 16.2178 19.6261 16.2178 19.8879V26.0554C16.2178 26.85 15.9016 27.6126 15.3403 28.1751C14.7778 28.7376 14.0163 29.0526 13.2205 29.0526H3.94227C3.14766 29.0526 2.38503 28.7364 1.82251 28.1751C1.26 27.6126 0.945013 26.8512 0.945013 26.0554V3.94464C0.945013 3.15002 1.26121 2.38739 1.82251 1.82488C2.38503 1.26236 3.14648 0.947377 3.94227 0.947377H13.2205C14.0151 0.947377 14.7778 1.26357 15.3403 1.82488C15.8578 2.34119 16.1657 3.02806 16.2119 3.7528C16.2284 4.01451 16.4534 4.21227 16.7152 4.19568C16.9757 4.17911 17.1746 3.95413 17.158 3.69241ZM17.1663 14.869V12.2093C17.1663 11.9476 16.9544 11.7356 16.6926 11.7356C16.4309 11.7356 16.219 11.9476 16.219 12.2093V14.869C16.219 15.1307 16.4309 15.3427 16.6926 15.3427C16.9544 15.3427 17.1663 15.1307 17.1663 14.869Z" fill="#DCA629"/>
<path fill-rule="evenodd" clip-rule="evenodd" d="M3.74176 26.7706H4.92717C5.18889 26.7706 5.40086 26.5586 5.40086 26.2969C5.40086 26.0352 5.18889 25.8232 4.92717 25.8232H3.74176C3.48004 25.8232 3.26807 26.0352 3.26807 26.2969C3.26807 26.5586 3.48004 26.7706 3.74176 26.7706Z" fill="#DCA629"/>
<path fill-rule="evenodd" clip-rule="evenodd" d="M12.2352 26.7706H13.4206C13.6823 26.7706 13.8943 26.5586 13.8943 26.2969C13.8943 26.0352 13.6823 25.8232 13.4206 25.8232H12.2352C11.9735 25.8232 11.7615 26.0352 11.7615 26.2969C11.7615 26.5586 11.9735 26.7706 12.2352 26.7706Z" fill="#DCA629"/>
<path fill-rule="evenodd" clip-rule="evenodd" d="M7.98956 26.7706H9.17498C9.43669 26.7706 9.64867 26.5586 9.64867 26.2969C9.64867 26.0352 9.43669 25.8232 9.17498 25.8232H7.98956C7.72785 25.8232 7.51587 26.0352 7.51587 26.2969C7.51587 26.5586 7.72785 26.7706 7.98956 26.7706Z" fill="#DCA629"/>
<path fill-rule="evenodd" clip-rule="evenodd" d="M19.4698 4.9858C19.4698 4.02657 18.6917 3.24854 17.7325 3.24854H11.4077C10.4484 3.24854 9.67041 4.02657 9.67041 4.9858V10.9459C9.67041 11.9052 10.4484 12.6832 11.4077 12.6832H17.7325C18.6917 12.6832 19.4698 11.9052 19.4698 10.9459V4.9858ZM18.5224 4.9858V10.9459C18.5224 11.3817 18.1695 11.7358 17.7325 11.7358H11.4077C10.9719 11.7358 10.6178 11.3829 10.6178 10.9459V4.9858C10.6178 4.55 10.9707 4.19591 11.4077 4.19591H17.7325C18.1683 4.19591 18.5224 4.55 18.5224 4.9858Z" fill="#DCA629"/>
<path fill-rule="evenodd" clip-rule="evenodd" d="M24.9867 11.5784V9.50721C24.9867 8.89734 24.4917 8.40234 23.8819 8.40234H21.8107C21.2008 8.40234 20.7058 8.89734 20.7058 9.50721V11.5784C20.7058 12.1883 21.2008 12.6833 21.8107 12.6833H23.8819C24.4917 12.6833 24.9867 12.1883 24.9867 11.5784ZM24.0394 9.50721V11.5784C24.0394 11.666 23.9683 11.7359 23.8819 11.7359H21.8107C21.723 11.7359 21.6532 11.6649 21.6532 11.5784V9.50721C21.6532 9.41958 21.723 9.34971 21.8107 9.34971H23.8819C23.9695 9.34971 24.0394 9.42077 24.0394 9.50721Z" fill="#DCA629"/>
<path fill-rule="evenodd" clip-rule="evenodd" d="M24.9867 17.5725V15.5014C24.9867 14.8915 24.4917 14.3965 23.8819 14.3965H21.8107C21.2008 14.3965 20.7058 14.8915 20.7058 15.5014V17.5725C20.7058 18.1824 21.2008 18.6774 21.8107 18.6774H23.8819C24.4917 18.6774 24.9867 18.1824 24.9867 17.5725ZM24.0394 15.5014V17.5725C24.0394 17.6602 23.9683 17.73 23.8819 17.73H21.8107C21.723 17.73 21.6532 17.659 21.6532 17.5725V15.5014C21.6532 15.4137 21.723 15.3439 21.8107 15.3439H23.8819C23.9695 15.3439 24.0394 15.4149 24.0394 15.5014Z" fill="#DCA629"/>
<path fill-rule="evenodd" clip-rule="evenodd" d="M13.9521 17.5725V15.5014C13.9521 14.8915 13.4571 14.3965 12.8472 14.3965H10.776C10.1661 14.3965 9.67114 14.8915 9.67114 15.5014V17.5725C9.67114 18.1824 10.1661 18.6774 10.776 18.6774H12.8472C13.4571 18.6774 13.9521 18.1824 13.9521 17.5725ZM13.0047 15.5014V17.5725C13.0047 17.6602 12.9336 17.73 12.8472 17.73H10.776C10.6884 17.73 10.6185 17.659 10.6185 17.5725V15.5014C10.6185 15.4137 10.6896 15.3439 10.776 15.3439H12.8472C12.9348 15.3439 13.0047 15.4149 13.0047 15.5014Z" fill="#DCA629"/>
<path fill-rule="evenodd" clip-rule="evenodd" d="M19.4697 17.5725V15.5014C19.4697 14.8915 18.9747 14.3965 18.3648 14.3965H16.2936C15.6837 14.3965 15.1887 14.8915 15.1887 15.5014V17.5725C15.1887 18.1824 15.6837 18.6774 16.2936 18.6774H18.3648C18.9747 18.6774 19.4697 18.1824 19.4697 17.5725ZM18.5223 15.5014V17.5725C18.5223 17.6602 18.4524 17.73 18.3648 17.73H16.2936C16.2059 17.73 16.1361 17.659 16.1361 17.5725V15.5014C16.1361 15.4137 16.2071 15.3439 16.2936 15.3439H18.3648C18.4524 15.3439 18.5223 15.4149 18.5223 15.5014Z" fill="#DCA629"/>
<path fill-rule="evenodd" clip-rule="evenodd" d="M8.35915 3.24951H6.82086C6.55914 3.24951 6.34717 3.46149 6.34717 3.7232C6.34717 3.98491 6.55914 4.19689 6.82086 4.19689H8.35915C8.62087 4.19689 8.83284 3.98491 8.83284 3.7232C8.83284 3.46149 8.62087 3.24951 8.35915 3.24951Z" fill="#DCA629"/>
<path fill-rule="evenodd" clip-rule="evenodd" d="M8.35913 8.0708H4.09942C3.83771 8.0708 3.62573 8.28278 3.62573 8.54449C3.62573 8.8062 3.83771 9.01818 4.09942 9.01818H8.35913C8.62085 9.01818 8.83282 8.8062 8.83282 8.54449C8.83282 8.28278 8.62085 8.0708 8.35913 8.0708Z" fill="#DCA629"/>
<path fill-rule="evenodd" clip-rule="evenodd" d="M8.35911 5.66064H5.51934C5.25763 5.66064 5.04565 5.87262 5.04565 6.13433C5.04565 6.39605 5.25763 6.60802 5.51934 6.60802H8.35911C8.62082 6.60802 8.8328 6.39605 8.8328 6.13433C8.8328 5.87262 8.62082 5.66064 8.35911 5.66064Z" fill="#DCA629"/>
</svg>
