<svg width="30" height="30" viewBox="0 0 30 30" fill="none" xmlns="http://www.w3.org/2000/svg">
<path d="M26.2419 9.85958L26.6106 9.12264L24.7486 7.2607L24.0122 7.62941C23.9531 7.60329 23.8941 7.57909 23.8351 7.55587L23.5748 6.77441H20.942L20.6817 7.55538C20.6227 7.57861 20.5636 7.60328 20.5046 7.62893L19.7681 7.26022L17.9062 9.12216L18.2749 9.85909C18.2488 9.91764 18.2241 9.97667 18.2009 10.0357L17.4194 10.2965V12.9293L18.2004 13.1896C18.2236 13.2486 18.2483 13.3076 18.2744 13.3662L17.9057 14.1026L19.7677 15.9651L20.5041 15.5963C20.5631 15.6225 20.6222 15.6467 20.6812 15.6699L20.9415 16.4518H23.5743L23.8346 15.6709C23.8936 15.6476 23.9527 15.623 24.0117 15.5973L24.7481 15.966L26.6101 14.1036L26.2414 13.3672C26.2675 13.3086 26.2922 13.2496 26.3154 13.1905L27.0969 12.9297V10.297L26.3159 10.0367C26.2927 9.97716 26.2685 9.91812 26.2419 9.85958ZM26.1291 12.232L25.5548 12.4236L25.4793 12.6563C25.4265 12.8199 25.3569 12.9868 25.2727 13.1514L25.1614 13.3696L25.4333 13.9125L24.558 14.7883L24.0146 14.5159L23.7964 14.6276C23.6338 14.7113 23.4669 14.7805 23.3014 14.8347L23.0691 14.9102L22.877 15.4841H21.6388L21.4477 14.9102L21.2154 14.8347C21.0499 14.781 20.883 14.7113 20.7204 14.6276L20.5022 14.5159L19.9588 14.7883L19.0835 13.9125L19.3549 13.3696L19.2436 13.1518C19.1594 12.9868 19.0898 12.8199 19.037 12.6568L18.9615 12.4241L18.3872 12.232V10.9938L18.9615 10.8022L19.037 10.5694C19.0898 10.4059 19.1594 10.2389 19.2436 10.0744L19.3549 9.85667L19.083 9.31328L19.9583 8.43796L20.5017 8.71038L20.7199 8.59861C20.8825 8.5149 21.0494 8.4457 21.2149 8.39151L21.4472 8.31603L21.6393 7.74216H22.8775L23.0686 8.31603L23.3009 8.39151C23.4664 8.44522 23.6333 8.5149 23.7959 8.59861L24.0141 8.71038L24.5575 8.43796L25.4328 9.31328L25.1614 9.85667L25.2727 10.0744C25.3569 10.2394 25.4265 10.4063 25.4793 10.5694L25.5548 10.8022L26.1291 10.9943V12.232Z" fill="#DCA629"/>
<path d="M22.258 9.19336C20.9239 9.19336 19.8386 10.2787 19.8386 11.6127C19.8386 12.9467 20.9239 14.0321 22.258 14.0321C23.592 14.0321 24.6773 12.9467 24.6773 11.6127C24.6773 10.2787 23.592 9.19336 22.258 9.19336ZM22.258 13.0643C21.4577 13.0643 20.8064 12.413 20.8064 11.6127C20.8064 10.8124 21.4577 10.1611 22.258 10.1611C23.0583 10.1611 23.7096 10.8124 23.7096 11.6127C23.7096 12.413 23.0583 13.0643 22.258 13.0643Z" fill="#DCA629"/>
<path d="M28.5484 0H15.9677C15.1674 0 14.5161 0.65129 14.5161 1.45161V4.83871H10.5948C10.38 3.78581 9.48048 2.97871 8.38258 2.90855C7.82806 1.73419 6.64016 0.967742 5.32258 0.967742C4.005 0.967742 2.8171 1.73419 2.26258 2.90855C1.00113 2.98935 0 4.04129 0 5.32258C0 6.65661 1.08532 7.74194 2.41935 7.74194H4.83871V9.67742H2.41935C1.08532 9.67742 0 10.7627 0 12.0968V24.6774C0 26.0115 1.08532 27.0968 2.41935 27.0968H7.74194V29.0323H5.80645V30H20.3226V29.0323H18.3871V27.0968H23.7097C25.0437 27.0968 26.129 26.0115 26.129 24.6774V19.3548H28.5484C29.3487 19.3548 30 18.7035 30 17.9032V1.45161C30 0.65129 29.3487 0 28.5484 0ZM15.9677 0.967742H28.5484C28.815 0.967742 29.0323 1.18452 29.0323 1.45161V3.87097H15.4839V1.45161C15.4839 1.18452 15.7011 0.967742 15.9677 0.967742ZM0.967742 5.32258C0.967742 4.52516 1.61419 3.87581 2.44645 3.87581C2.44935 3.87581 2.45274 3.87581 2.45565 3.87581L2.91581 3.91839L3.03919 3.56274C3.37694 2.58968 4.29484 1.93548 5.32258 1.93548C6.35032 1.93548 7.26823 2.58968 7.60597 3.56226L7.72935 3.9179L8.22581 3.87097C9.02613 3.87097 9.67742 4.52226 9.67742 5.32258C9.67742 6.1229 9.02613 6.77419 8.22581 6.77419H2.41935C1.61903 6.77419 0.967742 6.1229 0.967742 5.32258ZM5.80645 7.74194H8.22581C9.39387 7.74194 10.3713 6.90919 10.5963 5.80645H14.5161V9.67742H5.80645V7.74194ZM17.4194 29.0323H8.70968V27.0968H17.4194V29.0323ZM23.7097 26.129H2.41935C1.61903 26.129 0.967742 25.4777 0.967742 24.6774V23.2258H25.1613V24.6774C25.1613 25.4777 24.51 26.129 23.7097 26.129ZM25.1613 22.2581H0.967742V12.0968C0.967742 11.2965 1.61903 10.6452 2.41935 10.6452H14.5161V17.9032C14.5161 18.7035 15.1674 19.3548 15.9677 19.3548H25.1613V22.2581ZM28.5484 18.3871H15.9677C15.7011 18.3871 15.4839 18.1703 15.4839 17.9032V4.83871H29.0323V17.9032C29.0323 18.1703 28.815 18.3871 28.5484 18.3871Z" fill="#DCA629"/>
<path d="M21.2903 1.93555H20.3225V2.90329H21.2903V1.93555Z" fill="#DCA629"/>
<path d="M17.4194 1.93555H16.4517V2.90329H17.4194V1.93555Z" fill="#DCA629"/>
<path d="M19.3549 1.93555H18.3872V2.90329H19.3549V1.93555Z" fill="#DCA629"/>
<path d="M19.8386 25.1611C20.1058 25.1611 20.3225 24.9445 20.3225 24.6772C20.3225 24.41 20.1058 24.1934 19.8386 24.1934C19.5714 24.1934 19.3547 24.41 19.3547 24.6772C19.3547 24.9445 19.5714 25.1611 19.8386 25.1611Z" fill="#DCA629"/>
<path d="M21.7742 25.1611C22.0414 25.1611 22.258 24.9445 22.258 24.6772C22.258 24.41 22.0414 24.1934 21.7742 24.1934C21.5069 24.1934 21.2903 24.41 21.2903 24.6772C21.2903 24.9445 21.5069 25.1611 21.7742 25.1611Z" fill="#DCA629"/>
<path d="M23.7097 25.1611C23.9769 25.1611 24.1936 24.9445 24.1936 24.6772C24.1936 24.41 23.9769 24.1934 23.7097 24.1934C23.4425 24.1934 23.2258 24.41 23.2258 24.6772C23.2258 24.9445 23.4425 25.1611 23.7097 25.1611Z" fill="#DCA629"/>
<path d="M4.83877 11.6128H1.93555V15.4838H4.83877V11.6128ZM3.87103 14.516H2.90329V12.5805H3.87103V14.516Z" fill="#DCA629"/>
<path d="M8.70962 11.6128H5.8064V15.4838H8.70962V11.6128ZM7.74188 14.516H6.77414V12.5805H7.74188V14.516Z" fill="#DCA629"/>
<path d="M12.5807 11.6128H9.67749V15.4838H12.5807V11.6128ZM11.613 14.516H10.6452V12.5805H11.613V14.516Z" fill="#DCA629"/>
<path d="M3.87103 16.4517H1.93555V17.4194H3.87103V16.4517Z" fill="#DCA629"/>
<path d="M13.5483 16.4517H4.83862V17.4194H13.5483V16.4517Z" fill="#DCA629"/>
<path d="M13.5485 18.3872H1.93555V19.3549H13.5485V18.3872Z" fill="#DCA629"/>
<path d="M5.80651 20.3228H1.93555V21.2905H5.80651V20.3228Z" fill="#DCA629"/>
<path d="M7.74191 20.3228H6.77417V21.2905H7.74191V20.3228Z" fill="#DCA629"/>
<path d="M13.5484 20.3228H8.70972V21.2905H13.5484V20.3228Z" fill="#DCA629"/>
<path d="M24.1936 20.3228H23.2258V21.2905H24.1936V20.3228Z" fill="#DCA629"/>
<path d="M18.3872 20.3228H17.4194V21.2905H18.3872V20.3228Z" fill="#DCA629"/>
<path d="M22.258 20.3228H21.2903V21.2905H22.258V20.3228Z" fill="#DCA629"/>
<path d="M20.3225 20.3228H19.3547V21.2905H20.3225V20.3228Z" fill="#DCA629"/>
</svg>
