<svg width="34" height="30" viewBox="0 0 34 30" fill="none" xmlns="http://www.w3.org/2000/svg">
<path d="M8.36964 6.57619C8.04355 6.41315 7.71747 6.25011 7.44573 6.03271L4.3479 11.3045C4.67399 11.4675 5.00007 11.6305 5.27181 11.8479L8.36964 6.57619Z" fill="#DCA629"/>
<path d="M8.369 23.4237L5.32552 18.0977C5.05379 18.315 4.7277 18.5324 4.40161 18.6411L7.44509 23.9672C7.71683 23.7498 8.04292 23.5868 8.369 23.4237Z" fill="#DCA629"/>
<path d="M13.8044 26.5762C13.8588 26.7392 13.8588 26.9566 13.8588 27.1197C13.8588 27.2827 13.8588 27.5001 13.8044 27.6631H19.8914C19.8371 27.5001 19.8371 27.2827 19.8371 27.1197C19.8371 26.9566 19.8371 26.7392 19.8914 26.5762H13.8044Z" fill="#DCA629"/>
<path d="M19.8914 3.42387C19.8371 3.26083 19.8371 3.04344 19.8371 2.88039C19.8371 2.71735 19.8371 2.49996 19.8914 2.33691H13.8044C13.8588 2.49996 13.8588 2.71735 13.8588 2.88039C13.8588 3.04344 13.8588 3.26083 13.8044 3.42387H19.8914Z" fill="#DCA629"/>
<path d="M25.3257 23.4237C25.6518 23.5868 25.9779 23.7498 26.2496 23.9672L29.2931 18.6411C28.967 18.5324 28.6409 18.315 28.3692 18.0977L25.3257 23.4237Z" fill="#DCA629"/>
<path d="M25.3257 6.57619L28.4235 11.9023C28.6952 11.6849 29.0213 11.4675 29.3474 11.3588L26.2496 6.03271C25.9779 6.25011 25.6518 6.41315 25.3257 6.57619Z" fill="#DCA629"/>
<path d="M30.816 17.88C32.4068 17.88 33.6964 16.5904 33.6964 14.9996C33.6964 13.4088 32.4068 12.1191 30.816 12.1191C29.2252 12.1191 27.9355 13.4088 27.9355 14.9996C27.9355 16.5904 29.2252 17.88 30.816 17.88Z" fill="#DCA629"/>
<path d="M2.88044 17.8805C4.47126 17.8805 5.76087 16.5909 5.76087 15.0001C5.76087 13.4092 4.47126 12.1196 2.88044 12.1196C1.28961 12.1196 0 13.4092 0 15.0001C0 16.5909 1.28961 17.8805 2.88044 17.8805Z" fill="#DCA629"/>
<path d="M9.83722 5.76087C11.428 5.76087 12.7177 4.47126 12.7177 2.88043C12.7177 1.28961 11.428 0 9.83722 0C8.2464 0 6.95679 1.28961 6.95679 2.88043C6.95679 4.47126 8.2464 5.76087 9.83722 5.76087Z" fill="#DCA629"/>
<path d="M9.83722 30.0001C11.428 30.0001 12.7177 28.7105 12.7177 27.1197C12.7177 25.5289 11.428 24.2393 9.83722 24.2393C8.2464 24.2393 6.95679 25.5289 6.95679 27.1197C6.95679 28.7105 8.2464 30.0001 9.83722 30.0001Z" fill="#DCA629"/>
<path d="M23.8043 30.0001C25.3951 30.0001 26.6847 28.7105 26.6847 27.1197C26.6847 25.5289 25.3951 24.2393 23.8043 24.2393C22.2134 24.2393 20.9238 25.5289 20.9238 27.1197C20.9238 28.7105 22.2134 30.0001 23.8043 30.0001Z" fill="#DCA629"/>
<path d="M23.8043 5.76087C25.3951 5.76087 26.6847 4.47126 26.6847 2.88043C26.6847 1.28961 25.3951 0 23.8043 0C22.2134 0 20.9238 1.28961 20.9238 2.88043C20.9238 4.47126 22.2134 5.76087 23.8043 5.76087Z" fill="#DCA629"/>
<path d="M9.34723 16.739C9.9994 17.663 11.6298 18.2064 13.4233 18.5325C13.1516 16.9564 13.0429 15.1086 13.2059 13.3151C11.7929 13.0434 10.5972 12.663 9.72766 12.1738C9.12984 13.5869 8.9668 15.163 9.34723 16.739Z" fill="#DCA629"/>
<path d="M14.7279 22.391C14.2931 21.6844 13.9127 20.7605 13.6409 19.6736C12.4453 19.5105 11.1409 19.1844 10.054 18.6953C11.0866 20.4888 12.717 21.8475 14.7279 22.391Z" fill="#DCA629"/>
<path d="M10.1631 11.1415C10.924 11.5763 12.0109 11.9567 13.2609 12.1741C13.5327 10.3806 13.9674 8.69584 14.7283 7.60889C12.8261 8.15237 11.1957 9.40237 10.1631 11.1415Z" fill="#DCA629"/>
<path d="M16.8478 22.7173C17.5543 22.7173 18.3152 21.6304 18.8043 19.8369C17.3913 20 16.3587 20 14.8369 19.8369C15.3804 21.6304 16.1413 22.7173 16.8478 22.7173Z" fill="#DCA629"/>
<path d="M16.8478 7.28271C15.8695 7.28271 14.8369 9.34793 14.4021 12.3371C15.9782 12.5545 17.4999 12.5545 19.2391 12.3371C18.8586 9.34793 17.826 7.28271 16.8478 7.28271Z" fill="#DCA629"/>
<path d="M19.402 13.478C17.6085 13.6954 15.9781 13.6954 14.2933 13.478C14.1846 15.2172 14.239 17.0106 14.565 18.6954C16.1411 18.8585 17.4998 18.8585 19.0759 18.6954C19.4563 17.0106 19.5107 15.1628 19.402 13.478Z" fill="#DCA629"/>
<path d="M23.5327 11.1415C22.5545 9.45671 20.9241 8.15237 18.9675 7.60889C19.6741 8.75019 20.1632 10.3806 20.4349 12.1741C21.5762 11.9567 22.6632 11.6306 23.5327 11.1415Z" fill="#DCA629"/>
<path d="M23.5868 18.6958C22.4998 19.1849 21.1955 19.511 19.9998 19.6741C19.7281 20.761 19.3476 21.6849 18.9128 22.3915C20.9781 21.848 22.6085 20.4893 23.5868 18.6958Z" fill="#DCA629"/>
<path d="M24.3482 16.7392C24.7286 15.1631 24.5655 13.587 24.0221 12.1196C23.0438 12.6631 21.8482 13.0435 20.5438 13.2609C20.7068 15.0544 20.5982 16.8479 20.3264 18.4783C22.0655 18.2066 23.696 17.6631 24.3482 16.7392Z" fill="#DCA629"/>
</svg>
