<svg width="26" height="30" viewBox="0 0 26 30" fill="none" xmlns="http://www.w3.org/2000/svg">
<path d="M8.218 21.6667C8.27409 20.9373 8.17666 20.2044 7.932 19.515C7.7312 19.0059 7.43793 18.5384 7.067 18.136C6.07141 17.0382 5.41594 15.675 5.18018 14.2119C4.94442 12.7488 5.13852 11.2487 5.7389 9.89372C6.33928 8.53878 7.32012 7.38728 8.56232 6.57905C9.80453 5.77082 11.2547 5.34061 12.7367 5.34067H12.7867C12.8928 5.34067 12.9945 5.38281 13.0695 5.45782C13.1445 5.53284 13.1867 5.63458 13.1867 5.74067V8.59867H13.6393C14.467 8.59867 14.766 9.981 14.3427 10.7827C14.2826 10.9215 14.1849 11.0408 14.0606 11.1271C13.9363 11.2134 13.7904 11.2632 13.6393 11.271H13.1867V13.7667H15.623C15.6755 13.7667 15.7275 13.777 15.7761 13.7971C15.8246 13.8172 15.8687 13.8467 15.9058 13.8838C15.943 13.921 15.9725 13.9651 15.9926 14.0136C16.0127 14.0621 16.023 14.1141 16.023 14.1667V15.0203C16.023 15.043 16.0457 14.9977 16.0843 15.0187C16.2345 15.0843 16.3966 15.1182 16.5605 15.1182C16.7244 15.1182 16.8865 15.0843 17.0367 15.0187C17.0753 14.9977 17.098 15.043 17.098 15.0203V14.1667C17.098 14.0606 17.1401 13.9588 17.2152 13.8838C17.2902 13.8088 17.3919 13.7667 17.498 13.7667H19.9003C19.9607 13.7668 20.0203 13.7806 20.0746 13.8071C20.1289 13.8335 20.1765 13.8719 20.2138 13.9194C20.2511 13.9669 20.2772 14.0222 20.2901 14.0811C20.303 14.1401 20.3024 14.2013 20.2883 14.26C20.17 14.9732 19.95 15.6656 19.635 16.3163C19.3151 16.9777 18.9018 17.5896 18.4077 18.1333C17.6511 18.9403 17.2383 20.01 17.2567 21.116V21.6667C17.4485 21.7626 17.6099 21.9101 17.7227 22.0926C17.8355 22.2752 17.8953 22.4855 17.8953 22.7V24.244C17.8936 24.8826 17.6659 25.5001 17.2525 25.9868C16.839 26.4736 16.2666 26.7983 15.6367 26.9033V27.71C15.6355 28.3168 15.394 28.8985 14.965 29.3277C14.536 29.7568 13.9545 29.9986 13.3477 30H12.1253C11.5186 29.9986 10.9372 29.7569 10.5082 29.3279C10.0792 28.8989 9.83765 28.3174 9.83633 27.7107V26.9017C9.20642 26.7966 8.63404 26.4719 8.22067 25.9851C7.80729 25.4984 7.57962 24.8809 7.578 24.2423V22.7C7.57775 22.4852 7.63754 22.2747 7.75063 22.0921C7.86372 21.9095 8.0256 21.7621 8.218 21.6667ZM10.816 25.1553C10.7099 25.1553 10.6082 25.1132 10.5332 25.0382C10.4581 24.9632 10.416 24.8614 10.416 24.7553C10.416 24.6492 10.4581 24.5475 10.5332 24.4725C10.6082 24.3975 10.7099 24.3553 10.816 24.3553H11.3963C11.5024 24.3553 11.6042 24.3975 11.6792 24.4725C11.7542 24.5475 11.7963 24.6492 11.7963 24.7553C11.7963 24.8614 11.7542 24.9632 11.6792 25.0382C11.6042 25.1132 11.5024 25.1553 11.3963 25.1553H10.816ZM18.857 11.4047V12.208C18.857 12.2437 18.878 12.1677 18.9107 12.1837C19.2211 12.31 19.5686 12.31 19.879 12.1837C19.9123 12.1677 19.9323 12.2437 19.9323 12.208V11.4047C19.9323 11.2986 19.9745 11.1968 20.0495 11.1218C20.1245 11.0468 20.2262 11.0047 20.3323 11.0047H22.3867C22.4909 10.0826 22.4071 9.14904 22.1402 8.26034C21.8733 7.37164 21.4289 6.54632 20.8339 5.83429C20.2389 5.12225 19.5057 4.53831 18.6785 4.11778C17.8514 3.69725 16.9476 3.44887 16.0217 3.38767V5.83533H16.4273C17.2357 5.83533 17.5103 7.216 17.1127 8.01133C17.0576 8.15074 16.9638 8.27152 16.8424 8.35945C16.721 8.44737 16.577 8.4988 16.4273 8.50767H16.0217V11.0053H18.458C18.5106 11.0051 18.5627 11.0152 18.6114 11.0352C18.66 11.0553 18.7042 11.0847 18.7414 11.1219C18.7786 11.1591 18.8081 11.2033 18.8281 11.2519C18.8481 11.3006 18.8583 11.3527 18.858 11.4053L18.857 11.4047ZM20.731 11.8047V12.2087C20.731 13.0187 19.3503 13.2933 18.555 12.8957C18.4153 12.8405 18.2944 12.7465 18.2064 12.6247C18.1185 12.503 18.0672 12.3586 18.0587 12.2087V11.804H15.6223C15.5698 11.804 15.5178 11.7937 15.4693 11.7736C15.4207 11.7535 15.3766 11.724 15.3395 11.6868C15.3023 11.6497 15.2729 11.6056 15.2528 11.5571C15.2327 11.5085 15.2223 11.4565 15.2223 11.404V8.10833C15.2223 8.05581 15.2327 8.00379 15.2528 7.95526C15.2729 7.90673 15.3023 7.86263 15.3395 7.82549C15.3766 7.78835 15.4207 7.75888 15.4693 7.73878C15.5178 7.71868 15.5698 7.70833 15.6223 7.70833H16.4273C16.4607 7.70833 16.3853 7.68733 16.4013 7.655C16.5272 7.34507 16.5272 6.99826 16.4013 6.68833C16.3853 6.655 16.4613 6.635 16.4273 6.635H15.6223C15.5698 6.635 15.5178 6.62465 15.4693 6.60455C15.4207 6.58445 15.3766 6.55499 15.3395 6.51784C15.3023 6.4807 15.2729 6.4366 15.2528 6.38807C15.2327 6.33954 15.2223 6.28753 15.2223 6.235V2.97533C15.2222 2.91936 15.2339 2.864 15.2567 2.81287C15.2795 2.76174 15.3128 2.71599 15.3544 2.67861C15.3961 2.64123 15.4452 2.61307 15.4984 2.59596C15.5517 2.57885 15.608 2.57319 15.6637 2.57933C16.7133 2.59181 17.7491 2.82003 18.7068 3.24978C19.6644 3.67954 20.5235 4.30166 21.2305 5.07748C21.9376 5.85331 22.4775 6.76625 22.8168 7.75959C23.156 8.75292 23.2874 9.80542 23.2027 10.8517C23.1867 11.044 23.164 11.2397 23.1317 11.4387C23.1233 11.5385 23.0778 11.6315 23.0042 11.6994C22.9306 11.7673 22.8342 11.8051 22.734 11.8053L20.731 11.8047ZM12.3867 19.3923H11.909C11.078 19.3923 10.7547 18.0183 11.1977 17.205C11.26 17.0664 11.3594 16.9478 11.485 16.8622C11.6105 16.7766 11.7572 16.7274 11.909 16.72H12.3867V14.5667H10.0287C9.92258 14.5667 9.82084 14.5245 9.74582 14.4495C9.67081 14.3745 9.62867 14.2728 9.62867 14.1667V13.2267C9.62867 13.225 9.59967 13.2087 9.551 13.1813C9.40735 13.1119 9.24988 13.0759 9.09033 13.0759C8.93079 13.0759 8.77331 13.1119 8.62967 13.1813C8.58267 13.2087 8.552 13.225 8.552 13.2267V14.1667C8.552 14.2728 8.50986 14.3745 8.43484 14.4495C8.35983 14.5245 8.25809 14.5667 8.152 14.5667H6.06C6.32515 15.697 6.87423 16.741 7.65533 17.6C8.54442 18.5543 9.03089 19.8149 9.01333 21.119V21.5457H12.3867V19.3923ZM12.7867 17.5187H11.909C11.8927 17.5187 11.9187 17.5447 11.896 17.5853C11.8304 17.7338 11.7966 17.8943 11.7966 18.0567C11.7966 18.219 11.8304 18.3795 11.896 18.528C11.9187 18.57 11.8927 18.5947 11.909 18.5947H12.7867C12.8928 18.5947 12.9945 18.6368 13.0695 18.7118C13.1445 18.7868 13.1867 18.8886 13.1867 18.9947V21.5473H16.4587V21.1173C16.4427 19.8138 16.9294 18.5542 17.8177 17.6C18.5977 16.7402 19.1467 15.6965 19.4133 14.5667H17.8953V15.021C17.8953 15.8487 16.513 16.1493 15.7113 15.7243C15.5725 15.6642 15.4532 15.5665 15.3669 15.4423C15.2806 15.318 15.2308 15.1721 15.223 15.021V14.5667H13.1867V17.1193C13.1867 17.2254 13.1445 17.3272 13.0695 17.4022C12.9945 17.4772 12.8928 17.5193 12.7867 17.5193V17.5187ZM10.428 13.7667H12.3867V10.871C12.3867 10.7649 12.4288 10.6632 12.5038 10.5882C12.5788 10.5131 12.6806 10.471 12.7867 10.471H13.6387C13.6613 10.471 13.616 10.4483 13.6387 10.4097C13.7035 10.2593 13.7369 10.0974 13.7369 9.93367C13.7369 9.76997 13.7035 9.60799 13.6387 9.45767C13.6177 9.41867 13.663 9.396 13.6387 9.396H12.7867C12.6806 9.396 12.5788 9.35386 12.5038 9.27884C12.4288 9.20383 12.3867 9.10209 12.3867 8.996V6.146C11.4517 6.19394 10.5365 6.43276 9.69734 6.84776C8.85819 7.26276 8.11287 7.84514 7.50728 8.55906C6.90169 9.27297 6.44866 10.1033 6.17608 10.9989C5.9035 11.8945 5.81715 12.8364 5.92233 13.7667H7.75567V13.2267C7.75567 12.3747 9.12667 12.0107 9.95567 12.4957C10.0929 12.5639 10.2093 12.6677 10.2926 12.7963C10.3759 12.9249 10.4232 13.0735 10.4293 13.2267L10.428 13.7667ZM5.23033 8.46067C5.31915 8.51632 5.38244 8.60476 5.40644 8.70679C5.43044 8.80882 5.41323 8.9162 5.35854 9.00561C5.30384 9.09503 5.21609 9.15926 5.11432 9.18436C5.01256 9.20945 4.905 9.1934 4.815 9.13967L1.85333 7.32267C1.77315 7.26327 1.71806 7.17605 1.69888 7.07812C1.6797 6.9802 1.69782 6.87864 1.74967 6.79338C1.80153 6.70813 1.88338 6.64533 1.97915 6.61732C2.07493 6.58931 2.17771 6.59812 2.26733 6.642L5.23033 8.46067ZM8.66367 5.14333C8.71406 5.23616 8.72551 5.3452 8.69551 5.44647C8.6655 5.54774 8.59649 5.63294 8.50367 5.68333C8.41084 5.73372 8.3018 5.74518 8.20053 5.71517C8.09926 5.68517 8.01406 5.61616 7.96367 5.52333L6.24167 2.353C6.21672 2.30704 6.20106 2.25661 6.1956 2.2046C6.19014 2.15259 6.19497 2.10001 6.20983 2.04986C6.22469 1.99972 6.24927 1.95299 6.28219 1.91235C6.31511 1.87171 6.3557 1.83795 6.40167 1.813C6.49449 1.76261 6.60353 1.75116 6.7048 1.78116C6.75495 1.79602 6.80167 1.82061 6.84231 1.85352C6.88296 1.88644 6.91672 1.92704 6.94167 1.973L8.66367 5.14333ZM13.1867 4.094C13.1867 4.20009 13.1445 4.30183 13.0695 4.37684C12.9945 4.45186 12.8928 4.494 12.7867 4.494C12.6806 4.494 12.5788 4.45186 12.5038 4.37684C12.4288 4.30183 12.3867 4.20009 12.3867 4.094V0.4C12.3867 0.293913 12.4288 0.192172 12.5038 0.117157C12.5788 0.0421427 12.6806 0 12.7867 0C12.8928 0 12.9945 0.0421427 13.0695 0.117157C13.1445 0.192172 13.1867 0.293913 13.1867 0.4V4.094ZM0.4 13.9637C0.293913 13.9637 0.192172 13.9215 0.117157 13.8465C0.0421427 13.7715 0 13.6698 0 13.5637C0 13.4576 0.0421427 13.3558 0.117157 13.2808C0.192172 13.2058 0.293913 13.1637 0.4 13.1637H3.81433C3.92042 13.1637 4.02216 13.2058 4.09718 13.2808C4.17219 13.3558 4.21433 13.4576 4.21433 13.5637C4.21433 13.6698 4.17219 13.7715 4.09718 13.8465C4.02216 13.9215 3.92042 13.9637 3.81433 13.9637H0.4ZM21.636 13.9637C21.5299 13.9637 21.4282 13.9215 21.3532 13.8465C21.2781 13.7715 21.236 13.6698 21.236 13.5637C21.236 13.4576 21.2781 13.3558 21.3532 13.2808C21.4282 13.2058 21.5299 13.1637 21.636 13.1637H25.1717C25.2778 13.1637 25.3795 13.2058 25.4545 13.2808C25.5295 13.3558 25.5717 13.4576 25.5717 13.5637C25.5717 13.6698 25.5295 13.7715 25.4545 13.8465C25.3795 13.9215 25.2778 13.9637 25.1717 13.9637H21.636ZM13.194 25.1557C13.0879 25.1557 12.9862 25.1135 12.9112 25.0385C12.8361 24.9635 12.794 24.8618 12.794 24.7557C12.794 24.6496 12.8361 24.5478 12.9112 24.4728C12.9862 24.3978 13.0879 24.3557 13.194 24.3557H15.0273C15.1334 24.3557 15.2352 24.3978 15.3102 24.4728C15.3852 24.5478 15.4273 24.6496 15.4273 24.7557C15.4273 24.8618 15.3852 24.9635 15.3102 25.0385C15.2352 25.1135 15.1334 25.1557 15.0273 25.1557H13.194ZM14.8383 26.9373H10.6333V27.71C10.6354 28.1049 10.7933 28.483 11.0727 28.7621C11.3521 29.0411 11.7304 29.1985 12.1253 29.2H13.3477C13.7426 29.1985 14.1208 29.041 14.4001 28.7617C14.6793 28.4825 14.8368 28.1042 14.8383 27.7093V26.9373ZM16.7427 22.3443H8.729C8.63522 22.3452 8.54557 22.3831 8.47954 22.4497C8.41351 22.5163 8.37642 22.6062 8.37633 22.7V24.244C8.37818 24.7464 8.57856 25.2276 8.93379 25.5829C9.28903 25.9381 9.7703 26.1385 10.2727 26.1403H15.2003C15.7027 26.1385 16.184 25.9381 16.5392 25.5829C16.8944 25.2276 17.0948 24.7464 17.0967 24.244V22.7C17.0961 22.6063 17.0587 22.5165 16.9924 22.4503C16.9261 22.384 16.8364 22.3465 16.7427 22.346V22.3443Z" fill="#DCA629"/>
</svg>
