<svg width="31" height="30" viewBox="0 0 31 30" fill="none" xmlns="http://www.w3.org/2000/svg">
<g clip-path="url(#clip0_170_43442)">
<path d="M8.14589 5.66695C7.9194 5.40453 7.73977 5.19834 7.56795 4.99684C7.09934 4.4314 7.13215 3.76129 7.64761 3.23489C7.78975 3.09119 7.93033 2.94905 8.0756 2.80846C8.292 2.5782 8.58939 2.44102 8.90501 2.42586C9.22063 2.41071 9.5298 2.51877 9.76726 2.72724C10.1734 3.05682 10.5639 3.40515 10.9513 3.75504C10.9947 3.80029 11.0528 3.82859 11.1152 3.83489C11.1776 3.84118 11.2402 3.82506 11.2918 3.78941C11.9416 3.502 12.5961 3.22552 13.2599 2.97091C13.4161 2.91312 13.4614 2.85689 13.4708 2.70537C13.4973 2.21334 13.5395 1.72287 13.5739 1.23083C13.5763 1.06416 13.612 0.899646 13.6789 0.746978C13.7458 0.594311 13.8426 0.456574 13.9635 0.341877C14.0845 0.227181 14.2272 0.137843 14.3832 0.0791238C14.5392 0.0204046 14.7054 -0.00650919 14.8719 -3.30543e-05C15.0437 -3.30543e-05 15.214 -3.30543e-05 15.3858 -3.30543e-05C16.2137 -3.30543e-05 16.7151 0.476381 16.7682 1.30737C16.7979 1.75879 16.8322 2.20865 16.851 2.66164C16.8588 2.85376 16.9447 2.91781 17.1212 2.98497C17.7663 3.23021 18.4021 3.50044 19.0316 3.78316C19.087 3.8222 19.1549 3.83948 19.2223 3.8317C19.2897 3.82393 19.3519 3.79164 19.3971 3.74099C19.7204 3.43952 20.0594 3.15523 20.3921 2.86313C21.0856 2.25083 21.7338 2.2602 22.3727 2.91937C22.6287 3.15986 22.8444 3.4399 23.0116 3.7488C23.2131 4.18303 23.0725 4.61571 22.7741 4.98435C22.5992 5.1999 22.4117 5.40765 22.1853 5.67319H27.6898C29.283 5.67319 30.3296 6.71974 30.3311 8.3208C30.3311 12.6247 30.3311 16.9275 30.3311 21.2293C30.3311 21.9228 30.3311 22.6163 30.3311 23.3099C30.3186 24.8375 29.2721 25.8856 27.746 25.8872C24.6501 25.8872 21.5542 25.8846 18.4583 25.8794C18.1693 25.8794 18.0334 25.9653 17.9381 26.2324C17.5856 27.1537 17.6001 28.1753 17.9788 29.0862C17.996 29.163 18.0417 29.2304 18.1066 29.275C18.1714 29.3196 18.2507 29.3381 18.3286 29.3267C18.6895 29.3096 19.0519 29.3267 19.4221 29.3267C19.6579 29.3267 19.8297 29.422 19.8344 29.6657C19.8391 29.9094 19.6782 30.0125 19.4346 30.0125H10.9247C10.6857 30.0125 10.492 29.9469 10.4983 29.6673C10.5045 29.3877 10.6951 29.3252 10.9341 29.3267C11.2855 29.3267 11.6386 29.3111 11.99 29.3346C12.2134 29.3486 12.3024 29.2533 12.3789 29.0612C12.7609 28.1293 12.7609 27.0846 12.3789 26.1527C12.3571 26.0675 12.3045 25.9934 12.2312 25.9446C12.158 25.8959 12.0693 25.876 11.9822 25.8888C9.48297 25.8966 6.98375 25.8888 4.4736 25.8888C3.83005 25.8888 3.18807 25.8888 2.54452 25.8888C1.06842 25.8716 0 24.8157 0 23.3489C0 18.3005 0 13.2536 0 8.20834C0 6.72911 1.06998 5.67163 2.55701 5.66851C4.28616 5.66851 6.01531 5.66851 7.74445 5.66851L8.14589 5.66695ZM11.0903 16.8447C10.6888 17.1962 10.2765 17.5632 9.85786 17.9225C9.25804 18.4395 8.58794 18.4145 8.02718 17.8631L7.74914 17.5867C7.08997 16.9259 7.06654 16.3058 7.67573 15.6013C8.01624 15.2077 8.35833 14.8203 8.65042 14.4814C8.30365 13.652 7.98188 12.8772 7.65386 12.0712C7.13683 12.0306 6.56045 11.99 5.995 11.9415C5.67541 11.9277 5.374 11.7891 5.15552 11.5554C4.93705 11.3218 4.81895 11.0117 4.82662 10.6919C4.82662 10.5217 4.83755 10.3499 4.82662 10.1796C4.75789 9.34236 5.34364 8.77379 6.18088 8.75192C6.62293 8.7363 7.06342 8.69413 7.50547 8.67538C7.57405 8.6782 7.64115 8.65496 7.6933 8.61034C7.74546 8.56572 7.7788 8.50302 7.78663 8.43483C7.89019 8.0679 8.01271 7.70659 8.1537 7.35236C8.28804 7.02433 8.4661 6.71193 8.63636 6.35267H2.66479C1.40581 6.35579 0.679475 7.079 0.679475 8.33955V21.4495H29.6236C29.6236 21.3761 29.6345 21.3261 29.6345 21.2761C29.6345 16.9119 29.6345 12.5476 29.6345 8.18335C29.6345 7.10868 28.8863 6.3636 27.8085 6.35736C25.8482 6.34798 23.8878 6.35736 21.926 6.35736C21.8703 6.35919 21.8149 6.36598 21.7604 6.37766C22.0244 7.06495 22.2946 7.73349 22.5305 8.40828C22.545 8.48954 22.5895 8.5624 22.6551 8.61244C22.7208 8.66248 22.8028 8.68605 22.885 8.67851C23.4067 8.7035 23.93 8.73005 24.447 8.79566C24.7411 8.82987 25.0122 8.97133 25.2085 9.19296C25.4047 9.41458 25.5124 9.70081 25.5108 9.99684C25.5202 10.228 25.5108 10.4654 25.5108 10.6919C25.514 11.0113 25.3938 11.3195 25.1753 11.5524C24.9567 11.7852 24.6566 11.9247 24.3377 11.9415C23.8368 11.9863 23.3354 12.0223 22.8335 12.0493C22.7664 12.044 22.6996 12.0633 22.6456 12.1035C22.5916 12.1437 22.554 12.2022 22.5398 12.268C22.2868 12.9319 22.0103 13.5863 21.7213 14.2361C21.6865 14.2886 21.6712 14.3517 21.6784 14.4143C21.6855 14.4769 21.7146 14.535 21.7604 14.5782C22.0978 14.95 22.4321 15.3264 22.7554 15.7122C23.2318 16.2808 23.2037 16.9431 22.6882 17.4742C22.5914 17.5742 22.4898 17.6726 22.3914 17.7725C21.7182 18.4442 21.1075 18.4661 20.3827 17.8397C19.9953 17.5054 19.6111 17.1665 19.2893 16.9025C18.5083 17.204 17.7741 17.4773 17.0525 17.771C17.0014 17.7979 16.9571 17.836 16.923 17.8826C16.8889 17.9291 16.8659 17.9828 16.8557 18.0396C16.8072 18.4879 16.7869 18.9409 16.7604 19.3923C16.7104 20.2265 16.2152 20.7013 15.3874 20.706C15.2171 20.706 15.0453 20.706 14.875 20.706C14.1112 20.706 13.6145 20.2249 13.5629 19.4642C13.527 18.9144 13.4833 18.3708 13.4442 17.8272C13.0366 17.6882 12.6398 17.5757 12.2618 17.418C11.8838 17.2602 11.5105 17.0509 11.0903 16.8447ZM0.679475 22.1805V23.2411C0.679475 24.4548 1.42299 25.2015 2.63043 25.2015H18.0943C21.3496 25.2015 24.6048 25.2015 27.8616 25.2015C28.2268 25.2045 28.5837 25.0925 28.8817 24.8814C29.1797 24.6703 29.4037 24.3708 29.522 24.0253C29.7329 23.4223 29.5954 22.8007 29.636 22.1805H0.679475ZM21.3558 17.632C21.4902 17.5745 21.6193 17.5056 21.7416 17.4258C21.8776 17.3065 22.007 17.1797 22.129 17.0462C22.4758 16.6963 22.493 16.4495 22.1759 16.0793C21.8057 15.642 21.4324 15.2062 21.0465 14.7844C20.9977 14.745 20.9573 14.6962 20.9277 14.6408C20.8981 14.5855 20.8799 14.5248 20.8743 14.4623C20.8686 14.3998 20.8755 14.3368 20.8946 14.277C20.9138 14.2172 20.9447 14.1619 20.9856 14.1143C21.4586 13.4011 21.7866 12.6018 21.951 11.7619C21.9555 11.7071 21.9708 11.6537 21.9961 11.6048C22.0213 11.5559 22.056 11.5125 22.0981 11.477C22.1402 11.4416 22.1889 11.4149 22.2414 11.3984C22.2939 11.3818 22.3491 11.3759 22.4039 11.3808C22.9866 11.3527 23.5676 11.3089 24.1487 11.2668C24.6345 11.2324 24.8126 11.0434 24.8188 10.5654C24.8188 10.4092 24.8188 10.2639 24.8188 10.114C24.8188 9.66882 24.6626 9.48919 24.2174 9.44858C23.6176 9.39547 23.0147 9.36267 22.4133 9.32674C22.2972 9.33121 22.1839 9.2909 22.0966 9.21415C22.0094 9.1374 21.955 9.03008 21.9447 8.91437C21.7808 8.08409 21.4538 7.2946 20.9825 6.59166C20.9412 6.5448 20.9097 6.49016 20.8898 6.43095C20.8699 6.37174 20.8621 6.30915 20.8667 6.24686C20.8714 6.18458 20.8885 6.12385 20.9169 6.06825C20.9454 6.01266 20.9847 5.96331 21.0325 5.92312C21.4246 5.49356 21.8057 5.04995 22.1821 4.60634C22.4789 4.25801 22.4649 4.00497 22.1509 3.68319C22.0447 3.57541 21.9385 3.46763 21.8307 3.37079C21.4964 3.04277 21.2355 3.03027 20.8935 3.33486C20.4467 3.72537 20.0016 4.11587 19.5642 4.51731C19.4895 4.6005 19.3854 4.65152 19.2739 4.65967C19.1623 4.66783 19.052 4.63248 18.9659 4.56104C18.2463 4.07942 17.4382 3.74546 16.5886 3.57854C16.4778 3.56896 16.3751 3.51666 16.3022 3.43269C16.2293 3.34873 16.192 3.2397 16.1981 3.12868C16.1746 2.67726 16.1371 2.22583 16.1168 1.77441C16.0731 0.738799 15.9231 0.681004 15.0016 0.707558C14.4658 0.723179 14.2877 0.885628 14.2534 1.42608C14.2174 1.99778 14.1706 2.56791 14.1425 3.1443C14.1478 3.25033 14.1122 3.35437 14.043 3.4349C13.9738 3.51543 13.8763 3.56629 13.7707 3.57697C12.9127 3.75144 12.0965 4.08982 11.3668 4.57354C11.2841 4.64091 11.1788 4.67409 11.0725 4.66624C10.9662 4.6584 10.8669 4.61013 10.7951 4.53136C10.442 4.21896 10.0828 3.90656 9.72665 3.59416C8.98469 2.94748 8.91596 2.94905 8.22868 3.64102C7.83037 4.03933 7.82256 4.26582 8.19744 4.69694C8.55201 5.10618 8.90191 5.52324 9.2721 5.91999C9.49547 6.15898 9.50172 6.36829 9.32209 6.64008C8.85731 7.32432 8.53829 8.09687 8.38488 8.90968C8.32552 9.22209 8.15526 9.33924 7.84599 9.35173C7.26335 9.3736 6.68229 9.42202 6.10122 9.4642C5.69041 9.49544 5.50297 9.69538 5.49672 10.0999C5.49672 10.2718 5.49672 10.442 5.49672 10.6123C5.49672 11.045 5.69978 11.2511 6.13714 11.2793C6.72915 11.3199 7.31959 11.3683 7.91159 11.3948C8.02299 11.3874 8.13294 11.4234 8.2183 11.4954C8.30366 11.5673 8.35778 11.6696 8.36926 11.7807C8.54193 12.6378 8.88277 13.4522 9.37207 14.1768C9.43961 14.2592 9.47234 14.3647 9.4633 14.4709C9.45426 14.5771 9.40415 14.6755 9.32365 14.7454C9.01125 15.089 8.71446 15.4405 8.413 15.7903C7.74445 16.5589 7.74758 16.6198 8.46767 17.3305C8.83005 17.6882 9.0706 17.6991 9.45642 17.368C9.91409 16.9744 10.3702 16.587 10.8201 16.1777C10.8797 16.1089 10.9634 16.0655 11.0541 16.0564C11.1447 16.0474 11.2354 16.0735 11.3074 16.1293C12.0601 16.6341 12.9053 16.985 13.7941 17.1618C13.8899 17.1728 13.9779 17.22 14.0401 17.2938C14.1022 17.3675 14.1338 17.4623 14.1284 17.5585C14.1612 18.1505 14.2065 18.741 14.244 19.333C14.2752 19.8297 14.4705 20.0218 14.9578 20.0234H15.3811C15.8357 20.0234 16.0278 19.8531 16.0637 19.3986C16.109 18.8269 16.1528 18.2568 16.1746 17.6804C16.1887 17.368 16.3074 17.1837 16.6354 17.1212C17.4348 16.9599 18.1961 16.6477 18.8785 16.2012C19.2518 15.9653 19.2924 15.97 19.6345 16.2699C20.0594 16.6401 20.4795 17.0134 20.9122 17.3742C21.0521 17.4732 21.2006 17.5595 21.3558 17.632ZM13.0162 29.2955H17.318C16.8838 28.2079 16.8838 26.9951 17.318 25.9075H13.01C13.4454 26.9945 13.4476 28.2069 13.0162 29.2955Z" fill="#DCA629"/>
<path d="M4.25814 18.3192C5.00166 18.3192 5.74362 18.3192 6.48713 18.3192C6.72925 18.3192 6.94168 18.352 6.95574 18.655C6.96511 18.8846 6.81047 18.9986 6.49651 18.9986C4.98969 18.9986 3.48339 18.9986 1.97761 18.9986C1.62615 18.9986 1.41372 18.7284 1.59023 18.4957C1.63966 18.4441 1.69877 18.4029 1.76416 18.3742C1.82956 18.3455 1.89997 18.33 1.97136 18.3285C2.73206 18.3113 3.49432 18.3192 4.25814 18.3192Z" fill="#DCA629"/>
<path d="M26.0545 18.3195C26.798 18.3195 27.5399 18.3195 28.2835 18.3195C28.5303 18.3195 28.7349 18.3632 28.7521 18.6537C28.7708 18.8708 28.5959 18.9989 28.2835 18.9989C26.7777 18.9989 25.2719 18.9989 23.7646 18.9989C23.5256 18.9989 23.335 18.9349 23.3288 18.66C23.3225 18.3851 23.5131 18.3163 23.7552 18.3179C24.5237 18.3226 25.2922 18.3195 26.0545 18.3195Z" fill="#DCA629"/>
<path d="M4.25951 20.5043H1.99928C1.68688 20.5043 1.51818 20.3778 1.53068 20.1591C1.55098 19.8701 1.75561 19.8154 1.99928 19.8154H6.49163C6.73218 19.8154 6.96023 19.8576 6.95086 20.1591C6.94149 20.4605 6.73374 20.5043 6.48225 20.5043C5.74499 20.5027 4.99834 20.5043 4.25951 20.5043Z" fill="#DCA629"/>
<path d="M26.0637 20.5046C25.2827 20.5046 24.5173 20.5046 23.7457 20.5046C23.4333 20.5046 23.2677 20.2984 23.3536 20.0469C23.427 19.8313 23.6098 19.8188 23.7957 19.8188H28.3739C28.5973 19.8188 28.7566 19.9266 28.7551 20.1562C28.7535 20.3859 28.5895 20.5046 28.3536 20.5046H26.0637Z" fill="#DCA629"/>
<path d="M3.60515 17.4945C3.06157 17.4945 2.51955 17.4945 1.97597 17.4945C1.7323 17.4945 1.54017 17.4211 1.53549 17.1587C1.5308 16.8963 1.7198 16.8119 1.9666 16.8135C3.07146 16.8135 4.17685 16.8135 5.28275 16.8135C5.53111 16.8135 5.71387 16.8994 5.70762 17.1634C5.70137 17.4274 5.50612 17.4945 5.26245 17.4945C4.70949 17.4945 4.15654 17.4945 3.60515 17.4945Z" fill="#DCA629"/>
<path d="M26.6496 17.4945C26.1076 17.4945 25.5562 17.4945 25.022 17.4945C24.7767 17.4945 24.5862 17.4211 24.583 17.1571C24.5799 16.8932 24.7674 16.8119 25.0142 16.8135C26.1201 16.8135 27.2254 16.8135 28.3303 16.8135C28.5787 16.8135 28.7614 16.901 28.7536 17.1634C28.7458 17.4258 28.574 17.4961 28.3381 17.4945C27.7742 17.4945 27.2119 17.4945 26.6496 17.4945Z" fill="#DCA629"/>
<path d="M15.1514 24.0204C14.4673 24.0204 13.7847 24.0204 13.1005 24.0204C12.8647 24.0204 12.6741 23.9657 12.6553 23.6892C12.6397 23.4596 12.7991 23.3394 13.1099 23.3394C14.4876 23.3394 15.8653 23.3394 17.2414 23.3394C17.4804 23.3394 17.6678 23.394 17.6881 23.6689C17.7038 23.897 17.5444 24.0188 17.232 24.0204C16.5323 24.0235 15.8387 24.0204 15.1514 24.0204Z" fill="#DCA629"/>
<path d="M15.1516 16.2634C13.9827 16.2618 12.8406 15.9133 11.8699 15.2621C10.8992 14.6108 10.1437 13.6861 9.69903 12.6051C9.25437 11.5241 9.14058 10.3354 9.37209 9.18962C9.60359 8.04387 10.17 6.99261 10.9995 6.16904C11.829 5.34546 12.8842 4.78662 14.0316 4.56333C15.179 4.34003 16.3668 4.46233 17.4447 4.91472C18.5225 5.36711 19.4418 6.12924 20.0861 7.10455C20.7303 8.07986 21.0706 9.22447 21.0638 10.3934C21.0507 11.9534 20.4222 13.4452 19.3151 14.5444C18.208 15.6436 16.7117 16.2614 15.1516 16.2634ZM15.1751 15.5667C16.207 15.5658 17.2155 15.2588 18.0728 14.6845C18.9302 14.1102 19.598 13.2945 19.9916 12.3406C20.3852 11.3867 20.487 10.3374 20.2841 9.32563C20.0812 8.31384 19.5827 7.38498 18.8517 6.6566C18.1207 5.92822 17.19 5.43307 16.1775 5.23379C15.165 5.03452 14.1161 5.14009 13.1636 5.53713C12.2111 5.93418 11.3978 6.60486 10.8266 7.4643C10.2554 8.32374 9.95203 9.33331 9.95481 10.3652C9.95977 11.7465 10.5119 13.0695 11.4904 14.0444C12.4688 15.0193 13.7938 15.5667 15.1751 15.5667Z" fill="#DCA629"/>
<path d="M12.5195 9.89216C12.8194 9.57976 13.0724 9.2986 13.3567 9.04399C13.4598 8.95183 13.6691 8.85967 13.7644 8.90497C13.8297 8.94943 13.8841 9.00806 13.9236 9.07648C13.9631 9.14491 13.9866 9.22137 13.9925 9.30016C14.0159 9.99213 13.9925 10.6841 14.005 11.3776C14.005 11.6135 13.9175 11.7806 13.6676 11.7806C13.4176 11.7806 13.327 11.6135 13.3286 11.3776C13.3286 10.959 13.3286 10.5404 13.3286 10.128L13.2411 10.064C13.1209 10.2046 13.0084 10.353 12.8787 10.4842C12.5851 10.7841 12.4445 10.7841 12.154 10.4842C12.0228 10.3514 11.9025 10.2092 11.776 10.0718L11.701 10.114C11.701 10.5404 11.701 10.9684 11.701 11.3948C11.701 11.6604 11.5323 11.8103 11.3089 11.7759C11.266 11.7719 11.2244 11.7593 11.1864 11.7389C11.1484 11.7186 11.1148 11.6909 11.0876 11.6575C11.0605 11.624 11.0402 11.5855 11.028 11.5442C11.0159 11.5029 11.0121 11.4595 11.0168 11.4167C11.0168 10.6935 11.0059 9.97026 11.0168 9.24861C11.0249 9.17695 11.0499 9.10824 11.0898 9.0482C11.1298 8.98816 11.1835 8.93852 11.2464 8.90341C11.3156 8.89056 11.3867 8.89344 11.4546 8.91183C11.5224 8.93021 11.5853 8.96364 11.6385 9.00962C11.9337 9.27829 12.2055 9.57507 12.5195 9.89216Z" fill="#DCA629"/>
<path d="M18.149 10.8029C18.149 11.0559 18.149 11.2715 18.149 11.473C18.149 11.6745 18.035 11.8494 17.8069 11.8526C17.7585 11.8554 17.7101 11.8476 17.665 11.8297C17.62 11.8118 17.5794 11.7842 17.5462 11.7489C17.5129 11.7136 17.4879 11.6714 17.4727 11.6254C17.4576 11.5793 17.4528 11.5305 17.4586 11.4824C17.4492 10.731 17.443 9.97971 17.4476 9.22682C17.443 9.17623 17.4498 9.12524 17.4675 9.07763C17.4853 9.03001 17.5135 8.98699 17.55 8.95175C17.5866 8.91651 17.6307 8.88994 17.6789 8.87402C17.7272 8.85809 17.7784 8.85321 17.8288 8.85975C18.049 8.85975 18.2708 8.85975 18.4895 8.85975C18.7398 8.8698 18.9766 8.97631 19.1501 9.15698C19.3237 9.33764 19.4206 9.57845 19.4206 9.82898C19.4206 10.0795 19.3237 10.3203 19.1501 10.501C18.9766 10.6816 18.7398 10.7882 18.4895 10.7982C18.3942 10.806 18.2958 10.8029 18.149 10.8029ZM18.1787 9.47674V10.1984C18.3604 10.1345 18.5365 10.0556 18.7051 9.96253C18.7263 9.92204 18.7373 9.87702 18.7373 9.83132C18.7373 9.78562 18.7263 9.74059 18.7051 9.70011C18.5364 9.61059 18.3602 9.53586 18.1787 9.47674Z" fill="#DCA629"/>
<path d="M15.7481 10.5716C15.9715 10.0514 16.1636 9.6125 16.3495 9.16577C16.4401 8.94708 16.5729 8.79869 16.829 8.88148C17.0415 8.94865 17.0977 9.16264 16.9852 9.43756C16.6963 10.1202 16.4135 10.8059 16.1027 11.4791C16.0663 11.5496 16.0146 11.611 15.9513 11.6588C15.8881 11.7066 15.8149 11.7397 15.7372 11.7556C15.6294 11.7556 15.4607 11.5994 15.4045 11.4791C15.0921 10.7965 14.8031 10.1014 14.5079 9.411C14.4126 9.18763 14.4298 8.98145 14.675 8.88304C14.9203 8.78464 15.0546 8.9299 15.1436 9.13921C15.3311 9.5922 15.5232 10.0421 15.7481 10.5716Z" fill="#DCA629"/>
</g>
<defs>
<clipPath id="clip0_170_43442">
<rect width="30.3327" height="30" fill="white"/>
</clipPath>
</defs>
</svg>
