<svg width="100" height="100" viewBox="0 0 100 100" fill="none" xmlns="http://www.w3.org/2000/svg">
<rect width="100" height="100" rx="24" fill="#DCA629"/>
<path d="M69.8994 42.4C68.2244 40.55 65.6994 39.475 62.1994 39.1V37.2C62.1994 33.775 60.7494 30.475 58.1994 28.175C55.6244 25.825 52.2744 24.725 48.7994 25.05C42.8244 25.625 37.7994 31.4 37.7994 37.65V39.1C34.2994 39.475 31.7744 40.55 30.0994 42.4C27.6744 45.1 27.7494 48.7 28.0244 51.2L29.7744 65.125C30.2994 70 32.2744 75 43.0244 75H56.9744C67.7244 75 69.6994 70 70.2244 65.15L71.9744 51.175C72.2494 48.7 72.2994 45.1 69.8994 42.4ZM49.1494 28.525C51.6494 28.3 54.0244 29.075 55.8744 30.75C57.6994 32.4 58.7244 34.75 58.7244 37.2V38.95H41.2744V37.65C41.2744 33.2 44.9494 28.925 49.1494 28.525ZM41.0494 52.875H41.0244C39.6494 52.875 38.5244 51.75 38.5244 50.375C38.5244 49 39.6494 47.875 41.0244 47.875C42.4244 47.875 43.5494 49 43.5494 50.375C43.5494 51.75 42.4244 52.875 41.0494 52.875ZM58.5494 52.875H58.5244C57.1494 52.875 56.0244 51.75 56.0244 50.375C56.0244 49 57.1494 47.875 58.5244 47.875C59.9244 47.875 61.0494 49 61.0494 50.375C61.0494 51.75 59.9244 52.875 58.5494 52.875Z" fill="#0B0B0B"/>
</svg>
