<svg width="100" height="100" viewBox="0 0 100 100" fill="none" xmlns="http://www.w3.org/2000/svg">
<rect width="100" height="100" rx="24" fill="#DCA629"/>
<path d="M53.2509 40.2748L56.5509 46.8748C57.0009 47.7748 58.2009 48.6748 59.2009 48.8248L65.1759 49.8248C69.0009 50.4748 69.9009 53.2248 67.1509 55.9748L62.5009 60.6498C61.7259 61.4248 61.2759 62.9498 61.5259 64.0498L62.8509 69.8248C63.9009 74.3748 61.4759 76.1498 57.4509 73.7748L51.8509 70.4498C50.8259 69.8498 49.1759 69.8498 48.1509 70.4498L42.5259 73.7498C38.5009 76.1248 36.0759 74.3498 37.1259 69.7998L38.4509 64.0248C38.7009 62.9498 38.2509 61.4248 37.4759 60.6248L32.8509 55.9998C30.1009 53.2498 31.0009 50.4748 34.8259 49.8498L40.8009 48.8498C41.8009 48.6748 43.0009 47.7998 43.4509 46.8998L46.7509 40.2998C48.5259 36.6998 51.4759 36.6998 53.2509 40.2748Z" fill="#0B0B0B"/>
<path d="M35 44.375C33.975 44.375 33.125 43.525 33.125 42.5V25C33.125 23.975 33.975 23.125 35 23.125C36.025 23.125 36.875 23.975 36.875 25V42.5C36.875 43.525 36.025 44.375 35 44.375Z" fill="#0B0B0B"/>
<path d="M65 44.375C63.975 44.375 63.125 43.525 63.125 42.5V25C63.125 23.975 63.975 23.125 65 23.125C66.025 23.125 66.875 23.975 66.875 25V42.5C66.875 43.525 66.025 44.375 65 44.375Z" fill="#0B0B0B"/>
<path d="M50 31.875C48.975 31.875 48.125 31.025 48.125 30V25C48.125 23.975 48.975 23.125 50 23.125C51.025 23.125 51.875 23.975 51.875 25V30C51.875 31.025 51.025 31.875 50 31.875Z" fill="#0B0B0B"/>
</svg>
