<svg width="1512" height="1361" viewBox="0 0 1512 1361" fill="none" xmlns="http://www.w3.org/2000/svg">
<g opacity="0.2">
<mask id="mask0_68_844" style="mask-type:luminance" maskUnits="userSpaceOnUse" x="-309" y="0" width="2129" height="1361">
<path d="M-115.612 1360.04L1819.12 379.677L1626.73 5.67078e-05L-308.001 980.363L-115.612 1360.04Z" fill="white"/>
</mask>
<g mask="url(#mask0_68_844)">
<path d="M524.512 645.221C548.312 633.161 576.176 625.161 609.131 620.884C644.308 616.317 681.065 616.548 715.699 617.175C735.737 617.538 756.18 618.326 775.951 619.089C835.479 621.387 897.035 623.762 956.93 614.95C1027.58 604.558 1089.16 575.31 1139.97 528.023C1170.53 499.575 1197.12 466.574 1222.83 434.659C1240.72 412.441 1259.23 389.467 1278.93 368.213C1307.6 337.284 1338.39 312.263 1370.45 293.844C1387.32 284.129 1405.05 276.008 1423.43 269.586C1442.32 263.029 1461.83 258.359 1481.64 255.646C1572.02 243.254 1663.88 262.285 1752.71 280.688C1758.77 281.945 1764.82 283.196 1770.86 284.44L1770.81 284.699C1764.77 283.458 1758.72 282.208 1752.65 280.948C1663.85 262.545 1572.01 243.524 1481.68 255.907C1406.97 266.151 1338.82 303.996 1279.13 368.392C1259.43 389.639 1240.93 412.609 1223.03 434.826C1197.32 466.748 1170.73 499.756 1140.15 528.217C1089.3 575.542 1027.68 604.809 956.972 615.213C897.052 624.028 835.485 621.652 775.944 619.354C756.175 618.592 735.734 617.803 715.697 617.439C654.816 616.336 571.443 614.824 509.057 654.293C418.839 711.374 419.204 825.893 419.527 926.931C419.632 959.576 419.729 990.411 416.999 1018.49C414.33 1045.87 408.843 1066.96 400.222 1082.97C395.315 1092.38 388.514 1100.68 380.247 1107.34C371.121 1114.38 360.429 1119.12 349.079 1121.15C300.817 1130.41 247.066 1112.47 199.641 1096.64C191.076 1093.78 182.985 1091.08 175.003 1088.56L175.083 1088.3C183.068 1090.83 191.153 1093.53 199.723 1096.38C247.116 1112.2 300.832 1130.13 349.029 1120.89C401.753 1110.78 412.917 1057.59 416.728 1018.46C419.461 990.397 419.362 959.569 419.259 926.931C419.095 875.23 418.923 821.768 430.08 773.516C436.12 747.391 444.841 725.443 456.733 706.418C463.129 696.16 470.628 686.633 479.097 678.006C488.088 668.918 498.088 660.887 508.904 654.071C513.9 650.909 519.1 647.959 524.504 645.22" fill="url(#paint0_linear_68_844)" fill-opacity="0.7"/>
<path d="M510.44 660.619C557.247 636.901 611.943 632.978 655.241 632.333C672.809 632.068 690.311 632.385 706.733 632.733C723.738 633.091 741.082 633.715 757.855 634.319C807.625 636.114 859.084 637.96 909.184 633.176C922.187 631.933 934.863 630.272 946.862 628.245C1016.21 616.493 1076.61 586.066 1126.39 537.809C1156.33 508.795 1182.29 475.28 1207.39 442.869C1224.61 420.639 1242.41 397.652 1261.33 376.341C1278.05 357.328 1296.41 339.829 1316.21 324.047C1336.69 307.649 1359.08 293.794 1382.89 282.785C1407.37 271.616 1433.44 264.35 1460.17 261.252C1490.89 257.756 1520.99 259.452 1556.74 263.073C1576.84 265.149 1597.44 268.041 1617.37 270.836C1630.68 272.702 1644.44 274.633 1657.94 276.306C1689.58 280.273 1720.44 283.58 1750.28 286.781L1762.99 288.142L1762.96 288.461L1750.24 287.099C1720.4 283.9 1689.54 280.591 1657.9 276.624C1644.4 274.951 1630.64 273.021 1617.33 271.155C1597.4 268.356 1576.8 265.468 1556.71 263.393C1520.98 259.773 1490.9 258.08 1460.2 261.574C1409.59 267.333 1362.56 287.851 1316.41 324.299C1296.63 340.068 1278.28 357.554 1261.57 376.552C1242.66 397.855 1224.86 420.837 1207.64 443.062C1182.53 475.481 1156.57 509.007 1126.61 538.037C1076.79 586.337 1016.33 616.793 946.915 628.556C934.909 630.586 922.223 632.245 909.213 633.491C859.091 638.275 807.618 636.424 757.841 634.634C741.069 634.032 723.726 633.408 706.723 633.05C690.303 632.703 672.804 632.386 655.239 632.646C608.807 633.342 549.244 637.802 500.423 666.438C467.038 686.143 443.214 714.249 427.586 752.348C406.308 803.814 403.422 864.912 400.631 923.999C399.157 955.224 397.758 984.713 393.723 1011.71C389.706 1038.52 383.622 1058.18 374.559 1073.61C369.339 1082.73 362.372 1090.73 354.055 1097.16C344.857 1104 334.216 1108.65 322.946 1110.75C275.318 1120.19 222.375 1104.42 175.664 1090.51C166.602 1087.81 158.042 1085.26 149.596 1082.91L149.682 1082.6C158.131 1084.96 166.692 1087.51 175.756 1090.21C222.431 1104.11 275.334 1119.86 322.884 1110.44C373.796 1100.39 387.317 1052.37 393.411 1011.66C397.449 984.688 398.841 955.199 400.312 923.979C403.106 864.866 405.992 803.739 427.295 752.227C442.948 714.055 466.817 685.903 500.266 666.162C503.608 664.202 506.999 662.352 510.439 660.611" fill="url(#paint1_linear_68_844)" fill-opacity="0.7"/>
<path d="M496.666 675.617C516.745 665.442 539.521 658.259 566.094 653.724C589.032 649.806 614.56 647.868 646.417 647.631C663.238 647.501 679.622 647.853 697.762 648.29C711.769 648.628 726.053 649.118 739.864 649.59C792.43 651.389 846.786 653.249 899.46 647.207C912.321 645.725 924.882 643.819 936.79 641.537C1003.72 629.05 1065.18 596.251 1112.8 547.601C1142.12 517.999 1167.46 483.949 1191.96 451.018C1208.49 428.801 1225.59 405.821 1243.72 384.477C1259.87 365.247 1277.64 347.442 1296.85 331.258C1318.78 312.937 1340.06 298.936 1361.9 288.456C1386 276.743 1411.99 269.434 1438.67 266.873C1471.54 263.846 1504.45 268.522 1536.27 273.046L1539.7 273.531C1549.65 274.979 1559.88 276.593 1569.77 278.161C1594.84 282.123 1620.77 286.22 1646.31 288.244C1679.19 290.925 1710.48 291.312 1740.74 291.682C1745.54 291.74 1750.32 291.802 1755.09 291.867L1755.08 292.244C1750.32 292.177 1745.53 292.115 1740.73 292.06C1710.47 291.691 1679.18 291.311 1646.27 288.624C1620.72 286.598 1594.78 282.5 1569.7 278.539C1559.81 276.977 1549.59 275.361 1539.63 273.916L1536.21 273.43C1504.41 268.91 1471.52 264.236 1438.69 267.26C1389.82 271.759 1343.5 292.792 1297.08 331.559C1277.9 347.724 1260.15 365.509 1244.02 384.716C1225.89 406.051 1208.8 429.027 1192.27 451.243C1167.76 484.183 1142.42 518.244 1113.08 547.863C1065.39 596.568 1003.87 629.404 936.865 641.905C924.949 644.185 912.378 646.095 899.507 647.578C846.8 653.628 792.436 651.764 739.849 649.966C726.038 649.493 711.757 649.005 697.751 648.669C679.615 648.231 663.234 647.878 646.421 648.013C599.961 648.359 540.389 652.151 491.799 678.607C458.632 696.662 434.114 722.936 416.844 758.928C393.619 807.337 387.605 865.291 381.793 921.336C378.711 951.049 375.8 979.112 370.46 1004.96C367.1 1021.22 361.209 1045.07 348.908 1064.27C343.376 1073.09 336.243 1080.81 327.875 1087.01C318.606 1093.66 308.009 1098.22 296.812 1100.38C275.81 1104.68 252.023 1104.73 224.082 1100.53C199.501 1096.83 175.19 1090.47 151.679 1084.32C142.126 1081.81 133.102 1079.45 124.192 1077.3L124.281 1076.94C133.193 1079.09 142.218 1081.45 151.773 1083.95C197.734 1095.98 249.83 1109.62 296.73 1100.02C346.406 1089.93 362.026 1043.88 370.083 1004.89C375.42 979.06 378.334 951.003 381.411 921.303C387.227 865.226 393.242 807.239 416.497 758.771C433.802 722.704 458.372 696.375 491.613 678.282C493.276 677.376 494.958 676.492 496.66 675.63" fill="url(#paint2_linear_68_844)" fill-opacity="0.7"/>
<path d="M482.132 690.791L482.971 690.366C504.349 679.664 528.737 672.338 557.521 667.977C580.257 664.531 605.7 662.927 637.597 662.928C654.685 662.921 671.74 663.385 688.236 663.833L688.794 663.848C699.842 664.146 711.097 664.524 721.992 664.886C777.332 666.734 834.557 668.645 889.738 661.235C902.462 659.517 914.909 657.369 926.719 654.828C993.473 640.433 1051.51 607.649 1099.22 557.387C1127.93 527.176 1152.65 492.566 1176.55 459.096C1192.4 436.908 1208.78 413.964 1226.13 392.603C1241.71 373.154 1258.9 355.043 1277.5 338.458C1299.22 319.261 1319.97 304.769 1340.93 294.141L1341.02 294.096C1364.68 281.808 1390.6 274.453 1417.19 272.477C1448.74 270.213 1480.08 276.054 1510.38 281.702C1514.41 282.445 1518.58 283.232 1522.68 283.972C1528.31 284.995 1534.08 286.071 1539.66 287.112C1570.72 292.91 1602.85 298.907 1634.69 300.156C1669.54 301.632 1701.89 299.098 1733.17 296.647C1737.78 296.286 1742.55 295.906 1747.21 295.563L1747.24 295.994C1742.58 296.345 1737.82 296.718 1733.21 297.078C1701.91 299.53 1669.54 302.063 1634.67 300.587C1602.8 299.336 1570.66 293.337 1539.58 287.536C1534 286.496 1528.23 285.418 1522.6 284.397C1518.51 283.653 1514.34 282.875 1510.3 282.125C1480.02 276.483 1448.72 270.647 1417.22 272.907C1369.05 276.362 1324.75 297.294 1277.79 338.782C1259.2 355.352 1242.03 373.448 1226.46 392.88C1209.12 414.23 1192.74 437.169 1176.9 459.352C1152.99 492.834 1128.26 527.457 1099.53 557.689C1051.76 608.014 993.648 640.841 926.806 655.255C914.98 657.791 902.52 659.952 889.794 661.665C834.575 669.079 777.333 667.168 721.975 665.32C711.086 664.957 699.828 664.58 688.78 664.282L688.222 664.267C671.73 663.819 654.679 663.356 637.596 663.362C588.294 663.359 531.391 666.61 483.166 690.754C450.109 707.299 424.895 731.751 406.095 765.487C380.777 810.908 371.671 865.85 362.864 918.98C358.209 947.061 353.813 973.588 347.193 998.191C336.509 1037.92 319.069 1079.89 270.681 1089.99C249.956 1094.37 226.53 1094.88 199.063 1091.56C174.876 1088.63 150.888 1083.22 127.691 1077.99C117.654 1075.72 108.164 1073.58 98.7934 1071.67L98.8801 1071.24C108.255 1073.16 117.742 1075.3 127.786 1077.56C173.033 1087.77 224.317 1099.34 270.594 1089.57C318.747 1079.51 336.126 1037.68 346.776 998.08C353.389 973.492 357.785 946.98 362.433 918.913C371.247 865.749 380.363 810.775 405.716 765.282C424.4 731.754 449.402 707.38 482.131 690.795" fill="url(#paint3_linear_68_844)" fill-opacity="0.7"/>
<path d="M467.184 705.905C469.528 704.717 471.909 703.568 474.327 702.459C522.503 680.432 579.437 677.846 628.777 678.226C644.617 678.339 660.49 678.821 675.848 679.284L679.83 679.405C687.951 679.647 696.224 679.925 704.226 680.193C762.314 682.13 822.388 684.146 880.023 675.261C892.612 673.311 904.937 670.909 916.663 668.115C982.123 652.435 1038.98 618.472 1085.66 567.172C1113.76 536.327 1137.86 501.13 1161.16 467.094C1176.32 444.964 1191.99 422.079 1208.54 400.736C1223.57 381.068 1240.16 362.651 1258.17 345.666C1279.6 325.625 1299.82 310.64 1319.97 299.853C1344.77 286.59 1369.55 279.466 1395.72 278.088C1426.88 276.449 1457.6 283.487 1487.31 290.293C1493.34 291.674 1499.57 293.102 1505.67 294.424C1508.25 294.984 1510.84 295.548 1513.44 296.115C1549.2 303.907 1586.17 311.965 1623.08 312.084C1659.95 312.332 1693.41 306.823 1725.76 301.495C1730.22 300.761 1734.83 300.002 1739.33 299.277L1739.4 299.764C1734.9 300.488 1730.29 301.243 1725.84 301.981C1693.46 307.312 1659.98 312.825 1623.07 312.573C1586.1 312.453 1549.11 304.388 1513.33 296.591C1510.73 296.025 1508.14 295.462 1505.56 294.901C1499.45 293.577 1493.22 292.149 1487.19 290.767C1457.52 283.969 1426.83 276.939 1395.74 278.574C1333.89 281.829 1287.79 318.626 1258.5 346.026C1240.51 362.993 1223.93 381.39 1208.92 401.037C1192.37 422.378 1176.71 445.254 1161.57 467.384C1138.25 501.436 1114.14 536.647 1086.02 567.517C1063.59 592.366 1037.64 613.8 1009.01 631.136C980.349 648.259 949.239 660.893 916.759 668.6C905.027 671.391 892.689 673.799 880.086 675.75C822.411 684.638 762.319 682.628 704.207 680.69C696.206 680.422 687.933 680.145 679.813 679.903L675.831 679.782C660.483 679.317 644.612 678.835 628.777 678.723C579.492 678.348 522.623 680.924 474.537 702.916C441.583 717.981 415.682 740.601 395.347 772.064C367.851 814.607 355.626 866.649 343.801 916.976C337.62 943.299 331.775 968.165 323.924 991.435C318.072 1008.78 310.371 1028.76 297.61 1045.54C283.74 1063.77 266.384 1074.92 244.551 1079.6C224.099 1084.06 201.036 1085.02 174.041 1082.55C150.244 1080.37 126.586 1075.89 103.705 1071.56C93.1751 1069.56 83.2295 1067.68 73.3942 1066.04L73.4744 1065.56C83.3117 1067.19 93.2629 1069.08 103.796 1071.08C148.329 1079.51 198.803 1089.06 244.447 1079.12C291.228 1069.08 310.069 1030.97 323.461 991.278C331.305 968.03 337.144 943.176 343.326 916.863C355.159 866.495 367.4 814.409 394.936 771.796C413.829 742.563 437.521 720.937 467.189 705.904" fill="url(#paint4_linear_68_844)" fill-opacity="0.7"/>
<path d="M451.615 721.028C456.176 718.717 460.866 716.564 465.686 714.569C487.225 705.649 511.659 699.737 540.381 696.496C562.924 693.952 587.461 693.032 619.953 693.533C634.48 693.745 649.089 694.239 663.217 694.717L670.852 694.974C676.08 695.146 681.313 695.323 686.552 695.506C747.373 697.598 810.265 699.761 870.282 689.305C882.738 687.124 894.947 684.476 906.565 681.426C970.733 664.487 1026.4 629.349 1072.05 576.98C1099.55 545.475 1123.04 509.662 1145.75 475.028C1160.2 452.986 1175.15 430.189 1190.91 408.88C1205.38 388.991 1221.39 370.268 1238.79 352.884C1260.15 331.727 1279.28 316.701 1298.98 305.597C1323.51 291.773 1348.12 284.609 1374.22 283.711C1405.59 282.628 1436.31 290.92 1466.02 298.939C1473.44 300.942 1481.12 303.015 1488.62 304.887L1489.6 305.128C1529.23 315.012 1570.21 325.233 1611.43 324.022C1650.34 323.021 1684.9 314.479 1718.33 306.217C1722.63 305.154 1727.07 304.053 1731.41 303.003L1731.54 303.533C1727.19 304.589 1722.76 305.684 1718.46 306.747C1685 315.016 1650.41 323.566 1611.45 324.567C1570.15 325.781 1529.14 315.558 1489.46 305.657L1488.49 305.416C1480.98 303.543 1473.3 301.47 1465.87 299.465C1436.2 291.457 1405.53 283.175 1374.23 284.257C1314.19 286.33 1270.52 322.229 1239.17 353.274C1221.8 370.639 1205.81 389.34 1191.35 409.206C1175.6 430.503 1160.66 453.292 1146.21 475.329C1123.49 509.977 1099.99 545.806 1072.46 577.34C1050.71 602.535 1025.43 624.464 997.421 642.45C969.395 660.21 938.794 673.532 906.699 681.945C895.063 684.995 882.842 687.65 870.37 689.834C810.298 700.3 747.374 698.129 686.528 696.043C681.29 695.863 676.057 695.686 670.828 695.511L663.193 695.254C649.067 694.776 634.464 694.279 619.939 694.069C570.644 693.32 513.788 695.223 465.888 715.065C433.042 728.665 406.453 749.455 384.578 778.629C354.768 818.394 339.375 867.68 324.489 915.342C316.857 939.775 309.648 962.858 300.638 984.674C293.765 1001.32 284.983 1020.45 271.954 1036.17C257.469 1053.64 239.953 1064.45 218.405 1069.21C198.232 1073.73 175.53 1075.13 149.006 1073.49C125.602 1072.03 102.277 1068.47 79.7231 1065.02C68.7007 1063.34 58.2908 1061.74 47.9851 1060.41L48.0594 1059.86C58.3713 1061.21 68.7849 1062.8 79.8093 1064.48C125.764 1071.51 173.285 1078.78 218.293 1068.68C263.81 1058.63 284.533 1022.27 300.142 984.467C309.141 962.674 316.348 939.604 323.975 915.18C338.875 867.474 354.281 818.146 384.148 778.304C401.844 754.195 424.953 734.576 451.615 721.028Z" fill="url(#paint5_linear_68_844)" fill-opacity="0.7"/>
<path d="M434.968 736.277C442.139 732.655 449.509 729.444 457.045 726.659C504.666 708.977 559.247 707.638 611.139 708.821C624.287 709.113 637.555 709.613 650.385 710.095C654.233 710.237 658.067 710.379 661.888 710.523L668.99 710.78C732.52 713.081 798.215 715.462 860.561 703.328C872.89 700.915 884.98 698.016 896.493 694.706C959.376 676.535 1013.87 640.216 1058.47 586.759C1085.38 554.57 1108.25 518.116 1130.37 482.856C1144.12 460.922 1158.34 438.252 1173.3 417.007C1187.2 396.881 1202.62 377.851 1219.43 360.085C1240.37 338.111 1258.97 322.621 1278 311.339C1302.24 296.969 1326.68 289.765 1352.73 289.314C1384.64 288.76 1415.69 298.332 1445.71 307.593C1454.22 310.215 1463.01 312.928 1471.59 315.333C1508.66 325.7 1554.79 338.604 1599.8 335.944C1640.75 333.678 1676.41 322.044 1710.89 310.806C1715.04 309.454 1719.32 308.057 1723.5 306.715L1723.69 307.287C1719.51 308.63 1715.22 310.027 1711.08 311.377C1676.56 322.635 1640.86 334.274 1599.83 336.549C1554.73 339.214 1508.54 326.298 1471.43 315.917C1462.84 313.514 1454.04 310.8 1445.53 308.175C1415.55 298.931 1384.55 289.371 1352.74 289.924C1293.58 290.951 1250.65 328.189 1219.86 360.51C1203.07 378.254 1187.67 397.26 1173.79 417.363C1158.84 438.589 1144.62 461.252 1130.87 483.176C1108.74 518.454 1085.86 554.931 1058.92 587.16C1037.83 612.708 1013.22 635.137 985.837 653.776C958.447 672.173 928.355 686.187 896.646 695.31C885.113 698.619 873.006 701.522 860.66 703.939C798.245 716.085 732.516 713.704 668.953 711.402L661.851 711.145C658.034 711.006 654.199 710.864 650.348 710.717C637.519 710.234 624.255 709.734 611.111 709.444C559.284 708.258 504.773 709.596 457.245 727.241C424.926 739.102 396.197 759.069 373.814 785.225C341.504 822.317 322.849 869.008 304.808 914.161C296.253 935.576 287.405 957.719 277.356 977.944C269.032 994.698 259.515 1012.21 246.311 1026.82C232.163 1042.98 213.229 1054.19 192.266 1058.84C172.371 1063.44 150.038 1065.26 123.982 1064.42C100.973 1063.67 77.9882 1060.99 55.7627 1058.41C44.2431 1057.07 33.3611 1055.8 22.5747 1054.8L22.6306 1054.2C33.4219 1055.2 44.3051 1056.46 55.8318 1057.81C101.024 1063.07 147.758 1068.51 192.125 1058.26C238.563 1047.72 260.186 1011.14 276.809 977.681C286.847 957.477 295.296 936.33 304.239 913.935C322.294 868.738 340.972 821.997 373.348 784.829C383.99 772.474 396.048 761.414 409.273 751.877C417.419 746.032 426.002 740.822 434.946 736.293" fill="url(#paint6_linear_68_844)" fill-opacity="0.7"/>
<path d="M1269.79 309.913C1288.78 300.079 1309.86 294.943 1331.25 294.935C1363.88 294.902 1395.45 305.774 1425.97 316.286C1435.38 319.524 1445.1 322.874 1454.57 325.791C1499.5 339.627 1543.53 351.724 1588.18 347.877C1631.18 344.329 1667.92 329.574 1703.45 315.302C1707.45 313.698 1711.58 312.038 1715.61 310.44L1715.85 311.05C1711.82 312.647 1707.69 314.312 1703.69 315.911C1668.12 330.2 1631.34 344.975 1588.23 348.53C1567.62 350.307 1545.35 348.779 1520.16 343.854C1497.12 339.356 1474.13 332.494 1454.39 326.414C1444.9 323.493 1435.18 320.142 1425.77 316.902C1395.29 306.407 1363.78 295.554 1331.25 295.588C1272.79 295.646 1230.71 334.179 1200.57 367.742C1184.39 385.881 1169.58 405.192 1156.25 425.515C1142.1 446.635 1128.61 469.147 1115.56 490.912C1094.02 526.854 1071.75 564.017 1045.39 596.977C1024.97 622.873 1001.03 645.795 974.28 665.079C947.522 684.107 917.937 698.805 886.609 708.632C875.173 712.205 863.186 715.354 850.965 717.998C786.261 731.936 718.454 729.297 652.88 726.736C647.693 726.532 642.379 726.305 637.239 726.095C625.8 725.617 613.974 725.123 602.287 724.774C550.362 723.186 495.805 723.857 448.608 739.378C416.361 749.868 387.048 767.827 363.057 791.792C327.991 826.311 305.919 870.591 284.576 913.417C274.947 932.735 264.991 952.711 254.086 971.184C245.288 986.088 234.725 1003.18 220.68 1017.41C205.89 1032.82 186.944 1043.6 166.144 1048.44C122.234 1058.78 76.1758 1055.14 31.6344 1051.61C19.6871 1050.67 8.39573 1049.78 -2.80791 1049.15L-2.77039 1048.5C8.44586 1049.12 19.7343 1050.02 31.6865 1050.96C76.1709 1054.48 122.177 1058.12 165.991 1047.8C211.111 1037.18 233.971 1003.96 253.52 970.858C264.413 952.404 274.365 932.439 283.987 913.132C305.355 870.26 327.45 825.925 362.595 791.332C373.966 780.03 386.528 769.992 400.061 761.397C415.174 751.875 431.415 744.273 448.408 738.769C470.095 731.64 494.578 727.143 523.257 725.024C551.289 722.952 580.232 723.462 602.314 724.136C614.005 724.486 625.834 724.979 637.273 725.457C642.412 725.672 647.727 725.894 652.913 726.099C718.445 728.651 786.208 731.289 850.825 717.377C863.027 714.736 874.999 711.59 886.409 708.025C948.011 688.647 1001.33 651.149 1044.88 596.577C1071.2 563.654 1093.47 526.508 1115 490.586C1128.05 468.81 1141.54 446.297 1155.7 425.169C1169.05 404.819 1183.88 385.484 1200.08 367.321C1220.52 344.556 1238.62 328.607 1257.04 317.13C1261.28 314.49 1265.53 312.089 1269.79 309.927" fill="url(#paint7_linear_68_844)" fill-opacity="0.7"/>
<path d="M1250.76 314.366C1268.98 304.95 1289.26 300.2 1309.77 300.543C1343.24 301.033 1375.45 313.208 1406.6 324.984C1416.78 328.833 1427.31 332.814 1437.55 336.238C1481.85 351.052 1529.08 365.073 1576.55 359.801C1621.61 354.957 1659.42 337.032 1695.98 319.696C1699.83 317.869 1703.82 315.98 1707.71 314.158L1708.01 314.803C1704.12 316.625 1700.13 318.518 1696.28 320.341C1659.67 337.701 1621.8 355.653 1576.63 360.509C1529.01 365.799 1481.7 351.754 1437.32 336.916C1427.07 333.485 1416.53 329.5 1406.35 325.652C1375.25 313.899 1343.11 301.75 1309.75 301.257C1252.16 300.417 1212.48 338.05 1181.26 374.978C1165.7 393.512 1151.47 413.126 1138.69 433.673C1125.35 454.649 1112.59 476.961 1100.25 498.537C1079.3 535.181 1057.63 573.072 1031.85 606.797C1012.09 633.048 988.822 656.466 962.697 676.395C936.58 696.058 907.505 711.448 876.559 721.988C865.236 725.819 853.356 729.214 841.258 732.094C812.444 738.904 780.464 742.773 743.491 743.923C710.419 744.952 677.516 743.772 643.914 742.359C637.251 742.075 630.422 741.761 623.815 741.454C613.875 740.994 603.597 740.518 593.467 740.136C544.945 738.279 489.071 737.471 439.969 751.539C407.726 760.693 377.825 776.663 352.287 798.371C314.115 830.414 288.387 872.502 263.508 913.206C253.079 930.265 242.297 947.905 230.801 964.438C220.013 979.952 209.164 994.959 195.054 1008.05C179.657 1022.7 160.676 1033.05 140.016 1038.05C96.7723 1048.51 51.536 1046.6 7.78982 1044.76C-4.67873 1044.23 -16.4666 1043.73 -28.1916 1043.52L-28.1759 1042.81C-16.4439 1043.03 -4.65624 1043.53 7.82139 1044.05C51.5188 1045.9 96.7039 1047.8 139.852 1037.36C187.204 1025.9 212.071 990.143 230.222 964.031C241.706 947.516 252.482 929.885 262.904 912.834C287.814 872.082 313.571 829.943 351.834 797.825C363.919 787.596 376.982 778.583 390.835 770.917C406.336 762.398 422.756 755.671 439.777 750.862C488.98 736.766 544.925 737.571 593.499 739.432C603.627 739.814 613.912 740.288 623.853 740.75C630.46 741.062 637.289 741.371 643.949 741.655C715.395 744.655 779.545 745.954 841.104 731.405C853.183 728.535 865.037 725.142 876.34 721.318C936.673 700.759 988.811 662.083 1031.3 606.37C1057.05 572.682 1078.7 534.815 1099.65 498.189C1111.99 476.599 1124.75 454.288 1138.1 433.297C1150.91 412.723 1165.15 393.083 1180.73 374.525C1193.26 359.715 1212.62 338.251 1236.08 322.902C1240.82 319.792 1245.72 316.946 1250.77 314.377" fill="url(#paint8_linear_68_844)" fill-opacity="0.7"/>
<path d="M1231.42 318.951C1248.97 309.903 1268.55 305.497 1288.28 306.153C1322.69 307.173 1355.62 320.658 1387.47 333.706C1398.35 338.16 1409.6 342.766 1420.53 346.692C1464.07 362.33 1514.73 378.452 1564.92 371.728C1612.04 365.575 1650.9 344.445 1688.49 324.011C1692.2 321.99 1696.05 319.899 1699.8 317.88L1700.16 318.557C1696.41 320.576 1692.57 322.665 1688.85 324.686C1651.21 345.156 1612.28 366.32 1565.02 372.49C1514.66 379.237 1463.89 363.079 1420.27 347.416C1409.32 343.486 1398.06 338.875 1387.19 334.415C1355.4 321.397 1322.53 307.936 1288.26 306.922C1231.07 305.225 1192.33 344.031 1161.96 382.208C1147.02 401.134 1133.39 421.051 1121.14 441.822C1108.6 462.614 1096.58 484.681 1084.96 506.024C1064.59 543.413 1043.53 582.075 1018.32 616.61C999.219 643.218 976.617 667.13 951.127 687.702C925.647 708 897.078 724.081 866.506 735.332C855.29 739.426 843.528 743.075 831.548 746.177C802.781 753.589 770.957 757.882 734.259 759.31C699.749 760.651 664.898 759.322 634.934 757.974C626.698 757.6 618.252 757.166 610.086 756.746C601.745 756.317 593.122 755.874 584.637 755.491C533.655 753.14 479.823 751.836 431.318 763.696C398.979 771.464 368.47 785.479 341.507 804.953C299.751 834.599 270.01 874.748 241.254 913.569C230.419 928.196 219.215 943.32 207.514 957.693C196.784 970.874 184.622 985.812 169.436 998.686C153.452 1012.58 134.418 1022.5 113.879 1027.66C71.3364 1038.23 26.9566 1038.01 -15.9646 1037.79C-29.0001 1037.72 -41.3125 1037.66 -53.588 1037.89L-53.6016 1037.12C-41.3165 1036.89 -29.0005 1036.96 -15.9609 1037.02C26.9123 1037.24 71.246 1037.47 113.691 1026.91C159.427 1015.54 185.759 983.198 206.915 957.212C218.605 942.853 229.801 927.739 240.631 913.113C255.03 893.676 269.92 873.575 286.129 855.04C304.314 834.248 322.281 817.658 341.062 804.324C353.839 795.18 367.402 787.184 381.59 780.431C397.462 772.926 414.063 767.069 431.13 762.95C479.732 751.066 533.629 752.369 584.666 754.723C593.152 755.108 601.779 755.55 610.119 755.978C618.286 756.397 626.732 756.83 634.967 757.205C702.565 760.249 768.451 761.636 831.35 745.432C843.307 742.336 855.044 738.694 866.236 734.609C926.141 712.587 975.683 673.842 1017.69 616.16C1042.87 581.667 1063.91 543.027 1084.27 505.661C1095.9 484.312 1107.93 462.235 1120.47 441.432C1132.73 420.631 1146.39 400.686 1161.35 381.735C1174.53 365.161 1192.55 344.154 1215.08 328.691C1220.3 325.089 1225.76 321.838 1231.41 318.958" fill="url(#paint9_linear_68_844)" fill-opacity="0.7"/>
<path d="M1211.74 323.711C1228.73 314.972 1247.72 310.852 1266.81 311.764C1302.19 313.323 1335.92 328.124 1368.53 342.441C1380.05 347.496 1391.95 352.723 1403.51 357.132C1448.29 374.254 1500.49 391.836 1553.29 383.643C1602.47 376.17 1642.38 351.803 1680.98 328.241C1684.57 326.047 1688.28 323.782 1691.9 321.592L1692.33 322.297C1688.71 324.482 1685 326.751 1681.41 328.946C1662.39 340.553 1642.73 352.552 1621.66 362.592C1597.82 373.952 1575.49 381.107 1553.42 384.46C1529.93 388.104 1504.81 386.946 1476.62 380.922C1450.24 375.289 1424.71 366.124 1403.21 357.904C1391.64 353.485 1379.72 348.247 1368.2 343.189C1335.65 328.905 1302 314.133 1266.76 312.584C1209.87 310.077 1172.1 350.025 1142.66 389.434C1128.34 408.748 1115.29 428.969 1103.59 449.968C1091.86 470.525 1080.58 492.304 1069.66 513.36C1049.88 551.543 1029.43 591.026 1004.78 626.421C986.331 653.388 964.397 677.795 939.546 699.006C914.71 719.933 886.651 736.704 856.458 748.667C845.355 753.024 833.708 756.922 821.841 760.253C793.138 768.27 761.475 772.99 725.029 774.69C691.107 776.272 657.365 775.092 625.955 773.583C616.013 773.1 605.82 772.521 595.964 771.961C589.354 771.584 582.518 771.196 575.801 770.84C522.34 767.952 470.402 766.166 422.661 775.849C390.181 782.34 359.073 794.413 330.718 811.532C284.735 838.841 251.979 875.624 217.303 914.574C206.615 926.58 195.562 938.993 184.206 950.952L182.938 952.292C159.062 977.448 131.999 1005.96 87.7352 1017.26C45.9495 1027.94 2.47242 1029.34 -39.5747 1030.68C-53.2207 1031.12 -66.1092 1031.54 -78.9882 1032.25L-79.0336 1031.43C-66.1497 1030.72 -53.2523 1030.3 -39.6013 1029.86C2.40061 1028.51 45.8331 1027.12 87.5306 1016.47C131.563 1005.22 158.539 976.796 182.339 951.72L183.607 950.381C194.953 938.432 206.001 926.022 216.685 914.022C233.325 895.332 250.531 876.006 268.924 858.396C289.528 838.667 309.603 823.106 330.294 810.819C343.746 802.773 357.808 795.793 372.352 789.945C388.575 783.461 405.357 778.472 422.488 775.039C470.324 765.338 522.32 767.127 575.835 770.014C582.554 770.371 589.389 770.759 596 771.135C605.855 771.696 616.045 772.276 625.983 772.756C689.869 775.829 757.6 777.333 821.608 759.456C833.449 756.133 845.068 752.244 856.144 747.897C914.805 724.735 963.199 684.844 1004.11 625.947C1028.72 590.599 1049.16 551.14 1068.93 512.981C1079.84 491.915 1091.13 470.13 1102.87 449.562C1114.59 428.532 1127.66 408.282 1142 388.94C1160.87 363.67 1183.17 338.177 1211.73 323.704" fill="url(#paint10_linear_68_844)" fill-opacity="0.7"/>
<path d="M1191.98 328.488C1208.43 320.047 1226.86 316.21 1245.32 317.38C1281.73 319.494 1316.29 335.609 1349.7 351.199C1361.82 356.848 1374.34 362.692 1386.48 367.595C1435.91 387.575 1488.92 404.794 1541.66 395.579C1592.89 386.774 1633.85 359.149 1673.45 332.423C1676.91 330.085 1680.5 327.665 1684 325.324L1684.49 326.055C1680.99 328.395 1677.41 330.814 1673.94 333.154C1654.45 346.306 1634.29 359.906 1612.56 371.337C1587.96 384.281 1564.82 392.494 1541.8 396.45C1488.85 405.702 1435.7 388.442 1386.15 368.413C1373.99 363.497 1361.45 357.648 1349.33 351.994C1315.99 336.441 1281.51 320.358 1245.26 318.257C1188.56 314.97 1151.82 356.048 1123.35 396.671C1109.66 416.372 1097.2 436.896 1086.03 458.127C1075.11 478.396 1064.57 499.823 1054.38 520.544C1035.19 559.576 1015.34 599.935 991.251 636.24C973.458 663.568 952.189 688.47 927.979 710.318C903.787 731.874 876.237 749.335 846.417 762.013C835.213 766.713 823.773 770.827 812.142 774.339C783.528 782.959 752.018 788.108 715.806 790.081C680.976 791.978 646.305 790.7 616.983 789.2C605.204 788.593 593.141 787.833 581.475 787.099C576.639 786.794 571.806 786.493 566.975 786.195C510.92 782.727 460.72 780.468 414.012 788.007C381.31 793.225 349.589 803.377 319.934 818.117C268.846 843.089 231.04 878.64 191.006 916.283C181.241 925.464 171.145 934.959 160.91 944.216C159.728 945.28 158.543 946.354 157.353 947.439C132.396 970.074 104.119 995.724 61.6055 1006.88C20.6511 1017.62 -21.8443 1020.58 -62.9454 1023.43C-77.2811 1024.42 -90.8159 1025.37 -104.375 1026.62L-104.457 1025.75C-90.8894 1024.49 -77.3461 1023.55 -63.0106 1022.55C-21.9526 1019.7 20.4976 1016.75 61.3777 1006.03C103.683 994.929 131.881 969.353 156.759 946.789C157.953 945.706 159.139 944.632 160.316 943.566C170.543 934.314 180.637 924.823 190.398 915.643C209.662 897.528 229.589 878.793 250.539 861.988C273.973 843.183 296.546 828.578 319.543 817.334C349.276 802.553 381.081 792.372 413.871 787.14C460.669 779.586 510.919 781.846 567.029 785.318C571.857 785.612 576.69 785.913 581.529 786.221C593.193 786.954 605.251 787.715 617.027 788.32C677.263 791.404 746.964 793.053 811.886 773.496C823.487 769.994 834.898 765.891 846.073 761.203C903.466 736.912 950.713 695.875 990.515 635.753C1014.57 599.498 1034.41 559.163 1053.59 520.155C1063.79 499.426 1074.33 477.991 1085.26 457.711C1096.44 436.449 1108.93 415.895 1122.63 396.165C1141.17 369.712 1163.22 343.062 1191.98 328.488Z" fill="url(#paint11_linear_68_844)" fill-opacity="0.7"/>
<path d="M1172.03 333.329C1176.08 331.272 1180.26 329.492 1184.54 328.002C1197.17 323.679 1210.54 321.975 1223.84 322.995C1261.16 325.66 1296.43 343.017 1330.55 359.801C1343.96 366.397 1356.62 372.628 1369.46 378.054C1417.67 398.639 1474.45 418.236 1530.03 407.515C1583.32 397.369 1625.29 366.451 1665.9 336.548C1669.25 334.08 1672.71 331.526 1676.09 329.057L1676.65 329.811C1673.27 332.281 1669.8 334.833 1666.45 337.3C1646.49 352.008 1625.84 367.215 1603.46 380.052C1578.1 394.592 1554.14 403.876 1530.21 408.434C1504.8 413.334 1477.78 412.437 1447.58 405.687C1418.27 399.141 1390.24 387.939 1369.1 378.91C1356.23 373.475 1343.56 367.238 1330.14 360.634C1296.11 343.893 1260.91 326.574 1223.77 323.923C1167.17 319.883 1131.5 362.083 1104.06 403.897C1091 423.981 1079.12 444.809 1068.49 466.274C1058.36 486.197 1048.58 507.211 1039.11 527.535C1020.5 567.476 1001.26 608.777 977.718 646.05C938.941 707.586 892.706 749.882 836.379 775.358C825.311 780.321 813.984 784.683 802.446 788.424C739.768 808.703 671.957 808.289 608.014 804.818C594.246 804.066 580.176 803.086 566.57 802.138L558.153 801.552C507.057 797.989 454.217 794.293 405.366 800.168C372.368 804.157 340.026 812.402 309.146 824.698C251.764 847.28 207.879 882 161.417 918.758C153.664 924.893 145.647 931.235 137.613 937.477C135.517 939.107 133.406 940.754 131.281 942.42C105.456 962.624 76.1837 985.525 35.4807 996.487C-4.53003 1007.26 -45.9341 1011.69 -85.9748 1015.98C-100.442 1017.53 -115.402 1019.13 -129.752 1020.99L-129.873 1020.06C-115.512 1018.2 -100.547 1016.6 -86.0755 1015.05C-46.0682 1010.77 -4.70376 1006.34 35.2349 995.585C75.7538 984.672 104.945 961.83 130.703 941.685C132.833 940.024 134.943 938.374 137.034 936.734C145.066 930.494 153.08 924.153 160.832 918.019C198.591 888.146 234.656 859.614 277.654 837.827C287.628 832.773 297.971 828.083 308.799 823.821C339.752 811.494 372.17 803.227 405.246 799.226C454.186 793.341 507.069 797.035 558.211 800.606L566.629 801.191C580.233 802.14 594.297 803.118 608.058 803.87C671.912 807.336 739.62 807.754 802.152 787.52C813.656 783.79 824.95 779.441 835.985 774.493C892.137 749.102 938.244 706.921 976.922 645.544C1000.43 608.321 1019.66 567.046 1038.26 527.133C1047.73 506.8 1057.52 485.777 1067.64 465.845C1078.29 444.348 1090.19 423.49 1103.27 403.376C1115.1 385.355 1131.34 362.551 1152.14 346.123C1158.33 341.205 1164.98 336.916 1172.02 333.319" fill="url(#paint12_linear_68_844)" fill-opacity="0.7"/>
<path d="M1151.91 338.245C1167.47 330.311 1184.97 326.967 1202.36 328.605C1240.78 331.849 1276.97 350.53 1311.97 368.595C1325.92 375.798 1339.1 382.601 1352.44 388.504C1402.02 410.617 1460.5 431.59 1518.4 419.441C1573.75 407.95 1616.75 373.714 1658.34 340.61C1661.58 338.031 1664.92 335.368 1668.19 332.782L1668.81 333.56C1665.54 336.142 1662.19 338.808 1658.95 341.386C1638.52 357.657 1617.38 374.479 1594.35 388.734C1568.25 404.885 1543.47 415.247 1518.6 420.41C1492.27 425.938 1464.29 425.164 1433.07 418.047C1402.55 411.09 1373.73 399.089 1352.04 389.411C1338.67 383.497 1325.48 376.686 1311.51 369.477C1276.6 351.454 1240.5 332.819 1202.28 329.592C1145.72 324.819 1111.13 368.13 1084.76 411.125C1072.34 431.589 1061.04 452.721 1050.94 474.425C1041.63 493.928 1032.59 514.462 1023.84 534.319C1005.82 575.239 987.192 617.551 964.193 655.871C926.554 718.691 881.462 762.147 826.34 788.703C815.41 793.93 804.195 798.539 792.749 802.509C764.344 812.343 733.149 818.343 697.365 820.864C669.12 822.851 638.796 822.718 599.042 820.437C583.112 819.517 566.874 818.263 551.175 817.054L542.391 816.37C493.704 812.563 443.357 808.627 396.713 812.33C363.329 815.003 330.343 821.361 298.357 831.289C233.081 851.31 181.671 885.71 127.235 922.116C122.948 924.986 118.641 927.865 114.315 930.755C111.09 932.912 107.765 935.148 104.552 937.316C78.1042 955.165 48.1276 975.395 9.35685 986.112C-29.5243 996.859 -69.6456 1002.66 -108.446 1008.28C-123.859 1010.51 -139.798 1012.82 -155.125 1015.37L-155.288 1014.4C-139.95 1011.84 -124.009 1009.53 -108.587 1007.3C-69.817 1001.69 -29.7262 995.893 9.09313 985.162C47.7063 974.485 77.6129 954.306 103.997 936.499C107.21 934.331 110.533 932.087 113.763 929.935C118.092 927.05 122.398 924.171 126.682 921.297C160.834 898.451 193.804 876.396 229.758 858.177C251.683 846.951 274.536 837.639 298.064 830.347C330.119 820.395 363.176 814.02 396.632 811.338C443.356 807.631 493.74 811.569 542.467 815.378L551.249 816.062C566.946 817.273 583.176 818.533 599.098 819.443C659.204 822.892 729.178 823.466 792.424 801.568C803.835 797.61 815.015 793.015 825.911 787.805C880.855 761.336 925.81 718.013 963.344 655.357C986.311 617.101 1004.93 574.814 1022.94 533.922C1031.69 514.057 1040.73 493.516 1050.05 474.001C1060.17 452.264 1071.48 431.101 1083.92 410.607C1101.55 381.859 1122.85 352.973 1151.91 338.245" fill="url(#paint13_linear_68_844)" fill-opacity="0.7"/>
<path d="M1131.62 343.208C1146.82 335.492 1163.93 332.367 1180.88 334.217C1220.42 338.058 1257.54 358.061 1293.43 377.409C1307.91 385.213 1321.58 392.583 1335.42 398.959C1386.37 422.61 1446.57 444.956 1506.77 431.369C1564.18 418.516 1608.19 380.952 1650.76 344.624C1653.89 341.952 1657.13 339.189 1660.29 336.509L1660.96 337.308C1657.8 339.987 1654.57 342.75 1651.44 345.422C1630.53 363.266 1608.91 381.717 1585.23 397.397C1558.38 415.171 1532.79 426.621 1506.99 432.394C1446.49 446.049 1386.09 423.637 1334.98 399.913C1321.11 393.522 1307.43 386.143 1292.94 378.34C1257.13 359.041 1220.11 339.082 1180.78 335.268C1124.19 329.781 1090.73 374.19 1065.46 418.358C1053.67 439.199 1042.96 460.635 1033.39 482.581C1024.88 501.589 1016.59 521.559 1008.57 540.872C991.152 582.846 973.129 626.254 950.656 665.685C914.178 729.819 870.227 774.422 816.293 802.045C805.501 807.533 794.399 812.39 783.043 816.591C754.758 827.033 723.713 833.464 688.133 836.25C659.949 838.457 628.785 838.393 590.06 836.05C573.451 835.041 556.465 833.626 540.489 832.264C535.119 831.803 529.748 831.336 524.377 830.862C478.985 826.889 432.048 822.779 388.043 824.478C354.201 825.799 320.556 830.28 287.548 837.863C212.266 854.969 150.615 890.064 90.9915 924.008C86.2261 926.721 81.5314 929.453 76.5666 932.344C48.622 948.611 19.7264 965.433 -16.7821 975.71C-54.1652 986.389 -92.6624 993.388 -129.893 1000.16C-146.594 1003.19 -163.864 1006.33 -180.516 1009.72L-180.725 1008.7C-164.061 1005.31 -146.787 1002.16 -130.08 999.126C-92.8751 992.363 -54.4036 985.369 -17.0676 974.702C19.3131 964.459 48.1519 947.673 76.0396 931.438C81.0113 928.544 85.7079 925.808 90.4776 923.093C150.166 889.115 211.888 853.977 287.32 836.838C320.391 829.241 354.1 824.751 388.006 823.428C432.075 821.722 479.045 825.833 524.47 829.811C529.839 830.281 535.209 830.748 540.58 831.213C556.549 832.575 573.531 833.985 590.125 834.996C649.614 838.596 719.011 839.106 782.682 815.599C793.999 811.414 805.063 806.573 815.818 801.102C869.564 773.577 913.366 729.111 949.748 665.157C972.188 625.783 990.194 582.408 1007.61 540.461C1015.63 521.141 1023.92 501.17 1032.44 482.143C1042.03 460.165 1052.75 438.697 1064.56 417.826C1081.64 387.961 1102.47 357.984 1131.63 343.205" fill="url(#paint14_linear_68_844)" fill-opacity="0.7"/>
<path d="M-206.154 1003.02C-187.634 998.563 -168.493 994.359 -149.978 990.293C-114.869 982.584 -78.5633 974.609 -43.2218 964.258C-9.36727 954.471 19.2197 940.167 46.8652 926.333C53.8695 922.827 60.4903 919.514 67.2019 916.27C98.5586 901.106 132.509 885.252 168.298 872.027C203.328 858.825 239.609 849.215 276.582 843.346C310.594 838.062 344.967 835.446 379.386 835.522C420.205 835.593 463.229 839.813 504.827 843.898C513.653 844.764 522.78 845.661 531.768 846.503C547.366 847.961 564.146 849.46 581.161 850.548C636.645 854.078 708.585 854.893 772.947 829.628C784.173 825.216 795.122 820.129 805.734 814.396C858.307 785.839 900.968 740.222 936.16 674.952C958.078 634.374 975.468 589.816 992.287 546.723C999.579 528.04 1007.12 508.718 1014.83 490.285C1025.34 464.953 1035.27 443.615 1045.2 425.049C1055.51 405.681 1069.83 381.197 1089.2 363.649C1098.23 355.268 1108.78 348.701 1120.28 344.308C1132.8 339.789 1146.19 338.253 1159.4 339.823C1200.07 344.267 1238.14 365.602 1274.96 386.232C1289.94 394.629 1304.1 402.561 1318.4 409.407C1370.74 434.593 1432.66 458.317 1495.14 443.291C1554.61 429.075 1599.63 388.16 1643.17 348.587C1646.26 345.78 1649.33 342.994 1652.38 340.229L1653.12 341.047C1650.07 343.807 1646.99 346.593 1643.91 349.405C1622.53 368.829 1600.43 388.914 1576.11 406.025C1548.52 425.434 1522.11 437.975 1495.39 444.362C1467.19 451.145 1437.3 450.615 1404.04 442.756C1370.77 434.896 1338.95 420.524 1317.92 410.4C1303.59 403.544 1289.42 395.599 1274.42 387.193C1237.7 366.616 1199.73 345.339 1159.28 340.918C1102.61 334.725 1070.3 380.233 1046.17 425.566C1036.26 444.103 1026.35 465.412 1015.84 490.711C1008.14 509.132 1000.6 528.447 993.311 547.126C976.482 590.25 959.079 634.841 937.129 675.478C920.18 706.908 902.053 733.093 881.708 755.528C870.985 767.389 859.333 778.377 846.864 788.387C834.148 798.556 820.559 807.584 806.257 815.367C795.604 821.119 784.614 826.222 773.346 830.649C745.192 841.701 714.301 848.56 678.911 851.615C650.464 854.072 619.379 854.081 581.085 851.644C564.058 850.555 547.267 849.056 531.66 847.598C522.674 846.748 513.549 845.856 504.719 844.992C463.145 840.91 420.154 836.689 379.383 836.62C345.02 836.543 310.703 839.153 276.746 844.427C197.548 856.637 130.038 887.1 67.6764 917.251C60.9683 920.495 54.3544 923.805 47.3537 927.307C19.6638 941.163 -8.96627 955.496 -42.9179 965.305C-78.2969 975.661 -114.62 983.638 -149.748 991.353C-168.255 995.417 -187.388 999.62 -205.901 1004.07L-206.154 1003.02Z" fill="url(#paint15_linear_68_844)" fill-opacity="0.7"/>
<path d="M-231.584 997.338C-209.845 991.305 -187.443 985.545 -165.778 979.975C-134.107 971.833 -101.359 963.412 -69.3734 953.823C-38.878 944.77 -11.5461 933.045 14.8855 921.707C24.8885 917.415 34.3373 913.361 43.9294 909.456C86.0524 892.294 119.272 880.542 151.636 871.335C188.929 860.527 227.175 853.335 265.847 849.861C300.737 846.85 335.786 846.105 370.773 847.631C407.522 849.166 445.814 853.399 482.845 857.493C495.982 858.946 509.567 860.447 522.948 861.814C536.407 863.186 554.164 864.911 572.187 866.119C627.191 869.793 698.611 870.563 763.203 843.675C774.338 839.036 785.171 833.704 795.639 827.71C847.055 798.131 888.574 751.375 922.564 684.768C943.971 642.884 960.738 597.034 976.946 552.697C983.509 534.748 990.296 516.19 997.209 498.444C1007.21 472.611 1016.57 450.967 1025.83 432.281C1035.6 412.487 1049.26 387.466 1068.21 369.5C1077 360.934 1087.42 354.22 1098.85 349.755C1111.33 345.17 1124.74 343.689 1137.92 345.437C1179.73 350.504 1218.76 373.165 1256.52 395.078C1271.99 404.063 1286.61 412.55 1301.38 419.863C1355.11 446.589 1418.76 471.691 1483.5 455.222C1545.04 439.635 1593.13 393.356 1635.56 352.524C1638.55 349.648 1641.52 346.795 1644.47 343.963L1645.27 344.799C1642.32 347.629 1639.35 350.482 1636.37 353.359C1614.53 374.37 1591.95 396.096 1566.99 414.649C1538.65 435.702 1511.44 449.341 1483.78 456.345C1454.65 463.756 1423.82 463.354 1389.52 455.116C1355.07 446.843 1322.42 431.626 1300.86 420.902C1286.06 413.572 1271.43 405.075 1255.93 396.085C1218.29 374.231 1179.36 351.632 1137.78 346.59C1080.96 339.706 1049.83 386.301 1026.87 432.789C1017.63 451.445 1008.28 473.057 998.3 498.855C991.395 516.588 984.616 535.139 978.05 553.084C961.823 597.457 945.044 643.339 923.605 685.286C907.278 717.278 889.794 743.952 870.149 766.83C859.738 778.997 848.371 790.313 836.158 800.67C823.708 811.189 810.342 820.574 796.221 828.714C785.711 834.732 774.834 840.086 763.654 844.743C735.638 856.405 704.904 863.69 669.691 867.016C641.031 869.724 610.025 869.805 572.113 867.273C554.072 866.064 536.299 864.332 522.832 862.964C509.443 861.595 495.858 860.094 482.718 858.641C445.706 854.55 407.433 850.319 370.725 848.786C335.789 847.262 300.79 848.006 265.949 851.013C181.659 858.334 109.64 883.942 44.3689 910.526C34.7873 914.428 25.3428 918.48 15.3453 922.768C-11.1176 934.121 -38.485 945.862 -69.04 954.931C-101.045 964.526 -133.808 972.95 -165.488 981.095C-187.147 986.667 -209.546 992.422 -231.272 998.452L-231.584 997.338Z" fill="url(#paint16_linear_68_844)" fill-opacity="0.7"/>
<path d="M-257.019 991.658C-227.528 982.385 -197.235 973.512 -167.939 964.929C-144.179 957.969 -119.609 950.772 -95.5293 943.38C-70.358 935.708 -46.5026 926.928 -23.4326 918.438C-8.25109 912.85 6.09209 907.569 20.6561 902.635C62.5058 888.449 99.902 877.991 134.972 870.647C174.496 862.218 214.711 857.439 255.11 856.372C290.826 855.583 326.558 856.704 362.154 859.729C393.61 862.301 426.059 866.362 457.438 870.289C476.001 872.614 495.196 875.018 514.136 877.114C533.258 879.22 548.856 880.67 563.224 881.677C617.793 885.494 688.728 886.229 753.468 857.713C764.513 852.848 775.231 847.27 785.553 841.016C835.84 810.435 876.212 762.534 908.975 694.577C929.88 651.267 946.013 604.002 961.619 558.301C967.454 541.207 973.487 523.529 979.602 506.599C989.212 479.868 997.748 458.55 1006.47 439.514C1015.7 419.304 1028.68 393.748 1047.22 375.371C1055.78 366.625 1066.07 359.762 1077.43 355.222C1089.88 350.569 1103.3 349.137 1116.45 351.06C1159.41 356.764 1199.43 380.751 1238.12 403.946C1254.09 413.514 1269.16 422.552 1284.37 430.327C1336.28 456.941 1404.5 485.182 1471.88 467.159C1535.48 450.197 1584.62 400.378 1627.96 356.427C1630.85 353.498 1633.73 350.589 1636.59 347.7L1637.45 348.557C1634.59 351.442 1631.72 354.35 1628.83 357.282C1606.54 379.886 1583.49 403.264 1557.88 423.262C1528.8 445.968 1500.78 460.711 1472.2 468.334C1456.23 472.55 1439.75 474.488 1423.24 474.09C1406.98 473.643 1390.81 471.428 1375.02 467.485C1347.91 460.874 1318.92 449.411 1283.82 431.409C1268.58 423.62 1253.48 414.567 1237.5 404.988C1198.91 381.856 1159.01 357.936 1116.3 352.264C1059.3 344.692 1029.35 392.376 1007.58 440.018C998.874 459.024 990.35 480.312 980.752 507.01C974.639 523.935 968.608 541.605 962.774 558.693C947.156 604.427 931.011 651.729 910.07 695.108C894.371 727.671 877.527 754.832 858.578 778.143C848.478 790.615 837.397 802.259 825.441 812.963C813.259 823.825 800.12 833.562 786.183 842.056C775.816 848.338 765.051 853.94 753.958 858.828C726.089 871.1 695.508 878.814 660.463 882.411C632.025 885.329 600.188 885.488 563.133 882.895C548.748 881.886 533.13 880.437 513.997 878.326C495.049 876.232 475.85 873.829 457.285 871.508C425.924 867.581 393.494 863.519 362.057 860.951C326.504 857.93 290.815 856.81 255.142 857.598C182.223 859.388 110.024 873.636 21.0483 903.797C6.49319 908.733 -7.83818 914.006 -23.0107 919.59C-46.0965 928.087 -69.9694 936.874 -95.1711 944.555C-119.257 951.947 -143.83 959.146 -167.595 966.107C-196.884 974.688 -227.171 983.561 -256.652 992.83L-257.019 991.658Z" fill="url(#paint17_linear_68_844)" fill-opacity="0.7"/>
<path d="M-282.453 985.98C-235.78 969.585 -184.695 952.731 -121.684 932.94C-108.422 928.791 -95.1923 924.517 -82.399 920.383C-54.9556 911.52 -29.0346 903.147 -2.61612 895.816C88.0977 870.65 166.581 860.186 244.374 862.885C276.342 863.899 311.029 866.742 353.538 871.828C377.387 874.76 401.755 878.244 425.329 881.617C451.501 885.361 478.564 889.233 505.312 892.408C523.968 894.62 539.517 896.152 554.248 897.232C604.187 900.886 678.16 902.22 743.719 871.747C754.675 866.654 765.277 860.831 775.453 854.316C825.318 822.311 863.423 774.667 895.377 704.379C915.788 659.507 931.279 610.691 946.261 563.483C951.371 547.382 956.655 530.733 961.985 514.744C971.066 487.435 979.045 465.825 987.098 446.737C995.787 426.125 1008.08 400.041 1026.22 381.228C1034.54 372.304 1044.7 365.292 1055.99 360.674C1068.41 355.955 1081.85 354.573 1094.97 356.666C1139.08 363.025 1180.08 388.335 1219.74 412.81C1236.17 422.957 1251.69 432.537 1267.34 440.774C1320.57 468.842 1390.6 498.562 1460.24 479.08C1525.9 460.737 1576.07 407.369 1620.33 360.282C1623.13 357.309 1625.91 354.356 1628.68 351.42L1629.6 352.293C1626.83 355.223 1624.05 358.177 1621.26 361.153C1598.51 385.355 1574.98 410.383 1548.74 431.841C1518.93 456.207 1490.09 472.061 1460.58 480.305C1444.17 484.846 1427.18 486.977 1410.15 486.633C1393.4 486.231 1376.74 483.951 1360.5 479.834C1332.49 472.913 1302.7 460.859 1266.75 441.899C1251.06 433.64 1235.52 424.048 1219.07 413.892C1179.53 389.485 1138.64 364.243 1094.78 357.923C1068.59 354.147 1046.46 362.065 1027.13 382.115C1009.14 400.777 996.91 426.719 988.267 447.234C980.23 466.295 972.259 487.873 963.189 515.149C957.865 531.127 952.58 547.773 947.472 563.87C932.478 611.113 916.975 659.966 896.532 704.909C881.467 738.049 865.267 765.699 847.004 789.438C826.077 816.642 802.897 838.214 776.139 855.389C765.915 861.935 755.263 867.786 744.255 872.903C716.539 885.787 686.113 893.927 651.239 897.793C622.661 900.961 590.903 901.193 554.155 898.504C539.405 897.424 523.838 895.89 505.162 893.674C478.403 890.502 451.326 886.619 425.15 882.88C401.586 879.509 377.22 876.023 353.385 873.092C310.917 868.01 276.264 865.17 244.332 864.157C166.67 861.462 88.3102 871.912 -2.27649 897.044C-28.6706 904.367 -54.5765 912.739 -82.0102 921.595C-94.807 925.728 -108.039 930.003 -121.308 934.156C-184.308 953.944 -235.378 970.792 -282.038 987.183L-282.453 985.98Z" fill="url(#paint18_linear_68_844)" fill-opacity="0.7"/>
<path d="M-307.885 980.305C-271.692 966.258 -223.987 948.047 -175.936 931.779C-127.736 915.458 -84.2735 902.761 -43.0444 892.951C1.64105 882.113 47.041 874.468 92.8114 870.073C139.639 865.592 186.778 865.368 233.646 869.405C285.5 873.914 337.614 882.621 388.013 891.039C423.504 896.968 460.203 903.098 496.503 907.712C572.161 917.328 659.54 922.243 733.981 885.789C855.079 826.489 893.62 695.178 930.897 568.187C942.774 527.726 953.991 489.509 967.738 453.973C975.867 432.958 987.473 406.364 1005.22 387.102C1013.31 378.004 1023.33 370.841 1034.56 366.143C1046.95 361.355 1060.4 360.02 1073.49 362.278C1118.76 369.304 1160.76 395.939 1201.39 421.697C1218.28 432.412 1234.25 442.531 1250.32 451.23C1304.88 480.752 1376.72 511.953 1448.61 491.011C1516.33 471.282 1567.53 414.347 1612.7 364.115C1615.41 361.108 1618.09 358.119 1620.77 355.147L1621.76 356.042C1619.08 359.009 1616.39 361.997 1613.69 365.008C1590.49 390.814 1566.49 417.499 1539.61 440.419C1509.07 466.455 1479.43 483.423 1448.98 492.291C1432.12 497.155 1414.62 499.48 1397.07 499.189C1379.83 498.833 1362.69 496.487 1345.99 492.198C1317.1 484.965 1286.5 472.323 1249.69 452.404C1233.58 443.684 1217.6 433.551 1200.68 422.823C1160.17 397.138 1118.29 370.58 1073.29 363.596C1047.03 359.52 1025.08 367.504 1006.2 388.006C988.604 407.104 977.065 433.55 968.974 454.449C955.248 489.934 944.037 528.125 932.169 568.558C913.791 631.17 894.783 695.91 865.204 752.379C849.215 782.905 831.68 808.193 811.601 829.688C800.838 841.236 789.086 851.82 776.477 861.319C763.341 871.168 749.307 879.757 734.56 886.972C700.767 903.521 662.455 912.787 617.445 915.293C573.255 917.757 529.506 913.233 496.329 909.017C460.003 904.4 423.293 898.27 387.787 892.337C337.414 883.923 285.324 875.221 233.523 870.717C40.8165 853.957 -132.312 913.571 -307.41 981.532L-307.885 980.305Z" fill="url(#paint19_linear_68_844)" fill-opacity="0.7"/>
</g>
</g>
<defs>
<linearGradient id="paint0_linear_68_844" x1="1022.1" y1="783.524" x2="864.673" y2="472.85" gradientUnits="userSpaceOnUse">
<stop stop-color="#FEDC00"/>
<stop offset="1" stop-color="#373737"/>
</linearGradient>
<linearGradient id="paint1_linear_68_844" x1="999.716" y1="771.218" x2="855.159" y2="485.935" gradientUnits="userSpaceOnUse">
<stop stop-color="#FEDC00"/>
<stop offset="1" stop-color="#373737"/>
</linearGradient>
<linearGradient id="paint2_linear_68_844" x1="977.328" y1="758.959" x2="845.524" y2="498.844" gradientUnits="userSpaceOnUse">
<stop stop-color="#FEDC00"/>
<stop offset="1" stop-color="#373737"/>
</linearGradient>
<linearGradient id="paint3_linear_68_844" x1="954.973" y1="746.71" x2="835.823" y2="511.57" gradientUnits="userSpaceOnUse">
<stop stop-color="#FEDC00"/>
<stop offset="1" stop-color="#373737"/>
</linearGradient>
<linearGradient id="paint4_linear_68_844" x1="932.603" y1="734.444" x2="826.009" y2="524.082" gradientUnits="userSpaceOnUse">
<stop stop-color="#FEDC00"/>
<stop offset="1" stop-color="#373737"/>
</linearGradient>
<linearGradient id="paint5_linear_68_844" x1="910.204" y1="722.174" x2="816.05" y2="536.362" gradientUnits="userSpaceOnUse">
<stop stop-color="#FEDC00"/>
<stop offset="1" stop-color="#373737"/>
</linearGradient>
<linearGradient id="paint6_linear_68_844" x1="896.25" y1="726.564" x2="805.924" y2="548.307" gradientUnits="userSpaceOnUse">
<stop stop-color="#FEDC00"/>
<stop offset="1" stop-color="#373737"/>
</linearGradient>
<linearGradient id="paint7_linear_68_844" x1="883.314" y1="732.91" x2="791.721" y2="552.152" gradientUnits="userSpaceOnUse">
<stop stop-color="#FEDC00"/>
<stop offset="1" stop-color="#373737"/>
</linearGradient>
<linearGradient id="paint8_linear_68_844" x1="870.369" y1="739.249" x2="776.773" y2="554.539" gradientUnits="userSpaceOnUse">
<stop stop-color="#FEDC00"/>
<stop offset="1" stop-color="#373737"/>
</linearGradient>
<linearGradient id="paint9_linear_68_844" x1="857.89" y1="746.509" x2="761.816" y2="556.907" gradientUnits="userSpaceOnUse">
<stop stop-color="#FEDC00"/>
<stop offset="1" stop-color="#373737"/>
</linearGradient>
<linearGradient id="paint10_linear_68_844" x1="846.347" y1="755.577" x2="746.869" y2="559.258" gradientUnits="userSpaceOnUse">
<stop stop-color="#FEDC00"/>
<stop offset="1" stop-color="#373737"/>
</linearGradient>
<linearGradient id="paint11_linear_68_844" x1="836.415" y1="767.83" x2="731.919" y2="561.608" gradientUnits="userSpaceOnUse">
<stop stop-color="#FEDC00"/>
<stop offset="1" stop-color="#373737"/>
</linearGradient>
<linearGradient id="paint12_linear_68_844" x1="826.736" y1="780.565" x2="716.952" y2="563.908" gradientUnits="userSpaceOnUse">
<stop stop-color="#FEDC00"/>
<stop offset="1" stop-color="#373737"/>
</linearGradient>
<linearGradient id="paint13_linear_68_844" x1="817.126" y1="793.437" x2="701.993" y2="566.224" gradientUnits="userSpaceOnUse">
<stop stop-color="#FEDC00"/>
<stop offset="1" stop-color="#373737"/>
</linearGradient>
<linearGradient id="paint14_linear_68_844" x1="807.587" y1="806.456" x2="687.011" y2="568.5" gradientUnits="userSpaceOnUse">
<stop stop-color="#FEDC00"/>
<stop offset="1" stop-color="#373737"/>
</linearGradient>
<linearGradient id="paint15_linear_68_844" x1="798.12" y1="819.605" x2="666.893" y2="560.631" gradientUnits="userSpaceOnUse">
<stop stop-color="#FEDC00"/>
<stop offset="1" stop-color="#373737"/>
</linearGradient>
<linearGradient id="paint16_linear_68_844" x1="788.736" y1="832.929" x2="646.568" y2="552.363" gradientUnits="userSpaceOnUse">
<stop stop-color="#FEDC00"/>
<stop offset="1" stop-color="#373737"/>
</linearGradient>
<linearGradient id="paint17_linear_68_844" x1="779.424" y1="846.382" x2="626.248" y2="544.091" gradientUnits="userSpaceOnUse">
<stop stop-color="#FEDC00"/>
<stop offset="1" stop-color="#373737"/>
</linearGradient>
<linearGradient id="paint18_linear_68_844" x1="770.164" y1="859.949" x2="605.924" y2="535.824" gradientUnits="userSpaceOnUse">
<stop stop-color="#FEDC00"/>
<stop offset="1" stop-color="#373737"/>
</linearGradient>
<linearGradient id="paint19_linear_68_844" x1="760.966" y1="873.621" x2="585.609" y2="527.556" gradientUnits="userSpaceOnUse">
<stop stop-color="#FEDC00"/>
<stop offset="1" stop-color="#373737"/>
</linearGradient>
</defs>
</svg>
