<svg width="100" height="100" viewBox="0 0 100 100" fill="none" xmlns="http://www.w3.org/2000/svg">
<rect width="100" height="100" rx="24" fill="#DCA629"/>
<path d="M73.2508 38.9502H59.3008C58.3258 38.9502 57.5508 38.1752 57.5508 37.2002C57.5508 36.2252 58.3258 35.4502 59.3008 35.4502H73.2508C74.2258 35.4502 75.0008 36.2252 75.0008 37.2002C75.0008 38.1752 74.2258 38.9502 73.2508 38.9502Z" fill="#0B0B0B"/>
<path d="M36.05 38.95H26.75C25.775 38.95 25 38.175 25 37.2C25 36.225 25.775 35.45 26.75 35.45H36.05C37.025 35.45 37.8 36.225 37.8 37.2C37.8 38.175 37 38.95 36.05 38.95Z" fill="#0B0B0B"/>
<path d="M45.3496 47.0752C50.8034 47.0752 55.2246 42.654 55.2246 37.2002C55.2246 31.7464 50.8034 27.3252 45.3496 27.3252C39.8958 27.3252 35.4746 31.7464 35.4746 37.2002C35.4746 42.654 39.8958 47.0752 45.3496 47.0752Z" fill="#0B0B0B"/>
<path d="M73.2492 64.5249H63.9492C62.9742 64.5249 62.1992 63.7499 62.1992 62.7749C62.1992 61.7999 62.9742 61.0249 63.9492 61.0249H73.2492C74.2242 61.0249 74.9992 61.7999 74.9992 62.7749C74.9992 63.7499 74.2242 64.5249 73.2492 64.5249Z" fill="#0B0B0B"/>
<path d="M40.7 64.5249H26.75C25.775 64.5249 25 63.7499 25 62.7749C25 61.7999 25.775 61.0249 26.75 61.0249H40.7C41.675 61.0249 42.45 61.7999 42.45 62.7749C42.45 63.7499 41.65 64.5249 40.7 64.5249Z" fill="#0B0B0B"/>
<path d="M54.6504 72.6748C60.1042 72.6748 64.5254 68.2536 64.5254 62.7998C64.5254 57.346 60.1042 52.9248 54.6504 52.9248C49.1966 52.9248 44.7754 57.346 44.7754 62.7998C44.7754 68.2536 49.1966 72.6748 54.6504 72.6748Z" fill="#0B0B0B"/>
</svg>
