<svg width="100" height="100" viewBox="0 0 100 100" fill="none" xmlns="http://www.w3.org/2000/svg">
<rect width="100" height="100" rx="24" fill="#DCA629"/>
<path fill-rule="evenodd" clip-rule="evenodd" d="M60.5869 36.4768C61.7628 36.7921 62.745 37.5417 63.3498 38.5884C64.5155 40.607 63.9495 43.158 62.1195 44.5124L57.6042 36.6915C58.5399 36.2857 59.5815 36.2082 60.5894 36.477L60.5869 36.4768ZM32.435 66.0142L38.7363 62.375L30.4344 48.0149L24.1408 51.6489C22.2308 52.75 20.8635 54.5411 20.2897 56.6864C19.7133 58.8342 20.0028 61.0673 21.1064 62.9773C22.6417 65.6343 25.4357 67.1231 28.3047 67.1231C29.7108 67.1231 31.1349 66.7664 32.4375 66.0143L32.435 66.0142ZM45.5829 74.2513L40.2896 65.0859L35.3504 67.9367L40.6411 77.1021C41.4295 78.4642 43.1766 78.932 44.5387 78.1463C45.1927 77.769 45.6631 77.1512 45.8621 76.4146C46.0611 75.6754 45.9603 74.9078 45.5829 74.2513ZM65.2622 56.2057L49.0461 28.1213C48.7075 27.5345 48.1544 27.214 47.4824 27.214H47.4436C46.7561 27.227 46.1978 27.5681 45.8747 28.1781C45.3061 29.2533 44.7556 30.4009 44.174 31.6156C41.7264 36.7255 38.9763 42.4709 33.1143 46.4026L41.4705 60.856C47.8002 57.7493 54.148 58.2378 59.7953 58.6745C61.1419 58.7779 62.4109 58.8761 63.6283 58.9201C64.3185 58.9459 64.8923 58.6332 65.2463 58.0439C65.603 57.452 65.6082 56.7981 65.2644 56.2037L65.2622 56.2057ZM61.1862 27.3689C60.7546 28.1159 61.0104 29.0722 61.7574 29.5039C62.0029 29.646 62.2717 29.7132 62.538 29.7132C63.0782 29.7132 63.6029 29.4341 63.8923 28.9327L67.1205 23.3447C67.5522 22.5977 67.2963 21.6414 66.5493 21.2098C65.8024 20.7781 64.8461 21.034 64.4144 21.781L61.1862 27.3689ZM80 44.5048C80 43.6415 79.3021 42.9436 78.4337 42.9436H71.9825C71.1192 42.9436 70.4213 43.6441 70.4213 44.5073C70.4213 45.3706 71.1218 46.0685 71.9825 46.0685H78.4337C79.3021 46.0685 80 45.368 80 44.5048ZM76.2652 31.1292C75.831 30.3822 74.8798 30.1264 74.1329 30.558L68.4079 33.8612C67.661 34.2928 67.4051 35.2491 67.8367 35.9961C68.1262 36.4975 68.6509 36.7767 69.1911 36.7767C69.4573 36.7767 69.7261 36.7095 69.9717 36.5673L75.6966 33.2615C76.4436 32.8299 76.702 31.8736 76.2678 31.1266L76.2652 31.1292Z" fill="#0B0B0B"/>
</svg>
