<svg width="100" height="100" viewBox="0 0 100 100" fill="none" xmlns="http://www.w3.org/2000/svg">
<rect width="100" height="100" rx="24" fill="#DCA629"/>
<path d="M29.2958 75.3462V52.8342H21.0851C20.4857 52.8342 20 53.3199 20 53.9194V75.346C20 77.9083 22.0843 79.9926 24.6465 79.9926C25.2283 79.9926 25.7898 79.8888 26.3134 79.689C26.4854 79.6233 26.6574 79.5373 26.8269 79.4513C27.0925 79.3071 27.3403 79.1376 27.5781 78.9454C27.7021 78.8417 27.8159 78.7354 27.9221 78.6317C28.8099 77.754 29.2958 76.583 29.2958 75.3462Z" fill="#0B0B0B"/>
<path d="M41.0577 46.139C40.8022 46.1364 40.5543 46.1035 40.309 46.0605L40.2559 55.2373C40.2534 55.7027 40.4304 56.1403 40.7567 56.4691C41.0855 56.8004 41.5484 56.9724 41.9961 56.9775C42.8334 56.9775 43.5441 56.3831 43.6909 55.561L45.4336 46.1667L41.0577 46.139Z" fill="#0B0B0B"/>
<path d="M72.7271 38.6165C72.7422 36.3426 71.4421 34.3975 69.6918 33.9043L69.6387 43.2883C71.3992 42.8229 72.7195 40.8955 72.7271 38.6165Z" fill="#0B0B0B"/>
<path d="M66.4983 51.2076C67.0017 51.3796 67.5354 51.3012 67.9679 50.9926C68.4004 50.684 68.6483 50.206 68.6509 49.6773L68.6837 43.9204C68.6837 43.9179 68.6812 43.9179 68.6812 43.9154C68.6812 43.9103 68.6837 43.9053 68.6837 43.9002L68.7748 27.5022C68.7799 26.9736 68.537 26.493 68.1121 26.1819C67.6846 25.8707 67.1484 25.7873 66.6425 25.9542L49.5511 31.5973L49.5106 38.485L49.4727 45.3728L66.4981 51.2106L66.4983 51.2076Z" fill="#0B0B0B"/>
<path d="M45.3301 51.9518L46.4203 51.9568C46.8553 51.9568 47.2626 51.7899 47.5661 51.4864C47.8721 51.1828 48.0466 50.7655 48.0466 50.3482C48.0492 49.9156 47.8848 49.5084 47.5812 49.2024C47.2777 48.8938 46.873 48.7243 46.443 48.7192H45.9321L45.3301 51.9518Z" fill="#0B0B0B"/>
<path d="M41.1101 31.6808C40.2046 31.6808 39.3547 32.0299 38.7097 32.6673C38.0571 33.3123 37.6954 34.1697 37.6903 35.0879L37.6524 41.74C37.6423 43.6294 39.1726 45.1774 41.0595 45.185L48.5209 45.2305L48.5968 31.7238L41.1373 31.6782C41.1272 31.6808 41.1202 31.6808 41.1101 31.6808ZM46.007 43.0831H46.0045L40.1767 43.0502C39.9136 43.0477 39.7012 42.8352 39.7037 42.5722C39.7062 42.3091 39.944 42.0714 40.1818 42.0992L46.0095 42.1321C46.2726 42.1346 46.485 42.3471 46.4825 42.6101C46.4825 42.8706 46.27 43.0831 46.007 43.0831ZM46.0373 38.9222H46.0348L40.2071 38.8894C39.944 38.8868 39.7315 38.6744 39.7341 38.4113C39.7366 38.1508 39.9491 37.9383 40.2096 37.9383H40.2121L46.0399 37.9712C46.3029 37.9737 46.5154 38.1862 46.5129 38.4492C46.5129 38.7098 46.3004 38.9222 46.0373 38.9222ZM46.5306 34.2909C46.528 34.5515 46.3156 34.7639 46.055 34.7639H46.0525L40.2248 34.731C39.9617 34.7285 39.7492 34.516 39.7518 34.253C39.7543 33.9899 39.944 33.7952 40.2298 33.78L46.0576 33.8129C46.3206 33.8129 46.5331 34.0253 46.5306 34.2909Z" fill="#0B0B0B"/>
<path d="M77.7812 20H32.4543C31.2352 20 30.2461 20.9991 30.2461 22.2183V75.3434C30.2461 76.4664 29.9123 77.5338 29.3027 78.447C29.0928 78.7505 28.8651 79.0363 28.597 79.3044C28.339 79.5624 28.0532 79.7901 27.7598 80H76.1145C78.2468 80 79.9896 78.2572 79.9896 76.1148L79.9921 22.2186C79.9921 21.0019 79.0005 20 77.7812 20ZM66.3433 25.0512C67.1452 24.7856 67.9925 24.9172 68.6729 25.4129C69.3508 25.9062 69.7353 26.6726 69.7277 27.5098L69.6973 32.9329C71.9763 33.4261 73.6989 35.8164 73.6786 38.6189C73.6685 41.4291 71.9207 43.7966 69.6341 44.2569L69.6037 49.6825C69.5987 50.5223 69.2041 51.2837 68.5211 51.7693C68.0759 52.0855 67.5599 52.2499 67.0338 52.2499C66.753 52.2499 66.4698 52.2044 66.1915 52.1082L48.9155 46.1844L46.4038 46.1692L46.1078 47.7678H46.4468C47.1348 47.7729 47.7773 48.0461 48.2604 48.5343C48.7435 49.0224 49.0065 49.6699 48.999 50.3529C48.999 51.0181 48.7232 51.6808 48.2401 52.1614C47.757 52.6446 47.1095 52.9101 46.4189 52.9101L45.1543 52.9025L44.6307 55.7304C44.4005 57.0078 43.2977 57.9284 42.0026 57.9284C41.2995 57.9158 40.5937 57.6553 40.0828 57.1392C39.577 56.6283 39.2987 55.9504 39.3063 55.2295L39.362 45.7847C37.7937 45.1119 36.6985 43.5462 36.7061 41.7351L36.744 35.0831C36.7491 33.912 37.212 32.8117 38.0466 31.9897C38.8788 31.1676 39.9917 30.7275 41.1502 30.73L49.0093 30.7781L66.3433 25.0512ZM64.3173 62.2284C64.3173 62.4914 64.1048 62.7039 63.8417 62.7039H41.4638C41.2008 62.7039 40.9883 62.4914 40.9883 62.2284C40.9883 61.9653 41.2008 61.7528 41.4638 61.7528H63.8417C64.1048 61.7528 64.3173 61.9653 64.3173 62.2284ZM39.7974 22.8606H42.9717C43.2348 22.8606 43.4473 23.0731 43.4473 23.3362C43.4473 23.5992 43.2348 23.8117 42.9717 23.8117H39.7974C39.5343 23.8117 39.3218 23.5992 39.3218 23.3362C39.3218 23.0756 39.5343 22.8606 39.7974 22.8606ZM33.484 22.8606H37.8143C38.0774 22.8606 38.2898 23.0731 38.2898 23.3362C38.2898 23.5992 38.0774 23.8117 37.8143 23.8117H33.484C33.2209 23.8117 33.0084 23.5992 33.0084 23.3362C33.0084 23.0756 33.2209 22.8606 33.484 22.8606ZM33.484 25.6708H37.1794C37.4425 25.6708 37.6549 25.8833 37.6549 26.1463C37.6549 26.4094 37.4425 26.6218 37.1794 26.6218H33.484C33.2209 26.6218 33.0084 26.4094 33.0084 26.1463C33.0084 25.8833 33.2209 25.6708 33.484 25.6708ZM33.484 61.7529H38.0521C38.3151 61.7529 38.5276 61.9654 38.5276 62.2285C38.5276 62.4915 38.3151 62.704 38.0521 62.704H33.484C33.2209 62.704 33.0084 62.4915 33.0084 62.2285C33.0084 61.9654 33.2209 61.7529 33.484 61.7529ZM33.484 66.5639H57.177C57.44 66.5639 57.6525 66.7763 57.6525 67.0394C57.6525 67.3025 57.4401 67.5149 57.177 67.5149L33.484 67.5175C33.2209 67.5175 33.0084 67.305 33.0084 67.0419C33.0084 66.7789 33.2209 66.5639 33.484 66.5639ZM33.484 71.3773H36.9416C37.2047 71.3773 37.4172 71.5898 37.4172 71.8529C37.4172 72.1159 37.2047 72.3284 36.9416 72.3284H33.484C33.2209 72.3284 33.0084 72.1159 33.0084 71.8529C33.0084 71.5898 33.2209 71.3773 33.484 71.3773ZM60.0326 77.1418H33.484C33.2209 77.1418 33.0084 76.9293 33.0084 76.6663C33.0084 76.4032 33.2209 76.1908 33.484 76.1908H60.0326C60.2956 76.1908 60.5081 76.4032 60.5081 76.6663C60.5081 76.9293 60.2956 77.1418 60.0326 77.1418ZM76.6611 72.3309H39.8757C39.6127 72.3309 39.4002 72.1184 39.4002 71.8554C39.4002 71.5923 39.6126 71.3798 39.8757 71.3798H76.6611C76.9241 71.3798 77.1366 71.5923 77.1366 71.8554C77.1366 72.1159 76.9241 72.3309 76.6611 72.3309ZM76.6611 67.5174H60.0326C59.7695 67.5174 59.5571 67.305 59.5571 67.0419C59.5571 66.7788 59.7695 66.5664 60.0326 66.5664H76.6611C76.9241 66.5664 77.1366 66.7788 77.1366 67.0419C77.1366 67.305 76.9241 67.5174 76.6611 67.5174ZM76.6611 62.704H67.1735C66.9105 62.704 66.698 62.4915 66.698 62.2284C66.698 61.9654 66.9104 61.7529 67.1735 61.7529H76.6611C76.9241 61.7529 77.1366 61.9654 77.1366 62.2284C77.1366 62.4915 76.9241 62.704 76.6611 62.704Z" fill="#0B0B0B"/>
</svg>
