<svg width="100" height="100" viewBox="0 0 100 100" fill="none" xmlns="http://www.w3.org/2000/svg">
<rect width="100" height="100" rx="24" fill="#DCA629"/>
<path d="M52.6608 38.25C52.5488 38.8385 52.4993 39.4505 52.4993 40.0755V53.2502H47.4993V40.0755C47.4993 39.4505 47.4499 38.8385 47.3379 38.25H52.6634H52.6608Z" fill="#0B0B0B"/>
<path d="M47.5 55.75H52.5V60.75H47.5V55.75Z" fill="#0B0B0B"/>
<path d="M36.9252 29.4999C39.3444 29.4999 41.5684 30.3254 43.3522 31.6978V31.565C43.3522 29.0442 41.3106 27.0024 38.7897 27.0024C37.011 27.0024 35.3938 28.0363 34.6465 29.6535L34.584 29.7889C35.347 29.617 36.1257 29.5025 36.9251 29.5025L36.9252 29.4999Z" fill="#0B0B0B"/>
<path d="M44.9992 40.0755V51.2135C42.3248 47.164 37.7232 44.5002 32.4992 44.5002C29.7987 44.5002 27.2753 45.2137 25.0879 46.4507L29.6009 36.6874C30.2624 35.2499 31.3144 34.0884 32.5879 33.2759C33.8509 32.4504 35.3509 32.0024 36.9264 32.0024C41.39 32.0024 45.0018 35.6144 45.0018 40.0778L44.9992 40.0755Z" fill="#0B0B0B"/>
<path d="M32.5 47C25.5967 47 20 52.5963 20 59.5C20 66.4037 25.5963 72 32.5 72C39.4037 72 45 66.4037 45 59.5C45 52.5963 39.4037 47 32.5 47ZM32.5 67C28.3568 67 25 63.6432 25 59.5C25 55.3568 28.3568 52 32.5 52C36.6432 52 40 55.3568 40 59.5C40 63.6432 36.6432 67 32.5 67Z" fill="#0B0B0B"/>
<path d="M63.0755 29.5C63.875 29.5 64.6537 29.6146 65.4167 29.7865L65.3542 29.6511C64.6094 28.0339 62.9922 27 61.211 27C58.6902 27 56.6484 29.0417 56.6484 31.5625V31.6953C58.4323 30.3229 60.6562 29.4974 63.0755 29.4974L63.0755 29.5Z" fill="#0B0B0B"/>
<path d="M74.9113 46.4505C72.7239 45.2135 70.1978 44.5 67.5 44.5C62.2761 44.5 57.6747 47.1615 55 51.2133V40.0753C55 35.6118 58.612 32 63.0753 32C64.6509 32 66.1509 32.4505 67.4139 33.2735C68.6899 34.086 69.7394 35.25 70.4009 36.6849L74.9139 46.4483L74.9113 46.4505Z" fill="#0B0B0B"/>
<path d="M67.5 47C60.5967 47 55 52.5963 55 59.5C55 66.4037 60.5963 72 67.5 72C74.4037 72 80 66.4037 80 59.5C80 52.5963 74.4037 47 67.5 47ZM67.5 67C63.3568 67 60 63.6432 60 59.5C60 55.3568 63.3568 52 67.5 52C71.6432 52 75 55.3568 75 59.5C75 63.6432 71.6432 67 67.5 67Z" fill="#0B0B0B"/>
</svg>
