<svg width="100" height="100" viewBox="0 0 100 100" fill="none" xmlns="http://www.w3.org/2000/svg">
<rect width="100" height="100" rx="24" fill="#DCA629"/>
<path d="M75 26.875H25C23.975 26.875 23.125 26.025 23.125 25C23.125 23.975 23.975 23.125 25 23.125H75C76.025 23.125 76.875 23.975 76.875 25C76.875 26.025 76.025 26.875 75 26.875Z" fill="#0B0B0B"/>
<path d="M61.6747 75.85C61.3497 76.5 60.6747 76.875 59.9997 76.875C59.7247 76.875 59.4247 76.8 59.1747 76.675L49.9997 72.1L40.8247 76.675C40.5747 76.8 40.2747 76.875 39.9997 76.875C39.3247 76.875 38.6497 76.5 38.3247 75.85C37.8497 74.9 38.2247 73.775 39.1747 73.325L48.1247 68.85V62.5H51.8747V68.85L60.8247 73.325C61.7747 73.775 62.1497 74.9 61.6747 75.85Z" fill="#0B0B0B"/>
<path d="M27.5 25V55.25C27.5 60 30 62.5 34.75 62.5H65.25C70 62.5 72.5 60 72.5 55.25V25H27.5ZM62.45 41.45L54.575 48.025C53.85 48.625 52.925 48.875 52.05 48.725C51.15 48.575 50.375 48.025 49.9 47.225L47.275 42.85L39.95 48.95C39.6 49.25 39.175 49.375 38.75 49.375C38.225 49.375 37.675 49.15 37.3 48.7C36.625 47.9 36.75 46.725 37.55 46.05L45.425 39.475C46.15 38.875 47.075 38.625 47.95 38.775C48.85 38.925 49.625 39.475 50.1 40.275L52.725 44.65L60.05 38.55C60.85 37.875 62.025 38 62.7 38.8C63.35 39.6 63.25 40.775 62.45 41.45Z" fill="#0B0B0B"/>
</svg>
