<svg width="100" height="100" viewBox="0 0 100 100" fill="none" xmlns="http://www.w3.org/2000/svg">
<rect width="100" height="100" rx="24" fill="#DCA629"/>
<path d="M73.1246 66.1748L68.9996 67.1498C68.0746 67.3748 67.3496 68.0748 67.1496 68.9998L66.2746 72.6748C65.7996 74.6748 63.2496 75.2998 61.9246 73.7248L54.4496 65.1248C53.8496 64.4248 54.1746 63.3248 55.0746 63.0998C59.4996 62.0248 63.4746 59.5498 66.3996 56.0248C66.8746 55.4498 67.7246 55.3748 68.2496 55.8998L73.7996 61.4498C75.6996 63.3498 75.0246 65.7248 73.1246 66.1748Z" fill="#0B0B0B"/>
<path d="M26.75 66.175L30.875 67.15C31.8 67.375 32.525 68.075 32.725 69L33.6 72.675C34.075 74.675 36.625 75.3 37.95 73.725L45.425 65.125C46.025 64.425 45.7 63.325 44.8 63.1C40.375 62.025 36.4 59.55 33.475 56.025C33 55.45 32.15 55.375 31.625 55.9L26.075 61.45C24.175 63.35 24.85 65.725 26.75 66.175Z" fill="#0B0B0B"/>
<path d="M50 25C40.325 25 32.5 32.825 32.5 42.5C32.5 46.125 33.575 49.45 35.425 52.225C38.125 56.225 42.4 59.05 47.375 59.775C48.225 59.925 49.1 60 50 60C50.9 60 51.775 59.925 52.625 59.775C57.6 59.05 61.875 56.225 64.575 52.225C66.425 49.45 67.5 46.125 67.5 42.5C67.5 32.825 59.675 25 50 25ZM57.65 41.95L55.575 44.025C55.225 44.375 55.025 45.05 55.15 45.55L55.75 48.125C56.225 50.15 55.15 50.95 53.35 49.875L50.85 48.4C50.4 48.125 49.65 48.125 49.2 48.4L46.7 49.875C44.9 50.925 43.825 50.15 44.3 48.125L44.9 45.55C45 45.075 44.825 44.375 44.475 44.025L42.35 41.95C41.125 40.725 41.525 39.5 43.225 39.225L45.9 38.775C46.35 38.7 46.875 38.3 47.075 37.9L48.55 34.95C49.35 33.35 50.65 33.35 51.45 34.95L52.925 37.9C53.125 38.3 53.65 38.7 54.125 38.775L56.8 39.225C58.475 39.5 58.875 40.725 57.65 41.95Z" fill="#0B0B0B"/>
</svg>
