<svg width="100" height="100" viewBox="0 0 100 100" fill="none" xmlns="http://www.w3.org/2000/svg">
<rect width="100" height="100" rx="24" fill="#DCA629"/>
<path d="M42.5 25C35.95 25 30.625 30.325 30.625 36.875C30.625 43.3 35.65 48.5 42.2 48.725C42.4 48.7 42.6 48.7 42.75 48.725C42.8 48.725 42.825 48.725 42.875 48.725C42.9 48.725 42.9 48.725 42.925 48.725C49.325 48.5 54.35 43.3 54.375 36.875C54.375 30.325 49.05 25 42.5 25Z" fill="#0B0B0B"/>
<path d="M55.2004 55.3752C48.2254 50.7252 36.8504 50.7252 29.8254 55.3752C26.6504 57.5002 24.9004 60.3752 24.9004 63.4502C24.9004 66.5252 26.6504 69.3752 29.8004 71.4752C33.3004 73.8252 37.9004 75.0002 42.5004 75.0002C47.1004 75.0002 51.7004 73.8252 55.2004 71.4752C58.3504 69.3502 60.1004 66.5002 60.1004 63.4002C60.0754 60.3252 58.3504 57.4752 55.2004 55.3752Z" fill="#0B0B0B"/>
<path d="M69.9754 38.3498C70.3754 43.1998 66.9254 47.4498 62.1504 48.0248C62.1254 48.0248 62.1254 48.0248 62.1004 48.0248H62.0254C61.8754 48.0248 61.7254 48.0248 61.6004 48.0748C59.1754 48.1998 56.9504 47.4248 55.2754 45.9998C57.8504 43.6998 59.3254 40.2498 59.0254 36.4998C58.8504 34.4748 58.1504 32.6248 57.1004 31.0498C58.0504 30.5748 59.1504 30.2748 60.2754 30.1748C65.1754 29.7498 69.5504 33.3998 69.9754 38.3498Z" fill="#0B0B0B"/>
<path d="M74.9746 61.475C74.7746 63.9 73.2246 66 70.6246 67.425C68.1246 68.8 64.9746 69.45 61.8496 69.375C63.6496 67.75 64.6996 65.725 64.8996 63.575C65.1496 60.475 63.6746 57.5 60.7246 55.125C59.0496 53.8 57.0996 52.75 54.9746 51.975C60.4996 50.375 67.4496 51.45 71.7246 54.9C74.0246 56.75 75.1996 59.075 74.9746 61.475Z" fill="#0B0B0B"/>
</svg>
