<svg width="100" height="100" viewBox="0 0 100 100" fill="none" xmlns="http://www.w3.org/2000/svg">
<rect width="100" height="100" rx="24" fill="#DCA629"/>
<path d="M60.475 25H39.525C30.425 25 25 30.425 25 39.525V60.45C25 69.575 30.425 75 39.525 75H60.45C69.55 75 74.975 69.575 74.975 60.475V39.525C75 30.425 69.575 25 60.475 25ZM62.2 48.825C62.2 49.8 61.425 50.575 60.45 50.575C59.475 50.575 58.7 49.8 58.7 48.825V48.375L51.9 55.175C51.525 55.55 51.025 55.725 50.5 55.675C49.975 55.625 49.5 55.35 49.225 54.9L46.675 51.1L40.725 57.05C40.375 57.4 39.95 57.55 39.5 57.55C39.05 57.55 38.6 57.375 38.275 57.05C37.6 56.375 37.6 55.275 38.275 54.575L45.725 47.125C46.1 46.75 46.6 46.575 47.125 46.625C47.65 46.675 48.125 46.95 48.4 47.4L50.95 51.2L56.225 45.925H55.775C54.8 45.925 54.025 45.15 54.025 44.175C54.025 43.2 54.8 42.425 55.775 42.425H60.425C60.65 42.425 60.875 42.475 61.1 42.55C61.525 42.725 61.875 43.075 62.05 43.5C62.15 43.725 62.175 43.95 62.175 44.175V48.825H62.2Z" fill="#0B0B0B"/>
</svg>
