<svg width="100" height="100" viewBox="0 0 100 100" fill="none" xmlns="http://www.w3.org/2000/svg">
<rect width="100" height="100" rx="24" fill="#DCA629"/>
<path d="M60.475 25H39.525C30.425 25 25 30.425 25 39.525V60.45C25 69.575 30.425 75 39.525 75H60.45C69.55 75 74.975 69.575 74.975 60.475V39.525C75 30.425 69.575 25 60.475 25ZM61.95 44.25L47.775 58.425C47.425 58.775 46.95 58.975 46.45 58.975C45.95 58.975 45.475 58.775 45.125 58.425L38.05 51.35C37.325 50.625 37.325 49.425 38.05 48.7C38.775 47.975 39.975 47.975 40.7 48.7L46.45 54.45L59.3 41.6C60.025 40.875 61.225 40.875 61.95 41.6C62.675 42.325 62.675 43.5 61.95 44.25Z" fill="#0B0B0B"/>
</svg>
