<svg width="100" height="100" viewBox="0 0 100 100" fill="none" xmlns="http://www.w3.org/2000/svg">
<rect width="100" height="100" rx="24" fill="#DCA629"/>
<path d="M75.8991 40.675L75.1741 33.75C74.1241 26.2 70.6991 23.125 63.3741 23.125H57.4741H53.7741H46.1741H42.4741H36.4741C29.1241 23.125 25.7241 26.2 24.6491 33.825L23.9741 40.7C23.7241 43.375 24.4491 45.975 26.0241 48C27.9241 50.475 30.8491 51.875 34.0991 51.875C37.2491 51.875 40.2741 50.3 42.1741 47.775C43.8741 50.3 46.7741 51.875 49.9991 51.875C53.2241 51.875 56.0491 50.375 57.7741 47.875C59.6991 50.35 62.6741 51.875 65.7741 51.875C69.0991 51.875 72.0991 50.4 73.9741 47.8C75.4741 45.8 76.1491 43.275 75.8991 40.675Z" fill="#0B0B0B"/>
<path d="M48.3758 61.6501C45.2008 61.9751 42.8008 64.6751 42.8008 67.8751V74.7251C42.8008 75.4001 43.3508 75.9501 44.0258 75.9501H55.9508C56.6258 75.9501 57.1758 75.4001 57.1758 74.7251V68.7501C57.2008 63.5251 54.1258 61.0501 48.3758 61.6501Z" fill="#0B0B0B"/>
<path d="M73.4242 56.0002V63.4502C73.4242 70.3502 67.8242 75.9502 60.9242 75.9502C60.2492 75.9502 59.6992 75.4002 59.6992 74.7252V68.7502C59.6992 65.5502 58.7242 63.0502 56.8242 61.3502C55.1492 59.8252 52.8742 59.0752 50.0492 59.0752C49.4242 59.0752 48.7992 59.1002 48.1242 59.1752C43.6742 59.6252 40.2992 63.3752 40.2992 67.8752V74.7252C40.2992 75.4002 39.7492 75.9502 39.0742 75.9502C32.1742 75.9502 26.5742 70.3502 26.5742 63.4502V56.0502C26.5742 54.3002 28.2992 53.1252 29.9242 53.7002C30.5992 53.9252 31.2742 54.1002 31.9742 54.2002C32.2742 54.2502 32.5992 54.3002 32.8992 54.3002C33.2992 54.3502 33.6992 54.3752 34.0992 54.3752C36.9992 54.3752 39.8492 53.3002 42.0992 51.4502C44.2492 53.3002 47.0492 54.3752 49.9992 54.3752C52.9742 54.3752 55.7242 53.3502 57.8742 51.5002C60.1242 53.3252 62.9242 54.3752 65.7742 54.3752C66.2242 54.3752 66.6742 54.3502 67.0992 54.3002C67.3992 54.2752 67.6742 54.2502 67.9492 54.2002C68.7242 54.1002 69.4242 53.8752 70.1242 53.6502C71.7492 53.1002 73.4242 54.3002 73.4242 56.0002Z" fill="#0B0B0B"/>
</svg>
