<svg width="171" height="64" viewBox="0 0 171 64" fill="none" xmlns="http://www.w3.org/2000/svg">
<g filter="url(#filter0_d_1_303)">
<rect x="10.8984" y="10.5" width="149.52" height="43.19" rx="21.595" fill="white" shape-rendering="crispEdges"/>
<g clip-path="url(#clip0_1_303)">
<g clip-path="url(#clip1_1_303)">
<g clip-path="url(#clip2_1_303)">
<path d="M45.4277 35.1057C45.3809 35.1137 45.3327 35.1196 45.2825 35.1217C45.0191 35.1299 44.8267 35.0589 44.6585 34.8913L43.7058 33.942L42.5021 32.7422L38.6406 28.8937C38.2725 28.5271 37.855 28.3208 37.3988 28.2805C37.1599 28.2593 36.9195 28.2838 36.6874 28.3529C36.34 28.4541 36.03 28.6384 35.7666 28.9011C35.3558 29.3103 35.1384 29.8027 35.1371 30.3248C35.1306 30.8554 35.3462 31.3534 35.7594 31.7652L41.7189 37.7048C41.9142 37.9022 42.0039 38.1115 42.0011 38.3633L42.0016 38.3856C42.0072 38.6462 41.9201 38.8512 41.7201 39.0505C41.5294 39.2408 41.312 39.3347 41.0441 39.3458C40.7808 39.354 40.5883 39.2827 40.42 39.1151L34.4023 33.1178C33.8436 32.5612 33.1484 32.3691 32.4491 32.5768C32.1013 32.6779 31.7917 32.8622 31.5281 33.1248C31.1173 33.5342 30.8997 34.0266 30.8986 34.5487C30.8925 35.0794 31.1077 35.5775 31.5207 35.9895L37.7464 42.1937C38.6378 43.0821 39.8186 43.4727 41.2546 43.3549C42.6024 43.2456 43.7214 42.7566 44.5797 41.9007C45.3846 41.0986 45.8616 40.1487 46.0033 39.0694C47.1253 38.8891 48.0706 38.4217 48.8185 37.6764C49.2485 37.2478 49.5845 36.7767 49.8262 36.2662C48.3095 36.2234 46.8009 35.8366 45.4277 35.1057Z" fill="url(#paint0_linear_1_303)"/>
<path d="M50.2868 34.1736C50.2978 32.7974 49.8122 31.6038 48.8397 30.6235L44.9953 26.7922C44.9692 26.7664 44.9455 26.7399 44.9217 26.7124C44.7627 26.526 44.6873 26.3285 44.6849 26.0902C44.6822 25.8256 44.7759 25.6072 44.9807 25.4037C45.1858 25.1991 45.3935 25.1103 45.6627 25.1161C45.9345 25.1186 46.1585 25.2171 46.3669 25.4248L52.8589 31.8946L54.1569 30.6015C54.2771 30.5043 54.3666 30.412 54.4652 30.2871C55.0994 29.4819 55.0298 28.3293 54.3035 27.6055L49.2416 22.5603C48.2565 21.5792 47.0594 21.0842 45.6879 21.0896C44.3012 21.0841 43.1013 21.5769 42.1214 22.5534C41.154 23.5173 40.66 24.6898 40.6535 26.0342L40.653 26.0495C40.6528 26.0675 40.6525 26.0856 40.6525 26.1038C40.6427 27.4144 41.0925 28.5635 41.9898 29.5196C42.0329 29.5657 42.0758 29.6115 42.1208 29.6566L45.9512 33.4737C46.1536 33.6753 46.2424 33.8804 46.2398 34.139L46.2402 34.1615C46.2458 34.422 46.1586 34.6271 45.9586 34.8266C45.8035 34.9808 45.6305 35.0707 45.4276 35.1054C46.8007 35.8363 48.3094 36.2231 49.8261 36.2662C50.1267 35.6313 50.2815 34.9356 50.2867 34.1838L50.2868 34.1736Z" fill="url(#paint1_linear_1_303)"/>
<path d="M52.2912 28.5016C52.5963 28.1975 53.0909 28.1977 53.3957 28.5016C53.7005 28.8053 53.7007 29.2982 53.3955 29.602C53.0909 29.9061 52.596 29.9061 52.2912 29.602C51.9864 29.2982 51.9861 28.8054 52.2912 28.5016Z" fill="white"/>
</g>
</g>
</g>
<path d="M72.478 28.8125L70.352 36.25H68.9028L66.2436 26.3857H67.8364L69.6616 34.1104H69.7163L71.8012 26.3857H73.2231L75.3149 34.1104H75.3696L77.1948 26.3857H78.7876L76.1215 36.25H74.6792L72.5463 28.8125H72.478ZM82.0551 30.1182C81.0229 30.1182 80.2983 30.9043 80.2231 31.9912H83.8188C83.7846 30.8906 83.0874 30.1182 82.0551 30.1182ZM83.812 34.1377H85.2133C85.0083 35.4502 83.7641 36.3867 82.1167 36.3867C80.0044 36.3867 78.726 34.958 78.726 32.6885C78.726 30.4326 80.0249 28.9287 82.0551 28.9287C84.0512 28.9287 85.2954 30.3369 85.2954 32.5176V33.0234H80.2163V33.1123C80.2163 34.3633 80.9682 35.1904 82.1508 35.1904C82.9917 35.1904 83.6137 34.7666 83.812 34.1377ZM90.2719 36.373C89.2192 36.373 88.4057 35.8604 87.9614 35.0264H87.934V36.25H86.4985V26.3857H87.9751V30.2822H88.0092C88.4399 29.4482 89.2602 28.9424 90.2788 28.9424C92.0903 28.9424 93.2729 30.3779 93.2729 32.6543C93.2729 34.9375 92.0971 36.373 90.2719 36.373ZM89.8754 30.1865C88.7544 30.1865 87.9682 31.1709 87.9682 32.6543C87.9682 34.1514 88.7544 35.1221 89.8754 35.1221C91.0376 35.1221 91.7553 34.1787 91.7553 32.6543C91.7553 31.1436 91.0376 30.1865 89.8754 30.1865ZM94.1684 33.502H95.6792C95.7885 34.4795 96.7387 35.1221 98.0376 35.1221C99.2817 35.1221 100.177 34.4795 100.177 33.5977C100.177 32.832 99.6372 32.374 98.3588 32.0596L97.0805 31.752C95.269 31.3145 94.4282 30.4668 94.4282 29.0928C94.4282 27.3906 95.9116 26.2217 98.017 26.2217C100.102 26.2217 101.531 27.3906 101.579 29.0928H100.088C99.9995 28.1084 99.186 27.5137 97.9965 27.5137C96.8071 27.5137 95.9936 28.1152 95.9936 28.9902C95.9936 29.6875 96.5131 30.0977 97.7846 30.4121L98.8715 30.6787C100.895 31.1572 101.736 31.9707 101.736 33.4131C101.736 35.2588 100.266 36.4141 97.9282 36.4141C95.7407 36.4141 94.2641 35.2861 94.1684 33.502ZM106.022 36.3867C103.964 36.3867 102.611 34.9717 102.611 32.6543C102.611 30.3438 103.971 28.9287 106.022 28.9287C108.073 28.9287 109.433 30.3438 109.433 32.6543C109.433 34.9717 108.08 36.3867 106.022 36.3867ZM106.022 35.1699C107.184 35.1699 107.929 34.2539 107.929 32.6543C107.929 31.0615 107.177 30.1455 106.022 30.1455C104.867 30.1455 104.115 31.0615 104.115 32.6543C104.115 34.2539 104.867 35.1699 106.022 35.1699ZM116.748 31.5332H115.339C115.189 30.7676 114.615 30.1592 113.651 30.1592C112.509 30.1592 111.757 31.1094 111.757 32.6543C111.757 34.2334 112.516 35.1494 113.665 35.1494C114.574 35.1494 115.168 34.6504 115.339 33.8164H116.761C116.604 35.3477 115.38 36.3867 113.651 36.3867C111.593 36.3867 110.253 34.9785 110.253 32.6543C110.253 30.3711 111.593 28.9287 113.637 28.9287C115.49 28.9287 116.618 30.1182 116.748 31.5332ZM119.352 32.1416L122.257 29.0586H123.994L121.013 32.1553L124.11 36.25H122.394L119.954 33.0576L119.338 33.666V36.25H117.862V26.3857H119.338V32.1416H119.352ZM127.541 30.1182C126.509 30.1182 125.785 30.9043 125.709 31.9912H129.305C129.271 30.8906 128.574 30.1182 127.541 30.1182ZM129.298 34.1377H130.7C130.495 35.4502 129.25 36.3867 127.603 36.3867C125.491 36.3867 124.212 34.958 124.212 32.6885C124.212 30.4326 125.511 28.9287 127.541 28.9287C129.538 28.9287 130.782 30.3369 130.782 32.5176V33.0234H125.703V33.1123C125.703 34.3633 126.455 35.1904 127.637 35.1904C128.478 35.1904 129.1 34.7666 129.298 34.1377ZM132.361 27.3564H133.844V29.0586H135.211V30.2275H133.844V34.1924C133.844 34.8145 134.118 35.0947 134.719 35.0947C134.87 35.0947 135.109 35.0811 135.205 35.0605V36.2295C135.04 36.2705 134.712 36.2979 134.384 36.2979C132.928 36.2979 132.361 35.7441 132.361 34.3564V30.2275H131.315V29.0586H132.361V27.3564Z" fill="black"/>
</g>
<defs>
<filter id="filter0_d_1_303" x="0.898438" y="0.5" width="169.52" height="63.19" filterUnits="userSpaceOnUse" color-interpolation-filters="sRGB">
<feFlood flood-opacity="0" result="BackgroundImageFix"/>
<feColorMatrix in="SourceAlpha" type="matrix" values="0 0 0 0 0 0 0 0 0 0 0 0 0 0 0 0 0 0 127 0" result="hardAlpha"/>
<feOffset/>
<feGaussianBlur stdDeviation="5"/>
<feComposite in2="hardAlpha" operator="out"/>
<feColorMatrix type="matrix" values="0 0 0 0 0 0 0 0 0 0 0 0 0 0 0 0 0 0 0.05 0"/>
<feBlend mode="normal" in2="BackgroundImageFix" result="effect1_dropShadow_1_303"/>
<feBlend mode="normal" in="SourceGraphic" in2="effect1_dropShadow_1_303" result="shape"/>
</filter>
<linearGradient id="paint0_linear_1_303" x1="35.3143" y1="28.2731" x2="40.1388" y2="37.3413" gradientUnits="userSpaceOnUse">
<stop stop-color="#FFE873"/>
<stop offset="1" stop-color="#FFD43B"/>
</linearGradient>
<linearGradient id="paint1_linear_1_303" x1="43.9759" y1="21.0895" x2="49.496" y2="28.8605" gradientUnits="userSpaceOnUse">
<stop stop-color="#5A9FD4"/>
<stop offset="1" stop-color="#306998"/>
</linearGradient>
<clipPath id="clip0_1_303">
<rect width="24" height="24" fill="white" transform="translate(30.8984 20.09)"/>
</clipPath>
<clipPath id="clip1_1_303">
<rect width="24" height="24" fill="white" transform="translate(30.8984 20.09)"/>
</clipPath>
<clipPath id="clip2_1_303">
<rect width="24" height="24" fill="white" transform="translate(30.8984 20.09)"/>
</clipPath>
</defs>
</svg>
