<svg width="181" height="64" viewBox="0 0 181 64" fill="none" xmlns="http://www.w3.org/2000/svg">
<g filter="url(#filter0_d_1_366)">
<rect x="10.6484" y="10.5" width="159.98" height="43.19" rx="21.595" fill="white" shape-rendering="crispEdges"/>
<g clip-path="url(#clip0_1_366)">
<g clip-path="url(#clip1_1_366)">
<g clip-path="url(#clip2_1_366)">
<mask id="mask0_1_366" style="mask-type:luminance" maskUnits="userSpaceOnUse" x="30" y="20" width="25" height="25">
<path d="M54.6484 20.09H30.6484V44.09H54.6484V20.09Z" fill="white"/>
</mask>
<g mask="url(#mask0_1_366)">
<path d="M53.7193 44.0848H31.5776C31.3318 44.0839 31.0963 43.9859 30.9223 43.8123C30.7483 43.6387 30.6499 43.4034 30.6484 43.1576V21.0191C30.6494 20.773 30.7476 20.5373 30.9217 20.3632C31.0957 20.1892 31.3314 20.091 31.5776 20.09H53.7193C53.9654 20.091 54.2012 20.1892 54.3752 20.3632C54.5492 20.5373 54.6474 20.773 54.6484 21.0191V43.1609C54.6463 43.4062 54.5476 43.6408 54.3736 43.8137C54.1997 43.9867 53.9646 44.0841 53.7193 44.0848Z" fill="#4D4D4E"/>
<path d="M36.1797 27.3362L48.7365 23.3504C48.7365 23.3504 49.6267 22.8818 49.4135 23.7477L49.4454 27.5897C49.4454 27.5897 49.6014 28.152 48.8279 28.2925L43.7269 29.8874L36.1797 27.3362Z" fill="#F89820"/>
<path d="M36.1808 27.3366C36.1808 27.3366 35.6865 27.4546 35.8317 28.298L35.805 31.9995C35.805 31.9995 35.7619 32.468 36.6484 32.6554L49.0946 36.6624C49.0946 36.6624 49.5135 36.8287 49.4653 36.3133L49.4704 32.1902C49.4704 32.1902 49.5885 31.7657 48.8145 31.4874L43.728 29.8878L36.1808 27.3366Z" fill="#F89820"/>
<path d="M41.6639 34.2658L36.3694 35.8827C36.3694 35.8827 35.7304 35.9043 35.8072 37.1009C35.884 38.2976 35.8016 40.7087 35.8016 40.7087C35.8016 40.7087 35.8555 41.1547 36.4678 40.8961L49.0247 36.8887C49.0247 36.8887 49.4702 36.7757 49.0945 36.6544C48.7187 36.533 41.6639 34.2658 41.6639 34.2658Z" fill="url(#paint0_linear_1_366)"/>
</g>
</g>
</g>
</g>
<path d="M67.7249 33.502H69.2357C69.3451 34.4795 70.2953 35.1221 71.5941 35.1221C72.8382 35.1221 73.7337 34.4795 73.7337 33.5977C73.7337 32.832 73.1937 32.374 71.9154 32.0596L70.6371 31.752C68.8255 31.3145 67.9847 30.4668 67.9847 29.0928C67.9847 27.3906 69.4681 26.2217 71.5736 26.2217C73.6585 26.2217 75.0872 27.3906 75.1351 29.0928H73.6449C73.556 28.1084 72.7425 27.5137 71.5531 27.5137C70.3636 27.5137 69.5501 28.1152 69.5501 28.9902C69.5501 29.6875 70.0697 30.0977 71.3412 30.4121L72.4281 30.6787C74.4515 31.1572 75.2923 31.9707 75.2923 33.4131C75.2923 35.2588 73.8226 36.4141 71.4847 36.4141C69.2972 36.4141 67.8206 35.2861 67.7249 33.502ZM82.6546 29.0586V36.25H81.2396V35.0332H81.2054C80.8089 35.8945 80.0775 36.3799 78.9769 36.3799C77.4115 36.3799 76.4544 35.3613 76.4544 33.7139V29.0586H77.931V33.4268C77.931 34.5205 78.4505 35.1084 79.4691 35.1084C80.5355 35.1084 81.1781 34.3701 81.1781 33.249V29.0586H82.6546ZM87.9456 36.373C86.8929 36.373 86.0794 35.8604 85.6351 35.0264H85.6078V36.25H84.1722V26.3857H85.6488V30.2822H85.683C86.1136 29.4482 86.9339 28.9424 87.9525 28.9424C89.764 28.9424 90.9466 30.3779 90.9466 32.6543C90.9466 34.9375 89.7708 36.373 87.9456 36.373ZM87.5492 30.1865C86.4281 30.1865 85.6419 31.1709 85.6419 32.6543C85.6419 34.1514 86.4281 35.1221 87.5492 35.1221C88.7113 35.1221 89.429 34.1787 89.429 32.6543C89.429 31.1436 88.7113 30.1865 87.5492 30.1865ZM92.1566 36.25V26.3857H93.6331V36.25H92.1566ZM95.1986 36.25V29.0586H96.6751V36.25H95.1986ZM95.9369 28.0059C95.4652 28.0059 95.0824 27.6299 95.0824 27.165C95.0824 26.6934 95.4652 26.3174 95.9369 26.3174C96.4154 26.3174 96.7982 26.6934 96.7982 27.165C96.7982 27.6299 96.4154 28.0059 95.9369 28.0059ZM98.1859 36.25V29.0586H99.5941V30.2686H99.6283C99.9496 29.4688 100.702 28.9355 101.672 28.9355C102.67 28.9355 103.395 29.4482 103.682 30.3438H103.716C104.085 29.4688 104.933 28.9355 105.958 28.9355C107.38 28.9355 108.31 29.8789 108.31 31.3076V36.25H106.827V31.6631C106.827 30.7334 106.327 30.2002 105.452 30.2002C104.577 30.2002 103.969 30.8496 103.969 31.7588V36.25H102.52V31.5537C102.52 30.7266 101.993 30.2002 101.16 30.2002C100.285 30.2002 99.6624 30.8838 99.6624 31.8066V36.25H98.1859ZM112.746 30.1182C111.714 30.1182 110.99 30.9043 110.914 31.9912H114.51C114.476 30.8906 113.779 30.1182 112.746 30.1182ZM114.503 34.1377H115.905C115.7 35.4502 114.455 36.3867 112.808 36.3867C110.696 36.3867 109.417 34.958 109.417 32.6885C109.417 30.4326 110.716 28.9287 112.746 28.9287C114.743 28.9287 115.987 30.3369 115.987 32.5176V33.0234H110.908V33.1123C110.908 34.3633 111.66 35.1904 112.842 35.1904C113.683 35.1904 114.305 34.7666 114.503 34.1377ZM124.135 36.25H122.604V27.7051H119.582V26.3857H127.15V27.7051H124.135V36.25ZM129.467 30.1182C128.435 30.1182 127.71 30.9043 127.635 31.9912H131.231C131.197 30.8906 130.499 30.1182 129.467 30.1182ZM131.224 34.1377H132.625C132.42 35.4502 131.176 36.3867 129.529 36.3867C127.416 36.3867 126.138 34.958 126.138 32.6885C126.138 30.4326 127.437 28.9287 129.467 28.9287C131.463 28.9287 132.707 30.3369 132.707 32.5176V33.0234H127.628V33.1123C127.628 34.3633 128.38 35.1904 129.563 35.1904C130.404 35.1904 131.026 34.7666 131.224 34.1377ZM136.426 33.6045H136.392L134.799 36.25H133.2L135.572 32.6611L133.234 29.0586H134.888L136.46 31.6631H136.488L138.039 29.0586H139.666L137.308 32.6133L139.639 36.25H138.012L136.426 33.6045ZM141.027 27.3564H142.51V29.0586H143.877V30.2275H142.51V34.1924C142.51 34.8145 142.784 35.0947 143.385 35.0947C143.535 35.0947 143.775 35.0811 143.87 35.0605V36.2295C143.706 36.2705 143.378 36.2979 143.05 36.2979C141.594 36.2979 141.027 35.7441 141.027 34.3564V30.2275H139.981V29.0586H141.027V27.3564Z" fill="black"/>
</g>
<defs>
<filter id="filter0_d_1_366" x="0.648438" y="0.5" width="179.98" height="63.19" filterUnits="userSpaceOnUse" color-interpolation-filters="sRGB">
<feFlood flood-opacity="0" result="BackgroundImageFix"/>
<feColorMatrix in="SourceAlpha" type="matrix" values="0 0 0 0 0 0 0 0 0 0 0 0 0 0 0 0 0 0 127 0" result="hardAlpha"/>
<feOffset/>
<feGaussianBlur stdDeviation="5"/>
<feComposite in2="hardAlpha" operator="out"/>
<feColorMatrix type="matrix" values="0 0 0 0 0 0 0 0 0 0 0 0 0 0 0 0 0 0 0.05 0"/>
<feBlend mode="normal" in2="BackgroundImageFix" result="effect1_dropShadow_1_366"/>
<feBlend mode="normal" in="SourceGraphic" in2="effect1_dropShadow_1_366" result="shape"/>
</filter>
<linearGradient id="paint0_linear_1_366" x1="36.5238" y1="38.6012" x2="49.2187" y2="34.2089" gradientUnits="userSpaceOnUse">
<stop offset="0.23" stop-color="#F89822"/>
<stop offset="1" stop-color="#C27818"/>
</linearGradient>
<clipPath id="clip0_1_366">
<rect width="24" height="24" fill="white" transform="translate(30.6484 20.09)"/>
</clipPath>
<clipPath id="clip1_1_366">
<rect width="24" height="24" fill="white" transform="translate(30.6484 20.09)"/>
</clipPath>
<clipPath id="clip2_1_366">
<rect width="24" height="24" fill="white" transform="translate(30.6484 20.09)"/>
</clipPath>
</defs>
</svg>
