<svg width="125" height="64" viewBox="0 0 125 64" fill="none" xmlns="http://www.w3.org/2000/svg">
<g filter="url(#filter0_d_3_115)">
<rect x="10.4883" y="10.3228" width="103.56" height="43.2" rx="21.6" fill="white" shape-rendering="crispEdges"/>
<g clip-path="url(#clip0_3_115)">
<g clip-path="url(#clip1_3_115)">
<g clip-path="url(#clip2_3_115)">
<path d="M54.4866 26.5804C54.4852 26.339 54.4825 26.0978 54.4759 25.8561C54.4618 25.3305 54.4307 24.8 54.3373 24.28C54.2425 23.7519 54.0875 23.2608 53.8433 22.7811C53.6035 22.3099 53.2901 21.8788 52.9162 21.5049C52.5424 21.131 52.1113 20.8176 51.64 20.5778C51.1606 20.3338 50.6695 20.1789 50.1418 20.0841C49.6215 19.9904 49.0911 19.9595 48.565 19.9453C48.3235 19.9387 48.0822 19.936 47.8408 19.9345C47.5542 19.9329 47.2674 19.9329 46.9809 19.9329H40.6277H37.9958C37.709 19.9329 37.4225 19.9329 37.136 19.9345C36.8945 19.936 36.6529 19.9388 36.4117 19.9453C36.2802 19.9489 36.1484 19.9535 36.0166 19.9598C35.621 19.9789 35.2249 20.0138 34.8349 20.0841C34.4391 20.1552 34.0639 20.2601 33.6988 20.4111C33.5771 20.4613 33.4566 20.5168 33.3367 20.5778C32.9832 20.7577 32.6522 20.9789 32.3512 21.236C32.2509 21.3217 32.1538 21.4114 32.0604 21.5049C31.6865 21.8787 31.373 22.3099 31.1333 22.781C30.889 23.2608 30.7343 23.7518 30.6394 24.28C30.546 24.8 30.515 25.3304 30.5009 25.8561C30.4942 26.0977 30.4914 26.339 30.4899 26.5803C30.4881 26.867 30.4883 27.1537 30.4883 27.4403V31.3528V36.4253C30.4883 36.7122 30.488 36.9986 30.4899 37.2855C30.4914 37.5269 30.4942 37.7681 30.5009 38.0094C30.515 38.5353 30.546 39.0658 30.6394 39.5856C30.7343 40.1136 30.889 40.6051 31.1333 41.0847C31.373 41.556 31.6865 41.987 32.0604 42.3607C32.4341 42.7348 32.8654 43.0481 33.3367 43.2881C33.8161 43.5321 34.3072 43.6869 34.835 43.7817C35.355 43.8753 35.8858 43.9064 36.4118 43.9204C36.6529 43.9269 36.8945 43.9297 37.136 43.9311C37.4225 43.9332 37.709 43.9329 37.9958 43.9329H46.9809C47.2674 43.9329 47.5542 43.9332 47.8407 43.9311C48.0822 43.9297 48.3235 43.9269 48.565 43.9204C49.091 43.9064 49.6215 43.8752 50.1418 43.7817C50.6694 43.6869 51.1606 43.5321 51.6399 43.2881C52.1113 43.0481 52.5424 42.7348 52.9162 42.3607C53.2901 41.987 53.6035 41.556 53.8433 41.0847C54.0875 40.6051 54.2425 40.1136 54.3373 39.5856C54.4307 39.0658 54.4618 38.5353 54.4758 38.0094C54.4825 37.7681 54.4851 37.5269 54.4866 37.2855C54.4884 36.9986 54.4883 36.7122 54.4883 36.4253V27.4403C54.4883 27.1537 54.4884 26.867 54.4866 26.5804Z" fill="#F05138"/>
<path d="M49.5067 34.747L49.505 34.745C49.5316 34.6547 49.559 34.5649 49.5822 34.4723C50.5783 30.5036 48.1472 25.8115 44.0332 23.3411C45.8361 25.785 46.6332 28.7452 45.925 31.334C45.8618 31.5649 45.7859 31.7866 45.7019 32.0019C45.6109 31.9421 45.4961 31.8742 45.342 31.7892C45.342 31.7892 41.2497 29.2624 36.8142 24.7932C36.6978 24.6759 39.1794 28.3401 41.9956 31.3155C40.6688 30.5708 36.9711 27.8804 34.6302 25.7379C34.9178 26.2175 35.2598 26.6794 35.6359 27.124C37.5907 29.6031 40.1401 32.662 43.1944 35.0108C41.0484 36.3241 38.0161 36.4262 34.997 35.0122C34.2503 34.6623 33.5483 34.24 32.8984 33.7603C34.1764 35.8044 36.1447 37.5681 38.5402 38.5977C41.3971 39.8254 44.238 39.7422 46.3538 38.6178L46.3522 38.6202C46.3618 38.6141 46.3741 38.6075 46.3841 38.6013C46.471 38.5546 46.5573 38.507 46.6416 38.4568C47.6582 37.9291 49.6662 37.3938 50.744 39.4908C51.0079 40.004 51.5688 37.2842 49.5067 34.747Z" fill="white"/>
</g>
</g>
</g>
<path d="M64.8998 36.9808C64.2464 36.9808 63.6584 36.8688 63.1358 36.6448C62.6131 36.4115 62.2024 36.0848 61.9038 35.6648C61.6051 35.2448 61.4558 34.7548 61.4558 34.1948H63.1638C63.2011 34.6148 63.3644 34.9601 63.6538 35.2308C63.9524 35.5015 64.3678 35.6368 64.8998 35.6368C65.4504 35.6368 65.8798 35.5061 66.1878 35.2448C66.4958 34.9741 66.6498 34.6288 66.6498 34.2088C66.6498 33.8821 66.5518 33.6161 66.3558 33.4108C66.1691 33.2055 65.9311 33.0468 65.6418 32.9348C65.3618 32.8228 64.9698 32.7015 64.4658 32.5708C63.8311 32.4028 63.3131 32.2348 62.9118 32.0668C62.5198 31.8895 62.1838 31.6188 61.9038 31.2548C61.6238 30.8908 61.4838 30.4055 61.4838 29.7988C61.4838 29.2388 61.6238 28.7488 61.9038 28.3288C62.1838 27.9088 62.5758 27.5868 63.0798 27.3628C63.5838 27.1388 64.1671 27.0268 64.8298 27.0268C65.7724 27.0268 66.5424 27.2648 67.1398 27.7408C67.7464 28.2075 68.0824 28.8515 68.1478 29.6728H66.3838C66.3558 29.3181 66.1878 29.0148 65.8798 28.7628C65.5718 28.5108 65.1658 28.3848 64.6618 28.3848C64.2044 28.3848 63.8311 28.5015 63.5418 28.7348C63.2524 28.9681 63.1078 29.3041 63.1078 29.7428C63.1078 30.0415 63.1964 30.2888 63.3738 30.4848C63.5604 30.6715 63.7938 30.8208 64.0738 30.9328C64.3538 31.0448 64.7364 31.1661 65.2218 31.2968C65.8658 31.4741 66.3884 31.6515 66.7898 31.8288C67.2004 32.0061 67.5458 32.2815 67.8258 32.6548C68.1151 33.0188 68.2598 33.5088 68.2598 34.1248C68.2598 34.6195 68.1244 35.0861 67.8538 35.5248C67.5924 35.9635 67.2051 36.3181 66.6918 36.5888C66.1878 36.8501 65.5904 36.9808 64.8998 36.9808ZM80.503 29.1688L78.109 36.8828H76.429L74.875 31.1848L73.321 36.8828H71.641L69.233 29.1688H70.857L72.467 35.3708L74.105 29.1688H75.771L77.339 35.3428L78.935 29.1688H80.503ZM82.5077 28.1468C82.2184 28.1468 81.9757 28.0488 81.7797 27.8528C81.5837 27.6568 81.4857 27.4141 81.4857 27.1248C81.4857 26.8355 81.5837 26.5928 81.7797 26.3968C81.9757 26.2008 82.2184 26.1028 82.5077 26.1028C82.7877 26.1028 83.0257 26.2008 83.2217 26.3968C83.4177 26.5928 83.5157 26.8355 83.5157 27.1248C83.5157 27.4141 83.4177 27.6568 83.2217 27.8528C83.0257 28.0488 82.7877 28.1468 82.5077 28.1468ZM83.2917 29.1688V36.8828H81.6957V29.1688H83.2917ZM88.6211 30.4708H87.1931V36.8828H85.5831V30.4708H84.6731V29.1688H85.5831V28.6228C85.5831 27.7361 85.8165 27.0921 86.2831 26.6908C86.7591 26.2801 87.5011 26.0748 88.5091 26.0748V27.4048C88.0238 27.4048 87.6831 27.4981 87.4871 27.6848C87.2911 27.8621 87.1931 28.1748 87.1931 28.6228V29.1688H88.6211V30.4708ZM91.8976 30.4708V34.7408C91.8976 35.0301 91.9629 35.2401 92.0936 35.3708C92.2336 35.4921 92.4669 35.5528 92.7936 35.5528H93.7736V36.8828H92.5136C91.7949 36.8828 91.2442 36.7148 90.8616 36.3788C90.4789 36.0428 90.2876 35.4968 90.2876 34.7408V30.4708H89.3776V29.1688H90.2876V27.2508H91.8976V29.1688H93.7736V30.4708H91.8976Z" fill="black"/>
</g>
<defs>
<filter id="filter0_d_3_115" x="0.488281" y="0.322754" width="123.56" height="63.2" filterUnits="userSpaceOnUse" color-interpolation-filters="sRGB">
<feFlood flood-opacity="0" result="BackgroundImageFix"/>
<feColorMatrix in="SourceAlpha" type="matrix" values="0 0 0 0 0 0 0 0 0 0 0 0 0 0 0 0 0 0 127 0" result="hardAlpha"/>
<feOffset/>
<feGaussianBlur stdDeviation="5"/>
<feComposite in2="hardAlpha" operator="out"/>
<feColorMatrix type="matrix" values="0 0 0 0 0 0 0 0 0 0 0 0 0 0 0 0 0 0 0.05 0"/>
<feBlend mode="normal" in2="BackgroundImageFix" result="effect1_dropShadow_3_115"/>
<feBlend mode="normal" in="SourceGraphic" in2="effect1_dropShadow_3_115" result="shape"/>
</filter>
<clipPath id="clip0_3_115">
<rect width="24" height="24" fill="white" transform="translate(30.4883 19.9329)"/>
</clipPath>
<clipPath id="clip1_3_115">
<rect width="24" height="24" fill="white" transform="translate(30.4883 19.9329)"/>
</clipPath>
<clipPath id="clip2_3_115">
<rect width="24" height="24" fill="white" transform="translate(30.4883 19.9329)"/>
</clipPath>
</defs>
</svg>
