<svg width="185" height="64" viewBox="0 0 185 64" fill="none" xmlns="http://www.w3.org/2000/svg">
<g filter="url(#filter0_d_52_448)">
<rect x="10.3105" y="10.5" width="164.09" height="43.2" rx="21.6" fill="white" shape-rendering="crispEdges"/>
<g clip-path="url(#clip0_52_448)">
<g clip-path="url(#clip1_52_448)">
<g clip-path="url(#clip2_52_448)">
<path fill-rule="evenodd" clip-rule="evenodd" d="M31.0508 39.8393H39.4106C39.4106 39.8393 37.8127 32.5484 43.1036 29.596C44.2571 29.0351 47.929 26.9399 53.9396 31.3844C54.1301 31.2256 54.31 31.0986 54.31 31.0986C54.31 31.0986 48.8073 25.6066 42.6804 26.2203C39.601 26.4955 35.8127 29.2997 33.5905 33.0034C31.3682 36.7071 31.0508 39.8393 31.0508 39.8393Z" fill="#CC0000"/>
<path fill-rule="evenodd" clip-rule="evenodd" d="M31.0508 39.8393H39.4106C39.4106 39.8393 37.8127 32.5484 43.1036 29.596C44.2571 29.0351 47.929 26.9399 53.9396 31.3844C54.1301 31.2256 54.31 31.0986 54.31 31.0986C54.31 31.0986 48.8073 25.6066 42.6804 26.2203C39.601 26.4955 35.8127 29.2997 33.5905 33.0034C31.3682 36.7071 31.0508 39.8393 31.0508 39.8393Z" fill="#CC0000"/>
<path fill-rule="evenodd" clip-rule="evenodd" d="M31.0508 39.8408H39.4106C39.4106 39.8408 37.8127 32.5498 43.1036 29.5974C44.2571 29.0366 47.929 26.9413 53.9396 31.3858C54.1301 31.227 54.31 31.1001 54.31 31.1001C54.31 31.1001 48.8073 25.608 42.6804 26.2218C39.5905 26.4969 35.8021 29.3011 33.5799 33.0048C31.3577 36.7085 31.0508 39.8408 31.0508 39.8408ZM48.4687 26.8143L48.5111 26.1054C48.4158 26.0524 48.1513 25.9255 47.4846 25.735L47.4423 26.4334C47.7915 26.5498 48.1301 26.6768 48.4687 26.8143Z" fill="#CC0000"/>
<path fill-rule="evenodd" clip-rule="evenodd" d="M47.464 29.0571L47.4216 29.7237C47.7708 29.7343 48.12 29.7766 48.4693 29.8507L48.5116 29.1946C48.1518 29.1205 47.8026 29.0782 47.464 29.0571ZM43.5486 25.7555H43.6544L43.4428 25.11C43.1148 25.11 42.7761 25.1311 42.4269 25.1735L42.628 25.7978C42.9349 25.7661 43.2417 25.7555 43.5486 25.7555ZM44.0566 29.6496L44.2999 30.3798C44.6068 30.2317 44.9137 30.1047 45.2206 30.0094L44.9878 29.311C44.628 29.4168 44.3211 29.5332 44.0566 29.6496ZM39.2523 26.8666L38.7762 26.1364C38.5116 26.274 38.2365 26.4221 37.9508 26.5915L38.4375 27.3322C38.7127 27.1629 38.9772 27.0042 39.2523 26.8666ZM41.4216 31.6285L41.9296 32.3904C42.1095 32.1258 42.3211 31.8825 42.5539 31.6391L42.0777 30.9195C41.8343 31.1417 41.6121 31.3851 41.4216 31.6285ZM39.8873 35.0359L40.7444 35.7131C40.7867 35.3004 40.8608 34.8877 40.9666 34.475L40.2047 33.8719C40.0672 34.2634 39.9719 34.6549 39.8873 35.0359ZM35.2523 30.0094L34.501 29.3534C34.2259 29.6179 33.9613 29.8824 33.718 30.147L34.5328 30.8454C34.755 30.5597 34.9984 30.274 35.2523 30.0094ZM32.0566 34.7396L30.8396 34.2951C30.6386 34.7502 30.4164 35.2793 30.3105 35.565L31.5275 36.0094C31.665 35.6496 31.8873 35.1311 32.0566 34.7396ZM39.7285 37.7237C39.7497 38.2845 39.8026 38.7396 39.8555 39.057L41.1253 39.512C41.0301 39.0994 40.9349 38.6337 40.8714 38.1364L39.7285 37.7237Z" fill="#CC0000"/>
</g>
</g>
</g>
<path d="M66.601 37.06L64.361 33.168H63.143V37.06H61.547V27.33H64.907C65.6537 27.33 66.2837 27.4607 66.797 27.722C67.3197 27.9833 67.707 28.3333 67.959 28.772C68.2204 29.2107 68.351 29.7007 68.351 30.242C68.351 30.8767 68.1644 31.4553 67.791 31.978C67.427 32.4913 66.8624 32.8413 66.097 33.028L68.505 37.06H66.601ZM63.143 31.894H64.907C65.5044 31.894 65.9524 31.7447 66.251 31.446C66.559 31.1473 66.713 30.746 66.713 30.242C66.713 29.738 66.5637 29.346 66.265 29.066C65.9664 28.7767 65.5137 28.632 64.907 28.632H63.143V31.894ZM77.3787 29.346V37.06H75.7827V36.15C75.5307 36.4673 75.1994 36.7193 74.7887 36.906C74.3874 37.0833 73.9581 37.172 73.5007 37.172C72.8941 37.172 72.3481 37.046 71.8627 36.794C71.3867 36.542 71.0087 36.1687 70.7287 35.674C70.4581 35.1793 70.3227 34.582 70.3227 33.882V29.346H71.9047V33.644C71.9047 34.3347 72.0774 34.8667 72.4227 35.24C72.7681 35.604 73.2394 35.786 73.8367 35.786C74.4341 35.786 74.9054 35.604 75.2507 35.24C75.6054 34.8667 75.7827 34.3347 75.7827 33.644V29.346H77.3787ZM81.0805 30.494C81.3512 30.1207 81.7199 29.8173 82.1865 29.584C82.6625 29.3413 83.1899 29.22 83.7685 29.22C84.4499 29.22 85.0659 29.3833 85.6165 29.71C86.1672 30.0367 86.6012 30.5033 86.9185 31.11C87.2359 31.7073 87.3945 32.3933 87.3945 33.168C87.3945 33.9427 87.2359 34.638 86.9185 35.254C86.6012 35.8607 86.1625 36.3367 85.6025 36.682C85.0519 37.018 84.4405 37.186 83.7685 37.186C83.1712 37.186 82.6392 37.0693 82.1725 36.836C81.7152 36.6027 81.3512 36.304 81.0805 35.94V37.06H79.4845V26.7H81.0805V30.494ZM85.7705 33.168C85.7705 32.636 85.6585 32.1787 85.4345 31.796C85.2199 31.404 84.9305 31.11 84.5665 30.914C84.2119 30.7087 83.8292 30.606 83.4185 30.606C83.0172 30.606 82.6345 30.7087 82.2705 30.914C81.9159 31.1193 81.6265 31.418 81.4025 31.81C81.1879 32.202 81.0805 32.664 81.0805 33.196C81.0805 33.728 81.1879 34.1947 81.4025 34.596C81.6265 34.988 81.9159 35.2867 82.2705 35.492C82.6345 35.6973 83.0172 35.8 83.4185 35.8C83.8292 35.8 84.2119 35.6973 84.5665 35.492C84.9305 35.2773 85.2199 34.9693 85.4345 34.568C85.6585 34.1667 85.7705 33.7 85.7705 33.168ZM95.9168 29.346L91.1848 40.686H89.5328L91.1008 36.934L88.0628 29.346H89.8408L92.0108 35.226L94.2648 29.346H95.9168ZM104.104 37.186C103.376 37.186 102.718 37.0227 102.13 36.696C101.542 36.36 101.08 35.8933 100.744 35.296C100.408 34.6893 100.24 33.9893 100.24 33.196C100.24 32.412 100.413 31.7167 100.758 31.11C101.103 30.5033 101.575 30.0367 102.172 29.71C102.769 29.3833 103.437 29.22 104.174 29.22C104.911 29.22 105.579 29.3833 106.176 29.71C106.773 30.0367 107.245 30.5033 107.59 31.11C107.935 31.7167 108.108 32.412 108.108 33.196C108.108 33.98 107.931 34.6753 107.576 35.282C107.221 35.8887 106.736 36.36 106.12 36.696C105.513 37.0227 104.841 37.186 104.104 37.186ZM104.104 35.8C104.515 35.8 104.897 35.702 105.252 35.506C105.616 35.31 105.91 35.016 106.134 34.624C106.358 34.232 106.47 33.756 106.47 33.196C106.47 32.636 106.363 32.1647 106.148 31.782C105.933 31.39 105.649 31.096 105.294 30.9C104.939 30.704 104.557 30.606 104.146 30.606C103.735 30.606 103.353 30.704 102.998 30.9C102.653 31.096 102.377 31.39 102.172 31.782C101.967 32.1647 101.864 32.636 101.864 33.196C101.864 34.0267 102.074 34.6707 102.494 35.128C102.923 35.576 103.46 35.8 104.104 35.8ZM113.578 29.22C114.184 29.22 114.726 29.346 115.202 29.598C115.687 29.85 116.065 30.2233 116.336 30.718C116.606 31.2127 116.742 31.81 116.742 32.51V37.06H115.16V32.748C115.16 32.0573 114.987 31.53 114.642 31.166C114.296 30.7927 113.825 30.606 113.228 30.606C112.63 30.606 112.154 30.7927 111.8 31.166C111.454 31.53 111.282 32.0573 111.282 32.748V37.06H109.686V29.346H111.282V30.228C111.543 29.9107 111.874 29.6633 112.276 29.486C112.686 29.3087 113.12 29.22 113.578 29.22ZM127.468 37.06L125.228 33.168H124.01V37.06H122.414V27.33H125.774C126.521 27.33 127.151 27.4607 127.664 27.722C128.187 27.9833 128.574 28.3333 128.826 28.772C129.088 29.2107 129.218 29.7007 129.218 30.242C129.218 30.8767 129.032 31.4553 128.658 31.978C128.294 32.4913 127.73 32.8413 126.964 33.028L129.372 37.06H127.468ZM124.01 31.894H125.774C126.372 31.894 126.82 31.7447 127.118 31.446C127.426 31.1473 127.58 30.746 127.58 30.242C127.58 29.738 127.431 29.346 127.132 29.066C126.834 28.7767 126.381 28.632 125.774 28.632H124.01V31.894ZM130.728 33.168C130.728 32.3933 130.887 31.7073 131.204 31.11C131.531 30.5127 131.969 30.0507 132.52 29.724C133.08 29.388 133.696 29.22 134.368 29.22C134.975 29.22 135.502 29.3413 135.95 29.584C136.407 29.8173 136.771 30.1113 137.042 30.466V29.346H138.652V37.06H137.042V35.912C136.771 36.276 136.403 36.5793 135.936 36.822C135.469 37.0647 134.937 37.186 134.34 37.186C133.677 37.186 133.071 37.018 132.52 36.682C131.969 36.3367 131.531 35.8607 131.204 35.254C130.887 34.638 130.728 33.9427 130.728 33.168ZM137.042 33.196C137.042 32.664 136.93 32.202 136.706 31.81C136.491 31.418 136.207 31.1193 135.852 30.914C135.497 30.7087 135.115 30.606 134.704 30.606C134.293 30.606 133.911 30.7087 133.556 30.914C133.201 31.11 132.912 31.404 132.688 31.796C132.473 32.1787 132.366 32.636 132.366 33.168C132.366 33.7 132.473 34.1667 132.688 34.568C132.912 34.9693 133.201 35.2773 133.556 35.492C133.92 35.6973 134.303 35.8 134.704 35.8C135.115 35.8 135.497 35.6973 135.852 35.492C136.207 35.2867 136.491 34.988 136.706 34.596C136.93 34.1947 137.042 33.728 137.042 33.196ZM141.56 28.324C141.271 28.324 141.028 28.226 140.832 28.03C140.636 27.834 140.538 27.5913 140.538 27.302C140.538 27.0127 140.636 26.77 140.832 26.574C141.028 26.378 141.271 26.28 141.56 26.28C141.84 26.28 142.078 26.378 142.274 26.574C142.47 26.77 142.568 27.0127 142.568 27.302C142.568 27.5913 142.47 27.834 142.274 28.03C142.078 28.226 141.84 28.324 141.56 28.324ZM142.344 29.346V37.06H140.748V29.346H142.344ZM146.036 26.7V37.06H144.44V26.7H146.036ZM150.931 37.186C150.324 37.186 149.778 37.0787 149.293 36.864C148.817 36.64 148.439 36.3413 148.159 35.968C147.879 35.5853 147.73 35.1607 147.711 34.694H149.363C149.391 35.0207 149.545 35.296 149.825 35.52C150.114 35.7347 150.474 35.842 150.903 35.842C151.351 35.842 151.696 35.758 151.939 35.59C152.191 35.4127 152.317 35.1887 152.317 34.918C152.317 34.6287 152.177 34.414 151.897 34.274C151.626 34.134 151.192 33.98 150.595 33.812C150.016 33.6533 149.545 33.4993 149.181 33.35C148.817 33.2007 148.5 32.972 148.229 32.664C147.968 32.356 147.837 31.95 147.837 31.446C147.837 31.0353 147.958 30.662 148.201 30.326C148.444 29.9807 148.789 29.71 149.237 29.514C149.694 29.318 150.217 29.22 150.805 29.22C151.682 29.22 152.387 29.444 152.919 29.892C153.46 30.3307 153.75 30.9327 153.787 31.698H152.191C152.163 31.3527 152.023 31.0773 151.771 30.872C151.519 30.6667 151.178 30.564 150.749 30.564C150.329 30.564 150.007 30.6433 149.783 30.802C149.559 30.9607 149.447 31.1707 149.447 31.432C149.447 31.6373 149.522 31.81 149.671 31.95C149.82 32.09 150.002 32.202 150.217 32.286C150.432 32.3607 150.749 32.4587 151.169 32.58C151.729 32.7293 152.186 32.8833 152.541 33.042C152.905 33.1913 153.218 33.4153 153.479 33.714C153.74 34.0127 153.876 34.4093 153.885 34.904C153.885 35.3427 153.764 35.7347 153.521 36.08C153.278 36.4253 152.933 36.696 152.485 36.892C152.046 37.088 151.528 37.186 150.931 37.186Z" fill="black"/>
</g>
<defs>
<filter id="filter0_d_52_448" x="0.310547" y="0.5" width="184.09" height="63.2" filterUnits="userSpaceOnUse" color-interpolation-filters="sRGB">
<feFlood flood-opacity="0" result="BackgroundImageFix"/>
<feColorMatrix in="SourceAlpha" type="matrix" values="0 0 0 0 0 0 0 0 0 0 0 0 0 0 0 0 0 0 127 0" result="hardAlpha"/>
<feOffset/>
<feGaussianBlur stdDeviation="5"/>
<feComposite in2="hardAlpha" operator="out"/>
<feColorMatrix type="matrix" values="0 0 0 0 0 0 0 0 0 0 0 0 0 0 0 0 0 0 0.05 0"/>
<feBlend mode="normal" in2="BackgroundImageFix" result="effect1_dropShadow_52_448"/>
<feBlend mode="normal" in="SourceGraphic" in2="effect1_dropShadow_52_448" result="shape"/>
</filter>
<clipPath id="clip0_52_448">
<rect width="24" height="24" fill="white" transform="translate(30.3105 20.11)"/>
</clipPath>
<clipPath id="clip1_52_448">
<rect width="24" height="24" fill="white" transform="translate(30.3105 20.11)"/>
</clipPath>
<clipPath id="clip2_52_448">
<rect width="24" height="24" fill="white" transform="translate(30.3105 20.11)"/>
</clipPath>
</defs>
</svg>
