<svg width="134" height="64" viewBox="0 0 134 64" fill="none" xmlns="http://www.w3.org/2000/svg">
<g filter="url(#filter0_d_52_412)">
<rect x="10.6797" y="10" width="113.24" height="43.2" rx="21.6" fill="white" shape-rendering="crispEdges"/>
<g clip-path="url(#clip0_52_412)">
<g clip-path="url(#clip1_52_412)">
<g clip-path="url(#clip2_52_412)">
<path d="M48.776 20.8151H33.8501C32.8497 20.8151 32.0312 21.6337 32.0312 22.634V39.0945C32.0312 40.0947 32.8497 40.9132 33.8501 40.9132H43.6807C43.5691 36.0219 45.2395 26.5292 48.776 20.8151Z" fill="#0F80CC"/>
<path d="M48.2325 21.3463H33.8489C33.1386 21.3463 32.5605 21.9242 32.5605 22.6346V37.8942C35.8181 36.6439 40.7074 35.5651 44.088 35.6141C44.7673 32.062 46.7639 25.1006 48.2325 21.3463Z" fill="url(#paint0_linear_52_412)"/>
<path d="M52.2556 20.2771C51.2334 19.3655 49.9957 19.7317 48.7741 20.8158C48.5928 20.9769 48.4119 21.1556 48.2319 21.3465C46.1422 23.5633 44.2025 27.6695 43.5999 30.8054C43.8346 31.2815 44.018 31.889 44.1388 32.3531C44.1697 32.4721 44.1976 32.5839 44.22 32.6789C44.273 32.9039 44.3015 33.0498 44.3015 33.0498C44.3015 33.0498 44.2828 32.9789 44.2059 32.756C44.1913 32.7133 44.175 32.6666 44.1556 32.6116C44.1474 32.5889 44.136 32.5614 44.1234 32.5319C43.9871 32.2151 43.61 31.5463 43.4441 31.2551C43.3021 31.6738 43.1767 32.0655 43.0717 32.4198C43.5508 33.2963 43.8427 34.7985 43.8427 34.7985C43.8427 34.7985 43.8174 34.7011 43.697 34.3614C43.5901 34.0609 43.0578 33.1282 42.9317 32.9102C42.716 33.7064 42.6303 34.244 42.7076 34.3749C42.8577 34.6286 43.0006 35.0662 43.1261 35.5502C43.4096 36.6404 43.6066 37.9677 43.6066 37.9677C43.6066 37.9677 43.613 38.0557 43.6237 38.1911C43.5843 39.1067 43.608 40.0559 43.6788 40.914C43.7728 42.0498 43.9496 43.0256 44.175 43.5478L44.328 43.4643C43.997 42.4355 43.8626 41.0872 43.9215 39.5323C44.0105 37.1555 44.5575 34.2892 45.5681 31.3018C47.2755 26.792 49.6443 23.1736 51.8124 21.4456C49.8363 23.2303 47.1618 29.007 46.3612 31.1461C45.4648 33.5416 44.8295 35.7896 44.4466 37.9433C45.1072 35.9242 47.243 35.0563 47.243 35.0563C47.243 35.0563 48.2906 33.7644 49.5148 31.9186C48.7815 32.0859 47.5773 32.3722 47.174 32.5417C46.5791 32.7913 46.4188 32.8764 46.4188 32.8764C46.4188 32.8764 48.3459 31.7028 49.9993 31.1714C52.2731 27.5902 54.7503 22.5026 52.2556 20.2771Z" fill="#003B57"/>
</g>
</g>
</g>
<path d="M65.1065 36.658C64.4531 36.658 63.8651 36.546 63.3425 36.322C62.8198 36.0887 62.4091 35.762 62.1105 35.342C61.8118 34.922 61.6625 34.432 61.6625 33.872H63.3705C63.4078 34.292 63.5711 34.6373 63.8605 34.908C64.1591 35.1787 64.5745 35.314 65.1065 35.314C65.6571 35.314 66.0865 35.1833 66.3945 34.922C66.7025 34.6513 66.8565 34.306 66.8565 33.886C66.8565 33.5593 66.7585 33.2933 66.5625 33.088C66.3758 32.8827 66.1378 32.724 65.8485 32.612C65.5685 32.5 65.1765 32.3787 64.6725 32.248C64.0378 32.08 63.5198 31.912 63.1185 31.744C62.7265 31.5667 62.3905 31.296 62.1105 30.932C61.8305 30.568 61.6905 30.0827 61.6905 29.476C61.6905 28.916 61.8305 28.426 62.1105 28.006C62.3905 27.586 62.7825 27.264 63.2865 27.04C63.7905 26.816 64.3738 26.704 65.0365 26.704C65.9791 26.704 66.7491 26.942 67.3465 27.418C67.9531 27.8847 68.2891 28.5287 68.3545 29.35H66.5905C66.5625 28.9953 66.3945 28.692 66.0865 28.44C65.7785 28.188 65.3725 28.062 64.8685 28.062C64.4111 28.062 64.0378 28.1787 63.7485 28.412C63.4591 28.6453 63.3145 28.9813 63.3145 29.42C63.3145 29.7187 63.4031 29.966 63.5805 30.162C63.7671 30.3487 64.0005 30.498 64.2805 30.61C64.5605 30.722 64.9431 30.8433 65.4285 30.974C66.0725 31.1513 66.5951 31.3287 66.9965 31.506C67.4071 31.6833 67.7525 31.9587 68.0325 32.332C68.3218 32.696 68.4665 33.186 68.4665 33.802C68.4665 34.2967 68.3311 34.7633 68.0605 35.202C67.7991 35.6407 67.4118 35.9953 66.8985 36.266C66.3945 36.5273 65.7971 36.658 65.1065 36.658ZM77.8817 38.324L76.1737 36.476C75.7537 36.5973 75.2917 36.658 74.7877 36.658C73.8823 36.658 73.047 36.448 72.2817 36.028C71.5257 35.5987 70.9237 35.006 70.4757 34.25C70.037 33.4847 69.8177 32.626 69.8177 31.674C69.8177 30.722 70.037 29.868 70.4757 29.112C70.9237 28.356 71.5257 27.768 72.2817 27.348C73.047 26.9187 73.8823 26.704 74.7877 26.704C75.7023 26.704 76.5377 26.9187 77.2937 27.348C78.059 27.768 78.661 28.356 79.0997 29.112C79.5383 29.868 79.7577 30.722 79.7577 31.674C79.7577 32.57 79.5617 33.382 79.1697 34.11C78.787 34.8287 78.255 35.4073 77.5737 35.846L79.9117 38.324H77.8817ZM71.4557 31.674C71.4557 32.3927 71.5957 33.0273 71.8757 33.578C72.165 34.1193 72.5617 34.5393 73.0657 34.838C73.5697 35.1273 74.1437 35.272 74.7877 35.272C75.4317 35.272 76.0057 35.1273 76.5097 34.838C77.0137 34.5393 77.4057 34.1193 77.6857 33.578C77.975 33.0273 78.1197 32.3927 78.1197 31.674C78.1197 30.9553 77.975 30.3253 77.6857 29.784C77.4057 29.2427 77.0137 28.8273 76.5097 28.538C76.0057 28.2487 75.4317 28.104 74.7877 28.104C74.1437 28.104 73.5697 28.2487 73.0657 28.538C72.5617 28.8273 72.165 29.2427 71.8757 29.784C71.5957 30.3253 71.4557 30.9553 71.4557 31.674ZM82.9652 35.272H86.2552V36.56H81.3692V26.83H82.9652V35.272ZM88.4019 27.824C88.1126 27.824 87.8699 27.726 87.6739 27.53C87.4779 27.334 87.3799 27.0913 87.3799 26.802C87.3799 26.5127 87.4779 26.27 87.6739 26.074C87.8699 25.878 88.1126 25.78 88.4019 25.78C88.6819 25.78 88.9199 25.878 89.1159 26.074C89.3119 26.27 89.4099 26.5127 89.4099 26.802C89.4099 27.0913 89.3119 27.334 89.1159 27.53C88.9199 27.726 88.6819 27.824 88.4019 27.824ZM89.1859 28.846V36.56H87.5899V28.846H89.1859ZM93.1433 30.148V34.418C93.1433 34.7073 93.2086 34.9173 93.3393 35.048C93.4793 35.1693 93.7126 35.23 94.0393 35.23H95.0193V36.56H93.7593C93.0406 36.56 92.49 36.392 92.1073 36.056C91.7246 35.72 91.5333 35.174 91.5333 34.418V30.148H90.6233V28.846H91.5333V26.928H93.1433V28.846H95.0193V30.148H93.1433ZM103.56 32.514C103.56 32.8033 103.542 33.0647 103.504 33.298H97.6103C97.657 33.914 97.8856 34.4087 98.2963 34.782C98.707 35.1553 99.211 35.342 99.8083 35.342C100.667 35.342 101.274 34.9827 101.628 34.264H103.35C103.117 34.9733 102.692 35.5567 102.076 36.014C101.47 36.462 100.714 36.686 99.8083 36.686C99.071 36.686 98.4083 36.5227 97.8203 36.196C97.2416 35.86 96.7843 35.3933 96.4483 34.796C96.1216 34.1893 95.9583 33.4893 95.9583 32.696C95.9583 31.9027 96.117 31.2073 96.4343 30.61C96.761 30.0033 97.2136 29.5367 97.7923 29.21C98.3803 28.8833 99.0523 28.72 99.8083 28.72C100.536 28.72 101.185 28.8787 101.754 29.196C102.324 29.5133 102.767 29.9613 103.084 30.54C103.402 31.1093 103.56 31.7673 103.56 32.514ZM101.894 32.01C101.885 31.422 101.675 30.9507 101.264 30.596C100.854 30.2413 100.345 30.064 99.7383 30.064C99.1876 30.064 98.7163 30.2413 98.3243 30.596C97.9323 30.9413 97.699 31.4127 97.6243 32.01H101.894Z" fill="black"/>
</g>
<defs>
<filter id="filter0_d_52_412" x="0.679688" y="0" width="133.24" height="63.2" filterUnits="userSpaceOnUse" color-interpolation-filters="sRGB">
<feFlood flood-opacity="0" result="BackgroundImageFix"/>
<feColorMatrix in="SourceAlpha" type="matrix" values="0 0 0 0 0 0 0 0 0 0 0 0 0 0 0 0 0 0 127 0" result="hardAlpha"/>
<feOffset/>
<feGaussianBlur stdDeviation="5"/>
<feComposite in2="hardAlpha" operator="out"/>
<feColorMatrix type="matrix" values="0 0 0 0 0 0 0 0 0 0 0 0 0 0 0 0 0 0 0.05 0"/>
<feBlend mode="normal" in2="BackgroundImageFix" result="effect1_dropShadow_52_412"/>
<feBlend mode="normal" in="SourceGraphic" in2="effect1_dropShadow_52_412" result="shape"/>
</filter>
<linearGradient id="paint0_linear_52_412" x1="41.5973" y1="21.685" x2="41.5973" y2="36.9739" gradientUnits="userSpaceOnUse">
<stop stop-color="#97D9F6"/>
<stop offset="0.920245" stop-color="#0F80CC"/>
<stop offset="1" stop-color="#0F80CC"/>
</linearGradient>
<clipPath id="clip0_52_412">
<rect width="24" height="24" fill="white" transform="translate(30.6797 19.61)"/>
</clipPath>
<clipPath id="clip1_52_412">
<rect width="24" height="24" fill="white" transform="translate(30.6797 19.61)"/>
</clipPath>
<clipPath id="clip2_52_412">
<rect width="24" height="24" fill="white" transform="translate(30.6797 19.61)"/>
</clipPath>
</defs>
</svg>
