<svg width="135" height="64" viewBox="0 0 135 64" fill="none" xmlns="http://www.w3.org/2000/svg">
<g filter="url(#filter0_d_52_519)">
<rect x="10.1504" y="10" width="114.71" height="43.2" rx="21.6" fill="white" shape-rendering="crispEdges"/>
<g clip-path="url(#clip0_52_519)">
<g clip-path="url(#clip1_52_519)">
<g clip-path="url(#clip2_52_519)">
<mask id="mask0_52_519" style="mask-type:luminance" maskUnits="userSpaceOnUse" x="30" y="19" width="25" height="25">
<path d="M54.1504 19.61H30.1504V43.61H54.1504V19.61Z" fill="white"/>
</mask>
<g mask="url(#mask0_52_519)">
<path d="M34.7093 21.3307H46.5011C49.0264 21.3307 51.0717 23.376 51.0717 25.9013V37.6929C51.0717 40.2182 49.0264 42.2635 46.5011 42.2635H34.7093C32.184 42.2635 30.1387 40.2182 30.1387 37.6929V25.9013C30.1387 23.376 32.184 21.3307 34.7093 21.3307Z" fill="url(#paint0_linear_52_519)"/>
<path d="M46.1456 22.4576H35.0634C32.9555 22.4576 31.2441 24.169 31.2441 26.2769V37.359C31.2441 39.4669 32.9555 41.1782 35.0634 41.1782H46.1456C48.2536 41.1782 49.9649 39.4669 49.9649 37.359V26.256C49.9649 24.1481 48.2536 22.4576 46.1456 22.4576ZM49.6519 37.4007C49.6519 39.3208 48.1075 40.8652 46.1874 40.8652H35.0217C33.1225 40.8652 31.5572 39.3208 31.5572 37.4007V26.2143C31.5572 24.2942 33.1016 22.7498 35.0217 22.7498H46.2082C48.1075 22.7498 49.6727 24.2942 49.6727 26.2143V37.4007H49.6519Z" fill="white"/>
<path d="M40.637 23.2096C35.9202 23.2096 32.0801 27.0497 32.0801 31.7664C32.0801 36.4831 35.9202 40.3232 40.637 40.3232C45.3746 40.3232 49.1938 36.4831 49.1938 31.7664C49.1938 27.0497 45.3537 23.2096 40.637 23.2096ZM40.637 40.198C35.9829 40.198 32.2053 36.4204 32.2053 31.7664C32.2053 27.1123 35.9829 23.3348 40.637 23.3348C45.2911 23.3348 49.0686 27.1123 49.0686 31.7664C49.0686 36.4204 45.2911 40.198 40.637 40.198Z" fill="#69C5F3"/>
<path d="M40.6371 24.9635C36.8596 24.9635 33.8125 28.0105 33.8125 31.7881C33.8125 35.5656 36.8596 38.5918 40.6371 38.5918C44.4147 38.5918 47.4618 35.5447 47.4618 31.7672C47.4618 27.9897 44.3938 24.9635 40.6371 24.9635ZM40.6371 38.4457C36.9431 38.4457 33.9586 35.4612 33.9586 31.7672C33.9586 28.0732 36.9431 25.0887 40.6371 25.0887C44.3312 25.0887 47.3157 28.0732 47.3157 31.7672C47.3157 35.4612 44.3103 38.4457 40.6371 38.4457Z" fill="#68C5F4"/>
<path d="M34.1053 33.3326H47.1285C47.6711 33.3326 48.0885 33.7708 48.0885 34.2926C48.0885 34.8352 47.6502 35.2526 47.1285 35.2526H34.1053C33.5627 35.2526 33.1452 34.8143 33.1452 34.2926C33.1244 33.7708 33.5627 33.3326 34.1053 33.3326Z" fill="white"/>
<path d="M34.0613 33.5201H47.1261C47.5436 33.5201 47.8983 33.854 47.8983 34.2923V34.3131C47.8983 34.7305 47.5644 35.0853 47.1261 35.0853H34.0613C33.6439 35.0853 33.2891 34.7514 33.2891 34.3131V34.2714C33.3099 33.854 33.6439 33.5201 34.0613 33.5201Z" fill="#0A93E9"/>
<path d="M33.7489 35.0027H47.4607L47.5651 34.9401H33.6445L33.7489 35.0027Z" fill="#1694EA"/>
<path d="M33.4363 34.7527H47.7534L47.7951 34.6901H33.3945L33.4363 34.7527Z" fill="#319DEC"/>
<path d="M33.3125 34.3556H47.901V34.2721H33.3125V34.3556Z" fill="#65B1EE"/>
<path d="M33.4558 33.8326H47.7729L47.7938 33.8743L47.8146 33.916H33.4141L33.4349 33.8743L33.4558 33.8326Z" fill="#8EC6F3"/>
<path d="M33.7698 33.5826H47.4607L47.5233 33.6034L47.586 33.6452H33.6445L33.7072 33.6034L33.7698 33.5826Z" fill="#95CAF3"/>
<path d="M46.7509 33.5201H46.6465C46.6465 33.5201 47.0013 33.7705 47.0013 34.334C47.0013 34.8557 46.6465 35.0853 46.6465 35.0853H46.7509C46.7509 35.0853 47.1057 34.9184 47.1057 34.334C47.1057 33.7079 46.7509 33.5201 46.7509 33.5201Z" fill="url(#paint1_linear_52_519)"/>
<path d="M45.7508 33.5201H45.6465C45.6465 33.5201 45.9596 33.8122 45.9596 34.334C45.9596 34.7931 45.6465 35.0853 45.6465 35.0853H45.7508C45.7508 35.0853 46.0639 34.8557 46.0639 34.334C46.043 33.7705 45.7508 33.5201 45.7508 33.5201Z" fill="url(#paint2_linear_52_519)"/>
<path d="M40.5527 33.5202H40.6571V35.0854H40.5527V33.5202Z" fill="url(#paint3_linear_52_519)"/>
<path d="M39.53 33.5202H39.6344C39.6344 33.5202 39.5926 33.9167 39.5926 34.3341C39.5926 34.7098 39.6344 35.0854 39.6344 35.0854H39.53C39.53 35.0854 39.4883 34.7098 39.4883 34.3341C39.4883 33.9167 39.53 33.5202 39.53 33.5202Z" fill="url(#paint4_linear_52_519)"/>
<path d="M38.5282 33.5202H38.6325C38.6325 33.5202 38.5282 33.9167 38.5282 34.3341C38.5282 34.7098 38.6325 35.0854 38.6325 35.0854H38.5282C38.5282 35.0854 38.4238 34.7098 38.4238 34.3341C38.4238 33.9167 38.5282 33.5202 38.5282 33.5202Z" fill="url(#paint5_linear_52_519)"/>
<path d="M37.5074 33.5201H37.6118C37.6118 33.5201 37.4657 33.9166 37.4657 34.334C37.4657 34.7097 37.6118 35.0853 37.6118 35.0853H37.5074C37.5074 35.0853 37.3613 34.7097 37.3613 34.334C37.3613 33.9166 37.5074 33.5201 37.5074 33.5201Z" fill="url(#paint6_linear_52_519)"/>
<path d="M36.4821 33.5201H36.5865C36.5865 33.5201 36.3778 33.854 36.3778 34.334C36.3778 34.7514 36.5865 35.0853 36.5865 35.0853H36.4821C36.4821 35.0853 36.2734 34.7514 36.2734 34.334C36.2734 33.854 36.4821 33.5201 36.4821 33.5201Z" fill="url(#paint7_linear_52_519)"/>
<path d="M35.4615 33.5201H35.5658C35.5658 33.5201 35.2528 33.8122 35.2528 34.334C35.2528 34.7931 35.5658 35.0853 35.5658 35.0853H35.4615C35.4615 35.0853 35.1484 34.8557 35.1484 34.334C35.1693 33.7705 35.4615 33.5201 35.4615 33.5201Z" fill="url(#paint8_linear_52_519)"/>
<path d="M34.4603 33.5201H34.5646C34.5646 33.5201 34.2098 33.7705 34.2098 34.334C34.2098 34.8557 34.5646 35.0853 34.5646 35.0853H34.4603C34.4603 35.0853 34.1055 34.9184 34.1055 34.334C34.1055 33.7079 34.4603 33.5201 34.4603 33.5201Z" fill="url(#paint9_linear_52_519)"/>
<path d="M40.1988 25.5662L46.7103 36.8361C46.9817 37.2952 46.8147 37.8796 46.3555 38.1509C45.8964 38.4222 45.312 38.2553 45.0407 37.7961L38.5291 26.5262C38.2578 26.067 38.4248 25.4827 38.8839 25.2114C39.3431 24.94 39.9274 25.107 40.1988 25.5662Z" fill="white"/>
<path d="M40.0321 25.6492L46.5645 36.9609C46.7732 37.3156 46.648 37.7957 46.2932 38.0044L46.2515 38.0252C45.8967 38.2339 45.4167 38.1087 45.208 37.7539L38.6755 26.4214C38.4668 26.0666 38.592 25.5866 38.9468 25.3779L38.9677 25.357C39.3434 25.1483 39.8234 25.2735 40.0321 25.6492Z" fill="url(#paint10_linear_52_519)"/>
<path d="M38.5684 26.1083L45.4138 37.9834L45.4556 38.0043L45.4973 38.0252L45.5391 38.046L38.5684 25.983V26.1083Z" fill="url(#paint11_linear_52_519)"/>
<path d="M38.6309 25.7117L45.7894 38.1086H45.8729L38.6726 25.649L38.6517 25.6908L38.6309 25.7117Z" fill="url(#paint12_linear_52_519)"/>
<path d="M38.9238 25.3998L46.2285 38.0263L46.2911 37.9845L38.9864 25.358L38.9238 25.3998Z" fill="url(#paint13_linear_52_519)"/>
<path d="M39.4462 25.2734L46.5838 37.6495L46.563 37.6912L46.5421 37.733L39.3418 25.2526H39.3835L39.4462 25.2734Z" fill="url(#paint14_linear_52_519)"/>
<path d="M39.8225 25.3992L46.668 37.2534V37.3787L39.6973 25.3365L39.739 25.3574L39.7807 25.3783L39.8225 25.3992Z" fill="url(#paint15_linear_52_519)"/>
<path d="M46.3543 36.5857L46.3125 36.5022C46.3125 36.5022 46.2708 36.9196 45.8116 37.2118C45.3734 37.4831 44.9768 37.2952 44.9768 37.2952L45.0186 37.3787C45.0186 37.3787 45.3525 37.6083 45.8534 37.2952C46.3543 37.0031 46.3543 36.5857 46.3543 36.5857ZM45.8325 35.7091L45.7908 35.6256C45.7908 35.6256 45.6864 36.043 45.2481 36.2935C44.8516 36.5439 44.4551 36.4187 44.4551 36.4187L44.4968 36.5022C44.4968 36.5022 44.8516 36.6483 45.3108 36.377C45.7699 36.1056 45.8325 35.7091 45.8325 35.7091Z" fill="#3C98EA"/>
<path d="M45.3325 34.8322L45.2908 34.7487C45.2908 34.7487 45.103 35.1035 44.7064 35.333C44.3516 35.5417 43.9551 35.5417 43.9551 35.5417L43.9968 35.6252C43.9968 35.6252 44.3725 35.6252 44.7482 35.4165C45.1447 35.1869 45.3325 34.8322 45.3325 34.8322Z" fill="#4CA4ED"/>
<path d="M44.8299 33.9552L44.7882 33.8717C44.7882 33.8717 44.5169 34.2265 44.1621 34.4143C43.8281 34.6022 43.4316 34.6648 43.4316 34.6648L43.4733 34.7483C43.4733 34.7483 43.8699 34.6857 44.2038 34.4978C44.5377 34.31 44.8299 33.9552 44.8299 33.9552Z" fill="#4DA7EE"/>
<path d="M42.7654 30.4088L42.8071 30.4923C42.8071 30.4923 42.4523 30.6593 42.0976 30.8471C41.7636 31.0349 41.4714 31.2854 41.4714 31.2854L41.4297 31.2019C41.4297 31.2019 41.7428 30.9515 42.0558 30.7636C42.4106 30.5758 42.7654 30.4088 42.7654 30.4088Z" fill="url(#paint16_linear_52_519)"/>
<path d="M42.2654 29.5319L42.3071 29.6154C42.3071 29.6154 41.9106 29.7406 41.5767 29.9493C41.2428 30.1371 40.9714 30.4293 40.9714 30.4293L40.9297 30.3458C40.9297 30.3458 41.201 30.0536 41.5349 29.8658C41.8689 29.6362 42.2654 29.5319 42.2654 29.5319Z" fill="url(#paint17_linear_52_519)"/>
<path d="M41.3245 28.8419C41.5956 28.7585 41.8041 28.7168 41.8041 28.7168L41.7624 28.6334C41.7624 28.6334 41.5747 28.6543 41.3662 28.7377C41.2411 28.7794 41.2203 28.8836 41.3245 28.8419Z" fill="#9DD4F7"/>
<path d="M40.742 26.9003L40.7837 26.9838C40.7837 26.9838 40.3872 26.8795 39.928 27.1299C39.5315 27.3803 39.448 27.7769 39.448 27.7769L39.4062 27.6934C39.4062 27.6934 39.448 27.3386 39.8863 27.0673C40.3454 26.7751 40.742 26.9003 40.742 26.9003Z" fill="url(#paint18_linear_52_519)"/>
<path d="M40.2383 26.0038L40.3009 26.0872C40.3009 26.0872 39.8835 25.9203 39.4035 26.1916C38.9443 26.4838 38.9443 26.8803 38.9443 26.8803L38.8817 26.7968C38.8817 26.7968 38.84 26.442 39.3409 26.129C39.8626 25.8159 40.2383 26.0038 40.2383 26.0038Z" fill="url(#paint19_linear_52_519)"/>
<path d="M38.8427 33.3311C40.6585 30.2006 42.7455 26.5692 42.7455 26.5692C43.0168 26.11 42.8499 25.5256 42.3907 25.2543C41.9316 24.983 41.3472 25.15 41.0759 25.6091C41.0759 25.6091 38.5297 30.0336 36.6096 33.3311H38.8427ZM37.7157 35.2512C36.8391 36.7538 36.2339 37.8391 36.2339 37.8391C35.9626 38.2982 35.3782 38.4652 34.9191 38.1939C34.4599 37.9226 34.2929 37.3382 34.5643 36.879C34.5643 36.879 34.9191 36.2321 35.4826 35.272C36.1922 35.2512 37.4861 35.2512 37.7157 35.2512Z" fill="white"/>
<path d="M38.6115 33.3314C40.448 30.1591 42.5768 26.4651 42.5768 26.4651C42.7855 26.1103 42.6603 25.6303 42.3055 25.4216L42.2846 25.4007C41.9298 25.192 41.4498 25.3172 41.2411 25.672C41.2411 25.672 38.7367 30.013 36.8166 33.3314H38.6115ZM37.5053 35.2515C36.6705 36.7124 36.0653 37.7559 36.0653 37.7559C35.8566 38.1107 35.3974 38.2359 35.0218 38.0272H34.98C34.6252 37.8185 34.5 37.3594 34.7087 36.9837C34.7087 36.9837 35.1052 36.295 35.7105 35.2515H37.5053Z" fill="url(#paint20_linear_52_519)"/>
<path d="M38.5493 33.3306L42.7025 26.1512V26.026C42.7025 26.026 40.4068 30.0122 38.4867 33.3306H38.5493ZM37.4223 35.2506L35.8362 38.0055L35.7735 38.0473L35.7109 38.0681C35.7109 38.0681 36.4205 36.8368 37.3388 35.2506H37.4223Z" fill="url(#paint21_linear_52_519)"/>
<path d="M38.2362 33.3299L42.619 25.754L42.5981 25.7123L42.5772 25.6705C42.5772 25.6705 40.1771 29.8237 38.1736 33.309L38.2362 33.3299ZM37.1301 35.25L35.4604 38.1301H35.377C35.377 38.1301 36.0865 36.8987 37.0466 35.2291C37.0883 35.25 37.1301 35.25 37.1301 35.25Z" fill="url(#paint22_linear_52_519)"/>
<path d="M37.7771 33.3317C39.8433 29.7629 42.3268 25.4427 42.3268 25.4427L42.2642 25.401L37.6728 33.3317H37.7771ZM36.6501 35.2726C35.7318 36.8796 35.0431 38.0692 35.0431 38.0692L34.9805 38.0275C34.9805 38.0275 35.6483 36.8588 36.5666 35.2726C36.6084 35.2518 36.5875 35.2518 36.6501 35.2726Z" fill="url(#paint23_linear_52_519)"/>
<path d="M37.2768 33.3306C39.3429 29.7618 41.91 25.2955 41.91 25.2955H41.8265C41.8265 25.2955 39.2595 29.7409 37.1933 33.3306H37.2768ZM36.0663 35.2506C35.2315 36.6907 34.668 37.6716 34.668 37.6716L34.6888 37.7133L34.7097 37.7551C34.7097 37.7551 35.3149 36.7115 36.1706 35.2506H36.0663Z" fill="url(#paint24_linear_52_519)"/>
<path d="M36.9638 33.3311L41.5553 25.3795L41.5136 25.4004L41.4719 25.4213L41.451 25.4421C41.451 25.4421 38.9048 29.8458 36.9012 33.3311H36.9638ZM35.8577 35.2511C35.1272 36.5242 34.6055 37.4216 34.6055 37.4216V37.2547C34.6055 37.2547 35.0646 36.4616 35.7742 35.2303C35.8159 35.2511 35.816 35.2511 35.8577 35.2511Z" fill="url(#paint25_linear_52_519)"/>
<path d="M41.0339 26.0045L40.9922 26.0879C40.9922 26.0879 41.3678 25.9001 41.8687 26.1714C42.3279 26.4219 42.3488 26.8601 42.3488 26.8601L42.3905 26.7767C42.3905 26.7767 42.4322 26.3801 41.9105 26.0879C41.3887 25.7958 41.0339 26.0045 41.0339 26.0045Z" fill="url(#paint26_linear_52_519)"/>
<path d="M40.532 26.9032L40.4902 26.9867C40.4902 26.9867 40.9076 26.8614 41.3459 27.1119C41.7633 27.3414 41.8468 27.738 41.8468 27.738L41.8885 27.6545C41.8885 27.6545 41.8468 27.2788 41.3877 27.0284C40.9076 26.7571 40.532 26.9032 40.532 26.9032Z" fill="url(#paint27_linear_52_519)"/>
<path d="M40.0105 27.778L39.9688 27.8614C39.9688 27.8614 40.3444 27.8406 40.7618 28.091C41.1375 28.2997 41.3253 28.6336 41.3253 28.6336L41.3671 28.5502C41.3671 28.5502 41.1792 28.2162 40.8036 28.0075C40.407 27.778 40.0105 27.778 40.0105 27.778Z" fill="url(#paint28_linear_52_519)"/>
<path d="M39.5105 28.6764L39.4688 28.7599C39.4688 28.7599 39.8862 28.8225 40.241 29.0312C40.5749 29.219 40.8253 29.5321 40.8253 29.5321L40.8671 29.4486C40.8671 29.4486 40.6166 29.1355 40.2827 28.9477C39.9279 28.739 39.5105 28.6764 39.5105 28.6764Z" fill="url(#paint29_linear_52_519)"/>
<path d="M38.9871 29.5533L38.9453 29.6368C38.9453 29.6368 39.3419 29.7412 39.6967 29.9499C40.0306 30.1377 40.3019 30.409 40.3019 30.409L40.3436 30.3256C40.3436 30.3256 40.0723 30.0542 39.7384 29.8664C39.4045 29.6786 38.9871 29.5533 38.9871 29.5533Z" fill="url(#paint30_linear_52_519)"/>
<path d="M38.4864 30.4303L38.4238 30.5138C38.4238 30.5138 38.7995 30.6599 39.1543 30.8686C39.4882 31.0564 39.7804 31.286 39.7804 31.286L39.8221 31.2025C39.8221 31.2025 39.53 30.9729 39.196 30.7851C38.8621 30.5973 38.4864 30.4303 38.4864 30.4303Z" fill="url(#paint31_linear_52_519)"/>
<path d="M37.9238 31.4122L37.9656 31.3288L39.3221 32.1009L39.2804 32.1844L37.9238 31.4122Z" fill="url(#paint32_linear_52_519)"/>
<path d="M37.4219 32.3087L37.4636 32.2252C37.4636 32.2252 37.7975 32.4757 38.1523 32.6635C38.4863 32.8513 38.8202 32.9974 38.8202 32.9974L38.7785 33.06C38.7785 33.06 38.4237 32.914 38.0897 32.7261C37.7349 32.5383 37.4219 32.3087 37.4219 32.3087Z" fill="url(#paint33_linear_52_519)"/>
<path d="M37.0887 33.3296C36.9844 33.2462 36.9219 33.1836 36.9219 33.1836L36.9636 33.1002C36.9636 33.1002 37.0887 33.2045 37.2555 33.3296H37.0887Z" fill="#73B9F1"/>
<path d="M36.2737 35.2526C36.3571 35.3152 36.4406 35.3778 36.545 35.4404C36.9206 35.6491 37.2963 35.6282 37.2963 35.6282L37.2546 35.7117C37.2546 35.7117 36.8789 35.7326 36.5032 35.5239C36.3571 35.4404 36.2319 35.3361 36.1484 35.2526H36.2737Z" fill="url(#paint34_linear_52_519)"/>
<path d="M35.377 35.8361L35.4187 35.7526C35.4187 35.7526 35.523 36.17 35.9822 36.4204C36.3996 36.65 36.7753 36.5248 36.7753 36.5248L36.7335 36.6083C36.7335 36.6083 36.3996 36.7543 35.9405 36.5039C35.4604 36.2326 35.377 35.8361 35.377 35.8361Z" fill="url(#paint35_linear_52_519)"/>
<path d="M34.8555 36.7345L34.8972 36.651C34.8972 36.651 34.939 37.0893 35.4398 37.3606C35.899 37.611 36.2538 37.4232 36.2538 37.4232L36.1912 37.5067C36.1912 37.5067 35.8781 37.7363 35.3772 37.4441C34.8555 37.1519 34.8555 36.7345 34.8555 36.7345Z" fill="url(#paint36_linear_52_519)"/>
<path d="M41.6179 42.2844L50.5505 23.522L48.2965 22.4576L38.9883 41.9713C38.9883 41.9713 39.2805 42.1174 39.6561 42.2844H41.6179Z" fill="url(#paint37_linear_52_519)"/>
<path d="M46.8983 21.3307L51.0724 23.3134V29.3031C49.6324 28.6144 39.9902 24.0229 39.9902 24.0229C39.9902 24.0229 40.6581 22.6246 41.2842 21.3307H46.8983Z" fill="url(#paint38_radial_52_519)"/>
<path d="M36.5453 41.4489C36.4827 41.5741 36.3783 41.7202 36.3992 41.9497C36.4201 42.8054 37.8184 43.5985 38.6323 43.5985C39.1958 43.5985 39.3837 43.3689 39.5924 42.9515C39.8011 42.5341 36.7749 40.948 36.5453 41.4489Z" fill="url(#paint39_radial_52_519)"/>
<path d="M46.1659 23.6881C46.1659 23.6881 48.3155 24.2099 48.4825 24.356C48.6494 24.502 48.2112 25.3369 48.1277 25.4621C47.439 26.2969 45.2893 30.9092 45.2893 30.9092L43.3066 29.7822C43.3066 29.7822 45.0806 26.4847 45.7067 25.316C46.1032 24.5229 46.1659 23.6881 46.1659 23.6881Z" fill="url(#paint40_linear_52_519)"/>
<path d="M51.135 22.6038C51.5106 22.8751 52.0115 22.8125 52.4081 22.7499C52.6794 22.7082 52.262 23.1047 51.8028 24.023C51.3437 24.9413 51.3645 25.0039 51.3019 24.9413C51.2393 24.8787 49.1731 23.7099 49.2358 23.6056C49.3192 23.5012 49.6532 21.2264 49.8201 21.289C50.4254 21.4351 50.5297 22.1655 51.135 22.6038Z" fill="url(#paint41_linear_52_519)"/>
<path d="M47.9227 25.1708C48.0688 24.9413 48.7366 23.5221 49.801 23.5221C50.2811 23.5221 51.1994 24.7326 51.2828 24.8995C51.3455 25.0456 51.1367 25.63 51.0324 25.3587C50.9072 25.0456 50.3854 24.3778 49.8219 24.3778C49.2584 24.3778 48.4862 25.0247 48.2984 25.2543C48.1105 25.463 47.7766 25.4004 47.9227 25.1708Z" fill="url(#paint42_linear_52_519)"/>
<path d="M47.8785 25.0878C47.9829 24.9209 48.4629 24.1904 48.6925 23.9608C48.9221 23.7313 49.5064 23.126 50.0073 23.0426C50.5082 22.9591 51.03 23.9817 50.863 24.1904C50.7378 24.3365 50.5291 24.1695 50.2786 23.9608C50.0282 23.773 49.8612 23.3973 49.0681 24.0026C48.7968 24.2113 48.5255 24.3782 47.8994 25.2757C47.7324 25.5052 47.7742 25.2548 47.8785 25.0878Z" fill="url(#paint43_linear_52_519)"/>
<path d="M45.2926 31.182C45.376 31.015 45.4804 30.7646 45.2508 30.5767C45.0004 30.3889 43.8316 29.7628 43.6229 29.721C43.4142 29.6793 43.2473 29.721 43.1638 29.8671C43.0803 30.0132 36.6731 40.991 36.5478 41.304C36.4226 41.6171 36.4017 41.8466 36.5896 41.9092C36.7774 41.9719 38.9271 42.9945 39.1358 43.2241C39.3445 43.4536 39.4488 43.2032 39.5323 43.078C39.9288 42.5771 45.1882 31.3489 45.2926 31.182Z" fill="url(#paint44_linear_52_519)"/>
<path d="M48.0249 25.0454C48.1293 24.8993 48.3797 24.4819 48.6928 24.1062C48.9015 23.8558 50.0285 23.3132 50.2789 22.4366C50.425 21.9566 50.1954 21.4766 49.8824 21.2679C48.818 20.6209 46.9814 19.5983 44.2891 19.5983C42.4734 19.5983 41.7012 20.2035 41.7012 20.2035H42.6195L45.8126 21.4557L46.2092 23.1253C46.2092 23.1253 46.2509 23.6888 46.0631 24.3358C45.9379 24.8576 45.8961 25.1706 45.7083 25.6924C45.8544 25.755 46.1883 25.5254 46.564 25.6298C46.8979 25.7132 47.1066 26.1724 47.3362 25.9011C47.7327 25.3793 47.8579 25.275 48.0249 25.0454Z" fill="url(#paint45_linear_52_519)"/>
<path d="M46.146 23.7523C45.979 22.2079 45.6033 20.747 41.6797 20.7679C41.9301 20.5174 42.5354 20.267 42.5354 20.267L41.6797 20.2044C41.6797 20.2044 41.8049 20.1 42.0553 20.0792C44.3511 19.8913 46.3964 20.3714 46.2503 23.3558C46.2294 23.8358 46.1877 24.0445 46.146 23.7523Z" fill="url(#paint46_linear_52_519)"/>
<path d="M41.6797 20.7663C41.951 20.6619 42.3267 20.5993 43.0363 20.6411C43.9128 20.6828 45.0189 21.0167 45.4781 21.4341C45.7077 21.6428 45.6868 21.4759 45.4364 21.2046C44.7894 20.4532 43.8085 20.2863 42.5354 20.2654C42.3893 20.2445 41.9092 20.5159 41.6797 20.7663Z" fill="url(#paint47_linear_52_519)"/>
<path d="M52.4497 22.7506L53.5976 23.335C53.5976 23.335 53.1593 23.9194 52.8045 24.5872C52.4288 25.2968 52.1784 26.069 52.1784 26.069L51.0723 25.4011C51.0723 25.4011 51.3436 24.6498 51.7401 23.9194C52.0532 23.3141 52.4497 22.7506 52.4497 22.7506Z" fill="url(#paint48_linear_52_519)"/>
<path d="M53.5964 23.3328C53.6799 23.3745 53.4086 24.0215 53.012 24.7728C52.6155 25.5242 52.2398 26.1085 52.1772 26.0668C52.0937 26.025 52.365 25.3781 52.7616 24.6267C53.1372 23.8754 53.5129 23.2911 53.5964 23.3328Z" fill="#BFC0D0"/>
</g>
</g>
</g>
</g>
<path d="M65.843 31.702L68.867 36.56H67.075L64.877 33.032L62.819 36.56H61.041L64.065 31.702L61.027 26.83H62.819L65.031 30.386L67.103 26.83H68.881L65.843 31.702ZM70.0872 32.696C70.0872 31.9027 70.2459 31.2073 70.5632 30.61C70.8899 30.0033 71.3379 29.5367 71.9072 29.21C72.4765 28.8833 73.1299 28.72 73.8672 28.72C74.8005 28.72 75.5705 28.944 76.1772 29.392C76.7932 29.8307 77.2085 30.4607 77.4232 31.282H75.7012C75.5612 30.8993 75.3372 30.6007 75.0292 30.386C74.7212 30.1713 74.3339 30.064 73.8672 30.064C73.2139 30.064 72.6912 30.2973 72.2992 30.764C71.9165 31.2213 71.7252 31.8653 71.7252 32.696C71.7252 33.5267 71.9165 34.1753 72.2992 34.642C72.6912 35.1087 73.2139 35.342 73.8672 35.342C74.7912 35.342 75.4025 34.936 75.7012 34.124H77.4232C77.1992 34.908 76.7792 35.5333 76.1632 36C75.5472 36.4573 74.7819 36.686 73.8672 36.686C73.1299 36.686 72.4765 36.5227 71.9072 36.196C71.3379 35.86 70.8899 35.3933 70.5632 34.796C70.2459 34.1893 70.0872 33.4893 70.0872 32.696ZM82.3597 36.686C81.6317 36.686 80.9737 36.5227 80.3857 36.196C79.7977 35.86 79.3357 35.3933 78.9997 34.796C78.6637 34.1893 78.4957 33.4893 78.4957 32.696C78.4957 31.912 78.6684 31.2167 79.0137 30.61C79.3591 30.0033 79.8304 29.5367 80.4277 29.21C81.0251 28.8833 81.6924 28.72 82.4297 28.72C83.1671 28.72 83.8344 28.8833 84.4317 29.21C85.0291 29.5367 85.5004 30.0033 85.8457 30.61C86.1911 31.2167 86.3637 31.912 86.3637 32.696C86.3637 33.48 86.1864 34.1753 85.8317 34.782C85.4771 35.3887 84.9917 35.86 84.3757 36.196C83.7691 36.5227 83.0971 36.686 82.3597 36.686ZM82.3597 35.3C82.7704 35.3 83.1531 35.202 83.5077 35.006C83.8717 34.81 84.1657 34.516 84.3897 34.124C84.6137 33.732 84.7257 33.256 84.7257 32.696C84.7257 32.136 84.6184 31.6647 84.4037 31.282C84.1891 30.89 83.9044 30.596 83.5497 30.4C83.1951 30.204 82.8124 30.106 82.4017 30.106C81.9911 30.106 81.6084 30.204 81.2537 30.4C80.9084 30.596 80.6331 30.89 80.4277 31.282C80.2224 31.6647 80.1197 32.136 80.1197 32.696C80.1197 33.5267 80.3297 34.1707 80.7497 34.628C81.1791 35.076 81.7157 35.3 82.3597 35.3ZM87.4095 32.668C87.4095 31.8933 87.5681 31.2073 87.8855 30.61C88.2121 30.0127 88.6508 29.5507 89.2015 29.224C89.7615 28.888 90.3821 28.72 91.0635 28.72C91.5675 28.72 92.0621 28.832 92.5475 29.056C93.0421 29.2707 93.4341 29.56 93.7235 29.924V26.2H95.3335V36.56H93.7235V35.398C93.4621 35.7713 93.0981 36.0793 92.6315 36.322C92.1741 36.5647 91.6468 36.686 91.0495 36.686C90.3775 36.686 89.7615 36.518 89.2015 36.182C88.6508 35.8367 88.2121 35.3607 87.8855 34.754C87.5681 34.138 87.4095 33.4427 87.4095 32.668ZM93.7235 32.696C93.7235 32.164 93.6115 31.702 93.3875 31.31C93.1728 30.918 92.8881 30.6193 92.5335 30.414C92.1788 30.2087 91.7961 30.106 91.3855 30.106C90.9748 30.106 90.5921 30.2087 90.2375 30.414C89.8828 30.61 89.5935 30.904 89.3695 31.296C89.1548 31.6787 89.0475 32.136 89.0475 32.668C89.0475 33.2 89.1548 33.6667 89.3695 34.068C89.5935 34.4693 89.8828 34.7773 90.2375 34.992C90.6015 35.1973 90.9841 35.3 91.3855 35.3C91.7961 35.3 92.1788 35.1973 92.5335 34.992C92.8881 34.7867 93.1728 34.488 93.3875 34.096C93.6115 33.6947 93.7235 33.228 93.7235 32.696ZM104.5 32.514C104.5 32.8033 104.481 33.0647 104.444 33.298H98.5497C98.5964 33.914 98.8251 34.4087 99.2357 34.782C99.6464 35.1553 100.15 35.342 100.748 35.342C101.606 35.342 102.213 34.9827 102.568 34.264H104.29C104.056 34.9733 103.632 35.5567 103.016 36.014C102.409 36.462 101.653 36.686 100.748 36.686C100.01 36.686 99.3477 36.5227 98.7597 36.196C98.1811 35.86 97.7237 35.3933 97.3877 34.796C97.0611 34.1893 96.8977 33.4893 96.8977 32.696C96.8977 31.9027 97.0564 31.2073 97.3737 30.61C97.7004 30.0033 98.1531 29.5367 98.7317 29.21C99.3197 28.8833 99.9917 28.72 100.748 28.72C101.476 28.72 102.124 28.8787 102.694 29.196C103.263 29.5133 103.706 29.9613 104.024 30.54C104.341 31.1093 104.5 31.7673 104.5 32.514ZM102.834 32.01C102.824 31.422 102.614 30.9507 102.204 30.596C101.793 30.2413 101.284 30.064 100.678 30.064C100.127 30.064 99.6557 30.2413 99.2637 30.596C98.8717 30.9413 98.6384 31.4127 98.5637 32.01H102.834Z" fill="black"/>
</g>
<defs>
<filter id="filter0_d_52_519" x="0.150391" y="0" width="134.71" height="63.2" filterUnits="userSpaceOnUse" color-interpolation-filters="sRGB">
<feFlood flood-opacity="0" result="BackgroundImageFix"/>
<feColorMatrix in="SourceAlpha" type="matrix" values="0 0 0 0 0 0 0 0 0 0 0 0 0 0 0 0 0 0 127 0" result="hardAlpha"/>
<feOffset/>
<feGaussianBlur stdDeviation="5"/>
<feComposite in2="hardAlpha" operator="out"/>
<feColorMatrix type="matrix" values="0 0 0 0 0 0 0 0 0 0 0 0 0 0 0 0 0 0 0.05 0"/>
<feBlend mode="normal" in2="BackgroundImageFix" result="effect1_dropShadow_52_519"/>
<feBlend mode="normal" in="SourceGraphic" in2="effect1_dropShadow_52_519" result="shape"/>
</filter>
<linearGradient id="paint0_linear_52_519" x1="1076.73" y1="2115.97" x2="1076.73" y2="20.9968" gradientUnits="userSpaceOnUse">
<stop stop-color="#1578E4"/>
<stop offset="1" stop-color="#00C3F2"/>
</linearGradient>
<linearGradient id="paint1_linear_52_519" x1="70.3763" y1="189.337" x2="70.3763" y2="33.1861" gradientUnits="userSpaceOnUse">
<stop stop-color="#1492E7"/>
<stop offset="1" stop-color="#DBEDFB"/>
</linearGradient>
<linearGradient id="paint2_linear_52_519" x1="65.3064" y1="189.337" x2="65.3064" y2="33.1861" gradientUnits="userSpaceOnUse">
<stop stop-color="#1492E7"/>
<stop offset="1" stop-color="#DBEDFB"/>
</linearGradient>
<linearGradient id="paint3_linear_52_519" x1="45.7391" y1="189.337" x2="45.7391" y2="33.1862" gradientUnits="userSpaceOnUse">
<stop stop-color="#1492E7"/>
<stop offset="1" stop-color="#DBEDFB"/>
</linearGradient>
<linearGradient id="paint4_linear_52_519" x1="46.8221" y1="189.337" x2="46.8221" y2="33.1862" gradientUnits="userSpaceOnUse">
<stop stop-color="#1492E7"/>
<stop offset="1" stop-color="#DBEDFB"/>
</linearGradient>
<linearGradient id="paint5_linear_52_519" x1="47.9825" y1="189.337" x2="47.9825" y2="33.1862" gradientUnits="userSpaceOnUse">
<stop stop-color="#1492E7"/>
<stop offset="1" stop-color="#DBEDFB"/>
</linearGradient>
<linearGradient id="paint6_linear_52_519" x1="49.1114" y1="189.337" x2="49.1114" y2="33.1861" gradientUnits="userSpaceOnUse">
<stop stop-color="#1492E7"/>
<stop offset="1" stop-color="#DBEDFB"/>
</linearGradient>
<linearGradient id="paint7_linear_52_519" x1="52.3019" y1="189.337" x2="52.3019" y2="33.1861" gradientUnits="userSpaceOnUse">
<stop stop-color="#1492E7"/>
<stop offset="1" stop-color="#DBEDFB"/>
</linearGradient>
<linearGradient id="paint8_linear_52_519" x1="57.1042" y1="189.337" x2="57.1042" y2="33.1861" gradientUnits="userSpaceOnUse">
<stop stop-color="#1492E7"/>
<stop offset="1" stop-color="#DBEDFB"/>
</linearGradient>
<linearGradient id="paint9_linear_52_519" x1="56.1656" y1="189.337" x2="56.1656" y2="33.1861" gradientUnits="userSpaceOnUse">
<stop stop-color="#1492E7"/>
<stop offset="1" stop-color="#DBEDFB"/>
</linearGradient>
<linearGradient id="paint10_linear_52_519" x1="442.735" y1="1311.52" x2="442.735" y2="25.7519" gradientUnits="userSpaceOnUse">
<stop stop-color="#1285E7"/>
<stop offset="1" stop-color="#00B5EF"/>
</linearGradient>
<linearGradient id="paint11_linear_52_519" x1="502.539" y1="1233.91" x2="-78.1535" y2="228.091" gradientUnits="userSpaceOnUse">
<stop stop-color="#2B90E7"/>
<stop offset="1" stop-color="#00B6EF"/>
</linearGradient>
<linearGradient id="paint12_linear_52_519" x1="522.17" y1="1274.25" x2="-78.4796" y2="233.888" gradientUnits="userSpaceOnUse">
<stop stop-color="#3795EA"/>
<stop offset="1" stop-color="#49C4F2"/>
</linearGradient>
<linearGradient id="paint13_linear_52_519" x1="530.639" y1="1290.82" x2="-78.1585" y2="236.343" gradientUnits="userSpaceOnUse">
<stop stop-color="#3696EA"/>
<stop offset="1" stop-color="#90D9F6"/>
</linearGradient>
<linearGradient id="paint14_linear_52_519" x1="523.242" y1="1271.87" x2="-77.6764" y2="231.042" gradientUnits="userSpaceOnUse">
<stop stop-color="#3097EA"/>
<stop offset="1" stop-color="#B5E5F9"/>
</linearGradient>
<linearGradient id="paint15_linear_52_519" x1="505.6" y1="1229.26" x2="-74.5776" y2="224.346" gradientUnits="userSpaceOnUse">
<stop stop-color="#3A98EA"/>
<stop offset="1" stop-color="#BCE7FA"/>
</linearGradient>
<linearGradient id="paint16_linear_52_519" x1="43.1202" y1="89.6688" x2="158.17" y2="23.2425" gradientUnits="userSpaceOnUse">
<stop stop-color="#00A4EC"/>
<stop offset="1" stop-color="#B9DFF6"/>
</linearGradient>
<linearGradient id="paint17_linear_52_519" x1="40.6584" y1="89.073" x2="156.345" y2="22.2686" gradientUnits="userSpaceOnUse">
<stop stop-color="#00A4EC"/>
<stop offset="1" stop-color="#B9DFF6"/>
</linearGradient>
<linearGradient id="paint18_linear_52_519" x1="33.7712" y1="83.5473" x2="148.92" y2="17.077" gradientUnits="userSpaceOnUse">
<stop stop-color="#00B4EF"/>
<stop offset="1" stop-color="#C3E9FA"/>
</linearGradient>
<linearGradient id="paint19_linear_52_519" x1="33.2058" y1="84.3655" x2="149.141" y2="17.428" gradientUnits="userSpaceOnUse">
<stop stop-color="#00B4EF"/>
<stop offset="1" stop-color="#C3E9FA"/>
</linearGradient>
<linearGradient id="paint20_linear_52_519" x1="438.477" y1="1310.62" x2="438.477" y2="24.8664" gradientUnits="userSpaceOnUse">
<stop stop-color="#1285E7"/>
<stop offset="1" stop-color="#00B5EF"/>
</linearGradient>
<linearGradient id="paint21_linear_52_519" x1="268.726" y1="1232.97" x2="849.964" y2="226.243" gradientUnits="userSpaceOnUse">
<stop stop-color="#3194E9"/>
<stop offset="1" stop-color="#71CFF4"/>
</linearGradient>
<linearGradient id="paint22_linear_52_519" x1="276.296" y1="1275.42" x2="877.019" y2="234.913" gradientUnits="userSpaceOnUse">
<stop stop-color="#5AA6EC"/>
<stop offset="1" stop-color="#A2DEF8"/>
</linearGradient>
<linearGradient id="paint23_linear_52_519" x1="279.604" y1="1289.82" x2="888.053" y2="235.947" gradientUnits="userSpaceOnUse">
<stop stop-color="#66ABEE"/>
<stop offset="1" stop-color="#BEE8FA"/>
</linearGradient>
<linearGradient id="paint24_linear_52_519" x1="274.917" y1="1270.87" x2="876.038" y2="229.689" gradientUnits="userSpaceOnUse">
<stop stop-color="#7BB6F0"/>
<stop offset="1" stop-color="#B1E3F9"/>
</linearGradient>
<linearGradient id="paint25_linear_52_519" x1="265.357" y1="1229.01" x2="845.484" y2="224.176" gradientUnits="userSpaceOnUse">
<stop stop-color="#5AA6EC"/>
<stop offset="1" stop-color="#AFE3F9"/>
</linearGradient>
<linearGradient id="paint26_linear_52_519" x1="52.7214" y1="50.406" x2="168.95" y2="117.513" gradientUnits="userSpaceOnUse">
<stop stop-color="#C1E7FA"/>
<stop offset="1" stop-color="#89D4F5"/>
</linearGradient>
<linearGradient id="paint27_linear_52_519" x1="50.0072" y1="51.1924" x2="164.585" y2="117.329" gradientUnits="userSpaceOnUse">
<stop stop-color="#C1E7FA"/>
<stop offset="1" stop-color="#89D4F5"/>
</linearGradient>
<linearGradient id="paint28_linear_52_519" x1="47.7534" y1="53.0166" x2="161.759" y2="118.832" gradientUnits="userSpaceOnUse">
<stop stop-color="#C1E7FA"/>
<stop offset="1" stop-color="#89D4F5"/>
</linearGradient>
<linearGradient id="paint29_linear_52_519" x1="44.916" y1="54.3058" x2="158.913" y2="120.134" gradientUnits="userSpaceOnUse">
<stop stop-color="#B0DFF8"/>
<stop offset="1" stop-color="#52BDF2"/>
</linearGradient>
<linearGradient id="paint30_linear_52_519" x1="44.1629" y1="56.3472" x2="158.205" y2="122.181" gradientUnits="userSpaceOnUse">
<stop stop-color="#B4DEF8"/>
<stop offset="1" stop-color="#4EB5F0"/>
</linearGradient>
<linearGradient id="paint31_linear_52_519" x1="43.4327" y1="58.3886" x2="157.438" y2="124.205" gradientUnits="userSpaceOnUse">
<stop stop-color="#B4DEF8"/>
<stop offset="1" stop-color="#4EB5F0"/>
</linearGradient>
<linearGradient id="paint32_linear_52_519" x1="40.8248" y1="59.545" x2="154.807" y2="125.358" gradientUnits="userSpaceOnUse">
<stop stop-color="#B5DDF8"/>
<stop offset="1" stop-color="#46AEEE"/>
</linearGradient>
<linearGradient id="paint33_linear_52_519" x1="38.1523" y1="60.7247" x2="151.562" y2="126.204" gradientUnits="userSpaceOnUse">
<stop stop-color="#96CEF4"/>
<stop offset="1" stop-color="#46AAEE"/>
</linearGradient>
<linearGradient id="paint34_linear_52_519" x1="38.632" y1="53.3298" x2="120.452" y2="100.572" gradientUnits="userSpaceOnUse">
<stop stop-color="#8FC1F2"/>
<stop offset="1" stop-color="#3193EA"/>
</linearGradient>
<linearGradient id="paint35_linear_52_519" x1="29.8254" y1="69.167" x2="145.128" y2="135.74" gradientUnits="userSpaceOnUse">
<stop stop-color="#8FC1F2"/>
<stop offset="1" stop-color="#3193EA"/>
</linearGradient>
<linearGradient id="paint36_linear_52_519" x1="29.0952" y1="70.5498" x2="145.755" y2="137.916" gradientUnits="userSpaceOnUse">
<stop stop-color="#8FC1F2"/>
<stop offset="1" stop-color="#3193EA"/>
</linearGradient>
<linearGradient id="paint37_linear_52_519" x1="566.154" y1="976.915" x2="687.531" y2="1036.11" gradientUnits="userSpaceOnUse">
<stop offset="0.001"/>
<stop offset="1" stop-opacity="0"/>
</linearGradient>
<radialGradient id="paint38_radial_52_519" cx="0" cy="0" r="1" gradientUnits="userSpaceOnUse" gradientTransform="translate(-348.782 554.113) rotate(109.896) scale(445.953 255.715)">
<stop/>
<stop offset="1" stop-opacity="0"/>
</radialGradient>
<radialGradient id="paint39_radial_52_519" cx="0" cy="0" r="1" gradientUnits="userSpaceOnUse" gradientTransform="translate(93.5335 205.128) rotate(34.9808) scale(180.707 150.469)">
<stop offset="0.417" stop-color="#0C0C12"/>
<stop offset="1" stop-color="#3D4651"/>
</radialGradient>
<linearGradient id="paint40_linear_52_519" x1="253.59" y1="317.415" x2="379.915" y2="381.782" gradientUnits="userSpaceOnUse">
<stop stop-color="#344351"/>
<stop offset="0.1" stop-color="#9697A0"/>
<stop offset="0.181" stop-color="#8B8C95"/>
<stop offset="0.351" stop-color="#787A83"/>
<stop offset="0.47" stop-color="#71747D"/>
<stop offset="0.591" stop-color="#777982"/>
<stop offset="0.749" stop-color="#87898F"/>
<stop offset="0.8" stop-color="#8E8F94"/>
<stop offset="0.849" stop-color="#3D3B42"/>
<stop offset="0.9" stop-color="#606E84"/>
</linearGradient>
<linearGradient id="paint41_linear_52_519" x1="290.893" y1="348.179" x2="78.1045" y2="60.6276" gradientUnits="userSpaceOnUse">
<stop offset="0.27" stop-color="#262B33"/>
<stop offset="0.45" stop-color="#74747E"/>
<stop offset="0.54" stop-color="#B0B0BC"/>
<stop offset="0.73" stop-color="#74747E"/>
</linearGradient>
<linearGradient id="paint42_linear_52_519" x1="41.9248" y1="129.06" x2="377.722" y2="85.6844" gradientUnits="userSpaceOnUse">
<stop offset="0.14" stop-color="#606E84"/>
<stop offset="0.4" stop-color="#9899A5"/>
<stop offset="0.73" stop-color="#475768"/>
<stop offset="0.92" stop-color="#262B33"/>
</linearGradient>
<linearGradient id="paint43_linear_52_519" x1="209.871" y1="189.408" x2="190.906" y2="81.8639" gradientUnits="userSpaceOnUse">
<stop stop-color="#101215" stop-opacity="0.1"/>
<stop offset="0.46" stop-color="#101215" stop-opacity="0.7"/>
<stop offset="0.7" stop-color="#474951"/>
<stop offset="0.91" stop-color="#7B7D88"/>
</linearGradient>
<linearGradient id="paint44_linear_52_519" x1="417.505" y1="609.783" x2="588.419" y2="693.883" gradientUnits="userSpaceOnUse">
<stop offset="0.115" stop-color="#2C3952"/>
<stop offset="0.374" stop-color="#3D414E"/>
<stop offset="0.55" stop-color="#474A54"/>
<stop offset="0.754" stop-color="#4E5057"/>
<stop offset="0.892" stop-color="#323945"/>
<stop offset="1" stop-color="#143052"/>
</linearGradient>
<linearGradient id="paint45_linear_52_519" x1="298.574" y1="463.538" x2="451.287" y2="128.46" gradientUnits="userSpaceOnUse">
<stop offset="0.118" stop-color="#6D7078" stop-opacity="0"/>
<stop offset="0.2" stop-color="#6D7078" stop-opacity="0.7"/>
<stop offset="0.34" stop-color="#35363A"/>
<stop offset="0.374" stop-color="#1D1F22"/>
<stop offset="0.4" stop-color="#101215"/>
<stop offset="0.5" stop-color="#16171A"/>
<stop offset="0.56" stop-color="#292A2E"/>
<stop offset="0.688" stop-color="#4B4D51"/>
<stop offset="0.807" stop-color="#63666B"/>
<stop offset="0.915" stop-color="#72757B"/>
<stop offset="1" stop-color="#777A80"/>
</linearGradient>
<linearGradient id="paint46_linear_52_519" x1="40.9283" y1="212.207" x2="499.285" y2="212.207" gradientUnits="userSpaceOnUse">
<stop stop-color="#4A4D56"/>
<stop offset="1" stop-color="#29292D"/>
</linearGradient>
<linearGradient id="paint47_linear_52_519" x1="40.9283" y1="82.9256" x2="437.258" y2="82.9256" gradientUnits="userSpaceOnUse">
<stop stop-color="#767880"/>
<stop offset="0.41" stop-color="#0C0A0B"/>
</linearGradient>
<linearGradient id="paint48_linear_52_519" x1="131.191" y1="318.189" x2="268.913" y2="79.6418" gradientUnits="userSpaceOnUse">
<stop stop-color="#858997"/>
<stop offset="0.23" stop-color="#244668"/>
<stop offset="0.282" stop-color="#1A3249"/>
<stop offset="0.4" stop-color="#040506"/>
<stop offset="0.464" stop-color="#313236"/>
<stop offset="0.546" stop-color="#65656E"/>
<stop offset="0.607" stop-color="#868691"/>
<stop offset="0.64" stop-color="#92929E"/>
</linearGradient>
<clipPath id="clip0_52_519">
<rect width="24" height="24" fill="white" transform="translate(30.1504 19.61)"/>
</clipPath>
<clipPath id="clip1_52_519">
<rect width="24" height="24" fill="white" transform="translate(30.1504 19.61)"/>
</clipPath>
<clipPath id="clip2_52_519">
<rect width="24" height="24" fill="white" transform="translate(30.1504 19.61)"/>
</clipPath>
</defs>
</svg>
