<svg width="143" height="65" viewBox="0 0 143 65" fill="none" xmlns="http://www.w3.org/2000/svg">
<g filter="url(#filter0_d_52_433)">
<rect x="10.8008" y="10" width="121.71" height="44.2" rx="22.1" fill="white" shape-rendering="crispEdges"/>
<g clip-path="url(#clip0_52_433)">
<g clip-path="url(#clip1_52_433)">
<g clip-path="url(#clip2_52_433)">
<path d="M43.8285 20.2567C43.4734 20.0559 43.0518 20.0559 42.6968 20.2567L33.3555 25.6821C33.0005 25.883 32.8008 26.2625 32.8008 26.6645V37.5373C32.8008 37.9393 33.0226 38.3187 33.3555 38.5197L42.6968 43.9451C43.0518 44.1459 43.4734 44.1459 43.8285 43.9451L53.1696 38.5197C53.5248 38.3187 53.7243 37.9393 53.7243 37.5373V26.6645C53.7243 26.2625 53.5025 25.883 53.1696 25.6821L43.8285 20.2567Z" fill="url(#paint0_linear_52_433)"/>
<path d="M53.1933 25.682L43.8077 20.2567C43.719 20.2121 43.608 20.1674 43.5193 20.1451L33.002 38.2518C33.0907 38.3634 33.2017 38.4527 33.3125 38.5197L42.6983 43.945C42.9646 44.1013 43.2751 44.1459 43.5636 44.0566L53.4374 25.883C53.3708 25.7937 53.2821 25.7267 53.1933 25.682Z" fill="url(#paint1_linear_52_433)"/>
<path d="M53.1919 38.5194C53.4582 38.3631 53.6579 38.0952 53.7466 37.8049L43.4733 20.1225C43.2072 20.0778 42.9186 20.1001 42.6746 20.2564L33.3555 25.6594L43.4068 44.101C43.5399 44.0786 43.6953 44.034 43.8285 43.967L53.1919 38.5194Z" fill="url(#paint2_linear_52_433)"/>
</g>
</g>
</g>
<path d="M70.0323 37.06H68.4363L63.6343 29.794V37.06H62.0383V27.316H63.6343L68.4363 34.568V27.316H70.0323V37.06ZM75.4742 37.186C74.7462 37.186 74.0882 37.0227 73.5002 36.696C72.9122 36.36 72.4502 35.8933 72.1142 35.296C71.7782 34.6893 71.6102 33.9893 71.6102 33.196C71.6102 32.412 71.7828 31.7167 72.1282 31.11C72.4735 30.5033 72.9448 30.0367 73.5422 29.71C74.1395 29.3833 74.8068 29.22 75.5442 29.22C76.2815 29.22 76.9488 29.3833 77.5462 29.71C78.1435 30.0367 78.6148 30.5033 78.9602 31.11C79.3055 31.7167 79.4782 32.412 79.4782 33.196C79.4782 33.98 79.3008 34.6753 78.9462 35.282C78.5915 35.8887 78.1062 36.36 77.4902 36.696C76.8835 37.0227 76.2115 37.186 75.4742 37.186ZM75.4742 35.8C75.8848 35.8 76.2675 35.702 76.6222 35.506C76.9862 35.31 77.2802 35.016 77.5042 34.624C77.7282 34.232 77.8402 33.756 77.8402 33.196C77.8402 32.636 77.7328 32.1647 77.5182 31.782C77.3035 31.39 77.0188 31.096 76.6642 30.9C76.3095 30.704 75.9268 30.606 75.5162 30.606C75.1055 30.606 74.7228 30.704 74.3682 30.9C74.0228 31.096 73.7475 31.39 73.5422 31.782C73.3368 32.1647 73.2342 32.636 73.2342 33.196C73.2342 34.0267 73.4442 34.6707 73.8642 35.128C74.2935 35.576 74.8302 35.8 75.4742 35.8ZM80.5239 33.168C80.5239 32.3933 80.6826 31.7073 80.9999 31.11C81.3266 30.5127 81.7652 30.0507 82.3159 29.724C82.8759 29.388 83.4966 29.22 84.1779 29.22C84.6819 29.22 85.1766 29.332 85.6619 29.556C86.1566 29.7707 86.5486 30.06 86.8379 30.424V26.7H88.4479V37.06H86.8379V35.898C86.5766 36.2713 86.2126 36.5793 85.7459 36.822C85.2886 37.0647 84.7612 37.186 84.1639 37.186C83.4919 37.186 82.8759 37.018 82.3159 36.682C81.7652 36.3367 81.3266 35.8607 80.9999 35.254C80.6826 34.638 80.5239 33.9427 80.5239 33.168ZM86.8379 33.196C86.8379 32.664 86.7259 32.202 86.5019 31.81C86.2872 31.418 86.0026 31.1193 85.6479 30.914C85.2932 30.7087 84.9106 30.606 84.4999 30.606C84.0892 30.606 83.7066 30.7087 83.3519 30.914C82.9972 31.11 82.7079 31.404 82.4839 31.796C82.2692 32.1787 82.1619 32.636 82.1619 33.168C82.1619 33.7 82.2692 34.1667 82.4839 34.568C82.7079 34.9693 82.9972 35.2773 83.3519 35.492C83.7159 35.6973 84.0986 35.8 84.4999 35.8C84.9106 35.8 85.2932 35.6973 85.6479 35.492C86.0026 35.2867 86.2872 34.988 86.5019 34.596C86.7259 34.1947 86.8379 33.728 86.8379 33.196ZM97.6142 33.014C97.6142 33.3033 97.5955 33.5647 97.5582 33.798H91.6642C91.7109 34.414 91.9395 34.9087 92.3502 35.282C92.7609 35.6553 93.2649 35.842 93.8622 35.842C94.7209 35.842 95.3275 35.4827 95.6822 34.764H97.4042C97.1709 35.4733 96.7462 36.0567 96.1302 36.514C95.5235 36.962 94.7675 37.186 93.8622 37.186C93.1249 37.186 92.4622 37.0227 91.8742 36.696C91.2955 36.36 90.8382 35.8933 90.5022 35.296C90.1755 34.6893 90.0122 33.9893 90.0122 33.196C90.0122 32.4027 90.1709 31.7073 90.4882 31.11C90.8149 30.5033 91.2675 30.0367 91.8462 29.71C92.4342 29.3833 93.1062 29.22 93.8622 29.22C94.5902 29.22 95.2389 29.3787 95.8082 29.696C96.3775 30.0133 96.8209 30.4613 97.1382 31.04C97.4555 31.6093 97.6142 32.2673 97.6142 33.014ZM95.9482 32.51C95.9389 31.922 95.7289 31.4507 95.3182 31.096C94.9075 30.7413 94.3989 30.564 93.7922 30.564C93.2415 30.564 92.7702 30.7413 92.3782 31.096C91.9862 31.4413 91.7529 31.9127 91.6782 32.51H95.9482ZM99.8288 37.158C99.5395 37.158 99.2968 37.06 99.1008 36.864C98.9048 36.668 98.8068 36.4253 98.8068 36.136C98.8068 35.8467 98.9048 35.604 99.1008 35.408C99.2968 35.212 99.5395 35.114 99.8288 35.114C100.109 35.114 100.347 35.212 100.543 35.408C100.739 35.604 100.837 35.8467 100.837 36.136C100.837 36.4253 100.739 36.668 100.543 36.864C100.347 37.06 100.109 37.158 99.8288 37.158ZM103.374 28.324C103.084 28.324 102.842 28.226 102.646 28.03C102.45 27.834 102.352 27.5913 102.352 27.302C102.352 27.0127 102.45 26.77 102.646 26.574C102.842 26.378 103.084 26.28 103.374 26.28C103.654 26.28 103.892 26.378 104.088 26.574C104.284 26.77 104.382 27.0127 104.382 27.302C104.382 27.5913 104.284 27.834 104.088 28.03C103.892 28.226 103.654 28.324 103.374 28.324ZM104.158 38.572C104.158 39.328 103.966 39.874 103.584 40.21C103.21 40.5553 102.664 40.728 101.946 40.728H101.12V39.384H101.666C101.992 39.384 102.221 39.3187 102.352 39.188C102.492 39.0667 102.562 38.8613 102.562 38.572V29.346H104.158V38.572ZM109.053 37.186C108.447 37.186 107.901 37.0787 107.415 36.864C106.939 36.64 106.561 36.3413 106.281 35.968C106.001 35.5853 105.852 35.1607 105.833 34.694H107.485C107.513 35.0207 107.667 35.296 107.947 35.52C108.237 35.7347 108.596 35.842 109.025 35.842C109.473 35.842 109.819 35.758 110.061 35.59C110.313 35.4127 110.439 35.1887 110.439 34.918C110.439 34.6287 110.299 34.414 110.019 34.274C109.749 34.134 109.315 33.98 108.717 33.812C108.139 33.6533 107.667 33.4993 107.303 33.35C106.939 33.2007 106.622 32.972 106.351 32.664C106.09 32.356 105.959 31.95 105.959 31.446C105.959 31.0353 106.081 30.662 106.323 30.326C106.566 29.9807 106.911 29.71 107.359 29.514C107.817 29.318 108.339 29.22 108.927 29.22C109.805 29.22 110.509 29.444 111.041 29.892C111.583 30.3307 111.872 30.9327 111.909 31.698H110.313C110.285 31.3527 110.145 31.0773 109.893 30.872C109.641 30.6667 109.301 30.564 108.871 30.564C108.451 30.564 108.129 30.6433 107.905 30.802C107.681 30.9607 107.569 31.1707 107.569 31.432C107.569 31.6373 107.644 31.81 107.793 31.95C107.943 32.09 108.125 32.202 108.339 32.286C108.554 32.3607 108.871 32.4587 109.291 32.58C109.851 32.7293 110.309 32.8833 110.663 33.042C111.027 33.1913 111.34 33.4153 111.601 33.714C111.863 34.0127 111.998 34.4093 112.007 34.904C112.007 35.3427 111.886 35.7347 111.643 36.08C111.401 36.4253 111.055 36.696 110.607 36.892C110.169 37.088 109.651 37.186 109.053 37.186Z" fill="black"/>
</g>
<defs>
<filter id="filter0_d_52_433" x="0.800781" y="0" width="141.71" height="64.2" filterUnits="userSpaceOnUse" color-interpolation-filters="sRGB">
<feFlood flood-opacity="0" result="BackgroundImageFix"/>
<feColorMatrix in="SourceAlpha" type="matrix" values="0 0 0 0 0 0 0 0 0 0 0 0 0 0 0 0 0 0 127 0" result="hardAlpha"/>
<feOffset/>
<feGaussianBlur stdDeviation="5"/>
<feComposite in2="hardAlpha" operator="out"/>
<feColorMatrix type="matrix" values="0 0 0 0 0 0 0 0 0 0 0 0 0 0 0 0 0 0 0.05 0"/>
<feBlend mode="normal" in2="BackgroundImageFix" result="effect1_dropShadow_52_433"/>
<feBlend mode="normal" in="SourceGraphic" in2="effect1_dropShadow_52_433" result="shape"/>
</filter>
<linearGradient id="paint0_linear_52_433" x1="47.067" y1="24.2973" x2="38.5363" y2="41.5924" gradientUnits="userSpaceOnUse">
<stop stop-color="#3F873F"/>
<stop offset="0.3296" stop-color="#3F8B3D"/>
<stop offset="0.6367" stop-color="#3E9638"/>
<stop offset="0.9341" stop-color="#3DA92E"/>
<stop offset="1" stop-color="#3DAE2B"/>
</linearGradient>
<linearGradient id="paint1_linear_52_433" x1="41.8444" y1="33.3705" x2="65.6467" y2="15.8927" gradientUnits="userSpaceOnUse">
<stop offset="0.1376" stop-color="#3F873F"/>
<stop offset="0.4016" stop-color="#52A044"/>
<stop offset="0.7129" stop-color="#64B749"/>
<stop offset="0.9081" stop-color="#6ABF4B"/>
</linearGradient>
<linearGradient id="paint2_linear_52_433" x1="32.4583" y1="32.0971" x2="54.0735" y2="32.0971" gradientUnits="userSpaceOnUse">
<stop offset="0.0919165" stop-color="#6ABF4B"/>
<stop offset="0.2871" stop-color="#64B749"/>
<stop offset="0.5984" stop-color="#52A044"/>
<stop offset="0.8624" stop-color="#3F873F"/>
</linearGradient>
<clipPath id="clip0_52_433">
<rect width="24" height="25" fill="white" transform="translate(30.8008 19.61)"/>
</clipPath>
<clipPath id="clip1_52_433">
<rect width="24" height="25" fill="white" transform="translate(30.8008 19.61)"/>
</clipPath>
<clipPath id="clip2_52_433">
<rect width="24" height="25" fill="white" transform="translate(30.8008 19.61)"/>
</clipPath>
</defs>
</svg>
