<svg width="117" height="64" viewBox="0 0 117 64" fill="none" xmlns="http://www.w3.org/2000/svg">
<g filter="url(#filter0_d_52_457)">
<rect x="10.4004" y="10.5" width="96.54" height="43.2" rx="21.6" fill="white" shape-rendering="crispEdges"/>
<g clip-path="url(#clip0_52_457)">
<g clip-path="url(#clip1_52_457)">
<g clip-path="url(#clip2_52_457)">
<mask id="mask0_52_457" style="mask-type:luminance" maskUnits="userSpaceOnUse" x="30" y="25" width="24" height="13">
<path d="M30.8711 31.8665C30.8711 35.2132 36.0288 37.9264 42.391 37.9264C48.7531 37.9264 53.9109 35.2132 53.9109 31.8665C53.9109 28.5197 48.7531 25.8065 42.391 25.8065C36.0288 25.8065 30.8711 28.5197 30.8711 31.8665Z" fill="white"/>
</mask>
<g mask="url(#mask0_52_457)">
<path d="M30.8672 31.8723C30.8672 35.2191 36.0249 37.9323 42.3871 37.9323C48.7492 37.9323 53.907 35.2191 53.907 31.8723C53.907 28.5256 48.7492 25.8124 42.3871 25.8124C36.0249 25.8124 30.8672 28.5256 30.8672 31.8723Z" fill="url(#paint0_radial_52_457)"/>
</g>
<mask id="mask1_52_457" style="mask-type:luminance" maskUnits="userSpaceOnUse" x="30" y="25" width="25" height="14">
<path d="M30.4004 25.108H54.4001V38.6079H30.4004V25.108Z" fill="white"/>
</mask>
<g mask="url(#mask1_52_457)">
<path d="M42.4 37.4654C48.5136 37.4654 53.4699 34.9537 53.4699 31.8553C53.4699 28.7571 48.5136 26.2454 42.4 26.2454C36.2863 26.2454 31.3301 28.7571 31.3301 31.8553C31.3301 34.9537 36.2863 37.4654 42.4 37.4654Z" fill="#777BB3"/>
</g>
<mask id="mask2_52_457" style="mask-type:luminance" maskUnits="userSpaceOnUse" x="30" y="25" width="25" height="14">
<path d="M30.4004 25.108H54.4001V38.6079H30.4004V25.108Z" fill="white"/>
</mask>
<g mask="url(#mask2_52_457)">
<path d="M37.1393 32.5585C37.642 32.5585 38.0173 32.4658 38.2547 32.283C38.4896 32.1021 38.6519 31.7888 38.7369 31.3516C38.8162 30.9431 38.786 30.6578 38.6472 30.5038C38.5052 30.3466 38.1983 30.2668 37.735 30.2668H36.9316L36.4862 32.5585H37.1393ZM34.5117 35.3814C34.4744 35.3814 34.439 35.3647 34.4153 35.3359C34.3915 35.3071 34.3819 35.2692 34.389 35.2326L35.5693 29.1596C35.5808 29.1009 35.6322 29.0585 35.692 29.0585H38.2359C39.0354 29.0585 39.6305 29.2756 40.0045 29.7038C40.3806 30.1342 40.4967 30.7359 40.3497 31.4921C40.2898 31.8002 40.1869 32.0864 40.0438 32.3425C39.9005 32.599 39.7111 32.8363 39.4808 33.0479C39.2052 33.3059 38.8932 33.493 38.5543 33.6031C38.2209 33.7117 37.7926 33.7668 37.2815 33.7668H36.2515L35.9573 35.2802C35.9459 35.339 35.8945 35.3814 35.8346 35.3814H34.5117Z" fill="black"/>
<path d="M37.0366 30.3879H37.7369C38.2961 30.3879 38.4904 30.5106 38.5564 30.5837C38.6659 30.7052 38.6866 30.9612 38.6162 31.324C38.5371 31.7303 38.3905 32.0183 38.1804 32.1801C37.9654 32.3457 37.6157 32.4296 37.1412 32.4296H36.6398L37.0366 30.3879ZM38.2379 28.9296H35.694C35.5743 28.9296 35.4714 29.0144 35.4486 29.1319L34.2683 35.2048C34.254 35.2781 34.2733 35.3539 34.3207 35.4115C34.3682 35.4691 34.439 35.5025 34.5136 35.5025H35.8366C35.9563 35.5025 36.0591 35.4176 36.082 35.3002L36.3565 33.8879H37.2835C37.8077 33.8879 38.2491 33.8307 38.5951 33.718C38.951 33.6024 39.2784 33.4064 39.5682 33.1354C39.8078 32.9149 40.0053 32.6674 40.1548 32.3997C40.3045 32.1319 40.412 31.8332 40.4743 31.5121C40.6291 30.7161 40.5034 30.0786 40.1006 29.6176C39.7018 29.1611 39.0751 28.9296 38.2379 28.9296ZM36.3365 32.6796H37.1412C37.6746 32.6796 38.0719 32.5791 38.3329 32.3782C38.594 32.1772 38.7701 31.8417 38.8616 31.3716C38.9491 30.9203 38.9093 30.6018 38.742 30.4162C38.5745 30.2307 38.2395 30.1379 37.7369 30.1379H36.8305L36.3365 32.6796ZM38.2379 29.1796C39.0032 29.1796 39.5615 29.3804 39.9124 29.7821C40.2632 30.1838 40.3689 30.7445 40.2289 31.4644C40.1713 31.7609 40.0738 32.0321 39.9366 32.2777C39.7993 32.5235 39.6199 32.7482 39.3982 32.952C39.1341 33.1992 38.8406 33.3754 38.5177 33.4803C38.1948 33.5855 37.7835 33.6379 37.2835 33.6379H36.1503L35.8366 35.2525H34.5136L35.694 29.1796H38.2379Z" fill="white"/>
<path d="M43.3821 33.7661C43.3448 33.7661 43.3094 33.7495 43.2857 33.7207C43.2619 33.6919 43.2523 33.654 43.2594 33.6173L43.7816 30.9303C43.8312 30.6747 43.819 30.4913 43.7471 30.4138C43.7031 30.3665 43.5709 30.287 43.1801 30.287H42.2342L41.5778 33.665C41.5664 33.7237 41.5149 33.7661 41.4551 33.7661H40.1426C40.1052 33.7661 40.0699 33.7495 40.0461 33.7207C40.0224 33.6919 40.0127 33.6539 40.0199 33.6173L41.2002 27.5444C41.2116 27.4857 41.2631 27.4432 41.3229 27.4432H42.6354C42.6727 27.4432 42.7081 27.4599 42.7319 27.4887C42.7556 27.5175 42.7652 27.5554 42.7581 27.5921L42.4733 29.0578H43.4909C44.2661 29.0578 44.7917 29.1945 45.0979 29.4756C45.41 29.7625 45.5073 30.2211 45.3873 30.839L44.8382 33.665C44.8268 33.7237 44.7753 33.7661 44.7155 33.7661H43.3821Z" fill="black"/>
<path d="M42.6354 27.3163H41.3229C41.2032 27.3163 41.1003 27.4011 41.0775 27.5186L39.8972 33.5915C39.8829 33.6648 39.9022 33.7406 39.9497 33.7982C39.9972 33.8559 40.0679 33.8892 40.1426 33.8892H41.4551C41.5748 33.8892 41.6777 33.8044 41.7005 33.6869L42.3373 30.41H43.1802C43.5703 30.41 43.6522 30.4934 43.6554 30.497C43.6791 30.5224 43.7102 30.6403 43.6589 30.9045L43.1367 33.5915C43.1225 33.6648 43.1417 33.7406 43.1892 33.7982C43.2367 33.8559 43.3075 33.8892 43.3822 33.8892H44.7155C44.8351 33.8892 44.9381 33.8044 44.9609 33.6869L45.51 30.8609C45.6389 30.1975 45.5286 29.6999 45.1825 29.3817C44.8521 29.0783 44.2988 28.9309 43.4909 28.9309H42.6249L42.8808 27.614C42.895 27.5407 42.8758 27.4649 42.8283 27.4073C42.7808 27.3497 42.7101 27.3163 42.6354 27.3163ZM42.6354 27.5663L42.3216 29.1809H43.4909C44.2266 29.1809 44.734 29.3093 45.0133 29.5658C45.2926 29.8224 45.3763 30.2383 45.2646 30.8132L44.7155 33.6392H43.3822L43.9043 30.9522C43.9637 30.6465 43.9419 30.438 43.8387 30.3269C43.7355 30.2157 43.5159 30.16 43.1802 30.16H42.1312L41.4551 33.6392H40.1426L41.3229 27.5663H42.6354Z" fill="white"/>
<path d="M47.4635 32.5585C47.9662 32.5585 48.3415 32.4658 48.5789 32.283C48.8138 32.1022 48.9761 31.7888 49.0612 31.3516C49.1405 30.9431 49.1103 30.6578 48.9714 30.5038C48.8294 30.3466 48.5225 30.2668 48.0592 30.2668H47.2558L46.8104 32.5585H47.4635ZM44.8359 35.3814C44.7986 35.3814 44.7632 35.3647 44.7395 35.3359C44.7158 35.3071 44.7061 35.2692 44.7132 35.2326L45.8935 29.1596C45.905 29.1009 45.9564 29.0585 46.0163 29.0585H48.5601C49.3597 29.0585 49.9547 29.2756 50.3288 29.7038C50.7048 30.1342 50.8209 30.7359 50.6739 31.4921C50.614 31.8002 50.5111 32.0864 50.368 32.3425C50.2247 32.599 50.0353 32.8363 49.805 33.0479C49.5294 33.3059 49.2174 33.493 48.8786 33.6031C48.5451 33.7117 48.1169 33.7668 47.6057 33.7668H46.5756L46.2816 35.2802C46.2701 35.339 46.2187 35.3814 46.1588 35.3814H44.8359Z" fill="black"/>
<path d="M47.3589 30.3899H48.0592C48.6184 30.3899 48.8126 30.5126 48.8786 30.5857C48.9882 30.7071 49.0088 30.9631 48.9384 31.3259C48.8593 31.7322 48.7127 32.0203 48.5027 32.182C48.2876 32.3476 47.9379 32.4315 47.4635 32.4315H46.9621L47.3589 30.3899ZM48.5601 28.9315H46.0162C45.8966 28.9315 45.7937 29.0164 45.7709 29.1338L44.5905 35.2068C44.5763 35.2801 44.5955 35.3558 44.643 35.4135C44.6905 35.4711 44.7613 35.5044 44.8359 35.5044H46.1588C46.2785 35.5044 46.3814 35.4196 46.4042 35.3021L46.6787 33.8899H47.6057C48.13 33.8899 48.5713 33.8327 48.9173 33.72C49.2732 33.6044 49.6007 33.4083 49.8905 33.1372C50.1302 32.9168 50.3275 32.6693 50.4771 32.4016C50.6267 32.1338 50.7342 31.8352 50.7966 31.514C50.9514 30.718 50.8256 30.0806 50.4229 29.6196C50.024 29.163 49.3973 28.9315 48.5601 28.9315ZM46.6588 32.6815H47.4635C47.9968 32.6815 48.3941 32.5811 48.6552 32.3801C48.9163 32.1791 49.0923 31.8437 49.1838 31.3736C49.2714 30.9222 49.2315 30.6037 49.0642 30.4182C48.8967 30.2327 48.5618 30.1399 48.0592 30.1399H47.1528L46.6588 32.6815ZM48.5601 29.1815C49.3254 29.1815 49.8837 29.3824 50.2346 29.7841C50.5855 30.1858 50.6912 30.7465 50.5512 31.4664C50.4935 31.7629 50.3961 32.034 50.2589 32.2796C50.1215 32.5254 49.9421 32.7502 49.7205 32.954C49.4563 33.2012 49.1628 33.3774 48.8399 33.4823C48.517 33.5875 48.1057 33.6399 47.6057 33.6399H46.4726L46.1588 35.2544H44.8359L46.0162 29.1815H48.5601Z" fill="white"/>
</g>
</g>
</g>
</g>
<path d="M68.4425 30.228C68.4425 30.7227 68.3258 31.1893 68.0925 31.628C67.8592 32.0667 67.4858 32.426 66.9725 32.706C66.4592 32.9767 65.8012 33.112 64.9985 33.112H63.2345V37.06H61.6385V27.33H64.9985C65.7452 27.33 66.3752 27.4607 66.8885 27.722C67.4112 27.974 67.7985 28.3193 68.0505 28.758C68.3118 29.1967 68.4425 29.6867 68.4425 30.228ZM64.9985 31.81C65.6052 31.81 66.0578 31.6747 66.3565 31.404C66.6552 31.124 66.8045 30.732 66.8045 30.228C66.8045 29.164 66.2025 28.632 64.9985 28.632H63.2345V31.81H64.9985ZM77.7347 27.33V37.06H76.1387V32.804H71.5607V37.06H69.9647V27.33H71.5607V31.502H76.1387V27.33H77.7347ZM86.6398 30.228C86.6398 30.7227 86.5231 31.1893 86.2897 31.628C86.0564 32.0667 85.6831 32.426 85.1697 32.706C84.6564 32.9767 83.9984 33.112 83.1957 33.112H81.4317V37.06H79.8357V27.33H83.1957C83.9424 27.33 84.5724 27.4607 85.0857 27.722C85.6084 27.974 85.9958 28.3193 86.2478 28.758C86.5091 29.1967 86.6398 29.6867 86.6398 30.228ZM83.1957 31.81C83.8024 31.81 84.2551 31.6747 84.5537 31.404C84.8524 31.124 85.0017 30.732 85.0017 30.228C85.0017 29.164 84.3997 28.632 83.1957 28.632H81.4317V31.81H83.1957Z" fill="black"/>
</g>
<defs>
<filter id="filter0_d_52_457" x="0.400391" y="0.5" width="116.54" height="63.2" filterUnits="userSpaceOnUse" color-interpolation-filters="sRGB">
<feFlood flood-opacity="0" result="BackgroundImageFix"/>
<feColorMatrix in="SourceAlpha" type="matrix" values="0 0 0 0 0 0 0 0 0 0 0 0 0 0 0 0 0 0 127 0" result="hardAlpha"/>
<feOffset/>
<feGaussianBlur stdDeviation="5"/>
<feComposite in2="hardAlpha" operator="out"/>
<feColorMatrix type="matrix" values="0 0 0 0 0 0 0 0 0 0 0 0 0 0 0 0 0 0 0.05 0"/>
<feBlend mode="normal" in2="BackgroundImageFix" result="effect1_dropShadow_52_457"/>
<feBlend mode="normal" in="SourceGraphic" in2="effect1_dropShadow_52_457" result="shape"/>
</filter>
<radialGradient id="paint0_radial_52_457" cx="0" cy="0" r="1" gradientUnits="userSpaceOnUse" gradientTransform="translate(37.7838 27.9429) scale(15.1273 15.1274)">
<stop stop-color="#AEB2D5"/>
<stop offset="0.3" stop-color="#AEB2D5"/>
<stop offset="0.75" stop-color="#484C89"/>
<stop offset="1" stop-color="#484C89"/>
</radialGradient>
<clipPath id="clip0_52_457">
<rect width="24" height="24" fill="white" transform="translate(30.4004 20.11)"/>
</clipPath>
<clipPath id="clip1_52_457">
<rect width="24" height="24" fill="white" transform="translate(30.4004 20.11)"/>
</clipPath>
<clipPath id="clip2_52_457">
<rect width="24" height="24" fill="white" transform="translate(30.4004 20.11)"/>
</clipPath>
</defs>
</svg>
