<svg width="196" height="64" viewBox="0 0 196 64" fill="none" xmlns="http://www.w3.org/2000/svg">
<g filter="url(#filter0_d_52_487)">
<rect x="10.8008" y="10" width="174.35" height="43.2" rx="21.6" fill="white" shape-rendering="crispEdges"/>
<g clip-path="url(#clip0_52_487)">
<g clip-path="url(#clip1_52_487)">
<g clip-path="url(#clip2_52_487)">
<mask id="mask0_52_487" style="mask-type:luminance" maskUnits="userSpaceOnUse" x="30" y="19" width="25" height="25">
<path d="M54.8008 19.61H30.8008V43.61H54.8008V19.61Z" fill="white"/>
</mask>
<g mask="url(#mask0_52_487)">
<path d="M43.0438 41.9593C49.1863 41.9593 54.1658 36.9799 54.1658 30.8374C54.1658 24.6949 49.1863 19.7155 43.0438 19.7155C36.9014 19.7155 31.9219 24.6949 31.9219 30.8374C31.9219 36.9799 36.9014 41.9593 43.0438 41.9593Z" fill="#45EF8A"/>
<path d="M43.0438 41.8136C49.1376 41.8136 54.0835 36.9122 54.1614 30.8385H54.1658C54.1658 36.98 49.1854 41.9604 43.0438 41.9604C36.9023 41.9604 31.9219 36.98 31.9219 30.8385H31.9263C32.0042 36.9133 36.9501 41.8136 43.0438 41.8136Z" fill="#3FCE79"/>
<path d="M43.0438 19.7155C36.9023 19.7155 31.9219 24.6959 31.9219 30.8374H54.1658C54.1658 24.6959 49.1854 19.7155 43.0438 19.7155Z" fill="#3DDC84"/>
<path d="M43.0438 30.5451C43.8522 30.5451 44.5075 29.8898 44.5075 29.0814C44.5075 28.2731 43.8522 27.6178 43.0438 27.6178C42.2354 27.6178 41.5801 28.2731 41.5801 29.0814C41.5801 29.8898 42.2354 30.5451 43.0438 30.5451Z" fill="#3DDC84"/>
<path d="M54.1658 30.8369H31.9219V30.6901H54.1658V30.8369Z" fill="#3FCE79"/>
<path d="M54.1658 30.9853H31.9219V30.8385H54.1658V30.9853Z" fill="#3FCE79"/>
<mask id="mask1_52_487" style="mask-type:alpha" maskUnits="userSpaceOnUse" x="31" y="19" width="24" height="23">
<path d="M43.0458 41.9593C49.1883 41.9593 54.1678 36.9799 54.1678 30.8374C54.1678 24.6949 49.1883 19.7155 43.0458 19.7155C36.9033 19.7155 31.9238 24.6949 31.9238 30.8374C31.9238 36.9799 36.9033 41.9593 43.0458 41.9593Z" fill="#45EF8A"/>
</mask>
<g mask="url(#mask1_52_487)">
<path d="M40.6772 30.8358L34.7637 43.7139H54.1659V33.7631L44.2151 23.8112L41.8728 25.5673L40.6772 30.8358Z" fill="url(#paint0_linear_52_487)"/>
</g>
<path d="M43.0438 19.8623C49.1376 19.8623 54.0835 24.7637 54.1614 30.8374H54.1658C54.1658 24.6959 49.1854 19.7155 43.0438 19.7155C36.9023 19.7155 31.9219 24.6959 31.9219 30.8374H31.9263C32.0042 24.7626 36.9501 19.8623 43.0438 19.8623Z" fill="#3FCE79"/>
<path d="M45.4119 30.8444H42.707L49.5904 42.7671L51.1786 43.6835C51.222 43.708 51.272 43.7236 51.3265 43.7236C51.4878 43.7236 51.619 43.5923 51.619 43.4311V41.5959L45.4108 30.8455L45.4119 30.8444Z" fill="#D7EFFE"/>
<path opacity="0.3" d="M45.4119 30.8444H42.707L49.5904 42.7671L51.1786 43.6835C51.222 43.708 51.272 43.7236 51.3265 43.7236C51.4878 43.7236 51.619 43.5923 51.619 43.4311V41.5959L45.4108 30.8455L45.4119 30.8444Z" fill="#BDBDBD"/>
<path d="M51.6179 41.5948L45.4119 30.8444H45.3262L51.6179 41.7405V41.5948Z" fill="#BCCAD2"/>
<path d="M51.3254 43.5748C51.2709 43.5748 51.222 43.5603 51.1775 43.5348L49.5893 42.6183L42.7915 30.8424H42.707L49.5904 42.7651L51.1786 43.6816C51.222 43.706 51.272 43.7216 51.3265 43.7216C51.4878 43.7216 51.619 43.5904 51.619 43.4291V43.2823C51.6179 43.4436 51.4856 43.5748 51.3254 43.5748Z" fill="#BCCAD2"/>
<path d="M48.8973 30.8435C48.8973 34.0767 46.2758 36.697 43.0438 36.697C42.0828 36.697 41.1753 36.4646 40.3745 36.053L43.0438 31.4285L43.3819 30.8435H40.677L34.4688 41.594V43.4291C34.4688 43.5904 34.6 43.7216 34.7613 43.7216C34.8158 43.7216 34.8647 43.7072 34.9092 43.6816L36.4974 42.7651L39.2023 38.0817C40.3478 38.6901 41.6546 39.0371 43.0438 39.0371C47.5704 39.0371 51.2384 35.3679 51.2384 30.8424H48.8973V30.8435Z" fill="#D7EFFE"/>
<path d="M40.677 30.8444L34.4688 41.5948V41.7416L40.7616 30.8455H40.677V30.8444ZM43.0438 36.6978C42.0828 36.6978 41.1753 36.4654 40.3745 36.0539V36.2007C41.1753 36.6122 42.0828 36.8447 43.0438 36.8447C46.2769 36.8447 48.8973 34.2232 48.8973 30.9912H51.234C51.2351 30.9434 51.2384 30.8944 51.2384 30.8444H48.8973C48.8973 34.0775 46.2758 36.6978 43.0438 36.6978Z" fill="#BCCAD2"/>
<path d="M43.3827 30.8444H43.2982L40.3742 35.9082V36.055L43.3827 30.8455V30.8444ZM51.236 30.8444C51.157 35.302 47.5223 38.8933 43.0457 38.8933C41.6566 38.8933 40.3498 38.5463 39.2042 37.9379L36.4994 42.6214L34.9111 43.5378C34.8678 43.5623 34.8177 43.5779 34.7632 43.5779C34.6019 43.5779 34.4707 43.4466 34.4707 43.2854V43.4322C34.4707 43.5934 34.6019 43.7247 34.7632 43.7247C34.8177 43.7247 34.8666 43.7102 34.9111 43.6846L36.4994 42.7682L39.2042 38.0847C40.3498 38.6931 41.6566 39.0401 43.0457 39.0401C47.5724 39.0401 51.2404 35.371 51.2404 30.8455H51.236V30.8444Z" fill="#BCCAD2"/>
<path d="M45.6792 25.5751H44.2155V23.819H41.8744V25.5751H40.4107C39.928 25.5751 39.5332 25.9699 39.5332 26.4526V30.8425L42.4249 33.7308C42.584 33.8888 42.8019 33.9889 43.0455 33.9889C43.288 33.9889 43.5082 33.891 43.6661 33.7308L46.5578 30.8425V26.4526C46.5578 25.9699 46.163 25.5751 45.6803 25.5751H45.6792ZM43.0455 30.5511C42.2381 30.5511 41.5819 29.896 41.5819 29.0874C41.5819 28.2789 42.237 27.6238 43.0455 27.6238C43.8541 27.6238 44.5092 28.2789 44.5092 29.0874C44.5092 29.896 43.8541 30.5511 43.0455 30.5511Z" fill="#073042"/>
<path d="M45.6772 25.5712H44.2136V25.718H45.6772C46.1599 25.718 46.5547 26.1129 46.5547 26.5955V26.4487C46.5547 25.966 46.1599 25.5712 45.6772 25.5712ZM44.2136 23.8151H41.8724V23.9619H44.2136V23.8151ZM41.8724 25.5712H40.4088C39.9261 25.5712 39.5312 25.966 39.5312 26.4487V26.5955C39.5312 26.1129 39.9261 25.718 40.4088 25.718H41.8724V25.5712ZM43.0435 30.5472C42.2361 30.5472 41.5799 29.8921 41.5799 29.0835V29.2303C41.5799 30.0378 42.235 30.694 43.0435 30.694C43.8521 30.694 44.5072 30.0389 44.5072 29.2303V29.0835C44.5072 29.891 43.8521 30.5472 43.0435 30.5472Z" fill="#133342"/>
<path d="M43.0435 27.6201C43.851 27.6201 44.5072 28.2752 44.5072 29.0837V28.9369C44.5072 28.1295 43.8521 27.4733 43.0435 27.4733C42.235 27.4733 41.5799 28.1283 41.5799 28.9369V29.0837C41.5799 28.2763 42.235 27.6201 43.0435 27.6201ZM43.6641 33.5826C43.5051 33.7405 43.2871 33.8406 43.0435 33.8406C42.8 33.8406 42.5809 33.7427 42.4229 33.5826L39.5312 30.6942V30.841L42.4229 33.7294C42.582 33.8873 42.8 33.9874 43.0435 33.9874C43.2871 33.9874 43.5062 33.8895 43.6641 33.7294L46.5559 30.841V30.6942L43.6641 33.5826Z" fill="#133342"/>
<path d="M54.1658 30.8374C54.1658 24.6959 49.1854 19.7155 43.0438 19.7155C36.9023 19.7155 31.9219 24.6959 31.9219 30.8374C31.9219 34.2151 33.4289 37.2381 35.8057 39.2767L34.471 41.5878V43.423C34.471 43.5842 34.6023 43.7155 34.7635 43.7155C34.818 43.7155 34.867 43.701 34.9115 43.6754L36.4997 42.759L37.7387 40.6136C39.3146 41.4711 41.122 41.9582 43.0438 41.9582C44.9657 41.9582 46.773 41.4711 48.3501 40.6136L49.5891 42.759L51.1773 43.6754C51.2207 43.6999 51.2708 43.7155 51.3253 43.7155C51.4865 43.7155 51.6178 43.5842 51.6178 43.423V41.5878L50.2831 39.2767C52.6588 37.2381 54.1658 34.2151 54.1658 30.8374Z" fill="url(#paint1_radial_52_487)"/>
</g>
</g>
</g>
</g>
<path d="M67.9143 34.572H63.8403L63.1403 36.56H61.4743L64.9603 26.816H66.8083L70.2943 36.56H68.6143L67.9143 34.572ZM67.4663 33.27L65.8843 28.748L64.2883 33.27H67.4663ZM75.702 28.72C76.3087 28.72 76.85 28.846 77.326 29.098C77.8114 29.35 78.1894 29.7233 78.46 30.218C78.7307 30.7127 78.866 31.31 78.866 32.01V36.56H77.284V32.248C77.284 31.5573 77.1114 31.03 76.766 30.666C76.4207 30.2927 75.9494 30.106 75.352 30.106C74.7547 30.106 74.2787 30.2927 73.924 30.666C73.5787 31.03 73.406 31.5573 73.406 32.248V36.56H71.81V28.846H73.406V29.728C73.6674 29.4107 73.9987 29.1633 74.4 28.986C74.8107 28.8087 75.2447 28.72 75.702 28.72ZM80.3698 32.668C80.3698 31.8933 80.5285 31.2073 80.8458 30.61C81.1725 30.0127 81.6112 29.5507 82.1618 29.224C82.7218 28.888 83.3425 28.72 84.0238 28.72C84.5278 28.72 85.0225 28.832 85.5078 29.056C86.0025 29.2707 86.3945 29.56 86.6838 29.924V26.2H88.2938V36.56H86.6838V35.398C86.4225 35.7713 86.0585 36.0793 85.5918 36.322C85.1345 36.5647 84.6072 36.686 84.0098 36.686C83.3378 36.686 82.7218 36.518 82.1618 36.182C81.6112 35.8367 81.1725 35.3607 80.8458 34.754C80.5285 34.138 80.3698 33.4427 80.3698 32.668ZM86.6838 32.696C86.6838 32.164 86.5718 31.702 86.3478 31.31C86.1332 30.918 85.8485 30.6193 85.4938 30.414C85.1392 30.2087 84.7565 30.106 84.3458 30.106C83.9352 30.106 83.5525 30.2087 83.1978 30.414C82.8432 30.61 82.5538 30.904 82.3298 31.296C82.1152 31.6787 82.0078 32.136 82.0078 32.668C82.0078 33.2 82.1152 33.6667 82.3298 34.068C82.5538 34.4693 82.8432 34.7773 83.1978 34.992C83.5618 35.1973 83.9445 35.3 84.3458 35.3C84.7565 35.3 85.1392 35.1973 85.4938 34.992C85.8485 34.7867 86.1332 34.488 86.3478 34.096C86.5718 33.6947 86.6838 33.228 86.6838 32.696ZM91.9861 29.966C92.2195 29.574 92.5275 29.2707 92.9101 29.056C93.3021 28.832 93.7641 28.72 94.2961 28.72V30.372H93.8901C93.2648 30.372 92.7888 30.5307 92.4621 30.848C92.1448 31.1653 91.9861 31.716 91.9861 32.5V36.56H90.3901V28.846H91.9861V29.966ZM99.1092 36.686C98.3812 36.686 97.7232 36.5227 97.1352 36.196C96.5472 35.86 96.0852 35.3933 95.7492 34.796C95.4132 34.1893 95.2452 33.4893 95.2452 32.696C95.2452 31.912 95.4178 31.2167 95.7632 30.61C96.1085 30.0033 96.5798 29.5367 97.1772 29.21C97.7745 28.8833 98.4418 28.72 99.1792 28.72C99.9165 28.72 100.584 28.8833 101.181 29.21C101.778 29.5367 102.25 30.0033 102.595 30.61C102.94 31.2167 103.113 31.912 103.113 32.696C103.113 33.48 102.936 34.1753 102.581 34.782C102.226 35.3887 101.741 35.86 101.125 36.196C100.518 36.5227 99.8465 36.686 99.1092 36.686ZM99.1092 35.3C99.5198 35.3 99.9025 35.202 100.257 35.006C100.621 34.81 100.915 34.516 101.139 34.124C101.363 33.732 101.475 33.256 101.475 32.696C101.475 32.136 101.368 31.6647 101.153 31.282C100.938 30.89 100.654 30.596 100.299 30.4C99.9445 30.204 99.5618 30.106 99.1512 30.106C98.7405 30.106 98.3578 30.204 98.0032 30.4C97.6578 30.596 97.3825 30.89 97.1772 31.282C96.9718 31.6647 96.8692 32.136 96.8692 32.696C96.8692 33.5267 97.0792 34.1707 97.4992 34.628C97.9285 35.076 98.4652 35.3 99.1092 35.3ZM105.503 27.824C105.214 27.824 104.971 27.726 104.775 27.53C104.579 27.334 104.481 27.0913 104.481 26.802C104.481 26.5127 104.579 26.27 104.775 26.074C104.971 25.878 105.214 25.78 105.503 25.78C105.783 25.78 106.021 25.878 106.217 26.074C106.413 26.27 106.511 26.5127 106.511 26.802C106.511 27.0913 106.413 27.334 106.217 27.53C106.021 27.726 105.783 27.824 105.503 27.824ZM106.287 28.846V36.56H104.691V28.846H106.287ZM107.85 32.668C107.85 31.8933 108.009 31.2073 108.326 30.61C108.653 30.0127 109.092 29.5507 109.642 29.224C110.202 28.888 110.823 28.72 111.504 28.72C112.008 28.72 112.503 28.832 112.988 29.056C113.483 29.2707 113.875 29.56 114.164 29.924V26.2H115.774V36.56H114.164V35.398C113.903 35.7713 113.539 36.0793 113.072 36.322C112.615 36.5647 112.088 36.686 111.49 36.686C110.818 36.686 110.202 36.518 109.642 36.182C109.092 35.8367 108.653 35.3607 108.326 34.754C108.009 34.138 107.85 33.4427 107.85 32.668ZM114.164 32.696C114.164 32.164 114.052 31.702 113.828 31.31C113.614 30.918 113.329 30.6193 112.974 30.414C112.62 30.2087 112.237 30.106 111.826 30.106C111.416 30.106 111.033 30.2087 110.678 30.414C110.324 30.61 110.034 30.904 109.81 31.296C109.596 31.6787 109.488 32.136 109.488 32.668C109.488 33.2 109.596 33.6667 109.81 34.068C110.034 34.4693 110.324 34.7773 110.678 34.992C111.042 35.1973 111.425 35.3 111.826 35.3C112.237 35.3 112.62 35.1973 112.974 34.992C113.329 34.7867 113.614 34.488 113.828 34.096C114.052 33.6947 114.164 33.228 114.164 32.696ZM124.713 36.658C124.06 36.658 123.472 36.546 122.949 36.322C122.427 36.0887 122.016 35.762 121.717 35.342C121.419 34.922 121.269 34.432 121.269 33.872H122.977C123.015 34.292 123.178 34.6373 123.467 34.908C123.766 35.1787 124.181 35.314 124.713 35.314C125.264 35.314 125.693 35.1833 126.001 34.922C126.309 34.6513 126.463 34.306 126.463 33.886C126.463 33.5593 126.365 33.2933 126.169 33.088C125.983 32.8827 125.745 32.724 125.455 32.612C125.175 32.5 124.783 32.3787 124.279 32.248C123.645 32.08 123.127 31.912 122.725 31.744C122.333 31.5667 121.997 31.296 121.717 30.932C121.437 30.568 121.297 30.0827 121.297 29.476C121.297 28.916 121.437 28.426 121.717 28.006C121.997 27.586 122.389 27.264 122.893 27.04C123.397 26.816 123.981 26.704 124.643 26.704C125.586 26.704 126.356 26.942 126.953 27.418C127.56 27.8847 127.896 28.5287 127.961 29.35H126.197C126.169 28.9953 126.001 28.692 125.693 28.44C125.385 28.188 124.979 28.062 124.475 28.062C124.018 28.062 123.645 28.1787 123.355 28.412C123.066 28.6453 122.921 28.9813 122.921 29.42C122.921 29.7187 123.01 29.966 123.187 30.162C123.374 30.3487 123.607 30.498 123.887 30.61C124.167 30.722 124.55 30.8433 125.035 30.974C125.679 31.1513 126.202 31.3287 126.603 31.506C127.014 31.6833 127.359 31.9587 127.639 32.332C127.929 32.696 128.073 33.186 128.073 33.802C128.073 34.2967 127.938 34.7633 127.667 35.202C127.406 35.6407 127.019 35.9953 126.505 36.266C126.001 36.5273 125.404 36.658 124.713 36.658ZM131.819 30.148V34.418C131.819 34.7073 131.884 34.9173 132.015 35.048C132.155 35.1693 132.388 35.23 132.715 35.23H133.695V36.56H132.435C131.716 36.56 131.165 36.392 130.783 36.056C130.4 35.72 130.209 35.174 130.209 34.418V30.148H129.299V28.846H130.209V26.928H131.819V28.846H133.695V30.148H131.819ZM142.152 28.846V36.56H140.556V35.65C140.304 35.9673 139.972 36.2193 139.562 36.406C139.16 36.5833 138.731 36.672 138.274 36.672C137.667 36.672 137.121 36.546 136.636 36.294C136.16 36.042 135.782 35.6687 135.502 35.174C135.231 34.6793 135.096 34.082 135.096 33.382V28.846H136.678V33.144C136.678 33.8347 136.85 34.3667 137.196 34.74C137.541 35.104 138.012 35.286 138.61 35.286C139.207 35.286 139.678 35.104 140.024 34.74C140.378 34.3667 140.556 33.8347 140.556 33.144V28.846H142.152ZM143.725 32.668C143.725 31.8933 143.884 31.2073 144.201 30.61C144.528 30.0127 144.967 29.5507 145.517 29.224C146.077 28.888 146.698 28.72 147.379 28.72C147.883 28.72 148.378 28.832 148.863 29.056C149.358 29.2707 149.75 29.56 150.039 29.924V26.2H151.649V36.56H150.039V35.398C149.778 35.7713 149.414 36.0793 148.947 36.322C148.49 36.5647 147.963 36.686 147.365 36.686C146.693 36.686 146.077 36.518 145.517 36.182C144.967 35.8367 144.528 35.3607 144.201 34.754C143.884 34.138 143.725 33.4427 143.725 32.668ZM150.039 32.696C150.039 32.164 149.927 31.702 149.703 31.31C149.489 30.918 149.204 30.6193 148.849 30.414C148.495 30.2087 148.112 30.106 147.701 30.106C147.291 30.106 146.908 30.2087 146.553 30.414C146.199 30.61 145.909 30.904 145.685 31.296C145.471 31.6787 145.363 32.136 145.363 32.668C145.363 33.2 145.471 33.6667 145.685 34.068C145.909 34.4693 146.199 34.7773 146.553 34.992C146.917 35.1973 147.3 35.3 147.701 35.3C148.112 35.3 148.495 35.1973 148.849 34.992C149.204 34.7867 149.489 34.488 149.703 34.096C149.927 33.6947 150.039 33.228 150.039 32.696ZM154.558 27.824C154.268 27.824 154.026 27.726 153.83 27.53C153.634 27.334 153.536 27.0913 153.536 26.802C153.536 26.5127 153.634 26.27 153.83 26.074C154.026 25.878 154.268 25.78 154.558 25.78C154.838 25.78 155.076 25.878 155.272 26.074C155.468 26.27 155.566 26.5127 155.566 26.802C155.566 27.0913 155.468 27.334 155.272 27.53C155.076 27.726 154.838 27.824 154.558 27.824ZM155.342 28.846V36.56H153.746V28.846H155.342ZM160.783 36.686C160.055 36.686 159.397 36.5227 158.809 36.196C158.221 35.86 157.759 35.3933 157.423 34.796C157.087 34.1893 156.919 33.4893 156.919 32.696C156.919 31.912 157.092 31.2167 157.437 30.61C157.782 30.0033 158.254 29.5367 158.851 29.21C159.448 28.8833 160.116 28.72 160.853 28.72C161.59 28.72 162.258 28.8833 162.855 29.21C163.452 29.5367 163.924 30.0033 164.269 30.61C164.614 31.2167 164.787 31.912 164.787 32.696C164.787 33.48 164.61 34.1753 164.255 34.782C163.9 35.3887 163.415 35.86 162.799 36.196C162.192 36.5227 161.52 36.686 160.783 36.686ZM160.783 35.3C161.194 35.3 161.576 35.202 161.931 35.006C162.295 34.81 162.589 34.516 162.813 34.124C163.037 33.732 163.149 33.256 163.149 32.696C163.149 32.136 163.042 31.6647 162.827 31.282C162.612 30.89 162.328 30.596 161.973 30.4C161.618 30.204 161.236 30.106 160.825 30.106C160.414 30.106 160.032 30.204 159.677 30.4C159.332 30.596 159.056 30.89 158.851 31.282C158.646 31.6647 158.543 32.136 158.543 32.696C158.543 33.5267 158.753 34.1707 159.173 34.628C159.602 35.076 160.139 35.3 160.783 35.3Z" fill="black"/>
</g>
<defs>
<filter id="filter0_d_52_487" x="0.800781" y="0" width="194.35" height="63.2" filterUnits="userSpaceOnUse" color-interpolation-filters="sRGB">
<feFlood flood-opacity="0" result="BackgroundImageFix"/>
<feColorMatrix in="SourceAlpha" type="matrix" values="0 0 0 0 0 0 0 0 0 0 0 0 0 0 0 0 0 0 127 0" result="hardAlpha"/>
<feOffset/>
<feGaussianBlur stdDeviation="5"/>
<feComposite in2="hardAlpha" operator="out"/>
<feColorMatrix type="matrix" values="0 0 0 0 0 0 0 0 0 0 0 0 0 0 0 0 0 0 0.05 0"/>
<feBlend mode="normal" in2="BackgroundImageFix" result="effect1_dropShadow_52_487"/>
<feBlend mode="normal" in="SourceGraphic" in2="effect1_dropShadow_52_487" result="shape"/>
</filter>
<linearGradient id="paint0_linear_52_487" x1="40.4089" y1="34.2858" x2="50.9151" y2="40.1687" gradientUnits="userSpaceOnUse">
<stop stop-color="#263238" stop-opacity="0.2"/>
<stop offset="1" stop-color="#263238" stop-opacity="0.02"/>
</linearGradient>
<radialGradient id="paint1_radial_52_487" cx="0" cy="0" r="1" gradientUnits="userSpaceOnUse" gradientTransform="translate(35.1927 22.9646) scale(26.3576 28.4384)">
<stop stop-color="white" stop-opacity="0.1"/>
<stop offset="1" stop-color="white" stop-opacity="0"/>
</radialGradient>
<clipPath id="clip0_52_487">
<rect width="24" height="24" fill="white" transform="translate(30.8008 19.61)"/>
</clipPath>
<clipPath id="clip1_52_487">
<rect width="24" height="24" fill="white" transform="translate(30.8008 19.61)"/>
</clipPath>
<clipPath id="clip2_52_487">
<rect width="24" height="24" fill="white" transform="translate(30.8008 19.61)"/>
</clipPath>
</defs>
</svg>
