<svg width="151" height="64" viewBox="0 0 151 64" fill="none" xmlns="http://www.w3.org/2000/svg">
<g filter="url(#filter0_d_52_420)">
<rect x="10.9102" y="10" width="130.03" height="43.2" rx="21.6" fill="white" shape-rendering="crispEdges"/>
<g clip-path="url(#clip0_52_420)">
<g clip-path="url(#clip1_52_420)">
<g clip-path="url(#clip2_52_420)">
<path d="M33.9199 38.9742L36.874 20.0716C36.9101 19.8398 37.0904 19.657 37.3217 19.6177C37.553 19.5784 37.7835 19.6915 37.8941 19.8984L40.9491 25.5964L42.1668 23.2779C42.2612 23.0987 42.4471 22.9864 42.6496 22.9864C42.8522 22.9864 43.0381 23.0987 43.1325 23.2779L51.3768 38.9741L33.9199 38.9742Z" fill="#FFA000"/>
<path d="M44.1254 31.6116L40.9477 25.5944L33.9199 38.9748L44.1254 31.6116Z" fill="#F57C00"/>
<path d="M51.3769 38.9736L49.1143 24.9726C49.0801 24.7716 48.9366 24.6064 48.7423 24.5441C48.548 24.4819 48.3353 24.5337 48.191 24.6779L33.9199 38.9734L41.8165 43.4018C42.3124 43.6786 42.9163 43.6786 43.4122 43.4018L51.3769 38.9736Z" fill="#FFCA28"/>
<path d="M49.1141 24.9729C49.0799 24.7718 48.9364 24.6066 48.7421 24.5444C48.5478 24.4821 48.3351 24.5339 48.1908 24.6781L45.3583 27.5178L43.131 23.2775C43.0367 23.0983 42.8508 22.986 42.6482 22.986C42.4456 22.986 42.2597 23.0983 42.1654 23.2775L40.9477 25.596L37.8925 19.8981C37.7817 19.6911 37.5509 19.5783 37.3193 19.6178C37.0877 19.6574 36.9081 19.8406 36.8723 20.0726L33.9197 38.9739H33.9102L33.9197 38.9848L33.9974 39.023L48.1866 24.8174C48.3309 24.6725 48.5441 24.6204 48.7389 24.6824C48.9338 24.7445 49.0775 24.9103 49.1113 25.112L51.3548 38.9875L51.3767 38.9738L49.1141 24.9729ZM33.9456 38.948L36.8737 20.2063C36.9094 19.9743 37.0895 19.7911 37.3209 19.7515C37.5523 19.7119 37.7831 19.8248 37.894 20.0318L40.9489 25.7298L42.1666 23.4113C42.2609 23.232 42.4468 23.1198 42.6494 23.1198C42.852 23.1198 43.0379 23.232 43.1322 23.4113L45.3143 27.5614L33.9456 38.948Z" fill="white" fill-opacity="0.2"/>
<path opacity="0.2" d="M43.4122 43.2684C42.9163 43.5452 42.3124 43.5452 41.8165 43.2684L33.939 38.8523L33.9199 38.9738L41.8165 43.4007C42.3124 43.6776 42.9163 43.6776 43.4122 43.4007L51.3769 38.9738L51.3564 38.8483L43.4122 43.2684Z" fill="#A52714"/>
<path d="M49.0923 24.9764C49.0583 24.7754 48.9153 24.6102 48.7216 24.5483C48.528 24.4864 48.3161 24.5378 48.1723 24.6819L45.3495 27.5202L43.1302 23.2819C43.0362 23.1027 42.8509 22.9905 42.6491 22.9905C42.4472 22.9905 42.262 23.1027 42.168 23.2819L40.9544 25.5994L37.9101 19.9038C37.7997 19.697 37.5697 19.5841 37.3392 19.6237C37.1086 19.6633 36.9291 19.8464 36.8936 20.0783L33.9512 38.9713L41.8201 43.3963C42.3142 43.673 42.916 43.673 43.4102 43.3963L51.347 38.9713L49.0923 24.9764Z" fill="url(#paint0_linear_52_420)"/>
</g>
</g>
</g>
<path d="M67.8854 26.83V28.132H63.7554V31.002H66.9754V32.304H63.7554V36.56H62.1594V26.83H67.8854ZM70.1765 27.824C69.8872 27.824 69.6445 27.726 69.4485 27.53C69.2525 27.334 69.1545 27.0913 69.1545 26.802C69.1545 26.5127 69.2525 26.27 69.4485 26.074C69.6445 25.878 69.8872 25.78 70.1765 25.78C70.4565 25.78 70.6945 25.878 70.8905 26.074C71.0865 26.27 71.1845 26.5127 71.1845 26.802C71.1845 27.0913 71.0865 27.334 70.8905 27.53C70.6945 27.726 70.4565 27.824 70.1765 27.824ZM70.9605 28.846V36.56H69.3645V28.846H70.9605ZM74.6519 29.966C74.8853 29.574 75.1933 29.2707 75.5759 29.056C75.9679 28.832 76.4299 28.72 76.9619 28.72V30.372H76.5559C75.9306 30.372 75.4546 30.5307 75.1279 30.848C74.8106 31.1653 74.6519 31.716 74.6519 32.5V36.56H73.0559V28.846H74.6519V29.966ZM85.499 32.514C85.499 32.8033 85.4803 33.0647 85.443 33.298H79.549C79.5956 33.914 79.8243 34.4087 80.235 34.782C80.6456 35.1553 81.1496 35.342 81.747 35.342C82.6056 35.342 83.2123 34.9827 83.567 34.264H85.289C85.0556 34.9733 84.631 35.5567 84.015 36.014C83.4083 36.462 82.6523 36.686 81.747 36.686C81.0096 36.686 80.347 36.5227 79.759 36.196C79.1803 35.86 78.723 35.3933 78.387 34.796C78.0603 34.1893 77.897 33.4893 77.897 32.696C77.897 31.9027 78.0556 31.2073 78.373 30.61C78.6996 30.0033 79.1523 29.5367 79.731 29.21C80.319 28.8833 80.991 28.72 81.747 28.72C82.475 28.72 83.1236 28.8787 83.693 29.196C84.2623 29.5133 84.7056 29.9613 85.023 30.54C85.3403 31.1093 85.499 31.7673 85.499 32.514ZM83.833 32.01C83.8236 31.422 83.6136 30.9507 83.203 30.596C82.7923 30.2413 82.2836 30.064 81.677 30.064C81.1263 30.064 80.655 30.2413 80.263 30.596C79.871 30.9413 79.6376 31.4127 79.563 32.01H83.833ZM88.6656 29.994C88.9363 29.6207 89.3049 29.3173 89.7716 29.084C90.2476 28.8413 90.7749 28.72 91.3536 28.72C92.0349 28.72 92.6509 28.8833 93.2016 29.21C93.7523 29.5367 94.1863 30.0033 94.5036 30.61C94.8209 31.2073 94.9796 31.8933 94.9796 32.668C94.9796 33.4427 94.8209 34.138 94.5036 34.754C94.1863 35.3607 93.7476 35.8367 93.1876 36.182C92.6369 36.518 92.0256 36.686 91.3536 36.686C90.7563 36.686 90.2243 36.5693 89.7576 36.336C89.3003 36.1027 88.9363 35.804 88.6656 35.44V36.56H87.0696V26.2H88.6656V29.994ZM93.3556 32.668C93.3556 32.136 93.2436 31.6787 93.0196 31.296C92.8049 30.904 92.5156 30.61 92.1516 30.414C91.7969 30.2087 91.4143 30.106 91.0036 30.106C90.6023 30.106 90.2196 30.2087 89.8556 30.414C89.5009 30.6193 89.2116 30.918 88.9876 31.31C88.7729 31.702 88.6656 32.164 88.6656 32.696C88.6656 33.228 88.7729 33.6947 88.9876 34.096C89.2116 34.488 89.5009 34.7867 89.8556 34.992C90.2196 35.1973 90.6023 35.3 91.0036 35.3C91.4143 35.3 91.7969 35.1973 92.1516 34.992C92.5156 34.7773 92.8049 34.4693 93.0196 34.068C93.2436 33.6667 93.3556 33.2 93.3556 32.668ZM96.0259 32.668C96.0259 31.8933 96.1845 31.2073 96.5019 30.61C96.8285 30.0127 97.2672 29.5507 97.8179 29.224C98.3779 28.888 98.9939 28.72 99.6659 28.72C100.273 28.72 100.8 28.8413 101.248 29.084C101.705 29.3173 102.069 29.6113 102.34 29.966V28.846H103.95V36.56H102.34V35.412C102.069 35.776 101.701 36.0793 101.234 36.322C100.767 36.5647 100.235 36.686 99.6379 36.686C98.9752 36.686 98.3685 36.518 97.8179 36.182C97.2672 35.8367 96.8285 35.3607 96.5019 34.754C96.1845 34.138 96.0259 33.4427 96.0259 32.668ZM102.34 32.696C102.34 32.164 102.228 31.702 102.004 31.31C101.789 30.918 101.505 30.6193 101.15 30.414C100.795 30.2087 100.413 30.106 100.002 30.106C99.5912 30.106 99.2085 30.2087 98.8539 30.414C98.4992 30.61 98.2099 30.904 97.9859 31.296C97.7712 31.6787 97.6639 32.136 97.6639 32.668C97.6639 33.2 97.7712 33.6667 97.9859 34.068C98.2099 34.4693 98.4992 34.7773 98.8539 34.992C99.2179 35.1973 99.6005 35.3 100.002 35.3C100.413 35.3 100.795 35.1973 101.15 34.992C101.505 34.7867 101.789 34.488 102.004 34.096C102.228 33.6947 102.34 33.228 102.34 32.696ZM108.846 36.686C108.239 36.686 107.693 36.5787 107.208 36.364C106.732 36.14 106.354 35.8413 106.074 35.468C105.794 35.0853 105.645 34.6607 105.626 34.194H107.278C107.306 34.5207 107.46 34.796 107.74 35.02C108.029 35.2347 108.389 35.342 108.818 35.342C109.266 35.342 109.611 35.258 109.854 35.09C110.106 34.9127 110.232 34.6887 110.232 34.418C110.232 34.1287 110.092 33.914 109.812 33.774C109.541 33.634 109.107 33.48 108.51 33.312C107.931 33.1533 107.46 32.9993 107.096 32.85C106.732 32.7007 106.415 32.472 106.144 32.164C105.883 31.856 105.752 31.45 105.752 30.946C105.752 30.5353 105.873 30.162 106.116 29.826C106.359 29.4807 106.704 29.21 107.152 29.014C107.609 28.818 108.132 28.72 108.72 28.72C109.597 28.72 110.302 28.944 110.834 29.392C111.375 29.8307 111.665 30.4327 111.702 31.198H110.106C110.078 30.8527 109.938 30.5773 109.686 30.372C109.434 30.1667 109.093 30.064 108.664 30.064C108.244 30.064 107.922 30.1433 107.698 30.302C107.474 30.4607 107.362 30.6707 107.362 30.932C107.362 31.1373 107.437 31.31 107.586 31.45C107.735 31.59 107.917 31.702 108.132 31.786C108.347 31.8607 108.664 31.9587 109.084 32.08C109.644 32.2293 110.101 32.3833 110.456 32.542C110.82 32.6913 111.133 32.9153 111.394 33.214C111.655 33.5127 111.791 33.9093 111.8 34.404C111.8 34.8427 111.679 35.2347 111.436 35.58C111.193 35.9253 110.848 36.196 110.4 36.392C109.961 36.588 109.443 36.686 108.846 36.686ZM120.595 32.514C120.595 32.8033 120.576 33.0647 120.539 33.298H114.645C114.691 33.914 114.92 34.4087 115.331 34.782C115.741 35.1553 116.245 35.342 116.843 35.342C117.701 35.342 118.308 34.9827 118.663 34.264H120.385C120.151 34.9733 119.727 35.5567 119.111 36.014C118.504 36.462 117.748 36.686 116.843 36.686C116.105 36.686 115.443 36.5227 114.855 36.196C114.276 35.86 113.819 35.3933 113.483 34.796C113.156 34.1893 112.993 33.4893 112.993 32.696C112.993 31.9027 113.151 31.2073 113.469 30.61C113.795 30.0033 114.248 29.5367 114.827 29.21C115.415 28.8833 116.087 28.72 116.843 28.72C117.571 28.72 118.219 28.8787 118.789 29.196C119.358 29.5133 119.801 29.9613 120.119 30.54C120.436 31.1093 120.595 31.7673 120.595 32.514ZM118.929 32.01C118.919 31.422 118.709 30.9507 118.299 30.596C117.888 30.2413 117.379 30.064 116.773 30.064C116.222 30.064 115.751 30.2413 115.359 30.596C114.967 30.9413 114.733 31.4127 114.659 32.01H118.929Z" fill="black"/>
</g>
<defs>
<filter id="filter0_d_52_420" x="0.910156" y="0" width="150.03" height="63.2" filterUnits="userSpaceOnUse" color-interpolation-filters="sRGB">
<feFlood flood-opacity="0" result="BackgroundImageFix"/>
<feColorMatrix in="SourceAlpha" type="matrix" values="0 0 0 0 0 0 0 0 0 0 0 0 0 0 0 0 0 0 127 0" result="hardAlpha"/>
<feOffset/>
<feGaussianBlur stdDeviation="5"/>
<feComposite in2="hardAlpha" operator="out"/>
<feColorMatrix type="matrix" values="0 0 0 0 0 0 0 0 0 0 0 0 0 0 0 0 0 0 0.05 0"/>
<feBlend mode="normal" in2="BackgroundImageFix" result="effect1_dropShadow_52_420"/>
<feBlend mode="normal" in="SourceGraphic" in2="effect1_dropShadow_52_420" result="shape"/>
</filter>
<linearGradient id="paint0_linear_52_420" x1="-26.7605" y1="427.892" x2="2144.09" y2="1572.99" gradientUnits="userSpaceOnUse">
<stop stop-color="white" stop-opacity="0.1"/>
<stop offset="0.14" stop-color="white" stop-opacity="0.08"/>
<stop offset="0.61" stop-color="white" stop-opacity="0.02"/>
<stop offset="1" stop-color="white" stop-opacity="0"/>
</linearGradient>
<clipPath id="clip0_52_420">
<rect width="24" height="24" fill="white" transform="translate(30.9102 19.61)"/>
</clipPath>
<clipPath id="clip1_52_420">
<rect width="24" height="24" fill="white" transform="translate(30.9102 19.61)"/>
</clipPath>
<clipPath id="clip2_52_420">
<rect width="24" height="24" fill="white" transform="translate(30.9102 19.61)"/>
</clipPath>
</defs>
</svg>
