<svg width="140" height="65" viewBox="0 0 140 65" fill="none" xmlns="http://www.w3.org/2000/svg">
<g filter="url(#filter0_d_52_441)">
<rect x="10.5098" y="10" width="118.8" height="44.2" rx="22.1" fill="white" shape-rendering="crispEdges"/>
<g clip-path="url(#clip0_52_441)">
<g clip-path="url(#clip1_52_441)">
<g clip-path="url(#clip2_52_441)">
<path d="M42.3669 19.6102C41.3773 19.6148 40.4322 19.6992 39.6006 19.8463C37.1509 20.2791 36.7062 21.1849 36.7062 22.8555V25.0617H42.4951V25.7971H36.7062H34.5337C32.8512 25.7971 31.3781 26.8084 30.9173 28.7321C30.3858 30.9371 30.3622 32.3131 30.9173 34.6154C31.3288 36.3292 32.3115 37.5504 33.9939 37.5504H35.9843V34.9056C35.9843 32.9948 37.6375 31.3094 39.6006 31.3094H45.3828C46.9923 31.3094 48.2772 29.9842 48.2772 28.3677V22.8555C48.2772 21.2866 46.9538 20.1082 45.3828 19.8463C44.3883 19.6808 43.3565 19.6056 42.3669 19.6102ZM39.2363 21.3846C39.8342 21.3846 40.3226 21.8809 40.3226 22.4911C40.3226 23.0992 39.8342 23.5909 39.2363 23.5909C38.6362 23.5909 38.15 23.0992 38.15 22.4911C38.15 21.8809 38.6362 21.3846 39.2363 21.3846Z" fill="url(#paint0_linear_52_441)"/>
<path d="M49 25.7975V28.3681C49 30.361 47.3104 32.0384 45.3837 32.0384H39.6015C38.0177 32.0384 36.707 33.394 36.707 34.9801V40.4924C36.707 42.0612 38.0712 42.984 39.6015 43.4341C41.434 43.9729 43.1912 44.0702 45.3837 43.4341C46.841 43.0121 48.2781 42.1629 48.2781 40.4924V38.2861H42.496V37.5507H48.2781H51.1726C52.855 37.5507 53.4819 36.3772 54.067 34.6158C54.6714 32.8024 54.6457 31.0586 54.067 28.7324C53.6512 27.0576 52.8571 25.7975 51.1726 25.7975H49ZM45.748 39.757C46.3481 39.757 46.8343 40.2487 46.8343 40.8567C46.8343 41.4669 46.3481 41.9632 45.748 41.9632C45.15 41.9632 44.6617 41.4669 44.6617 40.8567C44.6617 40.2487 45.15 39.757 45.748 39.757Z" fill="url(#paint1_linear_52_441)"/>
</g>
</g>
</g>
<path d="M68.541 30.228C68.541 30.7227 68.4243 31.1893 68.191 31.628C67.9577 32.0667 67.5843 32.426 67.071 32.706C66.5577 32.9767 65.8997 33.112 65.097 33.112H63.333V37.06H61.737V27.33H65.097C65.8437 27.33 66.4737 27.4607 66.987 27.722C67.5097 27.974 67.897 28.3193 68.149 28.758C68.4103 29.1967 68.541 29.6867 68.541 30.228ZM65.097 31.81C65.7037 31.81 66.1563 31.6747 66.455 31.404C66.7537 31.124 66.903 30.732 66.903 30.228C66.903 29.164 66.301 28.632 65.097 28.632H63.333V31.81H65.097ZM77.0072 29.346L72.2752 40.686H70.6232L72.1912 36.934L69.1532 29.346H70.9312L73.1012 35.226L75.3552 29.346H77.0072ZM80.0736 30.648V34.918C80.0736 35.2073 80.1389 35.4173 80.2696 35.548C80.4096 35.6693 80.6429 35.73 80.9696 35.73H81.9496V37.06H80.6896C79.9709 37.06 79.4203 36.892 79.0376 36.556C78.6549 36.22 78.4636 35.674 78.4636 34.918V30.648H77.5536V29.346H78.4636V27.428H80.0736V29.346H81.9496V30.648H80.0736ZM87.4106 29.22C87.9986 29.22 88.5213 29.346 88.9786 29.598C89.4453 29.85 89.8093 30.2233 90.0706 30.718C90.3413 31.2127 90.4766 31.81 90.4766 32.51V37.06H88.8946V32.748C88.8946 32.0573 88.7219 31.53 88.3766 31.166C88.0313 30.7927 87.5599 30.606 86.9626 30.606C86.3653 30.606 85.8893 30.7927 85.5346 31.166C85.1893 31.53 85.0166 32.0573 85.0166 32.748V37.06H83.4206V26.7H85.0166V30.242C85.2873 29.9153 85.6279 29.6633 86.0386 29.486C86.4586 29.3087 86.9159 29.22 87.4106 29.22ZM95.8584 37.186C95.1304 37.186 94.4724 37.0227 93.8844 36.696C93.2964 36.36 92.8344 35.8933 92.4984 35.296C92.1624 34.6893 91.9944 33.9893 91.9944 33.196C91.9944 32.412 92.167 31.7167 92.5124 31.11C92.8577 30.5033 93.3291 30.0367 93.9264 29.71C94.5237 29.3833 95.1911 29.22 95.9284 29.22C96.6657 29.22 97.3331 29.3833 97.9304 29.71C98.5277 30.0367 98.9991 30.5033 99.3444 31.11C99.6897 31.7167 99.8624 32.412 99.8624 33.196C99.8624 33.98 99.6851 34.6753 99.3304 35.282C98.9757 35.8887 98.4904 36.36 97.8744 36.696C97.2677 37.0227 96.5957 37.186 95.8584 37.186ZM95.8584 35.8C96.2691 35.8 96.6517 35.702 97.0064 35.506C97.3704 35.31 97.6644 35.016 97.8884 34.624C98.1124 34.232 98.2244 33.756 98.2244 33.196C98.2244 32.636 98.1171 32.1647 97.9024 31.782C97.6877 31.39 97.4031 31.096 97.0484 30.9C96.6937 30.704 96.3111 30.606 95.9004 30.606C95.4897 30.606 95.1071 30.704 94.7524 30.9C94.4071 31.096 94.1317 31.39 93.9264 31.782C93.7211 32.1647 93.6184 32.636 93.6184 33.196C93.6184 34.0267 93.8284 34.6707 94.2484 35.128C94.6777 35.576 95.2144 35.8 95.8584 35.8ZM105.332 29.22C105.939 29.22 106.48 29.346 106.956 29.598C107.441 29.85 107.819 30.2233 108.09 30.718C108.361 31.2127 108.496 31.81 108.496 32.51V37.06H106.914V32.748C106.914 32.0573 106.741 31.53 106.396 31.166C106.051 30.7927 105.579 30.606 104.982 30.606C104.385 30.606 103.909 30.7927 103.554 31.166C103.209 31.53 103.036 32.0573 103.036 32.748V37.06H101.44V29.346H103.036V30.228C103.297 29.9107 103.629 29.6633 104.03 29.486C104.441 29.3087 104.875 29.22 105.332 29.22Z" fill="black"/>
</g>
<defs>
<filter id="filter0_d_52_441" x="0.509766" y="0" width="138.8" height="64.2" filterUnits="userSpaceOnUse" color-interpolation-filters="sRGB">
<feFlood flood-opacity="0" result="BackgroundImageFix"/>
<feColorMatrix in="SourceAlpha" type="matrix" values="0 0 0 0 0 0 0 0 0 0 0 0 0 0 0 0 0 0 127 0" result="hardAlpha"/>
<feOffset/>
<feGaussianBlur stdDeviation="5"/>
<feComposite in2="hardAlpha" operator="out"/>
<feColorMatrix type="matrix" values="0 0 0 0 0 0 0 0 0 0 0 0 0 0 0 0 0 0 0.05 0"/>
<feBlend mode="normal" in2="BackgroundImageFix" result="effect1_dropShadow_52_441"/>
<feBlend mode="normal" in="SourceGraphic" in2="effect1_dropShadow_52_441" result="shape"/>
</filter>
<linearGradient id="paint0_linear_52_441" x1="30.5098" y1="19.61" x2="43.8583" y2="30.9848" gradientUnits="userSpaceOnUse">
<stop stop-color="#5A9FD4"/>
<stop offset="1" stop-color="#306998"/>
</linearGradient>
<linearGradient id="paint1_linear_52_441" x1="45.6089" y1="40.6712" x2="40.8199" y2="33.9605" gradientUnits="userSpaceOnUse">
<stop stop-color="#FFD43B"/>
<stop offset="1" stop-color="#FFE873"/>
</linearGradient>
<clipPath id="clip0_52_441">
<rect width="24" height="25" fill="white" transform="translate(30.5098 19.61)"/>
</clipPath>
<clipPath id="clip1_52_441">
<rect width="24" height="25" fill="white" transform="translate(30.5098 19.61)"/>
</clipPath>
<clipPath id="clip2_52_441">
<rect width="24" height="25" fill="white" transform="translate(30.5098 19.61)"/>
</clipPath>
</defs>
</svg>
