<svg width="139" height="65" viewBox="0 0 139 65" fill="none" xmlns="http://www.w3.org/2000/svg">
<g filter="url(#filter0_d_52_619)">
<rect x="10.7305" y="10" width="117.55" height="44.2" rx="22.1" fill="white" shape-rendering="crispEdges"/>
<g clip-path="url(#clip0_52_619)">
<g clip-path="url(#clip1_52_619)">
<g clip-path="url(#clip2_52_619)">
<mask id="mask0_52_619" style="mask-type:luminance" maskUnits="userSpaceOnUse" x="30" y="20" width="25" height="25">
<path d="M54.7305 20.1516H30.7305V44.1516H54.7305V20.1516Z" fill="white"/>
</mask>
<g mask="url(#mask0_52_619)">
<path d="M35.9434 21.8448L42.707 21.1298L49.4707 21.8448L54.707 28.8741L42.707 42.8479L30.707 28.8741L35.9434 21.8448Z" fill="#FDB300"/>
<path d="M35.5676 28.8741L42.707 42.8479L30.707 28.8741H35.5676Z" fill="#EA6C00"/>
<path d="M49.8464 28.8741L42.707 42.8479L54.707 28.8741H49.8464Z" fill="#EA6C00"/>
<path d="M35.5684 28.8741H49.8471L42.7077 42.8479L35.5684 28.8741Z" fill="#FDAD00"/>
<path d="M42.7077 21.1298L35.9441 21.8448L35.5684 28.8741L42.7077 21.1298Z" fill="#FDD231"/>
<path d="M42.707 21.1298L49.4706 21.8448L49.8464 28.8741L42.707 21.1298Z" fill="#FDD231"/>
<path d="M54.707 28.8742L49.4706 21.8448L49.8464 28.8742H54.707Z" fill="#FDAD00"/>
<path d="M30.707 28.8742L35.9434 21.8448L35.5676 28.8742H30.707Z" fill="#FDAD00"/>
<path d="M42.7077 21.1298L35.5684 28.8741H49.8471L42.7077 21.1298Z" fill="#FEEEB7"/>
</g>
</g>
</g>
</g>
<path d="M65.1656 37.158C64.5123 37.158 63.9243 37.046 63.4016 36.822C62.879 36.5887 62.4683 36.262 62.1696 35.842C61.871 35.422 61.7216 34.932 61.7216 34.372H63.4296C63.467 34.792 63.6303 35.1373 63.9196 35.408C64.2183 35.6787 64.6336 35.814 65.1656 35.814C65.7163 35.814 66.1456 35.6833 66.4536 35.422C66.7616 35.1513 66.9156 34.806 66.9156 34.386C66.9156 34.0593 66.8176 33.7933 66.6216 33.588C66.435 33.3827 66.197 33.224 65.9076 33.112C65.6276 33 65.2356 32.8787 64.7316 32.748C64.097 32.58 63.579 32.412 63.1776 32.244C62.7856 32.0667 62.4496 31.796 62.1696 31.432C61.8896 31.068 61.7496 30.5827 61.7496 29.976C61.7496 29.416 61.8896 28.926 62.1696 28.506C62.4496 28.086 62.8416 27.764 63.3456 27.54C63.8496 27.316 64.433 27.204 65.0956 27.204C66.0383 27.204 66.8083 27.442 67.4056 27.918C68.0123 28.3847 68.3483 29.0287 68.4136 29.85H66.6496C66.6216 29.4953 66.4536 29.192 66.1456 28.94C65.8376 28.688 65.4316 28.562 64.9276 28.562C64.4703 28.562 64.097 28.6787 63.8076 28.912C63.5183 29.1453 63.3736 29.4813 63.3736 29.92C63.3736 30.2187 63.4623 30.466 63.6396 30.662C63.8263 30.8487 64.0596 30.998 64.3396 31.11C64.6196 31.222 65.0023 31.3433 65.4876 31.474C66.1316 31.6513 66.6543 31.8287 67.0556 32.006C67.4663 32.1833 67.8116 32.4587 68.0916 32.832C68.381 33.196 68.5256 33.686 68.5256 34.302C68.5256 34.7967 68.3903 35.2633 68.1196 35.702C67.8583 36.1407 67.471 36.4953 66.9576 36.766C66.4536 37.0273 65.8563 37.158 65.1656 37.158ZM73.4609 33.21L77.0169 37.06H74.8609L72.0049 33.742V37.06H70.4089V26.7H72.0049V32.72L74.8049 29.346H77.0169L73.4609 33.21ZM85.2308 33.014C85.2308 33.3033 85.2122 33.5647 85.1748 33.798H79.2808C79.3275 34.414 79.5562 34.9087 79.9668 35.282C80.3775 35.6553 80.8815 35.842 81.4788 35.842C82.3375 35.842 82.9442 35.4827 83.2988 34.764H85.0208C84.7875 35.4733 84.3628 36.0567 83.7468 36.514C83.1402 36.962 82.3842 37.186 81.4788 37.186C80.7415 37.186 80.0788 37.0227 79.4908 36.696C78.9122 36.36 78.4548 35.8933 78.1188 35.296C77.7922 34.6893 77.6288 33.9893 77.6288 33.196C77.6288 32.4027 77.7875 31.7073 78.1048 31.11C78.4315 30.5033 78.8842 30.0367 79.4628 29.71C80.0508 29.3833 80.7228 29.22 81.4788 29.22C82.2068 29.22 82.8555 29.3787 83.4248 29.696C83.9942 30.0133 84.4375 30.4613 84.7548 31.04C85.0722 31.6093 85.2308 32.2673 85.2308 33.014ZM83.5648 32.51C83.5555 31.922 83.3455 31.4507 82.9348 31.096C82.5242 30.7413 82.0155 30.564 81.4088 30.564C80.8582 30.564 80.3868 30.7413 79.9948 31.096C79.6028 31.4413 79.3695 31.9127 79.2948 32.51H83.5648ZM88.6634 30.648V34.918C88.6634 35.2073 88.7288 35.4173 88.8594 35.548C88.9994 35.6693 89.2328 35.73 89.5594 35.73H90.5394V37.06H89.2794C88.5608 37.06 88.0101 36.892 87.6274 36.556C87.2448 36.22 87.0534 35.674 87.0534 34.918V30.648H86.1434V29.346H87.0534V27.428H88.6634V29.346H90.5394V30.648H88.6634ZM91.4784 33.196C91.4784 32.4027 91.6371 31.7073 91.9544 31.11C92.2811 30.5033 92.7291 30.0367 93.2984 29.71C93.8678 29.3833 94.5211 29.22 95.2584 29.22C96.1918 29.22 96.9618 29.444 97.5684 29.892C98.1844 30.3307 98.5998 30.9607 98.8144 31.782H97.0924C96.9524 31.3993 96.7284 31.1007 96.4204 30.886C96.1124 30.6713 95.7251 30.564 95.2584 30.564C94.6051 30.564 94.0824 30.7973 93.6904 31.264C93.3078 31.7213 93.1164 32.3653 93.1164 33.196C93.1164 34.0267 93.3078 34.6753 93.6904 35.142C94.0824 35.6087 94.6051 35.842 95.2584 35.842C96.1824 35.842 96.7938 35.436 97.0924 34.624H98.8144C98.5904 35.408 98.1704 36.0333 97.5544 36.5C96.9384 36.9573 96.1731 37.186 95.2584 37.186C94.5211 37.186 93.8678 37.0227 93.2984 36.696C92.7291 36.36 92.2811 35.8933 91.9544 35.296C91.6371 34.6893 91.4784 33.9893 91.4784 33.196ZM104.395 29.22C104.983 29.22 105.506 29.346 105.963 29.598C106.43 29.85 106.794 30.2233 107.055 30.718C107.326 31.2127 107.461 31.81 107.461 32.51V37.06H105.879V32.748C105.879 32.0573 105.706 31.53 105.361 31.166C105.016 30.7927 104.544 30.606 103.947 30.606C103.35 30.606 102.874 30.7927 102.519 31.166C102.174 31.53 102.001 32.0573 102.001 32.748V37.06H100.405V26.7H102.001V30.242C102.272 29.9153 102.612 29.6633 103.023 29.486C103.443 29.3087 103.9 29.22 104.395 29.22Z" fill="black"/>
</g>
<defs>
<filter id="filter0_d_52_619" x="0.730469" y="0" width="137.55" height="64.2" filterUnits="userSpaceOnUse" color-interpolation-filters="sRGB">
<feFlood flood-opacity="0" result="BackgroundImageFix"/>
<feColorMatrix in="SourceAlpha" type="matrix" values="0 0 0 0 0 0 0 0 0 0 0 0 0 0 0 0 0 0 127 0" result="hardAlpha"/>
<feOffset/>
<feGaussianBlur stdDeviation="5"/>
<feComposite in2="hardAlpha" operator="out"/>
<feColorMatrix type="matrix" values="0 0 0 0 0 0 0 0 0 0 0 0 0 0 0 0 0 0 0.05 0"/>
<feBlend mode="normal" in2="BackgroundImageFix" result="effect1_dropShadow_52_619"/>
<feBlend mode="normal" in="SourceGraphic" in2="effect1_dropShadow_52_619" result="shape"/>
</filter>
<clipPath id="clip0_52_619">
<rect width="24" height="25" fill="white" transform="translate(30.7305 19.61)"/>
</clipPath>
<clipPath id="clip1_52_619">
<rect width="24" height="25" fill="white" transform="translate(30.7305 19.61)"/>
</clipPath>
<clipPath id="clip2_52_619">
<rect width="24" height="25" fill="white" transform="translate(30.7305 19.61)"/>
</clipPath>
</defs>
</svg>
