<svg width="135" height="64" viewBox="0 0 135 64" fill="none" xmlns="http://www.w3.org/2000/svg">
<g filter="url(#filter0_d_52_609)">
<rect x="10.2891" y="10.5" width="114.44" height="43.2" rx="21.6" fill="white" shape-rendering="crispEdges"/>
<g clip-path="url(#clip0_52_609)">
<g clip-path="url(#clip1_52_609)">
<g clip-path="url(#clip2_52_609)">
<path d="M38.2929 44.11C40.5009 44.11 42.2929 42.318 42.2929 40.11V36.11H38.2929C36.085 36.11 34.293 37.902 34.293 40.11C34.293 42.318 36.085 44.11 38.2929 44.11Z" fill="#0ACF83"/>
<path d="M34.293 32.11C34.293 29.902 36.085 28.11 38.2929 28.11H42.2929V36.11H38.2929C36.085 36.11 34.293 34.318 34.293 32.11Z" fill="#A259FF"/>
<path d="M34.293 24.11C34.293 21.902 36.085 20.11 38.2929 20.11H42.2929V28.11H38.2929C36.085 28.11 34.293 26.318 34.293 24.11Z" fill="#F24E1E"/>
<path d="M42.291 20.11H46.291C48.499 20.11 50.291 21.902 50.291 24.11C50.291 26.318 48.499 28.11 46.291 28.11H42.291V20.11Z" fill="#FF7262"/>
<path d="M50.291 32.11C50.291 34.318 48.499 36.11 46.291 36.11C44.083 36.11 42.291 34.318 42.291 32.11C42.291 29.902 44.083 28.11 46.291 28.11C48.499 28.11 50.291 29.902 50.291 32.11Z" fill="#1ABCFE"/>
</g>
</g>
</g>
<path d="M67.243 27.33V28.632H63.113V31.502H66.333V32.804H63.113V37.06H61.517V27.33H67.243ZM69.5341 28.324C69.2447 28.324 69.0021 28.226 68.8061 28.03C68.6101 27.834 68.5121 27.5913 68.5121 27.302C68.5121 27.0127 68.6101 26.77 68.8061 26.574C69.0021 26.378 69.2447 26.28 69.5341 26.28C69.8141 26.28 70.0521 26.378 70.2481 26.574C70.4441 26.77 70.5421 27.0127 70.5421 27.302C70.5421 27.5913 70.4441 27.834 70.2481 28.03C70.0521 28.226 69.8141 28.324 69.5341 28.324ZM70.3181 29.346V37.06H68.7221V29.346H70.3181ZM75.5215 29.22C76.1188 29.22 76.6461 29.3413 77.1035 29.584C77.5701 29.8173 77.9341 30.1113 78.1955 30.466V29.346H79.8055V37.186C79.8055 37.8953 79.6561 38.5253 79.3575 39.076C79.0588 39.636 78.6248 40.0747 78.0555 40.392C77.4955 40.7093 76.8235 40.868 76.0395 40.868C74.9941 40.868 74.1261 40.6207 73.4355 40.126C72.7448 39.6407 72.3528 38.978 72.2595 38.138H73.8415C73.9628 38.5393 74.2195 38.8613 74.6115 39.104C75.0128 39.356 75.4888 39.482 76.0395 39.482C76.6835 39.482 77.2015 39.286 77.5935 38.894C77.9948 38.502 78.1955 37.9327 78.1955 37.186V35.898C77.9248 36.262 77.5561 36.57 77.0895 36.822C76.6321 37.0647 76.1095 37.186 75.5215 37.186C74.8495 37.186 74.2335 37.018 73.6735 36.682C73.1228 36.3367 72.6841 35.8607 72.3575 35.254C72.0401 34.638 71.8815 33.9427 71.8815 33.168C71.8815 32.3933 72.0401 31.7073 72.3575 31.11C72.6841 30.5127 73.1228 30.0507 73.6735 29.724C74.2335 29.388 74.8495 29.22 75.5215 29.22ZM78.1955 33.196C78.1955 32.664 78.0835 32.202 77.8595 31.81C77.6448 31.418 77.3601 31.1193 77.0055 30.914C76.6508 30.7087 76.2681 30.606 75.8575 30.606C75.4468 30.606 75.0641 30.7087 74.7095 30.914C74.3548 31.11 74.0655 31.404 73.8415 31.796C73.6268 32.1787 73.5195 32.636 73.5195 33.168C73.5195 33.7 73.6268 34.1667 73.8415 34.568C74.0655 34.9693 74.3548 35.2773 74.7095 35.492C75.0735 35.6973 75.4561 35.8 75.8575 35.8C76.2681 35.8 76.6508 35.6973 77.0055 35.492C77.3601 35.2867 77.6448 34.988 77.8595 34.596C78.0835 34.1947 78.1955 33.728 78.1955 33.196ZM91.2397 29.22C91.8464 29.22 92.3877 29.346 92.8637 29.598C93.3491 29.85 93.7271 30.2233 93.9977 30.718C94.2777 31.2127 94.4177 31.81 94.4177 32.51V37.06H92.8357V32.748C92.8357 32.0573 92.6631 31.53 92.3177 31.166C91.9724 30.7927 91.5011 30.606 90.9037 30.606C90.3064 30.606 89.8304 30.7927 89.4757 31.166C89.1304 31.53 88.9577 32.0573 88.9577 32.748V37.06H87.3757V32.748C87.3757 32.0573 87.2031 31.53 86.8577 31.166C86.5124 30.7927 86.0411 30.606 85.4437 30.606C84.8464 30.606 84.3704 30.7927 84.0157 31.166C83.6704 31.53 83.4977 32.0573 83.4977 32.748V37.06H81.9017V29.346H83.4977V30.228C83.7591 29.9107 84.0904 29.6633 84.4917 29.486C84.8931 29.3087 85.3224 29.22 85.7797 29.22C86.3957 29.22 86.9464 29.3507 87.4317 29.612C87.9171 29.8733 88.2904 30.2513 88.5517 30.746C88.7851 30.2793 89.1491 29.9107 89.6437 29.64C90.1384 29.36 90.6704 29.22 91.2397 29.22ZM95.9166 33.168C95.9166 32.3933 96.0753 31.7073 96.3926 31.11C96.7193 30.5127 97.158 30.0507 97.7086 29.724C98.2686 29.388 98.8846 29.22 99.5566 29.22C100.163 29.22 100.691 29.3413 101.139 29.584C101.596 29.8173 101.96 30.1113 102.231 30.466V29.346H103.841V37.06H102.231V35.912C101.96 36.276 101.591 36.5793 101.125 36.822C100.658 37.0647 100.126 37.186 99.5286 37.186C98.866 37.186 98.2593 37.018 97.7086 36.682C97.158 36.3367 96.7193 35.8607 96.3926 35.254C96.0753 34.638 95.9166 33.9427 95.9166 33.168ZM102.231 33.196C102.231 32.664 102.119 32.202 101.895 31.81C101.68 31.418 101.395 31.1193 101.041 30.914C100.686 30.7087 100.303 30.606 99.8926 30.606C99.482 30.606 99.0993 30.7087 98.7446 30.914C98.39 31.11 98.1006 31.404 97.8766 31.796C97.662 32.1787 97.5546 32.636 97.5546 33.168C97.5546 33.7 97.662 34.1667 97.8766 34.568C98.1006 34.9693 98.39 35.2773 98.7446 35.492C99.1086 35.6973 99.4913 35.8 99.8926 35.8C100.303 35.8 100.686 35.6973 101.041 35.492C101.395 35.2867 101.68 34.988 101.895 34.596C102.119 34.1947 102.231 33.728 102.231 33.196Z" fill="black"/>
</g>
<defs>
<filter id="filter0_d_52_609" x="0.289062" y="0.5" width="134.44" height="63.2" filterUnits="userSpaceOnUse" color-interpolation-filters="sRGB">
<feFlood flood-opacity="0" result="BackgroundImageFix"/>
<feColorMatrix in="SourceAlpha" type="matrix" values="0 0 0 0 0 0 0 0 0 0 0 0 0 0 0 0 0 0 127 0" result="hardAlpha"/>
<feOffset/>
<feGaussianBlur stdDeviation="5"/>
<feComposite in2="hardAlpha" operator="out"/>
<feColorMatrix type="matrix" values="0 0 0 0 0 0 0 0 0 0 0 0 0 0 0 0 0 0 0.05 0"/>
<feBlend mode="normal" in2="BackgroundImageFix" result="effect1_dropShadow_52_609"/>
<feBlend mode="normal" in="SourceGraphic" in2="effect1_dropShadow_52_609" result="shape"/>
</filter>
<clipPath id="clip0_52_609">
<rect width="24" height="24" fill="white" transform="translate(30.2891 20.11)"/>
</clipPath>
<clipPath id="clip1_52_609">
<rect width="24" height="24" fill="white" transform="translate(30.2891 20.11)"/>
</clipPath>
<clipPath id="clip2_52_609">
<rect width="24" height="24" fill="white" transform="translate(30.2891 20.11)"/>
</clipPath>
</defs>
</svg>
