<svg width="157" height="64" viewBox="0 0 157 64" fill="none" xmlns="http://www.w3.org/2000/svg">
<g filter="url(#filter0_d_52_597)">
<rect x="10.8008" y="10.5" width="135.49" height="43.2" rx="21.6" fill="white" shape-rendering="crispEdges"/>
<g clip-path="url(#clip0_52_597)">
<g clip-path="url(#clip1_52_597)">
<g clip-path="url(#clip2_52_597)">
<mask id="mask0_52_597" style="mask-type:luminance" maskUnits="userSpaceOnUse" x="30" y="20" width="25" height="25">
<path d="M54.8008 20.11H30.8008V44.11H54.8008V20.11Z" fill="white"/>
</mask>
<g mask="url(#mask0_52_597)">
<path d="M35.0508 20.11H50.5508C52.9008 20.11 54.8008 22.01 54.8008 24.36V39.26C54.8008 41.61 52.9008 43.51 50.5508 43.51H35.0508C32.7008 43.51 30.8008 41.61 30.8008 39.26V24.36C30.8008 22.01 32.7008 20.11 35.0508 20.11Z" fill="#470137"/>
<path d="M43.4208 26.2639L40.4208 31.2139L43.6208 36.4639C43.6408 36.5039 43.6508 36.5439 43.6408 36.5839C43.6308 36.6239 43.5908 36.5939 43.5308 36.6039H41.2408C41.0808 36.6039 40.9708 36.5939 40.9008 36.4939C40.6908 36.0739 40.4708 35.6639 40.2608 35.2439C40.0508 34.8339 39.8208 34.4139 39.5808 33.9839C39.3408 33.5539 39.1008 33.1239 38.8608 32.6839H38.8408C38.6308 33.1139 38.4008 33.5439 38.1708 33.9739C37.9408 34.4039 37.7108 34.8339 37.4908 35.2539C37.2608 35.6739 37.0308 36.1039 36.8008 36.5139C36.7608 36.6139 36.6808 36.6239 36.5708 36.6239H34.3708C34.3308 36.6239 34.3008 36.6439 34.3008 36.5939C34.2908 36.5539 34.3008 36.5139 34.3208 36.4839L37.4308 31.3839L34.4008 26.2539C34.3708 26.2139 34.3608 26.1739 34.3808 26.1539C34.4008 26.1239 34.4408 26.1139 34.4808 26.1139H36.7508C36.8008 26.1139 36.8508 26.1239 36.8908 26.1339C36.9308 26.1539 36.9608 26.1839 36.9908 26.2239C37.1808 26.6539 37.4008 27.0839 37.6308 27.5139C37.8708 27.9439 38.1008 28.3639 38.3508 28.7839C38.5908 29.2039 38.8108 29.6239 39.0208 30.0539H39.0408C39.2508 29.6139 39.4708 29.1839 39.6908 28.7639C39.9108 28.3439 40.1408 27.9239 40.3708 27.5039C40.6008 27.0839 40.8208 26.6539 41.0408 26.2439C41.0508 26.2039 41.0708 26.1639 41.1008 26.1439C41.1408 26.1239 41.1808 26.1139 41.2308 26.1239H43.3408C43.3908 26.1139 43.4408 26.1439 43.4508 26.1939C43.4608 26.2039 43.4408 26.2439 43.4208 26.2639Z" fill="#FF61F6"/>
<path d="M48.0405 36.8144C47.3005 36.8244 46.5605 36.6744 45.8905 36.3644C45.2605 36.0744 44.7405 35.5944 44.3805 35.0044C44.0105 34.3944 43.8305 33.6344 43.8305 32.7244C43.8205 31.9844 44.0105 31.2544 44.3805 30.6144C44.7605 29.9644 45.3105 29.4244 45.9705 29.0644C46.6705 28.6744 47.5105 28.4844 48.5005 28.4844C48.5505 28.4844 48.6205 28.4844 48.7105 28.4944C48.8005 28.5044 48.9005 28.5044 49.0205 28.5144V25.3544C49.0205 25.2844 49.0505 25.2444 49.1205 25.2444H51.1505C51.2005 25.2344 51.2405 25.2744 51.2505 25.3144C51.2505 25.3244 51.2505 25.3344 51.2505 25.3344V34.8544C51.2505 35.0344 51.2605 35.2344 51.2705 35.4544C51.2905 35.6644 51.3005 35.8644 51.3105 36.0344C51.3105 36.1044 51.2805 36.1644 51.2105 36.1944C50.6905 36.4144 50.1405 36.5744 49.5805 36.6744C49.0705 36.7644 48.5605 36.8144 48.0405 36.8144ZM49.0205 34.8144V30.4144C48.9305 30.3944 48.8405 30.3744 48.7505 30.3644C48.6405 30.3544 48.5305 30.3444 48.4205 30.3444C48.0305 30.3444 47.6405 30.4244 47.2905 30.6044C46.9505 30.7744 46.6605 31.0244 46.4405 31.3444C46.2205 31.6644 46.1105 32.0944 46.1105 32.6144C46.1005 32.9644 46.1605 33.3144 46.2805 33.6444C46.3805 33.9144 46.5305 34.1544 46.7305 34.3544C46.9205 34.5344 47.1505 34.6744 47.4105 34.7544C47.6805 34.8444 47.9605 34.8844 48.2405 34.8844C48.3905 34.8844 48.5305 34.8744 48.6605 34.8644C48.7905 34.8744 48.9005 34.8544 49.0205 34.8144Z" fill="#FF61F6"/>
</g>
</g>
</g>
</g>
<path d="M67.8749 35.072H63.8009L63.1009 37.06H61.4349L64.9209 27.316H66.7689L70.2549 37.06H68.5749L67.8749 35.072ZM67.4269 33.77L65.8449 29.248L64.2489 33.77H67.4269ZM71.2386 33.168C71.2386 32.3933 71.3972 31.7073 71.7146 31.11C72.0412 30.5127 72.4799 30.0507 73.0306 29.724C73.5906 29.388 74.2112 29.22 74.8926 29.22C75.3966 29.22 75.8912 29.332 76.3766 29.556C76.8712 29.7707 77.2632 30.06 77.5526 30.424V26.7H79.1626V37.06H77.5526V35.898C77.2912 36.2713 76.9272 36.5793 76.4606 36.822C76.0032 37.0647 75.4759 37.186 74.8786 37.186C74.2066 37.186 73.5906 37.018 73.0306 36.682C72.4799 36.3367 72.0412 35.8607 71.7146 35.254C71.3972 34.638 71.2386 33.9427 71.2386 33.168ZM77.5526 33.196C77.5526 32.664 77.4406 32.202 77.2166 31.81C77.0019 31.418 76.7172 31.1193 76.3626 30.914C76.0079 30.7087 75.6252 30.606 75.2146 30.606C74.8039 30.606 74.4212 30.7087 74.0666 30.914C73.7119 31.11 73.4226 31.404 73.1986 31.796C72.9839 32.1787 72.8766 32.636 72.8766 33.168C72.8766 33.7 72.9839 34.1667 73.1986 34.568C73.4226 34.9693 73.7119 35.2773 74.0666 35.492C74.4306 35.6973 74.8132 35.8 75.2146 35.8C75.6252 35.8 76.0079 35.6973 76.3626 35.492C76.7172 35.2867 77.0019 34.988 77.2166 34.596C77.4406 34.1947 77.5526 33.728 77.5526 33.196ZM84.6049 37.186C83.8769 37.186 83.2189 37.0227 82.6309 36.696C82.0429 36.36 81.5809 35.8933 81.2449 35.296C80.9089 34.6893 80.7409 33.9893 80.7409 33.196C80.7409 32.412 80.9135 31.7167 81.2589 31.11C81.6042 30.5033 82.0755 30.0367 82.6729 29.71C83.2702 29.3833 83.9375 29.22 84.6749 29.22C85.4122 29.22 86.0795 29.3833 86.6769 29.71C87.2742 30.0367 87.7455 30.5033 88.0909 31.11C88.4362 31.7167 88.6089 32.412 88.6089 33.196C88.6089 33.98 88.4315 34.6753 88.0769 35.282C87.7222 35.8887 87.2369 36.36 86.6209 36.696C86.0142 37.0227 85.3422 37.186 84.6049 37.186ZM84.6049 35.8C85.0155 35.8 85.3982 35.702 85.7529 35.506C86.1169 35.31 86.4109 35.016 86.6349 34.624C86.8589 34.232 86.9709 33.756 86.9709 33.196C86.9709 32.636 86.8635 32.1647 86.6489 31.782C86.4342 31.39 86.1495 31.096 85.7949 30.9C85.4402 30.704 85.0575 30.606 84.6469 30.606C84.2362 30.606 83.8535 30.704 83.4989 30.9C83.1535 31.096 82.8782 31.39 82.6729 31.782C82.4675 32.1647 82.3649 32.636 82.3649 33.196C82.3649 34.0267 82.5749 34.6707 82.9949 35.128C83.4242 35.576 83.9609 35.8 84.6049 35.8ZM91.7826 30.494C92.0533 30.1207 92.4219 29.8173 92.8886 29.584C93.3646 29.3413 93.8919 29.22 94.4706 29.22C95.1519 29.22 95.7679 29.3833 96.3186 29.71C96.8693 30.0367 97.3033 30.5033 97.6206 31.11C97.9379 31.7073 98.0966 32.3933 98.0966 33.168C98.0966 33.9427 97.9379 34.638 97.6206 35.254C97.3033 35.8607 96.8646 36.3367 96.3046 36.682C95.7539 37.018 95.1426 37.186 94.4706 37.186C93.8733 37.186 93.3413 37.0693 92.8746 36.836C92.4173 36.6027 92.0533 36.304 91.7826 35.94V37.06H90.1866V26.7H91.7826V30.494ZM96.4726 33.168C96.4726 32.636 96.3606 32.1787 96.1366 31.796C95.9219 31.404 95.6326 31.11 95.2686 30.914C94.9139 30.7087 94.5313 30.606 94.1206 30.606C93.7193 30.606 93.3366 30.7087 92.9726 30.914C92.6179 31.1193 92.3286 31.418 92.1046 31.81C91.8899 32.202 91.7826 32.664 91.7826 33.196C91.7826 33.728 91.8899 34.1947 92.1046 34.596C92.3286 34.988 92.6179 35.2867 92.9726 35.492C93.3366 35.6973 93.7193 35.8 94.1206 35.8C94.5313 35.8 94.9139 35.6973 95.2686 35.492C95.6326 35.2773 95.9219 34.9693 96.1366 34.568C96.3606 34.1667 96.4726 33.7 96.4726 33.168ZM106.745 33.014C106.745 33.3033 106.726 33.5647 106.689 33.798H100.795C100.842 34.414 101.07 34.9087 101.481 35.282C101.892 35.6553 102.396 35.842 102.993 35.842C103.852 35.842 104.458 35.4827 104.813 34.764H106.535C106.302 35.4733 105.877 36.0567 105.261 36.514C104.654 36.962 103.898 37.186 102.993 37.186C102.256 37.186 101.593 37.0227 101.005 36.696C100.426 36.36 99.9689 35.8933 99.6329 35.296C99.3062 34.6893 99.1429 33.9893 99.1429 33.196C99.1429 32.4027 99.3015 31.7073 99.6189 31.11C99.9455 30.5033 100.398 30.0367 100.977 29.71C101.565 29.3833 102.237 29.22 102.993 29.22C103.721 29.22 104.37 29.3787 104.939 29.696C105.508 30.0133 105.952 30.4613 106.269 31.04C106.586 31.6093 106.745 32.2673 106.745 33.014ZM105.079 32.51C105.07 31.922 104.86 31.4507 104.449 31.096C104.038 30.7413 103.53 30.564 102.923 30.564C102.372 30.564 101.901 30.7413 101.509 31.096C101.117 31.4413 100.884 31.9127 100.809 32.51H105.079ZM112.782 32.202L115.806 37.06H114.014L111.816 33.532L109.758 37.06H107.98L111.004 32.202L107.966 27.33H109.758L111.97 30.886L114.042 27.33H115.82L112.782 32.202ZM120.736 27.33C121.772 27.33 122.677 27.5307 123.452 27.932C124.236 28.324 124.838 28.8933 125.258 29.64C125.687 30.3773 125.902 31.2407 125.902 32.23C125.902 33.2193 125.687 34.078 125.258 34.806C124.838 35.534 124.236 36.094 123.452 36.486C122.677 36.8687 121.772 37.06 120.736 37.06H117.558V27.33H120.736ZM120.736 35.758C121.874 35.758 122.747 35.45 123.354 34.834C123.96 34.218 124.264 33.35 124.264 32.23C124.264 31.1007 123.96 30.2187 123.354 29.584C122.747 28.9493 121.874 28.632 120.736 28.632H119.154V35.758H120.736Z" fill="black"/>
</g>
<defs>
<filter id="filter0_d_52_597" x="0.800781" y="0.5" width="155.49" height="63.2" filterUnits="userSpaceOnUse" color-interpolation-filters="sRGB">
<feFlood flood-opacity="0" result="BackgroundImageFix"/>
<feColorMatrix in="SourceAlpha" type="matrix" values="0 0 0 0 0 0 0 0 0 0 0 0 0 0 0 0 0 0 127 0" result="hardAlpha"/>
<feOffset/>
<feGaussianBlur stdDeviation="5"/>
<feComposite in2="hardAlpha" operator="out"/>
<feColorMatrix type="matrix" values="0 0 0 0 0 0 0 0 0 0 0 0 0 0 0 0 0 0 0.05 0"/>
<feBlend mode="normal" in2="BackgroundImageFix" result="effect1_dropShadow_52_597"/>
<feBlend mode="normal" in="SourceGraphic" in2="effect1_dropShadow_52_597" result="shape"/>
</filter>
<clipPath id="clip0_52_597">
<rect width="24" height="24" fill="white" transform="translate(30.8008 20.11)"/>
</clipPath>
<clipPath id="clip1_52_597">
<rect width="24" height="24" fill="white" transform="translate(30.8008 20.11)"/>
</clipPath>
<clipPath id="clip2_52_597">
<rect width="24" height="24" fill="white" transform="translate(30.8008 20.11)"/>
</clipPath>
</defs>
</svg>
