<svg width="124" height="64" viewBox="0 0 124 64" fill="none" xmlns="http://www.w3.org/2000/svg">
<g filter="url(#filter0_d_52_355)">
<rect x="10.2891" y="10" width="103.56" height="43.2" rx="21.6" fill="white" shape-rendering="crispEdges"/>
<g clip-path="url(#clip0_52_355)">
<g clip-path="url(#clip1_52_355)">
<g clip-path="url(#clip2_52_355)">
<path d="M54.2874 26.2575C54.286 26.0162 54.2833 25.7749 54.2767 25.5333C54.2626 25.0076 54.2315 24.4772 54.1381 23.9571C54.0433 23.429 53.8883 22.9379 53.6441 22.4582C53.4043 21.9871 53.0909 21.5559 52.717 21.182C52.3432 20.8082 51.9121 20.4948 51.4408 20.2549C50.9614 20.011 50.4703 19.856 49.9426 19.7612C49.4223 19.6675 48.8919 19.6366 48.3658 19.6224C48.1243 19.6159 47.883 19.6131 47.6416 19.6116C47.355 19.61 47.0682 19.61 46.7817 19.61H40.4285H37.7965C37.5097 19.61 37.2233 19.61 36.9368 19.6117C36.6952 19.6132 36.4537 19.6159 36.2125 19.6224C36.081 19.626 35.9492 19.6306 35.8174 19.637C35.4218 19.656 35.0257 19.691 34.6356 19.7613C34.2399 19.8324 33.8647 19.9373 33.4996 20.0882C33.3779 20.1385 33.2573 20.1939 33.1375 20.2549C32.784 20.4348 32.453 20.6561 32.152 20.9132C32.0517 20.9989 31.9546 21.0885 31.8612 21.182C31.4872 21.5559 31.1738 21.987 30.9341 22.4582C30.6898 22.9379 30.5351 23.429 30.4402 23.9571C30.3468 24.4771 30.3158 25.0076 30.3016 25.5332C30.295 25.7749 30.2922 26.0161 30.2907 26.2575C30.2888 26.5442 30.2891 26.8309 30.2891 27.1175V31.0299V36.1024C30.2891 36.3893 30.2888 36.6757 30.2907 36.9626C30.2922 37.204 30.295 37.4452 30.3016 37.6865C30.3158 38.2124 30.3468 38.7429 30.4402 39.2627C30.5351 39.7907 30.6898 40.2822 30.9341 40.7618C31.1738 41.2331 31.4872 41.6641 31.8612 42.0378C32.2349 42.4119 32.6661 42.7252 33.1375 42.9652C33.6169 43.2092 34.108 43.364 34.6358 43.4588C35.1558 43.5524 35.6866 43.5835 36.2125 43.5975C36.4537 43.604 36.6953 43.6068 36.9368 43.6082C37.2233 43.6103 37.5098 43.61 37.7966 43.61H46.7817C47.0682 43.61 47.355 43.6103 47.6415 43.6082C47.883 43.6068 48.1243 43.604 48.3658 43.5975C48.8918 43.5835 49.4223 43.5523 49.9426 43.4588C50.4702 43.364 50.9614 43.2092 51.4407 42.9652C51.9121 42.7252 52.3432 42.4119 52.717 42.0378C53.0909 41.6641 53.4043 41.2331 53.6441 40.7618C53.8883 40.2822 54.0433 39.7907 54.1381 39.2627C54.2315 38.7429 54.2626 38.2124 54.2766 37.6865C54.2833 37.4452 54.2859 37.204 54.2874 36.9626C54.2892 36.6757 54.2891 36.3893 54.2891 36.1024V27.1175C54.2891 26.8309 54.2892 26.5442 54.2874 26.2575Z" fill="#F05138"/>
<path d="M49.3074 34.4241L49.3057 34.4221C49.3323 34.3318 49.3597 34.242 49.3829 34.1494C50.379 30.1807 47.9479 25.4887 43.8339 23.0182C45.6368 25.4622 46.4339 28.4224 45.7257 31.0111C45.6625 31.242 45.5866 31.4637 45.5026 31.679C45.4116 31.6192 45.2968 31.5513 45.1427 31.4663C45.1427 31.4663 41.0504 28.9396 36.615 24.4704C36.4986 24.3531 38.9801 28.0172 41.7963 30.9926C40.4695 30.2479 36.7718 27.5575 34.431 25.415C34.7186 25.8946 35.0606 26.3565 35.4366 26.8011C37.3915 29.2803 39.9409 32.3391 42.9951 34.6879C40.8491 36.0012 37.8169 36.1033 34.7978 34.6893C34.0511 34.3394 33.3491 33.9171 32.6992 33.4374C33.9772 35.4815 35.9455 37.2452 38.341 38.2748C41.1978 39.5025 44.0387 39.4193 46.1545 38.2949L46.1529 38.2973C46.1625 38.2912 46.1748 38.2846 46.1848 38.2784C46.2717 38.2317 46.358 38.1841 46.4423 38.1339C47.4589 37.6062 49.4669 37.0709 50.5447 39.1679C50.8086 39.6811 51.3695 36.9613 49.3074 34.4241Z" fill="white"/>
</g>
</g>
</g>
<path d="M64.7005 36.658C64.0472 36.658 63.4592 36.546 62.9365 36.322C62.4139 36.0887 62.0032 35.762 61.7045 35.342C61.4059 34.922 61.2565 34.432 61.2565 33.872H62.9645C63.0019 34.292 63.1652 34.6373 63.4545 34.908C63.7532 35.1787 64.1685 35.314 64.7005 35.314C65.2512 35.314 65.6805 35.1833 65.9885 34.922C66.2965 34.6513 66.4505 34.306 66.4505 33.886C66.4505 33.5593 66.3525 33.2933 66.1565 33.088C65.9699 32.8827 65.7319 32.724 65.4425 32.612C65.1625 32.5 64.7705 32.3787 64.2665 32.248C63.6319 32.08 63.1139 31.912 62.7125 31.744C62.3205 31.5667 61.9845 31.296 61.7045 30.932C61.4245 30.568 61.2845 30.0827 61.2845 29.476C61.2845 28.916 61.4245 28.426 61.7045 28.006C61.9845 27.586 62.3765 27.264 62.8805 27.04C63.3845 26.816 63.9679 26.704 64.6305 26.704C65.5732 26.704 66.3432 26.942 66.9405 27.418C67.5472 27.8847 67.8832 28.5287 67.9485 29.35H66.1845C66.1565 28.9953 65.9885 28.692 65.6805 28.44C65.3725 28.188 64.9665 28.062 64.4625 28.062C64.0052 28.062 63.6319 28.1787 63.3425 28.412C63.0532 28.6453 62.9085 28.9813 62.9085 29.42C62.9085 29.7187 62.9972 29.966 63.1745 30.162C63.3612 30.3487 63.5945 30.498 63.8745 30.61C64.1545 30.722 64.5372 30.8433 65.0225 30.974C65.6665 31.1513 66.1892 31.3287 66.5905 31.506C67.0012 31.6833 67.3465 31.9587 67.6265 32.332C67.9159 32.696 68.0605 33.186 68.0605 33.802C68.0605 34.2967 67.9252 34.7633 67.6545 35.202C67.3932 35.6407 67.0059 35.9953 66.4925 36.266C65.9885 36.5273 65.3912 36.658 64.7005 36.658ZM80.3038 28.846L77.9098 36.56H76.2298L74.6758 30.862L73.1218 36.56H71.4418L69.0338 28.846H70.6578L72.2678 35.048L73.9058 28.846H75.5718L77.1398 35.02L78.7358 28.846H80.3038ZM82.3085 27.824C82.0192 27.824 81.7765 27.726 81.5805 27.53C81.3845 27.334 81.2865 27.0913 81.2865 26.802C81.2865 26.5127 81.3845 26.27 81.5805 26.074C81.7765 25.878 82.0192 25.78 82.3085 25.78C82.5885 25.78 82.8265 25.878 83.0225 26.074C83.2185 26.27 83.3165 26.5127 83.3165 26.802C83.3165 27.0913 83.2185 27.334 83.0225 27.53C82.8265 27.726 82.5885 27.824 82.3085 27.824ZM83.0925 28.846V36.56H81.4965V28.846H83.0925ZM88.4219 30.148H86.9939V36.56H85.3839V30.148H84.4739V28.846H85.3839V28.3C85.3839 27.4133 85.6172 26.7693 86.0839 26.368C86.5599 25.9573 87.3019 25.752 88.3099 25.752V27.082C87.8246 27.082 87.4839 27.1753 87.2879 27.362C87.0919 27.5393 86.9939 27.852 86.9939 28.3V28.846H88.4219V30.148ZM91.6983 30.148V34.418C91.6983 34.7073 91.7637 34.9173 91.8943 35.048C92.0343 35.1693 92.2677 35.23 92.5943 35.23H93.5743V36.56H92.3143C91.5957 36.56 91.045 36.392 90.6623 36.056C90.2797 35.72 90.0883 35.174 90.0883 34.418V30.148H89.1783V28.846H90.0883V26.928H91.6983V28.846H93.5743V30.148H91.6983Z" fill="black"/>
</g>
<defs>
<filter id="filter0_d_52_355" x="0.289062" y="0" width="123.56" height="63.2" filterUnits="userSpaceOnUse" color-interpolation-filters="sRGB">
<feFlood flood-opacity="0" result="BackgroundImageFix"/>
<feColorMatrix in="SourceAlpha" type="matrix" values="0 0 0 0 0 0 0 0 0 0 0 0 0 0 0 0 0 0 127 0" result="hardAlpha"/>
<feOffset/>
<feGaussianBlur stdDeviation="5"/>
<feComposite in2="hardAlpha" operator="out"/>
<feColorMatrix type="matrix" values="0 0 0 0 0 0 0 0 0 0 0 0 0 0 0 0 0 0 0.05 0"/>
<feBlend mode="normal" in2="BackgroundImageFix" result="effect1_dropShadow_52_355"/>
<feBlend mode="normal" in="SourceGraphic" in2="effect1_dropShadow_52_355" result="shape"/>
</filter>
<clipPath id="clip0_52_355">
<rect width="24" height="24" fill="white" transform="translate(30.2891 19.61)"/>
</clipPath>
<clipPath id="clip1_52_355">
<rect width="24" height="24" fill="white" transform="translate(30.2891 19.61)"/>
</clipPath>
<clipPath id="clip2_52_355">
<rect width="24" height="24" fill="white" transform="translate(30.2891 19.61)"/>
</clipPath>
</defs>
</svg>
