<svg width="176" height="64" viewBox="0 0 176 64" fill="none" xmlns="http://www.w3.org/2000/svg">
<g filter="url(#filter0_d_52_365)">
<rect x="9.99023" y="10" width="155.82" height="43.2" rx="21.6" fill="white" shape-rendering="crispEdges"/>
<g clip-path="url(#clip0_52_365)">
<g clip-path="url(#clip1_52_365)">
<g clip-path="url(#clip2_52_365)">
<mask id="mask0_52_365" style="mask-type:luminance" maskUnits="userSpaceOnUse" x="29" y="19" width="25" height="25">
<path d="M53.9902 19.61H29.9902V43.61H53.9902V19.61Z" fill="white"/>
</mask>
<g mask="url(#mask0_52_365)">
<path d="M41.9571 43.61C35.509 43.61 30.0408 38.1635 29.9905 31.6738C29.9793 30.1084 30.2789 28.5564 30.8719 27.1077C31.465 25.659 32.3397 24.3425 33.4454 23.2344C34.5584 22.0945 35.8868 21.1871 37.3534 20.5649C38.82 19.9427 40.3955 19.6182 41.9886 19.61C43.5529 19.6086 45.1021 19.9168 46.5467 20.5168C47.9914 21.1167 49.3031 21.9966 50.4063 23.1058C51.5273 24.1994 52.4211 25.5039 53.0362 26.9442C53.6512 28.3845 53.9754 29.9322 53.9901 31.4983C54.0201 38.135 48.6869 43.5425 42.0546 43.61H41.9571ZM41.9946 20.2381C40.485 20.2469 38.9921 20.5555 37.6026 21.146C36.2132 21.7364 34.9548 22.5969 33.9007 23.6776C32.852 24.7261 32.0219 25.9722 31.4585 27.3439C30.8951 28.7155 30.6095 30.1853 30.6183 31.6681C30.6655 37.8181 35.848 42.9755 41.9538 42.9755H42.0355C48.3243 42.9185 53.386 37.7911 53.3616 31.5016C53.3331 28.5046 52.1099 25.6434 49.963 23.5516C48.9202 22.4995 47.6789 21.6648 46.311 21.0959C44.9432 20.5271 43.476 20.2357 41.9946 20.2381ZM32.6827 35.12V28.1094H34.3882V28.7375H33.4833V34.5043H34.3878V35.1324L32.6827 35.12ZM38.4708 31.5455C38.4708 32.8205 37.6945 33.5525 36.6427 33.5525C35.5908 33.5525 34.8899 32.7328 34.8899 31.6115C34.8899 30.44 35.6249 29.6139 36.6989 29.6139C37.7729 29.6139 38.4708 30.4749 38.4708 31.5455ZM35.6253 31.6018C35.6253 32.378 36.0153 32.9893 36.6839 32.9893C37.3525 32.9893 37.7362 32.3611 37.7362 31.5695C37.7362 30.8503 37.3814 30.1719 36.6839 30.1719C35.9864 30.1719 35.6152 30.8326 35.6152 31.6175L35.6253 31.6018ZM39.0652 29.7463C39.3992 29.6886 39.7376 29.6602 40.0765 29.6615C40.4571 29.624 40.84 29.7091 41.1696 29.9034C41.4209 30.0515 41.5728 30.3245 41.5653 30.6159C41.5609 30.8022 41.4978 30.9823 41.385 31.1307C41.2722 31.279 41.1155 31.388 40.9371 31.442C41.3853 31.5331 41.707 31.9273 41.7066 32.3844C41.709 32.5346 41.6771 32.6833 41.6134 32.8194C41.5497 32.9554 41.4559 33.0752 41.3391 33.1696C41.0691 33.4085 40.6199 33.5244 39.9254 33.5244C39.6399 33.5258 39.3546 33.509 39.0712 33.4741L39.0652 29.7463ZM39.7563 31.2508H40.111C40.591 31.2508 40.8618 31.0246 40.8618 30.701C40.8618 30.3774 40.5918 30.176 40.1493 30.176C40.0168 30.1715 39.8842 30.1809 39.7537 30.2041L39.7563 31.2508ZM39.7563 33.0035C39.8785 33.0163 40.0011 33.0215 40.1238 33.0193C40.5738 33.0193 40.9656 32.8498 40.9656 32.3911C40.9656 31.9325 40.5824 31.763 40.102 31.763H39.757L39.7563 33.0035ZM43.075 29.696H43.7688V32.171C43.7688 33.2233 43.2599 33.575 42.5125 33.575C42.3126 33.5733 42.1143 33.5394 41.9253 33.4745L42.01 32.912C42.1493 32.9555 42.2942 32.9787 42.4401 32.981C42.8358 32.981 43.0683 32.7988 43.0683 32.1391L43.075 29.696ZM45.745 31.7596V32.2404H44.3001V31.76L45.745 31.7596ZM49.1151 33.3924C48.8028 33.5169 48.4679 33.5746 48.1319 33.5619C46.9225 33.5619 46.1875 32.8044 46.1875 31.6494C46.1733 31.3794 46.2163 31.1094 46.3138 30.8572C46.4114 30.605 46.5612 30.3763 46.7534 30.1861C46.9456 29.996 47.1759 29.8486 47.4291 29.7538C47.6824 29.659 47.9528 29.6189 48.2226 29.636C48.5454 29.6228 48.8671 29.6807 49.165 29.8055L49.015 30.3583C48.7788 30.2579 48.5243 30.2076 48.2676 30.2105C47.4914 30.2105 46.9326 30.6973 46.9326 31.6145C46.9326 32.45 47.4258 32.9908 48.2613 32.9908C48.5207 32.9948 48.7783 32.9467 49.0188 32.8494L49.1151 33.3924ZM51.2946 28.0906V35.12H49.5891V34.4919H50.4936V28.7225H49.5891V28.0944L51.2946 28.0906Z" fill="#F1592A"/>
</g>
</g>
</g>
</g>
<path d="M65.6503 36.658C64.745 36.658 63.9097 36.448 63.1443 36.028C62.3883 35.5987 61.7863 35.006 61.3383 34.25C60.8997 33.4847 60.6803 32.626 60.6803 31.674C60.6803 30.722 60.8997 29.868 61.3383 29.112C61.7863 28.356 62.3883 27.768 63.1443 27.348C63.9097 26.9187 64.745 26.704 65.6503 26.704C66.565 26.704 67.4003 26.9187 68.1563 27.348C68.9217 27.768 69.5237 28.356 69.9623 29.112C70.401 29.868 70.6203 30.722 70.6203 31.674C70.6203 32.626 70.401 33.4847 69.9623 34.25C69.5237 35.006 68.9217 35.5987 68.1563 36.028C67.4003 36.448 66.565 36.658 65.6503 36.658ZM65.6503 35.272C66.2943 35.272 66.8683 35.1273 67.3723 34.838C67.8763 34.5393 68.2683 34.1193 68.5483 33.578C68.8377 33.0273 68.9823 32.3927 68.9823 31.674C68.9823 30.9553 68.8377 30.3253 68.5483 29.784C68.2683 29.2427 67.8763 28.8273 67.3723 28.538C66.8683 28.2487 66.2943 28.104 65.6503 28.104C65.0063 28.104 64.4323 28.2487 63.9283 28.538C63.4243 28.8273 63.0277 29.2427 62.7383 29.784C62.4583 30.3253 62.3183 30.9553 62.3183 31.674C62.3183 32.3927 62.4583 33.0273 62.7383 33.578C63.0277 34.1193 63.4243 34.5393 63.9283 34.838C64.4323 35.1273 65.0063 35.272 65.6503 35.272ZM73.7868 29.994C74.0575 29.6207 74.4262 29.3173 74.8928 29.084C75.3688 28.8413 75.8962 28.72 76.4748 28.72C77.1562 28.72 77.7722 28.8833 78.3228 29.21C78.8735 29.5367 79.3075 30.0033 79.6248 30.61C79.9422 31.2073 80.1008 31.8933 80.1008 32.668C80.1008 33.4427 79.9422 34.138 79.6248 34.754C79.3075 35.3607 78.8688 35.8367 78.3088 36.182C77.7582 36.518 77.1468 36.686 76.4748 36.686C75.8775 36.686 75.3455 36.5693 74.8788 36.336C74.4215 36.1027 74.0575 35.804 73.7868 35.44V36.56H72.1908V26.2H73.7868V29.994ZM78.4768 32.668C78.4768 32.136 78.3648 31.6787 78.1408 31.296C77.9262 30.904 77.6368 30.61 77.2728 30.414C76.9182 30.2087 76.5355 30.106 76.1248 30.106C75.7235 30.106 75.3408 30.2087 74.9768 30.414C74.6222 30.6193 74.3328 30.918 74.1088 31.31C73.8942 31.702 73.7868 32.164 73.7868 32.696C73.7868 33.228 73.8942 33.6947 74.1088 34.096C74.3328 34.488 74.6222 34.7867 74.9768 34.992C75.3408 35.1973 75.7235 35.3 76.1248 35.3C76.5355 35.3 76.9182 35.1973 77.2728 34.992C77.6368 34.7773 77.9262 34.4693 78.1408 34.068C78.3648 33.6667 78.4768 33.2 78.4768 32.668ZM82.4911 27.824C82.2018 27.824 81.9591 27.726 81.7631 27.53C81.5671 27.334 81.4691 27.0913 81.4691 26.802C81.4691 26.5127 81.5671 26.27 81.7631 26.074C81.9591 25.878 82.2018 25.78 82.4911 25.78C82.7711 25.78 83.0091 25.878 83.2051 26.074C83.4011 26.27 83.4991 26.5127 83.4991 26.802C83.4991 27.0913 83.4011 27.334 83.2051 27.53C83.0091 27.726 82.7711 27.824 82.4911 27.824ZM83.2751 38.072C83.2751 38.828 83.0838 39.374 82.7011 39.71C82.3278 40.0553 81.7818 40.228 81.0631 40.228H80.2371V38.884H80.7831C81.1098 38.884 81.3385 38.8187 81.4691 38.688C81.6091 38.5667 81.6791 38.3613 81.6791 38.072V28.846H83.2751V38.072ZM92.4405 32.514C92.4405 32.8033 92.4219 33.0647 92.3845 33.298H86.4905C86.5372 33.914 86.7659 34.4087 87.1765 34.782C87.5872 35.1553 88.0912 35.342 88.6885 35.342C89.5472 35.342 90.1539 34.9827 90.5085 34.264H92.2305C91.9972 34.9733 91.5725 35.5567 90.9565 36.014C90.3499 36.462 89.5939 36.686 88.6885 36.686C87.9512 36.686 87.2885 36.5227 86.7005 36.196C86.1219 35.86 85.6645 35.3933 85.3285 34.796C85.0019 34.1893 84.8385 33.4893 84.8385 32.696C84.8385 31.9027 84.9972 31.2073 85.3145 30.61C85.6412 30.0033 86.0939 29.5367 86.6725 29.21C87.2605 28.8833 87.9325 28.72 88.6885 28.72C89.4165 28.72 90.0652 28.8787 90.6345 29.196C91.2039 29.5133 91.6472 29.9613 91.9645 30.54C92.2819 31.1093 92.4405 31.7673 92.4405 32.514ZM90.7745 32.01C90.7652 31.422 90.5552 30.9507 90.1445 30.596C89.7339 30.2413 89.2252 30.064 88.6185 30.064C88.0679 30.064 87.5965 30.2413 87.2045 30.596C86.8125 30.9413 86.5792 31.4127 86.5045 32.01H90.7745ZM93.4792 32.696C93.4792 31.9027 93.6378 31.2073 93.9552 30.61C94.2818 30.0033 94.7298 29.5367 95.2992 29.21C95.8685 28.8833 96.5218 28.72 97.2592 28.72C98.1925 28.72 98.9625 28.944 99.5692 29.392C100.185 29.8307 100.6 30.4607 100.815 31.282H99.0932C98.9532 30.8993 98.7292 30.6007 98.4212 30.386C98.1132 30.1713 97.7258 30.064 97.2592 30.064C96.6058 30.064 96.0832 30.2973 95.6912 30.764C95.3085 31.2213 95.1172 31.8653 95.1172 32.696C95.1172 33.5267 95.3085 34.1753 95.6912 34.642C96.0832 35.1087 96.6058 35.342 97.2592 35.342C98.1832 35.342 98.7945 34.936 99.0932 34.124H100.815C100.591 34.908 100.171 35.5333 99.5552 36C98.9392 36.4573 98.1738 36.686 97.2592 36.686C96.5218 36.686 95.8685 36.5227 95.2992 36.196C94.7298 35.86 94.2818 35.3933 93.9552 34.796C93.6378 34.1893 93.4792 33.4893 93.4792 32.696ZM104.268 30.148V34.418C104.268 34.7073 104.333 34.9173 104.464 35.048C104.604 35.1693 104.837 35.23 105.164 35.23H106.144V36.56H104.884C104.165 36.56 103.614 36.392 103.232 36.056C102.849 35.72 102.658 35.174 102.658 34.418V30.148H101.748V28.846H102.658V26.928H104.268V28.846H106.144V30.148H104.268ZM108.427 27.824C108.137 27.824 107.895 27.726 107.699 27.53C107.503 27.334 107.405 27.0913 107.405 26.802C107.405 26.5127 107.503 26.27 107.699 26.074C107.895 25.878 108.137 25.78 108.427 25.78C108.707 25.78 108.945 25.878 109.141 26.074C109.337 26.27 109.435 26.5127 109.435 26.802C109.435 27.0913 109.337 27.334 109.141 27.53C108.945 27.726 108.707 27.824 108.427 27.824ZM109.211 28.846V36.56H107.615V28.846H109.211ZM114.288 35.132L116.472 28.846H118.166L115.226 36.56H113.322L110.396 28.846H112.104L114.288 35.132ZM126.442 32.514C126.442 32.8033 126.424 33.0647 126.386 33.298H120.492C120.539 33.914 120.768 34.4087 121.178 34.782C121.589 35.1553 122.093 35.342 122.69 35.342C123.549 35.342 124.156 34.9827 124.51 34.264H126.232C125.999 34.9733 125.574 35.5567 124.958 36.014C124.352 36.462 123.596 36.686 122.69 36.686C121.953 36.686 121.29 36.5227 120.702 36.196C120.124 35.86 119.666 35.3933 119.33 34.796C119.004 34.1893 118.84 33.4893 118.84 32.696C118.84 31.9027 118.999 31.2073 119.316 30.61C119.643 30.0033 120.096 29.5367 120.674 29.21C121.262 28.8833 121.934 28.72 122.69 28.72C123.418 28.72 124.067 28.8787 124.636 29.196C125.206 29.5133 125.649 29.9613 125.966 30.54C126.284 31.1093 126.442 31.7673 126.442 32.514ZM124.776 32.01C124.767 31.422 124.557 30.9507 124.146 30.596C123.736 30.2413 123.227 30.064 122.62 30.064C122.07 30.064 121.598 30.2413 121.206 30.596C120.814 30.9413 120.581 31.4127 120.506 32.01H124.776ZM133.935 30.82V32.164H128.181V30.82H133.935ZM135.671 31.674C135.671 30.722 135.89 29.868 136.329 29.112C136.777 28.356 137.379 27.768 138.135 27.348C138.9 26.9187 139.735 26.704 140.641 26.704C141.677 26.704 142.596 26.9607 143.399 27.474C144.211 27.978 144.799 28.6967 145.163 29.63H143.245C142.993 29.1167 142.643 28.734 142.195 28.482C141.747 28.23 141.229 28.104 140.641 28.104C139.997 28.104 139.423 28.2487 138.919 28.538C138.415 28.8273 138.018 29.2427 137.729 29.784C137.449 30.3253 137.309 30.9553 137.309 31.674C137.309 32.3927 137.449 33.0227 137.729 33.564C138.018 34.1053 138.415 34.5253 138.919 34.824C139.423 35.1133 139.997 35.258 140.641 35.258C141.229 35.258 141.747 35.132 142.195 34.88C142.643 34.628 142.993 34.2453 143.245 33.732H145.163C144.799 34.6653 144.211 35.384 143.399 35.888C142.596 36.392 141.677 36.644 140.641 36.644C139.726 36.644 138.891 36.434 138.135 36.014C137.379 35.5847 136.777 34.992 136.329 34.236C135.89 33.48 135.671 32.626 135.671 31.674Z" fill="black"/>
</g>
<defs>
<filter id="filter0_d_52_365" x="-0.00976562" y="0" width="175.82" height="63.2" filterUnits="userSpaceOnUse" color-interpolation-filters="sRGB">
<feFlood flood-opacity="0" result="BackgroundImageFix"/>
<feColorMatrix in="SourceAlpha" type="matrix" values="0 0 0 0 0 0 0 0 0 0 0 0 0 0 0 0 0 0 127 0" result="hardAlpha"/>
<feOffset/>
<feGaussianBlur stdDeviation="5"/>
<feComposite in2="hardAlpha" operator="out"/>
<feColorMatrix type="matrix" values="0 0 0 0 0 0 0 0 0 0 0 0 0 0 0 0 0 0 0.05 0"/>
<feBlend mode="normal" in2="BackgroundImageFix" result="effect1_dropShadow_52_365"/>
<feBlend mode="normal" in="SourceGraphic" in2="effect1_dropShadow_52_365" result="shape"/>
</filter>
<clipPath id="clip0_52_365">
<rect width="24" height="24" fill="white" transform="translate(29.9902 19.61)"/>
</clipPath>
<clipPath id="clip1_52_365">
<rect width="24" height="24" fill="white" transform="translate(29.9902 19.61)"/>
</clipPath>
<clipPath id="clip2_52_365">
<rect width="24" height="24" fill="white" transform="translate(29.9902 19.61)"/>
</clipPath>
</defs>
</svg>
