<svg width="181" height="64" viewBox="0 0 181 64" fill="none" xmlns="http://www.w3.org/2000/svg">
<g filter="url(#filter0_d_52_377)">
<rect x="10.8008" y="10.5" width="159.43" height="43.2" rx="21.6" fill="white" shape-rendering="crispEdges"/>
<g clip-path="url(#clip0_52_377)">
<g clip-path="url(#clip1_52_377)">
<g clip-path="url(#clip2_52_377)">
<mask id="mask0_52_377" style="mask-type:luminance" maskUnits="userSpaceOnUse" x="30" y="20" width="25" height="25">
<path d="M54.8008 20.11H30.8008V44.11H54.8008V20.11Z" fill="white"/>
</mask>
<g mask="url(#mask0_52_377)">
<path d="M50.5352 28.3563C50.2867 28.272 50.0289 28.1876 49.7617 28.1126C49.8039 27.9345 49.8461 27.7563 49.8789 27.5876C50.4649 24.747 50.0805 22.4595 48.7774 21.7095C47.5258 20.9876 45.4774 21.7423 43.4102 23.5423C43.2133 23.7157 43.0117 23.8985 42.8149 24.0907C42.6836 23.9642 42.5477 23.8423 42.4164 23.7251C40.2508 21.7985 38.0758 20.9876 36.7727 21.747C35.5211 22.4595 35.1508 24.611 35.6758 27.3017C35.7273 27.5595 35.7883 27.8267 35.8539 28.0985C35.5445 28.1876 35.2492 28.2767 34.968 28.3798C32.4227 29.261 30.8008 30.6485 30.8008 32.0923C30.8008 33.5782 32.5445 35.0735 35.1883 35.9782C35.3992 36.0485 35.6148 36.1189 35.8352 36.1798C35.7648 36.4704 35.6992 36.7564 35.6477 37.0376C35.1461 39.6814 35.5398 41.7814 36.7867 42.4985C38.0758 43.2439 40.2367 42.4798 42.3414 40.6376C42.5055 40.4923 42.6742 40.3376 42.843 40.1782C43.0586 40.3892 43.2742 40.586 43.4899 40.7689C45.5289 42.522 47.5446 43.2345 48.7914 42.5126C50.0805 41.7673 50.4977 39.5126 49.9539 36.7704C49.9117 36.5595 49.8649 36.3485 49.8086 36.1282C49.9586 36.0814 50.1086 36.0392 50.2539 35.9876C53.0055 35.0782 54.7961 33.6017 54.7961 32.097C54.8008 30.6439 53.1274 29.247 50.5352 28.3563ZM49.9352 35.0079C49.8039 35.0501 49.668 35.0923 49.5321 35.1345C49.2274 34.1735 48.8196 33.1517 48.318 32.0923C48.7961 31.061 49.1899 30.0532 49.4852 29.097C49.7289 29.1673 49.968 29.2423 50.1977 29.322C52.4196 30.086 53.7742 31.2157 53.7742 32.0876C53.7742 33.0204 52.3117 34.2251 49.9352 35.0079ZM48.9508 36.9626C49.1899 38.1767 49.2274 39.2735 49.068 40.1314C48.9274 40.9001 48.6367 41.4157 48.2805 41.622C47.5258 42.0579 45.9086 41.4907 44.1602 39.9907C43.9586 39.8173 43.7571 39.6345 43.5555 39.4423C44.2305 38.7017 44.9055 37.8439 45.5664 36.8876C46.7289 36.7845 47.8211 36.6157 48.8149 36.386C48.8711 36.5782 48.9133 36.7751 48.9508 36.9626ZM38.9852 41.547C38.2445 41.8095 37.6586 41.8142 37.3023 41.6126C36.543 41.1767 36.2289 39.4892 36.6602 37.2298C36.707 36.972 36.768 36.7048 36.8336 36.4329C37.818 36.6485 38.9055 36.8079 40.068 36.9017C40.7336 37.8345 41.4274 38.697 42.1305 39.447C41.9758 39.597 41.8258 39.7376 41.6711 39.8689C40.7383 40.6751 39.8055 41.2564 38.9852 41.547ZM35.5211 35.0032C34.3492 34.6048 33.3836 34.0845 32.7227 33.5173C32.1273 33.0064 31.8273 32.5001 31.8273 32.0923C31.8273 31.2204 33.1305 30.1048 35.3055 29.3454C35.568 29.2517 35.8445 29.1673 36.1305 29.0876C36.4305 30.0626 36.8242 31.0845 37.3023 32.1204C36.8195 33.1704 36.4211 34.2064 36.1164 35.1954C35.9102 35.1298 35.7133 35.0689 35.5211 35.0032ZM36.6836 27.1048C36.2336 24.7985 36.5336 23.0595 37.2836 22.6235C38.0852 22.1595 39.8617 22.8204 41.7321 24.4845C41.8539 24.5923 41.9711 24.7001 42.093 24.8173C41.3946 25.5673 40.7055 26.4204 40.0492 27.3485C38.9195 27.4517 37.8414 27.6204 36.8477 27.8454C36.782 27.5923 36.7305 27.3485 36.6836 27.1048ZM47.0336 29.6595C46.7946 29.247 46.5508 28.8485 46.3024 28.4595C47.0664 28.5579 47.8024 28.6845 48.4914 28.8438C48.2852 29.5048 48.0274 30.1985 47.7227 30.911C47.5071 30.4985 47.2774 30.0813 47.0336 29.6595ZM42.8102 25.5485C43.2836 26.0595 43.7571 26.6313 44.2211 27.2548C43.7524 27.2313 43.2742 27.222 42.7961 27.222C42.3227 27.222 41.8492 27.2313 41.3852 27.2548C41.8539 26.6407 42.3321 26.0688 42.8102 25.5485ZM38.5633 29.6688C38.3242 30.0813 38.0992 30.4939 37.8836 30.911C37.5836 30.2032 37.3305 29.5048 37.1195 28.8345C37.8039 28.6798 38.5352 28.5579 39.2945 28.4595C39.0461 28.8532 38.8023 29.2563 38.5633 29.6688ZM39.3227 35.7954C38.5352 35.7064 37.7945 35.5892 37.1102 35.4392C37.3211 34.7548 37.5836 34.0423 37.8883 33.3204C38.1039 33.7376 38.3289 34.1501 38.568 34.5626C38.8117 34.9845 39.0648 35.3923 39.3227 35.7954ZM42.8383 38.7064C42.3508 38.1814 41.868 37.6001 41.3946 36.9767C41.8539 36.9954 42.3227 37.0048 42.8008 37.0048C43.2883 37.0048 43.7758 36.9954 44.2492 36.972C43.7805 37.6048 43.3117 38.186 42.8383 38.7064ZM47.7321 33.2829C48.0508 34.0142 48.3227 34.722 48.5383 35.3923C47.8446 35.5517 47.0899 35.6782 46.2977 35.772C46.5461 35.3782 46.7946 34.9704 47.0336 34.5485C47.2821 34.1314 47.5164 33.7095 47.7321 33.2829ZM46.1477 34.0423C45.7727 34.6939 45.3883 35.3126 44.9946 35.8985C44.2821 35.9501 43.5461 35.9735 42.7961 35.9735C42.0508 35.9735 41.3242 35.9501 40.6211 35.9032C40.2133 35.3079 39.8195 34.6845 39.4492 34.0423C39.0789 33.4001 38.7367 32.7532 38.4273 32.1064C38.7367 31.4595 39.0789 30.8126 39.4492 30.1704C39.8195 29.5282 40.2086 28.9095 40.6117 28.3188C41.3242 28.2626 42.0555 28.2345 42.7961 28.2345C43.5414 28.2345 44.2727 28.2626 44.9852 28.3188C45.3836 28.9048 45.768 29.5235 46.143 30.1657C46.518 30.8173 46.8649 31.4595 47.1789 32.0923C46.8696 32.7439 46.5227 33.3954 46.1477 34.0423ZM48.2664 22.5954C49.068 23.0595 49.3821 24.9298 48.8758 27.3813C48.843 27.536 48.8055 27.6954 48.768 27.8595C47.7742 27.6298 46.6914 27.461 45.5571 27.3532C44.8961 26.4157 44.2164 25.5626 43.5274 24.822C43.7102 24.6438 43.8977 24.4751 44.0805 24.3157C45.8524 22.7688 47.5117 22.1595 48.2664 22.5954ZM42.8008 29.9454C43.9867 29.9454 44.943 30.9064 44.943 32.0876C44.943 33.2735 43.9821 34.2298 42.8008 34.2298C41.6196 34.2298 40.6586 33.2689 40.6586 32.0876C40.6586 30.9064 41.6196 29.9454 42.8008 29.9454Z" fill="#00D8FF"/>
</g>
</g>
</g>
</g>
<path d="M67.0887 37.06L64.8487 33.168H63.6307V37.06H62.0347V27.33H65.3947C66.1413 27.33 66.7713 27.4607 67.2847 27.722C67.8073 27.9833 68.1947 28.3333 68.4467 28.772C68.708 29.2107 68.8387 29.7007 68.8387 30.242C68.8387 30.8767 68.652 31.4553 68.2787 31.978C67.9147 32.4913 67.35 32.8413 66.5847 33.028L68.9927 37.06H67.0887ZM63.6307 31.894H65.3947C65.992 31.894 66.44 31.7447 66.7387 31.446C67.0467 31.1473 67.2007 30.746 67.2007 30.242C67.2007 29.738 67.0513 29.346 66.7527 29.066C66.454 28.7767 66.0013 28.632 65.3947 28.632H63.6307V31.894ZM77.9504 33.014C77.9504 33.3033 77.9317 33.5647 77.8944 33.798H72.0004C72.047 34.414 72.2757 34.9087 72.6864 35.282C73.097 35.6553 73.601 35.842 74.1984 35.842C75.057 35.842 75.6637 35.4827 76.0184 34.764H77.7404C77.507 35.4733 77.0824 36.0567 76.4664 36.514C75.8597 36.962 75.1037 37.186 74.1984 37.186C73.461 37.186 72.7984 37.0227 72.2104 36.696C71.6317 36.36 71.1744 35.8933 70.8384 35.296C70.5117 34.6893 70.3484 33.9893 70.3484 33.196C70.3484 32.4027 70.507 31.7073 70.8244 31.11C71.151 30.5033 71.6037 30.0367 72.1824 29.71C72.7704 29.3833 73.4424 29.22 74.1984 29.22C74.9264 29.22 75.575 29.3787 76.1444 29.696C76.7137 30.0133 77.157 30.4613 77.4744 31.04C77.7917 31.6093 77.9504 32.2673 77.9504 33.014ZM76.2844 32.51C76.275 31.922 76.065 31.4507 75.6544 31.096C75.2437 30.7413 74.735 30.564 74.1284 30.564C73.5777 30.564 73.1064 30.7413 72.7144 31.096C72.3224 31.4413 72.089 31.9127 72.0144 32.51H76.2844ZM78.989 33.168C78.989 32.3933 79.1477 31.7073 79.465 31.11C79.7917 30.5127 80.2303 30.0507 80.781 29.724C81.341 29.388 81.957 29.22 82.629 29.22C83.2357 29.22 83.763 29.3413 84.211 29.584C84.6683 29.8173 85.0323 30.1113 85.303 30.466V29.346H86.913V37.06H85.303V35.912C85.0323 36.276 84.6637 36.5793 84.197 36.822C83.7303 37.0647 83.1983 37.186 82.601 37.186C81.9383 37.186 81.3317 37.018 80.781 36.682C80.2303 36.3367 79.7917 35.8607 79.465 35.254C79.1477 34.638 78.989 33.9427 78.989 33.168ZM85.303 33.196C85.303 32.664 85.191 32.202 84.967 31.81C84.7523 31.418 84.4677 31.1193 84.113 30.914C83.7583 30.7087 83.3757 30.606 82.965 30.606C82.5543 30.606 82.1717 30.7087 81.817 30.914C81.4623 31.11 81.173 31.404 80.949 31.796C80.7343 32.1787 80.627 32.636 80.627 33.168C80.627 33.7 80.7343 34.1667 80.949 34.568C81.173 34.9693 81.4623 35.2773 81.817 35.492C82.181 35.6973 82.5637 35.8 82.965 35.8C83.3757 35.8 83.7583 35.6973 84.113 35.492C84.4677 35.2867 84.7523 34.988 84.967 34.596C85.191 34.1947 85.303 33.728 85.303 33.196ZM88.4773 33.196C88.4773 32.4027 88.6359 31.7073 88.9533 31.11C89.2799 30.5033 89.7279 30.0367 90.2973 29.71C90.8666 29.3833 91.5199 29.22 92.2573 29.22C93.1906 29.22 93.9606 29.444 94.5673 29.892C95.1833 30.3307 95.5986 30.9607 95.8133 31.782H94.0913C93.9513 31.3993 93.7273 31.1007 93.4193 30.886C93.1113 30.6713 92.7239 30.564 92.2573 30.564C91.6039 30.564 91.0813 30.7973 90.6893 31.264C90.3066 31.7213 90.1153 32.3653 90.1153 33.196C90.1153 34.0267 90.3066 34.6753 90.6893 35.142C91.0813 35.6087 91.6039 35.842 92.2573 35.842C93.1813 35.842 93.7926 35.436 94.0913 34.624H95.8133C95.5893 35.408 95.1693 36.0333 94.5533 36.5C93.9373 36.9573 93.1719 37.186 92.2573 37.186C91.5199 37.186 90.8666 37.0227 90.2973 36.696C89.7279 36.36 89.2799 35.8933 88.9533 35.296C88.6359 34.6893 88.4773 33.9893 88.4773 33.196ZM99.2658 30.648V34.918C99.2658 35.2073 99.3311 35.4173 99.4618 35.548C99.6018 35.6693 99.8351 35.73 100.162 35.73H101.142V37.06H99.8818C99.1631 37.06 98.6125 36.892 98.2298 36.556C97.8471 36.22 97.6558 35.674 97.6558 34.918V30.648H96.7458V29.346H97.6558V27.428H99.2658V29.346H101.142V30.648H99.2658ZM114.244 37.06H112.648L107.846 29.794V37.06H106.25V27.316H107.846L112.648 34.568V27.316H114.244V37.06ZM115.807 33.168C115.807 32.3933 115.966 31.7073 116.283 31.11C116.61 30.5127 117.049 30.0507 117.599 29.724C118.159 29.388 118.775 29.22 119.447 29.22C120.054 29.22 120.581 29.3413 121.029 29.584C121.487 29.8173 121.851 30.1113 122.121 30.466V29.346H123.731V37.06H122.121V35.912C121.851 36.276 121.482 36.5793 121.015 36.822C120.549 37.0647 120.017 37.186 119.419 37.186C118.757 37.186 118.15 37.018 117.599 36.682C117.049 36.3367 116.61 35.8607 116.283 35.254C115.966 34.638 115.807 33.9427 115.807 33.168ZM122.121 33.196C122.121 32.664 122.009 32.202 121.785 31.81C121.571 31.418 121.286 31.1193 120.931 30.914C120.577 30.7087 120.194 30.606 119.783 30.606C119.373 30.606 118.99 30.7087 118.635 30.914C118.281 31.11 117.991 31.404 117.767 31.796C117.553 32.1787 117.445 32.636 117.445 33.168C117.445 33.7 117.553 34.1667 117.767 34.568C117.991 34.9693 118.281 35.2773 118.635 35.492C118.999 35.6973 119.382 35.8 119.783 35.8C120.194 35.8 120.577 35.6973 120.931 35.492C121.286 35.2867 121.571 34.988 121.785 34.596C122.009 34.1947 122.121 33.728 122.121 33.196ZM127.69 30.648V34.918C127.69 35.2073 127.755 35.4173 127.886 35.548C128.026 35.6693 128.259 35.73 128.586 35.73H129.566V37.06H128.306C127.587 37.06 127.036 36.892 126.654 36.556C126.271 36.22 126.08 35.674 126.08 34.918V30.648H125.17V29.346H126.08V27.428H127.69V29.346H129.566V30.648H127.69ZM131.849 28.324C131.559 28.324 131.317 28.226 131.121 28.03C130.925 27.834 130.827 27.5913 130.827 27.302C130.827 27.0127 130.925 26.77 131.121 26.574C131.317 26.378 131.559 26.28 131.849 26.28C132.129 26.28 132.367 26.378 132.563 26.574C132.759 26.77 132.857 27.0127 132.857 27.302C132.857 27.5913 132.759 27.834 132.563 28.03C132.367 28.226 132.129 28.324 131.849 28.324ZM132.633 29.346V37.06H131.037V29.346H132.633ZM137.71 35.632L139.894 29.346H141.588L138.648 37.06H136.744L133.818 29.346H135.526L137.71 35.632ZM149.864 33.014C149.864 33.3033 149.846 33.5647 149.808 33.798H143.914C143.961 34.414 144.19 34.9087 144.6 35.282C145.011 35.6553 145.515 35.842 146.112 35.842C146.971 35.842 147.578 35.4827 147.932 34.764H149.654C149.421 35.4733 148.996 36.0567 148.38 36.514C147.774 36.962 147.018 37.186 146.112 37.186C145.375 37.186 144.712 37.0227 144.124 36.696C143.546 36.36 143.088 35.8933 142.752 35.296C142.426 34.6893 142.262 33.9893 142.262 33.196C142.262 32.4027 142.421 31.7073 142.738 31.11C143.065 30.5033 143.518 30.0367 144.096 29.71C144.684 29.3833 145.356 29.22 146.112 29.22C146.84 29.22 147.489 29.3787 148.058 29.696C148.628 30.0133 149.071 30.4613 149.388 31.04C149.706 31.6093 149.864 32.2673 149.864 33.014ZM148.198 32.51C148.189 31.922 147.979 31.4507 147.568 31.096C147.158 30.7413 146.649 30.564 146.042 30.564C145.492 30.564 145.02 30.7413 144.628 31.096C144.236 31.4413 144.003 31.9127 143.928 32.51H148.198Z" fill="black"/>
</g>
<defs>
<filter id="filter0_d_52_377" x="0.800781" y="0.5" width="179.43" height="63.2" filterUnits="userSpaceOnUse" color-interpolation-filters="sRGB">
<feFlood flood-opacity="0" result="BackgroundImageFix"/>
<feColorMatrix in="SourceAlpha" type="matrix" values="0 0 0 0 0 0 0 0 0 0 0 0 0 0 0 0 0 0 127 0" result="hardAlpha"/>
<feOffset/>
<feGaussianBlur stdDeviation="5"/>
<feComposite in2="hardAlpha" operator="out"/>
<feColorMatrix type="matrix" values="0 0 0 0 0 0 0 0 0 0 0 0 0 0 0 0 0 0 0.05 0"/>
<feBlend mode="normal" in2="BackgroundImageFix" result="effect1_dropShadow_52_377"/>
<feBlend mode="normal" in="SourceGraphic" in2="effect1_dropShadow_52_377" result="shape"/>
</filter>
<clipPath id="clip0_52_377">
<rect width="24" height="24" fill="white" transform="translate(30.8008 20.11)"/>
</clipPath>
<clipPath id="clip1_52_377">
<rect width="24" height="24" fill="white" transform="translate(30.8008 20.11)"/>
</clipPath>
<clipPath id="clip2_52_377">
<rect width="24" height="24" fill="white" transform="translate(30.8008 20.11)"/>
</clipPath>
</defs>
</svg>
