<svg width="153" height="65" viewBox="0 0 153 65" fill="none" xmlns="http://www.w3.org/2000/svg">
<g filter="url(#filter0_d_52_387)">
<rect x="10.2305" y="10" width="131.94" height="44.2" rx="22.1" fill="white" shape-rendering="crispEdges"/>
<g clip-path="url(#clip0_52_387)">
<g clip-path="url(#clip1_52_387)">
<g clip-path="url(#clip2_52_387)">
<path fill-rule="evenodd" clip-rule="evenodd" d="M37.6554 21.6517C37.0072 21.6531 36.3727 22.022 36.0464 22.5848L30.9714 31.4245C30.6502 31.9888 30.6502 32.7264 30.9714 33.2907L36.0464 42.1303C36.3728 42.6932 37.0072 43.0622 37.6554 43.0635H47.8055C48.4537 43.0621 49.0882 42.6932 49.4145 42.1303L54.4896 33.2907C54.8108 32.7264 54.8108 31.9888 54.4896 31.4245L49.4145 22.5848C49.0882 22.022 48.4537 21.653 47.8055 21.6517H37.6554ZM37.7475 26.823C37.7615 26.8216 37.7761 26.8216 37.7901 26.823H39.5408C39.6183 26.8246 39.6935 26.8695 39.7322 26.937L42.7022 32.2436C42.7171 32.2698 42.7267 32.2991 42.7304 32.3291C42.734 32.2991 42.7437 32.2698 42.7586 32.2436L45.7214 26.937C45.7614 26.8675 45.8401 26.8223 45.9199 26.823H47.6706C47.8256 26.8244 47.9417 27.0202 47.8691 27.1578L44.9701 32.3576L47.8691 37.5502C47.9486 37.6886 47.8297 37.8935 47.6706 37.8921H45.9199C45.8387 37.8915 45.7595 37.8432 45.7214 37.7711L42.7586 32.4644C42.7437 32.4382 42.734 32.4089 42.7304 32.3789C42.7267 32.4089 42.7171 32.4382 42.7022 32.4644L39.7322 37.7711C39.6953 37.8411 39.6197 37.889 39.5408 37.8921H37.7901C37.6311 37.8935 37.5121 37.6886 37.5917 37.5502L40.4907 32.3576L37.5917 27.1578C37.5222 27.0322 37.6069 26.8498 37.7475 26.823Z" fill="#3498DB"/>
</g>
</g>
</g>
<path d="M66.9492 32.202L69.9732 37.06H68.1812L65.9832 33.532L63.9252 37.06H62.1472L65.1712 32.202L62.1332 27.33H63.9252L66.1372 30.886L68.2092 27.33H69.9872L66.9492 32.202ZM71.1934 33.168C71.1934 32.3933 71.352 31.7073 71.6694 31.11C71.996 30.5127 72.4347 30.0507 72.9854 29.724C73.5454 29.388 74.1614 29.22 74.8334 29.22C75.44 29.22 75.9674 29.3413 76.4154 29.584C76.8727 29.8173 77.2367 30.1113 77.5074 30.466V29.346H79.1174V37.06H77.5074V35.912C77.2367 36.276 76.868 36.5793 76.4014 36.822C75.9347 37.0647 75.4027 37.186 74.8054 37.186C74.1427 37.186 73.536 37.018 72.9854 36.682C72.4347 36.3367 71.996 35.8607 71.6694 35.254C71.352 34.638 71.1934 33.9427 71.1934 33.168ZM77.5074 33.196C77.5074 32.664 77.3954 32.202 77.1714 31.81C76.9567 31.418 76.672 31.1193 76.3174 30.914C75.9627 30.7087 75.58 30.606 75.1694 30.606C74.7587 30.606 74.376 30.7087 74.0214 30.914C73.6667 31.11 73.3774 31.404 73.1534 31.796C72.9387 32.1787 72.8314 32.636 72.8314 33.168C72.8314 33.7 72.9387 34.1667 73.1534 34.568C73.3774 34.9693 73.6667 35.2773 74.0214 35.492C74.3854 35.6973 74.768 35.8 75.1694 35.8C75.58 35.8 75.9627 35.6973 76.3174 35.492C76.672 35.2867 76.9567 34.988 77.1714 34.596C77.3954 34.1947 77.5074 33.728 77.5074 33.196ZM90.5517 29.22C91.1583 29.22 91.6997 29.346 92.1757 29.598C92.661 29.85 93.039 30.2233 93.3097 30.718C93.5897 31.2127 93.7297 31.81 93.7297 32.51V37.06H92.1477V32.748C92.1477 32.0573 91.975 31.53 91.6297 31.166C91.2843 30.7927 90.813 30.606 90.2157 30.606C89.6183 30.606 89.1423 30.7927 88.7877 31.166C88.4423 31.53 88.2697 32.0573 88.2697 32.748V37.06H86.6877V32.748C86.6877 32.0573 86.515 31.53 86.1697 31.166C85.8243 30.7927 85.353 30.606 84.7557 30.606C84.1583 30.606 83.6823 30.7927 83.3277 31.166C82.9823 31.53 82.8097 32.0573 82.8097 32.748V37.06H81.2137V29.346H82.8097V30.228C83.071 29.9107 83.4023 29.6633 83.8037 29.486C84.205 29.3087 84.6343 29.22 85.0917 29.22C85.7077 29.22 86.2583 29.3507 86.7437 29.612C87.229 29.8733 87.6023 30.2513 87.8637 30.746C88.097 30.2793 88.461 29.9107 88.9557 29.64C89.4503 29.36 89.9823 29.22 90.5517 29.22ZM95.2285 33.168C95.2285 32.3933 95.3872 31.7073 95.7045 31.11C96.0312 30.5127 96.4699 30.0507 97.0205 29.724C97.5805 29.388 98.1965 29.22 98.8685 29.22C99.4752 29.22 100.003 29.3413 100.451 29.584C100.908 29.8173 101.272 30.1113 101.543 30.466V29.346H103.153V37.06H101.543V35.912C101.272 36.276 100.903 36.5793 100.437 36.822C99.9699 37.0647 99.4379 37.186 98.8405 37.186C98.1779 37.186 97.5712 37.018 97.0205 36.682C96.4699 36.3367 96.0312 35.8607 95.7045 35.254C95.3872 34.638 95.2285 33.9427 95.2285 33.168ZM101.543 33.196C101.543 32.664 101.431 32.202 101.207 31.81C100.992 31.418 100.707 31.1193 100.353 30.914C99.9979 30.7087 99.6152 30.606 99.2045 30.606C98.7939 30.606 98.4112 30.7087 98.0565 30.914C97.7019 31.11 97.4125 31.404 97.1885 31.796C96.9739 32.1787 96.8665 32.636 96.8665 33.168C96.8665 33.7 96.9739 34.1667 97.1885 34.568C97.4125 34.9693 97.7019 35.2773 98.0565 35.492C98.4205 35.6973 98.8032 35.8 99.2045 35.8C99.6152 35.8 99.9979 35.6973 100.353 35.492C100.707 35.2867 100.992 34.988 101.207 34.596C101.431 34.1947 101.543 33.728 101.543 33.196ZM106.845 30.466C107.078 30.074 107.386 29.7707 107.769 29.556C108.161 29.332 108.623 29.22 109.155 29.22V30.872H108.749C108.123 30.872 107.647 31.0307 107.321 31.348C107.003 31.6653 106.845 32.216 106.845 33V37.06H105.249V29.346H106.845V30.466ZM111.434 28.324C111.145 28.324 110.902 28.226 110.706 28.03C110.51 27.834 110.412 27.5913 110.412 27.302C110.412 27.0127 110.51 26.77 110.706 26.574C110.902 26.378 111.145 26.28 111.434 26.28C111.714 26.28 111.952 26.378 112.148 26.574C112.344 26.77 112.442 27.0127 112.442 27.302C112.442 27.5913 112.344 27.834 112.148 28.03C111.952 28.226 111.714 28.324 111.434 28.324ZM112.218 29.346V37.06H110.622V29.346H112.218ZM118.205 29.22C118.812 29.22 119.353 29.346 119.829 29.598C120.315 29.85 120.693 30.2233 120.963 30.718C121.234 31.2127 121.369 31.81 121.369 32.51V37.06H119.787V32.748C119.787 32.0573 119.615 31.53 119.269 31.166C118.924 30.7927 118.453 30.606 117.855 30.606C117.258 30.606 116.782 30.7927 116.427 31.166C116.082 31.53 115.909 32.0573 115.909 32.748V37.06H114.313V29.346H115.909V30.228C116.171 29.9107 116.502 29.6633 116.903 29.486C117.314 29.3087 117.748 29.22 118.205 29.22Z" fill="black"/>
</g>
<defs>
<filter id="filter0_d_52_387" x="0.230469" y="0" width="151.94" height="64.2" filterUnits="userSpaceOnUse" color-interpolation-filters="sRGB">
<feFlood flood-opacity="0" result="BackgroundImageFix"/>
<feColorMatrix in="SourceAlpha" type="matrix" values="0 0 0 0 0 0 0 0 0 0 0 0 0 0 0 0 0 0 127 0" result="hardAlpha"/>
<feOffset/>
<feGaussianBlur stdDeviation="5"/>
<feComposite in2="hardAlpha" operator="out"/>
<feColorMatrix type="matrix" values="0 0 0 0 0 0 0 0 0 0 0 0 0 0 0 0 0 0 0.05 0"/>
<feBlend mode="normal" in2="BackgroundImageFix" result="effect1_dropShadow_52_387"/>
<feBlend mode="normal" in="SourceGraphic" in2="effect1_dropShadow_52_387" result="shape"/>
</filter>
<clipPath id="clip0_52_387">
<rect width="25" height="25" fill="white" transform="translate(30.2305 19.61)"/>
</clipPath>
<clipPath id="clip1_52_387">
<rect width="25" height="25" fill="white" transform="translate(30.2305 19.61)"/>
</clipPath>
<clipPath id="clip2_52_387">
<rect width="25" height="25" fill="white" transform="translate(30.2305 19.61)"/>
</clipPath>
</defs>
</svg>
