<svg width="135" height="64" viewBox="0 0 135 64" fill="none" xmlns="http://www.w3.org/2000/svg">
<g filter="url(#filter0_d_52_393)">
<rect x="10.1602" y="10.5" width="114.43" height="43.2" rx="21.6" fill="white" shape-rendering="crispEdges"/>
<g clip-path="url(#clip0_52_393)">
<g clip-path="url(#clip1_52_393)">
<g clip-path="url(#clip2_52_393)">
<path d="M44.1519 20.1182L51.5888 20.11L39.1117 32.5802L35.8599 35.8136L32.1602 32.1094L44.1519 20.1182ZM44.0827 31.2526C44.1792 31.1251 44.3568 31.1879 44.4916 31.1715L51.5824 31.1734L45.1199 37.6293L41.401 33.9333L44.0827 31.2526Z" fill="#44D1FD"/>
<path d="M37.6953 37.6346L41.4023 33.9323L45.1212 37.6282L45.1367 37.6446L41.4032 41.3434L37.6953 37.6346Z" fill="#1FBCFD"/>
<path d="M41.4023 41.3439L45.1357 37.6452L51.5855 44.1011C49.1561 44.1065 46.7275 44.0992 44.2989 44.1047C44.1605 44.1357 44.0749 44.0091 43.9866 43.9308L41.4023 41.3439Z" fill="#08589C"/>
</g>
</g>
</g>
<path d="M67.104 27.33V28.632H62.974V31.502H66.194V32.804H62.974V37.06H61.378V27.33H67.104ZM70.1791 26.7V37.06H68.5831V26.7H70.1791ZM79.2605 29.346V37.06H77.6645V36.15C77.4125 36.4673 77.0812 36.7193 76.6705 36.906C76.2692 37.0833 75.8399 37.172 75.3825 37.172C74.7759 37.172 74.2299 37.046 73.7445 36.794C73.2685 36.542 72.8905 36.1687 72.6105 35.674C72.3399 35.1793 72.2045 34.582 72.2045 33.882V29.346H73.7865V33.644C73.7865 34.3347 73.9592 34.8667 74.3045 35.24C74.6499 35.604 75.1212 35.786 75.7185 35.786C76.3159 35.786 76.7872 35.604 77.1325 35.24C77.4872 34.8667 77.6645 34.3347 77.6645 33.644V29.346H79.2605ZM83.2283 30.648V34.918C83.2283 35.2073 83.2937 35.4173 83.4243 35.548C83.5643 35.6693 83.7977 35.73 84.1243 35.73H85.1043V37.06H83.8443C83.1257 37.06 82.575 36.892 82.1923 36.556C81.8097 36.22 81.6183 35.674 81.6183 34.918V30.648H80.7083V29.346H81.6183V27.428H83.2283V29.346H85.1043V30.648H83.2283ZM88.4373 30.648V34.918C88.4373 35.2073 88.5026 35.4173 88.6333 35.548C88.7733 35.6693 89.0066 35.73 89.3333 35.73H90.3133V37.06H89.0533C88.3346 37.06 87.784 36.892 87.4013 36.556C87.0186 36.22 86.8273 35.674 86.8273 34.918V30.648H85.9173V29.346H86.8273V27.428H88.4373V29.346H90.3133V30.648H88.4373ZM98.8543 33.014C98.8543 33.3033 98.8356 33.5647 98.7983 33.798H92.9043C92.951 34.414 93.1796 34.9087 93.5903 35.282C94.001 35.6553 94.505 35.842 95.1023 35.842C95.961 35.842 96.5676 35.4827 96.9223 34.764H98.6443C98.411 35.4733 97.9863 36.0567 97.3703 36.514C96.7636 36.962 96.0076 37.186 95.1023 37.186C94.365 37.186 93.7023 37.0227 93.1143 36.696C92.5356 36.36 92.0783 35.8933 91.7423 35.296C91.4156 34.6893 91.2523 33.9893 91.2523 33.196C91.2523 32.4027 91.411 31.7073 91.7283 31.11C92.055 30.5033 92.5076 30.0367 93.0863 29.71C93.6743 29.3833 94.3463 29.22 95.1023 29.22C95.8303 29.22 96.479 29.3787 97.0483 29.696C97.6176 30.0133 98.061 30.4613 98.3783 31.04C98.6956 31.6093 98.8543 32.2673 98.8543 33.014ZM97.1883 32.51C97.179 31.922 96.969 31.4507 96.5583 31.096C96.1476 30.7413 95.639 30.564 95.0323 30.564C94.4816 30.564 94.0103 30.7413 93.6183 31.096C93.2263 31.4413 92.993 31.9127 92.9183 32.51H97.1883ZM102.021 30.466C102.254 30.074 102.562 29.7707 102.945 29.556C103.337 29.332 103.799 29.22 104.331 29.22V30.872H103.925C103.3 30.872 102.824 31.0307 102.497 31.348C102.18 31.6653 102.021 32.216 102.021 33V37.06H100.425V29.346H102.021V30.466Z" fill="black"/>
</g>
<defs>
<filter id="filter0_d_52_393" x="0.160156" y="0.5" width="134.43" height="63.2" filterUnits="userSpaceOnUse" color-interpolation-filters="sRGB">
<feFlood flood-opacity="0" result="BackgroundImageFix"/>
<feColorMatrix in="SourceAlpha" type="matrix" values="0 0 0 0 0 0 0 0 0 0 0 0 0 0 0 0 0 0 127 0" result="hardAlpha"/>
<feOffset/>
<feGaussianBlur stdDeviation="5"/>
<feComposite in2="hardAlpha" operator="out"/>
<feColorMatrix type="matrix" values="0 0 0 0 0 0 0 0 0 0 0 0 0 0 0 0 0 0 0.05 0"/>
<feBlend mode="normal" in2="BackgroundImageFix" result="effect1_dropShadow_52_393"/>
<feBlend mode="normal" in="SourceGraphic" in2="effect1_dropShadow_52_393" result="shape"/>
</filter>
<clipPath id="clip0_52_393">
<rect width="24" height="24" fill="white" transform="translate(30.1602 20.11)"/>
</clipPath>
<clipPath id="clip1_52_393">
<rect width="24" height="24" fill="white" transform="translate(30.1602 20.11)"/>
</clipPath>
<clipPath id="clip2_52_393">
<rect width="24" height="24" fill="white" transform="translate(30.1602 20.11)"/>
</clipPath>
</defs>
</svg>
