<svg width="224" height="64" viewBox="0 0 224 64" fill="none" xmlns="http://www.w3.org/2000/svg">
<g filter="url(#filter0_d_1_343)">
<rect x="10.4492" y="10.5" width="203.2" height="43.19" rx="21.595" fill="white" shape-rendering="crispEdges"/>
<g clip-path="url(#clip0_1_343)">
<g clip-path="url(#clip1_1_343)">
<g clip-path="url(#clip2_1_343)">
<mask id="mask0_1_343" style="mask-type:luminance" maskUnits="userSpaceOnUse" x="30" y="20" width="25" height="25">
<path d="M54.4492 20.09H30.4492V44.09H54.4492V20.09Z" fill="white"/>
</mask>
<g mask="url(#mask0_1_343)">
<mask id="mask1_1_343" style="mask-type:alpha" maskUnits="userSpaceOnUse" x="30" y="20" width="25" height="25">
<path fill-rule="evenodd" clip-rule="evenodd" d="M47.4681 43.9257C47.8461 44.073 48.2771 44.0636 48.6586 43.88L53.5998 41.5024C54.119 41.2525 54.4492 40.727 54.4492 40.1506V24.0288C54.4492 23.4524 54.119 22.9269 53.5998 22.677L48.6586 20.2993C48.1579 20.0584 47.5719 20.1174 47.1324 20.4369C47.0697 20.4825 47.0099 20.5335 46.9538 20.5897L37.4944 29.2196L33.3741 26.0919C32.9906 25.8008 32.4541 25.8247 32.0979 26.1487L30.7763 27.3508C30.3406 27.7472 30.3401 28.4327 30.7753 28.8297L34.3485 32.0897L30.7753 35.3496C30.3401 35.7466 30.3406 36.4321 30.7763 36.8285L32.0979 38.0306C32.4541 38.3547 32.9906 38.3785 33.3741 38.0874L37.4944 34.9597L46.9538 43.5896C47.1034 43.7394 47.2791 43.8521 47.4681 43.9257ZM48.4528 26.6414L41.2754 32.0897L48.4528 37.5379V26.6414Z" fill="white"/>
</mask>
<g mask="url(#mask1_1_343)">
<path d="M53.5989 22.6805L48.6538 20.2996C48.0814 20.024 47.3974 20.1402 46.9482 20.5894L30.7598 35.3494C30.3244 35.7464 30.3249 36.4319 30.7609 36.8283L32.0832 38.0304C32.4397 38.3544 32.9765 38.3783 33.3603 38.0872L52.8548 23.2982C53.5088 22.8021 54.4482 23.2685 54.4482 24.0894V24.032C54.4482 23.4558 54.1181 22.9305 53.5989 22.6805Z" fill="#0065A9"/>
<g filter="url(#filter1_d_1_343)">
<path d="M53.5989 41.4988L48.6538 43.8797C48.0814 44.1554 47.3974 44.0391 46.9482 43.5899L30.7598 28.8299C30.3244 28.4329 30.3249 27.7474 30.7609 27.351L32.0832 26.1489C32.4397 25.8249 32.9765 25.801 33.3603 26.0921L52.8548 40.8811C53.5088 41.3772 54.4482 40.9108 54.4482 40.0899V40.1473C54.4482 40.7235 54.1181 41.2488 53.5989 41.4988Z" fill="#007ACC"/>
</g>
<g filter="url(#filter2_d_1_343)">
<path d="M48.6551 43.88C48.0825 44.1554 47.3985 44.0389 46.9492 43.5896C47.5027 44.1432 48.4492 43.7511 48.4492 42.9683V21.211C48.4492 20.4282 47.5027 20.0361 46.9492 20.5897C47.3985 20.1404 48.0825 20.024 48.6551 20.2993L53.5993 22.677C54.1188 22.9269 54.4492 23.4524 54.4492 24.0288V40.1506C54.4492 40.727 54.1188 41.2525 53.5993 41.5024L48.6551 43.88Z" fill="#1F9CF0"/>
</g>
<g style="mix-blend-mode:overlay" opacity="0.25">
<path fill-rule="evenodd" clip-rule="evenodd" d="M47.4524 43.9258C47.8304 44.073 48.2615 44.0636 48.643 43.88L53.5842 41.5024C54.1034 41.2525 54.4336 40.7271 54.4336 40.1506V24.0288C54.4336 23.4523 54.1034 22.9269 53.5842 22.677L48.643 20.2993C48.1423 20.0584 47.5563 20.1174 47.1168 20.4369C47.0541 20.4825 46.9942 20.5335 46.9381 20.5897L37.4788 29.2196L33.3585 26.0919C32.975 25.8008 32.4385 25.8247 32.0822 26.1487L30.7607 27.3508C30.325 27.7472 30.3245 28.4327 30.7596 28.8297L34.3329 32.0896L30.7596 35.3496C30.3245 35.7466 30.325 36.4321 30.7607 36.8285L32.0822 38.0306C32.4385 38.3547 32.975 38.3785 33.3585 38.0874L37.4788 34.9597L46.9381 43.5897C47.0878 43.7394 47.2635 43.8521 47.4524 43.9258ZM48.4372 26.6414L41.2598 32.0896L48.4372 37.5379V26.6414Z" fill="url(#paint0_linear_1_343)"/>
</g>
</g>
</g>
</g>
</g>
</g>
<path d="M75.3981 36.25H73.7233L70.2028 26.3857H71.8639L74.5505 34.5273H74.5915L77.2848 26.3857H78.9186L75.3981 36.25ZM79.7048 36.25V29.0586H81.1813V36.25H79.7048ZM80.443 28.0059C79.9714 28.0059 79.5886 27.6299 79.5886 27.165C79.5886 26.6934 79.9714 26.3174 80.443 26.3174C80.9216 26.3174 81.3044 26.6934 81.3044 27.165C81.3044 27.6299 80.9216 28.0059 80.443 28.0059ZM82.5622 31.0957C82.5622 29.8105 83.697 28.9287 85.3786 28.9287C86.9782 28.9287 88.0993 29.8242 88.1471 31.1025H86.7595C86.6911 30.4531 86.1647 30.0498 85.3376 30.0498C84.5378 30.0498 84.0046 30.4395 84.0046 31.0068C84.0046 31.4512 84.36 31.752 85.1052 31.9365L86.3151 32.2168C87.7643 32.5654 88.3112 33.1123 88.3112 34.1719C88.3112 35.4844 87.0876 36.3867 85.3239 36.3867C83.6218 36.3867 82.4938 35.5049 82.3776 34.1855H83.8405C83.9567 34.876 84.4899 35.2588 85.3923 35.2588C86.2809 35.2588 86.8278 34.8896 86.8278 34.3086C86.8278 33.8506 86.5544 33.5977 85.8024 33.4062L84.5173 33.0918C83.2184 32.7773 82.5622 32.1006 82.5622 31.0957ZM95.6257 29.0586V36.25H94.2106V35.0332H94.1764C93.78 35.8945 93.0485 36.3799 91.9479 36.3799C90.3825 36.3799 89.4255 35.3613 89.4255 33.7139V29.0586H90.902V33.4268C90.902 34.5205 91.4216 35.1084 92.4401 35.1084C93.5065 35.1084 94.1491 34.3701 94.1491 33.249V29.0586H95.6257ZM99.6042 35.2041C100.636 35.2041 101.443 34.4932 101.443 33.5566V32.9893L99.6725 33.0986C98.7907 33.1602 98.2917 33.5498 98.2917 34.165C98.2917 34.7939 98.8112 35.2041 99.6042 35.2041ZM99.194 36.373C97.7858 36.373 96.8014 35.498 96.8014 34.2061C96.8014 32.9482 97.7653 32.1758 99.4743 32.0801L101.443 31.9639V31.4102C101.443 30.6104 100.903 30.1318 100.001 30.1318C99.1462 30.1318 98.613 30.542 98.4831 31.1846H97.0886C97.1706 29.8857 98.278 28.9287 100.055 28.9287C101.799 28.9287 102.913 29.8516 102.913 31.2939V36.25H101.498V35.0674H101.464C101.047 35.8672 100.137 36.373 99.194 36.373ZM104.403 36.25V26.3857H105.88V36.25H104.403ZM109.981 33.502H111.492C111.601 34.4795 112.551 35.1221 113.85 35.1221C115.094 35.1221 115.99 34.4795 115.99 33.5977C115.99 32.832 115.45 32.374 114.172 32.0596L112.893 31.752C111.082 31.3145 110.241 30.4668 110.241 29.0928C110.241 27.3906 111.724 26.2217 113.83 26.2217C115.915 26.2217 117.343 27.3906 117.391 29.0928H115.901C115.812 28.1084 114.999 27.5137 113.809 27.5137C112.62 27.5137 111.806 28.1152 111.806 28.9902C111.806 29.6875 112.326 30.0977 113.597 30.4121L114.684 30.6787C116.708 31.1572 117.549 31.9707 117.549 33.4131C117.549 35.2588 116.079 36.4141 113.741 36.4141C111.553 36.4141 110.077 35.2861 109.981 33.502ZM119.175 27.3564H120.659V29.0586H122.026V30.2275H120.659V34.1924C120.659 34.8145 120.932 35.0947 121.534 35.0947C121.684 35.0947 121.924 35.0811 122.019 35.0605V36.2295C121.855 36.2705 121.527 36.2979 121.199 36.2979C119.743 36.2979 119.175 35.7441 119.175 34.3564V30.2275H118.13V29.0586H119.175V27.3564ZM129.409 29.0586V36.25H127.994V35.0332H127.96C127.563 35.8945 126.832 36.3799 125.731 36.3799C124.166 36.3799 123.209 35.3613 123.209 33.7139V29.0586H124.685V33.4268C124.685 34.5205 125.205 35.1084 126.223 35.1084C127.29 35.1084 127.932 34.3701 127.932 33.249V29.0586H129.409ZM133.572 36.373C131.754 36.373 130.55 34.9238 130.55 32.6543C130.55 30.3848 131.754 28.9424 133.558 28.9424C134.591 28.9424 135.411 29.4619 135.814 30.2549H135.841V26.3857H137.325V36.25H135.889V35.0264H135.862C135.438 35.8467 134.618 36.373 133.572 36.373ZM133.962 30.1865C132.793 30.1865 132.061 31.1436 132.061 32.6543C132.061 34.1719 132.793 35.1221 133.962 35.1221C135.096 35.1221 135.855 34.1582 135.855 32.6543C135.855 31.1641 135.096 30.1865 133.962 30.1865ZM138.89 36.25V29.0586H140.367V36.25H138.89ZM139.629 28.0059C139.157 28.0059 138.774 27.6299 138.774 27.165C138.774 26.6934 139.157 26.3174 139.629 26.3174C140.107 26.3174 140.49 26.6934 140.49 27.165C140.49 27.6299 140.107 28.0059 139.629 28.0059ZM144.967 36.3867C142.91 36.3867 141.556 34.9717 141.556 32.6543C141.556 30.3438 142.917 28.9287 144.967 28.9287C147.018 28.9287 148.379 30.3438 148.379 32.6543C148.379 34.9717 147.025 36.3867 144.967 36.3867ZM144.967 35.1699C146.13 35.1699 146.875 34.2539 146.875 32.6543C146.875 31.0615 146.123 30.1455 144.967 30.1455C143.812 30.1455 143.06 31.0615 143.06 32.6543C143.06 34.2539 143.812 35.1699 144.967 35.1699ZM156.705 36.4141C153.936 36.4141 152.186 34.459 152.186 31.3145C152.186 28.1904 153.95 26.2217 156.705 26.2217C158.94 26.2217 160.629 27.5957 160.888 29.6533H159.371C159.097 28.3887 158.045 27.5615 156.705 27.5615C154.914 27.5615 153.752 29.0312 153.752 31.3145C153.752 33.6182 154.9 35.0742 156.712 35.0742C158.086 35.0742 159.063 34.3701 159.371 33.1807H160.895C160.519 35.2178 158.974 36.4141 156.705 36.4141ZM165.188 36.3867C163.131 36.3867 161.777 34.9717 161.777 32.6543C161.777 30.3438 163.137 28.9287 165.188 28.9287C167.239 28.9287 168.599 30.3438 168.599 32.6543C168.599 34.9717 167.246 36.3867 165.188 36.3867ZM165.188 35.1699C166.35 35.1699 167.095 34.2539 167.095 32.6543C167.095 31.0615 166.343 30.1455 165.188 30.1455C164.033 30.1455 163.281 31.0615 163.281 32.6543C163.281 34.2539 164.033 35.1699 165.188 35.1699ZM172.441 36.373C170.623 36.373 169.42 34.9238 169.42 32.6543C169.42 30.3848 170.623 28.9424 172.427 28.9424C173.46 28.9424 174.28 29.4619 174.683 30.2549H174.711V26.3857H176.194V36.25H174.758V35.0264H174.731C174.307 35.8467 173.487 36.373 172.441 36.373ZM172.831 30.1865C171.662 30.1865 170.93 31.1436 170.93 32.6543C170.93 34.1719 171.662 35.1221 172.831 35.1221C173.966 35.1221 174.724 34.1582 174.724 32.6543C174.724 31.1641 173.966 30.1865 172.831 30.1865ZM180.719 30.1182C179.687 30.1182 178.963 30.9043 178.887 31.9912H182.483C182.449 30.8906 181.752 30.1182 180.719 30.1182ZM182.476 34.1377H183.878C183.673 35.4502 182.428 36.3867 180.781 36.3867C178.669 36.3867 177.39 34.958 177.39 32.6885C177.39 30.4326 178.689 28.9287 180.719 28.9287C182.716 28.9287 183.96 30.3369 183.96 32.5176V33.0234H178.881V33.1123C178.881 34.3633 179.632 35.1904 180.815 35.1904C181.656 35.1904 182.278 34.7666 182.476 34.1377Z" fill="black"/>
</g>
<defs>
<filter id="filter0_d_1_343" x="0.449219" y="0.5" width="223.2" height="63.19" filterUnits="userSpaceOnUse" color-interpolation-filters="sRGB">
<feFlood flood-opacity="0" result="BackgroundImageFix"/>
<feColorMatrix in="SourceAlpha" type="matrix" values="0 0 0 0 0 0 0 0 0 0 0 0 0 0 0 0 0 0 127 0" result="hardAlpha"/>
<feOffset/>
<feGaussianBlur stdDeviation="5"/>
<feComposite in2="hardAlpha" operator="out"/>
<feColorMatrix type="matrix" values="0 0 0 0 0 0 0 0 0 0 0 0 0 0 0 0 0 0 0.05 0"/>
<feBlend mode="normal" in2="BackgroundImageFix" result="effect1_dropShadow_1_343"/>
<feBlend mode="normal" in="SourceGraphic" in2="effect1_dropShadow_1_343" result="shape"/>
</filter>
<filter id="filter1_d_1_343" x="28.4336" y="23.8888" width="28.0146" height="22.139" filterUnits="userSpaceOnUse" color-interpolation-filters="sRGB">
<feFlood flood-opacity="0" result="BackgroundImageFix"/>
<feColorMatrix in="SourceAlpha" type="matrix" values="0 0 0 0 0 0 0 0 0 0 0 0 0 0 0 0 0 0 127 0" result="hardAlpha"/>
<feOffset/>
<feGaussianBlur stdDeviation="1"/>
<feColorMatrix type="matrix" values="0 0 0 0 0 0 0 0 0 0 0 0 0 0 0 0 0 0 0.25 0"/>
<feBlend mode="overlay" in2="BackgroundImageFix" result="effect1_dropShadow_1_343"/>
<feBlend mode="normal" in="SourceGraphic" in2="effect1_dropShadow_1_343" result="shape"/>
</filter>
<filter id="filter2_d_1_343" x="44.9492" y="18.1515" width="11.5" height="27.8763" filterUnits="userSpaceOnUse" color-interpolation-filters="sRGB">
<feFlood flood-opacity="0" result="BackgroundImageFix"/>
<feColorMatrix in="SourceAlpha" type="matrix" values="0 0 0 0 0 0 0 0 0 0 0 0 0 0 0 0 0 0 127 0" result="hardAlpha"/>
<feOffset/>
<feGaussianBlur stdDeviation="1"/>
<feColorMatrix type="matrix" values="0 0 0 0 0 0 0 0 0 0 0 0 0 0 0 0 0 0 0.25 0"/>
<feBlend mode="overlay" in2="BackgroundImageFix" result="effect1_dropShadow_1_343"/>
<feBlend mode="normal" in="SourceGraphic" in2="effect1_dropShadow_1_343" result="shape"/>
</filter>
<linearGradient id="paint0_linear_1_343" x1="42.4336" y1="20.1515" x2="42.4336" y2="44.0278" gradientUnits="userSpaceOnUse">
<stop stop-color="white"/>
<stop offset="1" stop-color="white" stop-opacity="0"/>
</linearGradient>
<clipPath id="clip0_1_343">
<rect width="24" height="24" fill="white" transform="translate(30.4492 20.09)"/>
</clipPath>
<clipPath id="clip1_1_343">
<rect width="24" height="24" fill="white" transform="translate(30.4492 20.09)"/>
</clipPath>
<clipPath id="clip2_1_343">
<rect width="24" height="24" fill="white" transform="translate(30.4492 20.09)"/>
</clipPath>
</defs>
</svg>
