<svg width="132" height="64" viewBox="0 0 132 64" fill="none" xmlns="http://www.w3.org/2000/svg">
<g filter="url(#filter0_d_3_63)">
<rect x="10" y="10.3228" width="112" height="43.19" rx="21.595" fill="white" shape-rendering="crispEdges"/>
<g clip-path="url(#clip0_3_63)">
<g clip-path="url(#clip1_3_63)">
<g clip-path="url(#clip2_3_63)">
<mask id="mask0_3_63" style="mask-type:luminance" maskUnits="userSpaceOnUse" x="30" y="19" width="24" height="25">
<path d="M54 19.9229H30V43.9229H54V19.9229Z" fill="white"/>
</mask>
<g mask="url(#mask0_3_63)">
<path d="M49.2 21.5732H54L42 42.2724L30 21.5732H34.7409H39.1791L42 26.3732L44.7619 21.5732H49.2Z" fill="#41B883"/>
<path d="M30 21.5732L42 42.2724L54 21.5732H49.2L42 33.9942L34.7409 21.5732H30Z" fill="#41B883"/>
<path d="M34.7383 21.5732L41.9974 34.0533L49.1974 21.5732H44.7593L41.9974 26.3732L39.1764 21.5732H34.7383Z" fill="#35495E"/>
</g>
</g>
</g>
</g>
<path d="M68.0049 36.0728H66.3301L62.8096 26.2085H64.4707L67.1572 34.3501H67.1982L69.8916 26.2085H71.5254L68.0049 36.0728ZM78.0879 28.8813V36.0728H76.6729V34.856H76.6387C76.2422 35.7173 75.5107 36.2026 74.4102 36.2026C72.8447 36.2026 71.8877 35.1841 71.8877 33.5366V28.8813H73.3643V33.2495C73.3643 34.3433 73.8838 34.9312 74.9023 34.9312C75.9688 34.9312 76.6113 34.1929 76.6113 33.0718V28.8813H78.0879ZM82.5586 29.9409C81.5264 29.9409 80.8018 30.7271 80.7266 31.814H84.3223C84.2881 30.7134 83.5908 29.9409 82.5586 29.9409ZM84.3154 33.9604H85.7168C85.5117 35.2729 84.2676 36.2095 82.6201 36.2095C80.5078 36.2095 79.2295 34.7808 79.2295 32.5112C79.2295 30.2554 80.5283 28.7515 82.5586 28.7515C84.5547 28.7515 85.7988 30.1597 85.7988 32.3403V32.8462H80.7197V32.9351C80.7197 34.186 81.4717 35.0132 82.6543 35.0132C83.4951 35.0132 84.1172 34.5894 84.3154 33.9604ZM88.0547 36.1479C87.5557 36.1479 87.1592 35.7515 87.1592 35.2524C87.1592 34.7534 87.5557 34.3569 88.0547 34.3569C88.5537 34.3569 88.9502 34.7534 88.9502 35.2524C88.9502 35.7515 88.5537 36.1479 88.0547 36.1479ZM92.1494 28.8813V36.4146C92.1494 37.8774 91.3906 38.5747 89.7979 38.5747C89.7295 38.5747 89.4971 38.5747 89.4561 38.561V37.3989C89.4834 37.3989 89.6406 37.4058 89.668 37.4058C90.3994 37.4058 90.6729 37.1323 90.6729 36.4077V28.8813H92.1494ZM91.4111 27.8286C90.9395 27.8286 90.5566 27.4526 90.5566 26.9878C90.5566 26.5161 90.9395 26.1401 91.4111 26.1401C91.8896 26.1401 92.2725 26.5161 92.2725 26.9878C92.2725 27.4526 91.8896 27.8286 91.4111 27.8286ZM93.5303 30.9185C93.5303 29.6333 94.665 28.7515 96.3467 28.7515C97.9463 28.7515 99.0674 29.647 99.1152 30.9253H97.7275C97.6592 30.2759 97.1328 29.8726 96.3057 29.8726C95.5059 29.8726 94.9727 30.2622 94.9727 30.8296C94.9727 31.2739 95.3281 31.5747 96.0732 31.7593L97.2832 32.0396C98.7324 32.3882 99.2793 32.9351 99.2793 33.9946C99.2793 35.3071 98.0557 36.2095 96.292 36.2095C94.5898 36.2095 93.4619 35.3276 93.3457 34.0083H94.8086C94.9248 34.6987 95.458 35.0815 96.3604 35.0815C97.249 35.0815 97.7959 34.7124 97.7959 34.1313C97.7959 33.6733 97.5225 33.4204 96.7705 33.229L95.4854 32.9146C94.1865 32.6001 93.5303 31.9233 93.5303 30.9185Z" fill="black"/>
</g>
<defs>
<filter id="filter0_d_3_63" x="0" y="0.322754" width="132" height="63.1899" filterUnits="userSpaceOnUse" color-interpolation-filters="sRGB">
<feFlood flood-opacity="0" result="BackgroundImageFix"/>
<feColorMatrix in="SourceAlpha" type="matrix" values="0 0 0 0 0 0 0 0 0 0 0 0 0 0 0 0 0 0 127 0" result="hardAlpha"/>
<feOffset/>
<feGaussianBlur stdDeviation="5"/>
<feComposite in2="hardAlpha" operator="out"/>
<feColorMatrix type="matrix" values="0 0 0 0 0 0 0 0 0 0 0 0 0 0 0 0 0 0 0.05 0"/>
<feBlend mode="normal" in2="BackgroundImageFix" result="effect1_dropShadow_3_63"/>
<feBlend mode="normal" in="SourceGraphic" in2="effect1_dropShadow_3_63" result="shape"/>
</filter>
<clipPath id="clip0_3_63">
<rect width="24" height="24" fill="white" transform="translate(30 19.9229)"/>
</clipPath>
<clipPath id="clip1_3_63">
<rect width="24" height="24" fill="white" transform="translate(30 19.9229)"/>
</clipPath>
<clipPath id="clip2_3_63">
<rect width="24" height="24" fill="white" transform="translate(30 19.9229)"/>
</clipPath>
</defs>
</svg>
