<svg width="28" height="29" viewBox="0 0 28 29" fill="none" xmlns="http://www.w3.org/2000/svg">
<path d="M25.1879 21.4502H23.4863V22.426H25.1879V21.4502Z" fill="#DCA629"/>
<path d="M22.561 21.4502H20.8594V22.426H22.561V21.4502Z" fill="#DCA629"/>
<path d="M19.9438 21.4502H18.2422V22.426H19.9438V21.4502Z" fill="#DCA629"/>
<path d="M26.7742 24.2927H0.487903C0.218549 24.2927 0 24.0742 0 23.8048V7.53868C0 7.26933 0.218549 7.05078 0.487903 7.05078H4.47419C4.74355 7.05078 4.9621 7.26933 4.9621 7.53868C4.9621 7.80804 4.74355 8.02659 4.47419 8.02659H0.976613V23.3161H26.2871V8.02659H22.7895C22.5202 8.02659 22.3016 7.80804 22.3016 7.53868C22.3016 7.26933 22.5202 7.05078 22.7895 7.05078H26.775C27.0444 7.05078 27.2629 7.26933 27.2629 7.53868V23.8048C27.2629 24.0742 27.0444 24.2927 26.7742 24.2927Z" fill="#DCA629"/>
<path d="M9.55073 28.4291C9.49831 28.4291 9.44589 28.4202 9.39589 28.4033C9.14025 28.3178 9.00235 28.0412 9.08783 27.7855L10.4757 23.6484C10.5612 23.3928 10.8378 23.2549 11.0935 23.3412C11.3491 23.4266 11.487 23.7033 11.4007 23.9589L10.0128 28.096C9.9467 28.2952 9.76041 28.4291 9.55073 28.4291Z" fill="#DCA629"/>
<path d="M17.725 28.4279C17.5153 28.4279 17.3291 28.2941 17.2629 28.0949L15.875 23.9586C15.7895 23.7029 15.9266 23.4263 16.1823 23.3408C16.4379 23.2554 16.7145 23.3925 16.8 23.6481L18.1879 27.7852C18.2734 28.0408 18.1355 28.3175 17.8799 28.4029C17.8299 28.4191 17.7774 28.4279 17.725 28.4279Z" fill="#DCA629"/>
<path d="M19.6874 28.427H7.57775C7.30839 28.427 7.08984 28.2084 7.08984 27.9391C7.08984 27.6697 7.30839 27.4512 7.57775 27.4512H19.6866C19.956 27.4512 20.1745 27.6697 20.1745 27.9391C20.1745 28.2084 19.9568 28.427 19.6874 28.427Z" fill="#DCA629"/>
<path d="M26.7742 20.5559H0.487903C0.218548 20.5559 0 20.3373 0 20.068C0 19.7986 0.218548 19.5801 0.487903 19.5801H26.7742C27.0435 19.5801 27.2621 19.7986 27.2621 20.068C27.2621 20.3373 27.0444 20.5559 26.7742 20.5559Z" fill="#DCA629"/>
<path d="M22.7966 20.5581C22.5272 20.5581 22.3087 20.3395 22.3087 20.0702V0.975806H4.96995V20.0702C4.96995 20.3395 4.7514 20.5581 4.48204 20.5581C4.21269 20.5581 3.99414 20.3395 3.99414 20.0702V0.487903C3.99414 0.218548 4.21269 0 4.48204 0H22.7966C23.0659 0 23.2845 0.218548 23.2845 0.487903V20.0702C23.2845 20.3395 23.0659 20.5581 22.7966 20.5581Z" fill="#DCA629"/>
<path d="M8.61012 17.3926H6.29883V18.3684H8.61012V17.3926Z" fill="#DCA629"/>
<path d="M8.61012 15.1025H6.29883V16.0783H8.61012V15.1025Z" fill="#DCA629"/>
<path d="M18.0733 10.0325H11.3628L8.56445 3.9502H20.8685L18.0733 10.0325ZM11.9911 9.05584H17.4483L19.3483 4.926H10.0903L11.9911 9.05584Z" fill="#DCA629"/>
<path d="M8.94187 4.73835L7.74671 3.169H6.06445V2.19238H8.22978L9.71849 4.14642L8.94187 4.73835Z" fill="#DCA629"/>
<path d="M16.0387 4.39105L15.5371 9.49707L16.5082 9.59246L17.0098 4.48644L16.0387 4.39105Z" fill="#DCA629"/>
<path d="M13.393 4.39191L12.4219 4.4873L12.9234 9.59332L13.8946 9.49793L13.393 4.39191Z" fill="#DCA629"/>
<path d="M18.9295 6.50391H10.498V7.47971H18.9295V6.50391Z" fill="#DCA629"/>
<path d="M12.2879 13.9011C11.4185 13.9011 10.7129 13.1971 10.7129 12.327C10.7129 11.4576 11.4169 10.752 12.2871 10.752C13.1572 10.752 13.8621 11.456 13.8621 12.3261C13.8621 12.327 13.8621 12.327 13.8621 12.3278C13.8605 13.1955 13.1564 13.8995 12.2879 13.9011ZM12.2879 11.7286C11.9572 11.7286 11.6895 11.9955 11.6887 12.3261C11.6879 12.6568 11.9556 12.9245 12.2863 12.9253C12.6169 12.9253 12.8847 12.6584 12.8855 12.3278V12.327C12.8855 11.9971 12.6177 11.7294 12.2879 11.7286Z" fill="#DCA629"/>
<path d="M17.1406 13.9003C16.2712 13.9003 15.5664 13.1955 15.5664 12.3261C15.5664 11.4568 16.2712 10.752 17.1406 10.752C18.01 10.752 18.7148 11.4568 18.7148 12.3261V12.327C18.7148 13.1955 18.01 13.8995 17.1406 13.9003ZM17.1406 11.7278C16.81 11.7278 16.5422 11.9955 16.5422 12.3261C16.5422 12.6568 16.81 12.9245 17.1406 12.9245C17.4712 12.9245 17.739 12.6568 17.739 12.3261C17.7398 11.9955 17.4712 11.7278 17.1406 11.7278Z" fill="#DCA629"/>
<path d="M20.9788 15.1025H9.88281V16.0783H20.9788V15.1025Z" fill="#DCA629"/>
<path d="M20.9788 17.3926H9.88281V18.3684H20.9788V17.3926Z" fill="#DCA629"/>
</svg>
