<svg width="33" height="31" viewBox="0 0 33 31" fill="none" xmlns="http://www.w3.org/2000/svg">
<path d="M3.57159 30.4292H19.5117C21.1453 30.4263 22.4684 29.1032 22.4713 27.4695V7.95021C22.4771 7.90088 22.4771 7.8501 22.4713 7.79933C22.4655 7.77466 22.4568 7.75 22.4481 7.72679V7.65715C22.4481 7.63393 22.4205 7.60637 22.4089 7.58316C22.3988 7.56284 22.3872 7.54398 22.3741 7.52512C22.3582 7.50046 22.3408 7.47724 22.3204 7.45548L22.2465 7.40906L15.6309 0.661329C15.4859 0.513345 15.2857 0.429199 15.0782 0.429199H3.57198C1.93838 0.432101 0.61379 1.75524 0.612305 3.38887V27.4694C0.613755 29.103 1.93834 30.4262 3.57198 30.4291L3.57159 30.4292ZM15.7237 2.96102L19.8556 7.17724H17.1469C16.7697 7.18159 16.4055 7.03361 16.1371 6.76665C15.8702 6.4997 15.7207 6.13555 15.7236 5.75686L15.7237 2.96102ZM2.15987 3.38899C2.15987 2.60989 2.79097 1.97735 3.57152 1.97735H14.1756V5.75679C14.1785 7.39039 15.5031 8.71353 17.1352 8.71353H20.9232V27.4696C20.9218 28.2487 20.2907 28.8798 19.5116 28.8812H3.57152C2.79097 28.8812 2.15987 28.2487 2.15987 27.4696V3.38899ZM5.22398 14.4035C5.22398 13.9769 5.56928 13.6302 5.99725 13.6302H17.0771C17.5051 13.6302 17.8518 13.9769 17.8518 14.4035C17.8518 14.8314 17.5051 15.1782 17.0771 15.1782H5.99725C5.56928 15.1782 5.22398 14.8314 5.22398 14.4035ZM5.22398 18.8343C5.22398 18.4064 5.56928 18.0596 5.99725 18.0596H17.0771C17.5051 18.0596 17.8518 18.4064 17.8518 18.8343C17.8518 19.2609 17.5051 19.6076 17.0771 19.6076H5.99725C5.56928 19.6076 5.22398 19.2609 5.22398 18.8343ZM5.22398 23.2637C5.22398 22.8358 5.56928 22.4905 5.99725 22.4905H17.0771C17.5051 22.4905 17.8518 22.8358 17.8518 23.2637C17.8518 23.6917 17.5051 24.037 17.0771 24.037H5.99725C5.56928 24.037 5.22398 23.6917 5.22398 23.2637ZM28.7809 3.32808C26.8629 3.33969 25.312 4.89204 25.2989 6.81003V25.5576C25.3004 25.7099 25.3454 25.8579 25.431 25.9841L28.1396 30.0811H28.1382C28.2818 30.2958 28.5241 30.4264 28.7823 30.4264C29.042 30.4264 29.2829 30.2958 29.4265 30.0811L32.1352 25.9841C32.2179 25.8579 32.2629 25.7099 32.2629 25.5576V6.82451C32.2672 5.89889 31.9016 5.00955 31.2487 4.35235C30.5944 3.69659 29.7065 3.32808 28.7809 3.32808ZM26.847 24.1689V8.91813H30.7263V24.1689H26.847ZM28.7809 4.87462C29.2945 4.87462 29.7863 5.07919 30.149 5.44187C30.5117 5.80457 30.7148 6.29641 30.7148 6.80999V7.35551H26.831V6.82451C26.8266 6.30658 27.0312 5.80749 27.3968 5.44187C27.7638 5.07482 28.2629 4.87024 28.7809 4.87462ZM28.7809 28.2543L27.0936 25.7169H30.4667L28.7809 28.2543Z" fill="#DCA629"/>
</svg>
