<svg width="160" height="160" viewBox="0 0 160 160" fill="none" xmlns="http://www.w3.org/2000/svg">
<circle cx="80" cy="80" r="75" fill="#DDA72A" stroke="#0B0B0B" stroke-width="10"/>
<path d="M87.5897 80.2408C87.5897 83.3087 85.7418 86.0742 82.9073 87.248C80.0728 88.4219 76.8109 87.7742 74.6406 85.6039C72.4704 83.4337 71.8226 80.1718 72.9965 77.3373C74.1704 74.5028 76.9359 72.6548 80.0038 72.6548C84.1897 72.6647 87.5799 76.0549 87.5897 80.2408ZM97.9118 77.2945V83.1969H97.9085C97.9085 83.4271 97.8164 83.6507 97.652 83.8151C97.4876 83.9795 97.264 84.0716 97.0338 84.0716H96.3926C95.222 84.088 94.1796 84.818 93.762 85.913C93.2556 86.985 93.4529 88.2576 94.2618 89.1223L94.7189 89.5794C95.0576 89.9214 95.0576 90.4738 94.7189 90.8158L90.5461 94.9886H90.5428C90.3784 95.153 90.1548 95.2451 89.9214 95.2451C89.6879 95.2451 89.4643 95.153 89.2999 94.9886L88.8527 94.5414C87.9747 93.7982 86.7515 93.6141 85.6927 94.0613C84.6306 94.5085 83.9137 95.518 83.8349 96.6656V97.3069V97.3036C83.8349 97.537 83.7428 97.7606 83.5784 97.925C83.414 98.0895 83.1904 98.1815 82.9602 98.1815H77.0479C76.5646 98.1815 76.1732 97.7902 76.1732 97.3035V96.6656C76.1568 95.4917 75.4268 94.4494 74.3318 94.035C73.2566 93.5319 71.9873 93.7325 71.1225 94.5414L70.6753 94.9886C70.5109 95.1563 70.284 95.2484 70.0505 95.2484C69.8171 95.2484 69.5935 95.1563 69.429 94.9886L65.2563 90.8159C65.0919 90.6514 64.9998 90.4278 64.9998 90.1944C64.9998 89.9609 65.0919 89.7373 65.2563 89.5696L65.7134 89.1224H65.7101C66.4729 88.251 66.6735 87.0179 66.2296 85.9493C65.7857 84.8773 64.7729 84.1506 63.6154 84.0717H62.9742C62.4908 84.0717 62.0995 83.6804 62.0995 83.197V77.2946C62.0995 76.8112 62.4908 76.4166 62.9742 76.4166H63.6154C64.7729 76.341 65.7856 75.6143 66.2296 74.5423C66.6735 73.4703 66.4729 72.2405 65.7101 71.3658L65.253 70.9088L65.2563 70.9121C64.9143 70.5701 64.9143 70.0177 65.2563 69.6756L69.429 65.5029V65.4996C69.5935 65.3352 69.8171 65.2398 70.0505 65.2398C70.284 65.2398 70.5109 65.3352 70.6753 65.4996L71.1225 65.9468C71.9051 66.736 73.0855 66.9728 74.1115 66.5453L74.4897 66.3874C75.5123 65.9665 76.1765 64.9669 76.1733 63.8621V63.2208C76.1733 62.7375 76.5646 62.3429 77.048 62.3429H82.9602C83.1904 62.3429 83.414 62.4349 83.5784 62.5993C83.7428 62.7638 83.8349 62.9874 83.8349 63.2208V63.862C83.8316 64.9669 84.4958 65.9665 85.5184 66.3874L85.7289 66.4762V66.4729C86.8534 66.9398 88.149 66.6833 89.0105 65.8251L89.3361 65.4996H89.3328C89.4972 65.3352 89.7241 65.2398 89.9576 65.2398C90.191 65.2398 90.4146 65.3352 90.579 65.4996L94.7518 69.6723V69.6756C95.0938 70.0176 95.0938 70.57 94.7518 70.912L94.2947 71.3691L94.298 71.3658C93.499 72.2142 93.2918 73.4572 93.7719 74.516C94.1763 75.6274 95.2188 76.3804 96.4025 76.4166H97.0437H97.0404C97.5238 76.4231 97.9085 76.8144 97.9085 77.2946L97.9118 77.2945ZM89.3424 80.2408C89.3391 76.4659 87.0604 73.0626 83.5715 71.6192C80.0827 70.1757 76.0677 70.978 73.3976 73.6481C70.7276 76.3214 69.9318 80.3364 71.3754 83.8253C72.8223 87.3141 76.2288 89.5897 80.0038 89.5897C85.1597 89.5798 89.3391 85.3964 89.3424 80.2408ZM80.0035 45.7106C78.0108 45.7106 76.2122 46.9108 75.4493 48.7522C74.6864 50.5936 75.1106 52.7112 76.5179 54.1219C77.9286 55.5326 80.0495 55.9535 81.8909 55.1905C83.7323 54.4276 84.9325 52.629 84.9325 50.6363C84.9325 47.9169 82.7262 45.7106 80.0035 45.7106ZM80.0035 104.925C78.0075 104.925 76.2089 106.129 75.446 107.974C74.6864 109.822 75.1139 111.943 76.5311 113.35C77.9484 114.757 80.0725 115.168 81.914 114.396C83.7554 113.623 84.9458 111.814 84.9325 109.818C84.9128 107.109 82.7131 104.925 80.0035 104.925ZM109.614 75.3113C107.622 75.308 105.823 76.5082 105.057 78.3496C104.291 80.1911 104.712 82.312 106.119 83.7226C107.526 85.1333 109.647 85.5575 111.492 84.7946C113.333 84.0317 114.534 82.233 114.534 80.2403C114.53 77.5242 112.33 75.3211 109.614 75.3113ZM50.3935 75.3113C48.4008 75.3113 46.6021 76.5115 45.8392 78.3529C45.0763 80.1943 45.4972 82.3152 46.9079 83.7259C48.3185 85.1333 50.4361 85.5575 52.2775 84.7946C54.119 84.0316 55.3192 82.233 55.3192 80.2403C55.3159 77.5209 53.1129 75.3178 50.3935 75.3113ZM55.0233 45.0001C52.8169 45.0001 50.8275 46.3285 49.9824 48.3672C49.1373 50.406 49.6075 52.7537 51.1695 54.3124C52.7314 55.8711 55.0792 56.3379 57.1146 55.4896C59.1534 54.6412 60.4785 52.6518 60.4752 50.4454C60.4719 47.4366 58.0321 45.0001 55.0233 45.0001ZM60.1102 55.5225H60.1069C57.2988 58.3273 52.7478 58.3273 49.9364 55.5225C46.8817 57.3178 45.0008 60.5962 45.0008 64.1407C45.0008 64.3742 45.0928 64.5978 45.2572 64.7622C45.4217 64.9266 45.6453 65.0187 45.8754 65.0187H64.1676C64.401 65.0187 64.6246 64.9266 64.789 64.7622C64.9534 64.5978 65.0455 64.3742 65.0455 64.1407C65.0324 60.6059 63.1548 57.3374 60.1066 55.5486L60.1102 55.5225ZM104.984 45.0001C102.778 45.0001 100.789 46.3285 99.9469 48.3672C99.1018 50.406 99.5687 52.7537 101.131 54.3124C102.693 55.8711 105.04 56.3379 107.079 55.4896C109.118 54.6412 110.443 52.6518 110.44 50.4454C110.436 47.4366 107.993 45.0001 104.984 45.0001ZM110.075 55.5225H110.071C107.26 58.3273 102.709 58.3273 99.9009 55.5225C96.8429 57.3178 94.9652 60.5962 94.962 64.1407C94.962 64.3742 95.054 64.5978 95.2185 64.7622C95.3829 64.9266 95.6065 65.0187 95.8399 65.0187H114.132C114.362 65.0187 114.586 64.9266 114.75 64.7622C114.915 64.5978 115.007 64.3742 115.007 64.1407C114.997 60.6059 113.119 57.3374 110.071 55.5486L110.075 55.5225ZM55.0258 94.9814H55.0225C52.8161 94.9814 50.8267 96.3098 49.9816 98.3486C49.1366 100.387 49.6068 102.735 51.1687 104.294C52.7307 105.852 55.0784 106.319 57.1139 105.471C59.1526 104.623 60.4778 102.633 60.4745 100.427C60.4778 98.9765 59.9056 97.5889 58.8797 96.563C57.8571 95.5371 56.4694 94.9617 55.0226 94.9617L55.0258 94.9814ZM60.1128 105.504H60.1062C57.2981 108.309 52.7471 108.309 49.9357 105.504C46.8809 107.299 45 110.578 45 114.122C45 114.355 45.0921 114.579 45.2565 114.744C45.4209 114.908 45.6445 115 45.8747 115H64.1668C64.4003 115 64.6239 114.908 64.7883 114.744C64.9527 114.579 65.0448 114.355 65.0448 114.122C65.0382 110.581 63.1606 107.305 60.1058 105.511L60.1128 105.504ZM104.99 94.9814H104.984C102.777 94.9814 100.788 96.3098 99.9461 98.3486C99.101 100.387 99.568 102.735 101.13 104.294C102.692 105.852 105.04 106.319 107.078 105.471C109.117 104.623 110.442 102.633 110.439 100.427C110.442 98.9765 109.867 97.5889 108.844 96.563C107.821 95.5371 106.434 94.9617 104.984 94.9617L104.99 94.9814ZM110.077 105.504H110.071C107.259 108.309 102.708 108.309 99.9002 105.504C96.8421 107.299 94.9645 110.578 94.9612 114.122C94.9612 114.355 95.0533 114.579 95.2177 114.744C95.3821 114.908 95.6057 115 95.8392 115H114.131C114.361 115 114.585 114.908 114.749 114.744C114.914 114.579 115.006 114.355 115.006 114.122C115.003 110.581 113.125 107.305 110.07 105.511L110.077 105.504ZM80.8806 60.59V57.2491C80.2986 57.3412 79.7067 57.3412 79.1247 57.2491V60.59H80.8806ZM96.5758 71.2345C96.4377 71.5633 96.2404 71.8625 95.9872 72.1125L95.54 72.5597C95.4315 72.6748 95.3558 72.8162 95.323 72.9707H104.967C105.201 72.9707 105.424 72.8786 105.589 72.7142C105.753 72.5498 105.845 72.3262 105.845 72.096V66.7986H104.093L104.089 71.2345L96.5758 71.2345ZM104.984 87.439H95.3394C95.3657 87.5968 95.4381 87.7448 95.5499 87.8599L95.9971 88.3071C96.247 88.5603 96.4476 88.8562 96.5857 89.185H104.119V93.2263H104.116C104.698 93.1573 105.29 93.1573 105.872 93.2263V88.3433C105.872 88.1098 105.776 87.8862 105.612 87.7185C105.444 87.5541 105.221 87.4653 104.984 87.4653L104.984 87.439ZM99.6602 79.3367V81.0893H102.991L102.994 81.0926C102.955 80.8 102.935 80.5073 102.932 80.2146C102.935 79.922 102.955 79.6293 102.994 79.3366L99.6602 79.3367ZM55.0225 72.9904H64.6669C64.6373 72.8358 64.565 72.6911 64.4565 72.5761L64.0093 72.1289C63.7561 71.8789 63.5588 71.583 63.4207 71.2542H55.8972V66.7986H54.1446V72.1124C54.1446 72.3458 54.2367 72.5694 54.4011 72.7338C54.5655 72.8982 54.7891 72.9904 55.0225 72.9904ZM57.0744 80.2146C57.0711 80.5073 57.0514 80.7999 57.0119 81.0926H60.3429V79.34H57.0119V79.3367C57.0514 79.636 57.0711 79.9385 57.0744 80.241V80.2146ZM79.1251 99.9016V103.233C79.7071 103.15 80.299 103.15 80.881 103.233V99.9016H79.1251ZM64.4662 87.896C64.5747 87.7809 64.6503 87.6395 64.6832 87.4849H55.0388C54.5554 87.4849 54.1608 87.8762 54.1608 88.3596V93.2789C54.7428 93.2099 55.3347 93.2099 55.9167 93.2789V89.2212H63.4304C63.5652 88.8924 63.7658 88.5932 64.019 88.3432L64.4662 87.896Z" fill="#0B0B0B"/>
</svg>
