<svg width="160" height="160" viewBox="0 0 160 160" fill="none" xmlns="http://www.w3.org/2000/svg">
<circle cx="80" cy="80" r="75" fill="#DDA72A" stroke="#0B0B0B" stroke-width="10"/>
<path d="M92.2215 50.8335H67.7798C57.1632 50.8335 50.834 57.1627 50.834 67.7793V92.1918C50.834 102.838 57.1632 109.167 67.7798 109.167H92.1923C102.809 109.167 109.138 102.838 109.138 92.221V67.7793C109.167 57.1627 102.838 50.8335 92.2215 50.8335ZM67.2548 97.9377C67.2548 99.1335 66.2632 100.125 65.0673 100.125C63.8715 100.125 62.8798 99.1335 62.8798 97.9377V91.9002C62.8798 90.7043 63.8715 89.7127 65.0673 89.7127C66.2632 89.7127 67.2548 90.7043 67.2548 91.9002V97.9377ZM82.1882 97.9377C82.1882 99.1335 81.1965 100.125 80.0007 100.125C78.8048 100.125 77.8132 99.1335 77.8132 97.9377V85.8335C77.8132 84.6377 78.8048 83.646 80.0007 83.646C81.1965 83.646 82.1882 84.6377 82.1882 85.8335V97.9377ZM97.1215 97.9377C97.1215 99.1335 96.1298 100.125 94.934 100.125C93.7382 100.125 92.7465 99.1335 92.7465 97.9377V79.796C92.7465 78.6002 93.7382 77.6085 94.934 77.6085C96.1298 77.6085 97.1215 78.6002 97.1215 79.796V97.9377ZM97.1215 70.5793C97.1215 71.7752 96.1298 72.7668 94.934 72.7668C93.7382 72.7668 92.7465 71.7752 92.7465 70.5793V67.7502C85.309 75.3918 76.0048 80.7877 65.5923 83.3835C65.4173 83.4418 65.2423 83.4418 65.0673 83.4418C64.0757 83.4418 63.2007 82.771 62.9382 81.7793C62.6465 80.6127 63.3465 79.4168 64.5423 79.1252C74.3715 76.6752 83.1215 71.5127 90.0632 64.221H86.4173C85.2215 64.221 84.2298 63.2293 84.2298 62.0335C84.2298 60.8377 85.2215 59.846 86.4173 59.846H94.9632C95.0798 59.846 95.1673 59.9043 95.284 59.9043C95.4298 59.9335 95.5756 59.9335 95.7215 59.9918C95.8673 60.0502 95.984 60.1377 96.1298 60.2252C96.2173 60.2835 96.3048 60.3127 96.3923 60.371C96.4215 60.4002 96.4215 60.4293 96.4506 60.4293C96.5673 60.546 96.6548 60.6627 96.7423 60.7793C96.8298 60.896 96.9173 60.9835 96.9465 61.1002C97.0048 61.2168 97.0048 61.3335 97.034 61.4793C97.0632 61.6252 97.1215 61.771 97.1215 61.946C97.1215 61.9752 97.1507 62.0043 97.1507 62.0335V70.5793H97.1215Z" fill="#0B0B0B"/>
</svg>
