<svg width="160" height="160" viewBox="0 0 160 160" fill="none" xmlns="http://www.w3.org/2000/svg">
<circle cx="80" cy="80" r="75" fill="#DDA72A" stroke="#0B0B0B" stroke-width="10"/>
<path d="M86.8239 104.637C87.1188 104.62 87.4067 104.724 87.6217 104.925C87.8368 105.126 87.9616 105.407 87.9616 105.702C87.9616 105.997 87.8368 106.278 87.6217 106.479C87.4067 106.68 87.1188 106.784 86.8239 106.767H65.2666C60.407 106.753 56.4702 102.816 56.4597 97.9601V82.5875C56.477 77.7314 60.4105 73.8015 65.2666 73.7841H94.4028C99.2589 73.798 103.192 77.7314 103.21 82.5841V95.8726C103.21 96.4588 102.734 96.9375 102.145 96.9375C101.559 96.9375 101.08 96.4588 101.08 95.8726V82.5876C101.07 78.904 98.0865 75.9244 94.4029 75.914H65.2667C61.5796 75.9244 58.5965 78.9074 58.5861 82.5911V97.961C58.5965 101.645 61.5796 104.628 65.2667 104.638L86.8239 104.637ZM69.7793 98.1127C69.5226 97.9948 69.3284 97.7763 69.2347 97.5127C69.1411 97.2456 69.1549 96.9542 69.2763 96.701C69.5261 96.1703 70.1608 95.9448 70.688 96.198C77.3409 99.3857 82.3285 99.3857 88.9821 96.198C89.5093 95.9448 90.1441 96.1703 90.3938 96.701C90.647 97.2282 90.4215 97.863 89.8908 98.1127C82.6448 101.581 77.0294 101.592 69.7764 98.1127L69.7793 98.1127ZM92.0168 82.5555C91.1809 81.7195 89.9252 81.4697 88.8361 81.9207C87.7434 82.3716 87.0324 83.4365 87.0324 84.6159C87.0324 85.7953 87.7435 86.86 88.8361 87.311C89.9253 87.762 91.1809 87.5122 92.0168 86.6763C93.1475 85.5351 93.1475 83.6966 92.0168 82.5555ZM89.9495 79.5759C91.9856 79.5759 93.8275 80.8003 94.6079 82.6872C95.3884 84.5707 94.9582 86.7386 93.5153 88.1816C92.0758 89.6211 89.9079 90.0546 88.0209 89.2742C86.1374 88.4938 84.9095 86.6554 84.9095 84.6158C84.9165 81.8374 87.1677 79.5828 89.9495 79.5793V79.5759ZM71.7842 82.5555C70.9518 81.723 69.6996 81.4732 68.6105 81.9242C67.5213 82.3751 66.8103 83.4365 66.8103 84.6158C66.8103 85.7951 67.5213 86.8565 68.6105 87.3074C69.6996 87.7583 70.9518 87.5086 71.7842 86.6761C72.9219 85.5384 72.9219 83.6931 71.7842 82.5555ZM69.7204 79.5759C71.76 79.5759 73.5984 80.8003 74.3823 82.6872C75.1627 84.5707 74.7326 86.7386 73.2896 88.1816C71.8501 89.6211 69.6788 90.0546 67.7953 89.2742C65.9118 88.4938 64.6839 86.6554 64.6839 84.6158C64.6839 81.834 66.9386 79.5793 69.7204 79.5793V79.5759ZM71.1461 68.4238H88.5272L86.2276 63.9666H73.4425L71.1461 68.4238ZM111.521 78.4899H114.067C113.034 63.6927 105.805 56.7141 91.2952 53.5742L90.0049 55.5549C103.737 58.2361 110.442 64.3687 111.52 78.4894L111.521 78.4899ZM51.2812 99.9264V80.6201H44.4411C42.9877 80.7623 41.9089 82.0318 42.0061 83.4887V97.0649C41.909 98.5217 42.9877 99.7913 44.4411 99.9301L51.2812 99.9264ZM73.2133 57.4325H73.2167C77.5664 56.8081 81.982 56.8081 86.3321 57.4325L90.4737 51.071V51.0744C83.415 49.6419 76.1374 49.6419 69.0753 51.0744L73.2133 57.4325ZM45.4819 78.4908H48.0209C49.1101 64.3702 55.8115 58.237 69.5436 55.5562L68.2533 53.5756C53.7403 56.7147 46.5164 63.6962 45.4819 78.4908ZM116.419 99.5624C117.221 98.9831 117.685 98.05 117.665 97.0649V83.4852C117.762 82.0318 116.686 80.7623 115.233 80.6166H108.389V99.8607H109.631V90.2697V90.2732C109.662 88.421 111.171 86.9329 113.023 86.9329C114.879 86.9329 116.388 88.421 116.419 90.2732L116.419 99.5624ZM100.603 100.263H93.0238C92.3821 100.266 91.8618 100.787 91.8548 101.432V105.074V105.071C91.8618 105.712 92.3821 106.233 93.0238 106.24H100.603C101.102 106.233 101.546 105.913 101.709 105.438L101.761 101.276C101.682 100.697 101.189 100.267 100.606 100.26L100.603 100.263ZM103.901 101.99V104.516L113.027 104.512C113.36 104.512 113.683 104.38 113.919 104.144C114.154 103.909 114.29 103.586 114.29 103.253V90.2771C114.29 89.5764 113.721 89.011 113.024 89.011C112.323 89.011 111.758 89.5764 111.758 90.2771V100.926C111.758 101.515 111.279 101.991 110.689 101.991L103.901 101.99ZM93.0238 98.1368H100.603C101.81 98.1368 102.923 98.7993 103.499 99.8607H106.26V77.2245C106.25 73.5408 103.263 70.5578 99.5796 70.5508H60.0888C56.4051 70.5578 53.422 73.5408 53.4116 77.2245V103.323C53.422 107.007 56.4051 109.99 60.0888 110H99.5831C101.976 109.997 104.186 108.713 105.379 106.639H103.503C102.923 107.7 101.813 108.363 100.603 108.366H93.0238C91.2063 108.359 89.7356 106.889 89.7287 105.071V101.429C89.7356 99.6113 91.2063 98.1402 93.0238 98.1368Z" fill="black"/>
</svg>
