<svg width="160" height="160" viewBox="0 0 160 160" fill="none" xmlns="http://www.w3.org/2000/svg">
<circle cx="80" cy="80" r="75" fill="#DDA72A" stroke="#0B0B0B" stroke-width="10"/>
<path fill-rule="evenodd" clip-rule="evenodd" d="M103.969 92.8429C107.005 92.8429 109.467 95.3043 109.467 98.3405C109.467 101.377 107.005 103.838 103.969 103.838C100.933 103.838 98.4716 101.377 98.4716 98.3405C98.4716 95.3043 100.933 92.8429 103.969 92.8429ZM79.7805 92.8429C76.7443 92.8429 74.2829 95.3043 74.2829 98.3405C74.2829 101.377 76.7443 103.838 79.7805 103.838C82.8167 103.838 85.2781 101.377 85.2781 98.3405C85.2781 95.3043 82.8167 92.8429 79.7805 92.8429ZM55.5918 92.8429C58.628 92.8429 61.0894 95.3043 61.0894 98.3405C61.0894 101.377 58.628 103.838 55.5918 103.838C52.5556 103.838 50.0942 101.377 50.0942 98.3405C50.0942 95.3043 52.5556 92.8429 55.5918 92.8429ZM46.1683 114.999H65.0145C65.7763 114.999 66.3302 114.292 66.1471 113.552C64.9758 108.811 60.6945 105.296 55.591 105.296C50.4883 105.296 46.2063 108.811 45.0349 113.552C44.8526 114.293 45.4065 114.999 46.1683 114.999ZM94.5464 114.999H113.393C114.154 114.999 114.708 114.292 114.525 113.552C113.354 108.811 109.073 105.296 103.969 105.296C98.8665 105.296 94.5845 108.811 93.4131 113.552C93.2308 114.293 93.7847 114.999 94.5464 114.999ZM89.204 115H70.3577C69.596 115 69.0421 114.293 69.2252 113.553C70.3958 108.812 74.6778 105.296 79.7805 105.296C84.884 105.296 89.1652 108.812 90.3366 113.553C90.5189 114.293 89.965 115 89.204 115ZM94.4169 75.1509C96.9171 71.9805 98.4088 67.9793 98.4088 63.6283C98.4088 53.3406 90.0682 45 79.7805 45C69.4928 45 61.1522 53.3398 61.1522 63.6283C61.1522 67.9793 62.6439 71.9813 65.1433 75.1517L61.0141 82.3939L68.2563 78.2647C70.8837 80.3367 74.0836 81.7159 77.579 82.127L79.7805 90.1674L81.982 82.1263C85.4767 81.7144 88.675 80.3351 91.3031 78.2647L98.5469 82.3947L94.4169 75.1509ZM74.8228 77.7519L72.7547 74.1929L68.6992 74.9011L71.246 69.4323C71.3383 69.4788 71.4158 69.523 71.4701 69.5618C71.7424 69.8287 72.3095 70.8076 72.5306 71.1451C73.5049 72.6353 75.1758 73.4374 76.8901 73.3148L74.8228 77.7519ZM86.8287 72.9882L84.6583 76.486L83.2938 73.3187C84.7816 73.2318 86.1756 72.4537 87.0312 71.1451C87.2515 70.8076 87.8186 69.8294 88.0909 69.5618C88.2351 69.4587 88.5423 69.319 88.8666 69.184L90.861 73.8144L86.8287 72.9882ZM91.2721 59.1399C89.9596 61.7371 90.0565 61.1832 90.4025 64.0728C90.5352 65.1828 89.9433 66.2076 88.9162 66.6474C86.2407 67.7932 86.672 67.4317 85.0787 69.8675C84.4667 70.803 83.355 71.2079 82.2853 70.8844C79.4997 70.0428 80.0621 70.0428 77.2764 70.8844C76.2067 71.2079 75.0943 70.803 74.4831 69.8675C72.8905 67.4317 73.321 67.7932 70.6455 66.6474C69.6177 66.2076 69.0266 65.1828 69.1592 64.0728C69.5044 61.1832 69.6022 61.7371 68.2897 59.1399C67.7854 58.1424 67.991 56.9772 68.8055 56.2123C70.9279 54.2211 70.6463 54.7074 71.3103 51.8745C71.5656 50.7861 72.4716 50.0259 73.5879 49.9639C76.4937 49.8025 75.9655 49.9949 78.295 48.2503C79.1902 47.5801 80.3731 47.5801 81.2683 48.2503C83.5978 49.9941 83.0696 49.8017 85.9754 49.9639C87.0917 50.0259 87.9978 50.7861 88.253 51.8745C88.917 54.7082 88.6354 54.2211 90.7578 56.2123C91.5715 56.9772 91.7771 58.1424 91.2721 59.1399ZM79.7805 52.4284C75.9461 52.4284 72.8377 55.5367 72.8377 59.3711C72.8377 63.2055 75.9461 66.3139 79.7805 66.3139C83.6149 66.3139 86.7232 63.2055 86.7232 59.3711C86.7232 55.5367 83.6149 52.4284 79.7805 52.4284ZM83.8282 58.1338L79.2514 62.2871C78.8 62.7502 78.0514 62.7494 77.5953 62.2933L75.6916 60.3896C75.2363 59.9343 75.2363 59.1958 75.6916 58.7397C76.147 58.2843 76.8855 58.2843 77.3416 58.7397L78.461 59.859L82.2605 56.4109C82.736 55.9781 83.4729 56.013 83.9058 56.4885C84.3387 56.9648 84.3038 57.701 83.8282 58.1338Z" fill="black"/>
</svg>
