<svg width="160" height="160" viewBox="0 0 160 160" fill="none" xmlns="http://www.w3.org/2000/svg">
<circle cx="80" cy="80" r="75" fill="#DDA72A" stroke="#0B0B0B" stroke-width="10"/>
<path fill-rule="evenodd" clip-rule="evenodd" d="M104.077 52.5385H99V50H96.4615V52.5385H91.3846V55.0769H98.953C98.7769 57.4 98.1169 59.26 97.1651 60.7528C96.4331 59.8433 95.8602 58.7906 95.5013 57.6154H92.8724C93.3421 59.6049 94.2801 61.3314 95.5252 62.746C94.3712 63.8517 92.9977 64.6997 91.5193 65.3334L92.5192 67.6665C94.2682 66.9171 95.9562 65.8786 97.3917 64.4721C97.9718 64.909 98.5875 65.2952 99.2291 65.628L100.088 63.2088C99.7221 63.0036 99.3691 62.7772 99.0315 62.5301C100.405 60.5444 101.301 58.0809 101.498 55.0769H104.077V52.5385ZM104.767 57.6155L100.269 70.3078H102.955L103.856 67.7693H108.105L109.007 70.3078H111.692L107.194 57.6155H104.767ZM107.204 65.2309L105.981 61.7848L104.758 65.2309H107.204ZM50.2828 96.4403C50.3823 96.5214 50.5035 96.5715 50.6312 96.5842C50.759 96.5969 50.8877 96.5717 51.0012 96.5117C51.1147 96.4516 51.208 96.3595 51.2695 96.2468C51.3309 96.134 51.3578 96.0057 51.3468 95.8778C51.2767 95.1985 51.2399 94.5031 51.2377 93.8113L51.2221 89.0171C51.1989 85.6588 51.8309 82.3281 53.0827 79.2117C53.1287 79.0905 53.1377 78.9584 53.1083 78.8321C53.079 78.7058 53.0128 78.5912 52.9181 78.5027C52.8234 78.4142 52.7045 78.3559 52.5765 78.3352C52.4486 78.3145 52.3173 78.3324 52.1996 78.3865C51.4791 78.726 50.8217 79.1856 50.2555 79.7456C48.2579 81.7354 48.1726 84.2717 48.0545 87.7841L48.0545 87.7844C47.9337 91.3199 47.8494 93.874 49.6987 95.8877C49.8813 96.0843 50.0764 96.2689 50.2828 96.4403ZM99.6665 93.8111L99.6821 89.0174C99.7056 85.6589 99.0737 82.328 97.822 79.2114C97.776 79.0903 97.767 78.9581 97.7964 78.8319C97.8257 78.7056 97.8919 78.5909 97.9866 78.5024C98.0813 78.414 98.2002 78.3557 98.3282 78.335C98.4561 78.3143 98.5874 78.3322 98.7051 78.3863C99.4256 78.7257 100.083 79.1853 100.649 79.7454C102.646 81.7352 102.732 84.2715 102.85 87.7839L102.85 87.7842L102.85 87.785C102.969 91.32 103.055 93.874 101.206 95.8875C101.023 96.0841 100.828 96.2686 100.621 96.44C100.522 96.5212 100.401 96.5713 100.273 96.584C100.145 96.5967 100.017 96.5714 99.9031 96.5114C99.7896 96.4514 99.6963 96.3593 99.6348 96.2466C99.5733 96.1338 99.5465 96.0055 99.5575 95.8776C99.6276 95.1982 99.6665 94.5034 99.6665 93.8111ZM71.004 89.7331C71.5735 90.3472 72.2637 90.8371 73.0313 91.1721C73.7989 91.5072 74.6274 91.6801 75.465 91.6801C76.3025 91.6801 77.131 91.5072 77.8986 91.1721C78.6663 90.8371 79.3564 90.3472 79.9259 89.7331C80.4025 89.2408 80.6671 88.5814 80.6631 87.8963C80.6591 87.2111 80.3866 86.5549 79.9043 86.0683C79.408 85.5944 78.7472 85.3319 78.061 85.3359C77.3749 85.3399 76.7172 85.6103 76.2265 86.0899C76.1423 86.2135 76.0293 86.3148 75.8972 86.385C75.7651 86.4551 75.6179 86.492 75.4683 86.4924C75.3187 86.4928 75.1713 86.4568 75.0388 86.3874C74.9062 86.318 74.7926 86.2174 74.7078 86.0942C74.2252 85.6031 73.5673 85.3237 72.8788 85.3176C72.1903 85.3116 71.5276 85.5792 71.0364 86.0618C70.5453 86.5443 70.266 87.2022 70.2599 87.8907C70.2538 88.5792 70.5215 89.2419 71.004 89.7331ZM69.9274 85.2182C69.4427 85.7037 68.7866 85.9795 68.1005 85.986C67.4026 85.9716 66.7384 85.6829 66.2517 85.1825C65.7651 84.6821 65.495 84.0101 65.5001 83.312C65.5087 82.5938 65.5087 81.1573 65.5001 80.439C65.495 79.741 65.7651 79.069 66.2517 78.5686C66.7384 78.0681 67.4026 77.7795 68.1005 77.765C68.7866 77.7716 69.4427 78.0474 69.9274 78.5329C70.4122 79.0185 70.6869 79.675 70.6923 80.3611V83.3899C70.6869 84.076 70.4122 84.7326 69.9274 85.2182ZM82.8047 85.986C83.5026 85.9716 84.1667 85.6829 84.6534 85.1825C85.1401 84.6821 85.4101 84.0101 85.4051 83.312C85.3964 82.5938 85.3964 81.1573 85.4051 80.439C85.4101 79.741 85.1401 79.069 84.6534 78.5686C84.1667 78.0681 83.5026 77.7795 82.8047 77.765C82.1186 77.7716 81.4625 78.0474 80.9777 78.5329C80.493 79.0185 80.2183 79.675 80.2129 80.3611V83.3899C80.2183 84.076 80.493 84.7326 80.9777 85.2182C81.4625 85.7037 82.1186 85.9795 82.8047 85.986ZM52.5196 89.017C52.5107 82.2924 55.1705 75.8391 59.915 71.0736C64.0458 66.9047 69.3103 64.5431 74.8028 64.3678V61.2586C73.9856 61.0974 73.2577 60.6378 72.7608 59.9694C72.2638 59.301 72.0334 58.4716 72.1144 57.6426C72.1954 56.8137 72.582 56.0445 73.1989 55.4849C73.8158 54.9254 74.6189 54.6154 75.4518 54.6154C76.2847 54.6154 77.0878 54.9254 77.7047 55.4849C78.3216 56.0445 78.7082 56.8137 78.7892 57.6426C78.8702 58.4716 78.6398 59.301 78.1428 59.9694C77.6459 60.6378 76.918 61.0974 76.1008 61.2586V64.3674C81.5994 64.5405 86.8699 66.9003 91.0046 71.074C95.7497 75.8405 98.4093 82.2952 98.3996 89.0209L98.3841 93.8068C98.3499 104.401 90.7805 110 76.4946 110H74.4242C60.1387 110 52.5697 104.401 52.5351 93.8068L52.5196 89.017ZM74.0095 103.505C74.4364 103.79 74.9383 103.942 75.4518 103.942C76.1403 103.942 76.8007 103.669 77.2875 103.182C77.7744 102.695 78.0479 102.035 78.0479 101.346C78.0479 100.833 77.8956 100.331 77.6104 99.904C77.3251 99.4771 76.9197 99.1443 76.4453 98.9478C75.9709 98.7513 75.4489 98.6999 74.9453 98.8001C74.4417 98.9003 73.9792 99.1475 73.6161 99.5106C73.253 99.8737 73.0058 100.336 72.9056 100.84C72.8054 101.343 72.8568 101.865 73.0533 102.34C73.2498 102.814 73.5826 103.22 74.0095 103.505ZM92.4654 90.2579C93.5813 79.8233 86.0435 70.6258 75.4518 70.6258C64.8601 70.6258 57.3223 79.8233 58.4382 90.2579C58.6355 92.1677 59.5323 93.937 60.9558 95.2253C62.3794 96.5135 64.2292 97.2296 66.1491 97.2358C68.4719 97.2293 69.6347 96.5819 70.7961 95.9353C71.9604 95.2871 73.1232 94.6397 75.4518 94.6397C77.7804 94.6397 78.9432 95.2871 80.1075 95.9353C81.2689 96.5819 82.4318 97.2293 84.7545 97.2358C86.6744 97.2296 88.5242 96.5135 89.9478 95.2253C91.3714 93.937 92.2681 92.1677 92.4654 90.2579Z" fill="#0B0B0B"/>
</svg>
