<svg width="68" height="79" viewBox="0 0 68 79" fill="none" xmlns="http://www.w3.org/2000/svg">
<path d="M66.3397 28.2616L63.8883 26.8496C63.1191 26.407 62.1997 26.2823 61.3712 26.5067C60.6051 26.7125 59.9735 27.1925 59.5951 27.8533L58.0817 30.4653C58.0755 30.4715 58.0724 30.4777 58.0692 30.4871C58.0661 30.4933 58.063 30.5027 58.0567 30.5089L55.674 34.6233L55.6678 22.4642C55.6678 20.6626 54.1982 19.1975 52.3908 19.1975H43.7698C43.7729 19.1072 43.7729 19.0168 43.7729 18.9264C43.7729 12.7205 38.7106 7.66815 32.4847 7.66815C26.2592 7.66815 21.1909 12.7176 21.1909 18.9264C21.1909 19.0168 21.194 19.1072 21.194 19.1975H12.5762C10.7657 19.1975 9.29296 20.6625 9.29296 22.4642V65.1918H2.36074C1.05998 65.1918 0 66.2484 0 67.5451V72.5759C0 76.1199 2.89233 79 6.44441 79H49.2167C52.7719 79 55.6611 76.1168 55.6611 72.5759L55.6673 53.1044L67.6215 32.4703C68.4502 31.0303 67.8717 29.1414 66.3395 28.2624L66.3397 28.2616ZM61.7339 29.0813C61.8027 28.966 61.9215 28.9099 62.0122 28.888C62.2123 28.8351 62.4437 28.8693 62.65 28.9878L65.1046 30.4029C65.4861 30.6211 65.6049 31.0231 65.4798 31.2445L64.573 32.8092L60.8271 30.6522L61.7339 29.0813ZM51.6151 55.1646L50.8178 54.7064L62.5311 34.48L63.3347 34.9413L51.6151 55.1646ZM47.7378 57.5491L47.594 55.7038L49.4138 56.7511L47.7378 57.5491ZM59.5888 32.788L60.3861 33.2493L48.6729 53.4756L47.8693 53.0143L59.5888 32.788ZM32.4857 10.1335C37.3448 10.1335 41.3005 14.0765 41.3005 18.9237C41.3005 22.0968 40.1154 23.4184 38.477 25.2449C38.2081 25.5442 37.9298 25.8559 37.6515 26.1832C36.9793 26.9655 36.4915 27.8258 36.1913 28.7516H35.6629V21.5171H36.0256C37.5921 21.5171 38.8679 20.2453 38.8679 18.6837C38.8679 17.1253 37.5921 15.8535 36.0256 15.8535C34.4622 15.8535 33.1864 17.1221 33.1864 18.6837V19.0516H31.7918V18.6837C31.7918 17.1253 30.516 15.8535 28.9495 15.8535C27.3799 15.8535 26.1072 17.1221 26.1072 18.6837C26.1072 20.2453 27.383 21.5171 28.9495 21.5171H29.3185V28.7516H28.7838C28.4836 27.8227 27.9958 26.9655 27.3236 26.1864C27.039 25.856 26.7608 25.5411 26.4887 25.2388C25.1192 23.7114 24.0686 22.5364 23.7621 20.3389C23.759 20.2891 23.7528 20.2423 23.7434 20.1924C23.6965 19.8028 23.6715 19.3851 23.6715 18.9239C23.6652 14.077 27.6201 10.1335 32.4857 10.1335ZM35.8221 31.22V32.1458H29.14V31.22H35.8221ZM29.312 19.0514H28.943C28.7429 19.0514 28.5741 18.883 28.5741 18.6836C28.5741 18.4872 28.7429 18.322 28.943 18.322C29.1432 18.322 29.312 18.4872 29.312 18.6836V19.0514ZM31.7853 21.52H33.1799V28.7545H31.7853V21.52ZM35.1842 34.6143C34.6995 35.1785 33.9803 35.5369 33.1768 35.5369H31.7853C30.9817 35.5369 30.2657 35.1785 29.7779 34.6143H35.1842ZM35.6563 19.0512V18.6834C35.6563 18.487 35.822 18.3218 36.019 18.3218C36.2191 18.3218 36.388 18.487 36.388 18.6834C36.388 18.8829 36.2191 19.0512 36.019 19.0512H35.6563ZM6.44881 76.528C4.26001 76.528 2.47776 74.7513 2.47776 72.5695V67.654H42.783V72.5695C42.783 74.0626 43.2958 75.4372 44.1525 76.528H6.44881ZM19.6942 63.409C19.5347 62.8012 19.0813 62.3243 18.4779 62.1279L17.3959 61.7788V60.6535L18.481 60.3013C19.0845 60.105 19.541 59.6249 19.6942 59.0233C19.8912 58.2784 20.1882 57.5584 20.5884 56.8757C20.898 56.3334 20.9136 55.6788 20.6322 55.1271L20.1163 54.111L20.9136 53.3162L21.9267 53.8336C22.4958 54.1235 23.1556 54.1017 23.6996 53.7806C24.3625 53.3941 25.0817 53.098 25.8352 52.9016L25.8509 52.8985C26.4606 52.7302 26.9233 52.2907 27.1203 51.6922L27.4737 50.6106H28.6025L28.9558 51.6922C29.1497 52.2876 29.6125 52.7271 30.2253 52.8954L30.2409 52.8985C30.9976 53.098 31.7168 53.3941 32.3703 53.7775C32.9144 54.1017 33.5804 54.1204 34.1432 53.8336L35.1625 53.3162L35.9599 54.111L35.4408 55.124C35.4377 55.1303 35.4346 55.1365 35.4314 55.1427C35.1563 55.7038 35.1782 56.3334 35.4908 56.882C35.8848 57.5553 36.185 58.2722 36.3789 59.0109C36.5352 59.6219 36.9886 60.1019 37.5952 60.2983L38.6802 60.6505V61.7757L37.5952 62.1248C36.9948 62.3212 36.5415 62.7981 36.382 63.4059C36.2225 64.02 35.988 64.6153 35.6878 65.1889H32.5298C33.4741 64.1291 34.0494 62.7389 34.0494 61.2147C34.0494 57.9138 31.354 55.227 28.0396 55.227C24.7283 55.227 22.033 57.9138 22.033 61.2147C22.033 62.7389 22.6083 64.1322 23.5495 65.1889H20.3914C20.0881 64.6185 19.8536 64.02 19.6942 63.409ZM24.5032 61.2147C24.5032 59.2728 26.0886 57.6956 28.0334 57.6956C29.9846 57.6956 31.5699 59.2759 31.5699 61.2147C31.5699 63.1597 29.9846 64.74 28.0334 64.74C26.0886 64.74 24.5032 63.1565 24.5032 61.2147ZM49.2241 76.528C47.0384 76.528 45.2593 74.7513 45.2593 72.5695V67.5387C45.2593 66.242 44.1993 65.1854 42.8986 65.1854H38.4022C38.5085 64.9142 38.6023 64.643 38.6836 64.3657L39.8936 63.9761C40.6503 63.7267 41.1569 63.0254 41.1569 62.2337V60.192C41.1569 59.3879 40.6409 58.6834 39.8843 58.4465L38.6805 58.0569C38.4616 57.3244 38.1645 56.6137 37.7987 55.9405L38.3677 54.8278C38.7398 54.1171 38.6054 53.2568 38.0363 52.6864L36.5886 51.2432C36.0257 50.6822 35.169 50.545 34.4498 50.9035L33.3242 51.477C32.655 51.1155 31.9452 50.8225 31.2073 50.6042L30.8165 49.4042C30.5663 48.6468 29.8659 48.1387 29.0655 48.1387H27.0174C26.22 48.1387 25.5165 48.6468 25.2664 49.4073L24.8755 50.6073C24.1376 50.8255 23.4247 51.1185 22.7524 51.4801L21.6205 50.9035C20.9076 50.5482 20.054 50.6884 19.4911 51.2495L18.0433 52.6926C17.4743 53.2599 17.3398 54.1202 17.7056 54.8216L18.2778 55.9468C17.912 56.6201 17.6181 57.3246 17.3992 58.057L16.2047 58.4466C15.4418 58.6866 14.9258 59.3879 14.9258 60.1952V62.2369C14.9258 63.0317 15.4355 63.7361 16.2016 63.9824L17.3992 64.3689C17.4805 64.6463 17.5774 64.9175 17.6806 65.1886H11.774L11.7709 22.4642C11.7709 22.0309 12.1398 21.6631 12.5776 21.6631H21.4988C22.0742 24.0195 23.3718 25.4689 24.6382 26.881C24.9008 27.174 25.1697 27.4732 25.4386 27.788C26.2767 28.7636 26.6675 29.8203 26.6675 31.1107V32.8999C26.6675 33.1025 26.68 33.3051 26.705 33.5015C26.705 33.5077 26.7082 33.517 26.7082 33.5233C27.0177 36.0449 29.1783 38.0024 31.7893 38.0024H33.1808C35.7948 38.0024 37.9523 36.0418 38.2619 33.5202C38.2619 33.5139 38.265 33.5077 38.265 33.5015C38.2869 33.3051 38.3026 33.1025 38.3026 32.8999V31.1107C38.3026 29.8203 38.6934 28.7636 39.5346 27.788C39.7972 27.4794 40.0661 27.1802 40.3256 26.8934C41.5951 25.4783 42.8959 24.0258 43.4712 21.6662H52.3949C52.8389 21.6662 53.1985 22.0247 53.1985 22.4673V38.897L45.1593 52.7581C45.1468 52.7799 45.1343 52.8018 45.125 52.8205C44.9968 53.0792 44.9405 53.3535 44.9561 53.6371C44.9561 53.6433 44.9561 53.6495 44.9592 53.6558L45.3657 58.9297C45.4032 59.469 45.7097 59.9552 46.1912 60.2295C46.4507 60.376 46.7352 60.4508 47.0198 60.4508C47.2606 60.4508 47.5013 60.3978 47.7202 60.2887L52.5137 58.004C52.5199 58.0008 52.5262 57.9977 52.5324 57.9946C52.8826 57.8201 53.0827 57.5707 53.1953 57.3712V72.5665C53.1953 74.7546 51.4128 76.528 49.2241 76.528ZM31.0663 5.07757V1.23434C31.0663 0.551724 31.6197 0 32.3045 0C32.9893 0 33.5428 0.551708 33.5428 1.23434V5.07757C33.5428 5.76019 32.9893 6.31191 32.3045 6.31191C31.6197 6.31191 31.0663 5.7602 31.0663 5.07757ZM38.2017 6.22773L40.131 2.89878C40.4718 2.30967 41.2285 2.10706 41.8226 2.44681C42.4136 2.78656 42.6169 3.54088 42.276 4.13311L40.3467 7.46206C40.1185 7.85792 39.7026 8.07923 39.2743 8.07923C39.0648 8.07923 38.8522 8.02624 38.6552 7.91403C38.0611 7.57116 37.8578 6.81685 38.2017 6.22773ZM43.3516 12.4648C43.0108 11.8757 43.2109 11.1214 43.8019 10.7785L47.1414 8.85529C47.7323 8.51554 48.489 8.71502 48.833 9.30413C49.1738 9.89324 48.9737 10.6476 48.3827 10.9904L45.0433 12.9136C44.8494 13.0258 44.6336 13.0788 44.4241 13.0788C43.9958 13.082 43.5798 12.8606 43.3516 12.4648ZM22.3361 4.13344C21.9953 3.54433 22.1954 2.79002 22.7864 2.44714C23.3773 2.10739 24.134 2.30688 24.478 2.89599L26.4073 6.22494C26.7481 6.81404 26.548 7.56836 25.957 7.91124C25.7632 8.02345 25.5474 8.07643 25.3379 8.07643C24.9095 8.07643 24.4937 7.85513 24.2655 7.45927L22.3361 4.13344ZM15.776 9.30764C16.1169 8.71853 16.8736 8.51593 17.4677 8.85568L20.8071 10.7789C21.3981 11.1186 21.6014 11.8729 21.2574 12.4652C21.0291 12.861 20.6133 13.0823 20.1849 13.0823C19.9754 13.0823 19.7628 13.0294 19.5658 12.9172L16.2263 10.9939C15.6354 10.6511 15.4352 9.89676 15.776 9.30764ZM48.805 42.2014H16.1611C15.4763 42.2014 14.9228 41.6497 14.9228 40.967C14.9228 40.2844 15.4763 39.7327 16.1611 39.7327H48.8082C49.493 39.7327 50.0464 40.2844 50.0464 40.967C50.0433 41.6496 49.4898 42.2014 48.805 42.2014ZM33.7209 45.0565C33.7209 45.7391 33.1675 46.2908 32.4827 46.2908H16.1603C15.4756 46.2908 14.9221 45.7391 14.9221 45.0565C14.9221 44.3739 15.4755 43.8222 16.1603 43.8222H32.4859C33.1675 43.8253 33.7209 44.377 33.7209 45.0565Z" fill="black"/>
</svg>
