<svg width="66" height="66" viewBox="0 0 66 66" fill="none" xmlns="http://www.w3.org/2000/svg">
<path d="M13.0017 56.0014H5.0034C3.34966 56.0014 2.0025 54.657 2.0025 53.0005V10.0008H44.0007V49.001C44.0007 49.5522 44.4479 50.0022 45.0019 50.0022C45.5559 50.0022 46.0031 49.555 46.0031 49.001L46.0003 5.00051C46.0003 2.24434 43.7559 0 40.9998 0L5.00051 0.00281279C2.24434 0.00281279 0 2.24715 0 5.00333V53.0033C0 55.7595 2.24434 58.0038 5.00051 58.0038H12.9988C13.5529 58.0038 14 57.5566 14 57.0026C14 56.4514 13.5529 56.0014 12.9988 56.0014L13.0017 56.0014ZM2.0025 5.00051C2.0025 3.34678 3.34686 1.99961 5.0034 1.99961H41.0027C42.6564 1.99961 44.0036 3.34397 44.0036 5.00051V8.00141H2.0025V5.00051Z" fill="black"/>
<path d="M7.00242 4.00195H6.00121C5.44716 4.00195 5 4.44913 5 5.00316C5 5.5544 5.44718 6.00438 6.00121 6.00438H7.00242C7.55647 6.00438 8.00363 5.5572 8.00363 5.00316C8.00363 4.45193 7.55646 4.00195 7.00242 4.00195Z" fill="black"/>
<path d="M12.0007 4.00244H10.9994C10.4454 4.00244 9.99823 4.44962 9.99823 5.00365C9.99823 5.55489 10.4454 6.00486 10.9994 6.00486H12.0007C12.5547 6.00486 13.0019 5.55769 13.0019 5.00365C13.0019 4.45242 12.5547 4.00244 12.0007 4.00244Z" fill="black"/>
<path d="M17.0005 4.00195H15.9993C15.4452 4.00195 14.998 4.44913 14.998 5.00316C14.998 5.5544 15.4452 6.00438 15.9993 6.00438H17.0005C17.5545 6.00438 18.0017 5.5572 18.0017 5.00316C18.0017 4.45193 17.5545 4.00195 17.0005 4.00195Z" fill="black"/>
<path d="M17.0011 38.0016H31.9998C35.3073 38.0016 37.9987 35.31 37.9987 32.0026C37.9987 28.6952 35.3072 26.0037 31.9998 26.0037L9.00278 26.0009C8.45155 26.0009 8.00157 25.5509 8.00157 24.9997V17.0014C8.00157 16.4502 8.44875 16.0002 9.00278 16.0002H37.0037C37.555 16.0002 38.0049 16.4502 38.0049 17.0014V24.9997C38.0049 25.5509 38.4521 26.0009 39.0061 26.0009C39.5602 26.0009 40.0074 25.5537 40.0074 24.9997V17.0014C40.0074 15.3477 38.663 14.0005 37.0065 14.0005H9.00264C7.3489 14.0005 6.00174 15.3448 6.00174 17.0014V24.9997C6.00174 26.6534 7.3461 28.0006 9.00264 28.0006H32.0026C34.2075 28.0006 36.0019 29.795 36.0019 31.9999C36.0019 34.2049 34.2075 35.9992 32.0026 35.9992H17.0038C13.6964 35.9992 11.0049 38.6907 11.0049 41.9981C11.0049 45.3055 13.6964 47.997 17.0038 47.997H29.0045C30.6583 47.997 32.0054 49.3414 32.0054 50.9979C32.0054 52.6517 30.6611 53.9988 29.0045 53.9988H22.0043C18.6969 53.9988 16.0054 56.6904 16.0054 59.9978C16.0054 63.3052 18.697 65.9967 22.0043 65.9967H34.0051C34.5591 65.9967 35.0063 65.5495 35.0063 64.9955C35.0063 64.4442 34.5591 63.9942 34.0051 63.9942H22.0043C19.7994 63.9942 18.005 62.1999 18.005 59.9949C18.005 57.79 19.7994 55.9956 22.0043 55.9956H29.0045C31.7607 55.9956 34.0051 53.7513 34.0051 50.9951C34.0051 48.239 31.7607 45.9946 29.0045 45.9946H17.0038C14.7989 45.9946 13.0045 44.2003 13.0045 41.9953C13.0045 39.7904 14.7989 37.996 17.0038 37.996L17.0011 38.0016Z" fill="black"/>
<path d="M65.9995 43.0027C65.9995 42.0915 65.6451 41.2337 64.9983 40.5896L64.4133 40.0018C63.1224 38.7137 60.8752 38.7109 59.5844 40.0018L48.5621 51.0241C44.3547 51.2519 40.9994 54.7393 40.9994 59.0029C40.9994 60.5695 40.2513 62.0629 38.9998 63.0023L37.3995 64.2032C37.0563 64.4619 36.9157 64.9119 37.0507 65.3197C37.1857 65.7275 37.5682 66.0032 37.9985 66.0032H46.9983C50.857 66.0032 53.9985 62.8645 53.9985 59.003V56.4184L64.9977 45.4191C65.6418 44.7751 65.999 43.9173 65.999 43.0032L65.9995 43.0027ZM47.0013 64.0004H40.8982C42.2286 62.6926 43.002 60.8842 43.002 58.9999C43.002 55.8246 45.4825 53.2231 48.6072 53.0206L52.0018 56.4152V58.9998C52.0018 61.756 49.7574 64.0004 47.0013 64.0004ZM63.5861 44.0013L53.0002 54.5873L50.4156 52.0027L61.0015 41.4167C61.5359 40.8824 62.4668 40.8824 63.0011 41.4167L63.5861 42.0045C63.8533 42.2717 63.9996 42.6261 63.9996 43.0029C63.9996 43.3798 63.8533 43.737 63.5861 44.0042V44.0013Z" fill="black"/>
</svg>
