<svg width="89" height="87" viewBox="0 0 89 87" fill="none" xmlns="http://www.w3.org/2000/svg">
<path d="M30.7312 79.1687C29.8679 79.1687 29.1687 79.8679 29.1687 80.7312V84.8992C29.1687 85.7625 29.8679 86.4617 30.7312 86.4617H68.2312C69.0945 86.4617 69.7937 85.7625 69.7937 84.8992V70.8602C69.782 67.3914 67.9656 64.1766 64.9968 62.3797L61.6999 60.3992C61.3366 59.7312 60.696 59.2586 59.9499 59.1023L52.6061 57.6335V54.6179C55.4108 53.3132 57.8405 51.3132 59.6647 48.8093C60.0826 48.9108 60.5084 48.9616 60.9381 48.9616C63.5943 48.9616 65.9069 47.1335 66.5162 44.5475C67.1256 41.9616 65.8756 39.2936 63.4967 38.11C63.524 37.7467 63.5436 37.3678 63.5436 36.9811C63.6725 32.0123 61.8247 27.192 58.4068 23.5791C54.9927 19.9697 50.2819 17.8564 45.3129 17.7119C40.3441 17.8564 35.6331 19.9697 32.2188 23.5791C28.8008 27.1924 26.9532 32.0127 27.0821 36.9811C27.0821 37.3678 27.1017 37.7428 27.129 38.11C24.7501 39.2936 23.5001 41.9616 24.1095 44.5475C24.7189 47.1334 27.0314 48.9616 29.6876 48.9616C30.1173 48.9616 30.5431 48.9108 30.961 48.8093C32.7852 51.3132 35.2149 53.3132 38.0196 54.6179V57.6335L30.6719 59.1023H30.6758C29.9297 59.2585 29.2891 59.7312 28.9258 60.3992L25.6289 62.3797C22.6601 64.1766 20.8437 67.3914 20.832 70.8602V84.8992C20.832 85.7625 21.5313 86.4617 22.3945 86.4617H24.4804C25.3437 86.4617 26.0429 85.7625 26.0429 84.8992C26.0429 84.0359 25.3437 83.3367 24.4804 83.3367H23.9609L23.957 70.8597C23.9648 68.4886 25.2109 66.2855 27.2422 65.0589L29.4453 63.7347L35.7851 73.2464V73.2503C36.2187 73.8987 36.9179 74.3206 37.6992 74.3948C37.7851 74.4026 37.8711 74.4104 37.957 74.4104C38.6445 74.4104 39.3086 74.1331 39.7929 73.6448L43.6445 69.7932H46.9765L50.8281 73.6448H50.832C51.3164 74.1331 51.9804 74.4104 52.6679 74.4104C52.7538 74.4104 52.8398 74.4026 52.9257 74.3948C53.707 74.3206 54.4062 73.8987 54.8398 73.2503L61.1796 63.7386L63.3827 65.0628V65.0589C65.4139 66.2855 66.66 68.4847 66.6679 70.8597V83.3367H61.4609L61.457 80.7312C61.457 79.8679 60.7578 79.1687 59.8945 79.1687C59.0312 79.1687 58.332 79.8679 58.332 80.7312V83.3367H46.875V76.5633C46.875 75.7 46.1758 75.0008 45.3125 75.0008C44.4492 75.0008 43.75 75.7 43.75 76.5633V83.3328H32.293V80.7312C32.293 79.8679 31.5945 79.1687 30.7312 79.1687ZM32.8757 46.0867C32.4382 45.4148 31.571 45.1804 30.8562 45.5398C30.1882 45.8796 29.4109 45.9148 28.7156 45.6375C28.0242 45.3601 27.4812 44.7976 27.2312 44.0945C26.9851 43.3874 27.0515 42.6101 27.4148 41.9578C27.778 41.3093 28.407 40.8445 29.1375 40.6883C29.9265 40.5164 30.4539 39.7781 30.3602 38.9774C30.2703 38.3133 30.2195 37.6493 30.2078 36.9813C30.0789 32.8407 31.5984 28.8171 34.4266 25.7902C37.2586 22.7629 41.1727 20.9817 45.3136 20.8372C49.4542 20.9817 53.3683 22.7629 56.2006 25.7902C59.0287 28.8175 60.5483 32.8411 60.4194 36.9813C60.4194 37.157 60.3882 37.3289 60.3804 37.5008H48.5754C48.3957 37.5047 48.2238 37.407 48.1301 37.2508L43.8723 30.157C43.3215 29.2312 42.2551 28.7429 41.1965 28.9265C40.134 29.1101 39.2981 29.9265 39.0871 30.9851L37.8683 37.0828C37.8175 37.325 37.6026 37.5008 37.3565 37.5008H34.8956C34.0324 37.5008 33.3331 38.2 33.3331 39.0633C33.3331 39.9265 34.0324 40.6258 34.8956 40.6258H37.3565C39.0948 40.6218 40.587 39.3992 40.9307 37.6961L41.8839 32.9188L45.4503 38.8601V38.8562C46.1104 39.9539 47.298 40.6218 48.5753 40.6257H61.3413C61.3881 40.6492 61.4389 40.6726 61.4897 40.6882C62.2202 40.8445 62.8491 41.3093 63.2124 41.9577C63.5757 42.6101 63.6421 43.3874 63.396 44.0944C63.146 44.7976 62.603 45.36 61.9116 45.6374C61.2163 45.9148 60.4389 45.8796 59.771 45.5398C59.0561 45.1804 58.1851 45.4148 57.7515 46.0867C56.0288 48.8211 53.482 50.9344 50.4781 52.1297C49.8765 52.3601 49.482 52.9422 49.482 53.5867V58.2117C49.2867 58.4031 49.1226 58.6257 48.9976 58.8679L45.521 65.821C45.4234 66.032 45.353 66.2546 45.314 66.4851C45.2749 66.2546 45.2046 66.032 45.103 65.821L41.6264 58.8679V58.864C41.5014 58.6218 41.3413 58.4031 41.146 58.2117V53.5867C41.146 52.9421 40.7514 52.3601 40.1499 52.1297C37.146 50.9344 34.5983 48.8211 32.8757 46.0867ZM38.0359 70.9847L32.0554 62.012V62.0159C32.1647 62.0042 32.278 61.9807 32.3835 61.9456L39.0085 60.6214L42.1413 66.8792L38.0359 70.9847ZM52.5949 70.9847L48.4855 66.8792L51.6183 60.6214L58.2277 61.9417C58.3371 61.9846 58.4503 62.012 58.5675 62.0276L52.5949 70.9847Z" fill="black"/>
<path d="M45.3121 0C44.4488 0 43.7496 0.69922 43.7496 1.5625V4.4102C40.9996 5.19145 39.2457 7.879 39.6363 10.711C40.0308 13.543 42.4527 15.6524 45.3121 15.6524C48.1715 15.6524 50.5933 13.543 50.9879 10.711C51.3785 7.879 49.6246 5.1915 46.8746 4.4102V1.5625C46.8746 0.69922 46.1754 0 45.3121 0ZM47.9176 9.8984C47.9176 10.9492 47.2809 11.8984 46.3082 12.3046C45.3355 12.7069 44.2144 12.4843 43.4723 11.7382C42.7262 10.9921 42.5035 9.87489 42.9059 8.90229C43.3082 7.92573 44.2575 7.29289 45.3121 7.29289C46.7496 7.29289 47.9137 8.4609 47.9176 9.8984Z" fill="black"/>
<path d="M76.3126 11.6216C76.0196 11.3286 75.6212 11.1646 75.2071 11.1646C74.793 11.1646 74.3946 11.3286 74.1016 11.6216L70.6016 15.1216C68.3711 13.9302 65.625 14.3013 63.7891 16.0396C62.7149 17.1138 62.1094 18.5708 62.1055 20.0943C62.1055 21.6138 62.7109 23.0709 63.7852 24.149C64.8594 25.2232 66.3164 25.8248 67.8399 25.8248C69.3594 25.8248 70.8165 25.2193 71.8907 24.1451V24.1411C73.6915 22.3325 74.0704 19.5473 72.8243 17.3169L76.3126 13.8286V13.8326C76.6055 13.5396 76.7696 13.1411 76.7696 12.7271C76.7696 12.313 76.6055 11.9146 76.3126 11.6216ZM69.6837 21.9336C68.6525 22.918 67.0314 22.918 66.0001 21.9336C65.254 21.1875 65.0313 20.0703 65.4337 19.0938C65.836 18.1211 66.7892 17.4883 67.8399 17.4883C68.8946 17.4883 69.8438 18.1211 70.2461 19.0938C70.6484 20.0703 70.4259 21.1876 69.6837 21.9336Z" fill="black"/>
<path d="M86.9805 41.6685H82.0469C81.2695 38.9185 78.5781 37.1646 75.7461 37.5552C72.9141 37.9498 70.8047 40.3716 70.8047 43.231C70.8047 46.0904 72.9141 48.5122 75.7461 48.9068C78.5781 49.2975 81.2695 47.5435 82.0469 44.7935H86.9805C87.8438 44.7935 88.543 44.0943 88.543 43.231C88.543 42.3678 87.8438 41.6685 86.9805 41.6685ZM76.5625 45.8365C75.5078 45.8365 74.5586 45.1998 74.1563 44.2271C73.754 43.2545 73.9766 42.1333 74.7227 41.3912C75.4649 40.6451 76.586 40.4225 77.5586 40.8248C78.5312 41.2272 79.168 42.1764 79.168 43.231C79.1641 44.6685 78 45.8326 76.5625 45.8365Z" fill="black"/>
<path d="M18.125 22.6685C20.3633 24.9029 23.9844 24.899 26.2188 22.6646C28.4571 20.4302 28.4571 16.8052 26.2266 14.5669C24.3907 12.8286 21.6446 12.4575 19.4141 13.6489L15.9102 10.1489C15.6172 9.85596 15.2227 9.68799 14.8047 9.68799C14.3907 9.68799 13.9922 9.85205 13.6992 10.145C13.4062 10.4419 13.2422 10.8364 13.2422 11.2544C13.2422 11.6685 13.4102 12.0669 13.7031 12.3599L17.1914 15.8482V15.8443C15.9453 18.0748 16.3242 20.8599 18.125 22.6685ZM22.1758 16.0162C23.2266 16.0162 24.1758 16.649 24.582 17.6217C24.9843 18.5944 24.7617 19.7155 24.0156 20.4615C22.9844 21.442 21.3633 21.442 20.332 20.4615C19.5859 19.7154 19.3632 18.5943 19.7695 17.6217C20.1718 16.6491 21.1212 16.0162 22.1758 16.0162Z" fill="black"/>
<path d="M11.9805 46.8753C14.1563 46.887 16.1485 45.6644 17.125 43.7191C18.1015 41.7738 17.8945 39.4418 16.5859 37.7035C15.2773 35.9652 13.0937 35.1176 10.957 35.516C8.8164 35.9144 7.0859 37.4926 6.4961 39.5863H1.5625C0.69922 39.5863 0 40.2855 0 41.1488C0 42.0121 0.69922 42.7113 1.5625 42.7113H6.4961C7.18751 45.1683 9.42576 46.8674 11.9805 46.8753ZM11.9805 38.5433C13.0313 38.5433 13.9805 39.1761 14.3867 40.1527C14.789 41.1253 14.5663 42.2425 13.8202 42.9886C13.0742 43.7347 11.957 43.9573 10.9844 43.555C10.0078 43.1487 9.37495 42.1995 9.37495 41.1488C9.37495 39.7113 10.543 38.5433 11.9805 38.5433Z" fill="black"/>
</svg>
