<svg width="55" height="68" viewBox="0 0 55 68" fill="none" xmlns="http://www.w3.org/2000/svg">
<path d="M51.7052 0H3.29494C1.47586 0.00265531 0 1.48699 0 3.31918V46.564C0 48.3962 1.47586 49.8806 3.29494 49.8832H14.954C15.4213 50.3214 15.9071 50.7356 16.4166 51.1233C16.715 51.3516 17.1242 51.3755 17.4489 51.1817L20.0019 49.6522C20.3082 49.8274 20.6171 49.9894 20.9339 50.1434V60.9749L19.2547 62.6663C18.0297 62.0716 16.5565 62.4513 15.767 63.5665C14.9802 64.6844 15.107 66.2086 16.068 67.1751C17.0291 68.1443 18.5445 68.2744 19.6534 67.4858C20.7649 66.6945 21.1477 65.2128 20.5589 63.9808L22.5126 62.0158C22.6869 61.8406 22.7819 61.6043 22.7819 61.3573V50.8902C23.0143 50.9672 23.2493 51.0416 23.4869 51.1053L24.2156 54.0023H24.2182C24.3106 54.3687 24.6142 54.6422 24.9865 54.6953C25.5092 54.7696 26.0399 54.8174 26.5733 54.844V59.0713C25.2954 59.5254 24.5272 60.8372 24.7568 62.1807C24.9865 63.5244 26.1429 64.5069 27.4973 64.5069C28.8517 64.5069 30.0108 63.5244 30.2378 62.1807C30.4675 60.8371 29.6992 59.5254 28.4214 59.0713V54.844C28.9547 54.8174 29.488 54.7696 30.0108 54.6953H30.0134C30.3857 54.6422 30.6893 54.3687 30.7817 54.0023L31.5078 51.1053C31.7454 51.0363 31.9804 50.9699 32.2153 50.8876V61.3574C32.2153 61.6043 32.313 61.8406 32.4873 62.0159L34.441 63.9808L34.4384 63.9782C33.8522 65.2129 34.2324 66.692 35.3413 67.4806C36.4501 68.2692 37.963 68.1417 38.924 67.1752C39.885 66.2086 40.0144 64.6844 39.2276 63.5692C38.4408 62.4566 36.9703 62.0716 35.7453 62.6638L34.0635 60.9723V50.1409C34.3803 49.9869 34.6892 49.8249 34.9954 49.6496L37.5485 51.1791V51.1818C37.8706 51.3756 38.2798 51.3517 38.5807 51.1233C39.0876 50.7357 39.5761 50.3214 40.0434 49.8833H51.7024C53.5241 49.8806 55 48.3963 55 46.5641V3.31925C55 1.48707 53.5243 0.0026511 51.7052 0ZM18.0536 66.1184C17.6787 66.1184 17.3381 65.8901 17.1955 65.5396C17.0503 65.1891 17.1295 64.7881 17.3962 64.5199C17.6628 64.2544 18.0641 64.1747 18.41 64.3181C18.7585 64.4641 18.9856 64.8067 18.9829 65.1837C18.9829 65.7015 18.5657 66.1184 18.0536 66.1184ZM37.8705 65.1837C37.8679 65.5608 37.6408 65.9007 37.2949 66.044C36.9464 66.1874 36.5478 66.1078 36.2838 65.8396C36.0198 65.5714 35.9405 65.1704 36.0857 64.8226C36.2283 64.4747 36.5689 64.2464 36.9438 64.249C37.1893 64.249 37.4243 64.3473 37.5985 64.5225C37.7728 64.6978 37.8705 64.9368 37.8705 65.1837ZM3.29494 1.8591H51.7052C52.5052 1.86176 53.152 2.51497 53.152 3.31952V8.54524H1.84827V3.31952C1.84827 2.51494 2.49498 1.86175 3.29494 1.8591ZM27.4997 62.64C27.1248 62.64 26.7869 62.4116 26.6417 62.0638C26.4991 61.7133 26.5783 61.3123 26.845 61.0441C27.109 60.7759 27.5103 60.6963 27.8562 60.8423C28.2047 60.9857 28.4317 61.3256 28.4317 61.7026C28.4317 61.9522 28.334 62.1912 28.1598 62.3664C27.9829 62.5417 27.7479 62.64 27.4997 62.64ZM37.9523 49.2567L35.4679 47.7697C35.1722 47.5944 34.8025 47.5971 34.5095 47.7803C33.2818 48.545 31.9406 49.1053 30.5334 49.4372C30.1981 49.5169 29.934 49.7798 29.8496 50.117L29.1473 52.929H29.1446C28.0516 53.0379 26.948 53.0379 25.855 52.929L25.1447 50.1144C25.0629 49.7771 24.7989 49.5143 24.4636 49.4346C23.059 49.1027 21.7152 48.5424 20.4901 47.7777C20.1971 47.5944 19.8274 47.5918 19.5317 47.7697L17.0499 49.2567H17.0473C16.1972 48.5557 15.4156 47.7697 14.7213 46.9147L16.2024 44.4239H16.1998C16.3793 44.1239 16.3767 43.7521 16.1919 43.4547C15.4289 42.2226 14.8744 40.8737 14.547 39.4611C14.4678 39.1212 14.2065 38.853 13.8712 38.7707L11.07 38.0591C11.0145 37.5094 10.9855 36.9571 10.9855 36.4048C10.9855 35.8525 11.0119 35.3001 11.0673 34.7505L13.8685 34.0388H13.8712C14.2065 33.9539 14.4678 33.6883 14.547 33.3485C14.8744 31.9358 15.4289 30.5842 16.1919 29.3522C16.3767 29.0574 16.3793 28.683 16.1998 28.3856L14.7213 25.9002C15.4156 25.0426 16.1972 24.2592 17.0473 23.5582L19.5291 25.0452H19.5317C19.8274 25.2231 20.197 25.2178 20.4901 25.0346C21.7152 24.2698 23.059 23.7122 24.4636 23.3777C24.7989 23.298 25.0603 23.0378 25.1447 22.7032L25.8549 19.8885C26.948 19.777 28.0516 19.777 29.1446 19.8885L29.8496 22.7005C29.934 23.0378 30.1981 23.3006 30.5334 23.3803C31.9405 23.7122 33.2818 24.2725 34.5095 25.0372C34.8025 25.2205 35.1721 25.2231 35.4679 25.0452L37.9496 23.5582H37.9523C38.8024 24.2592 39.5839 25.0426 40.2783 25.9002L38.7998 28.3883C38.6202 28.6857 38.6229 29.0601 38.8077 29.3549C39.5707 30.587 40.1251 31.9386 40.4525 33.3512C40.5317 33.6911 40.7931 33.9566 41.1284 34.0416L43.9243 34.7506C43.9771 35.3055 44.0062 35.8605 44.0062 36.4075C44.0062 36.9545 43.9798 37.5068 43.9243 38.0644L41.1258 38.7734V38.7708C40.7878 38.8557 40.5291 39.1239 40.4499 39.4611C40.1225 40.8764 39.5654 42.2254 38.8024 43.4574C38.6202 43.7522 38.615 44.1266 38.7945 44.4267L40.2756 46.9174C39.5787 47.7724 38.8024 48.5557 37.9523 49.2567ZM51.7052 48.0219H41.7704C41.8971 47.8653 42.0185 47.706 42.14 47.5466H42.1373C42.3644 47.2466 42.3882 46.835 42.1954 46.5111L40.6721 43.946L40.6694 43.9434C41.2978 42.8414 41.7835 41.6624 42.1162 40.4356L44.9966 39.7054C45.3636 39.6151 45.6382 39.3045 45.6883 38.9274C45.9154 37.2546 45.9154 35.5552 45.6883 33.8796C45.6382 33.5025 45.3636 33.1972 44.9966 33.1043L42.1162 32.3741L42.1136 32.3767C41.7809 31.1499 41.2951 29.9709 40.6694 28.8663L42.1928 26.3013C42.3855 25.9773 42.3644 25.5658 42.1373 25.2631C41.1209 23.9141 39.9249 22.7113 38.5837 21.689C38.2853 21.4606 37.8761 21.4367 37.5514 21.6306L34.9984 23.16V23.1627C33.9001 22.5334 32.7278 22.0448 31.5107 21.7076L30.7846 18.8106C30.6922 18.4442 30.3886 18.1707 30.0164 18.1176C28.3477 17.8866 26.658 17.8866 24.9895 18.1176C24.6172 18.1707 24.3136 18.4442 24.2212 18.8106L23.4925 21.7076C22.2727 22.0448 21.1031 22.5334 20.0048 23.1627L17.4492 21.6306C17.1271 21.4367 16.7179 21.4606 16.4169 21.689C15.0757 22.7113 13.8823 23.9141 12.8659 25.2631C12.6362 25.5658 12.615 25.9747 12.8078 26.3013L14.3311 28.8663C13.7054 29.9683 13.2197 31.1473 12.887 32.3741L10.0039 33.1043C9.63958 33.1972 9.36501 33.5026 9.31486 33.8796C9.08253 35.5551 9.08253 37.2573 9.31486 38.9354C9.36503 39.3125 9.6396 39.6178 10.0039 39.7081L12.8843 40.4383H12.887C13.2196 41.6651 13.7054 42.8441 14.3311 43.946L12.8078 46.5111V46.5137C12.615 46.8377 12.6362 47.2492 12.8659 47.5493C12.9873 47.7086 13.1088 47.8679 13.2355 48.0246H3.30065L3.29801 48.0273C2.91255 48.0246 2.54555 47.8706 2.27364 47.5971C2.00171 47.3236 1.84857 46.9518 1.84857 46.5642V10.4066H53.1523V46.5642C53.1523 47.3688 52.5054 48.022 51.7055 48.0246L51.7052 48.0219ZM31.7875 5.20465C31.7849 4.95771 31.8826 4.72138 32.0568 4.54878C32.2311 4.37353 32.4661 4.27529 32.7116 4.27529H48.7057C48.9566 4.26732 49.1968 4.36291 49.3763 4.53817C49.5559 4.71342 49.6562 4.95505 49.6562 5.20466C49.6562 5.45691 49.5559 5.6959 49.3763 5.87115C49.1968 6.0464 48.9566 6.142 48.7057 6.13403H32.7116C32.4661 6.13403 32.2311 6.03579 32.0568 5.86319C31.8826 5.68793 31.7875 5.4516 31.7875 5.20465ZM7.58478 7.43246C8.47979 7.43246 9.28767 6.89077 9.63089 6.05701C9.97411 5.22321 9.78401 4.26467 9.15037 3.62738C8.51673 2.9901 7.5636 2.8016 6.73462 3.14677C5.90822 3.49196 5.36704 4.30448 5.36967 5.20463C5.37232 6.43406 6.36244 7.42981 7.58478 7.43246ZM7.58478 4.83554C7.73263 4.83554 7.86728 4.92582 7.92272 5.0639C7.98081 5.20197 7.94912 5.3613 7.84351 5.46485C7.73791 5.57107 7.5795 5.60294 7.44485 5.54717C7.30756 5.48875 7.21779 5.35332 7.21779 5.20462C7.21779 5.00281 7.38149 4.8382 7.58478 4.83554ZM18.5443 7.43246C19.4393 7.43246 20.2471 6.88811 20.5877 6.05436C20.9309 5.22056 20.7382 4.26467 20.1046 3.62738C19.4709 2.9901 18.5178 2.8016 17.6915 3.14677C16.8624 3.49196 16.3239 4.30448 16.3239 5.20463C16.3265 6.43671 17.3192 7.43246 18.5443 7.43246ZM18.5443 4.83554C18.6921 4.83819 18.8241 4.92848 18.8796 5.06655C18.935 5.20462 18.9033 5.36129 18.7977 5.46751C18.6921 5.57106 18.5363 5.60293 18.399 5.54451C18.2618 5.48875 18.172 5.35332 18.172 5.20462C18.1746 5.10638 18.2116 5.01344 18.2829 4.9444C18.3515 4.87271 18.4466 4.83554 18.5443 4.83554ZM13.0659 7.43246C13.9609 7.43246 14.7688 6.88811 15.1093 6.05436C15.4526 5.22056 15.2625 4.26467 14.6262 3.62738C13.9925 2.9901 13.0394 2.8016 12.2131 3.14677C11.3867 3.49196 10.8455 4.30448 10.8455 5.20463C10.8481 6.43671 11.8408 7.43246 13.0659 7.43246ZM13.0659 4.83554C13.2137 4.83819 13.3457 4.92848 13.4012 5.06655C13.4566 5.20462 13.4249 5.36129 13.3193 5.46751C13.2164 5.57106 13.0579 5.60293 12.9207 5.54451C12.7834 5.48875 12.6962 5.35332 12.6962 5.20462C12.6962 5.10638 12.7332 5.01344 12.8045 4.9444C12.8731 4.87271 12.9682 4.83554 13.0659 4.83554ZM27.4994 25.2205C23.8084 25.2178 20.3553 27.0606 18.285 30.1355C16.2178 33.2104 15.798 37.1168 17.1709 40.5659C18.5438 44.0125 21.5272 46.5511 25.1335 47.3397C25.1731 47.3503 25.2127 47.3609 25.255 47.3689C26.7308 47.6716 28.2516 47.6716 29.7274 47.3689C29.7776 47.3609 29.8251 47.3503 29.8726 47.3344C33.4738 46.5404 36.452 44.0019 37.8197 40.5579C39.1873 37.1112 38.7675 33.2082 36.7003 30.1384C34.633 27.0662 31.1876 25.2231 27.4994 25.2205ZM26.335 45.6584V40.0848C26.335 39.7131 26.1133 39.3758 25.77 39.2298C24.4209 38.6536 23.4441 37.4401 23.1668 35.9903C22.8869 34.5431 23.3411 33.0508 24.3813 32.0073V35.8814C24.3813 36.216 24.5555 36.5213 24.8433 36.6886L27.0347 37.9605C27.3225 38.1252 27.6736 38.1252 27.9588 37.9605L30.1527 36.6886C30.4379 36.5213 30.6148 36.216 30.6148 35.8814V32.0073C31.6524 33.0508 32.1064 34.5431 31.8293 35.9903C31.552 37.4375 30.5752 38.6536 29.2287 39.2325C28.8854 39.3759 28.6637 39.7131 28.6637 40.0875V45.661C27.8901 45.7619 27.1086 45.7619 26.335 45.661V45.6584ZM30.5144 45.2256V40.6664C32.5922 39.5166 33.8464 37.2834 33.7513 34.8989C33.6563 32.5144 32.2306 30.3875 30.0683 29.405C29.7805 29.2749 29.4505 29.3015 29.1865 29.4714C28.9224 29.644 28.764 29.9361 28.764 30.2521V35.3477L27.4994 36.0805L26.2295 35.3477V30.2521C26.2295 29.9361 26.0684 29.644 25.8044 29.4714C25.5404 29.3015 25.2104 29.2749 24.9226 29.405C22.7603 30.3875 21.3346 32.5144 21.2422 34.9016C21.1498 37.2861 22.4065 39.5192 24.4843 40.6664V45.2282C20.1994 43.7465 17.6038 39.3652 18.3512 34.8672C19.0958 30.3717 22.9662 27.0763 27.4993 27.0763C32.0324 27.0763 35.9033 30.3717 36.6474 34.8672C37.3946 39.3653 34.7993 43.7463 30.5143 45.2282L30.5144 45.2256Z" fill="black"/>
</svg>
