<svg width="63" height="67" viewBox="0 0 63 67" fill="none" xmlns="http://www.w3.org/2000/svg">
<path d="M62.7008 38.3824C61.0196 36.9001 57.7972 36.431 54.4908 37.1904C54.0292 37.2965 53.5704 37.4249 53.1257 37.5728C52.4544 37.799 51.8978 38.12 51.3691 38.589L41.9338 46.9642C41.31 47.5198 40.5827 47.8017 39.7743 47.8073L40.0373 45.6466C40.3002 43.4774 38.7477 41.5009 36.5771 41.2385L20.8509 39.3346C19.883 39.2173 19.0215 39.3513 18.1347 39.7533L11.5389 42.7544L11.4465 41.5874C11.3878 40.8476 11.0437 40.172 10.4731 39.6863C9.90524 39.2005 9.18354 38.966 8.43951 39.0247L2.57647 39.4853C1.04081 39.6053 -0.11168 40.9509 0.00862468 42.4835L1.73456 64.4288C1.7933 65.1687 2.13736 65.8442 2.70802 66.33C3.21712 66.7655 3.85492 67 4.51781 67C4.59054 67 4.66607 66.9972 4.73879 66.9916L10.6046 66.531C12.1403 66.411 13.2928 65.0654 13.1725 63.5328L13.0382 61.8271L21.1029 59.4178L35.8695 61.2073C37.3548 61.3888 38.7339 60.956 39.8528 59.965L62.7063 39.6834C62.8937 39.5187 63 39.2814 63 39.033C62.9972 38.7845 62.8882 38.5472 62.7008 38.3824ZM10.468 64.7973L4.60218 65.2579C4.32525 65.2802 4.05392 65.1909 3.83854 65.0067C3.62315 64.8224 3.49447 64.5712 3.4721 64.292L1.74616 42.3495C1.72378 42.0732 1.8133 41.8024 1.99791 41.5874C2.18253 41.3725 2.43428 41.2441 2.71401 41.2217L8.57984 40.7611C8.85677 40.7388 9.1281 40.8281 9.34348 41.0123C9.55887 41.1966 9.68755 41.4478 9.70993 41.727L11.2484 61.2689V61.2773L11.4358 63.6725C11.4778 64.2448 11.0443 64.7526 10.468 64.7973ZM38.6922 58.664C37.9481 59.3256 37.0671 59.5992 36.0768 59.4792L21.1312 57.6673C21.0109 57.6534 20.8906 57.6617 20.7759 57.698L12.8989 60.0514L11.6849 44.5996L18.8602 41.3334C19.4504 41.0654 19.9986 40.9788 20.6448 41.057L36.371 42.9609C37.5878 43.1089 38.4578 44.2172 38.3123 45.4315L38.0437 47.6369L27.8952 46.4086C27.4169 46.3499 26.9834 46.6905 26.9246 47.1679C26.8658 47.6453 27.2071 48.078 27.6854 48.1366L38.6983 49.4711C38.7011 49.4711 38.7039 49.4711 38.7094 49.4738H38.7122C38.7178 49.4738 38.7262 49.4766 38.7318 49.4766L39.2689 49.5269C40.7011 49.6581 42.027 49.2226 43.104 48.2679L52.5421 39.8927C52.8973 39.5772 53.2442 39.3762 53.6946 39.2255C54.0834 39.0943 54.4862 38.9826 54.8946 38.8877C57.1101 38.3796 59.2891 38.494 60.7017 39.1445L38.6922 58.664ZM5.74035 42.2073C5.06061 42.2604 4.44521 42.5731 4.00045 43.0923C3.55848 43.6088 3.34309 44.2676 3.39624 44.9432C3.49974 46.2748 4.62141 47.2881 5.93616 47.2881C6.0033 47.2881 6.07043 47.2853 6.13756 47.2798C7.53897 47.1709 8.59077 45.9425 8.47884 44.5439C8.37254 43.1453 7.14175 42.0956 5.74035 42.2073ZM6.00329 45.5462C5.56132 45.5797 5.17247 45.2503 5.13617 44.8064C5.11938 44.5914 5.18652 44.3848 5.32638 44.2201C5.46624 44.0582 5.66205 43.9577 5.87744 43.941C6.3194 43.9075 6.70825 44.2369 6.74456 44.6808C6.77812 45.1247 6.44529 45.5128 6.00329 45.5462ZM21.4746 24.3463H23.2564C23.5473 25.2648 23.9166 26.1581 24.3641 27.0124L23.1026 28.2714C22.3893 28.9833 22.3893 30.1418 23.1026 30.8537L27.5559 35.2981C27.8999 35.6415 28.3587 35.8313 28.851 35.8313C29.3405 35.8313 29.7992 35.6415 30.1461 35.2981L31.4077 34.0391C32.2664 34.4857 33.1587 34.857 34.0791 35.1446V36.9229C34.0791 37.9307 34.9014 38.7486 35.9085 38.7486H42.2079C43.2177 38.7486 44.0373 37.9279 44.0373 36.9229V35.1446C44.9576 34.8542 45.8528 34.4857 46.7087 34.0391L47.9703 35.2981C48.3143 35.6415 48.7731 35.8313 49.2654 35.8313C49.7549 35.8313 50.2136 35.6415 50.5605 35.2981L55.0166 30.8537C55.7299 30.1418 55.7299 28.9833 55.0166 28.2714L53.755 27.0124C54.2026 26.1553 54.5746 25.2648 54.8628 24.3463H56.6446C57.6545 24.3463 58.474 23.5256 58.474 22.5205V16.2337C58.474 15.2259 57.6517 14.4079 56.6446 14.4079H54.8628C54.5718 13.4894 54.2026 12.5961 53.755 11.7418L55.0166 10.4828C55.7299 9.77095 55.7299 8.61239 55.0166 7.90051L50.5633 3.45613C50.2192 3.11276 49.7605 2.92293 49.2682 2.92293C48.7787 2.92293 48.3199 3.11276 47.9731 3.45613L46.7115 4.71516C45.8528 4.2685 44.9604 3.89723 44.0401 3.60964V1.83134C44.0373 0.820724 43.2177 0 42.2079 0H35.9085C34.8986 0 34.0791 0.820724 34.0791 1.82576V3.60407C33.1587 3.89161 32.2636 4.26291 31.4077 4.70959L30.1461 3.45056C29.4328 2.73869 28.272 2.73869 27.5586 3.45056L23.1026 7.89772C22.3893 8.6096 22.3893 9.76815 23.1026 10.48L24.3641 11.7391C23.9166 12.5933 23.5446 13.4866 23.2564 14.4051H21.4746C20.4647 14.4051 19.6451 15.2259 19.6451 16.2309V22.5178C19.6423 23.5256 20.4647 24.3463 21.4746 24.3463ZM21.3878 16.2334C21.3878 16.1887 21.4298 16.1469 21.4746 16.1469H23.9109C24.3053 16.1469 24.6494 15.8844 24.7529 15.5048C25.083 14.2904 25.5697 13.1179 26.2019 12.0208C26.3977 11.6802 26.3417 11.2503 26.062 10.9711L24.3361 9.24857C24.3053 9.21786 24.3053 9.15923 24.3361 9.12573L28.7921 4.68135C28.8229 4.65064 28.8816 4.65064 28.9124 4.68135L30.6355 6.40099C30.9152 6.67736 31.346 6.73599 31.6873 6.54057C32.7866 5.90965 33.9615 5.4239 35.1782 5.09451C35.5587 4.99122 35.8216 4.64784 35.8216 4.2542L35.8244 1.82548C35.8244 1.78081 35.8664 1.73894 35.9111 1.73894H42.2106C42.2553 1.73894 42.2973 1.78081 42.2973 1.82548V4.25699C42.2973 4.65061 42.5602 4.99396 42.9406 5.0973C44.1574 5.42672 45.3322 5.91245 46.4316 6.54336C46.7729 6.73877 47.2036 6.68294 47.4834 6.40377L49.2065 4.68414C49.2456 4.64506 49.2876 4.64506 49.3296 4.68414L53.7828 9.12852C53.8136 9.15922 53.8136 9.21785 53.7828 9.25135L52.0597 10.971C51.7828 11.2474 51.7241 11.6801 51.9199 12.0207C52.5521 13.1178 53.0388 14.2903 53.3688 15.5075C53.4723 15.8871 53.8164 16.1496 54.2108 16.1496H56.6444C56.6892 16.1496 56.7311 16.1914 56.7311 16.2361V22.523C56.7311 22.5676 56.6892 22.6095 56.6444 22.6095H54.208C53.8136 22.6095 53.4696 22.8719 53.366 23.2516C53.036 24.4659 52.5493 25.6384 51.9171 26.7356C51.7213 27.0762 51.7772 27.5061 52.057 27.7853L53.78 29.5049C53.8108 29.5356 53.8108 29.5943 53.78 29.625L49.324 34.0721C49.2848 34.1112 49.2429 34.1112 49.2037 34.0721L47.4806 32.3525C47.2009 32.0761 46.7701 32.0175 46.4288 32.2129C45.3295 32.8438 44.1546 33.3296 42.9378 33.659C42.5574 33.7623 42.2945 34.1056 42.2945 34.4993V36.928C42.2945 36.9727 42.2525 37.0146 42.2078 37.0146H35.9083C35.8636 37.0146 35.8216 36.9727 35.8216 36.928V34.4965C35.8216 34.1029 35.5587 33.7595 35.1783 33.6562C33.9615 33.3268 32.7866 32.841 31.6873 32.2101C31.5502 32.132 31.402 32.0957 31.2537 32.0957C31.0271 32.0957 30.8033 32.1822 30.6355 32.3497L28.9124 34.0693C28.8733 34.1084 28.8313 34.1084 28.7922 34.0693L24.3361 29.6222C24.3053 29.5915 24.3053 29.5329 24.3361 29.5021L26.0592 27.7825C26.3361 27.5061 26.3949 27.0734 26.199 26.7328C25.5669 25.6356 25.0801 24.4632 24.7501 23.2488C24.6466 22.8691 24.3025 22.6067 23.9081 22.6067H21.4745C21.4298 22.6067 21.3878 22.5648 21.3878 22.5202L21.3878 16.2334ZM39.0582 31.8389C45.9451 31.8389 51.5477 26.2472 51.5477 19.3744C51.5477 12.5015 45.9448 6.90984 39.0582 6.90984C32.1714 6.90984 26.5688 12.5015 26.5688 19.3744C26.5688 26.2472 32.1717 31.8389 39.0582 31.8389ZM39.0582 8.65148C44.9828 8.65148 49.8025 13.4616 49.8025 19.3744C49.8025 25.2899 44.9829 30.1001 39.0582 30.1001C33.1337 30.1001 28.3139 25.29 28.3139 19.3772C28.3139 13.4617 33.1336 8.65148 39.0582 8.65148ZM33.24 20.6386C32.9267 20.2729 32.9714 19.723 33.3379 19.4131C33.7043 19.1004 34.2553 19.1451 34.5658 19.5108L37.3015 22.7101L43.5058 14.1284C43.7884 13.7375 44.331 13.651 44.7226 13.9329C45.1143 14.2149 45.201 14.7564 44.9185 15.1473L38.0652 24.6281C37.9085 24.8458 37.6596 24.977 37.3939 24.9882H37.3575C37.1029 24.9882 36.8596 24.8765 36.6945 24.6839L33.24 20.6386Z" fill="black"/>
</svg>
