<svg width="64" height="73" viewBox="0 0 64 73" fill="none" xmlns="http://www.w3.org/2000/svg">
<path d="M64 25.643C63.9929 21.9574 62.532 18.4287 59.9336 15.8228C57.3352 13.2172 53.8162 11.7523 50.1406 11.7487H15.2845V1.01232C15.2845 0.452705 14.8295 0 14.2715 0H7.64221C3.423 0 0 3.43252 0 7.66347V48.3195C0.00710952 52.1228 3.08176 55.2025 6.87448 55.206H24.2493L20.4459 69.4427C20.3393 69.8384 20.4815 70.259 20.8049 70.5085C21.1319 70.758 21.5727 70.7865 21.9282 70.5834L26.4496 67.96L29.0586 72.4903V72.4939C29.2399 72.8075 29.574 73 29.9366 73C29.9792 73 30.0219 72.9964 30.0681 72.9893C30.4733 72.9394 30.8075 72.6436 30.9141 72.2479L33.9746 60.7742L34.4971 61.1022C35.4888 61.7331 36.7649 61.7081 37.7317 61.038L38.2294 60.6994L41.3147 72.2479C41.4213 72.6435 41.7554 72.9358 42.1606 72.9893C42.2033 72.9964 42.246 73 42.2922 73C42.6512 73 42.9853 72.8039 43.1666 72.4903L45.7756 67.9599L50.2934 70.5798C50.6453 70.783 51.0896 70.7544 51.4131 70.5049C51.7366 70.2554 51.8787 69.8348 51.7757 69.4391L51.111 66.9583H57.1253C60.918 66.9547 63.9926 63.8715 63.9962 60.0682L64 25.643ZM50.1413 13.7806C56.6745 13.7878 61.9671 19.0916 61.9781 25.643V55.1922C60.6948 53.9054 58.9496 53.1784 57.1297 53.1819H48.9152L50.9413 51.4746C51.8477 50.7225 52.2174 49.4999 51.8797 48.3736L51.0621 45.5541H51.0586C51.0088 45.3937 51.0053 45.2227 51.0515 45.0623L51.9366 41.4907V41.4871C52.228 40.3465 51.8122 39.1382 50.8773 38.4252L48.5632 36.6216C48.4282 36.5254 48.3251 36.3864 48.2682 36.2295L46.8891 32.8184C46.4554 31.7205 45.4104 30.9898 44.2374 30.9649L41.312 30.8722H41.3085C41.1414 30.8722 40.9815 30.8223 40.8428 30.7297L37.7255 28.7799C36.7338 28.149 35.4612 28.174 34.4908 28.8441L32.0702 30.4944C31.9351 30.5907 31.7751 30.6477 31.6081 30.6548L27.9434 30.915C26.7704 30.9899 25.7574 31.7598 25.3664 32.8719L24.3747 35.6343C24.3214 35.7947 24.2254 35.9337 24.0939 36.037L21.2823 38.411H21.2859C20.3795 39.1631 20.0098 40.3857 20.3439 41.512L21.1614 44.3314L21.165 44.335C21.2147 44.4918 21.2183 44.6629 21.1721 44.8233L20.287 48.3949L20.2905 48.3984C19.9955 49.5391 20.4114 50.7474 21.3463 51.4603L23.5608 53.1819H7.64373C4.70055 53.1783 2.25503 50.8971 2.04183 47.9493C2.24088 45.4186 4.34157 43.4652 6.876 43.4617H14.2765H14.273C14.831 43.4617 15.286 43.009 15.286 42.4494V13.7807L50.1413 13.7806ZM2.02712 7.66411C2.03067 4.55598 4.54371 2.03586 7.64331 2.0323H13.263V41.4264H6.87557C5.05565 41.4264 3.31035 42.15 2.02721 43.4403L2.02712 7.66411ZM29.5853 69.3604L27.6907 66.0704H27.6943C27.4135 65.5857 26.795 65.4181 26.3116 65.6997L23.0308 67.596L25.6789 57.6909C26.2121 58.443 27.0687 58.8956 27.9894 58.9171L30.9147 59.0098C31.0818 59.0098 31.2453 59.0597 31.3839 59.1523L32.1837 59.6514L29.5853 69.3604ZM36.5913 59.3622H36.5948C36.2891 59.5797 35.8803 59.5868 35.564 59.3801L32.4573 57.4303C32.0165 57.1523 31.5047 56.9955 30.9822 56.9812L28.0568 56.8885L28.0533 56.8921C27.68 56.8885 27.3459 56.6533 27.2108 56.3004L26.2013 53.8053V53.7982L25.8388 52.8857C25.6468 52.3974 25.3269 51.9696 24.9111 51.6524L22.597 49.8523C22.2949 49.6277 22.1598 49.2428 22.2594 48.8792L23.1444 45.3076C23.276 44.7979 23.2653 44.2597 23.116 43.7536L22.2985 40.9341L22.2949 40.9377C22.1812 40.5777 22.302 40.1856 22.5935 39.9504L25.4051 37.5764C25.8067 37.2414 26.1124 36.803 26.2866 36.3075L27.2712 33.5594C27.3885 33.2029 27.7155 32.957 28.0887 32.9392L31.7534 32.679C32.2759 32.6433 32.7771 32.4687 33.2073 32.1728L35.6279 30.5225L35.6315 30.5189C35.7843 30.412 35.9692 30.3514 36.1576 30.3514C36.3353 30.3514 36.5095 30.4049 36.6587 30.5011L39.7761 32.4508H39.7725C40.2168 32.7288 40.7252 32.8857 41.2477 32.8999L44.173 32.9926L44.1766 32.989C44.5498 32.9926 44.8839 33.2279 45.019 33.5807L46.3981 36.9919H46.3946C46.5901 37.4802 46.91 37.9044 47.3258 38.2252L49.6399 40.0253C49.942 40.2463 50.0771 40.6348 49.9775 40.9984L49.0924 44.57C48.9609 45.0797 48.9716 45.6179 49.1209 46.1205L49.9384 48.9399H49.942C50.0557 49.2999 49.9349 49.692 49.6434 49.9272L46.8318 52.3012V52.2976C46.4301 52.6326 46.1245 53.0711 45.9503 53.5665L44.9586 56.3289C44.8378 56.6853 44.5143 56.9348 44.1411 56.9527L40.4799 57.2129H40.4764C39.9539 57.2449 39.4527 57.4196 39.0225 57.719L36.5913 59.3622ZM45.9111 65.6998C45.68 65.5643 45.4028 65.5287 45.1433 65.6C44.8874 65.6677 44.667 65.8388 44.5319 66.0705L42.6374 69.3604L39.9999 59.4946L40.1528 59.3912C40.2879 59.295 40.4478 59.238 40.6149 59.2308L44.276 58.9706H44.2796C45.1931 58.9136 46.032 58.4253 46.5367 57.6553L49.1955 67.5997L45.9111 65.6998ZM57.1291 64.9299H50.5745L47.9761 55.2063H57.1294C58.4269 55.1885 59.678 55.6911 60.6022 56.6072C61.5264 57.5197 62.0453 58.7673 62.0453 60.0683C62.0453 61.3693 61.5264 62.6133 60.6022 63.5258C59.678 64.4419 58.4269 64.9445 57.1294 64.9267L57.1291 64.9299ZM43.8527 37.1773C40.7212 34.0406 36.015 33.1068 31.9277 34.8034C27.84 36.5036 25.1776 40.5029 25.1776 44.9403C25.1776 49.3776 27.84 53.3773 31.9277 55.0771C36.0154 56.7738 40.7217 55.8399 43.8527 52.7032C48.1217 48.4117 48.1217 41.4686 43.8527 37.1762V37.1773ZM36.111 53.8869C31.8562 53.8833 28.1986 50.8678 27.3703 46.6832C26.5457 42.4986 28.7815 38.3104 32.7128 36.6814C36.6441 35.0489 41.1762 36.4319 43.5368 39.9785C45.8971 43.5286 45.4313 48.2551 42.4242 51.2706C40.75 52.9494 38.4783 53.8904 36.111 53.8869ZM43.1952 43.2509C43.0708 42.8659 42.7296 42.595 42.3279 42.5558L38.5459 42.1994L37.0388 38.7027H37.0353C36.8753 38.332 36.5128 38.0896 36.1076 38.0896C35.7059 38.0896 35.3398 38.332 35.1799 38.7027L33.6728 42.1994L29.8908 42.5558C29.4892 42.595 29.1479 42.8659 29.0235 43.2509C28.8991 43.6358 29.0129 44.06 29.3185 44.3273L32.1693 46.8474L31.3411 50.565L31.3375 50.5615C31.2486 50.9571 31.4015 51.367 31.7285 51.6058C32.0555 51.8411 32.4927 51.8625 32.8411 51.6557L36.1113 49.7167L39.3815 51.6557H39.378C39.7263 51.8625 40.1635 51.8411 40.4871 51.6058C40.8141 51.367 40.9705 50.9571 40.8816 50.5615L40.0498 46.8438L42.9006 44.3238V44.3273C43.2027 44.06 43.3196 43.6358 43.1952 43.2509ZM38.265 45.7139V45.7174C37.9878 45.9598 37.8669 46.3377 37.9451 46.6976L38.4001 48.7115L36.6264 47.66L36.63 47.6636C36.3101 47.4747 35.9155 47.4747 35.5992 47.6636L33.8219 48.7151L34.2698 46.7012V46.6976C34.3515 46.3376 34.2307 45.9598 33.9534 45.7174L32.4072 44.3487L34.4582 44.1562V44.1527C34.8243 44.1206 35.1442 43.8853 35.2899 43.5467L36.1075 41.6505L36.925 43.5467H36.9286C37.0743 43.8853 37.3942 44.1206 37.7604 44.1527L39.8113 44.3451L38.265 45.7139ZM21.9003 19.3803C21.9003 19.1094 22.0069 18.8527 22.1989 18.6603C22.3873 18.4714 22.6467 18.3644 22.9133 18.3644H49.3131C49.8712 18.3644 50.3262 18.8207 50.3262 19.3803C50.3262 19.9399 49.8712 20.3926 49.3131 20.3926H22.9097C22.3516 20.3926 21.9003 19.9363 21.9003 19.3803ZM21.9003 25.3008C21.9003 25.0299 22.0069 24.7733 22.1989 24.5808C22.3873 24.3919 22.6467 24.2849 22.9133 24.2849H49.3131C49.8605 24.3028 50.2977 24.7519 50.2977 25.2973C50.2977 25.8462 49.8605 26.2953 49.3131 26.3131H22.9097C22.3516 26.3096 21.9038 25.8569 21.9003 25.3008Z" fill="black"/>
</svg>
