<svg width="1367" height="147" viewBox="0 0 1367 147" fill="none" xmlns="http://www.w3.org/2000/svg">
<path d="M-1495.93 107.793C-1495.93 105.254 -1496.32 102.975 -1497.11 100.957C-1497.82 98.8737 -1499.19 96.9857 -1501.21 95.293C-1503.23 93.5352 -1506.06 91.8099 -1509.7 90.1172C-1513.35 88.4245 -1518.07 86.6667 -1523.86 84.8438C-1530.31 82.7604 -1536.43 80.4167 -1542.22 77.8125C-1547.95 75.2083 -1553.03 72.181 -1557.46 68.7305C-1561.82 65.2148 -1565.27 61.1458 -1567.81 56.5234C-1570.28 51.901 -1571.52 46.5299 -1571.52 40.4102C-1571.52 34.4857 -1570.22 29.1146 -1567.61 24.2969C-1565.01 19.4141 -1561.36 15.2474 -1556.68 11.7969C-1551.99 8.28125 -1546.45 5.57943 -1540.07 3.69141C-1533.63 1.80339 -1526.57 0.859375 -1518.88 0.859375C-1508.4 0.859375 -1499.25 2.7474 -1491.44 6.52344C-1483.63 10.2995 -1477.57 15.4753 -1473.28 22.0508C-1468.92 28.6263 -1466.73 36.1458 -1466.73 44.6094H-1495.84C-1495.84 40.4427 -1496.71 36.7969 -1498.47 33.6719C-1500.17 30.4818 -1502.77 27.9753 -1506.29 26.1523C-1509.74 24.3294 -1514.1 23.418 -1519.37 23.418C-1524.45 23.418 -1528.68 24.1992 -1532.07 25.7617C-1535.45 27.2591 -1537.99 29.3099 -1539.68 31.9141C-1541.38 34.4531 -1542.22 37.3177 -1542.22 40.5078C-1542.22 42.9167 -1541.64 45.0977 -1540.46 47.0508C-1539.23 49.0039 -1537.4 50.8268 -1535 52.5195C-1532.59 54.2122 -1529.62 55.8073 -1526.11 57.3047C-1522.59 58.8021 -1518.52 60.2669 -1513.9 61.6992C-1506.15 64.043 -1499.35 66.6797 -1493.49 69.6094C-1487.57 72.5391 -1482.62 75.8268 -1478.65 79.4727C-1474.68 83.1185 -1471.68 87.2526 -1469.66 91.875C-1467.65 96.4974 -1466.64 101.738 -1466.64 107.598C-1466.64 113.783 -1467.84 119.316 -1470.25 124.199C-1472.66 129.082 -1476.14 133.216 -1480.7 136.602C-1485.26 139.987 -1490.69 142.559 -1497.01 144.316C-1503.32 146.074 -1510.39 146.953 -1518.2 146.953C-1525.23 146.953 -1532.16 146.042 -1539 144.219C-1545.84 142.331 -1552.05 139.499 -1557.65 135.723C-1563.19 131.947 -1567.61 127.129 -1570.93 121.27C-1574.25 115.41 -1575.91 108.477 -1575.91 100.469H-1546.52C-1546.52 104.896 -1545.84 108.639 -1544.47 111.699C-1543.1 114.759 -1541.18 117.233 -1538.71 119.121C-1536.17 121.009 -1533.17 122.376 -1529.72 123.223C-1526.21 124.069 -1522.37 124.492 -1518.2 124.492C-1513.12 124.492 -1508.95 123.776 -1505.7 122.344C-1502.38 120.911 -1499.94 118.926 -1498.38 116.387C-1496.75 113.848 -1495.93 110.983 -1495.93 107.793ZM-1351.3 122.148V145H-1426.99V122.148H-1351.3ZM-1417.42 2.8125V145H-1446.71V2.8125H-1417.42ZM-1361.17 60.7227V82.9883H-1426.99V60.7227H-1361.17ZM-1351.4 2.8125V25.7617H-1426.99V2.8125H-1351.4ZM-1276.4 27.1289L-1315.07 145H-1346.23L-1293.39 2.8125H-1273.57L-1276.4 27.1289ZM-1244.27 145L-1283.04 27.1289L-1286.17 2.8125H-1266.15L-1213.02 145H-1244.27ZM-1246.03 92.0703V115.02H-1321.13V92.0703H-1246.03ZM-1199.84 2.8125H-1146.81C-1135.94 2.8125 -1126.6 4.4401 -1118.79 7.69531C-1110.91 10.9505 -1104.85 15.7682 -1100.62 22.1484C-1096.39 28.5286 -1094.27 36.3737 -1094.27 45.6836C-1094.27 53.3008 -1095.58 59.8438 -1098.18 65.3125C-1100.72 70.7161 -1104.33 75.2409 -1109.02 78.8867C-1113.64 82.4674 -1119.08 85.332 -1125.33 87.4805L-1134.61 92.3633H-1180.7L-1180.89 69.5117H-1146.62C-1141.47 69.5117 -1137.21 68.6003 -1133.82 66.7773C-1130.44 64.9544 -1127.9 62.4154 -1126.21 59.1602C-1124.45 55.9049 -1123.57 52.1289 -1123.57 47.832C-1123.57 43.2747 -1124.42 39.3359 -1126.11 36.0156C-1127.8 32.6953 -1130.37 30.1562 -1133.82 28.3984C-1137.27 26.6406 -1141.6 25.7617 -1146.81 25.7617H-1170.54V145H-1199.84V2.8125ZM-1120.35 145L-1152.77 81.6211L-1121.81 81.4258L-1089 143.633V145H-1120.35ZM-989.293 97.832H-960.094C-960.68 107.402 -963.316 115.898 -968.004 123.32C-972.626 130.742 -979.104 136.536 -987.438 140.703C-995.706 144.87 -1005.67 146.953 -1017.32 146.953C-1026.43 146.953 -1034.61 145.391 -1041.83 142.266C-1049.06 139.076 -1055.24 134.518 -1060.39 128.594C-1065.46 122.669 -1069.34 115.508 -1072.01 107.109C-1074.68 98.7109 -1076.01 89.3034 -1076.01 78.8867V69.0234C-1076.01 58.6068 -1074.64 49.1992 -1071.91 40.8008C-1069.11 32.3372 -1065.14 25.1432 -1060 19.2188C-1054.79 13.2943 -1048.57 8.73698 -1041.34 5.54688C-1034.12 2.35677 -1026.04 0.761719 -1017.12 0.761719C-1005.28 0.761719 -995.283 2.91016 -987.145 7.20703C-978.941 11.5039 -972.594 17.4284 -968.102 24.9805C-963.544 32.5326 -960.81 41.1263 -959.898 50.7617H-989.195C-989.521 45.0326 -990.66 40.1823 -992.613 36.2109C-994.566 32.1745 -997.529 29.1471 -1001.5 27.1289C-1005.41 25.0456 -1010.61 24.0039 -1017.12 24.0039C-1022.01 24.0039 -1026.27 24.9154 -1029.92 26.7383C-1033.56 28.5612 -1036.62 31.3281 -1039.1 35.0391C-1041.57 38.75 -1043.43 43.4375 -1044.66 49.1016C-1045.84 54.7005 -1046.42 61.276 -1046.42 68.8281V78.8867C-1046.42 86.2435 -1045.87 92.7214 -1044.76 98.3203C-1043.65 103.854 -1041.96 108.542 -1039.68 112.383C-1037.34 116.159 -1034.35 119.023 -1030.7 120.977C-1026.99 122.865 -1022.53 123.809 -1017.32 123.809C-1011.2 123.809 -1006.15 122.832 -1002.18 120.879C-998.212 118.926 -995.185 116.029 -993.102 112.188C-990.953 108.346 -989.684 103.561 -989.293 97.832ZM-846.031 60.7227V83.5742H-920.25V60.7227H-846.031ZM-911.559 2.8125V145H-940.855V2.8125H-911.559ZM-825.133 2.8125V145H-854.332V2.8125H-825.133ZM-654.43 122.148V145H-730.113V122.148H-654.43ZM-720.543 2.8125V145H-749.84V2.8125H-720.543ZM-664.293 60.7227V82.9883H-730.113V60.7227H-664.293ZM-654.527 2.8125V25.7617H-730.113V2.8125H-654.527ZM-521.617 2.8125V145H-550.914L-608.043 49.6875V145H-637.34V2.8125H-608.043L-550.816 98.2227V2.8125H-521.617ZM-383.434 70.6836V127.031C-385.647 129.701 -389.065 132.598 -393.688 135.723C-398.31 138.783 -404.267 141.419 -411.559 143.633C-418.85 145.846 -427.672 146.953 -438.023 146.953C-447.203 146.953 -455.569 145.456 -463.121 142.461C-470.673 139.401 -477.184 134.941 -482.652 129.082C-488.056 123.223 -492.223 116.061 -495.152 107.598C-498.082 99.069 -499.547 89.3359 -499.547 78.3984V69.5117C-499.547 58.5742 -498.147 48.8411 -495.348 40.3125C-492.483 31.7839 -488.414 24.5898 -483.141 18.7305C-477.867 12.8711 -471.585 8.41146 -464.293 5.35156C-457.001 2.29167 -448.896 0.761719 -439.977 0.761719C-427.607 0.761719 -417.451 2.77995 -409.508 6.81641C-401.565 10.7878 -395.51 16.3216 -391.344 23.418C-387.112 30.4492 -384.508 38.5221 -383.531 47.6367H-411.949C-412.665 42.819 -414.033 38.6198 -416.051 35.0391C-418.069 31.4583 -420.966 28.6589 -424.742 26.6406C-428.453 24.6224 -433.271 23.6133 -439.195 23.6133C-444.078 23.6133 -448.44 24.6224 -452.281 26.6406C-456.057 28.5938 -459.247 31.4909 -461.852 35.332C-464.456 39.1732 -466.441 43.9258 -467.809 49.5898C-469.176 55.2539 -469.859 61.8294 -469.859 69.3164V78.3984C-469.859 85.8203 -469.143 92.3958 -467.711 98.125C-466.279 103.789 -464.163 108.574 -461.363 112.48C-458.499 116.322 -454.983 119.219 -450.816 121.172C-446.65 123.125 -441.799 124.102 -436.266 124.102C-431.643 124.102 -427.802 123.711 -424.742 122.93C-421.617 122.148 -419.111 121.204 -417.223 120.098C-415.27 118.926 -413.772 117.819 -412.73 116.777V91.582H-439.488V70.6836H-383.434ZM-328.648 2.8125V145H-357.848V2.8125H-328.648ZM-185.484 2.8125V145H-214.781L-271.91 49.6875V145H-301.207V2.8125H-271.91L-214.684 98.2227V2.8125H-185.484ZM-64.5859 122.148V145H-140.27V122.148H-64.5859ZM-130.699 2.8125V145H-159.996V2.8125H-130.699ZM-74.4492 60.7227V82.9883H-140.27V60.7227H-74.4492ZM-64.6836 2.8125V25.7617H-140.27V2.8125H-64.6836ZM119.105 70.5859V77.3242C119.105 88.1315 117.641 97.832 114.711 106.426C111.781 115.02 107.647 122.344 102.309 128.398C96.9701 134.388 90.5898 138.978 83.168 142.168C75.8112 145.358 67.6406 146.953 58.6562 146.953C49.737 146.953 41.5664 145.358 34.1445 142.168C26.7878 138.978 20.4076 134.388 15.0039 128.398C9.60026 122.344 5.40104 115.02 2.40625 106.426C-0.523438 97.832 -1.98828 88.1315 -1.98828 77.3242V70.5859C-1.98828 59.7135 -0.523438 50.013 2.40625 41.4844C5.33594 32.8906 9.47005 25.5664 14.8086 19.5117C20.2122 13.457 26.5924 8.83464 33.9492 5.64453C41.3711 2.45443 49.5417 0.859375 58.4609 0.859375C67.4453 0.859375 75.6159 2.45443 82.9727 5.64453C90.3945 8.83464 96.7747 13.457 102.113 19.5117C107.517 25.5664 111.684 32.8906 114.613 41.4844C117.608 50.013 119.105 59.7135 119.105 70.5859ZM89.5156 77.3242V70.3906C89.5156 62.8385 88.832 56.1979 87.4648 50.4688C86.0977 44.7396 84.0794 39.9219 81.4102 36.0156C78.7409 32.1094 75.4857 29.1797 71.6445 27.2266C67.8034 25.2083 63.4089 24.1992 58.4609 24.1992C53.513 24.1992 49.1185 25.2083 45.2773 27.2266C41.5013 29.1797 38.2786 32.1094 35.6094 36.0156C33.0052 39.9219 31.0195 44.7396 29.6523 50.4688C28.2852 56.1979 27.6016 62.8385 27.6016 70.3906V77.3242C27.6016 84.8112 28.2852 91.4518 29.6523 97.2461C31.0195 102.975 33.0378 107.826 35.707 111.797C38.3763 115.703 41.6315 118.665 45.4727 120.684C49.3138 122.702 53.7083 123.711 58.6562 123.711C63.6042 123.711 67.9987 122.702 71.8398 120.684C75.681 118.665 78.9036 115.703 81.5078 111.797C84.112 107.826 86.0977 102.975 87.4648 97.2461C88.832 91.4518 89.5156 84.8112 89.5156 77.3242ZM195.57 94.3164H159.34V71.4648H195.57C201.169 71.4648 205.727 70.5534 209.242 68.7305C212.758 66.8424 215.329 64.2383 216.957 60.918C218.585 57.5977 219.398 53.8542 219.398 49.6875C219.398 45.4557 218.585 41.5169 216.957 37.8711C215.329 34.2253 212.758 31.2956 209.242 29.082C205.727 26.8685 201.169 25.7617 195.57 25.7617H169.496V145H140.199V2.8125H195.57C206.703 2.8125 216.241 4.83073 224.184 8.86719C232.191 12.8385 238.311 18.3398 242.543 25.3711C246.775 32.4023 248.891 40.4427 248.891 49.4922C248.891 58.6719 246.775 66.6146 242.543 73.3203C238.311 80.026 232.191 85.2018 224.184 88.8477C216.241 92.4935 206.703 94.3164 195.57 94.3164ZM332.68 2.8125V145H303.48V2.8125H332.68ZM376.43 2.8125V25.7617H260.414V2.8125H376.43ZM424.281 2.8125V145H395.082V2.8125H424.281ZM465.102 2.8125H489.906L526.43 107.207L562.953 2.8125H587.758L536.391 145H516.469L465.102 2.8125ZM451.723 2.8125H476.43L480.922 104.57V145H451.723V2.8125ZM576.43 2.8125H601.234V145H571.938V104.57L576.43 2.8125ZM658.07 2.8125V145H628.871V2.8125H658.07ZM788.344 122.148V145H687.562V122.148H788.344ZM786.879 19.1211L700.551 145H679.945V128.203L766.957 2.8125H786.879V19.1211ZM776.82 2.8125V25.7617H680.043V2.8125H776.82ZM866.176 27.1289L827.504 145H796.352L849.184 2.8125H869.008L866.176 27.1289ZM898.305 145L859.535 27.1289L856.41 2.8125H876.43L929.555 145H898.305ZM896.547 92.0703V115.02H821.449V92.0703H896.547ZM994.203 2.8125V145H965.004V2.8125H994.203ZM1037.95 2.8125V25.7617H921.938V2.8125H1037.95ZM1085.8 2.8125V145H1056.61V2.8125H1085.8ZM1230.04 70.5859V77.3242C1230.04 88.1315 1228.58 97.832 1225.65 106.426C1222.72 115.02 1218.58 122.344 1213.25 128.398C1207.91 134.388 1201.53 138.978 1194.11 142.168C1186.75 145.358 1178.58 146.953 1169.59 146.953C1160.67 146.953 1152.5 145.358 1145.08 142.168C1137.73 138.978 1131.35 134.388 1125.94 128.398C1120.54 122.344 1116.34 115.02 1113.34 106.426C1110.41 97.832 1108.95 88.1315 1108.95 77.3242V70.5859C1108.95 59.7135 1110.41 50.013 1113.34 41.4844C1116.27 32.8906 1120.41 25.5664 1125.75 19.5117C1131.15 13.457 1137.53 8.83464 1144.89 5.64453C1152.31 2.45443 1160.48 0.859375 1169.4 0.859375C1178.38 0.859375 1186.55 2.45443 1193.91 5.64453C1201.33 8.83464 1207.71 13.457 1213.05 19.5117C1218.45 25.5664 1222.62 32.8906 1225.55 41.4844C1228.55 50.013 1230.04 59.7135 1230.04 70.5859ZM1200.45 77.3242V70.3906C1200.45 62.8385 1199.77 56.1979 1198.4 50.4688C1197.04 44.7396 1195.02 39.9219 1192.35 36.0156C1189.68 32.1094 1186.42 29.1797 1182.58 27.2266C1178.74 25.2083 1174.35 24.1992 1169.4 24.1992C1164.45 24.1992 1160.06 25.2083 1156.21 27.2266C1152.44 29.1797 1149.22 32.1094 1146.55 36.0156C1143.94 39.9219 1141.96 44.7396 1140.59 50.4688C1139.22 56.1979 1138.54 62.8385 1138.54 70.3906V77.3242C1138.54 84.8112 1139.22 91.4518 1140.59 97.2461C1141.96 102.975 1143.98 107.826 1146.64 111.797C1149.31 115.703 1152.57 118.665 1156.41 120.684C1160.25 122.702 1164.65 123.711 1169.59 123.711C1174.54 123.711 1178.94 122.702 1182.78 120.684C1186.62 118.665 1189.84 115.703 1192.45 111.797C1195.05 107.826 1197.04 102.975 1198.4 97.2461C1199.77 91.4518 1200.45 84.8112 1200.45 77.3242ZM1366.86 2.8125V145H1337.56L1280.43 49.6875V145H1251.14V2.8125H1280.43L1337.66 98.2227V2.8125H1366.86Z" fill="#EDBB47"/>
</svg>
