<svg width="1512" height="147" viewBox="0 0 1512 147" fill="none" xmlns="http://www.w3.org/2000/svg">
<path d="M-35.6914 122.148V145H-111.375V122.148H-35.6914ZM-101.805 2.8125V145H-131.102V2.8125H-101.805ZM-45.5547 60.7227V82.9883H-111.375V60.7227H-45.5547ZM-35.7891 2.8125V25.7617H-111.375V2.8125H-35.7891ZM63.8203 97.832H93.0195C92.4336 107.402 89.7969 115.898 85.1094 123.32C80.487 130.742 74.0091 136.536 65.6758 140.703C57.4076 144.87 47.4466 146.953 35.793 146.953C26.6784 146.953 18.5078 145.391 11.2812 142.266C4.05469 139.076 -2.13021 134.518 -7.27344 128.594C-12.3516 122.669 -16.2253 115.508 -18.8945 107.109C-21.5638 98.7109 -22.8984 89.3034 -22.8984 78.8867V69.0234C-22.8984 58.6068 -21.5312 49.1992 -18.7969 40.8008C-15.9974 32.3372 -12.026 25.1432 -6.88281 19.2188C-1.67448 13.2943 4.54297 8.73698 11.7695 5.54688C18.9961 2.35677 27.069 0.761719 35.9883 0.761719C47.8372 0.761719 57.8307 2.91016 65.9688 7.20703C74.1719 11.5039 80.5195 17.4284 85.0117 24.9805C89.569 32.5326 92.3034 41.1263 93.2148 50.7617H63.918C63.5924 45.0326 62.4531 40.1823 60.5 36.2109C58.5469 32.1745 55.5846 29.1471 51.6133 27.1289C47.707 25.0456 42.4987 24.0039 35.9883 24.0039C31.1055 24.0039 26.8411 24.9154 23.1953 26.7383C19.5495 28.5612 16.4896 31.3281 14.0156 35.0391C11.5417 38.75 9.6862 43.4375 8.44922 49.1016C7.27734 54.7005 6.69141 61.276 6.69141 68.8281V78.8867C6.69141 86.2435 7.24479 92.7214 8.35156 98.3203C9.45833 103.854 11.151 108.542 13.4297 112.383C15.7734 116.159 18.7682 119.023 22.4141 120.977C26.125 122.865 30.5846 123.809 35.793 123.809C41.9128 123.809 46.9583 122.832 50.9297 120.879C54.901 118.926 57.9284 116.029 60.0117 112.188C62.1602 108.346 63.4297 103.561 63.8203 97.832ZM229.055 70.5859V77.3242C229.055 88.1315 227.59 97.832 224.66 106.426C221.73 115.02 217.596 122.344 212.258 128.398C206.919 134.388 200.539 138.978 193.117 142.168C185.76 145.358 177.59 146.953 168.605 146.953C159.686 146.953 151.516 145.358 144.094 142.168C136.737 138.978 130.357 134.388 124.953 128.398C119.549 122.344 115.35 115.02 112.355 106.426C109.426 97.832 107.961 88.1315 107.961 77.3242V70.5859C107.961 59.7135 109.426 50.013 112.355 41.4844C115.285 32.8906 119.419 25.5664 124.758 19.5117C130.161 13.457 136.542 8.83464 143.898 5.64453C151.32 2.45443 159.491 0.859375 168.41 0.859375C177.395 0.859375 185.565 2.45443 192.922 5.64453C200.344 8.83464 206.724 13.457 212.062 19.5117C217.466 25.5664 221.633 32.8906 224.562 41.4844C227.557 50.013 229.055 59.7135 229.055 70.5859ZM199.465 77.3242V70.3906C199.465 62.8385 198.781 56.1979 197.414 50.4688C196.047 44.7396 194.029 39.9219 191.359 36.0156C188.69 32.1094 185.435 29.1797 181.594 27.2266C177.753 25.2083 173.358 24.1992 168.41 24.1992C163.462 24.1992 159.068 25.2083 155.227 27.2266C151.451 29.1797 148.228 32.1094 145.559 36.0156C142.954 39.9219 140.969 44.7396 139.602 50.4688C138.234 56.1979 137.551 62.8385 137.551 70.3906V77.3242C137.551 84.8112 138.234 91.4518 139.602 97.2461C140.969 102.975 142.987 107.826 145.656 111.797C148.326 115.703 151.581 118.665 155.422 120.684C159.263 122.702 163.658 123.711 168.605 123.711C173.553 123.711 177.948 122.702 181.789 120.684C185.63 118.665 188.853 115.703 191.457 111.797C194.061 107.826 196.047 102.975 197.414 97.2461C198.781 91.4518 199.465 84.8112 199.465 77.3242ZM263.527 2.8125H288.332L324.855 107.207L361.379 2.8125H386.184L334.816 145H314.895L263.527 2.8125ZM250.148 2.8125H274.855L279.348 104.57V145H250.148V2.8125ZM374.855 2.8125H399.66V145H370.363V104.57L374.855 2.8125ZM438.723 2.8125H463.527L500.051 107.207L536.574 2.8125H561.379L510.012 145H490.09L438.723 2.8125ZM425.344 2.8125H450.051L454.543 104.57V145H425.344V2.8125ZM550.051 2.8125H574.855V145H545.559V104.57L550.051 2.8125ZM695.949 122.148V145H620.266V122.148H695.949ZM629.836 2.8125V145H600.539V2.8125H629.836ZM686.086 60.7227V82.9883H620.266V60.7227H686.086ZM695.852 2.8125V25.7617H620.266V2.8125H695.852ZM713.039 2.8125H766.066C776.939 2.8125 786.281 4.4401 794.094 7.69531C801.971 10.9505 808.026 15.7682 812.258 22.1484C816.49 28.5286 818.605 36.3737 818.605 45.6836C818.605 53.3008 817.303 59.8438 814.699 65.3125C812.16 70.7161 808.547 75.2409 803.859 78.8867C799.237 82.4674 793.801 85.332 787.551 87.4805L778.273 92.3633H732.18L731.984 69.5117H766.262C771.405 69.5117 775.669 68.6003 779.055 66.7773C782.44 64.9544 784.979 62.4154 786.672 59.1602C788.43 55.9049 789.309 52.1289 789.309 47.832C789.309 43.2747 788.462 39.3359 786.77 36.0156C785.077 32.6953 782.505 30.1562 779.055 28.3984C775.604 26.6406 771.275 25.7617 766.066 25.7617H742.336V145H713.039V2.8125ZM792.531 145L760.109 81.6211L791.066 81.4258L823.879 143.633V145H792.531ZM923.586 97.832H952.785C952.199 107.402 949.562 115.898 944.875 123.32C940.253 130.742 933.775 136.536 925.441 140.703C917.173 144.87 907.212 146.953 895.559 146.953C886.444 146.953 878.273 145.391 871.047 142.266C863.82 139.076 857.635 134.518 852.492 128.594C847.414 122.669 843.54 115.508 840.871 107.109C838.202 98.7109 836.867 89.3034 836.867 78.8867V69.0234C836.867 58.6068 838.234 49.1992 840.969 40.8008C843.768 32.3372 847.74 25.1432 852.883 19.2188C858.091 13.2943 864.309 8.73698 871.535 5.54688C878.762 2.35677 886.835 0.761719 895.754 0.761719C907.603 0.761719 917.596 2.91016 925.734 7.20703C933.938 11.5039 940.285 17.4284 944.777 24.9805C949.335 32.5326 952.069 41.1263 952.98 50.7617H923.684C923.358 45.0326 922.219 40.1823 920.266 36.2109C918.312 32.1745 915.35 29.1471 911.379 27.1289C907.473 25.0456 902.264 24.0039 895.754 24.0039C890.871 24.0039 886.607 24.9154 882.961 26.7383C879.315 28.5612 876.255 31.3281 873.781 35.0391C871.307 38.75 869.452 43.4375 868.215 49.1016C867.043 54.7005 866.457 61.276 866.457 68.8281V78.8867C866.457 86.2435 867.01 92.7214 868.117 98.3203C869.224 103.854 870.917 108.542 873.195 112.383C875.539 116.159 878.534 119.023 882.18 120.977C885.891 122.865 890.35 123.809 895.559 123.809C901.678 123.809 906.724 122.832 910.695 120.879C914.667 118.926 917.694 116.029 919.777 112.188C921.926 108.346 923.195 103.561 923.586 97.832ZM1067.43 122.148V145H991.75V122.148H1067.43ZM1001.32 2.8125V145H972.023V2.8125H1001.32ZM1057.57 60.7227V82.9883H991.75V60.7227H1057.57ZM1067.34 2.8125V25.7617H991.75V2.8125H1067.34ZM1168.61 122.441L1196.93 2.8125H1212.75L1216.36 22.7344L1186.18 145H1169.19L1168.61 122.441ZM1154.05 2.8125L1177.49 122.441L1175.54 145H1156.59L1125.05 2.8125H1154.05ZM1241.26 121.953L1264.41 2.8125H1293.41L1261.96 145H1243.02L1241.26 121.953ZM1221.63 2.8125L1250.15 122.93L1249.37 145H1232.38L1202 22.6367L1205.91 2.8125H1221.63ZM1426.12 70.5859V77.3242C1426.12 88.1315 1424.66 97.832 1421.73 106.426C1418.8 115.02 1414.67 122.344 1409.33 128.398C1403.99 134.388 1397.61 138.978 1390.19 142.168C1382.83 145.358 1374.66 146.953 1365.68 146.953C1356.76 146.953 1348.59 145.358 1341.16 142.168C1333.81 138.978 1327.43 134.388 1322.02 128.398C1316.62 122.344 1312.42 115.02 1309.43 106.426C1306.5 97.832 1305.03 88.1315 1305.03 77.3242V70.5859C1305.03 59.7135 1306.5 50.013 1309.43 41.4844C1312.36 32.8906 1316.49 25.5664 1321.83 19.5117C1327.23 13.457 1333.61 8.83464 1340.97 5.64453C1348.39 2.45443 1356.56 0.859375 1365.48 0.859375C1374.46 0.859375 1382.64 2.45443 1389.99 5.64453C1397.41 8.83464 1403.79 13.457 1409.13 19.5117C1414.54 25.5664 1418.7 32.8906 1421.63 41.4844C1424.63 50.013 1426.12 59.7135 1426.12 70.5859ZM1396.54 77.3242V70.3906C1396.54 62.8385 1395.85 56.1979 1394.48 50.4688C1393.12 44.7396 1391.1 39.9219 1388.43 36.0156C1385.76 32.1094 1382.51 29.1797 1378.66 27.2266C1374.82 25.2083 1370.43 24.1992 1365.48 24.1992C1360.53 24.1992 1356.14 25.2083 1352.3 27.2266C1348.52 29.1797 1345.3 32.1094 1342.63 36.0156C1340.02 39.9219 1338.04 44.7396 1336.67 50.4688C1335.3 56.1979 1334.62 62.8385 1334.62 70.3906V77.3242C1334.62 84.8112 1335.3 91.4518 1336.67 97.2461C1338.04 102.975 1340.06 107.826 1342.73 111.797C1345.4 115.703 1348.65 118.665 1352.49 120.684C1356.33 122.702 1360.73 123.711 1365.68 123.711C1370.62 123.711 1375.02 122.702 1378.86 120.684C1382.7 118.665 1385.92 115.703 1388.53 111.797C1391.13 107.826 1393.12 102.975 1394.48 97.2461C1395.85 91.4518 1396.54 84.8112 1396.54 77.3242ZM1447.22 2.8125H1500.25C1511.12 2.8125 1520.46 4.4401 1528.27 7.69531C1536.15 10.9505 1542.21 15.7682 1546.44 22.1484C1550.67 28.5286 1552.79 36.3737 1552.79 45.6836C1552.79 53.3008 1551.48 59.8438 1548.88 65.3125C1546.34 70.7161 1542.73 75.2409 1538.04 78.8867C1533.42 82.4674 1527.98 85.332 1521.73 87.4805L1512.45 92.3633H1466.36L1466.16 69.5117H1500.44C1505.58 69.5117 1509.85 68.6003 1513.23 66.7773C1516.62 64.9544 1519.16 62.4154 1520.85 59.1602C1522.61 55.9049 1523.49 52.1289 1523.49 47.832C1523.49 43.2747 1522.64 39.3359 1520.95 36.0156C1519.26 32.6953 1516.68 30.1562 1513.23 28.3984C1509.78 26.6406 1505.45 25.7617 1500.25 25.7617H1476.52V145H1447.22V2.8125ZM1526.71 145L1494.29 81.6211L1525.25 81.4258L1558.06 143.633V145H1526.71ZM1604.64 2.8125V145H1575.34V2.8125H1604.64ZM1689.8 2.8125L1633.45 73.0273L1600.93 107.988L1595.66 80.2539L1617.63 50.1758L1653.86 2.8125H1689.8ZM1656.5 145L1614.6 79.2773L1636.28 61.1133L1691.16 145H1656.5Z" fill="#141414"/>
</svg>
